<?xml version="1.0" encoding="utf-8" standalone="no"?>
<!DOCTYPE svg PUBLIC "-//W3C//DTD SVG 1.1//EN"
  "http://www.w3.org/Graphics/SVG/1.1/DTD/svg11.dtd">
<!-- Created with matplotlib (https://matplotlib.org/) -->
<svg height="345.6pt" version="1.1" viewBox="0 0 460.8 345.6" width="460.8pt" xmlns="http://www.w3.org/2000/svg" xmlns:xlink="http://www.w3.org/1999/xlink">
 <metadata>
  <rdf:RDF xmlns:cc="http://creativecommons.org/ns#" xmlns:dc="http://purl.org/dc/elements/1.1/" xmlns:rdf="http://www.w3.org/1999/02/22-rdf-syntax-ns#">
   <cc:Work>
    <dc:type rdf:resource="http://purl.org/dc/dcmitype/StillImage"/>
    <dc:date>2022-01-07T13:07:28.151875</dc:date>
    <dc:format>image/svg+xml</dc:format>
    <dc:creator>
     <cc:Agent>
      <dc:title>Matplotlib v3.3.3, https://matplotlib.org/</dc:title>
     </cc:Agent>
    </dc:creator>
   </cc:Work>
  </rdf:RDF>
 </metadata>
 <defs>
  <style type="text/css">*{stroke-linecap:butt;stroke-linejoin:round;}</style>
 </defs>
 <g id="figure_1">
  <g id="patch_1">
   <path d="M 0 345.6 
L 460.8 345.6 
L 460.8 0 
L 0 0 
z
" style="fill:#ffffff;"/>
  </g>
  <g id="axes_1">
   <g id="patch_2">
    <path d="M 57.6 307.584 
L 414.72 307.584 
L 414.72 41.472 
L 57.6 41.472 
z
" style="fill:#ffffff;"/>
   </g>
   <g id="matplotlib.axis_1">
    <g id="xtick_1">
     <g id="line2d_1">
      <defs>
       <path d="M 0 0 
L 0 3.5 
" id="m4ba589e779" style="stroke:#000000;stroke-width:0.8;"/>
      </defs>
      <g>
       <use style="stroke:#000000;stroke-width:0.8;" x="73.832727" xlink:href="#m4ba589e779" y="307.584"/>
      </g>
     </g>
     <g id="text_1">
      <!-- 100 -->
      <g transform="translate(64.288977 322.182437)scale(0.1 -0.1)">
       <defs>
        <path d="M 12.40625 8.296875 
L 28.515625 8.296875 
L 28.515625 63.921875 
L 10.984375 60.40625 
L 10.984375 69.390625 
L 28.421875 72.90625 
L 38.28125 72.90625 
L 38.28125 8.296875 
L 54.390625 8.296875 
L 54.390625 0 
L 12.40625 0 
z
" id="DejaVuSans-49"/>
        <path d="M 31.78125 66.40625 
Q 24.171875 66.40625 20.328125 58.90625 
Q 16.5 51.421875 16.5 36.375 
Q 16.5 21.390625 20.328125 13.890625 
Q 24.171875 6.390625 31.78125 6.390625 
Q 39.453125 6.390625 43.28125 13.890625 
Q 47.125 21.390625 47.125 36.375 
Q 47.125 51.421875 43.28125 58.90625 
Q 39.453125 66.40625 31.78125 66.40625 
z
M 31.78125 74.21875 
Q 44.046875 74.21875 50.515625 64.515625 
Q 56.984375 54.828125 56.984375 36.375 
Q 56.984375 17.96875 50.515625 8.265625 
Q 44.046875 -1.421875 31.78125 -1.421875 
Q 19.53125 -1.421875 13.0625 8.265625 
Q 6.59375 17.96875 6.59375 36.375 
Q 6.59375 54.828125 13.0625 64.515625 
Q 19.53125 74.21875 31.78125 74.21875 
z
" id="DejaVuSans-48"/>
       </defs>
       <use xlink:href="#DejaVuSans-49"/>
       <use x="63.623047" xlink:href="#DejaVuSans-48"/>
       <use x="127.246094" xlink:href="#DejaVuSans-48"/>
      </g>
     </g>
    </g>
    <g id="xtick_2">
     <g id="line2d_2">
      <g>
       <use style="stroke:#000000;stroke-width:0.8;" x="120.478495" xlink:href="#m4ba589e779" y="307.584"/>
      </g>
     </g>
     <g id="text_2">
      <!-- 125 -->
      <g transform="translate(110.934745 322.182437)scale(0.1 -0.1)">
       <defs>
        <path d="M 19.1875 8.296875 
L 53.609375 8.296875 
L 53.609375 0 
L 7.328125 0 
L 7.328125 8.296875 
Q 12.9375 14.109375 22.625 23.890625 
Q 32.328125 33.6875 34.8125 36.53125 
Q 39.546875 41.84375 41.421875 45.53125 
Q 43.3125 49.21875 43.3125 52.78125 
Q 43.3125 58.59375 39.234375 62.25 
Q 35.15625 65.921875 28.609375 65.921875 
Q 23.96875 65.921875 18.8125 64.3125 
Q 13.671875 62.703125 7.8125 59.421875 
L 7.8125 69.390625 
Q 13.765625 71.78125 18.9375 73 
Q 24.125 74.21875 28.421875 74.21875 
Q 39.75 74.21875 46.484375 68.546875 
Q 53.21875 62.890625 53.21875 53.421875 
Q 53.21875 48.921875 51.53125 44.890625 
Q 49.859375 40.875 45.40625 35.40625 
Q 44.1875 33.984375 37.640625 27.21875 
Q 31.109375 20.453125 19.1875 8.296875 
z
" id="DejaVuSans-50"/>
        <path d="M 10.796875 72.90625 
L 49.515625 72.90625 
L 49.515625 64.59375 
L 19.828125 64.59375 
L 19.828125 46.734375 
Q 21.96875 47.46875 24.109375 47.828125 
Q 26.265625 48.1875 28.421875 48.1875 
Q 40.625 48.1875 47.75 41.5 
Q 54.890625 34.8125 54.890625 23.390625 
Q 54.890625 11.625 47.5625 5.09375 
Q 40.234375 -1.421875 26.90625 -1.421875 
Q 22.3125 -1.421875 17.546875 -0.640625 
Q 12.796875 0.140625 7.71875 1.703125 
L 7.71875 11.625 
Q 12.109375 9.234375 16.796875 8.0625 
Q 21.484375 6.890625 26.703125 6.890625 
Q 35.15625 6.890625 40.078125 11.328125 
Q 45.015625 15.765625 45.015625 23.390625 
Q 45.015625 31 40.078125 35.4375 
Q 35.15625 39.890625 26.703125 39.890625 
Q 22.75 39.890625 18.8125 39.015625 
Q 14.890625 38.140625 10.796875 36.28125 
z
" id="DejaVuSans-53"/>
       </defs>
       <use xlink:href="#DejaVuSans-49"/>
       <use x="63.623047" xlink:href="#DejaVuSans-50"/>
       <use x="127.246094" xlink:href="#DejaVuSans-53"/>
      </g>
     </g>
    </g>
    <g id="xtick_3">
     <g id="line2d_3">
      <g>
       <use style="stroke:#000000;stroke-width:0.8;" x="167.124263" xlink:href="#m4ba589e779" y="307.584"/>
      </g>
     </g>
     <g id="text_3">
      <!-- 150 -->
      <g transform="translate(157.580513 322.182437)scale(0.1 -0.1)">
       <use xlink:href="#DejaVuSans-49"/>
       <use x="63.623047" xlink:href="#DejaVuSans-53"/>
       <use x="127.246094" xlink:href="#DejaVuSans-48"/>
      </g>
     </g>
    </g>
    <g id="xtick_4">
     <g id="line2d_4">
      <g>
       <use style="stroke:#000000;stroke-width:0.8;" x="213.770031" xlink:href="#m4ba589e779" y="307.584"/>
      </g>
     </g>
     <g id="text_4">
      <!-- 175 -->
      <g transform="translate(204.226281 322.182437)scale(0.1 -0.1)">
       <defs>
        <path d="M 8.203125 72.90625 
L 55.078125 72.90625 
L 55.078125 68.703125 
L 28.609375 0 
L 18.3125 0 
L 43.21875 64.59375 
L 8.203125 64.59375 
z
" id="DejaVuSans-55"/>
       </defs>
       <use xlink:href="#DejaVuSans-49"/>
       <use x="63.623047" xlink:href="#DejaVuSans-55"/>
       <use x="127.246094" xlink:href="#DejaVuSans-53"/>
      </g>
     </g>
    </g>
    <g id="xtick_5">
     <g id="line2d_5">
      <g>
       <use style="stroke:#000000;stroke-width:0.8;" x="260.415799" xlink:href="#m4ba589e779" y="307.584"/>
      </g>
     </g>
     <g id="text_5">
      <!-- 200 -->
      <g transform="translate(250.872049 322.182437)scale(0.1 -0.1)">
       <use xlink:href="#DejaVuSans-50"/>
       <use x="63.623047" xlink:href="#DejaVuSans-48"/>
       <use x="127.246094" xlink:href="#DejaVuSans-48"/>
      </g>
     </g>
    </g>
    <g id="xtick_6">
     <g id="line2d_6">
      <g>
       <use style="stroke:#000000;stroke-width:0.8;" x="307.061567" xlink:href="#m4ba589e779" y="307.584"/>
      </g>
     </g>
     <g id="text_6">
      <!-- 225 -->
      <g transform="translate(297.517817 322.182437)scale(0.1 -0.1)">
       <use xlink:href="#DejaVuSans-50"/>
       <use x="63.623047" xlink:href="#DejaVuSans-50"/>
       <use x="127.246094" xlink:href="#DejaVuSans-53"/>
      </g>
     </g>
    </g>
    <g id="xtick_7">
     <g id="line2d_7">
      <g>
       <use style="stroke:#000000;stroke-width:0.8;" x="353.707335" xlink:href="#m4ba589e779" y="307.584"/>
      </g>
     </g>
     <g id="text_7">
      <!-- 250 -->
      <g transform="translate(344.163585 322.182437)scale(0.1 -0.1)">
       <use xlink:href="#DejaVuSans-50"/>
       <use x="63.623047" xlink:href="#DejaVuSans-53"/>
       <use x="127.246094" xlink:href="#DejaVuSans-48"/>
      </g>
     </g>
    </g>
    <g id="xtick_8">
     <g id="line2d_8">
      <g>
       <use style="stroke:#000000;stroke-width:0.8;" x="400.353103" xlink:href="#m4ba589e779" y="307.584"/>
      </g>
     </g>
     <g id="text_8">
      <!-- 275 -->
      <g transform="translate(390.809353 322.182437)scale(0.1 -0.1)">
       <use xlink:href="#DejaVuSans-50"/>
       <use x="63.623047" xlink:href="#DejaVuSans-55"/>
       <use x="127.246094" xlink:href="#DejaVuSans-53"/>
      </g>
     </g>
    </g>
    <g id="text_9">
     <!-- radius(nm) -->
     <g transform="translate(208.763125 335.860562)scale(0.1 -0.1)">
      <defs>
       <path d="M 41.109375 46.296875 
Q 39.59375 47.171875 37.8125 47.578125 
Q 36.03125 48 33.890625 48 
Q 26.265625 48 22.1875 43.046875 
Q 18.109375 38.09375 18.109375 28.8125 
L 18.109375 0 
L 9.078125 0 
L 9.078125 54.6875 
L 18.109375 54.6875 
L 18.109375 46.1875 
Q 20.953125 51.171875 25.484375 53.578125 
Q 30.03125 56 36.53125 56 
Q 37.453125 56 38.578125 55.875 
Q 39.703125 55.765625 41.0625 55.515625 
z
" id="DejaVuSans-114"/>
       <path d="M 34.28125 27.484375 
Q 23.390625 27.484375 19.1875 25 
Q 14.984375 22.515625 14.984375 16.5 
Q 14.984375 11.71875 18.140625 8.90625 
Q 21.296875 6.109375 26.703125 6.109375 
Q 34.1875 6.109375 38.703125 11.40625 
Q 43.21875 16.703125 43.21875 25.484375 
L 43.21875 27.484375 
z
M 52.203125 31.203125 
L 52.203125 0 
L 43.21875 0 
L 43.21875 8.296875 
Q 40.140625 3.328125 35.546875 0.953125 
Q 30.953125 -1.421875 24.3125 -1.421875 
Q 15.921875 -1.421875 10.953125 3.296875 
Q 6 8.015625 6 15.921875 
Q 6 25.140625 12.171875 29.828125 
Q 18.359375 34.515625 30.609375 34.515625 
L 43.21875 34.515625 
L 43.21875 35.40625 
Q 43.21875 41.609375 39.140625 45 
Q 35.0625 48.390625 27.6875 48.390625 
Q 23 48.390625 18.546875 47.265625 
Q 14.109375 46.140625 10.015625 43.890625 
L 10.015625 52.203125 
Q 14.9375 54.109375 19.578125 55.046875 
Q 24.21875 56 28.609375 56 
Q 40.484375 56 46.34375 49.84375 
Q 52.203125 43.703125 52.203125 31.203125 
z
" id="DejaVuSans-97"/>
       <path d="M 45.40625 46.390625 
L 45.40625 75.984375 
L 54.390625 75.984375 
L 54.390625 0 
L 45.40625 0 
L 45.40625 8.203125 
Q 42.578125 3.328125 38.25 0.953125 
Q 33.9375 -1.421875 27.875 -1.421875 
Q 17.96875 -1.421875 11.734375 6.484375 
Q 5.515625 14.40625 5.515625 27.296875 
Q 5.515625 40.1875 11.734375 48.09375 
Q 17.96875 56 27.875 56 
Q 33.9375 56 38.25 53.625 
Q 42.578125 51.265625 45.40625 46.390625 
z
M 14.796875 27.296875 
Q 14.796875 17.390625 18.875 11.75 
Q 22.953125 6.109375 30.078125 6.109375 
Q 37.203125 6.109375 41.296875 11.75 
Q 45.40625 17.390625 45.40625 27.296875 
Q 45.40625 37.203125 41.296875 42.84375 
Q 37.203125 48.484375 30.078125 48.484375 
Q 22.953125 48.484375 18.875 42.84375 
Q 14.796875 37.203125 14.796875 27.296875 
z
" id="DejaVuSans-100"/>
       <path d="M 9.421875 54.6875 
L 18.40625 54.6875 
L 18.40625 0 
L 9.421875 0 
z
M 9.421875 75.984375 
L 18.40625 75.984375 
L 18.40625 64.59375 
L 9.421875 64.59375 
z
" id="DejaVuSans-105"/>
       <path d="M 8.5 21.578125 
L 8.5 54.6875 
L 17.484375 54.6875 
L 17.484375 21.921875 
Q 17.484375 14.15625 20.5 10.265625 
Q 23.53125 6.390625 29.59375 6.390625 
Q 36.859375 6.390625 41.078125 11.03125 
Q 45.3125 15.671875 45.3125 23.6875 
L 45.3125 54.6875 
L 54.296875 54.6875 
L 54.296875 0 
L 45.3125 0 
L 45.3125 8.40625 
Q 42.046875 3.421875 37.71875 1 
Q 33.40625 -1.421875 27.6875 -1.421875 
Q 18.265625 -1.421875 13.375 4.4375 
Q 8.5 10.296875 8.5 21.578125 
z
M 31.109375 56 
z
" id="DejaVuSans-117"/>
       <path d="M 44.28125 53.078125 
L 44.28125 44.578125 
Q 40.484375 46.53125 36.375 47.5 
Q 32.28125 48.484375 27.875 48.484375 
Q 21.1875 48.484375 17.84375 46.4375 
Q 14.5 44.390625 14.5 40.28125 
Q 14.5 37.15625 16.890625 35.375 
Q 19.28125 33.59375 26.515625 31.984375 
L 29.59375 31.296875 
Q 39.15625 29.25 43.1875 25.515625 
Q 47.21875 21.78125 47.21875 15.09375 
Q 47.21875 7.46875 41.1875 3.015625 
Q 35.15625 -1.421875 24.609375 -1.421875 
Q 20.21875 -1.421875 15.453125 -0.5625 
Q 10.6875 0.296875 5.421875 2 
L 5.421875 11.28125 
Q 10.40625 8.6875 15.234375 7.390625 
Q 20.0625 6.109375 24.8125 6.109375 
Q 31.15625 6.109375 34.5625 8.28125 
Q 37.984375 10.453125 37.984375 14.40625 
Q 37.984375 18.0625 35.515625 20.015625 
Q 33.0625 21.96875 24.703125 23.78125 
L 21.578125 24.515625 
Q 13.234375 26.265625 9.515625 29.90625 
Q 5.8125 33.546875 5.8125 39.890625 
Q 5.8125 47.609375 11.28125 51.796875 
Q 16.75 56 26.8125 56 
Q 31.78125 56 36.171875 55.265625 
Q 40.578125 54.546875 44.28125 53.078125 
z
" id="DejaVuSans-115"/>
       <path d="M 31 75.875 
Q 24.46875 64.65625 21.28125 53.65625 
Q 18.109375 42.671875 18.109375 31.390625 
Q 18.109375 20.125 21.3125 9.0625 
Q 24.515625 -2 31 -13.1875 
L 23.1875 -13.1875 
Q 15.875 -1.703125 12.234375 9.375 
Q 8.59375 20.453125 8.59375 31.390625 
Q 8.59375 42.28125 12.203125 53.3125 
Q 15.828125 64.359375 23.1875 75.875 
z
" id="DejaVuSans-40"/>
       <path d="M 54.890625 33.015625 
L 54.890625 0 
L 45.90625 0 
L 45.90625 32.71875 
Q 45.90625 40.484375 42.875 44.328125 
Q 39.84375 48.1875 33.796875 48.1875 
Q 26.515625 48.1875 22.3125 43.546875 
Q 18.109375 38.921875 18.109375 30.90625 
L 18.109375 0 
L 9.078125 0 
L 9.078125 54.6875 
L 18.109375 54.6875 
L 18.109375 46.1875 
Q 21.34375 51.125 25.703125 53.5625 
Q 30.078125 56 35.796875 56 
Q 45.21875 56 50.046875 50.171875 
Q 54.890625 44.34375 54.890625 33.015625 
z
" id="DejaVuSans-110"/>
       <path d="M 52 44.1875 
Q 55.375 50.25 60.0625 53.125 
Q 64.75 56 71.09375 56 
Q 79.640625 56 84.28125 50.015625 
Q 88.921875 44.046875 88.921875 33.015625 
L 88.921875 0 
L 79.890625 0 
L 79.890625 32.71875 
Q 79.890625 40.578125 77.09375 44.375 
Q 74.3125 48.1875 68.609375 48.1875 
Q 61.625 48.1875 57.5625 43.546875 
Q 53.515625 38.921875 53.515625 30.90625 
L 53.515625 0 
L 44.484375 0 
L 44.484375 32.71875 
Q 44.484375 40.625 41.703125 44.40625 
Q 38.921875 48.1875 33.109375 48.1875 
Q 26.21875 48.1875 22.15625 43.53125 
Q 18.109375 38.875 18.109375 30.90625 
L 18.109375 0 
L 9.078125 0 
L 9.078125 54.6875 
L 18.109375 54.6875 
L 18.109375 46.1875 
Q 21.1875 51.21875 25.484375 53.609375 
Q 29.78125 56 35.6875 56 
Q 41.65625 56 45.828125 52.96875 
Q 50 49.953125 52 44.1875 
z
" id="DejaVuSans-109"/>
       <path d="M 8.015625 75.875 
L 15.828125 75.875 
Q 23.140625 64.359375 26.78125 53.3125 
Q 30.421875 42.28125 30.421875 31.390625 
Q 30.421875 20.453125 26.78125 9.375 
Q 23.140625 -1.703125 15.828125 -13.1875 
L 8.015625 -13.1875 
Q 14.5 -2 17.703125 9.0625 
Q 20.90625 20.125 20.90625 31.390625 
Q 20.90625 42.671875 17.703125 53.65625 
Q 14.5 64.65625 8.015625 75.875 
z
" id="DejaVuSans-41"/>
      </defs>
      <use xlink:href="#DejaVuSans-114"/>
      <use x="41.113281" xlink:href="#DejaVuSans-97"/>
      <use x="102.392578" xlink:href="#DejaVuSans-100"/>
      <use x="165.869141" xlink:href="#DejaVuSans-105"/>
      <use x="193.652344" xlink:href="#DejaVuSans-117"/>
      <use x="257.03125" xlink:href="#DejaVuSans-115"/>
      <use x="309.130859" xlink:href="#DejaVuSans-40"/>
      <use x="348.144531" xlink:href="#DejaVuSans-110"/>
      <use x="411.523438" xlink:href="#DejaVuSans-109"/>
      <use x="508.935547" xlink:href="#DejaVuSans-41"/>
     </g>
    </g>
   </g>
   <g id="matplotlib.axis_2">
    <g id="ytick_1">
     <g id="line2d_9">
      <defs>
       <path d="M 0 0 
L -3.5 0 
" id="medc5184ec8" style="stroke:#000000;stroke-width:0.8;"/>
      </defs>
      <g>
       <use style="stroke:#000000;stroke-width:0.8;" x="57.6" xlink:href="#medc5184ec8" y="295.488"/>
      </g>
     </g>
     <g id="text_10">
      <!-- 0.00 -->
      <g transform="translate(28.334375 299.287219)scale(0.1 -0.1)">
       <defs>
        <path d="M 10.6875 12.40625 
L 21 12.40625 
L 21 0 
L 10.6875 0 
z
" id="DejaVuSans-46"/>
       </defs>
       <use xlink:href="#DejaVuSans-48"/>
       <use x="63.623047" xlink:href="#DejaVuSans-46"/>
       <use x="95.410156" xlink:href="#DejaVuSans-48"/>
       <use x="159.033203" xlink:href="#DejaVuSans-48"/>
      </g>
     </g>
    </g>
    <g id="ytick_2">
     <g id="line2d_10">
      <g>
       <use style="stroke:#000000;stroke-width:0.8;" x="57.6" xlink:href="#medc5184ec8" y="261.654912"/>
      </g>
     </g>
     <g id="text_11">
      <!-- 0.25 -->
      <g transform="translate(28.334375 265.45413)scale(0.1 -0.1)">
       <use xlink:href="#DejaVuSans-48"/>
       <use x="63.623047" xlink:href="#DejaVuSans-46"/>
       <use x="95.410156" xlink:href="#DejaVuSans-50"/>
       <use x="159.033203" xlink:href="#DejaVuSans-53"/>
      </g>
     </g>
    </g>
    <g id="ytick_3">
     <g id="line2d_11">
      <g>
       <use style="stroke:#000000;stroke-width:0.8;" x="57.6" xlink:href="#medc5184ec8" y="227.821823"/>
      </g>
     </g>
     <g id="text_12">
      <!-- 0.50 -->
      <g transform="translate(28.334375 231.621042)scale(0.1 -0.1)">
       <use xlink:href="#DejaVuSans-48"/>
       <use x="63.623047" xlink:href="#DejaVuSans-46"/>
       <use x="95.410156" xlink:href="#DejaVuSans-53"/>
       <use x="159.033203" xlink:href="#DejaVuSans-48"/>
      </g>
     </g>
    </g>
    <g id="ytick_4">
     <g id="line2d_12">
      <g>
       <use style="stroke:#000000;stroke-width:0.8;" x="57.6" xlink:href="#medc5184ec8" y="193.988735"/>
      </g>
     </g>
     <g id="text_13">
      <!-- 0.75 -->
      <g transform="translate(28.334375 197.787954)scale(0.1 -0.1)">
       <use xlink:href="#DejaVuSans-48"/>
       <use x="63.623047" xlink:href="#DejaVuSans-46"/>
       <use x="95.410156" xlink:href="#DejaVuSans-55"/>
       <use x="159.033203" xlink:href="#DejaVuSans-53"/>
      </g>
     </g>
    </g>
    <g id="ytick_5">
     <g id="line2d_13">
      <g>
       <use style="stroke:#000000;stroke-width:0.8;" x="57.6" xlink:href="#medc5184ec8" y="160.155647"/>
      </g>
     </g>
     <g id="text_14">
      <!-- 1.00 -->
      <g transform="translate(28.334375 163.954866)scale(0.1 -0.1)">
       <use xlink:href="#DejaVuSans-49"/>
       <use x="63.623047" xlink:href="#DejaVuSans-46"/>
       <use x="95.410156" xlink:href="#DejaVuSans-48"/>
       <use x="159.033203" xlink:href="#DejaVuSans-48"/>
      </g>
     </g>
    </g>
    <g id="ytick_6">
     <g id="line2d_14">
      <g>
       <use style="stroke:#000000;stroke-width:0.8;" x="57.6" xlink:href="#medc5184ec8" y="126.322559"/>
      </g>
     </g>
     <g id="text_15">
      <!-- 1.25 -->
      <g transform="translate(28.334375 130.121777)scale(0.1 -0.1)">
       <use xlink:href="#DejaVuSans-49"/>
       <use x="63.623047" xlink:href="#DejaVuSans-46"/>
       <use x="95.410156" xlink:href="#DejaVuSans-50"/>
       <use x="159.033203" xlink:href="#DejaVuSans-53"/>
      </g>
     </g>
    </g>
    <g id="ytick_7">
     <g id="line2d_15">
      <g>
       <use style="stroke:#000000;stroke-width:0.8;" x="57.6" xlink:href="#medc5184ec8" y="92.48947"/>
      </g>
     </g>
     <g id="text_16">
      <!-- 1.50 -->
      <g transform="translate(28.334375 96.288689)scale(0.1 -0.1)">
       <use xlink:href="#DejaVuSans-49"/>
       <use x="63.623047" xlink:href="#DejaVuSans-46"/>
       <use x="95.410156" xlink:href="#DejaVuSans-53"/>
       <use x="159.033203" xlink:href="#DejaVuSans-48"/>
      </g>
     </g>
    </g>
    <g id="ytick_8">
     <g id="line2d_16">
      <g>
       <use style="stroke:#000000;stroke-width:0.8;" x="57.6" xlink:href="#medc5184ec8" y="58.656382"/>
      </g>
     </g>
     <g id="text_17">
      <!-- 1.75 -->
      <g transform="translate(28.334375 62.455601)scale(0.1 -0.1)">
       <use xlink:href="#DejaVuSans-49"/>
       <use x="63.623047" xlink:href="#DejaVuSans-46"/>
       <use x="95.410156" xlink:href="#DejaVuSans-55"/>
       <use x="159.033203" xlink:href="#DejaVuSans-53"/>
      </g>
     </g>
    </g>
   </g>
   <g id="line2d_17">
    <path clip-path="url(#pe6df7916c3)" d="M 73.832727 295.488 
L 85.027712 294.166618 
L 94.356865 292.85255 
L 103.686019 291.316484 
L 113.015172 289.536709 
L 122.344326 287.490391 
L 129.807649 285.638838 
L 137.270972 283.566413 
L 144.734295 281.230517 
L 150.331787 279.27045 
L 155.929279 277.0967 
L 161.526771 274.670756 
L 167.124263 271.948278 
L 172.721755 268.880533 
L 176.453417 266.618776 
L 180.185078 264.167248 
L 183.91674 261.513869 
L 187.648401 258.649942 
L 191.380063 255.571855 
L 195.111724 252.282922 
L 200.709216 246.982964 
L 206.306708 241.319855 
L 215.635862 231.4449 
L 223.099185 223.598911 
L 228.696677 217.98854 
L 234.294169 212.731566 
L 239.891661 207.878054 
L 245.489154 203.430865 
L 251.086646 199.356006 
L 256.684138 195.589542 
L 271.610784 185.980819 
L 273.476614 184.567418 
L 275.342445 182.951221 
L 277.208276 180.966233 
L 279.074107 178.246537 
L 280.939937 173.837238 
L 282.805768 194.524563 
L 284.671599 179.548791 
L 286.537429 199.371375 
L 288.40326 192.592502 
L 290.269091 189.050847 
L 292.134922 186.78483 
L 294.000752 185.125796 
L 295.866583 183.801094 
L 297.732414 182.681137 
L 301.464075 180.808139 
L 305.195737 179.226086 
L 310.793229 177.162154 
L 318.256552 174.748959 
L 325.719875 172.57178 
L 335.049028 170.062502 
L 348.109843 166.802333 
L 383.560627 158.174908 
L 387.292288 156.96991 
L 389.158119 156.24075 
L 391.02395 155.347298 
L 392.889781 154.140795 
L 394.755611 152.224502 
L 396.621442 148.118634 
L 398.487273 152.38191 
L 398.487273 152.38191 
" style="fill:none;stroke:#1f77b4;stroke-linecap:square;stroke-width:2;"/>
   </g>
   <g id="line2d_18">
    <path clip-path="url(#pe6df7916c3)" d="M 73.832727 295.488 
L 85.027712 294.14602 
L 94.356865 292.811755 
L 103.686019 291.252118 
L 113.015172 289.444693 
L 122.344326 287.365579 
L 129.807649 285.482872 
L 137.270972 283.373248 
L 144.734295 280.991637 
L 150.331787 278.989492 
L 155.929279 276.764557 
L 161.526771 274.27536 
L 167.124263 271.473736 
L 170.855925 269.40613 
L 174.587586 267.159352 
L 178.319248 264.71707 
L 182.050909 262.064255 
L 185.782571 259.188592 
L 189.514232 256.082251 
L 193.245893 252.743907 
L 196.977555 249.180763 
L 202.575047 243.455533 
L 208.172539 237.370056 
L 219.367524 224.718918 
L 226.830846 216.227858 
L 228.696677 213.956713 
L 230.562508 211.268855 
L 232.428339 205.718484 
L 234.294169 199.735846 
L 236.16 210.148102 
L 238.025831 207.567335 
L 239.891661 205.536487 
L 243.623323 202.003197 
L 249.220815 197.244106 
L 260.415799 188.088579 
L 262.28163 186.382526 
L 264.147461 184.507564 
L 266.013292 182.356542 
L 267.879122 179.740409 
L 269.744953 176.300818 
L 271.610784 200.01155 
L 273.476614 193.886438 
L 277.208276 173.580118 
L 279.074107 166.699083 
L 280.939937 162.640057 
L 282.805768 159.920404 
L 284.671599 187.04286 
L 286.537429 209.865848 
L 288.40326 156.552758 
L 290.269091 187.135193 
L 292.134922 185.0385 
L 294.000752 183.566317 
L 295.866583 182.358063 
L 299.598245 180.342207 
L 303.329906 178.626238 
L 308.927398 176.370655 
L 314.52489 174.352567 
L 321.988213 171.892299 
L 333.183197 168.492407 
L 355.573166 161.859096 
L 361.170658 159.891233 
L 364.90232 158.250107 
L 366.76815 157.202798 
L 368.633981 155.843142 
L 370.499812 166.469131 
L 372.365643 164.68409 
L 374.231473 156.586543 
L 376.097304 131.945411 
L 377.963135 120.27958 
L 379.828966 117.549024 
L 381.694796 161.040991 
L 383.560627 159.495275 
L 385.426458 158.285137 
L 394.755611 152.968739 
L 396.621442 151.396923 
L 398.487273 149.024817 
L 398.487273 149.024817 
" style="fill:none;stroke:#ff7f0e;stroke-linecap:square;stroke-width:2;"/>
   </g>
   <g id="line2d_19">
    <path clip-path="url(#pe6df7916c3)" d="M 73.832727 295.488 
L 85.027712 294.076813 
L 94.356865 292.676368 
L 103.686019 291.04127 
L 113.015172 289.14727 
L 120.478495 287.427907 
L 127.941818 285.505658 
L 135.405141 283.348971 
L 142.868464 280.909656 
L 148.465956 278.853597 
L 154.063448 276.560727 
L 159.66094 273.982633 
L 165.258433 271.060961 
L 168.990094 268.889119 
L 172.721755 266.512496 
L 176.453417 263.908234 
L 180.185078 261.053779 
L 183.91674 257.928516 
L 187.648401 254.515985 
L 191.380063 250.806562 
L 195.111724 246.800301 
L 198.843386 242.509303 
L 202.575047 237.958602 
L 208.172539 230.725532 
L 213.770031 223.106048 
L 217.501693 217.784694 
L 219.367524 214.979171 
L 221.233354 211.95971 
L 223.099185 208.459568 
L 224.965016 203.58274 
L 226.830846 236.44416 
L 228.696677 207.303142 
L 230.562508 211.711951 
L 232.428339 206.593573 
L 234.294169 203.220458 
L 236.16 200.470087 
L 239.891661 195.728622 
L 245.489154 189.275198 
L 249.220815 184.957619 
L 252.952476 180.285199 
L 254.818307 177.684647 
L 256.684138 174.806679 
L 258.549969 195.675353 
L 260.415799 193.542111 
L 262.28163 190.685927 
L 264.147461 187.060591 
L 266.013292 182.78961 
L 269.744953 173.848939 
L 271.610784 170.009855 
L 273.476614 166.836593 
L 275.342445 164.283995 
L 277.208276 162.2393 
L 279.074107 160.584782 
L 280.939937 159.219399 
L 282.805768 158.058476 
L 284.671599 185.010265 
L 286.537429 183.375125 
L 288.40326 181.508901 
L 290.269091 182.133556 
L 292.134922 180.114541 
L 294.000752 178.855575 
L 297.732414 176.700094 
L 303.329906 173.876779 
L 308.927398 171.337301 
L 316.390721 168.207772 
L 338.78069 159.051494 
L 342.512351 157.270765 
L 346.244013 155.236144 
L 348.109843 154.063972 
L 349.975674 152.733068 
L 351.841505 151.172742 
L 353.707335 149.267738 
L 355.573166 155.496511 
L 357.438997 153.892179 
L 359.304828 150.752788 
L 361.170658 145.187572 
L 364.90232 128.910632 
L 366.76815 123.149533 
L 368.633981 119.70262 
L 370.499812 117.693255 
L 372.365643 116.501706 
L 374.231473 115.778335 
L 376.097304 115.32874 
L 377.963135 156.901044 
L 381.694796 154.648542 
L 385.426458 152.712268 
L 398.487273 146.291209 
L 398.487273 146.291209 
" style="fill:none;stroke:#2ca02c;stroke-linecap:square;stroke-width:2;"/>
   </g>
   <g id="line2d_20">
    <path clip-path="url(#pe6df7916c3)" d="M 73.832727 295.488 
L 83.161881 294.184696 
L 92.491034 292.670549 
L 101.820188 290.915778 
L 111.149342 288.895197 
L 118.612665 287.068699 
L 126.075987 285.032289 
L 133.53931 282.750544 
L 139.136803 280.845543 
L 144.734295 278.737918 
L 150.331787 276.38288 
L 155.929279 273.722184 
L 159.66094 271.742634 
L 163.392602 269.568151 
L 167.124263 267.168468 
L 170.855925 264.50957 
L 174.587586 261.554185 
L 178.319248 258.262917 
L 182.050909 254.596223 
L 185.782571 250.517286 
L 189.514232 245.995513 
L 193.245893 241.009781 
L 196.977555 235.549614 
L 200.709216 229.610023 
L 204.440878 223.166097 
L 208.172539 216.06824 
L 210.03837 212.091414 
L 211.904201 207.489558 
L 213.770031 201.333293 
L 215.635862 232.845642 
L 217.501693 210.412583 
L 219.367524 196.868209 
L 221.233354 193.019259 
L 223.099185 200.614772 
L 224.965016 196.795871 
L 226.830846 193.446789 
L 230.562508 187.465064 
L 236.16 179.252969 
L 241.757492 171.031481 
L 243.623323 188.628052 
L 245.489154 187.330589 
L 247.354984 185.734687 
L 249.220815 183.833158 
L 251.086646 181.633545 
L 252.952476 179.16594 
L 256.684138 173.686584 
L 260.415799 168.109021 
L 262.28163 165.510135 
L 264.147461 163.113414 
L 266.013292 160.939763 
L 267.879122 158.988212 
L 269.744953 157.244146 
L 271.610784 155.686198 
L 273.476614 154.290909 
L 277.208276 151.898144 
L 280.939937 149.900992 
L 286.537429 147.223953 
L 288.40326 145.999053 
L 290.269091 208.533713 
L 292.134922 147.342708 
L 294.000752 169.1563 
L 297.732414 166.697424 
L 303.329906 163.464394 
L 318.256552 155.119929 
L 321.988213 152.837932 
L 325.719875 150.338551 
L 329.451536 147.482505 
L 331.317367 145.851018 
L 333.183197 142.934697 
L 335.049028 142.770769 
L 336.914859 142.323917 
L 338.78069 141.449712 
L 340.64652 139.969015 
L 342.512351 137.695792 
L 344.378182 134.526243 
L 346.244013 130.598264 
L 348.109843 126.380526 
L 349.975674 122.466729 
L 351.841505 119.228871 
L 353.707335 116.724849 
L 355.573166 114.838002 
L 357.438997 113.41356 
L 359.304828 112.3181 
L 361.170658 111.451734 
L 364.90232 110.144898 
L 368.633981 109.149835 
L 374.231473 107.906763 
L 379.828966 106.769891 
L 381.694796 142.333445 
L 389.158119 139.044183 
L 398.487273 135.141207 
L 398.487273 135.141207 
" style="fill:none;stroke:#d62728;stroke-linecap:square;stroke-width:2;"/>
   </g>
   <g id="line2d_21">
    <path clip-path="url(#pe6df7916c3)" d="M 73.832727 295.488 
L 83.161881 293.557837 
L 92.491034 291.407031 
L 101.820188 289.025096 
L 111.149342 286.409599 
L 120.478495 283.550656 
L 127.941818 281.06446 
L 135.405141 278.358962 
L 141.002633 276.147022 
L 146.600125 273.734709 
L 152.197618 271.068609 
L 157.79511 268.078371 
L 161.526771 265.8599 
L 165.258433 263.421114 
L 168.990094 260.717647 
L 172.721755 257.692395 
L 176.453417 254.269494 
L 180.185078 250.344807 
L 182.050909 248.150434 
L 183.91674 245.770526 
L 185.782571 243.175164 
L 187.648401 240.326323 
L 189.514232 227.887856 
L 191.380063 227.582918 
L 193.245893 226.867488 
L 195.111724 225.120714 
L 196.977555 221.757343 
L 198.843386 216.708687 
L 202.575047 204.966557 
L 204.440878 200.000304 
L 206.306708 195.898688 
L 208.172539 192.504011 
L 210.03837 189.651809 
L 211.904201 187.218807 
L 213.770031 185.117506 
L 215.635862 183.283357 
L 217.501693 181.665214 
L 221.233354 178.907224 
L 224.965016 176.538457 
L 230.562508 173.128141 
L 234.294169 170.607001 
L 238.025831 167.678131 
L 241.757492 164.260314 
L 245.489154 160.405877 
L 254.818307 150.307258 
L 258.549969 146.710223 
L 262.28163 143.538795 
L 266.013292 140.777463 
L 269.744953 138.368431 
L 273.476614 136.243047 
L 277.208276 134.33517 
L 286.537429 129.97511 
L 288.40326 128.818753 
L 290.269091 195.6599 
L 292.134922 131.808597 
L 294.000752 128.802924 
L 295.866583 127.869379 
L 299.598245 126.466264 
L 305.195737 124.687376 
L 320.122382 120.150186 
L 323.854044 118.728302 
L 327.585705 117.010075 
L 331.317367 114.911047 
L 335.049028 112.404109 
L 338.78069 109.552906 
L 349.975674 100.529081 
L 353.707335 97.830759 
L 357.438997 95.375755 
L 361.170658 93.147707 
L 366.76815 90.156984 
L 372.365643 87.475773 
L 381.694796 83.366709 
L 389.158119 80.031413 
L 392.889781 78.160685 
L 396.621442 75.959094 
L 398.487273 74.642075 
L 398.487273 74.642075 
" style="fill:none;stroke:#9467bd;stroke-linecap:square;stroke-width:2;"/>
   </g>
   <g id="line2d_22">
    <path clip-path="url(#pe6df7916c3)" d="M 73.832727 295.488 
L 81.29605 294.367175 
L 88.759373 292.994918 
L 94.356865 291.755403 
L 99.954357 290.292296 
L 105.55185 288.557927 
L 109.283511 287.222552 
L 113.015172 285.719746 
L 116.746834 284.02436 
L 120.478495 282.105901 
L 124.210157 279.926904 
L 127.941818 277.441101 
L 131.67348 274.591856 
L 135.405141 271.312201 
L 139.136803 267.529333 
L 142.868464 263.178577 
L 144.734295 260.778984 
L 146.600125 251.631856 
L 150.331787 246.550449 
L 161.526771 230.847717 
L 165.258433 226.141631 
L 174.587586 214.859484 
L 176.453417 212.313354 
L 180.185078 206.629439 
L 187.648401 194.545651 
L 191.380063 189.319201 
L 198.843386 179.491753 
L 204.440878 171.329809 
L 208.172539 166.048387 
L 210.03837 163.659486 
L 211.904201 161.482873 
L 213.770031 159.522121 
L 215.635862 157.765263 
L 217.501693 156.191788 
L 221.233354 153.496631 
L 224.965016 151.231273 
L 234.294169 145.916426 
L 236.16 144.635988 
L 238.025831 143.202439 
L 239.891661 141.597504 
L 243.623323 137.908119 
L 251.086646 130.041982 
L 252.952476 128.320209 
L 254.818307 126.75762 
L 256.684138 125.35264 
L 260.415799 122.961328 
L 264.147461 121.006503 
L 267.879122 119.351192 
L 273.476614 117.207423 
L 286.537429 112.601403 
L 288.40326 111.702186 
L 290.269091 177.280944 
L 292.134922 114.891856 
L 294.000752 111.328547 
L 295.866583 110.441513 
L 301.464075 108.290103 
L 308.927398 105.405431 
L 314.52489 103.010534 
L 318.256552 101.238935 
L 321.988213 99.273801 
L 325.719875 97.054227 
L 329.451536 94.51186 
L 333.183197 91.59976 
L 336.914859 88.354181 
L 344.378182 81.684744 
L 348.109843 78.776574 
L 351.841505 76.295781 
L 355.573166 74.17529 
L 359.304828 72.307229 
L 364.90232 69.785458 
L 374.231473 65.911732 
L 383.560627 62.039856 
L 389.158119 59.463752 
L 392.889781 57.469674 
L 394.755611 56.328269 
L 396.621442 55.04492 
L 398.487273 53.568 
L 398.487273 53.568 
" style="fill:none;stroke:#8c564b;stroke-linecap:square;stroke-width:2;"/>
   </g>
   <g id="line2d_23">
    <path clip-path="url(#pe6df7916c3)" d="M 73.832727 295.488 
L 75.698558 276.71176 
L 86.893542 272.603036 
L 98.088527 268.275679 
L 109.283511 263.729382 
L 118.612665 259.728487 
L 126.075987 256.328644 
L 129.807649 254.540668 
L 131.67348 167.866282 
L 137.270972 168.554238 
L 142.868464 168.951631 
L 146.600125 169.038761 
L 150.331787 168.97446 
L 154.063448 168.749495 
L 157.79511 168.350259 
L 161.526771 167.755052 
L 165.258433 166.929002 
L 168.990094 165.81657 
L 172.721755 164.329505 
L 174.587586 163.404086 
L 176.453417 162.325719 
L 178.319248 161.061659 
L 180.185078 294.901091 
L 182.050909 293.121666 
L 183.91674 290.978236 
L 185.782571 288.367691 
L 187.648401 285.160393 
L 189.514232 281.221484 
L 191.380063 276.494858 
L 195.111724 265.933953 
L 196.977555 261.623228 
L 198.843386 258.879895 
L 200.709216 257.724649 
L 202.575047 257.607747 
L 204.440878 257.766498 
L 206.306708 257.671188 
L 208.172539 257.157055 
L 210.03837 256.27371 
L 211.904201 255.128135 
L 215.635862 252.396511 
L 221.233354 247.823468 
L 226.830846 242.88653 
L 230.562508 239.309011 
L 234.294169 235.421786 
L 238.025831 231.213142 
L 243.623323 224.612876 
L 245.489154 260.493574 
L 249.220815 257.044258 
L 252.952476 253.90811 
L 256.684138 251.207254 
L 260.415799 248.936015 
L 264.147461 247.016094 
L 267.879122 245.350118 
L 273.476614 243.139969 
L 284.671599 239.079604 
L 288.40326 237.835348 
L 290.269091 237.829407 
L 292.134922 235.261727 
L 294.000752 234.951343 
L 297.732414 233.469939 
L 301.464075 231.756308 
L 305.195737 229.877165 
L 308.927398 227.822071 
L 312.65906 225.566602 
L 316.390721 223.079791 
L 320.122382 220.327798 
L 323.854044 217.280683 
L 327.585705 213.926152 
L 331.317367 210.291805 
L 342.512351 198.95165 
L 344.378182 257.756043 
L 348.109843 252.953531 
L 351.841505 248.686275 
L 355.573166 244.968017 
L 359.304828 241.769115 
L 363.036489 239.040554 
L 366.76815 236.729406 
L 370.499812 234.786075 
L 374.231473 233.166152 
L 377.963135 231.82904 
L 381.694796 230.734184 
L 385.426458 229.834387 
L 396.621442 227.393696 
L 398.487273 226.758243 
L 398.487273 226.758243 
" style="fill:none;stroke:#e377c2;stroke-linecap:square;stroke-width:2;"/>
   </g>
   <g id="line2d_24">
    <path clip-path="url(#pe6df7916c3)" d="M 73.832727 295.488 
L 83.161881 293.286229 
L 92.491034 290.844277 
L 99.954357 288.690911 
L 107.41768 286.334211 
L 114.881003 283.745229 
L 122.344326 280.887744 
L 127.941818 278.541441 
L 133.53931 275.99578 
L 139.136803 273.224758 
L 144.734295 270.199911 
L 150.331787 266.89128 
L 155.929279 263.268591 
L 161.526771 259.302354 
L 167.124263 254.964427 
L 172.721755 250.227554 
L 178.319248 245.063722 
L 180.185078 243.242567 
L 182.050909 200.704864 
L 185.782571 198.335926 
L 187.648401 196.951401 
L 189.514232 195.405831 
L 191.380063 193.662635 
L 193.245893 191.659398 
L 195.111724 189.286959 
L 196.977555 186.357431 
L 198.843386 182.576361 
L 200.709216 177.606424 
L 206.306708 159.315888 
L 208.172539 155.166045 
L 210.03837 152.199787 
L 211.904201 149.983595 
L 213.770031 148.189933 
L 217.501693 145.15916 
L 219.367524 143.748184 
L 221.233354 199.015302 
L 224.965016 196.005755 
L 230.562508 191.928266 
L 241.757492 184.008428 
L 254.818307 174.209066 
L 258.549969 171.819151 
L 262.28163 169.744344 
L 266.013292 167.938812 
L 271.610784 165.572515 
L 280.939937 162.021304 
L 288.40326 159.18156 
L 290.269091 118.62413 
L 292.134922 157.618372 
L 295.866583 156.182882 
L 301.464075 153.763492 
L 307.061567 151.119702 
L 312.65906 148.180557 
L 316.390721 146.007112 
L 320.122382 143.618909 
L 323.854044 140.976925 
L 327.585705 138.053963 
L 331.317367 134.860252 
L 338.78069 128.093836 
L 340.64652 160.552556 
L 344.378182 155.622034 
L 348.109843 151.069712 
L 351.841505 147.020273 
L 355.573166 143.502752 
L 359.304828 140.485488 
L 363.036489 137.911557 
L 366.76815 135.720598 
L 370.499812 133.858381 
L 374.231473 132.279158 
L 377.963135 130.944477 
L 381.694796 129.820144 
L 387.292288 128.450049 
L 398.487273 125.978414 
L 398.487273 125.978414 
" style="fill:none;stroke:#7f7f7f;stroke-linecap:square;stroke-width:2;"/>
   </g>
   <g id="line2d_25">
    <path clip-path="url(#pe6df7916c3)" d="M 73.832727 295.488 
L 83.161881 293.511274 
L 92.491034 291.313492 
L 101.820188 288.855167 
L 109.283511 286.669947 
L 116.746834 284.260258 
L 124.210157 281.592879 
L 131.67348 278.628466 
L 137.270972 276.18284 
L 142.868464 273.522678 
L 148.465956 270.624342 
L 154.063448 267.462332 
L 159.66094 264.009032 
L 165.258433 260.234171 
L 170.855925 256.104218 
L 176.453417 251.582224 
L 180.185078 248.330304 
L 183.91674 244.874965 
L 187.648401 241.206764 
L 193.245893 235.309256 
L 195.111724 203.588852 
L 196.977555 202.062978 
L 198.843386 200.276216 
L 200.709216 198.006836 
L 202.575047 194.80685 
L 204.440878 189.832206 
L 206.306708 181.988185 
L 208.172539 171.896261 
L 210.03837 163.173452 
L 211.904201 157.440612 
L 213.770031 153.786434 
L 215.635862 151.253389 
L 217.501693 149.302913 
L 219.367524 147.656892 
L 221.233354 146.168726 
L 223.099185 199.963929 
L 226.830846 197.342973 
L 234.294169 192.477376 
L 239.891661 188.76549 
L 243.623323 186.076516 
L 249.220815 181.667962 
L 254.818307 177.211918 
L 258.549969 174.562318 
L 262.28163 172.307028 
L 266.013292 170.426014 
L 269.744953 168.832627 
L 275.342445 166.775303 
L 284.671599 163.690668 
L 288.40326 162.474552 
L 290.269091 122.687796 
L 292.134922 160.841626 
L 294.000752 160.377344 
L 299.598245 158.376281 
L 305.195737 156.112856 
L 310.793229 153.538585 
L 314.52489 151.580065 
L 318.256552 149.354029 
L 321.988213 146.775247 
L 325.719875 143.745814 
L 329.451536 140.187022 
L 333.183197 136.115177 
L 338.78069 129.577249 
L 340.64652 164.930622 
L 344.378182 159.497367 
L 346.244013 157.031845 
L 348.109843 154.757152 
L 349.975674 152.674581 
L 351.841505 150.776852 
L 353.707335 149.051679 
L 357.438997 146.060331 
L 361.170658 143.584921 
L 364.90232 141.526801 
L 368.633981 139.810235 
L 372.365643 138.379689 
L 376.097304 137.195192 
L 379.828966 136.227912 
L 383.560627 135.456162 
L 387.292288 134.861129 
L 392.889781 134.247194 
L 398.487273 133.795268 
L 398.487273 133.795268 
" style="fill:none;stroke:#bcbd22;stroke-linecap:square;stroke-width:2;"/>
   </g>
   <g id="line2d_26">
    <path clip-path="url(#pe6df7916c3)" d="M 73.832727 295.488 
L 85.027712 293.246444 
L 94.356865 291.153167 
L 103.686019 288.81614 
L 111.149342 286.74203 
L 118.612665 284.458088 
L 126.075987 281.933976 
L 133.53931 279.13466 
L 139.136803 276.830846 
L 144.734295 274.331673 
L 150.331787 271.617673 
L 155.929279 268.668303 
L 161.526771 265.462015 
L 167.124263 261.976812 
L 172.721755 258.192413 
L 178.319248 254.095873 
L 183.91674 249.693158 
L 191.380063 243.450596 
L 196.977555 238.821053 
L 198.843386 210.701836 
L 200.709216 209.869839 
L 202.575047 208.805342 
L 204.440878 207.035165 
L 206.306708 202.663476 
L 208.172539 182.477462 
L 210.03837 155.90822 
L 211.904201 150.138989 
L 213.770031 147.884661 
L 215.635862 146.482719 
L 219.367524 144.308993 
L 221.233354 143.277515 
L 223.099185 196.886817 
L 230.562508 192.914691 
L 236.16 189.752921 
L 239.891661 187.428066 
L 243.623323 184.808283 
L 247.354984 181.856665 
L 254.818307 175.598169 
L 258.549969 172.871832 
L 262.28163 170.654762 
L 266.013292 168.912283 
L 269.744953 167.523735 
L 273.476614 166.363151 
L 280.939937 164.368788 
L 288.40326 162.561432 
L 290.269091 121.983851 
L 292.134922 160.839207 
L 294.000752 160.629678 
L 297.732414 159.643607 
L 303.329906 157.875588 
L 307.061567 156.529984 
L 310.793229 155.004658 
L 314.52489 153.225411 
L 318.256552 151.0723 
L 320.122382 149.799676 
L 321.988213 148.355376 
L 323.854044 146.700898 
L 325.719875 144.792938 
L 327.585705 142.588291 
L 329.451536 140.054769 
L 331.317367 137.189939 
L 335.049028 130.737991 
L 338.78069 124.353271 
L 340.64652 121.607497 
L 342.512351 156.927288 
L 344.378182 154.147065 
L 346.244013 151.728203 
L 348.109843 149.627636 
L 349.975674 147.798712 
L 351.841505 146.198299 
L 353.707335 144.789425 
L 355.573166 143.541609 
L 359.304828 141.435621 
L 363.036489 139.737286 
L 366.76815 138.35632 
L 370.499812 137.236258 
L 374.231473 136.342644 
L 377.963135 135.656015 
L 381.694796 135.167879 
L 385.426458 134.878586 
L 389.158119 134.796449 
L 392.889781 134.93769 
L 396.621442 135.326722 
L 398.487273 135.623968 
L 398.487273 135.623968 
" style="fill:none;stroke:#17becf;stroke-linecap:square;stroke-width:2;"/>
   </g>
   <g id="patch_3">
    <path d="M 57.6 307.584 
L 57.6 41.472 
" style="fill:none;stroke:#000000;stroke-linecap:square;stroke-linejoin:miter;stroke-width:0.8;"/>
   </g>
   <g id="patch_4">
    <path d="M 414.72 307.584 
L 414.72 41.472 
" style="fill:none;stroke:#000000;stroke-linecap:square;stroke-linejoin:miter;stroke-width:0.8;"/>
   </g>
   <g id="patch_5">
    <path d="M 57.6 307.584 
L 414.72 307.584 
" style="fill:none;stroke:#000000;stroke-linecap:square;stroke-linejoin:miter;stroke-width:0.8;"/>
   </g>
   <g id="patch_6">
    <path d="M 57.6 41.472 
L 414.72 41.472 
" style="fill:none;stroke:#000000;stroke-linecap:square;stroke-linejoin:miter;stroke-width:0.8;"/>
   </g>
   <g id="text_18">
    <!-- Phase shift of different radius -->
    <g transform="translate(147.762187 35.472)scale(0.12 -0.12)">
     <defs>
      <path d="M 19.671875 64.796875 
L 19.671875 37.40625 
L 32.078125 37.40625 
Q 38.96875 37.40625 42.71875 40.96875 
Q 46.484375 44.53125 46.484375 51.125 
Q 46.484375 57.671875 42.71875 61.234375 
Q 38.96875 64.796875 32.078125 64.796875 
z
M 9.8125 72.90625 
L 32.078125 72.90625 
Q 44.34375 72.90625 50.609375 67.359375 
Q 56.890625 61.8125 56.890625 51.125 
Q 56.890625 40.328125 50.609375 34.8125 
Q 44.34375 29.296875 32.078125 29.296875 
L 19.671875 29.296875 
L 19.671875 0 
L 9.8125 0 
z
" id="DejaVuSans-80"/>
      <path d="M 54.890625 33.015625 
L 54.890625 0 
L 45.90625 0 
L 45.90625 32.71875 
Q 45.90625 40.484375 42.875 44.328125 
Q 39.84375 48.1875 33.796875 48.1875 
Q 26.515625 48.1875 22.3125 43.546875 
Q 18.109375 38.921875 18.109375 30.90625 
L 18.109375 0 
L 9.078125 0 
L 9.078125 75.984375 
L 18.109375 75.984375 
L 18.109375 46.1875 
Q 21.34375 51.125 25.703125 53.5625 
Q 30.078125 56 35.796875 56 
Q 45.21875 56 50.046875 50.171875 
Q 54.890625 44.34375 54.890625 33.015625 
z
" id="DejaVuSans-104"/>
      <path d="M 56.203125 29.59375 
L 56.203125 25.203125 
L 14.890625 25.203125 
Q 15.484375 15.921875 20.484375 11.0625 
Q 25.484375 6.203125 34.421875 6.203125 
Q 39.59375 6.203125 44.453125 7.46875 
Q 49.3125 8.734375 54.109375 11.28125 
L 54.109375 2.78125 
Q 49.265625 0.734375 44.1875 -0.34375 
Q 39.109375 -1.421875 33.890625 -1.421875 
Q 20.796875 -1.421875 13.15625 6.1875 
Q 5.515625 13.8125 5.515625 26.8125 
Q 5.515625 40.234375 12.765625 48.109375 
Q 20.015625 56 32.328125 56 
Q 43.359375 56 49.78125 48.890625 
Q 56.203125 41.796875 56.203125 29.59375 
z
M 47.21875 32.234375 
Q 47.125 39.59375 43.09375 43.984375 
Q 39.0625 48.390625 32.421875 48.390625 
Q 24.90625 48.390625 20.390625 44.140625 
Q 15.875 39.890625 15.1875 32.171875 
z
" id="DejaVuSans-101"/>
      <path id="DejaVuSans-32"/>
      <path d="M 37.109375 75.984375 
L 37.109375 68.5 
L 28.515625 68.5 
Q 23.6875 68.5 21.796875 66.546875 
Q 19.921875 64.59375 19.921875 59.515625 
L 19.921875 54.6875 
L 34.71875 54.6875 
L 34.71875 47.703125 
L 19.921875 47.703125 
L 19.921875 0 
L 10.890625 0 
L 10.890625 47.703125 
L 2.296875 47.703125 
L 2.296875 54.6875 
L 10.890625 54.6875 
L 10.890625 58.5 
Q 10.890625 67.625 15.140625 71.796875 
Q 19.390625 75.984375 28.609375 75.984375 
z
" id="DejaVuSans-102"/>
      <path d="M 18.3125 70.21875 
L 18.3125 54.6875 
L 36.8125 54.6875 
L 36.8125 47.703125 
L 18.3125 47.703125 
L 18.3125 18.015625 
Q 18.3125 11.328125 20.140625 9.421875 
Q 21.96875 7.515625 27.59375 7.515625 
L 36.8125 7.515625 
L 36.8125 0 
L 27.59375 0 
Q 17.1875 0 13.234375 3.875 
Q 9.28125 7.765625 9.28125 18.015625 
L 9.28125 47.703125 
L 2.6875 47.703125 
L 2.6875 54.6875 
L 9.28125 54.6875 
L 9.28125 70.21875 
z
" id="DejaVuSans-116"/>
      <path d="M 30.609375 48.390625 
Q 23.390625 48.390625 19.1875 42.75 
Q 14.984375 37.109375 14.984375 27.296875 
Q 14.984375 17.484375 19.15625 11.84375 
Q 23.34375 6.203125 30.609375 6.203125 
Q 37.796875 6.203125 41.984375 11.859375 
Q 46.1875 17.53125 46.1875 27.296875 
Q 46.1875 37.015625 41.984375 42.703125 
Q 37.796875 48.390625 30.609375 48.390625 
z
M 30.609375 56 
Q 42.328125 56 49.015625 48.375 
Q 55.71875 40.765625 55.71875 27.296875 
Q 55.71875 13.875 49.015625 6.21875 
Q 42.328125 -1.421875 30.609375 -1.421875 
Q 18.84375 -1.421875 12.171875 6.21875 
Q 5.515625 13.875 5.515625 27.296875 
Q 5.515625 40.765625 12.171875 48.375 
Q 18.84375 56 30.609375 56 
z
" id="DejaVuSans-111"/>
     </defs>
     <use xlink:href="#DejaVuSans-80"/>
     <use x="60.302734" xlink:href="#DejaVuSans-104"/>
     <use x="123.681641" xlink:href="#DejaVuSans-97"/>
     <use x="184.960938" xlink:href="#DejaVuSans-115"/>
     <use x="237.060547" xlink:href="#DejaVuSans-101"/>
     <use x="298.583984" xlink:href="#DejaVuSans-32"/>
     <use x="330.371094" xlink:href="#DejaVuSans-115"/>
     <use x="382.470703" xlink:href="#DejaVuSans-104"/>
     <use x="445.849609" xlink:href="#DejaVuSans-105"/>
     <use x="473.632812" xlink:href="#DejaVuSans-102"/>
     <use x="507.087891" xlink:href="#DejaVuSans-116"/>
     <use x="546.296875" xlink:href="#DejaVuSans-32"/>
     <use x="578.083984" xlink:href="#DejaVuSans-111"/>
     <use x="639.265625" xlink:href="#DejaVuSans-102"/>
     <use x="674.470703" xlink:href="#DejaVuSans-32"/>
     <use x="706.257812" xlink:href="#DejaVuSans-100"/>
     <use x="769.734375" xlink:href="#DejaVuSans-105"/>
     <use x="797.517578" xlink:href="#DejaVuSans-102"/>
     <use x="832.722656" xlink:href="#DejaVuSans-102"/>
     <use x="867.927734" xlink:href="#DejaVuSans-101"/>
     <use x="929.451172" xlink:href="#DejaVuSans-114"/>
     <use x="968.314453" xlink:href="#DejaVuSans-101"/>
     <use x="1029.837891" xlink:href="#DejaVuSans-110"/>
     <use x="1093.216797" xlink:href="#DejaVuSans-116"/>
     <use x="1132.425781" xlink:href="#DejaVuSans-32"/>
     <use x="1164.212891" xlink:href="#DejaVuSans-114"/>
     <use x="1205.326172" xlink:href="#DejaVuSans-97"/>
     <use x="1266.605469" xlink:href="#DejaVuSans-100"/>
     <use x="1330.082031" xlink:href="#DejaVuSans-105"/>
     <use x="1357.865234" xlink:href="#DejaVuSans-117"/>
     <use x="1421.244141" xlink:href="#DejaVuSans-115"/>
    </g>
   </g>
   <g id="legend_1">
    <g id="patch_7">
     <path d="M 64.6 196.25325 
L 109.325 196.25325 
Q 111.325 196.25325 111.325 194.25325 
L 111.325 48.472 
Q 111.325 46.472 109.325 46.472 
L 64.6 46.472 
Q 62.6 46.472 62.6 48.472 
L 62.6 194.25325 
Q 62.6 196.25325 64.6 196.25325 
z
" style="fill:#ffffff;opacity:0.8;stroke:#cccccc;stroke-linejoin:miter;"/>
    </g>
    <g id="line2d_27">
     <path d="M 66.6 54.570437 
L 86.6 54.570437 
" style="fill:none;stroke:#1f77b4;stroke-linecap:square;stroke-width:2;"/>
    </g>
    <g id="line2d_28"/>
    <g id="text_19">
     <!-- 0 -->
     <g transform="translate(94.6 58.070437)scale(0.1 -0.1)">
      <use xlink:href="#DejaVuSans-48"/>
     </g>
    </g>
    <g id="line2d_29">
     <path d="M 66.6 69.248562 
L 86.6 69.248562 
" style="fill:none;stroke:#ff7f0e;stroke-linecap:square;stroke-width:2;"/>
    </g>
    <g id="line2d_30"/>
    <g id="text_20">
     <!-- 10 -->
     <g transform="translate(94.6 72.748562)scale(0.1 -0.1)">
      <use xlink:href="#DejaVuSans-49"/>
      <use x="63.623047" xlink:href="#DejaVuSans-48"/>
     </g>
    </g>
    <g id="line2d_31">
     <path d="M 66.6 83.926688 
L 86.6 83.926688 
" style="fill:none;stroke:#2ca02c;stroke-linecap:square;stroke-width:2;"/>
    </g>
    <g id="line2d_32"/>
    <g id="text_21">
     <!-- 20 -->
     <g transform="translate(94.6 87.426688)scale(0.1 -0.1)">
      <use xlink:href="#DejaVuSans-50"/>
      <use x="63.623047" xlink:href="#DejaVuSans-48"/>
     </g>
    </g>
    <g id="line2d_33">
     <path d="M 66.6 98.604812 
L 86.6 98.604812 
" style="fill:none;stroke:#d62728;stroke-linecap:square;stroke-width:2;"/>
    </g>
    <g id="line2d_34"/>
    <g id="text_22">
     <!-- 30 -->
     <g transform="translate(94.6 102.104812)scale(0.1 -0.1)">
      <defs>
       <path d="M 40.578125 39.3125 
Q 47.65625 37.796875 51.625 33 
Q 55.609375 28.21875 55.609375 21.1875 
Q 55.609375 10.40625 48.1875 4.484375 
Q 40.765625 -1.421875 27.09375 -1.421875 
Q 22.515625 -1.421875 17.65625 -0.515625 
Q 12.796875 0.390625 7.625 2.203125 
L 7.625 11.71875 
Q 11.71875 9.328125 16.59375 8.109375 
Q 21.484375 6.890625 26.8125 6.890625 
Q 36.078125 6.890625 40.9375 10.546875 
Q 45.796875 14.203125 45.796875 21.1875 
Q 45.796875 27.640625 41.28125 31.265625 
Q 36.765625 34.90625 28.71875 34.90625 
L 20.21875 34.90625 
L 20.21875 43.015625 
L 29.109375 43.015625 
Q 36.375 43.015625 40.234375 45.921875 
Q 44.09375 48.828125 44.09375 54.296875 
Q 44.09375 59.90625 40.109375 62.90625 
Q 36.140625 65.921875 28.71875 65.921875 
Q 24.65625 65.921875 20.015625 65.03125 
Q 15.375 64.15625 9.8125 62.3125 
L 9.8125 71.09375 
Q 15.4375 72.65625 20.34375 73.4375 
Q 25.25 74.21875 29.59375 74.21875 
Q 40.828125 74.21875 47.359375 69.109375 
Q 53.90625 64.015625 53.90625 55.328125 
Q 53.90625 49.265625 50.4375 45.09375 
Q 46.96875 40.921875 40.578125 39.3125 
z
" id="DejaVuSans-51"/>
      </defs>
      <use xlink:href="#DejaVuSans-51"/>
      <use x="63.623047" xlink:href="#DejaVuSans-48"/>
     </g>
    </g>
    <g id="line2d_35">
     <path d="M 66.6 113.282938 
L 86.6 113.282938 
" style="fill:none;stroke:#9467bd;stroke-linecap:square;stroke-width:2;"/>
    </g>
    <g id="line2d_36"/>
    <g id="text_23">
     <!-- 40 -->
     <g transform="translate(94.6 116.782938)scale(0.1 -0.1)">
      <defs>
       <path d="M 37.796875 64.3125 
L 12.890625 25.390625 
L 37.796875 25.390625 
z
M 35.203125 72.90625 
L 47.609375 72.90625 
L 47.609375 25.390625 
L 58.015625 25.390625 
L 58.015625 17.1875 
L 47.609375 17.1875 
L 47.609375 0 
L 37.796875 0 
L 37.796875 17.1875 
L 4.890625 17.1875 
L 4.890625 26.703125 
z
" id="DejaVuSans-52"/>
      </defs>
      <use xlink:href="#DejaVuSans-52"/>
      <use x="63.623047" xlink:href="#DejaVuSans-48"/>
     </g>
    </g>
    <g id="line2d_37">
     <path d="M 66.6 127.961062 
L 86.6 127.961062 
" style="fill:none;stroke:#8c564b;stroke-linecap:square;stroke-width:2;"/>
    </g>
    <g id="line2d_38"/>
    <g id="text_24">
     <!-- 50 -->
     <g transform="translate(94.6 131.461062)scale(0.1 -0.1)">
      <use xlink:href="#DejaVuSans-53"/>
      <use x="63.623047" xlink:href="#DejaVuSans-48"/>
     </g>
    </g>
    <g id="line2d_39">
     <path d="M 66.6 142.639187 
L 86.6 142.639187 
" style="fill:none;stroke:#e377c2;stroke-linecap:square;stroke-width:2;"/>
    </g>
    <g id="line2d_40"/>
    <g id="text_25">
     <!-- 60 -->
     <g transform="translate(94.6 146.139187)scale(0.1 -0.1)">
      <defs>
       <path d="M 33.015625 40.375 
Q 26.375 40.375 22.484375 35.828125 
Q 18.609375 31.296875 18.609375 23.390625 
Q 18.609375 15.53125 22.484375 10.953125 
Q 26.375 6.390625 33.015625 6.390625 
Q 39.65625 6.390625 43.53125 10.953125 
Q 47.40625 15.53125 47.40625 23.390625 
Q 47.40625 31.296875 43.53125 35.828125 
Q 39.65625 40.375 33.015625 40.375 
z
M 52.59375 71.296875 
L 52.59375 62.3125 
Q 48.875 64.0625 45.09375 64.984375 
Q 41.3125 65.921875 37.59375 65.921875 
Q 27.828125 65.921875 22.671875 59.328125 
Q 17.53125 52.734375 16.796875 39.40625 
Q 19.671875 43.65625 24.015625 45.921875 
Q 28.375 48.1875 33.59375 48.1875 
Q 44.578125 48.1875 50.953125 41.515625 
Q 57.328125 34.859375 57.328125 23.390625 
Q 57.328125 12.15625 50.6875 5.359375 
Q 44.046875 -1.421875 33.015625 -1.421875 
Q 20.359375 -1.421875 13.671875 8.265625 
Q 6.984375 17.96875 6.984375 36.375 
Q 6.984375 53.65625 15.1875 63.9375 
Q 23.390625 74.21875 37.203125 74.21875 
Q 40.921875 74.21875 44.703125 73.484375 
Q 48.484375 72.75 52.59375 71.296875 
z
" id="DejaVuSans-54"/>
      </defs>
      <use xlink:href="#DejaVuSans-54"/>
      <use x="63.623047" xlink:href="#DejaVuSans-48"/>
     </g>
    </g>
    <g id="line2d_41">
     <path d="M 66.6 157.317312 
L 86.6 157.317312 
" style="fill:none;stroke:#7f7f7f;stroke-linecap:square;stroke-width:2;"/>
    </g>
    <g id="line2d_42"/>
    <g id="text_26">
     <!-- 70 -->
     <g transform="translate(94.6 160.817312)scale(0.1 -0.1)">
      <use xlink:href="#DejaVuSans-55"/>
      <use x="63.623047" xlink:href="#DejaVuSans-48"/>
     </g>
    </g>
    <g id="line2d_43">
     <path d="M 66.6 171.995437 
L 86.6 171.995437 
" style="fill:none;stroke:#bcbd22;stroke-linecap:square;stroke-width:2;"/>
    </g>
    <g id="line2d_44"/>
    <g id="text_27">
     <!-- 80 -->
     <g transform="translate(94.6 175.495437)scale(0.1 -0.1)">
      <defs>
       <path d="M 31.78125 34.625 
Q 24.75 34.625 20.71875 30.859375 
Q 16.703125 27.09375 16.703125 20.515625 
Q 16.703125 13.921875 20.71875 10.15625 
Q 24.75 6.390625 31.78125 6.390625 
Q 38.8125 6.390625 42.859375 10.171875 
Q 46.921875 13.96875 46.921875 20.515625 
Q 46.921875 27.09375 42.890625 30.859375 
Q 38.875 34.625 31.78125 34.625 
z
M 21.921875 38.8125 
Q 15.578125 40.375 12.03125 44.71875 
Q 8.5 49.078125 8.5 55.328125 
Q 8.5 64.0625 14.71875 69.140625 
Q 20.953125 74.21875 31.78125 74.21875 
Q 42.671875 74.21875 48.875 69.140625 
Q 55.078125 64.0625 55.078125 55.328125 
Q 55.078125 49.078125 51.53125 44.71875 
Q 48 40.375 41.703125 38.8125 
Q 48.828125 37.15625 52.796875 32.3125 
Q 56.78125 27.484375 56.78125 20.515625 
Q 56.78125 9.90625 50.3125 4.234375 
Q 43.84375 -1.421875 31.78125 -1.421875 
Q 19.734375 -1.421875 13.25 4.234375 
Q 6.78125 9.90625 6.78125 20.515625 
Q 6.78125 27.484375 10.78125 32.3125 
Q 14.796875 37.15625 21.921875 38.8125 
z
M 18.3125 54.390625 
Q 18.3125 48.734375 21.84375 45.5625 
Q 25.390625 42.390625 31.78125 42.390625 
Q 38.140625 42.390625 41.71875 45.5625 
Q 45.3125 48.734375 45.3125 54.390625 
Q 45.3125 60.0625 41.71875 63.234375 
Q 38.140625 66.40625 31.78125 66.40625 
Q 25.390625 66.40625 21.84375 63.234375 
Q 18.3125 60.0625 18.3125 54.390625 
z
" id="DejaVuSans-56"/>
      </defs>
      <use xlink:href="#DejaVuSans-56"/>
      <use x="63.623047" xlink:href="#DejaVuSans-48"/>
     </g>
    </g>
    <g id="line2d_45">
     <path d="M 66.6 186.673562 
L 86.6 186.673562 
" style="fill:none;stroke:#17becf;stroke-linecap:square;stroke-width:2;"/>
    </g>
    <g id="line2d_46"/>
    <g id="text_28">
     <!-- 90 -->
     <g transform="translate(94.6 190.173562)scale(0.1 -0.1)">
      <defs>
       <path d="M 10.984375 1.515625 
L 10.984375 10.5 
Q 14.703125 8.734375 18.5 7.8125 
Q 22.3125 6.890625 25.984375 6.890625 
Q 35.75 6.890625 40.890625 13.453125 
Q 46.046875 20.015625 46.78125 33.40625 
Q 43.953125 29.203125 39.59375 26.953125 
Q 35.25 24.703125 29.984375 24.703125 
Q 19.046875 24.703125 12.671875 31.3125 
Q 6.296875 37.9375 6.296875 49.421875 
Q 6.296875 60.640625 12.9375 67.421875 
Q 19.578125 74.21875 30.609375 74.21875 
Q 43.265625 74.21875 49.921875 64.515625 
Q 56.59375 54.828125 56.59375 36.375 
Q 56.59375 19.140625 48.40625 8.859375 
Q 40.234375 -1.421875 26.421875 -1.421875 
Q 22.703125 -1.421875 18.890625 -0.6875 
Q 15.09375 0.046875 10.984375 1.515625 
z
M 30.609375 32.421875 
Q 37.25 32.421875 41.125 36.953125 
Q 45.015625 41.5 45.015625 49.421875 
Q 45.015625 57.28125 41.125 61.84375 
Q 37.25 66.40625 30.609375 66.40625 
Q 23.96875 66.40625 20.09375 61.84375 
Q 16.21875 57.28125 16.21875 49.421875 
Q 16.21875 41.5 20.09375 36.953125 
Q 23.96875 32.421875 30.609375 32.421875 
z
" id="DejaVuSans-57"/>
      </defs>
      <use xlink:href="#DejaVuSans-57"/>
      <use x="63.623047" xlink:href="#DejaVuSans-48"/>
     </g>
    </g>
   </g>
  </g>
 </g>
 <defs>
  <clipPath id="pe6df7916c3">
   <rect height="266.112" width="357.12" x="57.6" y="41.472"/>
  </clipPath>
 </defs>
</svg>
