<?xml version="1.0" encoding="utf-8" standalone="no"?>
<!DOCTYPE svg PUBLIC "-//W3C//DTD SVG 1.1//EN"
  "http://www.w3.org/Graphics/SVG/1.1/DTD/svg11.dtd">
<svg height="345.6pt" version="1.1" viewBox="0 0 460.8 345.6" width="460.8pt" xmlns="http://www.w3.org/2000/svg" xmlns:xlink="http://www.w3.org/1999/xlink">
 <metadata>
  <rdf:RDF xmlns:cc="http://creativecommons.org/ns#" xmlns:dc="http://purl.org/dc/elements/1.1/" xmlns:rdf="http://www.w3.org/1999/02/22-rdf-syntax-ns#">
   <cc:Work>
    <dc:type rdf:resource="http://purl.org/dc/dcmitype/StillImage"/>
    <dc:date>2022-01-07T01:48:04.190986</dc:date>
    <dc:format>image/svg+xml</dc:format>
    <dc:creator>
     <cc:Agent>
      <dc:title>Matplotlib v3.4.2, https://matplotlib.org/</dc:title>
     </cc:Agent>
    </dc:creator>
   </cc:Work>
  </rdf:RDF>
 </metadata>
 <defs>
  <style type="text/css">*{stroke-linecap:butt;stroke-linejoin:round;}</style>
 </defs>
 <g id="figure_1">
  <g id="patch_1">
   <path d="M 0 345.6 
L 460.8 345.6 
L 460.8 0 
L 0 0 
z
" style="fill:#ffffff;"/>
  </g>
  <g id="axes_1">
   <g id="patch_2">
    <path d="M 57.6 307.584 
L 414.72 307.584 
L 414.72 41.472 
L 57.6 41.472 
z
" style="fill:#ffffff;"/>
   </g>
   <g id="matplotlib.axis_1">
    <g id="xtick_1">
     <g id="line2d_1">
      <defs>
       <path d="M 0 0 
L 0 3.5 
" id="mcee9885e1e" style="stroke:#000000;stroke-width:0.8;"/>
      </defs>
      <g>
       <use style="stroke:#000000;stroke-width:0.8;" x="73.832727" xlink:href="#mcee9885e1e" y="307.584"/>
      </g>
     </g>
     <g id="text_1">
      <!-- 50 -->
      <g transform="translate(67.470227 322.182437)scale(0.1 -0.1)">
       <defs>
        <path d="M 691 4666 
L 3169 4666 
L 3169 4134 
L 1269 4134 
L 1269 2991 
Q 1406 3038 1543 3061 
Q 1681 3084 1819 3084 
Q 2600 3084 3056 2656 
Q 3513 2228 3513 1497 
Q 3513 744 3044 326 
Q 2575 -91 1722 -91 
Q 1428 -91 1123 -41 
Q 819 9 494 109 
L 494 744 
Q 775 591 1075 516 
Q 1375 441 1709 441 
Q 2250 441 2565 725 
Q 2881 1009 2881 1497 
Q 2881 1984 2565 2268 
Q 2250 2553 1709 2553 
Q 1456 2553 1204 2497 
Q 953 2441 691 2322 
L 691 4666 
z
" id="DejaVuSans-35" transform="scale(0.015625)"/>
        <path d="M 2034 4250 
Q 1547 4250 1301 3770 
Q 1056 3291 1056 2328 
Q 1056 1369 1301 889 
Q 1547 409 2034 409 
Q 2525 409 2770 889 
Q 3016 1369 3016 2328 
Q 3016 3291 2770 3770 
Q 2525 4250 2034 4250 
z
M 2034 4750 
Q 2819 4750 3233 4129 
Q 3647 3509 3647 2328 
Q 3647 1150 3233 529 
Q 2819 -91 2034 -91 
Q 1250 -91 836 529 
Q 422 1150 422 2328 
Q 422 3509 836 4129 
Q 1250 4750 2034 4750 
z
" id="DejaVuSans-30" transform="scale(0.015625)"/>
       </defs>
       <use xlink:href="#DejaVuSans-35"/>
       <use x="63.623047" xlink:href="#DejaVuSans-30"/>
      </g>
     </g>
    </g>
    <g id="xtick_2">
     <g id="line2d_2">
      <g>
       <use style="stroke:#000000;stroke-width:0.8;" x="114.414545" xlink:href="#mcee9885e1e" y="307.584"/>
      </g>
     </g>
     <g id="text_2">
      <!-- 75 -->
      <g transform="translate(108.052045 322.182437)scale(0.1 -0.1)">
       <defs>
        <path d="M 525 4666 
L 3525 4666 
L 3525 4397 
L 1831 0 
L 1172 0 
L 2766 4134 
L 525 4134 
L 525 4666 
z
" id="DejaVuSans-37" transform="scale(0.015625)"/>
       </defs>
       <use xlink:href="#DejaVuSans-37"/>
       <use x="63.623047" xlink:href="#DejaVuSans-35"/>
      </g>
     </g>
    </g>
    <g id="xtick_3">
     <g id="line2d_3">
      <g>
       <use style="stroke:#000000;stroke-width:0.8;" x="154.996364" xlink:href="#mcee9885e1e" y="307.584"/>
      </g>
     </g>
     <g id="text_3">
      <!-- 100 -->
      <g transform="translate(145.452614 322.182437)scale(0.1 -0.1)">
       <defs>
        <path d="M 794 531 
L 1825 531 
L 1825 4091 
L 703 3866 
L 703 4441 
L 1819 4666 
L 2450 4666 
L 2450 531 
L 3481 531 
L 3481 0 
L 794 0 
L 794 531 
z
" id="DejaVuSans-31" transform="scale(0.015625)"/>
       </defs>
       <use xlink:href="#DejaVuSans-31"/>
       <use x="63.623047" xlink:href="#DejaVuSans-30"/>
       <use x="127.246094" xlink:href="#DejaVuSans-30"/>
      </g>
     </g>
    </g>
    <g id="xtick_4">
     <g id="line2d_4">
      <g>
       <use style="stroke:#000000;stroke-width:0.8;" x="195.578182" xlink:href="#mcee9885e1e" y="307.584"/>
      </g>
     </g>
     <g id="text_4">
      <!-- 125 -->
      <g transform="translate(186.034432 322.182437)scale(0.1 -0.1)">
       <defs>
        <path d="M 1228 531 
L 3431 531 
L 3431 0 
L 469 0 
L 469 531 
Q 828 903 1448 1529 
Q 2069 2156 2228 2338 
Q 2531 2678 2651 2914 
Q 2772 3150 2772 3378 
Q 2772 3750 2511 3984 
Q 2250 4219 1831 4219 
Q 1534 4219 1204 4116 
Q 875 4013 500 3803 
L 500 4441 
Q 881 4594 1212 4672 
Q 1544 4750 1819 4750 
Q 2544 4750 2975 4387 
Q 3406 4025 3406 3419 
Q 3406 3131 3298 2873 
Q 3191 2616 2906 2266 
Q 2828 2175 2409 1742 
Q 1991 1309 1228 531 
z
" id="DejaVuSans-32" transform="scale(0.015625)"/>
       </defs>
       <use xlink:href="#DejaVuSans-31"/>
       <use x="63.623047" xlink:href="#DejaVuSans-32"/>
       <use x="127.246094" xlink:href="#DejaVuSans-35"/>
      </g>
     </g>
    </g>
    <g id="xtick_5">
     <g id="line2d_5">
      <g>
       <use style="stroke:#000000;stroke-width:0.8;" x="236.16" xlink:href="#mcee9885e1e" y="307.584"/>
      </g>
     </g>
     <g id="text_5">
      <!-- 150 -->
      <g transform="translate(226.61625 322.182437)scale(0.1 -0.1)">
       <use xlink:href="#DejaVuSans-31"/>
       <use x="63.623047" xlink:href="#DejaVuSans-35"/>
       <use x="127.246094" xlink:href="#DejaVuSans-30"/>
      </g>
     </g>
    </g>
    <g id="xtick_6">
     <g id="line2d_6">
      <g>
       <use style="stroke:#000000;stroke-width:0.8;" x="276.741818" xlink:href="#mcee9885e1e" y="307.584"/>
      </g>
     </g>
     <g id="text_6">
      <!-- 175 -->
      <g transform="translate(267.198068 322.182437)scale(0.1 -0.1)">
       <use xlink:href="#DejaVuSans-31"/>
       <use x="63.623047" xlink:href="#DejaVuSans-37"/>
       <use x="127.246094" xlink:href="#DejaVuSans-35"/>
      </g>
     </g>
    </g>
    <g id="xtick_7">
     <g id="line2d_7">
      <g>
       <use style="stroke:#000000;stroke-width:0.8;" x="317.323636" xlink:href="#mcee9885e1e" y="307.584"/>
      </g>
     </g>
     <g id="text_7">
      <!-- 200 -->
      <g transform="translate(307.779886 322.182437)scale(0.1 -0.1)">
       <use xlink:href="#DejaVuSans-32"/>
       <use x="63.623047" xlink:href="#DejaVuSans-30"/>
       <use x="127.246094" xlink:href="#DejaVuSans-30"/>
      </g>
     </g>
    </g>
    <g id="xtick_8">
     <g id="line2d_8">
      <g>
       <use style="stroke:#000000;stroke-width:0.8;" x="357.905455" xlink:href="#mcee9885e1e" y="307.584"/>
      </g>
     </g>
     <g id="text_8">
      <!-- 225 -->
      <g transform="translate(348.361705 322.182437)scale(0.1 -0.1)">
       <use xlink:href="#DejaVuSans-32"/>
       <use x="63.623047" xlink:href="#DejaVuSans-32"/>
       <use x="127.246094" xlink:href="#DejaVuSans-35"/>
      </g>
     </g>
    </g>
    <g id="xtick_9">
     <g id="line2d_9">
      <g>
       <use style="stroke:#000000;stroke-width:0.8;" x="398.487273" xlink:href="#mcee9885e1e" y="307.584"/>
      </g>
     </g>
     <g id="text_9">
      <!-- 250 -->
      <g transform="translate(388.943523 322.182437)scale(0.1 -0.1)">
       <use xlink:href="#DejaVuSans-32"/>
       <use x="63.623047" xlink:href="#DejaVuSans-35"/>
       <use x="127.246094" xlink:href="#DejaVuSans-30"/>
      </g>
     </g>
    </g>
    <g id="text_10">
     <!-- radius(nm) -->
     <g transform="translate(208.763125 335.860562)scale(0.1 -0.1)">
      <defs>
       <path d="M 2631 2963 
Q 2534 3019 2420 3045 
Q 2306 3072 2169 3072 
Q 1681 3072 1420 2755 
Q 1159 2438 1159 1844 
L 1159 0 
L 581 0 
L 581 3500 
L 1159 3500 
L 1159 2956 
Q 1341 3275 1631 3429 
Q 1922 3584 2338 3584 
Q 2397 3584 2469 3576 
Q 2541 3569 2628 3553 
L 2631 2963 
z
" id="DejaVuSans-72" transform="scale(0.015625)"/>
       <path d="M 2194 1759 
Q 1497 1759 1228 1600 
Q 959 1441 959 1056 
Q 959 750 1161 570 
Q 1363 391 1709 391 
Q 2188 391 2477 730 
Q 2766 1069 2766 1631 
L 2766 1759 
L 2194 1759 
z
M 3341 1997 
L 3341 0 
L 2766 0 
L 2766 531 
Q 2569 213 2275 61 
Q 1981 -91 1556 -91 
Q 1019 -91 701 211 
Q 384 513 384 1019 
Q 384 1609 779 1909 
Q 1175 2209 1959 2209 
L 2766 2209 
L 2766 2266 
Q 2766 2663 2505 2880 
Q 2244 3097 1772 3097 
Q 1472 3097 1187 3025 
Q 903 2953 641 2809 
L 641 3341 
Q 956 3463 1253 3523 
Q 1550 3584 1831 3584 
Q 2591 3584 2966 3190 
Q 3341 2797 3341 1997 
z
" id="DejaVuSans-61" transform="scale(0.015625)"/>
       <path d="M 2906 2969 
L 2906 4863 
L 3481 4863 
L 3481 0 
L 2906 0 
L 2906 525 
Q 2725 213 2448 61 
Q 2172 -91 1784 -91 
Q 1150 -91 751 415 
Q 353 922 353 1747 
Q 353 2572 751 3078 
Q 1150 3584 1784 3584 
Q 2172 3584 2448 3432 
Q 2725 3281 2906 2969 
z
M 947 1747 
Q 947 1113 1208 752 
Q 1469 391 1925 391 
Q 2381 391 2643 752 
Q 2906 1113 2906 1747 
Q 2906 2381 2643 2742 
Q 2381 3103 1925 3103 
Q 1469 3103 1208 2742 
Q 947 2381 947 1747 
z
" id="DejaVuSans-64" transform="scale(0.015625)"/>
       <path d="M 603 3500 
L 1178 3500 
L 1178 0 
L 603 0 
L 603 3500 
z
M 603 4863 
L 1178 4863 
L 1178 4134 
L 603 4134 
L 603 4863 
z
" id="DejaVuSans-69" transform="scale(0.015625)"/>
       <path d="M 544 1381 
L 544 3500 
L 1119 3500 
L 1119 1403 
Q 1119 906 1312 657 
Q 1506 409 1894 409 
Q 2359 409 2629 706 
Q 2900 1003 2900 1516 
L 2900 3500 
L 3475 3500 
L 3475 0 
L 2900 0 
L 2900 538 
Q 2691 219 2414 64 
Q 2138 -91 1772 -91 
Q 1169 -91 856 284 
Q 544 659 544 1381 
z
M 1991 3584 
L 1991 3584 
z
" id="DejaVuSans-75" transform="scale(0.015625)"/>
       <path d="M 2834 3397 
L 2834 2853 
Q 2591 2978 2328 3040 
Q 2066 3103 1784 3103 
Q 1356 3103 1142 2972 
Q 928 2841 928 2578 
Q 928 2378 1081 2264 
Q 1234 2150 1697 2047 
L 1894 2003 
Q 2506 1872 2764 1633 
Q 3022 1394 3022 966 
Q 3022 478 2636 193 
Q 2250 -91 1575 -91 
Q 1294 -91 989 -36 
Q 684 19 347 128 
L 347 722 
Q 666 556 975 473 
Q 1284 391 1588 391 
Q 1994 391 2212 530 
Q 2431 669 2431 922 
Q 2431 1156 2273 1281 
Q 2116 1406 1581 1522 
L 1381 1569 
Q 847 1681 609 1914 
Q 372 2147 372 2553 
Q 372 3047 722 3315 
Q 1072 3584 1716 3584 
Q 2034 3584 2315 3537 
Q 2597 3491 2834 3397 
z
" id="DejaVuSans-73" transform="scale(0.015625)"/>
       <path d="M 1984 4856 
Q 1566 4138 1362 3434 
Q 1159 2731 1159 2009 
Q 1159 1288 1364 580 
Q 1569 -128 1984 -844 
L 1484 -844 
Q 1016 -109 783 600 
Q 550 1309 550 2009 
Q 550 2706 781 3412 
Q 1013 4119 1484 4856 
L 1984 4856 
z
" id="DejaVuSans-28" transform="scale(0.015625)"/>
       <path d="M 3513 2113 
L 3513 0 
L 2938 0 
L 2938 2094 
Q 2938 2591 2744 2837 
Q 2550 3084 2163 3084 
Q 1697 3084 1428 2787 
Q 1159 2491 1159 1978 
L 1159 0 
L 581 0 
L 581 3500 
L 1159 3500 
L 1159 2956 
Q 1366 3272 1645 3428 
Q 1925 3584 2291 3584 
Q 2894 3584 3203 3211 
Q 3513 2838 3513 2113 
z
" id="DejaVuSans-6e" transform="scale(0.015625)"/>
       <path d="M 3328 2828 
Q 3544 3216 3844 3400 
Q 4144 3584 4550 3584 
Q 5097 3584 5394 3201 
Q 5691 2819 5691 2113 
L 5691 0 
L 5113 0 
L 5113 2094 
Q 5113 2597 4934 2840 
Q 4756 3084 4391 3084 
Q 3944 3084 3684 2787 
Q 3425 2491 3425 1978 
L 3425 0 
L 2847 0 
L 2847 2094 
Q 2847 2600 2669 2842 
Q 2491 3084 2119 3084 
Q 1678 3084 1418 2786 
Q 1159 2488 1159 1978 
L 1159 0 
L 581 0 
L 581 3500 
L 1159 3500 
L 1159 2956 
Q 1356 3278 1631 3431 
Q 1906 3584 2284 3584 
Q 2666 3584 2933 3390 
Q 3200 3197 3328 2828 
z
" id="DejaVuSans-6d" transform="scale(0.015625)"/>
       <path d="M 513 4856 
L 1013 4856 
Q 1481 4119 1714 3412 
Q 1947 2706 1947 2009 
Q 1947 1309 1714 600 
Q 1481 -109 1013 -844 
L 513 -844 
Q 928 -128 1133 580 
Q 1338 1288 1338 2009 
Q 1338 2731 1133 3434 
Q 928 4138 513 4856 
z
" id="DejaVuSans-29" transform="scale(0.015625)"/>
      </defs>
      <use xlink:href="#DejaVuSans-72"/>
      <use x="41.113281" xlink:href="#DejaVuSans-61"/>
      <use x="102.392578" xlink:href="#DejaVuSans-64"/>
      <use x="165.869141" xlink:href="#DejaVuSans-69"/>
      <use x="193.652344" xlink:href="#DejaVuSans-75"/>
      <use x="257.03125" xlink:href="#DejaVuSans-73"/>
      <use x="309.130859" xlink:href="#DejaVuSans-28"/>
      <use x="348.144531" xlink:href="#DejaVuSans-6e"/>
      <use x="411.523438" xlink:href="#DejaVuSans-6d"/>
      <use x="508.935547" xlink:href="#DejaVuSans-29"/>
     </g>
    </g>
   </g>
   <g id="matplotlib.axis_2">
    <g id="ytick_1">
     <g id="line2d_10">
      <defs>
       <path d="M 0 0 
L -3.5 0 
" id="mc3b194d6d0" style="stroke:#000000;stroke-width:0.8;"/>
      </defs>
      <g>
       <use style="stroke:#000000;stroke-width:0.8;" x="57.6" xlink:href="#mc3b194d6d0" y="261.422761"/>
      </g>
     </g>
     <g id="text_11">
      <!-- −20 -->
      <g transform="translate(29.495313 265.221979)scale(0.1 -0.1)">
       <defs>
        <path d="M 678 2272 
L 4684 2272 
L 4684 1741 
L 678 1741 
L 678 2272 
z
" id="DejaVuSans-2212" transform="scale(0.015625)"/>
       </defs>
       <use xlink:href="#DejaVuSans-2212"/>
       <use x="83.789062" xlink:href="#DejaVuSans-32"/>
       <use x="147.412109" xlink:href="#DejaVuSans-30"/>
      </g>
     </g>
    </g>
    <g id="ytick_2">
     <g id="line2d_11">
      <g>
       <use style="stroke:#000000;stroke-width:0.8;" x="57.6" xlink:href="#mc3b194d6d0" y="209.423708"/>
      </g>
     </g>
     <g id="text_12">
      <!-- −15 -->
      <g transform="translate(29.495313 213.222927)scale(0.1 -0.1)">
       <use xlink:href="#DejaVuSans-2212"/>
       <use x="83.789062" xlink:href="#DejaVuSans-31"/>
       <use x="147.412109" xlink:href="#DejaVuSans-35"/>
      </g>
     </g>
    </g>
    <g id="ytick_3">
     <g id="line2d_12">
      <g>
       <use style="stroke:#000000;stroke-width:0.8;" x="57.6" xlink:href="#mc3b194d6d0" y="157.424656"/>
      </g>
     </g>
     <g id="text_13">
      <!-- −10 -->
      <g transform="translate(29.495313 161.223875)scale(0.1 -0.1)">
       <use xlink:href="#DejaVuSans-2212"/>
       <use x="83.789062" xlink:href="#DejaVuSans-31"/>
       <use x="147.412109" xlink:href="#DejaVuSans-30"/>
      </g>
     </g>
    </g>
    <g id="ytick_4">
     <g id="line2d_13">
      <g>
       <use style="stroke:#000000;stroke-width:0.8;" x="57.6" xlink:href="#mc3b194d6d0" y="105.425604"/>
      </g>
     </g>
     <g id="text_14">
      <!-- −5 -->
      <g transform="translate(35.857813 109.224823)scale(0.1 -0.1)">
       <use xlink:href="#DejaVuSans-2212"/>
       <use x="83.789062" xlink:href="#DejaVuSans-35"/>
      </g>
     </g>
    </g>
    <g id="ytick_5">
     <g id="line2d_14">
      <g>
       <use style="stroke:#000000;stroke-width:0.8;" x="57.6" xlink:href="#mc3b194d6d0" y="53.426552"/>
      </g>
     </g>
     <g id="text_15">
      <!-- 0 -->
      <g transform="translate(44.2375 57.225771)scale(0.1 -0.1)">
       <use xlink:href="#DejaVuSans-30"/>
      </g>
     </g>
    </g>
   </g>
   <g id="line2d_15">
    <path clip-path="url(#pc718c17030)" d="M 73.832727 55.586088 
L 77.079273 55.576236 
L 80.325818 55.566272 
L 83.572364 55.556218 
L 86.818909 55.546059 
L 90.065455 55.535736 
L 93.312 55.525157 
L 96.558545 55.514197 
L 99.805091 55.502702 
L 103.051636 55.490488 
L 106.298182 55.477348 
L 109.544727 55.463049 
L 112.791273 55.447339 
L 116.037818 55.429946 
L 119.284364 55.410593 
L 122.530909 55.388999 
L 125.777455 55.3649 
L 129.024 55.338056 
L 132.270545 55.308263 
L 135.517091 55.275365 
L 138.763636 55.239255 
L 142.010182 55.199866 
L 145.256727 55.157161 
L 148.503273 55.111117 
L 151.749818 55.061694 
L 154.996364 55.008823 
L 158.242909 54.952384 
L 161.489455 54.892195 
L 164.736 54.828013 
L 167.982545 54.759541 
L 171.229091 54.686451 
L 174.475636 54.608414 
L 177.722182 54.525156 
L 180.968727 54.43653 
L 184.215273 54.342623 
L 187.461818 54.243895 
L 190.708364 54.141365 
L 193.954909 54.036838 
L 197.201455 53.933165 
L 200.448 53.834486 
L 203.694545 53.746407 
L 206.941091 53.675972 
L 210.187636 53.631293 
L 213.434182 53.620715 
L 216.680727 53.651477 
L 219.927273 53.728063 
L 223.173818 53.85064 
L 226.420364 54.014119 
L 229.666909 54.2082 
L 232.913455 54.418436 
L 236.16 54.627941 
L 239.406545 54.819274 
L 242.653091 54.97607 
L 245.899636 55.084293 
L 249.146182 55.133125 
L 252.392727 55.115686 
L 255.639273 55.029748 
L 258.885818 54.878587 
L 262.132364 54.672017 
L 265.378909 54.427447 
L 268.625455 54.170485 
L 271.872 53.934158 
L 275.118545 53.7555 
L 278.365091 53.668875 
L 281.611636 53.697349 
L 284.858182 53.845914 
L 288.104727 54.100527 
L 291.351273 54.433525 
L 294.597818 54.812016 
L 297.844364 55.205128 
L 301.090909 55.588161 
L 304.337455 55.944026 
L 307.584 56.263271 
L 310.830545 56.544001 
L 314.077091 56.792772 
L 317.323636 57.027861 
L 320.570182 57.287482 
L 323.816727 57.648828 
L 327.063273 58.271411 
L 330.309818 59.494308 
L 333.556364 62.056052 
L 336.802909 67.823324 
L 340.049455 81.296846 
L 343.296 67.866671 
L 346.542545 62.96893 
L 349.789091 60.442188 
L 353.035636 58.867628 
L 356.282182 57.785989 
L 359.528727 57.014383 
L 362.775273 56.474838 
L 366.021818 56.131677 
L 369.268364 55.963093 
L 372.514909 55.947719 
L 375.761455 56.060281 
L 379.008 56.272922 
L 382.254545 56.559006 
L 385.501091 56.896917 
L 388.747636 57.272982 
L 391.994182 57.684182 
L 395.240727 58.143006 
L 398.487273 58.690419 
" style="fill:none;stroke:#1f77b4;stroke-linecap:square;stroke-width:2;"/>
   </g>
   <g id="line2d_16">
    <path clip-path="url(#pc718c17030)" d="M 73.832727 55.074405 
L 77.079273 55.093237 
L 80.325818 55.112164 
L 83.572364 55.131169 
L 86.818909 55.150305 
L 90.065455 55.169679 
L 93.312 55.189447 
L 96.558545 55.209796 
L 99.805091 55.23094 
L 103.051636 55.253109 
L 106.298182 55.276538 
L 109.544727 55.301459 
L 112.791273 55.328085 
L 116.037818 55.356598 
L 119.284364 55.387126 
L 122.530909 55.419728 
L 125.777455 55.454376 
L 129.024 55.490937 
L 132.270545 55.529172 
L 135.517091 55.568738 
L 138.763636 55.609201 
L 142.010182 55.650061 
L 145.256727 55.690778 
L 148.503273 55.730796 
L 151.749818 55.769559 
L 154.996364 55.806519 
L 158.242909 55.841128 
L 161.489455 55.872816 
L 164.736 55.900959 
L 167.982545 55.924838 
L 171.229091 55.94359 
L 174.475636 55.956157 
L 177.722182 55.961229 
L 180.968727 55.957185 
L 184.215273 55.942042 
L 187.461818 55.913405 
L 190.708364 55.868446 
L 193.954909 55.803908 
L 197.201455 55.716185 
L 200.448 55.601502 
L 203.694545 55.456249 
L 206.941091 55.277565 
L 210.187636 55.064246 
L 213.434182 54.818095 
L 216.680727 54.545762 
L 219.927273 54.260952 
L 223.173818 53.98642 
L 226.420364 53.754378 
L 229.666909 53.6031 
L 232.913455 53.568 
L 236.16 53.668806 
L 239.406545 53.899389 
L 242.653091 54.227422 
L 245.899636 54.60423 
L 249.146182 54.977998 
L 252.392727 55.303537 
L 255.639273 55.546621 
L 258.885818 55.684542 
L 262.132364 55.705194 
L 265.378909 55.606298 
L 268.625455 55.395598 
L 271.872 55.092389 
L 275.118545 54.730148 
L 278.365091 54.358899 
L 281.611636 54.043808 
L 284.858182 53.854838 
L 288.104727 53.845676 
L 291.351273 54.031405 
L 294.597818 54.382321 
L 297.844364 54.844137 
L 301.090909 55.561649 
L 304.337455 57.611349 
L 307.584 56.88126 
L 310.830545 57.255075 
L 314.077091 57.842902 
L 317.323636 59.075972 
L 320.570182 57.397701 
L 323.816727 57.045593 
L 327.063273 57.087235 
L 330.309818 57.053158 
L 333.556364 56.952536 
L 336.802909 56.823298 
L 340.049455 56.729822 
L 343.296 56.79175 
L 346.542545 57.237084 
L 349.789091 58.482931 
L 353.035636 61.252722 
L 356.282182 67.059765 
L 359.528727 76.290956 
L 362.775273 66.519294 
L 366.021818 61.480977 
L 369.268364 58.728285 
L 372.514909 57.444496 
L 375.761455 56.914825 
L 379.008 56.523385 
L 382.254545 56.350116 
L 385.501091 56.39662 
L 388.747636 56.604978 
L 391.994182 56.920217 
L 395.240727 57.304694 
L 398.487273 57.740494 
" style="fill:none;stroke:#ff7f0e;stroke-linecap:square;stroke-width:2;"/>
   </g>
   <g id="line2d_17">
    <path clip-path="url(#pc718c17030)" d="M 73.832727 257.275019 
L 77.079273 257.276009 
L 80.325818 292.70588 
L 83.572364 282.879823 
L 86.818909 254.134793 
L 90.065455 254.144561 
L 93.312 254.144609 
L 96.558545 279.50624 
L 99.805091 285.62465 
L 103.051636 254.124396 
L 106.298182 254.137961 
L 109.544727 254.134192 
L 112.791273 254.137077 
L 116.037818 290.616873 
L 119.284364 278.009392 
L 122.530909 295.488 
L 125.777455 254.11609 
L 129.024 284.442363 
L 132.270545 254.216685 
L 135.517091 254.14284 
L 138.763636 254.162561 
L 142.010182 278.300708 
L 145.256727 254.186655 
L 148.503273 277.819539 
L 151.749818 280.313088 
L 154.996364 267.252529 
L 158.242909 269.991861 
L 161.489455 267.414636 
L 164.736 247.93795 
L 167.982545 270.633134 
L 171.229091 241.608857 
L 174.475636 238.408965 
L 177.722182 257.288327 
L 180.968727 248.641581 
L 184.215273 249.705107 
L 187.461818 225.779902 
L 190.708364 219.555678 
L 193.954909 213.394385 
L 197.201455 225.111223 
L 200.448 242.057197 
L 203.694545 238.480924 
L 206.941091 261.419966 
L 210.187636 247.381836 
L 213.434182 232.550242 
L 216.680727 229.238254 
L 219.927273 229.075347 
L 223.173818 239.611269 
L 226.420364 235.11192 
L 229.666909 228.294062 
L 232.913455 210.296723 
L 236.16 213.731104 
L 239.406545 216.709076 
L 242.653091 219.457222 
L 245.899636 232.118228 
L 249.146182 229.169155 
L 252.392727 225.91212 
L 255.639273 219.739419 
L 258.885818 219.90743 
L 262.132364 237.320189 
L 265.378909 231.787408 
L 268.625455 228.716734 
L 271.872 231.891764 
L 275.118545 227.433935 
L 278.365091 222.891078 
L 281.611636 239.972284 
L 284.858182 223.422565 
L 288.104727 218.916707 
L 291.351273 222.808608 
L 294.597818 229.833456 
L 297.844364 243.872645 
L 301.090909 219.693484 
L 304.337455 229.137255 
L 307.584 228.705711 
L 310.830545 228.868826 
L 314.077091 227.241747 
L 317.323636 226.102146 
L 320.570182 231.963396 
L 323.816727 229.561608 
L 327.063273 236.193032 
L 330.309818 240.515644 
L 333.556364 225.074315 
L 336.802909 243.630288 
L 340.049455 222.758351 
L 343.296 235.665134 
L 346.542545 225.958158 
L 349.789091 241.59343 
L 353.035636 231.919156 
L 356.282182 232.105004 
L 359.528727 232.136169 
L 362.775273 245.350801 
L 366.021818 236.788339 
L 369.268364 216.728435 
L 372.514909 234.422333 
L 375.761455 228.91926 
L 379.008 231.547305 
L 382.254545 229.03736 
L 385.501091 225.886572 
L 388.747636 226.212721 
L 391.994182 229.149435 
L 395.240727 222.854331 
L 398.487273 228.501348 
" style="fill:none;stroke:#2ca02c;stroke-linecap:square;stroke-width:2;"/>
   </g>
   <g id="line2d_18">
    <path clip-path="url(#pc718c17030)" d="M 73.832727 270.919588 
L 77.079273 238.121673 
L 80.325818 241.261798 
L 83.572364 275.416407 
L 86.818909 279.54361 
L 90.065455 247.518959 
L 93.312 280.57129 
L 96.558545 250.657882 
L 99.805091 250.648601 
L 103.051636 281.880868 
L 106.298182 253.781035 
L 109.544727 283.860357 
L 112.791273 256.907078 
L 116.037818 256.913348 
L 119.284364 256.901304 
L 122.530909 286.412386 
L 125.777455 260.029111 
L 129.024 263.210228 
L 132.270545 282.724112 
L 135.517091 269.74518 
L 138.763636 269.672203 
L 142.010182 281.399421 
L 145.256727 284.941054 
L 148.503273 260.105584 
L 151.749818 279.210685 
L 154.996364 256.886311 
L 158.242909 256.984135 
L 161.489455 274.197287 
L 164.736 272.354044 
L 167.982545 253.758458 
L 171.229091 250.639091 
L 174.475636 272.433913 
L 177.722182 250.641683 
L 180.968727 268.320596 
L 184.215273 270.333131 
L 187.461818 263.723244 
L 190.708364 262.14745 
L 193.954909 259.722914 
L 197.201455 261.298329 
L 200.448 253.179557 
L 203.694545 237.991662 
L 206.941091 269.046738 
L 210.187636 235.000819 
L 213.434182 237.845843 
L 216.680727 258.319363 
L 219.927273 261.929112 
L 223.173818 268.995403 
L 226.420364 250.49587 
L 229.666909 247.108877 
L 232.913455 247.534841 
L 236.16 255.845993 
L 239.406545 253.045913 
L 242.653091 262.26762 
L 245.899636 238.139824 
L 249.146182 238.749701 
L 252.392727 235.281608 
L 255.639273 254.738149 
L 258.885818 250.478078 
L 262.132364 238.319829 
L 265.378909 241.388147 
L 268.625455 247.626864 
L 271.872 249.90239 
L 275.118545 246.794553 
L 278.365091 222.545446 
L 281.611636 235.452987 
L 284.858182 231.763829 
L 288.104727 244.733991 
L 291.351273 247.547672 
L 294.597818 235.301896 
L 297.844364 233.723368 
L 301.090909 228.56917 
L 304.337455 224.355598 
L 307.584 225.291764 
L 310.830545 238.039075 
L 314.077091 243.921153 
L 317.323636 255.347654 
L 320.570182 242.755577 
L 323.816727 231.575804 
L 327.063273 239.864779 
L 330.309818 242.583878 
L 333.556364 242.649491 
L 336.802909 223.534658 
L 340.049455 245.881162 
L 343.296 229.658009 
L 346.542545 229.885277 
L 349.789091 228.255712 
L 353.035636 228.797312 
L 356.282182 245.552101 
L 359.528727 242.672981 
L 362.775273 219.702075 
L 366.021818 226.353399 
L 369.268364 239.728355 
L 372.514909 236.874846 
L 375.761455 231.621055 
L 379.008 238.702828 
L 382.254545 229.746032 
L 385.501091 232.002929 
L 388.747636 235.837932 
L 391.994182 234.25226 
L 395.240727 230.200358 
L 398.487273 238.500126 
" style="fill:none;stroke:#d62728;stroke-linecap:square;stroke-width:2;"/>
   </g>
   <g id="line2d_19">
    <path clip-path="url(#pc718c17030)" d="M 73.832727 95.10309 
L 77.079273 94.460791 
L 80.325818 93.869626 
L 83.572364 93.325768 
L 86.818909 92.824162 
L 90.065455 92.359097 
L 93.312 91.92464 
L 96.558545 91.51494 
L 99.805091 91.124422 
L 103.051636 90.747917 
L 106.298182 90.380729 
L 109.544727 90.018707 
L 112.791273 89.658306 
L 116.037818 89.296666 
L 119.284364 88.931704 
L 122.530909 88.562196 
L 125.777455 88.187834 
L 129.024 87.809224 
L 132.270545 87.427807 
L 135.517091 87.04568 
L 138.763636 86.665344 
L 142.010182 86.289399 
L 145.256727 85.920223 
L 148.503273 85.559689 
L 151.749818 85.208949 
L 154.996364 84.868301 
L 158.242909 84.537146 
L 161.489455 84.21402 
L 164.736 83.896673 
L 167.982545 83.582184 
L 171.229091 83.26708 
L 174.475636 82.947453 
L 177.722182 82.619072 
L 180.968727 82.277482 
L 184.215273 81.918102 
L 187.461818 81.536331 
L 190.708364 81.127688 
L 193.954909 80.688 
L 197.201455 80.213674 
L 200.448 79.702078 
L 203.694545 79.152076 
L 206.941091 78.564752 
L 210.187636 77.944353 
L 213.434182 77.299406 
L 216.680727 76.64387 
L 219.927273 75.997886 
L 223.173818 75.387355 
L 226.420364 74.841303 
L 229.666909 74.386425 
L 232.913455 74.039741 
L 236.16 73.802372 
L 239.406545 73.657968 
L 242.653091 73.576789 
L 245.899636 73.523052 
L 249.146182 73.461896 
L 252.392727 73.363854 
L 255.639273 73.206764 
L 258.885818 72.976137 
L 262.132364 72.665091 
L 265.378909 72.274637 
L 268.625455 71.814711 
L 271.872 71.305938 
L 275.118545 70.781262 
L 278.365091 70.285293 
L 281.611636 69.867957 
L 284.858182 69.570306 
L 288.104727 69.406408 
L 291.351273 69.351941 
L 294.597818 69.346682 
L 297.844364 69.303251 
L 301.090909 69.092123 
L 304.337455 68.243432 
L 307.584 69.018015 
L 310.830545 67.857959 
L 314.077091 66.113162 
L 317.323636 63.255326 
L 320.570182 58.459052 
L 323.816727 57.572706 
L 327.063273 64.116354 
L 330.309818 68.578427 
L 333.556364 71.234979 
L 336.802909 72.542387 
L 340.049455 72.753778 
L 343.296 72.123051 
L 346.542545 70.984239 
L 349.789091 69.759333 
L 353.035636 68.851678 
L 356.282182 68.443292 
L 359.528727 68.462123 
L 362.775273 68.781897 
L 366.021818 69.382781 
L 369.268364 70.423793 
L 372.514909 72.476369 
L 375.761455 77.978014 
L 379.008 82.903906 
L 382.254545 74.962711 
L 385.501091 73.86589 
L 388.747636 74.381807 
L 391.994182 75.425262 
L 395.240727 76.740354 
L 398.487273 78.263099 
" style="fill:none;stroke:#9467bd;stroke-linecap:square;stroke-width:2;"/>
   </g>
   <g id="line2d_20">
    <path clip-path="url(#pc718c17030)" d="M 73.832727 99.781801 
L 77.079273 99.095294 
L 80.325818 98.45744 
L 83.572364 97.864626 
L 86.818909 97.311957 
L 90.065455 96.793832 
L 93.312 96.304391 
L 96.558545 95.837841 
L 99.805091 95.388668 
L 103.051636 94.951763 
L 106.298182 94.522503 
L 109.544727 94.096806 
L 112.791273 93.671182 
L 116.037818 93.242797 
L 119.284364 92.809552 
L 122.530909 92.370156 
L 125.777455 91.924176 
L 129.024 91.472038 
L 132.270545 91.014957 
L 135.517091 90.554783 
L 138.763636 90.093771 
L 142.010182 89.634299 
L 145.256727 89.178579 
L 148.503273 88.728391 
L 151.749818 88.28489 
L 154.996364 87.848497 
L 158.242909 87.418875 
L 161.489455 86.994988 
L 164.736 86.575221 
L 167.982545 86.157522 
L 171.229091 85.73958 
L 174.475636 85.318986 
L 177.722182 84.893407 
L 180.968727 84.460741 
L 184.215273 84.019291 
L 187.461818 83.567947 
L 190.708364 83.106393 
L 193.954909 82.635345 
L 197.201455 82.156808 
L 200.448 81.674318 
L 203.694545 81.193106 
L 206.941091 80.720085 
L 210.187636 80.263546 
L 213.434182 79.83244 
L 216.680727 79.435241 
L 219.927273 79.078477 
L 223.173818 78.765254 
L 226.420364 78.494164 
L 229.666909 78.258944 
L 232.913455 78.049004 
L 236.16 77.850651 
L 239.406545 77.648667 
L 242.653091 77.42788 
L 245.899636 77.174514 
L 249.146182 76.877295 
L 252.392727 76.528369 
L 255.639273 76.124207 
L 258.885818 75.666604 
L 262.132364 75.163818 
L 265.378909 74.631706 
L 268.625455 74.094303 
L 271.872 73.582866 
L 275.118545 73.132059 
L 278.365091 72.772766 
L 281.611636 72.523226 
L 284.858182 72.382665 
L 288.104727 72.331258 
L 291.351273 72.336329 
L 294.597818 72.360825 
L 297.844364 72.369873 
L 301.090909 72.333749 
L 304.337455 72.22762 
L 307.584 72.028598 
L 310.830545 71.707411 
L 314.077091 71.195411 
L 317.323636 71.802123 
L 320.570182 70.440443 
L 323.816727 69.523571 
L 327.063273 68.506555 
L 330.309818 67.405876 
L 333.556364 66.357794 
L 336.802909 65.508649 
L 340.049455 64.579755 
L 343.296 62.791878 
L 346.542545 64.334806 
L 349.789091 70.569512 
L 353.035636 73.678664 
L 356.282182 74.390896 
L 359.528727 74.21462 
L 362.775273 73.824245 
L 366.021818 73.458512 
L 369.268364 73.197508 
L 372.514909 73.058482 
L 375.761455 73.029377 
L 379.008 73.084304 
L 382.254545 73.192621 
L 385.501091 73.324249 
L 388.747636 73.452157 
L 391.994182 73.553078 
L 395.240727 73.607643 
L 398.487273 73.601733 
" style="fill:none;stroke:#8c564b;stroke-linecap:square;stroke-width:2;"/>
   </g>
   <g id="line2d_21">
    <path clip-path="url(#pc718c17030)" d="M 73.832727 103.281557 
L 77.079273 102.5871 
L 80.325818 101.939966 
L 83.572364 101.336713 
L 86.818909 100.772638 
L 90.065455 100.242337 
L 93.312 99.740154 
L 96.558545 99.260506 
L 99.805091 98.79809 
L 103.051636 98.348016 
L 106.298182 97.905875 
L 109.544727 97.467792 
L 112.791273 97.030461 
L 116.037818 96.591202 
L 119.284364 96.148019 
L 122.530909 95.699661 
L 125.777455 95.245666 
L 129.024 94.786354 
L 132.270545 94.322764 
L 135.517091 93.856509 
L 138.763636 93.389572 
L 142.010182 92.924045 
L 145.256727 92.461864 
L 148.503273 92.004567 
L 151.749818 91.553116 
L 154.996364 91.107788 
L 158.242909 90.66816 
L 161.489455 90.233156 
L 164.736 89.801149 
L 167.982545 89.370101 
L 171.229091 88.937714 
L 174.475636 88.501576 
L 177.722182 88.05931 
L 180.968727 87.608718 
L 184.215273 87.14793 
L 187.461818 86.675569 
L 190.708364 86.190957 
L 193.954909 85.694356 
L 197.201455 85.187274 
L 200.448 84.672782 
L 203.694545 84.155832 
L 206.941091 83.643451 
L 210.187636 83.14469 
L 213.434182 82.670148 
L 216.680727 82.230912 
L 219.927273 81.836917 
L 223.173818 81.494942 
L 226.420364 81.206743 
L 229.666909 80.967947 
L 232.913455 80.768127 
L 236.16 80.592038 
L 239.406545 80.421613 
L 242.653091 80.238112 
L 245.899636 80.024022 
L 249.146182 79.764524 
L 252.392727 79.4486 
L 255.639273 79.069974 
L 258.885818 78.628091 
L 262.132364 78.129261 
L 265.378909 77.587954 
L 268.625455 77.027861 
L 271.872 76.481816 
L 275.118545 75.989095 
L 278.365091 75.588852 
L 281.611636 75.310409 
L 284.858182 75.164395 
L 288.104727 75.140069 
L 291.351273 75.210694 
L 294.597818 75.343484 
L 297.844364 75.508928 
L 301.090909 75.68696 
L 304.337455 75.871035 
L 307.584 76.073533 
L 310.830545 76.312508 
L 314.077091 70.017468 
L 317.323636 75.764148 
L 320.570182 76.783389 
L 323.816727 78.331133 
L 327.063273 82.508198 
L 330.309818 86.497108 
L 333.556364 72.130086 
L 336.802909 66.682048 
L 340.049455 64.85122 
L 343.296 64.341164 
L 346.542545 65.168893 
L 349.789091 67.654761 
L 353.035636 71.244884 
L 356.282182 75.166072 
L 359.528727 78.516926 
L 362.775273 80.005453 
L 366.021818 79.692327 
L 369.268364 78.899404 
L 372.514909 78.306023 
L 375.761455 78.048385 
L 379.008 78.110866 
L 382.254545 78.45552 
L 385.501091 79.047529 
L 388.747636 79.823641 
L 391.994182 80.522454 
L 395.240727 80.22 
L 398.487273 77.667512 
" style="fill:none;stroke:#e377c2;stroke-linecap:square;stroke-width:2;"/>
   </g>
   <g id="line2d_22">
    <path clip-path="url(#pc718c17030)" d="M 73.832727 106.260098 
L 77.079273 105.576889 
L 80.325818 104.940433 
L 83.572364 104.347411 
L 86.818909 103.793298 
L 90.065455 103.272907 
L 93.312 102.780824 
L 96.558545 102.311719 
L 99.805091 101.860559 
L 103.051636 101.422724 
L 106.298182 100.994074 
L 109.544727 100.570996 
L 112.791273 100.15043 
L 116.037818 99.729913 
L 119.284364 99.307624 
L 122.530909 98.882433 
L 125.777455 98.453927 
L 129.024 98.022402 
L 132.270545 97.588794 
L 135.517091 97.154547 
L 138.763636 96.721419 
L 142.010182 96.291249 
L 145.256727 95.86571 
L 148.503273 95.446094 
L 151.749818 95.033141 
L 154.996364 94.626937 
L 158.242909 94.226889 
L 161.489455 93.831751 
L 164.736 93.439701 
L 167.982545 93.048438 
L 171.229091 92.655288 
L 174.475636 92.257306 
L 177.722182 91.851361 
L 180.968727 91.434217 
L 184.215273 91.002605 
L 187.461818 90.5533 
L 190.708364 90.083233 
L 193.954909 89.589643 
L 197.201455 89.070318 
L 200.448 88.523939 
L 203.694545 87.950583 
L 206.941091 87.352394 
L 210.187636 86.734452 
L 213.434182 86.105756 
L 216.680727 85.480132 
L 219.927273 84.876599 
L 223.173818 84.318474 
L 226.420364 83.830376 
L 229.666909 83.432935 
L 232.913455 83.136425 
L 236.16 82.936098 
L 239.406545 82.811848 
L 242.653091 82.732492 
L 245.899636 82.662379 
L 249.146182 82.567432 
L 252.392727 82.419084 
L 255.639273 82.196153 
L 258.885818 81.8855 
L 262.132364 81.482367 
L 265.378909 80.991034 
L 268.625455 80.426125 
L 271.872 79.814423 
L 275.118545 79.196239 
L 278.365091 78.624087 
L 281.611636 78.155531 
L 284.858182 77.838998 
L 288.104727 77.697605 
L 291.351273 77.721433 
L 294.597818 77.873676 
L 297.844364 78.101899 
L 301.090909 78.320659 
L 304.337455 77.995441 
L 307.584 75.393791 
L 310.830545 79.539751 
L 314.077091 80.901691 
L 317.323636 83.51848 
L 320.570182 86.700443 
L 323.816727 72.279252 
L 327.063273 71.590363 
L 330.309818 72.42758 
L 333.556364 72.663281 
L 336.802909 72.561413 
L 340.049455 72.309928 
L 343.296 72.083507 
L 346.542545 72.128126 
L 349.789091 72.798196 
L 353.035636 74.463223 
L 356.282182 77.323584 
L 359.528727 81.355028 
L 362.775273 85.559515 
L 366.021818 85.738473 
L 369.268364 82.991547 
L 372.514909 80.581697 
L 375.761455 78.581071 
L 379.008 76.78884 
L 382.254545 76.230518 
L 385.501091 76.867029 
L 388.747636 77.590298 
L 391.994182 78.211815 
L 395.240727 78.796133 
L 398.487273 79.410332 
" style="fill:none;stroke:#7f7f7f;stroke-linecap:square;stroke-width:2;"/>
   </g>
   <g id="line2d_23">
    <path clip-path="url(#pc718c17030)" d="M 73.832727 109.295947 
L 77.079273 108.615429 
L 80.325818 107.981969 
L 83.572364 107.392344 
L 86.818909 106.842148 
L 90.065455 106.326341 
L 93.312 105.839681 
L 96.558545 105.37704 
L 99.805091 104.933604 
L 103.051636 104.504998 
L 106.298182 104.08735 
L 109.544727 103.677328 
L 112.791273 103.27217 
L 116.037818 102.869715 
L 119.284364 102.468439 
L 122.530909 102.067487 
L 125.777455 101.666691 
L 129.024 101.266541 
L 132.270545 100.868111 
L 135.517091 100.472917 
L 138.763636 100.082732 
L 142.010182 99.699363 
L 145.256727 99.324428 
L 148.503273 98.959158 
L 151.749818 98.604248 
L 154.996364 98.259773 
L 158.242909 97.925162 
L 161.489455 97.599217 
L 164.736 97.280179 
L 167.982545 96.965789 
L 171.229091 96.653372 
L 174.475636 96.339892 
L 177.722182 96.022006 
L 180.968727 95.696092 
L 184.215273 95.358268 
L 187.461818 95.004399 
L 190.708364 94.630102 
L 193.954909 94.23077 
L 197.201455 93.80162 
L 200.448 93.337795 
L 203.694545 92.834553 
L 206.941091 92.287605 
L 210.187636 91.693661 
L 213.434182 91.051329 
L 216.680727 90.362519 
L 219.927273 89.634536 
L 223.173818 88.882913 
L 226.420364 88.134538 
L 229.666909 87.429436 
L 232.913455 86.817843 
L 236.16 86.348835 
L 239.406545 86.051502 
L 242.653091 85.918891 
L 245.899636 85.907537 
L 249.146182 85.953268 
L 252.392727 85.990928 
L 255.639273 85.967113 
L 258.885818 85.844296 
L 262.132364 85.600029 
L 265.378909 85.224928 
L 268.625455 84.721516 
L 271.872 84.104793 
L 275.118545 83.404635 
L 278.365091 82.668971 
L 281.611636 81.964263 
L 284.858182 81.366376 
L 288.104727 80.934665 
L 291.351273 80.668652 
L 294.597818 80.428725 
L 297.844364 79.46127 
L 301.090909 80.001068 
L 304.337455 83.233952 
L 307.584 83.861104 
L 310.830545 85.024091 
L 314.077091 85.72415 
L 317.323636 78.012294 
L 320.570182 78.991645 
L 323.816727 79.602508 
L 327.063273 79.722149 
L 330.309818 79.574439 
L 333.556364 79.251732 
L 336.802909 78.804329 
L 340.049455 78.279332 
L 343.296 77.750361 
L 346.542545 77.356956 
L 349.789091 77.351604 
L 353.035636 78.10289 
L 356.282182 79.999547 
L 359.528727 83.516105 
L 362.775273 90.453446 
L 366.021818 93.626461 
L 369.268364 87.278497 
L 372.514909 86.167333 
L 375.761455 85.499255 
L 379.008 84.822252 
L 382.254545 84.347967 
L 385.501091 84.134707 
L 388.747636 84.146797 
L 391.994182 84.330845 
L 395.240727 84.646701 
L 398.487273 85.07954 
" style="fill:none;stroke:#bcbd22;stroke-linecap:square;stroke-width:2;"/>
   </g>
   <g id="line2d_24">
    <path clip-path="url(#pc718c17030)" d="M 73.832727 183.682843 
L 77.079273 182.986635 
L 80.325818 182.33793 
L 83.572364 181.733566 
L 86.818909 181.169166 
L 90.065455 180.639704 
L 93.312 180.139946 
L 96.558545 179.664784 
L 99.805091 179.20944 
L 103.051636 178.769599 
L 106.298182 178.341474 
L 109.544727 177.921848 
L 112.791273 177.5081 
L 116.037818 177.098242 
L 119.284364 176.690949 
L 122.530909 176.285593 
L 125.777455 175.882245 
L 129.024 175.481644 
L 132.270545 175.085104 
L 135.517091 174.694363 
L 138.763636 174.311386 
L 142.010182 173.938133 
L 145.256727 173.576338 
L 148.503273 173.227313 
L 151.749818 172.891813 
L 154.996364 172.56996 
L 158.242909 172.261222 
L 161.489455 171.964444 
L 164.736 171.677904 
L 167.982545 171.399376 
L 171.229091 171.126195 
L 174.475636 170.855312 
L 177.722182 170.583324 
L 180.968727 170.306499 
L 184.215273 170.02078 
L 187.461818 169.721777 
L 190.708364 169.404756 
L 193.954909 169.064629 
L 197.201455 168.695953 
L 200.448 168.292959 
L 203.694545 167.849639 
L 206.941091 167.359912 
L 210.187636 166.817959 
L 213.434182 166.218808 
L 216.680727 165.559361 
L 219.927273 164.840131 
L 223.173818 164.068039 
L 226.420364 163.260544 
L 229.666909 162.450694 
L 232.913455 161.690693 
L 236.16 161.048121 
L 239.406545 160.587826 
L 242.653091 160.341859 
L 245.899636 160.287919 
L 249.146182 160.356893 
L 252.392727 160.462346 
L 255.639273 160.527304 
L 258.885818 160.495858 
L 262.132364 160.33329 
L 265.378909 160.02216 
L 268.625455 159.558878 
L 271.872 158.952511 
L 275.118545 158.226234 
L 278.365091 157.420877 
L 281.611636 156.597665 
L 284.858182 155.83193 
L 288.104727 155.181662 
L 291.351273 154.600643 
L 294.597818 153.625488 
L 297.844364 152.800558 
L 301.090909 157.83605 
L 304.337455 158.024494 
L 307.584 158.564418 
L 310.830545 159.267228 
L 314.077091 154.2575 
L 317.323636 154.59344 
L 320.570182 155.247681 
L 323.816727 155.409314 
L 327.063273 155.306352 
L 330.309818 155.024266 
L 333.556364 154.599769 
L 336.802909 154.056059 
L 340.049455 153.421485 
L 343.296 152.751027 
L 346.542545 152.161379 
L 349.789091 151.876308 
L 353.035636 152.229051 
L 356.282182 153.565072 
L 359.528727 156.453455 
L 362.775273 164.568629 
L 366.021818 173.233173 
L 369.268364 165.268132 
L 372.514909 162.985756 
L 375.761455 161.449922 
L 379.008 160.350783 
L 382.254545 159.666628 
L 385.501091 159.339022 
L 388.747636 159.286456 
L 391.994182 159.43263 
L 395.240727 159.721838 
L 398.487273 160.12605 
" style="fill:none;stroke:#17becf;stroke-linecap:square;stroke-width:2;"/>
   </g>
   <g id="patch_3">
    <path d="M 57.6 307.584 
L 57.6 41.472 
" style="fill:none;stroke:#000000;stroke-linecap:square;stroke-linejoin:miter;stroke-width:0.8;"/>
   </g>
   <g id="patch_4">
    <path d="M 414.72 307.584 
L 414.72 41.472 
" style="fill:none;stroke:#000000;stroke-linecap:square;stroke-linejoin:miter;stroke-width:0.8;"/>
   </g>
   <g id="patch_5">
    <path d="M 57.6 307.584 
L 414.72 307.584 
" style="fill:none;stroke:#000000;stroke-linecap:square;stroke-linejoin:miter;stroke-width:0.8;"/>
   </g>
   <g id="patch_6">
    <path d="M 57.6 41.472 
L 414.72 41.472 
" style="fill:none;stroke:#000000;stroke-linecap:square;stroke-linejoin:miter;stroke-width:0.8;"/>
   </g>
   <g id="text_16">
    <!-- Transmission of different radius -->
    <g transform="translate(141.78375 35.472)scale(0.12 -0.12)">
     <defs>
      <path d="M -19 4666 
L 3928 4666 
L 3928 4134 
L 2272 4134 
L 2272 0 
L 1638 0 
L 1638 4134 
L -19 4134 
L -19 4666 
z
" id="DejaVuSans-54" transform="scale(0.015625)"/>
      <path d="M 1959 3097 
Q 1497 3097 1228 2736 
Q 959 2375 959 1747 
Q 959 1119 1226 758 
Q 1494 397 1959 397 
Q 2419 397 2687 759 
Q 2956 1122 2956 1747 
Q 2956 2369 2687 2733 
Q 2419 3097 1959 3097 
z
M 1959 3584 
Q 2709 3584 3137 3096 
Q 3566 2609 3566 1747 
Q 3566 888 3137 398 
Q 2709 -91 1959 -91 
Q 1206 -91 779 398 
Q 353 888 353 1747 
Q 353 2609 779 3096 
Q 1206 3584 1959 3584 
z
" id="DejaVuSans-6f" transform="scale(0.015625)"/>
      <path id="DejaVuSans-20" transform="scale(0.015625)"/>
      <path d="M 2375 4863 
L 2375 4384 
L 1825 4384 
Q 1516 4384 1395 4259 
Q 1275 4134 1275 3809 
L 1275 3500 
L 2222 3500 
L 2222 3053 
L 1275 3053 
L 1275 0 
L 697 0 
L 697 3053 
L 147 3053 
L 147 3500 
L 697 3500 
L 697 3744 
Q 697 4328 969 4595 
Q 1241 4863 1831 4863 
L 2375 4863 
z
" id="DejaVuSans-66" transform="scale(0.015625)"/>
      <path d="M 3597 1894 
L 3597 1613 
L 953 1613 
Q 991 1019 1311 708 
Q 1631 397 2203 397 
Q 2534 397 2845 478 
Q 3156 559 3463 722 
L 3463 178 
Q 3153 47 2828 -22 
Q 2503 -91 2169 -91 
Q 1331 -91 842 396 
Q 353 884 353 1716 
Q 353 2575 817 3079 
Q 1281 3584 2069 3584 
Q 2775 3584 3186 3129 
Q 3597 2675 3597 1894 
z
M 3022 2063 
Q 3016 2534 2758 2815 
Q 2500 3097 2075 3097 
Q 1594 3097 1305 2825 
Q 1016 2553 972 2059 
L 3022 2063 
z
" id="DejaVuSans-65" transform="scale(0.015625)"/>
      <path d="M 1172 4494 
L 1172 3500 
L 2356 3500 
L 2356 3053 
L 1172 3053 
L 1172 1153 
Q 1172 725 1289 603 
Q 1406 481 1766 481 
L 2356 481 
L 2356 0 
L 1766 0 
Q 1100 0 847 248 
Q 594 497 594 1153 
L 594 3053 
L 172 3053 
L 172 3500 
L 594 3500 
L 594 4494 
L 1172 4494 
z
" id="DejaVuSans-74" transform="scale(0.015625)"/>
     </defs>
     <use xlink:href="#DejaVuSans-54"/>
     <use x="46.333984" xlink:href="#DejaVuSans-72"/>
     <use x="87.447266" xlink:href="#DejaVuSans-61"/>
     <use x="148.726562" xlink:href="#DejaVuSans-6e"/>
     <use x="212.105469" xlink:href="#DejaVuSans-73"/>
     <use x="264.205078" xlink:href="#DejaVuSans-6d"/>
     <use x="361.617188" xlink:href="#DejaVuSans-69"/>
     <use x="389.400391" xlink:href="#DejaVuSans-73"/>
     <use x="441.5" xlink:href="#DejaVuSans-73"/>
     <use x="493.599609" xlink:href="#DejaVuSans-69"/>
     <use x="521.382812" xlink:href="#DejaVuSans-6f"/>
     <use x="582.564453" xlink:href="#DejaVuSans-6e"/>
     <use x="645.943359" xlink:href="#DejaVuSans-20"/>
     <use x="677.730469" xlink:href="#DejaVuSans-6f"/>
     <use x="738.912109" xlink:href="#DejaVuSans-66"/>
     <use x="774.117188" xlink:href="#DejaVuSans-20"/>
     <use x="805.904297" xlink:href="#DejaVuSans-64"/>
     <use x="869.380859" xlink:href="#DejaVuSans-69"/>
     <use x="897.164062" xlink:href="#DejaVuSans-66"/>
     <use x="932.369141" xlink:href="#DejaVuSans-66"/>
     <use x="967.574219" xlink:href="#DejaVuSans-65"/>
     <use x="1029.097656" xlink:href="#DejaVuSans-72"/>
     <use x="1067.960938" xlink:href="#DejaVuSans-65"/>
     <use x="1129.484375" xlink:href="#DejaVuSans-6e"/>
     <use x="1192.863281" xlink:href="#DejaVuSans-74"/>
     <use x="1232.072266" xlink:href="#DejaVuSans-20"/>
     <use x="1263.859375" xlink:href="#DejaVuSans-72"/>
     <use x="1304.972656" xlink:href="#DejaVuSans-61"/>
     <use x="1366.251953" xlink:href="#DejaVuSans-64"/>
     <use x="1429.728516" xlink:href="#DejaVuSans-69"/>
     <use x="1457.511719" xlink:href="#DejaVuSans-75"/>
     <use x="1520.890625" xlink:href="#DejaVuSans-73"/>
    </g>
   </g>
   <g id="legend_1">
    <g id="patch_7">
     <path d="M 64.6 302.584 
L 109.325 302.584 
Q 111.325 302.584 111.325 300.584 
L 111.325 154.80275 
Q 111.325 152.80275 109.325 152.80275 
L 64.6 152.80275 
Q 62.6 152.80275 62.6 154.80275 
L 62.6 300.584 
Q 62.6 302.584 64.6 302.584 
z
" style="fill:#ffffff;opacity:0.8;stroke:#cccccc;stroke-linejoin:miter;"/>
    </g>
    <g id="line2d_25">
     <path d="M 66.6 160.901187 
L 86.6 160.901187 
" style="fill:none;stroke:#1f77b4;stroke-linecap:square;stroke-width:2;"/>
    </g>
    <g id="line2d_26"/>
    <g id="text_17">
     <!-- 0 -->
     <g transform="translate(94.6 164.401187)scale(0.1 -0.1)">
      <use xlink:href="#DejaVuSans-30"/>
     </g>
    </g>
    <g id="line2d_27">
     <path d="M 66.6 175.579313 
L 86.6 175.579313 
" style="fill:none;stroke:#ff7f0e;stroke-linecap:square;stroke-width:2;"/>
    </g>
    <g id="line2d_28"/>
    <g id="text_18">
     <!-- 10 -->
     <g transform="translate(94.6 179.079313)scale(0.1 -0.1)">
      <use xlink:href="#DejaVuSans-31"/>
      <use x="63.623047" xlink:href="#DejaVuSans-30"/>
     </g>
    </g>
    <g id="line2d_29">
     <path d="M 66.6 190.257438 
L 86.6 190.257438 
" style="fill:none;stroke:#2ca02c;stroke-linecap:square;stroke-width:2;"/>
    </g>
    <g id="line2d_30"/>
    <g id="text_19">
     <!-- 20 -->
     <g transform="translate(94.6 193.757438)scale(0.1 -0.1)">
      <use xlink:href="#DejaVuSans-32"/>
      <use x="63.623047" xlink:href="#DejaVuSans-30"/>
     </g>
    </g>
    <g id="line2d_31">
     <path d="M 66.6 204.935563 
L 86.6 204.935563 
" style="fill:none;stroke:#d62728;stroke-linecap:square;stroke-width:2;"/>
    </g>
    <g id="line2d_32"/>
    <g id="text_20">
     <!-- 30 -->
     <g transform="translate(94.6 208.435563)scale(0.1 -0.1)">
      <defs>
       <path d="M 2597 2516 
Q 3050 2419 3304 2112 
Q 3559 1806 3559 1356 
Q 3559 666 3084 287 
Q 2609 -91 1734 -91 
Q 1441 -91 1130 -33 
Q 819 25 488 141 
L 488 750 
Q 750 597 1062 519 
Q 1375 441 1716 441 
Q 2309 441 2620 675 
Q 2931 909 2931 1356 
Q 2931 1769 2642 2001 
Q 2353 2234 1838 2234 
L 1294 2234 
L 1294 2753 
L 1863 2753 
Q 2328 2753 2575 2939 
Q 2822 3125 2822 3475 
Q 2822 3834 2567 4026 
Q 2313 4219 1838 4219 
Q 1578 4219 1281 4162 
Q 984 4106 628 3988 
L 628 4550 
Q 988 4650 1302 4700 
Q 1616 4750 1894 4750 
Q 2613 4750 3031 4423 
Q 3450 4097 3450 3541 
Q 3450 3153 3228 2886 
Q 3006 2619 2597 2516 
z
" id="DejaVuSans-33" transform="scale(0.015625)"/>
      </defs>
      <use xlink:href="#DejaVuSans-33"/>
      <use x="63.623047" xlink:href="#DejaVuSans-30"/>
     </g>
    </g>
    <g id="line2d_33">
     <path d="M 66.6 219.613688 
L 86.6 219.613688 
" style="fill:none;stroke:#9467bd;stroke-linecap:square;stroke-width:2;"/>
    </g>
    <g id="line2d_34"/>
    <g id="text_21">
     <!-- 40 -->
     <g transform="translate(94.6 223.113688)scale(0.1 -0.1)">
      <defs>
       <path d="M 2419 4116 
L 825 1625 
L 2419 1625 
L 2419 4116 
z
M 2253 4666 
L 3047 4666 
L 3047 1625 
L 3713 1625 
L 3713 1100 
L 3047 1100 
L 3047 0 
L 2419 0 
L 2419 1100 
L 313 1100 
L 313 1709 
L 2253 4666 
z
" id="DejaVuSans-34" transform="scale(0.015625)"/>
      </defs>
      <use xlink:href="#DejaVuSans-34"/>
      <use x="63.623047" xlink:href="#DejaVuSans-30"/>
     </g>
    </g>
    <g id="line2d_35">
     <path d="M 66.6 234.291812 
L 86.6 234.291812 
" style="fill:none;stroke:#8c564b;stroke-linecap:square;stroke-width:2;"/>
    </g>
    <g id="line2d_36"/>
    <g id="text_22">
     <!-- 50 -->
     <g transform="translate(94.6 237.791812)scale(0.1 -0.1)">
      <use xlink:href="#DejaVuSans-35"/>
      <use x="63.623047" xlink:href="#DejaVuSans-30"/>
     </g>
    </g>
    <g id="line2d_37">
     <path d="M 66.6 248.969938 
L 86.6 248.969938 
" style="fill:none;stroke:#e377c2;stroke-linecap:square;stroke-width:2;"/>
    </g>
    <g id="line2d_38"/>
    <g id="text_23">
     <!-- 60 -->
     <g transform="translate(94.6 252.469938)scale(0.1 -0.1)">
      <defs>
       <path d="M 2113 2584 
Q 1688 2584 1439 2293 
Q 1191 2003 1191 1497 
Q 1191 994 1439 701 
Q 1688 409 2113 409 
Q 2538 409 2786 701 
Q 3034 994 3034 1497 
Q 3034 2003 2786 2293 
Q 2538 2584 2113 2584 
z
M 3366 4563 
L 3366 3988 
Q 3128 4100 2886 4159 
Q 2644 4219 2406 4219 
Q 1781 4219 1451 3797 
Q 1122 3375 1075 2522 
Q 1259 2794 1537 2939 
Q 1816 3084 2150 3084 
Q 2853 3084 3261 2657 
Q 3669 2231 3669 1497 
Q 3669 778 3244 343 
Q 2819 -91 2113 -91 
Q 1303 -91 875 529 
Q 447 1150 447 2328 
Q 447 3434 972 4092 
Q 1497 4750 2381 4750 
Q 2619 4750 2861 4703 
Q 3103 4656 3366 4563 
z
" id="DejaVuSans-36" transform="scale(0.015625)"/>
      </defs>
      <use xlink:href="#DejaVuSans-36"/>
      <use x="63.623047" xlink:href="#DejaVuSans-30"/>
     </g>
    </g>
    <g id="line2d_39">
     <path d="M 66.6 263.648062 
L 86.6 263.648062 
" style="fill:none;stroke:#7f7f7f;stroke-linecap:square;stroke-width:2;"/>
    </g>
    <g id="line2d_40"/>
    <g id="text_24">
     <!-- 70 -->
     <g transform="translate(94.6 267.148062)scale(0.1 -0.1)">
      <use xlink:href="#DejaVuSans-37"/>
      <use x="63.623047" xlink:href="#DejaVuSans-30"/>
     </g>
    </g>
    <g id="line2d_41">
     <path d="M 66.6 278.326188 
L 86.6 278.326188 
" style="fill:none;stroke:#bcbd22;stroke-linecap:square;stroke-width:2;"/>
    </g>
    <g id="line2d_42"/>
    <g id="text_25">
     <!-- 80 -->
     <g transform="translate(94.6 281.826188)scale(0.1 -0.1)">
      <defs>
       <path d="M 2034 2216 
Q 1584 2216 1326 1975 
Q 1069 1734 1069 1313 
Q 1069 891 1326 650 
Q 1584 409 2034 409 
Q 2484 409 2743 651 
Q 3003 894 3003 1313 
Q 3003 1734 2745 1975 
Q 2488 2216 2034 2216 
z
M 1403 2484 
Q 997 2584 770 2862 
Q 544 3141 544 3541 
Q 544 4100 942 4425 
Q 1341 4750 2034 4750 
Q 2731 4750 3128 4425 
Q 3525 4100 3525 3541 
Q 3525 3141 3298 2862 
Q 3072 2584 2669 2484 
Q 3125 2378 3379 2068 
Q 3634 1759 3634 1313 
Q 3634 634 3220 271 
Q 2806 -91 2034 -91 
Q 1263 -91 848 271 
Q 434 634 434 1313 
Q 434 1759 690 2068 
Q 947 2378 1403 2484 
z
M 1172 3481 
Q 1172 3119 1398 2916 
Q 1625 2713 2034 2713 
Q 2441 2713 2670 2916 
Q 2900 3119 2900 3481 
Q 2900 3844 2670 4047 
Q 2441 4250 2034 4250 
Q 1625 4250 1398 4047 
Q 1172 3844 1172 3481 
z
" id="DejaVuSans-38" transform="scale(0.015625)"/>
      </defs>
      <use xlink:href="#DejaVuSans-38"/>
      <use x="63.623047" xlink:href="#DejaVuSans-30"/>
     </g>
    </g>
    <g id="line2d_43">
     <path d="M 66.6 293.004312 
L 86.6 293.004312 
" style="fill:none;stroke:#17becf;stroke-linecap:square;stroke-width:2;"/>
    </g>
    <g id="line2d_44"/>
    <g id="text_26">
     <!-- 90 -->
     <g transform="translate(94.6 296.504312)scale(0.1 -0.1)">
      <defs>
       <path d="M 703 97 
L 703 672 
Q 941 559 1184 500 
Q 1428 441 1663 441 
Q 2288 441 2617 861 
Q 2947 1281 2994 2138 
Q 2813 1869 2534 1725 
Q 2256 1581 1919 1581 
Q 1219 1581 811 2004 
Q 403 2428 403 3163 
Q 403 3881 828 4315 
Q 1253 4750 1959 4750 
Q 2769 4750 3195 4129 
Q 3622 3509 3622 2328 
Q 3622 1225 3098 567 
Q 2575 -91 1691 -91 
Q 1453 -91 1209 -44 
Q 966 3 703 97 
z
M 1959 2075 
Q 2384 2075 2632 2365 
Q 2881 2656 2881 3163 
Q 2881 3666 2632 3958 
Q 2384 4250 1959 4250 
Q 1534 4250 1286 3958 
Q 1038 3666 1038 3163 
Q 1038 2656 1286 2365 
Q 1534 2075 1959 2075 
z
" id="DejaVuSans-39" transform="scale(0.015625)"/>
      </defs>
      <use xlink:href="#DejaVuSans-39"/>
      <use x="63.623047" xlink:href="#DejaVuSans-30"/>
     </g>
    </g>
   </g>
  </g>
 </g>
 <defs>
  <clipPath id="pc718c17030">
   <rect height="266.112" width="357.12" x="57.6" y="41.472"/>
  </clipPath>
 </defs>
</svg>
