<?xml version="1.0" encoding="utf-8" standalone="no"?>
<!DOCTYPE svg PUBLIC "-//W3C//DTD SVG 1.1//EN"
  "http://www.w3.org/Graphics/SVG/1.1/DTD/svg11.dtd">
<svg height="345.6pt" version="1.1" viewBox="0 0 460.8 345.6" width="460.8pt" xmlns="http://www.w3.org/2000/svg" xmlns:xlink="http://www.w3.org/1999/xlink">
 <metadata>
  <rdf:RDF xmlns:cc="http://creativecommons.org/ns#" xmlns:dc="http://purl.org/dc/elements/1.1/" xmlns:rdf="http://www.w3.org/1999/02/22-rdf-syntax-ns#">
   <cc:Work>
    <dc:type rdf:resource="http://purl.org/dc/dcmitype/StillImage"/>
    <dc:date>2022-01-07T01:30:15.340007</dc:date>
    <dc:format>image/svg+xml</dc:format>
    <dc:creator>
     <cc:Agent>
      <dc:title>Matplotlib v3.4.2, https://matplotlib.org/</dc:title>
     </cc:Agent>
    </dc:creator>
   </cc:Work>
  </rdf:RDF>
 </metadata>
 <defs>
  <style type="text/css">*{stroke-linecap:butt;stroke-linejoin:round;}</style>
 </defs>
 <g id="figure_1">
  <g id="patch_1">
   <path d="M 0 345.6 
L 460.8 345.6 
L 460.8 0 
L 0 0 
z
" style="fill:#ffffff;"/>
  </g>
  <g id="axes_1">
   <g id="patch_2">
    <path d="M 57.6 307.584 
L 414.72 307.584 
L 414.72 41.472 
L 57.6 41.472 
z
" style="fill:#ffffff;"/>
   </g>
   <g id="matplotlib.axis_1">
    <g id="xtick_1">
     <g id="line2d_1">
      <defs>
       <path d="M 0 0 
L 0 3.5 
" id="m523bd67100" style="stroke:#000000;stroke-width:0.8;"/>
      </defs>
      <g>
       <use style="stroke:#000000;stroke-width:0.8;" x="73.832727" xlink:href="#m523bd67100" y="307.584"/>
      </g>
     </g>
     <g id="text_1">
      <!-- 50 -->
      <g transform="translate(67.470227 322.182437)scale(0.1 -0.1)">
       <defs>
        <path d="M 691 4666 
L 3169 4666 
L 3169 4134 
L 1269 4134 
L 1269 2991 
Q 1406 3038 1543 3061 
Q 1681 3084 1819 3084 
Q 2600 3084 3056 2656 
Q 3513 2228 3513 1497 
Q 3513 744 3044 326 
Q 2575 -91 1722 -91 
Q 1428 -91 1123 -41 
Q 819 9 494 109 
L 494 744 
Q 775 591 1075 516 
Q 1375 441 1709 441 
Q 2250 441 2565 725 
Q 2881 1009 2881 1497 
Q 2881 1984 2565 2268 
Q 2250 2553 1709 2553 
Q 1456 2553 1204 2497 
Q 953 2441 691 2322 
L 691 4666 
z
" id="DejaVuSans-35" transform="scale(0.015625)"/>
        <path d="M 2034 4250 
Q 1547 4250 1301 3770 
Q 1056 3291 1056 2328 
Q 1056 1369 1301 889 
Q 1547 409 2034 409 
Q 2525 409 2770 889 
Q 3016 1369 3016 2328 
Q 3016 3291 2770 3770 
Q 2525 4250 2034 4250 
z
M 2034 4750 
Q 2819 4750 3233 4129 
Q 3647 3509 3647 2328 
Q 3647 1150 3233 529 
Q 2819 -91 2034 -91 
Q 1250 -91 836 529 
Q 422 1150 422 2328 
Q 422 3509 836 4129 
Q 1250 4750 2034 4750 
z
" id="DejaVuSans-30" transform="scale(0.015625)"/>
       </defs>
       <use xlink:href="#DejaVuSans-35"/>
       <use x="63.623047" xlink:href="#DejaVuSans-30"/>
      </g>
     </g>
    </g>
    <g id="xtick_2">
     <g id="line2d_2">
      <g>
       <use style="stroke:#000000;stroke-width:0.8;" x="114.414545" xlink:href="#m523bd67100" y="307.584"/>
      </g>
     </g>
     <g id="text_2">
      <!-- 75 -->
      <g transform="translate(108.052045 322.182437)scale(0.1 -0.1)">
       <defs>
        <path d="M 525 4666 
L 3525 4666 
L 3525 4397 
L 1831 0 
L 1172 0 
L 2766 4134 
L 525 4134 
L 525 4666 
z
" id="DejaVuSans-37" transform="scale(0.015625)"/>
       </defs>
       <use xlink:href="#DejaVuSans-37"/>
       <use x="63.623047" xlink:href="#DejaVuSans-35"/>
      </g>
     </g>
    </g>
    <g id="xtick_3">
     <g id="line2d_3">
      <g>
       <use style="stroke:#000000;stroke-width:0.8;" x="154.996364" xlink:href="#m523bd67100" y="307.584"/>
      </g>
     </g>
     <g id="text_3">
      <!-- 100 -->
      <g transform="translate(145.452614 322.182437)scale(0.1 -0.1)">
       <defs>
        <path d="M 794 531 
L 1825 531 
L 1825 4091 
L 703 3866 
L 703 4441 
L 1819 4666 
L 2450 4666 
L 2450 531 
L 3481 531 
L 3481 0 
L 794 0 
L 794 531 
z
" id="DejaVuSans-31" transform="scale(0.015625)"/>
       </defs>
       <use xlink:href="#DejaVuSans-31"/>
       <use x="63.623047" xlink:href="#DejaVuSans-30"/>
       <use x="127.246094" xlink:href="#DejaVuSans-30"/>
      </g>
     </g>
    </g>
    <g id="xtick_4">
     <g id="line2d_4">
      <g>
       <use style="stroke:#000000;stroke-width:0.8;" x="195.578182" xlink:href="#m523bd67100" y="307.584"/>
      </g>
     </g>
     <g id="text_4">
      <!-- 125 -->
      <g transform="translate(186.034432 322.182437)scale(0.1 -0.1)">
       <defs>
        <path d="M 1228 531 
L 3431 531 
L 3431 0 
L 469 0 
L 469 531 
Q 828 903 1448 1529 
Q 2069 2156 2228 2338 
Q 2531 2678 2651 2914 
Q 2772 3150 2772 3378 
Q 2772 3750 2511 3984 
Q 2250 4219 1831 4219 
Q 1534 4219 1204 4116 
Q 875 4013 500 3803 
L 500 4441 
Q 881 4594 1212 4672 
Q 1544 4750 1819 4750 
Q 2544 4750 2975 4387 
Q 3406 4025 3406 3419 
Q 3406 3131 3298 2873 
Q 3191 2616 2906 2266 
Q 2828 2175 2409 1742 
Q 1991 1309 1228 531 
z
" id="DejaVuSans-32" transform="scale(0.015625)"/>
       </defs>
       <use xlink:href="#DejaVuSans-31"/>
       <use x="63.623047" xlink:href="#DejaVuSans-32"/>
       <use x="127.246094" xlink:href="#DejaVuSans-35"/>
      </g>
     </g>
    </g>
    <g id="xtick_5">
     <g id="line2d_5">
      <g>
       <use style="stroke:#000000;stroke-width:0.8;" x="236.16" xlink:href="#m523bd67100" y="307.584"/>
      </g>
     </g>
     <g id="text_5">
      <!-- 150 -->
      <g transform="translate(226.61625 322.182437)scale(0.1 -0.1)">
       <use xlink:href="#DejaVuSans-31"/>
       <use x="63.623047" xlink:href="#DejaVuSans-35"/>
       <use x="127.246094" xlink:href="#DejaVuSans-30"/>
      </g>
     </g>
    </g>
    <g id="xtick_6">
     <g id="line2d_6">
      <g>
       <use style="stroke:#000000;stroke-width:0.8;" x="276.741818" xlink:href="#m523bd67100" y="307.584"/>
      </g>
     </g>
     <g id="text_6">
      <!-- 175 -->
      <g transform="translate(267.198068 322.182437)scale(0.1 -0.1)">
       <use xlink:href="#DejaVuSans-31"/>
       <use x="63.623047" xlink:href="#DejaVuSans-37"/>
       <use x="127.246094" xlink:href="#DejaVuSans-35"/>
      </g>
     </g>
    </g>
    <g id="xtick_7">
     <g id="line2d_7">
      <g>
       <use style="stroke:#000000;stroke-width:0.8;" x="317.323636" xlink:href="#m523bd67100" y="307.584"/>
      </g>
     </g>
     <g id="text_7">
      <!-- 200 -->
      <g transform="translate(307.779886 322.182437)scale(0.1 -0.1)">
       <use xlink:href="#DejaVuSans-32"/>
       <use x="63.623047" xlink:href="#DejaVuSans-30"/>
       <use x="127.246094" xlink:href="#DejaVuSans-30"/>
      </g>
     </g>
    </g>
    <g id="xtick_8">
     <g id="line2d_8">
      <g>
       <use style="stroke:#000000;stroke-width:0.8;" x="357.905455" xlink:href="#m523bd67100" y="307.584"/>
      </g>
     </g>
     <g id="text_8">
      <!-- 225 -->
      <g transform="translate(348.361705 322.182437)scale(0.1 -0.1)">
       <use xlink:href="#DejaVuSans-32"/>
       <use x="63.623047" xlink:href="#DejaVuSans-32"/>
       <use x="127.246094" xlink:href="#DejaVuSans-35"/>
      </g>
     </g>
    </g>
    <g id="xtick_9">
     <g id="line2d_9">
      <g>
       <use style="stroke:#000000;stroke-width:0.8;" x="398.487273" xlink:href="#m523bd67100" y="307.584"/>
      </g>
     </g>
     <g id="text_9">
      <!-- 250 -->
      <g transform="translate(388.943523 322.182437)scale(0.1 -0.1)">
       <use xlink:href="#DejaVuSans-32"/>
       <use x="63.623047" xlink:href="#DejaVuSans-35"/>
       <use x="127.246094" xlink:href="#DejaVuSans-30"/>
      </g>
     </g>
    </g>
    <g id="text_10">
     <!-- radius(nm) -->
     <g transform="translate(208.763125 335.860562)scale(0.1 -0.1)">
      <defs>
       <path d="M 2631 2963 
Q 2534 3019 2420 3045 
Q 2306 3072 2169 3072 
Q 1681 3072 1420 2755 
Q 1159 2438 1159 1844 
L 1159 0 
L 581 0 
L 581 3500 
L 1159 3500 
L 1159 2956 
Q 1341 3275 1631 3429 
Q 1922 3584 2338 3584 
Q 2397 3584 2469 3576 
Q 2541 3569 2628 3553 
L 2631 2963 
z
" id="DejaVuSans-72" transform="scale(0.015625)"/>
       <path d="M 2194 1759 
Q 1497 1759 1228 1600 
Q 959 1441 959 1056 
Q 959 750 1161 570 
Q 1363 391 1709 391 
Q 2188 391 2477 730 
Q 2766 1069 2766 1631 
L 2766 1759 
L 2194 1759 
z
M 3341 1997 
L 3341 0 
L 2766 0 
L 2766 531 
Q 2569 213 2275 61 
Q 1981 -91 1556 -91 
Q 1019 -91 701 211 
Q 384 513 384 1019 
Q 384 1609 779 1909 
Q 1175 2209 1959 2209 
L 2766 2209 
L 2766 2266 
Q 2766 2663 2505 2880 
Q 2244 3097 1772 3097 
Q 1472 3097 1187 3025 
Q 903 2953 641 2809 
L 641 3341 
Q 956 3463 1253 3523 
Q 1550 3584 1831 3584 
Q 2591 3584 2966 3190 
Q 3341 2797 3341 1997 
z
" id="DejaVuSans-61" transform="scale(0.015625)"/>
       <path d="M 2906 2969 
L 2906 4863 
L 3481 4863 
L 3481 0 
L 2906 0 
L 2906 525 
Q 2725 213 2448 61 
Q 2172 -91 1784 -91 
Q 1150 -91 751 415 
Q 353 922 353 1747 
Q 353 2572 751 3078 
Q 1150 3584 1784 3584 
Q 2172 3584 2448 3432 
Q 2725 3281 2906 2969 
z
M 947 1747 
Q 947 1113 1208 752 
Q 1469 391 1925 391 
Q 2381 391 2643 752 
Q 2906 1113 2906 1747 
Q 2906 2381 2643 2742 
Q 2381 3103 1925 3103 
Q 1469 3103 1208 2742 
Q 947 2381 947 1747 
z
" id="DejaVuSans-64" transform="scale(0.015625)"/>
       <path d="M 603 3500 
L 1178 3500 
L 1178 0 
L 603 0 
L 603 3500 
z
M 603 4863 
L 1178 4863 
L 1178 4134 
L 603 4134 
L 603 4863 
z
" id="DejaVuSans-69" transform="scale(0.015625)"/>
       <path d="M 544 1381 
L 544 3500 
L 1119 3500 
L 1119 1403 
Q 1119 906 1312 657 
Q 1506 409 1894 409 
Q 2359 409 2629 706 
Q 2900 1003 2900 1516 
L 2900 3500 
L 3475 3500 
L 3475 0 
L 2900 0 
L 2900 538 
Q 2691 219 2414 64 
Q 2138 -91 1772 -91 
Q 1169 -91 856 284 
Q 544 659 544 1381 
z
M 1991 3584 
L 1991 3584 
z
" id="DejaVuSans-75" transform="scale(0.015625)"/>
       <path d="M 2834 3397 
L 2834 2853 
Q 2591 2978 2328 3040 
Q 2066 3103 1784 3103 
Q 1356 3103 1142 2972 
Q 928 2841 928 2578 
Q 928 2378 1081 2264 
Q 1234 2150 1697 2047 
L 1894 2003 
Q 2506 1872 2764 1633 
Q 3022 1394 3022 966 
Q 3022 478 2636 193 
Q 2250 -91 1575 -91 
Q 1294 -91 989 -36 
Q 684 19 347 128 
L 347 722 
Q 666 556 975 473 
Q 1284 391 1588 391 
Q 1994 391 2212 530 
Q 2431 669 2431 922 
Q 2431 1156 2273 1281 
Q 2116 1406 1581 1522 
L 1381 1569 
Q 847 1681 609 1914 
Q 372 2147 372 2553 
Q 372 3047 722 3315 
Q 1072 3584 1716 3584 
Q 2034 3584 2315 3537 
Q 2597 3491 2834 3397 
z
" id="DejaVuSans-73" transform="scale(0.015625)"/>
       <path d="M 1984 4856 
Q 1566 4138 1362 3434 
Q 1159 2731 1159 2009 
Q 1159 1288 1364 580 
Q 1569 -128 1984 -844 
L 1484 -844 
Q 1016 -109 783 600 
Q 550 1309 550 2009 
Q 550 2706 781 3412 
Q 1013 4119 1484 4856 
L 1984 4856 
z
" id="DejaVuSans-28" transform="scale(0.015625)"/>
       <path d="M 3513 2113 
L 3513 0 
L 2938 0 
L 2938 2094 
Q 2938 2591 2744 2837 
Q 2550 3084 2163 3084 
Q 1697 3084 1428 2787 
Q 1159 2491 1159 1978 
L 1159 0 
L 581 0 
L 581 3500 
L 1159 3500 
L 1159 2956 
Q 1366 3272 1645 3428 
Q 1925 3584 2291 3584 
Q 2894 3584 3203 3211 
Q 3513 2838 3513 2113 
z
" id="DejaVuSans-6e" transform="scale(0.015625)"/>
       <path d="M 3328 2828 
Q 3544 3216 3844 3400 
Q 4144 3584 4550 3584 
Q 5097 3584 5394 3201 
Q 5691 2819 5691 2113 
L 5691 0 
L 5113 0 
L 5113 2094 
Q 5113 2597 4934 2840 
Q 4756 3084 4391 3084 
Q 3944 3084 3684 2787 
Q 3425 2491 3425 1978 
L 3425 0 
L 2847 0 
L 2847 2094 
Q 2847 2600 2669 2842 
Q 2491 3084 2119 3084 
Q 1678 3084 1418 2786 
Q 1159 2488 1159 1978 
L 1159 0 
L 581 0 
L 581 3500 
L 1159 3500 
L 1159 2956 
Q 1356 3278 1631 3431 
Q 1906 3584 2284 3584 
Q 2666 3584 2933 3390 
Q 3200 3197 3328 2828 
z
" id="DejaVuSans-6d" transform="scale(0.015625)"/>
       <path d="M 513 4856 
L 1013 4856 
Q 1481 4119 1714 3412 
Q 1947 2706 1947 2009 
Q 1947 1309 1714 600 
Q 1481 -109 1013 -844 
L 513 -844 
Q 928 -128 1133 580 
Q 1338 1288 1338 2009 
Q 1338 2731 1133 3434 
Q 928 4138 513 4856 
z
" id="DejaVuSans-29" transform="scale(0.015625)"/>
      </defs>
      <use xlink:href="#DejaVuSans-72"/>
      <use x="41.113281" xlink:href="#DejaVuSans-61"/>
      <use x="102.392578" xlink:href="#DejaVuSans-64"/>
      <use x="165.869141" xlink:href="#DejaVuSans-69"/>
      <use x="193.652344" xlink:href="#DejaVuSans-75"/>
      <use x="257.03125" xlink:href="#DejaVuSans-73"/>
      <use x="309.130859" xlink:href="#DejaVuSans-28"/>
      <use x="348.144531" xlink:href="#DejaVuSans-6e"/>
      <use x="411.523438" xlink:href="#DejaVuSans-6d"/>
      <use x="508.935547" xlink:href="#DejaVuSans-29"/>
     </g>
    </g>
   </g>
   <g id="matplotlib.axis_2">
    <g id="ytick_1">
     <g id="line2d_10">
      <defs>
       <path d="M 0 0 
L -3.5 0 
" id="m265d9ff99d" style="stroke:#000000;stroke-width:0.8;"/>
      </defs>
      <g>
       <use style="stroke:#000000;stroke-width:0.8;" x="57.6" xlink:href="#m265d9ff99d" y="295.488"/>
      </g>
     </g>
     <g id="text_11">
      <!-- 0.0 -->
      <g transform="translate(34.696875 299.287219)scale(0.1 -0.1)">
       <defs>
        <path d="M 684 794 
L 1344 794 
L 1344 0 
L 684 0 
L 684 794 
z
" id="DejaVuSans-2e" transform="scale(0.015625)"/>
       </defs>
       <use xlink:href="#DejaVuSans-30"/>
       <use x="63.623047" xlink:href="#DejaVuSans-2e"/>
       <use x="95.410156" xlink:href="#DejaVuSans-30"/>
      </g>
     </g>
    </g>
    <g id="ytick_2">
     <g id="line2d_11">
      <g>
       <use style="stroke:#000000;stroke-width:0.8;" x="57.6" xlink:href="#m265d9ff99d" y="260.792384"/>
      </g>
     </g>
     <g id="text_12">
      <!-- 0.5 -->
      <g transform="translate(34.696875 264.591603)scale(0.1 -0.1)">
       <use xlink:href="#DejaVuSans-30"/>
       <use x="63.623047" xlink:href="#DejaVuSans-2e"/>
       <use x="95.410156" xlink:href="#DejaVuSans-35"/>
      </g>
     </g>
    </g>
    <g id="ytick_3">
     <g id="line2d_12">
      <g>
       <use style="stroke:#000000;stroke-width:0.8;" x="57.6" xlink:href="#m265d9ff99d" y="226.096769"/>
      </g>
     </g>
     <g id="text_13">
      <!-- 1.0 -->
      <g transform="translate(34.696875 229.895988)scale(0.1 -0.1)">
       <use xlink:href="#DejaVuSans-31"/>
       <use x="63.623047" xlink:href="#DejaVuSans-2e"/>
       <use x="95.410156" xlink:href="#DejaVuSans-30"/>
      </g>
     </g>
    </g>
    <g id="ytick_4">
     <g id="line2d_13">
      <g>
       <use style="stroke:#000000;stroke-width:0.8;" x="57.6" xlink:href="#m265d9ff99d" y="191.401153"/>
      </g>
     </g>
     <g id="text_14">
      <!-- 1.5 -->
      <g transform="translate(34.696875 195.200372)scale(0.1 -0.1)">
       <use xlink:href="#DejaVuSans-31"/>
       <use x="63.623047" xlink:href="#DejaVuSans-2e"/>
       <use x="95.410156" xlink:href="#DejaVuSans-35"/>
      </g>
     </g>
    </g>
    <g id="ytick_5">
     <g id="line2d_14">
      <g>
       <use style="stroke:#000000;stroke-width:0.8;" x="57.6" xlink:href="#m265d9ff99d" y="156.705538"/>
      </g>
     </g>
     <g id="text_15">
      <!-- 2.0 -->
      <g transform="translate(34.696875 160.504757)scale(0.1 -0.1)">
       <use xlink:href="#DejaVuSans-32"/>
       <use x="63.623047" xlink:href="#DejaVuSans-2e"/>
       <use x="95.410156" xlink:href="#DejaVuSans-30"/>
      </g>
     </g>
    </g>
    <g id="ytick_6">
     <g id="line2d_15">
      <g>
       <use style="stroke:#000000;stroke-width:0.8;" x="57.6" xlink:href="#m265d9ff99d" y="122.009922"/>
      </g>
     </g>
     <g id="text_16">
      <!-- 2.5 -->
      <g transform="translate(34.696875 125.809141)scale(0.1 -0.1)">
       <use xlink:href="#DejaVuSans-32"/>
       <use x="63.623047" xlink:href="#DejaVuSans-2e"/>
       <use x="95.410156" xlink:href="#DejaVuSans-35"/>
      </g>
     </g>
    </g>
    <g id="ytick_7">
     <g id="line2d_16">
      <g>
       <use style="stroke:#000000;stroke-width:0.8;" x="57.6" xlink:href="#m265d9ff99d" y="87.314307"/>
      </g>
     </g>
     <g id="text_17">
      <!-- 3.0 -->
      <g transform="translate(34.696875 91.113526)scale(0.1 -0.1)">
       <defs>
        <path d="M 2597 2516 
Q 3050 2419 3304 2112 
Q 3559 1806 3559 1356 
Q 3559 666 3084 287 
Q 2609 -91 1734 -91 
Q 1441 -91 1130 -33 
Q 819 25 488 141 
L 488 750 
Q 750 597 1062 519 
Q 1375 441 1716 441 
Q 2309 441 2620 675 
Q 2931 909 2931 1356 
Q 2931 1769 2642 2001 
Q 2353 2234 1838 2234 
L 1294 2234 
L 1294 2753 
L 1863 2753 
Q 2328 2753 2575 2939 
Q 2822 3125 2822 3475 
Q 2822 3834 2567 4026 
Q 2313 4219 1838 4219 
Q 1578 4219 1281 4162 
Q 984 4106 628 3988 
L 628 4550 
Q 988 4650 1302 4700 
Q 1616 4750 1894 4750 
Q 2613 4750 3031 4423 
Q 3450 4097 3450 3541 
Q 3450 3153 3228 2886 
Q 3006 2619 2597 2516 
z
" id="DejaVuSans-33" transform="scale(0.015625)"/>
       </defs>
       <use xlink:href="#DejaVuSans-33"/>
       <use x="63.623047" xlink:href="#DejaVuSans-2e"/>
       <use x="95.410156" xlink:href="#DejaVuSans-30"/>
      </g>
     </g>
    </g>
    <g id="ytick_8">
     <g id="line2d_17">
      <g>
       <use style="stroke:#000000;stroke-width:0.8;" x="57.6" xlink:href="#m265d9ff99d" y="52.618691"/>
      </g>
     </g>
     <g id="text_18">
      <!-- 3.5 -->
      <g transform="translate(34.696875 56.41791)scale(0.1 -0.1)">
       <use xlink:href="#DejaVuSans-33"/>
       <use x="63.623047" xlink:href="#DejaVuSans-2e"/>
       <use x="95.410156" xlink:href="#DejaVuSans-35"/>
      </g>
     </g>
    </g>
   </g>
   <g id="line2d_18">
    <path clip-path="url(#p406db359a5)" d="M 73.832727 295.488 
L 77.079273 295.335627 
L 80.325818 295.182303 
L 83.572364 295.02841 
L 86.818909 294.873803 
L 90.065455 294.717869 
L 93.312 294.559601 
L 96.558545 294.397682 
L 99.805091 294.230548 
L 103.051636 294.056442 
L 106.298182 293.873472 
L 109.544727 293.67966 
L 112.791273 293.473001 
L 116.037818 293.251542 
L 119.284364 293.013471 
L 122.530909 292.757221 
L 125.777455 292.481579 
L 129.024 292.185781 
L 132.270545 291.869572 
L 135.517091 291.533208 
L 138.763636 291.177398 
L 142.010182 290.803168 
L 145.256727 290.411674 
L 148.503273 290.00398 
L 151.749818 289.580845 
L 154.996364 289.142524 
L 158.242909 288.688627 
L 161.489455 288.21802 
L 164.736 287.728781 
L 167.982545 287.218185 
L 171.229091 286.682704 
L 174.475636 286.118031 
L 177.722182 285.519088 
L 180.968727 284.880055 
L 184.215273 284.194401 
L 187.461818 283.454956 
L 190.708364 282.654038 
L 193.954909 281.783685 
L 197.201455 280.836034 
L 200.448 279.803902 
L 203.694545 278.681603 
L 206.941091 277.465989 
L 210.187636 276.157619 
L 213.434182 274.761816 
L 216.680727 273.28924 
L 219.927273 271.755567 
L 223.173818 270.180048 
L 226.420364 268.583071 
L 229.666909 266.983326 
L 232.913455 265.3953 
L 236.16 263.827698 
L 239.406545 262.282953 
L 242.653091 260.757573 
L 245.899636 259.242963 
L 249.146182 257.726343 
L 252.392727 256.191589 
L 255.639273 254.61999 
L 258.885818 252.99108 
L 262.132364 251.283874 
L 265.378909 249.478972 
L 268.625455 247.561978 
L 271.872 245.528353 
L 275.118545 243.388756 
L 278.365091 241.17238 
L 281.611636 238.924899 
L 284.858182 236.6996 
L 288.104727 234.544758 
L 291.351273 232.493301 
L 294.597818 230.558892 
L 297.844364 228.737905 
L 301.090909 227.014048 
L 304.337455 225.362678 
L 307.584 223.753363 
L 310.830545 222.150399 
L 314.077091 220.511307 
L 317.323636 218.783295 
L 320.570182 216.897541 
L 323.816727 214.762032 
L 327.063273 212.25892 
L 330.309818 209.272662 
L 333.556364 205.836515 
L 336.802909 202.74974 
L 340.049455 237.430995 
L 343.296 224.408072 
L 346.542545 222.1192 
L 349.789091 219.575553 
L 353.035636 217.141575 
L 356.282182 214.80645 
L 359.528727 212.53071 
L 362.775273 210.292257 
L 366.021818 208.091161 
L 369.268364 205.944483 
L 372.514909 203.877274 
L 375.761455 201.913186 
L 379.008 200.067711 
L 382.254545 198.345439 
L 385.501091 196.740565 
L 388.747636 195.238726 
L 391.994182 193.818303 
L 395.240727 192.449566 
L 398.487273 191.089505 
" style="fill:none;stroke:#1f77b4;stroke-linecap:square;stroke-width:2;"/>
   </g>
   <g id="line2d_19">
    <path clip-path="url(#p406db359a5)" d="M 73.832727 295.488 
L 77.079273 295.276722 
L 80.325818 295.065495 
L 83.572364 294.854841 
L 86.818909 294.644558 
L 90.065455 294.433825 
L 93.312 294.22133 
L 96.558545 294.005381 
L 99.805091 293.784015 
L 103.051636 293.555083 
L 106.298182 293.316334 
L 109.544727 293.06549 
L 112.791273 292.800345 
L 116.037818 292.518866 
L 119.284364 292.219317 
L 122.530909 291.900392 
L 125.777455 291.561344 
L 129.024 291.202077 
L 132.270545 290.823193 
L 135.517091 290.425957 
L 138.763636 290.012183 
L 142.010182 289.584031 
L 145.256727 289.143766 
L 148.503273 288.693486 
L 151.749818 288.234886 
L 154.996364 287.769067 
L 158.242909 287.296415 
L 161.489455 286.816549 
L 164.736 286.32833 
L 167.982545 285.829892 
L 171.229091 285.3187 
L 174.475636 284.791598 
L 177.722182 284.244836 
L 180.968727 283.674083 
L 184.215273 283.074397 
L 187.461818 282.440165 
L 190.708364 281.765003 
L 193.954909 281.041612 
L 197.201455 280.261581 
L 200.448 279.415137 
L 203.694545 278.49084 
L 206.941091 277.475267 
L 210.187636 276.352753 
L 213.434182 275.1054 
L 216.680727 273.713716 
L 219.927273 272.158527 
L 223.173818 270.424958 
L 226.420364 268.509043 
L 229.666909 266.426019 
L 232.913455 264.216444 
L 236.16 261.944022 
L 239.406545 259.681976 
L 242.653091 257.493507 
L 245.899636 255.417333 
L 249.146182 253.464522 
L 252.392727 251.623982 
L 255.639273 249.870461 
L 258.885818 248.17093 
L 262.132364 246.48827 
L 265.378909 244.782866 
L 268.625455 243.013268 
L 271.872 241.137304 
L 275.118545 239.115409 
L 278.365091 236.918188 
L 281.611636 234.539151 
L 284.858182 232.008764 
L 288.104727 229.397931 
L 291.351273 226.797222 
L 294.597818 224.270021 
L 297.844364 221.76509 
L 301.090909 218.544605 
L 304.337455 220.665219 
L 307.584 217.859355 
L 310.830545 215.99453 
L 314.077091 214.398151 
L 317.323636 213.658894 
L 320.570182 214.189779 
L 323.816727 211.635749 
L 327.063273 209.880894 
L 330.309818 208.271319 
L 333.556364 206.611225 
L 336.802909 204.794334 
L 340.049455 202.721972 
L 343.296 200.286862 
L 346.542545 197.393516 
L 349.789091 194.048956 
L 353.035636 190.581301 
L 356.282182 161.852132 
L 359.528727 158.138816 
L 362.775273 154.565448 
L 366.021818 150.586356 
L 369.268364 145.071787 
L 372.514909 137.450701 
L 375.761455 127.682778 
L 379.008 125.467719 
L 382.254545 123.316579 
L 385.501091 121.300036 
L 388.747636 119.458386 
L 391.994182 117.791216 
L 395.240727 116.275973 
L 398.487273 114.878317 
" style="fill:none;stroke:#ff7f0e;stroke-linecap:square;stroke-width:2;"/>
   </g>
   <g id="line2d_20">
    <path clip-path="url(#p406db359a5)" d="M 73.832727 295.488 
L 77.079273 295.470706 
L 80.325818 295.452917 
L 83.572364 295.434684 
L 86.818909 295.416003 
L 90.065455 295.396815 
L 93.312 295.377014 
L 96.558545 295.356443 
L 99.805091 295.334907 
L 103.051636 295.312171 
L 106.298182 295.287962 
L 109.544727 295.261973 
L 112.791273 295.233866 
L 116.037818 295.203272 
L 119.284364 295.169802 
L 122.530909 295.13305 
L 125.777455 295.092608 
L 129.024 295.048079 
L 132.270545 294.999082 
L 135.517091 294.945266 
L 138.763636 294.886301 
L 142.010182 294.821871 
L 145.256727 294.751642 
L 148.503273 294.675216 
L 151.749818 294.592069 
L 154.996364 294.501464 
L 158.242909 294.402335 
L 161.489455 294.293123 
L 164.736 294.171549 
L 167.982545 294.034233 
L 171.229091 293.876064 
L 174.475636 293.689033 
L 177.722182 293.459919 
L 180.968727 293.165213 
L 184.215273 292.758493 
L 187.461818 292.132978 
L 190.708364 290.976581 
L 193.954909 287.901331 
L 197.201455 274.540793 
L 200.448 264.139875 
L 203.694545 261.654962 
L 206.941091 260.547785 
L 210.187636 259.824608 
L 213.434182 259.225687 
L 216.680727 258.63859 
L 219.927273 257.98167 
L 223.173818 257.153435 
L 226.420364 255.96346 
L 229.666909 253.929008 
L 232.913455 249.482094 
L 236.16 239.535006 
L 239.406545 231.323082 
L 242.653091 227.765738 
L 245.899636 225.740148 
L 249.146182 224.129545 
L 252.392727 222.432917 
L 255.639273 220.022663 
L 258.885818 214.564132 
L 262.132364 233.568635 
L 265.378909 223.808448 
L 268.625455 216.536357 
L 271.872 208.1957 
L 275.118545 197.389689 
L 278.365091 193.604173 
L 281.611636 190.403132 
L 284.858182 212.252188 
L 288.104727 201.945389 
L 291.351273 195.103551 
L 294.597818 191.604755 
L 297.844364 188.808063 
L 301.090909 185.854929 
L 304.337455 182.575577 
L 307.584 171.254676 
L 310.830545 167.681018 
L 314.077091 164.79111 
L 317.323636 162.461064 
L 320.570182 160.409223 
L 323.816727 158.301594 
L 327.063273 182.046699 
L 330.309818 179.254124 
L 333.556364 174.053125 
L 336.802909 168.590274 
L 340.049455 164.970985 
L 343.296 162.810472 
L 346.542545 161.417361 
L 349.789091 160.422684 
L 353.035636 159.649114 
L 356.282182 159.011578 
L 359.528727 158.484447 
L 362.775273 158.159547 
L 366.021818 159.325075 
L 369.268364 182.957605 
L 372.514909 157.59892 
L 375.761455 155.725386 
L 379.008 154.725769 
L 382.254545 153.769537 
L 385.501091 152.731704 
L 388.747636 151.570697 
L 391.994182 150.252376 
L 395.240727 148.65039 
L 398.487273 146.432402 
" style="fill:none;stroke:#2ca02c;stroke-linecap:square;stroke-width:2;"/>
   </g>
   <g id="line2d_21">
    <path clip-path="url(#p406db359a5)" d="M 73.832727 295.488 
L 77.079273 289.720481 
L 80.325818 286.89443 
L 83.572364 285.386031 
L 86.818909 284.459937 
L 90.065455 283.825739 
L 93.312 283.354498 
L 96.558545 282.981824 
L 99.805091 282.672412 
L 103.051636 282.405433 
L 106.298182 282.167867 
L 109.544727 281.951175 
L 112.791273 281.749513 
L 116.037818 281.558715 
L 119.284364 281.375669 
L 122.530909 281.197919 
L 125.777455 281.023397 
L 129.024 280.850242 
L 132.270545 280.676677 
L 135.517091 280.500936 
L 138.763636 280.321223 
L 142.010182 280.135689 
L 145.256727 279.942422 
L 148.503273 279.739427 
L 151.749818 279.524591 
L 154.996364 279.295635 
L 158.242909 279.050043 
L 161.489455 278.784958 
L 164.736 278.497053 
L 167.982545 278.182339 
L 171.229091 277.835881 
L 174.475636 277.451352 
L 177.722182 277.020305 
L 180.968727 276.530941 
L 184.215273 275.965935 
L 187.461818 275.298481 
L 190.708364 274.484737 
L 193.954909 273.448685 
L 197.201455 272.050561 
L 200.448 270.022074 
L 203.694545 266.871511 
L 206.941091 262.062265 
L 210.187636 256.357669 
L 213.434182 251.82973 
L 216.680727 248.928775 
L 219.927273 247.067961 
L 223.173818 245.784874 
L 226.420364 244.824328 
L 229.666909 244.041562 
L 232.913455 243.341357 
L 236.16 242.645303 
L 239.406545 241.869432 
L 242.653091 240.89949 
L 245.899636 239.549321 
L 249.146182 237.481096 
L 252.392727 234.110093 
L 255.639273 228.977761 
L 258.885818 223.35194 
L 262.132364 219.178809 
L 265.378909 216.424109 
L 268.625455 214.321418 
L 271.872 246.669142 
L 275.118545 245.473211 
L 278.365091 237.288473 
L 281.611636 215.241978 
L 284.858182 213.410114 
L 288.104727 212.524011 
L 291.351273 210.921307 
L 294.597818 206.099633 
L 297.844364 198.354766 
L 301.090909 192.53187 
L 304.337455 188.387219 
L 307.584 185.435478 
L 310.830545 183.386672 
L 314.077091 181.913771 
L 317.323636 180.765688 
L 320.570182 179.769534 
L 323.816727 178.79104 
L 327.063273 177.691042 
L 330.309818 176.267239 
L 333.556364 174.14397 
L 336.802909 170.589348 
L 340.049455 164.885321 
L 343.296 158.807415 
L 346.542545 154.884485 
L 349.789091 152.80918 
L 353.035636 151.906297 
L 356.282182 152.438515 
L 359.528727 179.15562 
L 362.775273 170.406435 
L 366.021818 149.58712 
L 369.268364 148.490553 
L 372.514909 148.304532 
L 375.761455 148.255964 
L 379.008 148.175685 
L 382.254545 147.924861 
L 385.501091 147.368421 
L 388.747636 146.43523 
L 391.994182 145.163298 
L 395.240727 143.644941 
L 398.487273 141.912537 
" style="fill:none;stroke:#d62728;stroke-linecap:square;stroke-width:2;"/>
   </g>
   <g id="line2d_22">
    <path clip-path="url(#p406db359a5)" d="M 73.832727 295.488 
L 77.079273 295.257069 
L 80.325818 295.0208 
L 83.572364 294.779595 
L 86.818909 294.533392 
L 90.065455 294.281751 
L 93.312 294.02397 
L 96.558545 293.759193 
L 99.805091 293.486491 
L 103.051636 293.20492 
L 106.298182 292.913547 
L 109.544727 292.611456 
L 112.791273 292.297754 
L 116.037818 291.971581 
L 119.284364 291.632124 
L 122.530909 291.278648 
L 125.777455 290.910534 
L 129.024 290.527312 
L 132.270545 290.128685 
L 135.517091 289.714533 
L 138.763636 289.28488 
L 142.010182 288.839835 
L 145.256727 288.379505 
L 148.503273 287.903899 
L 151.749818 287.412832 
L 154.996364 286.90586 
L 158.242909 286.382248 
L 161.489455 285.840968 
L 164.736 285.280724 
L 167.982545 284.699993 
L 171.229091 284.097053 
L 174.475636 283.469992 
L 177.722182 282.816675 
L 180.968727 282.134672 
L 184.215273 281.421134 
L 187.461818 280.672626 
L 190.708364 279.884916 
L 193.954909 279.052732 
L 197.201455 278.169504 
L 200.448 277.227108 
L 203.694545 276.215657 
L 206.941091 275.123443 
L 210.187636 273.937167 
L 213.434182 272.64271 
L 216.680727 271.226793 
L 219.927273 269.67986 
L 223.173818 268.000251 
L 226.420364 266.198886 
L 229.666909 264.302423 
L 232.913455 262.352036 
L 236.16 260.396278 
L 239.406545 258.480099 
L 242.653091 256.634996 
L 245.899636 254.874364 
L 249.146182 253.194372 
L 252.392727 251.577928 
L 255.639273 249.999051 
L 258.885818 248.426221 
L 262.132364 246.824467 
L 265.378909 245.15668 
L 268.625455 243.385016 
L 271.872 241.47358 
L 275.118545 239.393786 
L 278.365091 237.133138 
L 281.611636 234.705572 
L 284.858182 232.156461 
L 288.104727 229.552623 
L 291.351273 226.953733 
L 294.597818 224.370602 
L 297.844364 221.697969 
L 301.090909 218.460202 
L 304.337455 196.222049 
L 307.584 168.707165 
L 310.830545 164.374432 
L 314.077091 162.725968 
L 317.323636 160.840105 
L 320.570182 156.028887 
L 323.816727 142.559257 
L 327.063273 135.737138 
L 330.309818 133.688514 
L 333.556364 132.791555 
L 336.802909 132.330004 
L 340.049455 132.129812 
L 343.296 132.165867 
L 346.542545 132.420354 
L 349.789091 132.714639 
L 353.035636 132.691663 
L 356.282182 132.182532 
L 359.528727 131.32495 
L 362.775273 130.262496 
L 366.021818 128.989393 
L 369.268364 127.331669 
L 372.514909 124.850962 
L 375.761455 120.620904 
L 379.008 114.005326 
L 382.254545 107.822242 
L 385.501091 104.163688 
L 388.747636 102.105062 
L 391.994182 100.825405 
L 395.240727 99.943528 
L 398.487273 99.281131 
" style="fill:none;stroke:#9467bd;stroke-linecap:square;stroke-width:2;"/>
   </g>
   <g id="line2d_23">
    <path clip-path="url(#p406db359a5)" d="M 73.832727 295.488 
L 77.079273 295.281964 
L 80.325818 295.070177 
L 83.572364 294.853043 
L 86.818909 294.6306 
L 90.065455 294.402573 
L 93.312 294.16847 
L 96.558545 293.927654 
L 99.805091 293.679418 
L 103.051636 293.423019 
L 106.298182 293.157695 
L 109.544727 292.882662 
L 112.791273 292.597106 
L 116.037818 292.300181 
L 119.284364 291.991015 
L 122.530909 291.668728 
L 125.777455 291.332463 
L 129.024 290.981422 
L 132.270545 290.614898 
L 135.517091 290.232293 
L 138.763636 289.83311 
L 142.010182 289.416912 
L 145.256727 288.983257 
L 148.503273 288.531614 
L 151.749818 288.061267 
L 154.996364 287.571243 
L 158.242909 287.060255 
L 161.489455 286.526678 
L 164.736 285.968549 
L 167.982545 285.383584 
L 171.229091 284.769195 
L 174.475636 284.122497 
L 177.722182 283.440301 
L 180.968727 282.71908 
L 184.215273 281.954942 
L 187.461818 281.143593 
L 190.708364 280.280363 
L 193.954909 279.360295 
L 197.201455 278.378368 
L 200.448 277.329883 
L 203.694545 276.211063 
L 206.941091 275.019834 
L 210.187636 273.756751 
L 213.434182 272.425867 
L 216.680727 271.035285 
L 219.927273 269.597086 
L 223.173818 268.126389 
L 226.420364 266.639583 
L 229.666909 265.152074 
L 232.913455 263.676097 
L 236.16 262.219095 
L 239.406545 260.782921 
L 242.653091 259.363809 
L 245.899636 257.952861 
L 249.146182 256.536779 
L 252.392727 255.098664 
L 255.639273 253.61884 
L 258.885818 252.075852 
L 262.132364 250.447937 
L 265.378909 248.71542 
L 268.625455 246.864502 
L 271.872 244.892448 
L 275.118545 242.813055 
L 278.365091 240.659581 
L 281.611636 238.481678 
L 284.858182 236.335329 
L 288.104727 234.269619 
L 291.351273 232.316742 
L 294.597818 230.488878 
L 297.844364 228.780693 
L 301.090909 227.173701 
L 304.337455 225.638937 
L 307.584 224.133834 
L 310.830545 222.57588 
L 314.077091 220.551916 
L 317.323636 245.378164 
L 320.570182 218.706011 
L 323.816727 216.667206 
L 327.063273 214.332622 
L 330.309818 211.439958 
L 333.556364 207.76853 
L 336.802909 203.244641 
L 340.049455 197.726428 
L 343.296 231.650965 
L 346.542545 220.19717 
L 349.789091 213.459927 
L 353.035636 211.012822 
L 356.282182 209.763954 
L 359.528727 208.93746 
L 362.775273 208.304584 
L 366.021818 207.787402 
L 369.268364 207.357855 
L 372.514909 207.002334 
L 375.761455 206.707128 
L 379.008 206.453901 
L 382.254545 206.220377 
L 385.501091 205.982472 
L 388.747636 205.715367 
L 391.994182 205.392448 
L 395.240727 204.981789 
L 398.487273 204.439485 
" style="fill:none;stroke:#8c564b;stroke-linecap:square;stroke-width:2;"/>
   </g>
   <g id="line2d_24">
    <path clip-path="url(#p406db359a5)" d="M 73.832727 295.488 
L 77.079273 295.277378 
L 80.325818 295.061141 
L 83.572364 294.839728 
L 86.818909 294.613215 
L 90.065455 294.381377 
L 93.312 294.14377 
L 96.558545 293.899817 
L 99.805091 293.64887 
L 103.051636 293.390246 
L 106.298182 293.123248 
L 109.544727 292.847154 
L 112.791273 292.561216 
L 116.037818 292.264655 
L 119.284364 291.956666 
L 122.530909 291.636444 
L 125.777455 291.303208 
L 129.024 290.956244 
L 132.270545 290.594931 
L 135.517091 290.218762 
L 138.763636 289.827327 
L 142.010182 289.420279 
L 145.256727 288.997261 
L 148.503273 288.557824 
L 151.749818 288.101333 
L 154.996364 287.626891 
L 158.242909 287.133286 
L 161.489455 286.618967 
L 164.736 286.082035 
L 167.982545 285.520259 
L 171.229091 284.931081 
L 174.475636 284.311616 
L 177.722182 283.65862 
L 180.968727 282.968437 
L 184.215273 282.236939 
L 187.461818 281.459446 
L 190.708364 280.630694 
L 193.954909 279.744853 
L 197.201455 278.795672 
L 200.448 277.776787 
L 203.694545 276.682265 
L 206.941091 275.507428 
L 210.187636 274.249934 
L 213.434182 272.911033 
L 216.680727 271.496697 
L 219.927273 270.018242 
L 223.173818 268.491945 
L 226.420364 266.937434 
L 229.666909 265.375014 
L 232.913455 263.822601 
L 236.16 262.293113 
L 239.406545 260.79292 
L 242.653091 259.321468 
L 245.899636 257.871803 
L 249.146182 256.431541 
L 252.392727 254.983935 
L 255.639273 253.508869 
L 258.885818 251.983858 
L 262.132364 250.385319 
L 265.378909 248.6906 
L 268.625455 246.88137 
L 271.872 244.948761 
L 275.118545 242.899701 
L 278.365091 240.761971 
L 281.611636 238.583898 
L 284.858182 236.425801 
L 288.104727 234.34562 
L 291.351273 232.386013 
L 294.597818 230.5691 
L 297.844364 228.89949 
L 301.090909 227.372994 
L 304.337455 225.991868 
L 307.584 224.808821 
L 310.830545 224.220651 
L 314.077091 221.941549 
L 317.323636 208.824335 
L 320.570182 217.425371 
L 323.816727 207.468148 
L 327.063273 206.369762 
L 330.309818 204.248813 
L 333.556364 200.252786 
L 336.802909 224.552304 
L 340.049455 217.895025 
L 343.296 211.865409 
L 346.542545 205.882946 
L 349.789091 200.752831 
L 353.035636 197.462862 
L 356.282182 175.296994 
L 359.528727 174.105738 
L 362.775273 173.380271 
L 366.021818 172.941064 
L 369.268364 172.649712 
L 372.514909 172.397027 
L 375.761455 172.106361 
L 379.008 171.73168 
L 382.254545 171.244282 
L 385.501091 170.613819 
L 388.747636 169.787185 
L 391.994182 168.659732 
L 395.240727 167.022841 
L 398.487273 164.470214 
" style="fill:none;stroke:#e377c2;stroke-linecap:square;stroke-width:2;"/>
   </g>
   <g id="line2d_25">
    <path clip-path="url(#p406db359a5)" d="M 73.832727 295.488 
L 77.079273 295.252305 
L 80.325818 295.01126 
L 83.572364 294.765358 
L 86.818909 294.514678 
L 90.065455 294.258962 
L 93.312 293.997717 
L 96.558545 293.730308 
L 99.805091 293.456039 
L 103.051636 293.174195 
L 106.298182 292.884061 
L 109.544727 292.584925 
L 112.791273 292.276073 
L 116.037818 291.956799 
L 119.284364 291.626411 
L 122.530909 291.284264 
L 125.777455 290.929797 
L 129.024 290.562568 
L 132.270545 290.182282 
L 135.517091 289.788798 
L 138.763636 289.382108 
L 142.010182 288.96228 
L 145.256727 288.529381 
L 148.503273 288.083384 
L 151.749818 287.624081 
L 154.996364 287.15101 
L 158.242909 286.663416 
L 161.489455 286.160242 
L 164.736 285.640135 
L 167.982545 285.101473 
L 171.229091 284.542369 
L 174.475636 283.960668 
L 177.722182 283.353895 
L 180.968727 282.719171 
L 184.215273 282.053078 
L 187.461818 281.3515 
L 190.708364 280.609419 
L 193.954909 279.820716 
L 197.201455 278.977964 
L 200.448 278.072256 
L 203.694545 277.093123 
L 206.941091 276.028624 
L 210.187636 274.865757 
L 213.434182 273.59144 
L 216.680727 272.19433 
L 219.927273 270.66772 
L 223.173818 269.013382 
L 226.420364 267.245412 
L 229.666909 265.392125 
L 232.913455 263.493755 
L 236.16 261.595308 
L 239.406545 259.736927 
L 242.653091 257.945954 
L 245.899636 256.233593 
L 249.146182 254.59604 
L 252.392727 253.017939 
L 255.639273 251.476094 
L 258.885818 249.94231 
L 262.132364 248.385242 
L 265.378909 246.77173 
L 268.625455 245.068465 
L 271.872 243.245179 
L 275.118545 241.280677 
L 278.365091 239.172212 
L 281.611636 236.945913 
L 284.858182 234.661562 
L 288.104727 232.404175 
L 291.351273 230.26381 
L 294.597818 228.318682 
L 297.844364 226.643236 
L 301.090909 225.385431 
L 304.337455 225.226661 
L 307.584 208.805918 
L 310.830545 204.085357 
L 314.077091 203.094385 
L 317.323636 201.530807 
L 320.570182 197.907527 
L 323.816727 186.609308 
L 327.063273 218.46515 
L 330.309818 214.988436 
L 333.556364 212.721189 
L 336.802909 210.637518 
L 340.049455 208.401355 
L 343.296 205.81748 
L 346.542545 202.767543 
L 349.789091 199.308337 
L 353.035636 195.827254 
L 356.282182 169.738129 
L 359.528727 167.775418 
L 362.775273 166.155732 
L 366.021818 164.751176 
L 369.268364 163.318905 
L 372.514909 161.458592 
L 375.761455 158.429913 
L 379.008 153.113633 
L 382.254545 146.338752 
L 385.501091 141.533101 
L 388.747636 138.876953 
L 391.994182 137.338207 
L 395.240727 136.361358 
L 398.487273 135.698457 
" style="fill:none;stroke:#7f7f7f;stroke-linecap:square;stroke-width:2;"/>
   </g>
   <g id="line2d_26">
    <path clip-path="url(#p406db359a5)" d="M 73.832727 295.488 
L 77.079273 295.188261 
L 80.325818 294.883298 
L 83.572364 294.573696 
L 86.818909 294.25946 
L 90.065455 293.940138 
L 93.312 293.61497 
L 96.558545 293.283022 
L 99.805091 292.943294 
L 103.051636 292.594781 
L 106.298182 292.236507 
L 109.544727 291.867537 
L 112.791273 291.486987 
L 116.037818 291.094043 
L 119.284364 290.687994 
L 122.530909 290.268284 
L 125.777455 289.834562 
L 129.024 289.386734 
L 132.270545 288.924981 
L 135.517091 288.449752 
L 138.763636 287.96171 
L 142.010182 287.461634 
L 145.256727 286.950309 
L 148.503273 286.428395 
L 151.749818 285.896332 
L 154.996364 285.354264 
L 158.242909 284.802022 
L 161.489455 284.239143 
L 164.736 283.664915 
L 167.982545 283.078437 
L 171.229091 282.478662 
L 174.475636 281.864412 
L 177.722182 281.234352 
L 180.968727 280.586912 
L 184.215273 279.920174 
L 187.461818 279.231704 
L 190.708364 278.518361 
L 193.954909 277.776063 
L 197.201455 276.999519 
L 200.448 276.181911 
L 203.694545 275.31451 
L 206.941091 274.386222 
L 210.187636 273.383063 
L 213.434182 272.287644 
L 216.680727 271.078836 
L 219.927273 269.732031 
L 223.173818 268.220823 
L 226.420364 266.52138 
L 229.666909 264.620895 
L 232.913455 262.529808 
L 236.16 260.29283 
L 239.406545 257.988461 
L 242.653091 255.709905 
L 245.899636 253.535689 
L 249.146182 251.509078 
L 252.392727 249.636021 
L 255.639273 247.895406 
L 258.885818 246.251098 
L 262.132364 244.660227 
L 265.378909 243.077269 
L 268.625455 241.455482 
L 271.872 239.747704 
L 275.118545 237.908756 
L 278.365091 235.902242 
L 281.611636 233.714304 
L 284.858182 231.373224 
L 288.104727 228.964555 
L 291.351273 226.62645 
L 294.597818 224.527154 
L 297.844364 222.700068 
L 301.090909 202.143017 
L 304.337455 216.023412 
L 307.584 196.218893 
L 310.830545 194.248819 
L 314.077091 189.140481 
L 317.323636 173.586103 
L 320.570182 143.070613 
L 323.816727 141.188472 
L 327.063273 139.784424 
L 330.309818 138.447014 
L 333.556364 137.040995 
L 336.802909 135.475188 
L 340.049455 133.654062 
L 343.296 131.462284 
L 346.542545 128.77201 
L 349.789091 125.500439 
L 353.035636 121.739739 
L 356.282182 90.465354 
L 359.528727 87.956179 
L 362.775273 84.057766 
L 366.021818 77.571791 
L 369.268364 69.980788 
L 372.514909 65.05991 
L 375.761455 62.339099 
L 379.008 60.692762 
L 382.254545 59.60935 
L 385.501091 58.864052 
L 388.747636 58.339175 
L 391.994182 57.96179 
L 395.240727 57.683189 
L 398.487273 57.471445 
" style="fill:none;stroke:#bcbd22;stroke-linecap:square;stroke-width:2;"/>
   </g>
   <g id="line2d_27">
    <path clip-path="url(#p406db359a5)" d="M 73.832727 295.488 
L 77.079273 295.151865 
L 80.325818 294.810072 
L 83.572364 294.463259 
L 86.818909 294.111384 
L 90.065455 293.753869 
L 93.312 293.389768 
L 96.558545 293.017934 
L 99.805091 292.637135 
L 103.051636 292.246133 
L 106.298182 291.843725 
L 109.544727 291.428762 
L 112.791273 291.000167 
L 116.037818 290.55697 
L 119.284364 290.098356 
L 122.530909 289.623735 
L 125.777455 289.132814 
L 129.024 288.625655 
L 132.270545 288.102707 
L 135.517091 287.564782 
L 138.763636 287.012981 
L 142.010182 286.448576 
L 145.256727 285.872856 
L 148.503273 285.286976 
L 151.749818 284.691834 
L 154.996364 284.087996 
L 158.242909 283.475678 
L 161.489455 282.854781 
L 164.736 282.224959 
L 167.982545 281.585699 
L 171.229091 280.936383 
L 174.475636 280.276317 
L 177.722182 279.60471 
L 180.968727 278.920607 
L 184.215273 278.222771 
L 187.461818 277.509531 
L 190.708364 276.778595 
L 193.954909 276.026837 
L 197.201455 275.250048 
L 200.448 274.442636 
L 203.694545 273.597246 
L 206.941091 272.704281 
L 210.187636 271.751286 
L 213.434182 270.722182 
L 216.680727 269.596412 
L 219.927273 268.348178 
L 223.173818 266.946301 
L 226.420364 265.355878 
L 229.666909 263.543877 
L 232.913455 261.491359 
L 236.16 259.212532 
L 239.406545 256.771942 
L 242.653091 254.280754 
L 245.899636 251.861805 
L 249.146182 249.60473 
L 252.392727 247.544516 
L 255.639273 245.669554 
L 258.885818 243.941175 
L 262.132364 242.309385 
L 265.378909 240.720981 
L 268.625455 239.122156 
L 271.872 237.458653 
L 275.118545 235.67631 
L 278.365091 233.725212 
L 281.611636 231.571432 
L 284.858182 229.218592 
L 288.104727 226.731125 
L 291.351273 224.226585 
L 294.597818 221.649205 
L 297.844364 202.595179 
L 301.090909 193.552183 
L 304.337455 214.423444 
L 307.584 190.915807 
L 310.830545 186.869756 
L 314.077091 173.001047 
L 317.323636 163.033684 
L 320.570182 139.07185 
L 323.816727 137.802053 
L 327.063273 136.610219 
L 330.309818 135.382534 
L 333.556364 134.049043 
L 336.802909 132.537524 
L 340.049455 130.756192 
L 343.296 128.583128 
L 346.542545 125.868942 
L 349.789091 122.481062 
L 353.035636 118.405134 
L 356.282182 84.351109 
L 359.528727 80.834095 
L 362.775273 73.943584 
L 366.021818 66.031352 
L 369.268364 61.369273 
L 372.514909 58.836755 
L 375.761455 57.238071 
L 379.008 56.115083 
L 382.254545 55.296045 
L 385.501091 54.701767 
L 388.747636 54.277108 
L 391.994182 53.973157 
L 395.240727 53.747631 
L 398.487273 53.568 
" style="fill:none;stroke:#17becf;stroke-linecap:square;stroke-width:2;"/>
   </g>
   <g id="patch_3">
    <path d="M 57.6 307.584 
L 57.6 41.472 
" style="fill:none;stroke:#000000;stroke-linecap:square;stroke-linejoin:miter;stroke-width:0.8;"/>
   </g>
   <g id="patch_4">
    <path d="M 414.72 307.584 
L 414.72 41.472 
" style="fill:none;stroke:#000000;stroke-linecap:square;stroke-linejoin:miter;stroke-width:0.8;"/>
   </g>
   <g id="patch_5">
    <path d="M 57.6 307.584 
L 414.72 307.584 
" style="fill:none;stroke:#000000;stroke-linecap:square;stroke-linejoin:miter;stroke-width:0.8;"/>
   </g>
   <g id="patch_6">
    <path d="M 57.6 41.472 
L 414.72 41.472 
" style="fill:none;stroke:#000000;stroke-linecap:square;stroke-linejoin:miter;stroke-width:0.8;"/>
   </g>
   <g id="text_19">
    <!-- Phase shift of different radius -->
    <g transform="translate(147.762187 35.472)scale(0.12 -0.12)">
     <defs>
      <path d="M 1259 4147 
L 1259 2394 
L 2053 2394 
Q 2494 2394 2734 2622 
Q 2975 2850 2975 3272 
Q 2975 3691 2734 3919 
Q 2494 4147 2053 4147 
L 1259 4147 
z
M 628 4666 
L 2053 4666 
Q 2838 4666 3239 4311 
Q 3641 3956 3641 3272 
Q 3641 2581 3239 2228 
Q 2838 1875 2053 1875 
L 1259 1875 
L 1259 0 
L 628 0 
L 628 4666 
z
" id="DejaVuSans-50" transform="scale(0.015625)"/>
      <path d="M 3513 2113 
L 3513 0 
L 2938 0 
L 2938 2094 
Q 2938 2591 2744 2837 
Q 2550 3084 2163 3084 
Q 1697 3084 1428 2787 
Q 1159 2491 1159 1978 
L 1159 0 
L 581 0 
L 581 4863 
L 1159 4863 
L 1159 2956 
Q 1366 3272 1645 3428 
Q 1925 3584 2291 3584 
Q 2894 3584 3203 3211 
Q 3513 2838 3513 2113 
z
" id="DejaVuSans-68" transform="scale(0.015625)"/>
      <path d="M 3597 1894 
L 3597 1613 
L 953 1613 
Q 991 1019 1311 708 
Q 1631 397 2203 397 
Q 2534 397 2845 478 
Q 3156 559 3463 722 
L 3463 178 
Q 3153 47 2828 -22 
Q 2503 -91 2169 -91 
Q 1331 -91 842 396 
Q 353 884 353 1716 
Q 353 2575 817 3079 
Q 1281 3584 2069 3584 
Q 2775 3584 3186 3129 
Q 3597 2675 3597 1894 
z
M 3022 2063 
Q 3016 2534 2758 2815 
Q 2500 3097 2075 3097 
Q 1594 3097 1305 2825 
Q 1016 2553 972 2059 
L 3022 2063 
z
" id="DejaVuSans-65" transform="scale(0.015625)"/>
      <path id="DejaVuSans-20" transform="scale(0.015625)"/>
      <path d="M 2375 4863 
L 2375 4384 
L 1825 4384 
Q 1516 4384 1395 4259 
Q 1275 4134 1275 3809 
L 1275 3500 
L 2222 3500 
L 2222 3053 
L 1275 3053 
L 1275 0 
L 697 0 
L 697 3053 
L 147 3053 
L 147 3500 
L 697 3500 
L 697 3744 
Q 697 4328 969 4595 
Q 1241 4863 1831 4863 
L 2375 4863 
z
" id="DejaVuSans-66" transform="scale(0.015625)"/>
      <path d="M 1172 4494 
L 1172 3500 
L 2356 3500 
L 2356 3053 
L 1172 3053 
L 1172 1153 
Q 1172 725 1289 603 
Q 1406 481 1766 481 
L 2356 481 
L 2356 0 
L 1766 0 
Q 1100 0 847 248 
Q 594 497 594 1153 
L 594 3053 
L 172 3053 
L 172 3500 
L 594 3500 
L 594 4494 
L 1172 4494 
z
" id="DejaVuSans-74" transform="scale(0.015625)"/>
      <path d="M 1959 3097 
Q 1497 3097 1228 2736 
Q 959 2375 959 1747 
Q 959 1119 1226 758 
Q 1494 397 1959 397 
Q 2419 397 2687 759 
Q 2956 1122 2956 1747 
Q 2956 2369 2687 2733 
Q 2419 3097 1959 3097 
z
M 1959 3584 
Q 2709 3584 3137 3096 
Q 3566 2609 3566 1747 
Q 3566 888 3137 398 
Q 2709 -91 1959 -91 
Q 1206 -91 779 398 
Q 353 888 353 1747 
Q 353 2609 779 3096 
Q 1206 3584 1959 3584 
z
" id="DejaVuSans-6f" transform="scale(0.015625)"/>
     </defs>
     <use xlink:href="#DejaVuSans-50"/>
     <use x="60.302734" xlink:href="#DejaVuSans-68"/>
     <use x="123.681641" xlink:href="#DejaVuSans-61"/>
     <use x="184.960938" xlink:href="#DejaVuSans-73"/>
     <use x="237.060547" xlink:href="#DejaVuSans-65"/>
     <use x="298.583984" xlink:href="#DejaVuSans-20"/>
     <use x="330.371094" xlink:href="#DejaVuSans-73"/>
     <use x="382.470703" xlink:href="#DejaVuSans-68"/>
     <use x="445.849609" xlink:href="#DejaVuSans-69"/>
     <use x="473.632812" xlink:href="#DejaVuSans-66"/>
     <use x="507.087891" xlink:href="#DejaVuSans-74"/>
     <use x="546.296875" xlink:href="#DejaVuSans-20"/>
     <use x="578.083984" xlink:href="#DejaVuSans-6f"/>
     <use x="639.265625" xlink:href="#DejaVuSans-66"/>
     <use x="674.470703" xlink:href="#DejaVuSans-20"/>
     <use x="706.257812" xlink:href="#DejaVuSans-64"/>
     <use x="769.734375" xlink:href="#DejaVuSans-69"/>
     <use x="797.517578" xlink:href="#DejaVuSans-66"/>
     <use x="832.722656" xlink:href="#DejaVuSans-66"/>
     <use x="867.927734" xlink:href="#DejaVuSans-65"/>
     <use x="929.451172" xlink:href="#DejaVuSans-72"/>
     <use x="968.314453" xlink:href="#DejaVuSans-65"/>
     <use x="1029.837891" xlink:href="#DejaVuSans-6e"/>
     <use x="1093.216797" xlink:href="#DejaVuSans-74"/>
     <use x="1132.425781" xlink:href="#DejaVuSans-20"/>
     <use x="1164.212891" xlink:href="#DejaVuSans-72"/>
     <use x="1205.326172" xlink:href="#DejaVuSans-61"/>
     <use x="1266.605469" xlink:href="#DejaVuSans-64"/>
     <use x="1330.082031" xlink:href="#DejaVuSans-69"/>
     <use x="1357.865234" xlink:href="#DejaVuSans-75"/>
     <use x="1421.244141" xlink:href="#DejaVuSans-73"/>
    </g>
   </g>
   <g id="legend_1">
    <g id="patch_7">
     <path d="M 64.6 196.25325 
L 109.325 196.25325 
Q 111.325 196.25325 111.325 194.25325 
L 111.325 48.472 
Q 111.325 46.472 109.325 46.472 
L 64.6 46.472 
Q 62.6 46.472 62.6 48.472 
L 62.6 194.25325 
Q 62.6 196.25325 64.6 196.25325 
z
" style="fill:#ffffff;opacity:0.8;stroke:#cccccc;stroke-linejoin:miter;"/>
    </g>
    <g id="line2d_28">
     <path d="M 66.6 54.570437 
L 86.6 54.570437 
" style="fill:none;stroke:#1f77b4;stroke-linecap:square;stroke-width:2;"/>
    </g>
    <g id="line2d_29"/>
    <g id="text_20">
     <!-- 0 -->
     <g transform="translate(94.6 58.070437)scale(0.1 -0.1)">
      <use xlink:href="#DejaVuSans-30"/>
     </g>
    </g>
    <g id="line2d_30">
     <path d="M 66.6 69.248562 
L 86.6 69.248562 
" style="fill:none;stroke:#ff7f0e;stroke-linecap:square;stroke-width:2;"/>
    </g>
    <g id="line2d_31"/>
    <g id="text_21">
     <!-- 10 -->
     <g transform="translate(94.6 72.748562)scale(0.1 -0.1)">
      <use xlink:href="#DejaVuSans-31"/>
      <use x="63.623047" xlink:href="#DejaVuSans-30"/>
     </g>
    </g>
    <g id="line2d_32">
     <path d="M 66.6 83.926688 
L 86.6 83.926688 
" style="fill:none;stroke:#2ca02c;stroke-linecap:square;stroke-width:2;"/>
    </g>
    <g id="line2d_33"/>
    <g id="text_22">
     <!-- 20 -->
     <g transform="translate(94.6 87.426688)scale(0.1 -0.1)">
      <use xlink:href="#DejaVuSans-32"/>
      <use x="63.623047" xlink:href="#DejaVuSans-30"/>
     </g>
    </g>
    <g id="line2d_34">
     <path d="M 66.6 98.604812 
L 86.6 98.604812 
" style="fill:none;stroke:#d62728;stroke-linecap:square;stroke-width:2;"/>
    </g>
    <g id="line2d_35"/>
    <g id="text_23">
     <!-- 30 -->
     <g transform="translate(94.6 102.104812)scale(0.1 -0.1)">
      <use xlink:href="#DejaVuSans-33"/>
      <use x="63.623047" xlink:href="#DejaVuSans-30"/>
     </g>
    </g>
    <g id="line2d_36">
     <path d="M 66.6 113.282938 
L 86.6 113.282938 
" style="fill:none;stroke:#9467bd;stroke-linecap:square;stroke-width:2;"/>
    </g>
    <g id="line2d_37"/>
    <g id="text_24">
     <!-- 40 -->
     <g transform="translate(94.6 116.782938)scale(0.1 -0.1)">
      <defs>
       <path d="M 2419 4116 
L 825 1625 
L 2419 1625 
L 2419 4116 
z
M 2253 4666 
L 3047 4666 
L 3047 1625 
L 3713 1625 
L 3713 1100 
L 3047 1100 
L 3047 0 
L 2419 0 
L 2419 1100 
L 313 1100 
L 313 1709 
L 2253 4666 
z
" id="DejaVuSans-34" transform="scale(0.015625)"/>
      </defs>
      <use xlink:href="#DejaVuSans-34"/>
      <use x="63.623047" xlink:href="#DejaVuSans-30"/>
     </g>
    </g>
    <g id="line2d_38">
     <path d="M 66.6 127.961062 
L 86.6 127.961062 
" style="fill:none;stroke:#8c564b;stroke-linecap:square;stroke-width:2;"/>
    </g>
    <g id="line2d_39"/>
    <g id="text_25">
     <!-- 50 -->
     <g transform="translate(94.6 131.461062)scale(0.1 -0.1)">
      <use xlink:href="#DejaVuSans-35"/>
      <use x="63.623047" xlink:href="#DejaVuSans-30"/>
     </g>
    </g>
    <g id="line2d_40">
     <path d="M 66.6 142.639187 
L 86.6 142.639187 
" style="fill:none;stroke:#e377c2;stroke-linecap:square;stroke-width:2;"/>
    </g>
    <g id="line2d_41"/>
    <g id="text_26">
     <!-- 60 -->
     <g transform="translate(94.6 146.139187)scale(0.1 -0.1)">
      <defs>
       <path d="M 2113 2584 
Q 1688 2584 1439 2293 
Q 1191 2003 1191 1497 
Q 1191 994 1439 701 
Q 1688 409 2113 409 
Q 2538 409 2786 701 
Q 3034 994 3034 1497 
Q 3034 2003 2786 2293 
Q 2538 2584 2113 2584 
z
M 3366 4563 
L 3366 3988 
Q 3128 4100 2886 4159 
Q 2644 4219 2406 4219 
Q 1781 4219 1451 3797 
Q 1122 3375 1075 2522 
Q 1259 2794 1537 2939 
Q 1816 3084 2150 3084 
Q 2853 3084 3261 2657 
Q 3669 2231 3669 1497 
Q 3669 778 3244 343 
Q 2819 -91 2113 -91 
Q 1303 -91 875 529 
Q 447 1150 447 2328 
Q 447 3434 972 4092 
Q 1497 4750 2381 4750 
Q 2619 4750 2861 4703 
Q 3103 4656 3366 4563 
z
" id="DejaVuSans-36" transform="scale(0.015625)"/>
      </defs>
      <use xlink:href="#DejaVuSans-36"/>
      <use x="63.623047" xlink:href="#DejaVuSans-30"/>
     </g>
    </g>
    <g id="line2d_42">
     <path d="M 66.6 157.317312 
L 86.6 157.317312 
" style="fill:none;stroke:#7f7f7f;stroke-linecap:square;stroke-width:2;"/>
    </g>
    <g id="line2d_43"/>
    <g id="text_27">
     <!-- 70 -->
     <g transform="translate(94.6 160.817312)scale(0.1 -0.1)">
      <use xlink:href="#DejaVuSans-37"/>
      <use x="63.623047" xlink:href="#DejaVuSans-30"/>
     </g>
    </g>
    <g id="line2d_44">
     <path d="M 66.6 171.995437 
L 86.6 171.995437 
" style="fill:none;stroke:#bcbd22;stroke-linecap:square;stroke-width:2;"/>
    </g>
    <g id="line2d_45"/>
    <g id="text_28">
     <!-- 80 -->
     <g transform="translate(94.6 175.495437)scale(0.1 -0.1)">
      <defs>
       <path d="M 2034 2216 
Q 1584 2216 1326 1975 
Q 1069 1734 1069 1313 
Q 1069 891 1326 650 
Q 1584 409 2034 409 
Q 2484 409 2743 651 
Q 3003 894 3003 1313 
Q 3003 1734 2745 1975 
Q 2488 2216 2034 2216 
z
M 1403 2484 
Q 997 2584 770 2862 
Q 544 3141 544 3541 
Q 544 4100 942 4425 
Q 1341 4750 2034 4750 
Q 2731 4750 3128 4425 
Q 3525 4100 3525 3541 
Q 3525 3141 3298 2862 
Q 3072 2584 2669 2484 
Q 3125 2378 3379 2068 
Q 3634 1759 3634 1313 
Q 3634 634 3220 271 
Q 2806 -91 2034 -91 
Q 1263 -91 848 271 
Q 434 634 434 1313 
Q 434 1759 690 2068 
Q 947 2378 1403 2484 
z
M 1172 3481 
Q 1172 3119 1398 2916 
Q 1625 2713 2034 2713 
Q 2441 2713 2670 2916 
Q 2900 3119 2900 3481 
Q 2900 3844 2670 4047 
Q 2441 4250 2034 4250 
Q 1625 4250 1398 4047 
Q 1172 3844 1172 3481 
z
" id="DejaVuSans-38" transform="scale(0.015625)"/>
      </defs>
      <use xlink:href="#DejaVuSans-38"/>
      <use x="63.623047" xlink:href="#DejaVuSans-30"/>
     </g>
    </g>
    <g id="line2d_46">
     <path d="M 66.6 186.673562 
L 86.6 186.673562 
" style="fill:none;stroke:#17becf;stroke-linecap:square;stroke-width:2;"/>
    </g>
    <g id="line2d_47"/>
    <g id="text_29">
     <!-- 90 -->
     <g transform="translate(94.6 190.173562)scale(0.1 -0.1)">
      <defs>
       <path d="M 703 97 
L 703 672 
Q 941 559 1184 500 
Q 1428 441 1663 441 
Q 2288 441 2617 861 
Q 2947 1281 2994 2138 
Q 2813 1869 2534 1725 
Q 2256 1581 1919 1581 
Q 1219 1581 811 2004 
Q 403 2428 403 3163 
Q 403 3881 828 4315 
Q 1253 4750 1959 4750 
Q 2769 4750 3195 4129 
Q 3622 3509 3622 2328 
Q 3622 1225 3098 567 
Q 2575 -91 1691 -91 
Q 1453 -91 1209 -44 
Q 966 3 703 97 
z
M 1959 2075 
Q 2384 2075 2632 2365 
Q 2881 2656 2881 3163 
Q 2881 3666 2632 3958 
Q 2384 4250 1959 4250 
Q 1534 4250 1286 3958 
Q 1038 3666 1038 3163 
Q 1038 2656 1286 2365 
Q 1534 2075 1959 2075 
z
" id="DejaVuSans-39" transform="scale(0.015625)"/>
      </defs>
      <use xlink:href="#DejaVuSans-39"/>
      <use x="63.623047" xlink:href="#DejaVuSans-30"/>
     </g>
    </g>
   </g>
  </g>
 </g>
 <defs>
  <clipPath id="p406db359a5">
   <rect height="266.112" width="357.12" x="57.6" y="41.472"/>
  </clipPath>
 </defs>
</svg>
