<?xml version="1.0" encoding="utf-8" standalone="no"?>
<!DOCTYPE svg PUBLIC "-//W3C//DTD SVG 1.1//EN"
  "http://www.w3.org/Graphics/SVG/1.1/DTD/svg11.dtd">
<!-- Created with matplotlib (https://matplotlib.org/) -->
<svg height="345.6pt" version="1.1" viewBox="0 0 460.8 345.6" width="460.8pt" xmlns="http://www.w3.org/2000/svg" xmlns:xlink="http://www.w3.org/1999/xlink">
 <defs>
  <style type="text/css">
*{stroke-linecap:butt;stroke-linejoin:round;}
  </style>
 </defs>
 <g id="figure_1">
  <g id="patch_1">
   <path d="M 0 345.6 
L 460.8 345.6 
L 460.8 0 
L 0 0 
z
" style="fill:#ffffff;"/>
  </g>
  <g id="axes_1">
   <g id="patch_2">
    <path d="M 57.6 307.584 
L 414.72 307.584 
L 414.72 41.472 
L 57.6 41.472 
z
" style="fill:#ffffff;"/>
   </g>
   <g id="matplotlib.axis_1">
    <g id="xtick_1">
     <g id="line2d_1">
      <defs>
       <path d="M 0 0 
L 0 3.5 
" id="mf8398c2504" style="stroke:#000000;stroke-width:0.8;"/>
      </defs>
      <g>
       <use style="stroke:#000000;stroke-width:0.8;" x="73.832727" xlink:href="#mf8398c2504" y="307.584"/>
      </g>
     </g>
     <g id="text_1">
      <!-- 50 -->
      <defs>
       <path d="M 10.796875 72.90625 
L 49.515625 72.90625 
L 49.515625 64.59375 
L 19.828125 64.59375 
L 19.828125 46.734375 
Q 21.96875 47.46875 24.109375 47.828125 
Q 26.265625 48.1875 28.421875 48.1875 
Q 40.625 48.1875 47.75 41.5 
Q 54.890625 34.8125 54.890625 23.390625 
Q 54.890625 11.625 47.5625 5.09375 
Q 40.234375 -1.421875 26.90625 -1.421875 
Q 22.3125 -1.421875 17.546875 -0.640625 
Q 12.796875 0.140625 7.71875 1.703125 
L 7.71875 11.625 
Q 12.109375 9.234375 16.796875 8.0625 
Q 21.484375 6.890625 26.703125 6.890625 
Q 35.15625 6.890625 40.078125 11.328125 
Q 45.015625 15.765625 45.015625 23.390625 
Q 45.015625 31 40.078125 35.4375 
Q 35.15625 39.890625 26.703125 39.890625 
Q 22.75 39.890625 18.8125 39.015625 
Q 14.890625 38.140625 10.796875 36.28125 
z
" id="DejaVuSans-53"/>
       <path d="M 31.78125 66.40625 
Q 24.171875 66.40625 20.328125 58.90625 
Q 16.5 51.421875 16.5 36.375 
Q 16.5 21.390625 20.328125 13.890625 
Q 24.171875 6.390625 31.78125 6.390625 
Q 39.453125 6.390625 43.28125 13.890625 
Q 47.125 21.390625 47.125 36.375 
Q 47.125 51.421875 43.28125 58.90625 
Q 39.453125 66.40625 31.78125 66.40625 
z
M 31.78125 74.21875 
Q 44.046875 74.21875 50.515625 64.515625 
Q 56.984375 54.828125 56.984375 36.375 
Q 56.984375 17.96875 50.515625 8.265625 
Q 44.046875 -1.421875 31.78125 -1.421875 
Q 19.53125 -1.421875 13.0625 8.265625 
Q 6.59375 17.96875 6.59375 36.375 
Q 6.59375 54.828125 13.0625 64.515625 
Q 19.53125 74.21875 31.78125 74.21875 
z
" id="DejaVuSans-48"/>
      </defs>
      <g transform="translate(67.470227 322.182437)scale(0.1 -0.1)">
       <use xlink:href="#DejaVuSans-53"/>
       <use x="63.623047" xlink:href="#DejaVuSans-48"/>
      </g>
     </g>
    </g>
    <g id="xtick_2">
     <g id="line2d_2">
      <g>
       <use style="stroke:#000000;stroke-width:0.8;" x="114.414545" xlink:href="#mf8398c2504" y="307.584"/>
      </g>
     </g>
     <g id="text_2">
      <!-- 75 -->
      <defs>
       <path d="M 8.203125 72.90625 
L 55.078125 72.90625 
L 55.078125 68.703125 
L 28.609375 0 
L 18.3125 0 
L 43.21875 64.59375 
L 8.203125 64.59375 
z
" id="DejaVuSans-55"/>
      </defs>
      <g transform="translate(108.052045 322.182437)scale(0.1 -0.1)">
       <use xlink:href="#DejaVuSans-55"/>
       <use x="63.623047" xlink:href="#DejaVuSans-53"/>
      </g>
     </g>
    </g>
    <g id="xtick_3">
     <g id="line2d_3">
      <g>
       <use style="stroke:#000000;stroke-width:0.8;" x="154.996364" xlink:href="#mf8398c2504" y="307.584"/>
      </g>
     </g>
     <g id="text_3">
      <!-- 100 -->
      <defs>
       <path d="M 12.40625 8.296875 
L 28.515625 8.296875 
L 28.515625 63.921875 
L 10.984375 60.40625 
L 10.984375 69.390625 
L 28.421875 72.90625 
L 38.28125 72.90625 
L 38.28125 8.296875 
L 54.390625 8.296875 
L 54.390625 0 
L 12.40625 0 
z
" id="DejaVuSans-49"/>
      </defs>
      <g transform="translate(145.452614 322.182437)scale(0.1 -0.1)">
       <use xlink:href="#DejaVuSans-49"/>
       <use x="63.623047" xlink:href="#DejaVuSans-48"/>
       <use x="127.246094" xlink:href="#DejaVuSans-48"/>
      </g>
     </g>
    </g>
    <g id="xtick_4">
     <g id="line2d_4">
      <g>
       <use style="stroke:#000000;stroke-width:0.8;" x="195.578182" xlink:href="#mf8398c2504" y="307.584"/>
      </g>
     </g>
     <g id="text_4">
      <!-- 125 -->
      <defs>
       <path d="M 19.1875 8.296875 
L 53.609375 8.296875 
L 53.609375 0 
L 7.328125 0 
L 7.328125 8.296875 
Q 12.9375 14.109375 22.625 23.890625 
Q 32.328125 33.6875 34.8125 36.53125 
Q 39.546875 41.84375 41.421875 45.53125 
Q 43.3125 49.21875 43.3125 52.78125 
Q 43.3125 58.59375 39.234375 62.25 
Q 35.15625 65.921875 28.609375 65.921875 
Q 23.96875 65.921875 18.8125 64.3125 
Q 13.671875 62.703125 7.8125 59.421875 
L 7.8125 69.390625 
Q 13.765625 71.78125 18.9375 73 
Q 24.125 74.21875 28.421875 74.21875 
Q 39.75 74.21875 46.484375 68.546875 
Q 53.21875 62.890625 53.21875 53.421875 
Q 53.21875 48.921875 51.53125 44.890625 
Q 49.859375 40.875 45.40625 35.40625 
Q 44.1875 33.984375 37.640625 27.21875 
Q 31.109375 20.453125 19.1875 8.296875 
z
" id="DejaVuSans-50"/>
      </defs>
      <g transform="translate(186.034432 322.182437)scale(0.1 -0.1)">
       <use xlink:href="#DejaVuSans-49"/>
       <use x="63.623047" xlink:href="#DejaVuSans-50"/>
       <use x="127.246094" xlink:href="#DejaVuSans-53"/>
      </g>
     </g>
    </g>
    <g id="xtick_5">
     <g id="line2d_5">
      <g>
       <use style="stroke:#000000;stroke-width:0.8;" x="236.16" xlink:href="#mf8398c2504" y="307.584"/>
      </g>
     </g>
     <g id="text_5">
      <!-- 150 -->
      <g transform="translate(226.61625 322.182437)scale(0.1 -0.1)">
       <use xlink:href="#DejaVuSans-49"/>
       <use x="63.623047" xlink:href="#DejaVuSans-53"/>
       <use x="127.246094" xlink:href="#DejaVuSans-48"/>
      </g>
     </g>
    </g>
    <g id="xtick_6">
     <g id="line2d_6">
      <g>
       <use style="stroke:#000000;stroke-width:0.8;" x="276.741818" xlink:href="#mf8398c2504" y="307.584"/>
      </g>
     </g>
     <g id="text_6">
      <!-- 175 -->
      <g transform="translate(267.198068 322.182437)scale(0.1 -0.1)">
       <use xlink:href="#DejaVuSans-49"/>
       <use x="63.623047" xlink:href="#DejaVuSans-55"/>
       <use x="127.246094" xlink:href="#DejaVuSans-53"/>
      </g>
     </g>
    </g>
    <g id="xtick_7">
     <g id="line2d_7">
      <g>
       <use style="stroke:#000000;stroke-width:0.8;" x="317.323636" xlink:href="#mf8398c2504" y="307.584"/>
      </g>
     </g>
     <g id="text_7">
      <!-- 200 -->
      <g transform="translate(307.779886 322.182437)scale(0.1 -0.1)">
       <use xlink:href="#DejaVuSans-50"/>
       <use x="63.623047" xlink:href="#DejaVuSans-48"/>
       <use x="127.246094" xlink:href="#DejaVuSans-48"/>
      </g>
     </g>
    </g>
    <g id="xtick_8">
     <g id="line2d_8">
      <g>
       <use style="stroke:#000000;stroke-width:0.8;" x="357.905455" xlink:href="#mf8398c2504" y="307.584"/>
      </g>
     </g>
     <g id="text_8">
      <!-- 225 -->
      <g transform="translate(348.361705 322.182437)scale(0.1 -0.1)">
       <use xlink:href="#DejaVuSans-50"/>
       <use x="63.623047" xlink:href="#DejaVuSans-50"/>
       <use x="127.246094" xlink:href="#DejaVuSans-53"/>
      </g>
     </g>
    </g>
    <g id="xtick_9">
     <g id="line2d_9">
      <g>
       <use style="stroke:#000000;stroke-width:0.8;" x="398.487273" xlink:href="#mf8398c2504" y="307.584"/>
      </g>
     </g>
     <g id="text_9">
      <!-- 250 -->
      <g transform="translate(388.943523 322.182437)scale(0.1 -0.1)">
       <use xlink:href="#DejaVuSans-50"/>
       <use x="63.623047" xlink:href="#DejaVuSans-53"/>
       <use x="127.246094" xlink:href="#DejaVuSans-48"/>
      </g>
     </g>
    </g>
    <g id="text_10">
     <!-- radius(nm) -->
     <defs>
      <path d="M 41.109375 46.296875 
Q 39.59375 47.171875 37.8125 47.578125 
Q 36.03125 48 33.890625 48 
Q 26.265625 48 22.1875 43.046875 
Q 18.109375 38.09375 18.109375 28.8125 
L 18.109375 0 
L 9.078125 0 
L 9.078125 54.6875 
L 18.109375 54.6875 
L 18.109375 46.1875 
Q 20.953125 51.171875 25.484375 53.578125 
Q 30.03125 56 36.53125 56 
Q 37.453125 56 38.578125 55.875 
Q 39.703125 55.765625 41.0625 55.515625 
z
" id="DejaVuSans-114"/>
      <path d="M 34.28125 27.484375 
Q 23.390625 27.484375 19.1875 25 
Q 14.984375 22.515625 14.984375 16.5 
Q 14.984375 11.71875 18.140625 8.90625 
Q 21.296875 6.109375 26.703125 6.109375 
Q 34.1875 6.109375 38.703125 11.40625 
Q 43.21875 16.703125 43.21875 25.484375 
L 43.21875 27.484375 
z
M 52.203125 31.203125 
L 52.203125 0 
L 43.21875 0 
L 43.21875 8.296875 
Q 40.140625 3.328125 35.546875 0.953125 
Q 30.953125 -1.421875 24.3125 -1.421875 
Q 15.921875 -1.421875 10.953125 3.296875 
Q 6 8.015625 6 15.921875 
Q 6 25.140625 12.171875 29.828125 
Q 18.359375 34.515625 30.609375 34.515625 
L 43.21875 34.515625 
L 43.21875 35.40625 
Q 43.21875 41.609375 39.140625 45 
Q 35.0625 48.390625 27.6875 48.390625 
Q 23 48.390625 18.546875 47.265625 
Q 14.109375 46.140625 10.015625 43.890625 
L 10.015625 52.203125 
Q 14.9375 54.109375 19.578125 55.046875 
Q 24.21875 56 28.609375 56 
Q 40.484375 56 46.34375 49.84375 
Q 52.203125 43.703125 52.203125 31.203125 
z
" id="DejaVuSans-97"/>
      <path d="M 45.40625 46.390625 
L 45.40625 75.984375 
L 54.390625 75.984375 
L 54.390625 0 
L 45.40625 0 
L 45.40625 8.203125 
Q 42.578125 3.328125 38.25 0.953125 
Q 33.9375 -1.421875 27.875 -1.421875 
Q 17.96875 -1.421875 11.734375 6.484375 
Q 5.515625 14.40625 5.515625 27.296875 
Q 5.515625 40.1875 11.734375 48.09375 
Q 17.96875 56 27.875 56 
Q 33.9375 56 38.25 53.625 
Q 42.578125 51.265625 45.40625 46.390625 
z
M 14.796875 27.296875 
Q 14.796875 17.390625 18.875 11.75 
Q 22.953125 6.109375 30.078125 6.109375 
Q 37.203125 6.109375 41.296875 11.75 
Q 45.40625 17.390625 45.40625 27.296875 
Q 45.40625 37.203125 41.296875 42.84375 
Q 37.203125 48.484375 30.078125 48.484375 
Q 22.953125 48.484375 18.875 42.84375 
Q 14.796875 37.203125 14.796875 27.296875 
z
" id="DejaVuSans-100"/>
      <path d="M 9.421875 54.6875 
L 18.40625 54.6875 
L 18.40625 0 
L 9.421875 0 
z
M 9.421875 75.984375 
L 18.40625 75.984375 
L 18.40625 64.59375 
L 9.421875 64.59375 
z
" id="DejaVuSans-105"/>
      <path d="M 8.5 21.578125 
L 8.5 54.6875 
L 17.484375 54.6875 
L 17.484375 21.921875 
Q 17.484375 14.15625 20.5 10.265625 
Q 23.53125 6.390625 29.59375 6.390625 
Q 36.859375 6.390625 41.078125 11.03125 
Q 45.3125 15.671875 45.3125 23.6875 
L 45.3125 54.6875 
L 54.296875 54.6875 
L 54.296875 0 
L 45.3125 0 
L 45.3125 8.40625 
Q 42.046875 3.421875 37.71875 1 
Q 33.40625 -1.421875 27.6875 -1.421875 
Q 18.265625 -1.421875 13.375 4.4375 
Q 8.5 10.296875 8.5 21.578125 
z
M 31.109375 56 
z
" id="DejaVuSans-117"/>
      <path d="M 44.28125 53.078125 
L 44.28125 44.578125 
Q 40.484375 46.53125 36.375 47.5 
Q 32.28125 48.484375 27.875 48.484375 
Q 21.1875 48.484375 17.84375 46.4375 
Q 14.5 44.390625 14.5 40.28125 
Q 14.5 37.15625 16.890625 35.375 
Q 19.28125 33.59375 26.515625 31.984375 
L 29.59375 31.296875 
Q 39.15625 29.25 43.1875 25.515625 
Q 47.21875 21.78125 47.21875 15.09375 
Q 47.21875 7.46875 41.1875 3.015625 
Q 35.15625 -1.421875 24.609375 -1.421875 
Q 20.21875 -1.421875 15.453125 -0.5625 
Q 10.6875 0.296875 5.421875 2 
L 5.421875 11.28125 
Q 10.40625 8.6875 15.234375 7.390625 
Q 20.0625 6.109375 24.8125 6.109375 
Q 31.15625 6.109375 34.5625 8.28125 
Q 37.984375 10.453125 37.984375 14.40625 
Q 37.984375 18.0625 35.515625 20.015625 
Q 33.0625 21.96875 24.703125 23.78125 
L 21.578125 24.515625 
Q 13.234375 26.265625 9.515625 29.90625 
Q 5.8125 33.546875 5.8125 39.890625 
Q 5.8125 47.609375 11.28125 51.796875 
Q 16.75 56 26.8125 56 
Q 31.78125 56 36.171875 55.265625 
Q 40.578125 54.546875 44.28125 53.078125 
z
" id="DejaVuSans-115"/>
      <path d="M 31 75.875 
Q 24.46875 64.65625 21.28125 53.65625 
Q 18.109375 42.671875 18.109375 31.390625 
Q 18.109375 20.125 21.3125 9.0625 
Q 24.515625 -2 31 -13.1875 
L 23.1875 -13.1875 
Q 15.875 -1.703125 12.234375 9.375 
Q 8.59375 20.453125 8.59375 31.390625 
Q 8.59375 42.28125 12.203125 53.3125 
Q 15.828125 64.359375 23.1875 75.875 
z
" id="DejaVuSans-40"/>
      <path d="M 54.890625 33.015625 
L 54.890625 0 
L 45.90625 0 
L 45.90625 32.71875 
Q 45.90625 40.484375 42.875 44.328125 
Q 39.84375 48.1875 33.796875 48.1875 
Q 26.515625 48.1875 22.3125 43.546875 
Q 18.109375 38.921875 18.109375 30.90625 
L 18.109375 0 
L 9.078125 0 
L 9.078125 54.6875 
L 18.109375 54.6875 
L 18.109375 46.1875 
Q 21.34375 51.125 25.703125 53.5625 
Q 30.078125 56 35.796875 56 
Q 45.21875 56 50.046875 50.171875 
Q 54.890625 44.34375 54.890625 33.015625 
z
" id="DejaVuSans-110"/>
      <path d="M 52 44.1875 
Q 55.375 50.25 60.0625 53.125 
Q 64.75 56 71.09375 56 
Q 79.640625 56 84.28125 50.015625 
Q 88.921875 44.046875 88.921875 33.015625 
L 88.921875 0 
L 79.890625 0 
L 79.890625 32.71875 
Q 79.890625 40.578125 77.09375 44.375 
Q 74.3125 48.1875 68.609375 48.1875 
Q 61.625 48.1875 57.5625 43.546875 
Q 53.515625 38.921875 53.515625 30.90625 
L 53.515625 0 
L 44.484375 0 
L 44.484375 32.71875 
Q 44.484375 40.625 41.703125 44.40625 
Q 38.921875 48.1875 33.109375 48.1875 
Q 26.21875 48.1875 22.15625 43.53125 
Q 18.109375 38.875 18.109375 30.90625 
L 18.109375 0 
L 9.078125 0 
L 9.078125 54.6875 
L 18.109375 54.6875 
L 18.109375 46.1875 
Q 21.1875 51.21875 25.484375 53.609375 
Q 29.78125 56 35.6875 56 
Q 41.65625 56 45.828125 52.96875 
Q 50 49.953125 52 44.1875 
z
" id="DejaVuSans-109"/>
      <path d="M 8.015625 75.875 
L 15.828125 75.875 
Q 23.140625 64.359375 26.78125 53.3125 
Q 30.421875 42.28125 30.421875 31.390625 
Q 30.421875 20.453125 26.78125 9.375 
Q 23.140625 -1.703125 15.828125 -13.1875 
L 8.015625 -13.1875 
Q 14.5 -2 17.703125 9.0625 
Q 20.90625 20.125 20.90625 31.390625 
Q 20.90625 42.671875 17.703125 53.65625 
Q 14.5 64.65625 8.015625 75.875 
z
" id="DejaVuSans-41"/>
     </defs>
     <g transform="translate(208.763125 335.860562)scale(0.1 -0.1)">
      <use xlink:href="#DejaVuSans-114"/>
      <use x="41.113281" xlink:href="#DejaVuSans-97"/>
      <use x="102.392578" xlink:href="#DejaVuSans-100"/>
      <use x="165.869141" xlink:href="#DejaVuSans-105"/>
      <use x="193.652344" xlink:href="#DejaVuSans-117"/>
      <use x="257.03125" xlink:href="#DejaVuSans-115"/>
      <use x="309.130859" xlink:href="#DejaVuSans-40"/>
      <use x="348.144531" xlink:href="#DejaVuSans-110"/>
      <use x="411.523438" xlink:href="#DejaVuSans-109"/>
      <use x="508.935547" xlink:href="#DejaVuSans-41"/>
     </g>
    </g>
   </g>
   <g id="matplotlib.axis_2">
    <g id="ytick_1">
     <g id="line2d_10">
      <defs>
       <path d="M 0 0 
L -3.5 0 
" id="mbd4b5c26fd" style="stroke:#000000;stroke-width:0.8;"/>
      </defs>
      <g>
       <use style="stroke:#000000;stroke-width:0.8;" x="57.6" xlink:href="#mbd4b5c26fd" y="293.990481"/>
      </g>
     </g>
     <g id="text_11">
      <!-- 0.0 -->
      <defs>
       <path d="M 10.6875 12.40625 
L 21 12.40625 
L 21 0 
L 10.6875 0 
z
" id="DejaVuSans-46"/>
      </defs>
      <g transform="translate(34.696875 297.7897)scale(0.1 -0.1)">
       <use xlink:href="#DejaVuSans-48"/>
       <use x="63.623047" xlink:href="#DejaVuSans-46"/>
       <use x="95.410156" xlink:href="#DejaVuSans-48"/>
      </g>
     </g>
    </g>
    <g id="ytick_2">
     <g id="line2d_11">
      <g>
       <use style="stroke:#000000;stroke-width:0.8;" x="57.6" xlink:href="#mbd4b5c26fd" y="238.537668"/>
      </g>
     </g>
     <g id="text_12">
      <!-- 0.5 -->
      <g transform="translate(34.696875 242.336886)scale(0.1 -0.1)">
       <use xlink:href="#DejaVuSans-48"/>
       <use x="63.623047" xlink:href="#DejaVuSans-46"/>
       <use x="95.410156" xlink:href="#DejaVuSans-53"/>
      </g>
     </g>
    </g>
    <g id="ytick_3">
     <g id="line2d_12">
      <g>
       <use style="stroke:#000000;stroke-width:0.8;" x="57.6" xlink:href="#mbd4b5c26fd" y="183.084854"/>
      </g>
     </g>
     <g id="text_13">
      <!-- 1.0 -->
      <g transform="translate(34.696875 186.884073)scale(0.1 -0.1)">
       <use xlink:href="#DejaVuSans-49"/>
       <use x="63.623047" xlink:href="#DejaVuSans-46"/>
       <use x="95.410156" xlink:href="#DejaVuSans-48"/>
      </g>
     </g>
    </g>
    <g id="ytick_4">
     <g id="line2d_13">
      <g>
       <use style="stroke:#000000;stroke-width:0.8;" x="57.6" xlink:href="#mbd4b5c26fd" y="127.632041"/>
      </g>
     </g>
     <g id="text_14">
      <!-- 1.5 -->
      <g transform="translate(34.696875 131.431259)scale(0.1 -0.1)">
       <use xlink:href="#DejaVuSans-49"/>
       <use x="63.623047" xlink:href="#DejaVuSans-46"/>
       <use x="95.410156" xlink:href="#DejaVuSans-53"/>
      </g>
     </g>
    </g>
    <g id="ytick_5">
     <g id="line2d_14">
      <g>
       <use style="stroke:#000000;stroke-width:0.8;" x="57.6" xlink:href="#mbd4b5c26fd" y="72.179227"/>
      </g>
     </g>
     <g id="text_15">
      <!-- 2.0 -->
      <g transform="translate(34.696875 75.978446)scale(0.1 -0.1)">
       <use xlink:href="#DejaVuSans-50"/>
       <use x="63.623047" xlink:href="#DejaVuSans-46"/>
       <use x="95.410156" xlink:href="#DejaVuSans-48"/>
      </g>
     </g>
    </g>
   </g>
   <g id="line2d_15">
    <path clip-path="url(#p627742b62b)" d="M 73.832727 293.990481 
L 77.079273 293.746948 
L 80.325818 293.501895 
L 83.572364 293.255934 
L 86.818909 293.008832 
L 90.065455 292.759606 
L 93.312 292.506653 
L 96.558545 292.247864 
L 99.805091 291.980738 
L 103.051636 291.702471 
L 106.298182 291.410037 
L 109.544727 291.100273 
L 112.791273 290.769977 
L 116.037818 290.416027 
L 119.284364 290.035526 
L 122.530909 289.62597 
L 125.777455 289.185421 
L 129.024 288.712658 
L 132.270545 288.207271 
L 135.517091 287.669673 
L 138.763636 287.100994 
L 142.010182 286.502875 
L 145.256727 285.877162 
L 148.503273 285.22556 
L 151.749818 284.549278 
L 154.996364 283.848725 
L 158.242909 283.123276 
L 161.489455 282.371121 
L 164.736 281.589187 
L 167.982545 280.773118 
L 171.229091 279.917279 
L 174.475636 279.014781 
L 177.722182 278.057511 
L 180.968727 277.036166 
L 184.215273 275.940309 
L 187.461818 274.75848 
L 190.708364 273.478399 
L 193.954909 272.087344 
L 197.201455 270.572745 
L 200.448 268.923125 
L 203.694545 267.129393 
L 206.941091 265.186518 
L 210.187636 263.095395 
L 213.434182 260.864531 
L 216.680727 258.510963 
L 219.927273 256.059747 
L 223.173818 253.541648 
L 226.420364 250.989255 
L 229.666909 248.432438 
L 232.913455 245.894349 
L 236.16 243.388906 
L 239.406545 240.919992 
L 242.653091 238.48203 
L 245.899636 236.06128 
L 249.146182 233.637318 
L 252.392727 231.184374 
L 255.639273 228.672541 
L 258.885818 226.069109 
L 262.132364 223.340541 
L 265.378909 220.455828 
L 268.625455 217.391963 
L 271.872 214.141688 
L 275.118545 210.722044 
L 278.365091 207.179687 
L 281.611636 203.587614 
L 284.858182 200.030995 
L 288.104727 196.586986 
L 291.351273 193.308213 
L 294.597818 190.216513 
L 297.844364 187.306091 
L 301.090909 184.55091 
L 304.337455 181.911581 
L 307.584 179.339469 
L 310.830545 176.777506 
L 314.077091 174.157801 
L 317.323636 171.395979 
L 320.570182 168.382043 
L 323.816727 164.968933 
L 327.063273 160.968295 
L 330.309818 156.19546 
L 333.556364 150.703585 
L 336.802909 145.770097 
L 340.049455 201.19996 
L 343.296 180.385867 
L 346.542545 176.727641 
L 349.789091 172.662218 
L 353.035636 168.772075 
L 356.282182 165.039924 
L 359.528727 161.402687 
L 362.775273 157.825043 
L 366.021818 154.307108 
L 369.268364 150.876146 
L 372.514909 147.572197 
L 375.761455 144.433062 
L 379.008 141.483503 
L 382.254545 138.730855 
L 385.501091 136.165839 
L 388.747636 133.765502 
L 391.994182 131.495288 
L 395.240727 129.307683 
L 398.487273 127.133944 
" style="fill:none;stroke:#1f77b4;stroke-linecap:square;stroke-width:2;"/>
   </g>
   <g id="line2d_16">
    <path clip-path="url(#p627742b62b)" d="M 73.832727 293.990481 
L 77.079273 293.496315 
L 80.325818 293.002818 
L 83.572364 292.511104 
L 86.818909 292.021442 
L 90.065455 291.533386 
L 93.312 291.045926 
L 96.558545 290.557631 
L 99.805091 290.066775 
L 103.051636 289.571417 
L 106.298182 289.069473 
L 109.544727 288.558762 
L 112.791273 288.037067 
L 116.037818 287.502208 
L 119.284364 286.952146 
L 122.530909 286.385112 
L 125.777455 285.799747 
L 129.024 285.195234 
L 132.270545 284.571379 
L 135.517091 283.928629 
L 138.763636 283.267987 
L 142.010182 282.590844 
L 145.256727 281.89873 
L 148.503273 281.193028 
L 151.749818 280.474693 
L 154.996364 279.744009 
L 158.242909 279.000412 
L 161.489455 278.242387 
L 164.736 277.467421 
L 167.982545 276.672001 
L 171.229091 275.851634 
L 174.475636 275.000858 
L 177.722182 274.113255 
L 180.968727 273.181425 
L 184.215273 272.196962 
L 187.461818 271.1504 
L 190.708364 270.03117 
L 193.954909 268.827564 
L 197.201455 267.526734 
L 200.448 266.114749 
L 203.694545 264.576749 
L 206.941091 262.897252 
L 210.187636 261.060713 
L 213.434182 259.052441 
L 216.680727 256.860041 
L 219.927273 254.475454 
L 223.173818 251.897569 
L 226.420364 249.134965 
L 229.666909 246.20791 
L 232.913455 243.14838 
L 236.16 239.997075 
L 239.406545 236.797551 
L 242.653091 233.589013 
L 245.899636 230.400142 
L 249.146182 227.245771 
L 252.392727 224.126769 
L 255.639273 221.032298 
L 258.885818 217.943109 
L 262.132364 214.834627 
L 265.378909 211.678409 
L 268.625455 208.438645 
L 271.872 205.050655 
L 275.118545 201.304558 
L 278.365091 195.722791 
L 281.611636 199.567962 
L 284.858182 194.775519 
L 288.104727 191.226522 
L 291.351273 188.081671 
L 294.597818 185.171191 
L 297.844364 182.448416 
L 301.090909 179.892252 
L 304.337455 177.486954 
L 307.584 175.21731 
L 310.830545 173.067718 
L 314.077091 171.02222 
L 317.323636 169.064645 
L 320.570182 167.178578 
L 323.816727 165.347059 
L 327.063273 163.551851 
L 330.309818 161.771941 
L 333.556364 159.980356 
L 336.802909 158.136943 
L 340.049455 156.170958 
L 343.296 153.947861 
L 346.542545 151.530326 
L 349.789091 152.480981 
L 353.035636 152.388689 
L 356.282182 150.342699 
L 359.528727 148.235593 
L 362.775273 146.15245 
L 366.021818 144.05663 
L 369.268364 141.921265 
L 372.514909 139.731697 
L 375.761455 137.482332 
L 379.008 135.174732 
L 382.254545 132.816248 
L 385.501091 130.418332 
L 388.747636 127.993872 
L 391.994182 125.552898 
L 395.240727 123.095319 
L 398.487273 120.59671 
" style="fill:none;stroke:#ff7f0e;stroke-linecap:square;stroke-width:2;"/>
   </g>
   <g id="line2d_17">
    <path clip-path="url(#p627742b62b)" d="M 73.832727 293.990481 
L 77.079273 287.601636 
L 80.325818 279.794201 
L 83.572364 272.893125 
L 86.818909 268.054363 
L 90.065455 264.831131 
L 93.312 262.594644 
L 96.558545 260.940708 
L 99.805091 259.637557 
L 103.051636 258.549866 
L 106.298182 257.594211 
L 109.544727 256.715607 
L 112.791273 255.874989 
L 116.037818 255.042219 
L 119.284364 254.191904 
L 122.530909 253.300702 
L 125.777455 252.345431 
L 129.024 251.301642 
L 132.270545 250.142528 
L 135.517091 248.838252 
L 138.763636 247.355999 
L 142.010182 245.661444 
L 145.256727 243.722759 
L 148.503273 241.518494 
L 151.749818 239.0498 
L 154.996364 236.354246 
L 158.242909 233.513227 
L 161.489455 230.642878 
L 164.736 227.866979 
L 167.982545 225.285409 
L 171.229091 222.956017 
L 174.475636 220.895458 
L 177.722182 219.091367 
L 180.968727 217.515996 
L 184.215273 216.136234 
L 187.461818 214.919346 
L 190.708364 213.835608 
L 193.954909 212.859126 
L 197.201455 211.967783 
L 200.448 211.142833 
L 203.694545 210.368455 
L 206.941091 209.631478 
L 210.187636 208.92168 
L 213.434182 208.234006 
L 216.680727 207.579347 
L 219.927273 207.057995 
L 223.173818 208.197688 
L 226.420364 204.675017 
L 229.666909 203.741606 
L 232.913455 202.66324 
L 236.16 201.319313 
L 239.406545 199.594386 
L 242.653091 197.621775 
L 245.899636 188.941162 
L 249.146182 206.383384 
L 252.392727 201.241036 
L 255.639273 195.564771 
L 258.885818 188.179157 
L 262.132364 177.851292 
L 265.378909 166.59377 
L 268.625455 156.973816 
L 271.872 154.345827 
L 275.118545 152.461397 
L 278.365091 150.957731 
L 281.611636 149.637875 
L 284.858182 148.389739 
L 288.104727 147.139753 
L 291.351273 145.830149 
L 294.597818 144.406652 
L 297.844364 142.81032 
L 301.090909 140.971001 
L 304.337455 138.802355 
L 307.584 136.201953 
L 310.830545 110.693592 
L 314.077091 109.512538 
L 317.323636 107.309493 
L 320.570182 104.381436 
L 323.816727 101.200549 
L 327.063273 98.157551 
L 330.309818 95.421617 
L 333.556364 92.985845 
L 336.802909 90.764449 
L 340.049455 88.652348 
L 343.296 86.54544 
L 346.542545 84.341516 
L 349.789091 81.935409 
L 353.035636 79.216914 
L 356.282182 76.081902 
L 359.528727 72.472927 
L 362.775273 68.458684 
L 366.021818 64.307246 
L 369.268364 60.440881 
L 372.514909 57.258019 
L 375.761455 55.001546 
L 379.008 53.770858 
L 382.254545 53.568 
L 385.501091 54.261664 
L 388.747636 55.489766 
L 391.994182 56.683805 
L 395.240727 57.310726 
L 398.487273 57.070533 
" style="fill:none;stroke:#2ca02c;stroke-linecap:square;stroke-width:2;"/>
   </g>
   <g id="line2d_18">
    <path clip-path="url(#p627742b62b)" d="M 73.832727 293.990481 
L 77.079273 292.816818 
L 80.325818 291.592117 
L 83.572364 290.286501 
L 86.818909 288.870205 
L 90.065455 287.314431 
L 93.312 285.5939 
L 96.558545 283.69167 
L 99.805091 281.6062 
L 103.051636 279.359157 
L 106.298182 277.000179 
L 109.544727 274.603756 
L 112.791273 272.25627 
L 116.037818 270.037606 
L 119.284364 268.00606 
L 122.530909 266.192599 
L 125.777455 264.603986 
L 129.024 263.230278 
L 132.270545 262.052442 
L 135.517091 261.048051 
L 138.763636 260.194792 
L 142.010182 259.472285 
L 145.256727 258.862829 
L 148.503273 258.351543 
L 151.749818 257.926216 
L 154.996364 257.577017 
L 158.242909 257.29616 
L 161.489455 257.077558 
L 164.736 256.916489 
L 167.982545 256.809272 
L 171.229091 256.752956 
L 174.475636 256.745023 
L 177.722182 256.783102 
L 180.968727 256.864673 
L 184.215273 256.986746 
L 187.461818 257.14547 
L 190.708364 257.3356 
L 193.954909 257.54972 
L 197.201455 257.777029 
L 200.448 258.00138 
L 203.694545 258.19801 
L 206.941091 258.327811 
L 210.187636 258.326774 
L 213.434182 258.085041 
L 216.680727 257.401548 
L 219.927273 255.875498 
L 223.173818 252.623753 
L 226.420364 245.596951 
L 229.666909 230.849545 
L 232.913455 199.769938 
L 236.16 180.292104 
L 239.406545 173.981335 
L 242.653091 170.680711 
L 245.899636 168.197077 
L 249.146182 165.813479 
L 252.392727 163.291072 
L 255.639273 158.947395 
L 258.885818 147.940956 
L 262.132364 137.777135 
L 265.378909 133.543172 
L 268.625455 131.725147 
L 271.872 130.826776 
L 275.118545 130.342353 
L 278.365091 130.060471 
L 281.611636 129.871378 
L 284.858182 129.705607 
L 288.104727 129.509977 
L 291.351273 129.235833 
L 294.597818 128.831301 
L 297.844364 128.233988 
L 301.090909 127.361731 
L 304.337455 126.099074 
L 307.584 124.277824 
L 310.830545 121.656604 
L 314.077091 117.935585 
L 317.323636 112.926268 
L 320.570182 106.976091 
L 323.816727 101.099487 
L 327.063273 96.163763 
L 330.309818 92.343871 
L 333.556364 89.482849 
L 336.802909 87.493775 
L 340.049455 74.728839 
L 343.296 73.708357 
L 346.542545 72.818526 
L 349.789091 71.973244 
L 353.035636 71.114325 
L 356.282182 70.207772 
L 359.528727 95.285414 
L 362.775273 93.243907 
L 366.021818 90.723499 
L 369.268364 87.948399 
L 372.514909 85.042433 
L 375.761455 82.070117 
L 379.008 79.056157 
L 382.254545 75.99503 
L 385.501091 72.857477 
L 388.747636 69.598759 
L 391.994182 66.173964 
L 395.240727 62.564884 
L 398.487273 58.809774 
" style="fill:none;stroke:#d62728;stroke-linecap:square;stroke-width:2;"/>
   </g>
   <g id="line2d_19">
    <path clip-path="url(#p627742b62b)" d="M 73.832727 293.990481 
L 77.079273 294.190744 
L 80.325818 294.352874 
L 83.572364 294.476719 
L 86.818909 294.56499 
L 90.065455 294.622447 
L 93.312 294.655218 
L 96.558545 294.670259 
L 99.805091 294.674891 
L 103.051636 294.676366 
L 106.298182 294.681419 
L 109.544727 294.695837 
L 112.791273 294.724047 
L 116.037818 294.768791 
L 119.284364 294.830899 
L 122.530909 294.909201 
L 125.777455 295.000593 
L 129.024 295.100252 
L 132.270545 295.201995 
L 135.517091 295.298728 
L 138.763636 295.382941 
L 142.010182 295.447165 
L 145.256727 295.484333 
L 148.503273 295.488 
L 151.749818 295.452433 
L 154.996364 295.372587 
L 158.242909 295.244018 
L 161.489455 295.062787 
L 164.736 294.825377 
L 167.982545 294.528638 
L 171.229091 294.16974 
L 174.475636 293.746119 
L 177.722182 293.255373 
L 180.968727 292.695088 
L 184.215273 292.062592 
L 187.461818 291.354639 
L 190.708364 290.567056 
L 193.954909 289.694391 
L 197.201455 288.729601 
L 200.448 287.663829 
L 203.694545 286.486321 
L 206.941091 285.18455 
L 210.187636 283.744637 
L 213.434182 282.152178 
L 216.680727 280.393603 
L 219.927273 278.458144 
L 223.173818 276.340309 
L 226.420364 274.042464 
L 229.666909 271.576714 
L 232.913455 268.965003 
L 236.16 266.236652 
L 239.406545 263.423523 
L 242.653091 260.554283 
L 245.899636 257.649903 
L 249.146182 254.722018 
L 252.392727 251.774479 
L 255.639273 248.807337 
L 258.885818 245.822317 
L 262.132364 242.830026 
L 265.378909 239.862815 
L 268.625455 237.009208 
L 271.872 234.543274 
L 275.118545 233.669727 
L 278.365091 223.848098 
L 281.611636 264.140952 
L 284.858182 259.761275 
L 288.104727 240.203231 
L 291.351273 223.589487 
L 294.597818 217.007308 
L 297.844364 213.046836 
L 301.090909 210.046097 
L 304.337455 207.552041 
L 307.584 205.39218 
L 310.830545 203.482952 
L 314.077091 201.776891 
L 317.323636 200.245203 
L 320.570182 198.871739 
L 323.816727 197.651749 
L 327.063273 196.593622 
L 330.309818 195.723834 
L 333.556364 195.096516 
L 336.802909 194.809932 
L 340.049455 195.029062 
L 343.296 195.986784 
L 346.542545 197.813715 
L 349.789091 199.815977 
L 353.035636 199.371237 
L 356.282182 192.586247 
L 359.528727 182.231935 
L 362.775273 175.784564 
L 366.021818 172.06407 
L 369.268364 169.300839 
L 372.514909 166.823817 
L 375.761455 164.38297 
L 379.008 161.870815 
L 382.254545 159.225563 
L 385.501091 156.38748 
L 388.747636 153.266325 
L 391.994182 149.702564 
L 395.240727 145.416838 
L 398.487273 139.98846 
" style="fill:none;stroke:#9467bd;stroke-linecap:square;stroke-width:2;"/>
   </g>
   <g id="line2d_20">
    <path clip-path="url(#p627742b62b)" d="M 73.832727 293.990481 
L 77.079273 293.860162 
L 80.325818 293.70522 
L 83.572364 293.526874 
L 86.818909 293.326625 
L 90.065455 293.106181 
L 93.312 292.867492 
L 96.558545 292.612782 
L 99.805091 292.344517 
L 103.051636 292.065268 
L 106.298182 291.777496 
L 109.544727 291.483273 
L 112.791273 291.184035 
L 116.037818 290.880385 
L 119.284364 290.572 
L 122.530909 290.257644 
L 125.777455 289.935271 
L 129.024 289.602194 
L 132.270545 289.255272 
L 135.517091 288.89108 
L 138.763636 288.506038 
L 142.010182 288.09648 
L 145.256727 287.658661 
L 148.503273 287.188736 
L 151.749818 286.682723 
L 154.996364 286.136483 
L 158.242909 285.545743 
L 161.489455 284.906158 
L 164.736 284.213409 
L 167.982545 283.463309 
L 171.229091 282.651896 
L 174.475636 281.775466 
L 177.722182 280.830543 
L 180.968727 279.81377 
L 184.215273 278.721744 
L 187.461818 277.550818 
L 190.708364 276.29695 
L 193.954909 274.955627 
L 197.201455 273.521949 
L 200.448 271.990926 
L 203.694545 270.358013 
L 206.941091 268.61991 
L 210.187636 266.775549 
L 213.434182 264.827158 
L 216.680727 262.78115 
L 219.927273 260.648542 
L 223.173818 258.44457 
L 226.420364 256.187362 
L 229.666909 253.895752 
L 232.913455 251.586648 
L 236.16 249.272535 
L 239.406545 246.959615 
L 242.653091 244.646859 
L 245.899636 242.325926 
L 249.146182 239.981739 
L 252.392727 237.593465 
L 255.639273 235.135832 
L 258.885818 232.580914 
L 262.132364 229.900878 
L 265.378909 227.072386 
L 268.625455 224.083323 
L 271.872 220.941623 
L 275.118545 217.683969 
L 278.365091 214.379756 
L 281.611636 211.125899 
L 284.858182 208.033698 
L 288.104727 205.217879 
L 291.351273 202.804783 
L 294.597818 200.987468 
L 297.844364 200.218521 
L 301.090909 202.005857 
L 304.337455 212.045377 
L 307.584 227.050937 
L 310.830545 231.435952 
L 314.077091 231.595712 
L 317.323636 230.240634 
L 320.570182 227.974787 
L 323.816727 224.844688 
L 327.063273 220.679631 
L 330.309818 215.29643 
L 333.556364 208.885368 
L 336.802909 202.30975 
L 340.049455 196.532371 
L 343.296 191.870693 
L 346.542545 188.15039 
L 349.789091 185.106055 
L 353.035636 182.543248 
L 356.282182 180.359182 
L 359.528727 178.530511 
L 362.775273 177.09811 
L 366.021818 176.147384 
L 369.268364 175.774069 
L 372.514909 176.026563 
L 375.761455 176.83359 
L 379.008 177.968413 
L 382.254545 179.113608 
L 385.501091 179.992482 
L 388.747636 180.441422 
L 391.994182 180.370957 
L 395.240727 179.511745 
L 398.487273 178.180727 
" style="fill:none;stroke:#8c564b;stroke-linecap:square;stroke-width:2;"/>
   </g>
   <g id="line2d_21">
    <path clip-path="url(#p627742b62b)" d="M 73.832727 293.990481 
L 77.079273 293.645662 
L 80.325818 293.296884 
L 83.572364 292.943415 
L 86.818909 292.583773 
L 90.065455 292.216117 
L 93.312 291.838602 
L 96.558545 291.449629 
L 99.805091 291.047998 
L 103.051636 290.632926 
L 106.298182 290.203989 
L 109.544727 289.76099 
L 112.791273 289.303817 
L 116.037818 288.832321 
L 119.284364 288.346233 
L 122.530909 287.845127 
L 125.777455 287.328427 
L 129.024 286.795419 
L 132.270545 286.245264 
L 135.517091 285.676977 
L 138.763636 285.089376 
L 142.010182 284.48099 
L 145.256727 283.849965 
L 148.503273 283.193975 
L 151.749818 282.510173 
L 154.996364 281.795198 
L 158.242909 281.045246 
L 161.489455 280.256199 
L 164.736 279.423783 
L 167.982545 278.543727 
L 171.229091 277.611892 
L 174.475636 276.624324 
L 177.722182 275.577229 
L 180.968727 274.466854 
L 184.215273 273.289299 
L 187.461818 272.040293 
L 190.708364 270.714988 
L 193.954909 269.307831 
L 197.201455 267.812578 
L 200.448 266.222504 
L 203.694545 264.530877 
L 206.941091 262.731709 
L 210.187636 260.820812 
L 213.434182 258.797046 
L 216.680727 256.663606 
L 219.927273 254.428985 
L 223.173818 252.107244 
L 226.420364 249.717172 
L 229.666909 247.280265 
L 232.913455 244.817773 
L 236.16 242.34749 
L 239.406545 239.881031 
L 242.653091 237.422151 
L 245.899636 234.966249 
L 249.146182 232.500834 
L 252.392727 230.006633 
L 255.639273 227.459065 
L 258.885818 224.830082 
L 262.132364 222.090692 
L 265.378909 219.214752 
L 268.625455 216.184713 
L 271.872 212.999462 
L 275.118545 209.682886 
L 278.365091 206.289631 
L 281.611636 202.903708 
L 284.858182 199.629402 
L 288.104727 196.582665 
L 291.351273 193.902272 
L 294.597818 191.82383 
L 297.844364 190.986246 
L 301.090909 194.023638 
L 304.337455 209.566376 
L 307.584 219.708771 
L 310.830545 219.834088 
L 314.077091 216.556109 
L 317.323636 210.913638 
L 320.570182 203.350455 
L 323.816727 195.515714 
L 327.063273 189.135371 
L 330.309818 184.418597 
L 333.556364 180.865787 
L 336.802909 178.031812 
L 340.049455 175.637053 
L 343.296 173.517497 
L 346.542545 171.580296 
L 349.789091 169.780587 
L 353.035636 168.113342 
L 356.282182 166.615046 
L 359.528727 165.371657 
L 362.775273 164.527881 
L 366.021818 164.284039 
L 369.268364 164.842031 
L 372.514909 166.232354 
L 375.761455 168.055564 
L 379.008 169.499975 
L 382.254545 169.771704 
L 385.501091 168.2165 
L 388.747636 163.748176 
L 391.994182 154.506019 
L 395.240727 142.540864 
L 398.487273 132.858449 
" style="fill:none;stroke:#e377c2;stroke-linecap:square;stroke-width:2;"/>
   </g>
   <g id="line2d_22">
    <path clip-path="url(#p627742b62b)" d="M 73.832727 293.990481 
L 77.079273 293.522486 
L 80.325818 293.052172 
L 83.572364 292.579707 
L 86.818909 292.104142 
L 90.065455 291.623813 
L 93.312 291.136702 
L 96.558545 290.640732 
L 99.805091 290.133959 
L 103.051636 289.614677 
L 106.298182 289.08144 
L 109.544727 288.533042 
L 112.791273 287.968483 
L 116.037818 287.386943 
L 119.284364 286.787773 
L 122.530909 286.170515 
L 125.777455 285.534919 
L 129.024 284.880954 
L 132.270545 284.208771 
L 135.517091 283.518621 
L 138.763636 282.81072 
L 142.010182 282.085075 
L 145.256727 281.341308 
L 148.503273 280.578502 
L 151.749818 279.795107 
L 154.996364 278.988928 
L 158.242909 278.157191 
L 161.489455 277.296684 
L 164.736 276.403931 
L 167.982545 275.475373 
L 171.229091 274.50751 
L 174.475636 273.496968 
L 177.722182 272.440467 
L 180.968727 271.334687 
L 184.215273 270.176043 
L 187.461818 268.960392 
L 190.708364 267.682712 
L 193.954909 266.336801 
L 197.201455 264.915032 
L 200.448 263.408211 
L 203.694545 261.805597 
L 206.941091 260.095135 
L 210.187636 258.264009 
L 213.434182 256.299613 
L 216.680727 254.191043 
L 219.927273 251.931135 
L 223.173818 249.518879 
L 226.420364 246.961716 
L 229.666909 244.27685 
L 232.913455 241.490592 
L 236.16 238.635169 
L 239.406545 235.743451 
L 242.653091 232.843105 
L 245.899636 229.952058 
L 249.146182 227.076481 
L 252.392727 224.211359 
L 255.639273 221.3429 
L 258.885818 218.451815 
L 262.132364 215.516911 
L 265.378909 212.51889 
L 268.625455 209.444932 
L 271.872 206.295627 
L 275.118545 203.099948 
L 278.365091 199.966323 
L 281.611636 197.361901 
L 284.858182 198.745247 
L 288.104727 213.148051 
L 291.351273 201.282904 
L 294.597818 191.46303 
L 297.844364 186.406529 
L 301.090909 182.890591 
L 304.337455 180.048349 
L 307.584 177.596311 
L 310.830545 175.411504 
L 314.077091 173.427013 
L 317.323636 171.600043 
L 320.570182 169.900439 
L 323.816727 168.306157 
L 327.063273 166.801629 
L 330.309818 165.377775 
L 333.556364 164.033637 
L 336.802909 162.780485 
L 340.049455 161.650798 
L 343.296 160.71764 
L 346.542545 160.135272 
L 349.789091 160.19893 
L 353.035636 161.159909 
L 356.282182 161.248882 
L 359.528727 156.03417 
L 362.775273 149.783696 
L 366.021818 145.906391 
L 369.268364 143.127234 
L 372.514909 140.686641 
L 375.761455 138.325898 
L 379.008 135.960265 
L 382.254545 133.56561 
L 385.501091 131.138687 
L 388.747636 128.678722 
L 391.994182 126.173869 
L 395.240727 123.584328 
L 398.487273 120.808837 
" style="fill:none;stroke:#7f7f7f;stroke-linecap:square;stroke-width:2;"/>
   </g>
   <g id="line2d_23">
    <path clip-path="url(#p627742b62b)" d="M 73.832727 293.990481 
L 77.079273 293.354391 
L 80.325818 292.717607 
L 83.572364 292.081335 
L 86.818909 291.445527 
L 90.065455 290.809233 
L 93.312 290.170936 
L 96.558545 289.528828 
L 99.805091 288.881019 
L 103.051636 288.225658 
L 106.298182 287.561001 
L 109.544727 286.885446 
L 112.791273 286.197544 
L 116.037818 285.496039 
L 119.284364 284.779909 
L 122.530909 284.048428 
L 125.777455 283.301221 
L 129.024 282.538289 
L 132.270545 281.759982 
L 135.517091 280.966904 
L 138.763636 280.159755 
L 142.010182 279.339121 
L 145.256727 278.505253 
L 148.503273 277.657873 
L 151.749818 276.796045 
L 154.996364 275.918134 
L 158.242909 275.021861 
L 161.489455 274.104434 
L 164.736 273.162734 
L 167.982545 272.193507 
L 171.229091 271.193524 
L 174.475636 270.159675 
L 177.722182 269.088963 
L 180.968727 267.978398 
L 184.215273 266.824784 
L 187.461818 265.624442 
L 190.708364 264.37287 
L 193.954909 263.064394 
L 197.201455 261.691827 
L 200.448 260.246161 
L 203.694545 258.716304 
L 206.941091 257.088913 
L 210.187636 255.34836 
L 213.434182 253.476934 
L 216.680727 251.455447 
L 219.927273 249.264461 
L 223.173818 246.886386 
L 226.420364 244.308615 
L 229.666909 241.527452 
L 232.913455 238.551948 
L 236.16 235.405886 
L 239.406545 232.125995 
L 242.653091 228.755626 
L 245.899636 225.335644 
L 249.146182 221.896235 
L 252.392727 218.453082 
L 255.639273 215.009034 
L 258.885818 211.560181 
L 262.132364 208.105043 
L 265.378909 204.659362 
L 268.625455 201.303264 
L 271.872 198.647226 
L 275.118545 195.049762 
L 278.365091 189.999049 
L 281.611636 186.673751 
L 284.858182 183.463804 
L 288.104727 180.396454 
L 291.351273 177.49707 
L 294.597818 174.77669 
L 297.844364 172.234975 
L 301.090909 169.863574 
L 304.337455 167.649133 
L 307.584 165.575687 
L 310.830545 163.626391 
L 314.077091 161.784703 
L 317.323636 160.035164 
L 320.570182 158.36398 
L 323.816727 156.759559 
L 327.063273 155.213114 
L 330.309818 153.718985 
L 333.556364 152.271078 
L 336.802909 150.824553 
L 340.049455 148.941949 
L 343.296 98.776311 
L 346.542545 143.19791 
L 349.789091 142.222888 
L 353.035636 140.951969 
L 356.282182 139.474223 
L 359.528727 137.862166 
L 362.775273 136.145652 
L 366.021818 134.335042 
L 369.268364 132.431642 
L 372.514909 130.432012 
L 375.761455 128.329599 
L 379.008 126.1147 
L 382.254545 123.772635 
L 385.501091 121.278932 
L 388.747636 118.588608 
L 391.994182 115.612187 
L 395.240727 112.157543 
L 398.487273 107.767401 
" style="fill:none;stroke:#bcbd22;stroke-linecap:square;stroke-width:2;"/>
   </g>
   <g id="line2d_24">
    <path clip-path="url(#p627742b62b)" d="M 73.832727 293.990481 
L 77.079273 293.275433 
L 80.325818 292.560134 
L 83.572364 291.846303 
L 86.818909 291.134382 
L 90.065455 290.423853 
L 93.312 289.713553 
L 96.558545 289.001943 
L 99.805091 288.287313 
L 103.051636 287.567907 
L 106.298182 286.842001 
L 109.544727 286.107951 
L 112.791273 285.364228 
L 116.037818 284.609465 
L 119.284364 283.842526 
L 122.530909 283.062583 
L 125.777455 282.269178 
L 129.024 281.462268 
L 132.270545 280.6422 
L 135.517091 279.809621 
L 138.763636 278.965312 
L 142.010182 278.109976 
L 145.256727 277.244003 
L 148.503273 276.367266 
L 151.749818 275.478974 
L 154.996364 274.577627 
L 158.242909 273.66106 
L 161.489455 272.726567 
L 164.736 271.771091 
L 167.982545 270.791417 
L 171.229091 269.784337 
L 174.475636 268.746754 
L 177.722182 267.675691 
L 180.968727 266.568191 
L 184.215273 265.42113 
L 187.461818 264.230934 
L 190.708364 262.993259 
L 193.954909 261.702627 
L 197.201455 260.352071 
L 200.448 258.932779 
L 203.694545 257.433764 
L 206.941091 255.841576 
L 210.187636 254.140071 
L 213.434182 252.310345 
L 216.680727 250.330929 
L 219.927273 248.178511 
L 223.173818 245.829481 
L 226.420364 243.262673 
L 229.666909 240.463464 
L 232.913455 237.428804 
L 236.16 234.171633 
L 239.406545 230.722036 
L 242.653091 227.122666 
L 245.899636 223.418455 
L 249.146182 219.644264 
L 252.392727 215.815491 
L 255.639273 211.923442 
L 258.885818 207.929521 
L 262.132364 203.731458 
L 265.378909 198.934855 
L 268.625455 164.188907 
L 271.872 196.787135 
L 275.118545 191.133169 
L 278.365091 186.894224 
L 281.611636 183.090582 
L 284.858182 179.573343 
L 288.104727 176.306236 
L 291.351273 173.273533 
L 294.597818 170.460409 
L 297.844364 167.848961 
L 301.090909 165.418474 
L 304.337455 163.14662 
L 307.584 161.010507 
L 310.830545 158.987215 
L 314.077091 157.053737 
L 317.323636 155.186154 
L 320.570182 153.357527 
L 323.816727 151.532977 
L 327.063273 149.657273 
L 330.309818 147.620208 
L 333.556364 145.170172 
L 336.802909 103.152721 
L 340.049455 87.899858 
L 343.296 143.29261 
L 346.542545 141.792398 
L 349.789091 140.085818 
L 353.035636 138.338066 
L 356.282182 136.562881 
L 359.528727 134.752074 
L 362.775273 132.893772 
L 366.021818 130.9751 
L 369.268364 128.982225 
L 372.514909 126.899772 
L 375.761455 124.709794 
L 379.008 122.389794 
L 382.254545 119.908702 
L 385.501091 117.218376 
L 388.747636 114.234915 
L 391.994182 110.794802 
L 395.240727 106.540286 
L 398.487273 100.56568 
" style="fill:none;stroke:#17becf;stroke-linecap:square;stroke-width:2;"/>
   </g>
   <g id="patch_3">
    <path d="M 57.6 307.584 
L 57.6 41.472 
" style="fill:none;stroke:#000000;stroke-linecap:square;stroke-linejoin:miter;stroke-width:0.8;"/>
   </g>
   <g id="patch_4">
    <path d="M 414.72 307.584 
L 414.72 41.472 
" style="fill:none;stroke:#000000;stroke-linecap:square;stroke-linejoin:miter;stroke-width:0.8;"/>
   </g>
   <g id="patch_5">
    <path d="M 57.6 307.584 
L 414.72 307.584 
" style="fill:none;stroke:#000000;stroke-linecap:square;stroke-linejoin:miter;stroke-width:0.8;"/>
   </g>
   <g id="patch_6">
    <path d="M 57.6 41.472 
L 414.72 41.472 
" style="fill:none;stroke:#000000;stroke-linecap:square;stroke-linejoin:miter;stroke-width:0.8;"/>
   </g>
   <g id="text_16">
    <!-- Phase shift of different radius -->
    <defs>
     <path d="M 19.671875 64.796875 
L 19.671875 37.40625 
L 32.078125 37.40625 
Q 38.96875 37.40625 42.71875 40.96875 
Q 46.484375 44.53125 46.484375 51.125 
Q 46.484375 57.671875 42.71875 61.234375 
Q 38.96875 64.796875 32.078125 64.796875 
z
M 9.8125 72.90625 
L 32.078125 72.90625 
Q 44.34375 72.90625 50.609375 67.359375 
Q 56.890625 61.8125 56.890625 51.125 
Q 56.890625 40.328125 50.609375 34.8125 
Q 44.34375 29.296875 32.078125 29.296875 
L 19.671875 29.296875 
L 19.671875 0 
L 9.8125 0 
z
" id="DejaVuSans-80"/>
     <path d="M 54.890625 33.015625 
L 54.890625 0 
L 45.90625 0 
L 45.90625 32.71875 
Q 45.90625 40.484375 42.875 44.328125 
Q 39.84375 48.1875 33.796875 48.1875 
Q 26.515625 48.1875 22.3125 43.546875 
Q 18.109375 38.921875 18.109375 30.90625 
L 18.109375 0 
L 9.078125 0 
L 9.078125 75.984375 
L 18.109375 75.984375 
L 18.109375 46.1875 
Q 21.34375 51.125 25.703125 53.5625 
Q 30.078125 56 35.796875 56 
Q 45.21875 56 50.046875 50.171875 
Q 54.890625 44.34375 54.890625 33.015625 
z
" id="DejaVuSans-104"/>
     <path d="M 56.203125 29.59375 
L 56.203125 25.203125 
L 14.890625 25.203125 
Q 15.484375 15.921875 20.484375 11.0625 
Q 25.484375 6.203125 34.421875 6.203125 
Q 39.59375 6.203125 44.453125 7.46875 
Q 49.3125 8.734375 54.109375 11.28125 
L 54.109375 2.78125 
Q 49.265625 0.734375 44.1875 -0.34375 
Q 39.109375 -1.421875 33.890625 -1.421875 
Q 20.796875 -1.421875 13.15625 6.1875 
Q 5.515625 13.8125 5.515625 26.8125 
Q 5.515625 40.234375 12.765625 48.109375 
Q 20.015625 56 32.328125 56 
Q 43.359375 56 49.78125 48.890625 
Q 56.203125 41.796875 56.203125 29.59375 
z
M 47.21875 32.234375 
Q 47.125 39.59375 43.09375 43.984375 
Q 39.0625 48.390625 32.421875 48.390625 
Q 24.90625 48.390625 20.390625 44.140625 
Q 15.875 39.890625 15.1875 32.171875 
z
" id="DejaVuSans-101"/>
     <path id="DejaVuSans-32"/>
     <path d="M 37.109375 75.984375 
L 37.109375 68.5 
L 28.515625 68.5 
Q 23.6875 68.5 21.796875 66.546875 
Q 19.921875 64.59375 19.921875 59.515625 
L 19.921875 54.6875 
L 34.71875 54.6875 
L 34.71875 47.703125 
L 19.921875 47.703125 
L 19.921875 0 
L 10.890625 0 
L 10.890625 47.703125 
L 2.296875 47.703125 
L 2.296875 54.6875 
L 10.890625 54.6875 
L 10.890625 58.5 
Q 10.890625 67.625 15.140625 71.796875 
Q 19.390625 75.984375 28.609375 75.984375 
z
" id="DejaVuSans-102"/>
     <path d="M 18.3125 70.21875 
L 18.3125 54.6875 
L 36.8125 54.6875 
L 36.8125 47.703125 
L 18.3125 47.703125 
L 18.3125 18.015625 
Q 18.3125 11.328125 20.140625 9.421875 
Q 21.96875 7.515625 27.59375 7.515625 
L 36.8125 7.515625 
L 36.8125 0 
L 27.59375 0 
Q 17.1875 0 13.234375 3.875 
Q 9.28125 7.765625 9.28125 18.015625 
L 9.28125 47.703125 
L 2.6875 47.703125 
L 2.6875 54.6875 
L 9.28125 54.6875 
L 9.28125 70.21875 
z
" id="DejaVuSans-116"/>
     <path d="M 30.609375 48.390625 
Q 23.390625 48.390625 19.1875 42.75 
Q 14.984375 37.109375 14.984375 27.296875 
Q 14.984375 17.484375 19.15625 11.84375 
Q 23.34375 6.203125 30.609375 6.203125 
Q 37.796875 6.203125 41.984375 11.859375 
Q 46.1875 17.53125 46.1875 27.296875 
Q 46.1875 37.015625 41.984375 42.703125 
Q 37.796875 48.390625 30.609375 48.390625 
z
M 30.609375 56 
Q 42.328125 56 49.015625 48.375 
Q 55.71875 40.765625 55.71875 27.296875 
Q 55.71875 13.875 49.015625 6.21875 
Q 42.328125 -1.421875 30.609375 -1.421875 
Q 18.84375 -1.421875 12.171875 6.21875 
Q 5.515625 13.875 5.515625 27.296875 
Q 5.515625 40.765625 12.171875 48.375 
Q 18.84375 56 30.609375 56 
z
" id="DejaVuSans-111"/>
    </defs>
    <g transform="translate(147.762187 35.472)scale(0.12 -0.12)">
     <use xlink:href="#DejaVuSans-80"/>
     <use x="60.302734" xlink:href="#DejaVuSans-104"/>
     <use x="123.681641" xlink:href="#DejaVuSans-97"/>
     <use x="184.960938" xlink:href="#DejaVuSans-115"/>
     <use x="237.060547" xlink:href="#DejaVuSans-101"/>
     <use x="298.583984" xlink:href="#DejaVuSans-32"/>
     <use x="330.371094" xlink:href="#DejaVuSans-115"/>
     <use x="382.470703" xlink:href="#DejaVuSans-104"/>
     <use x="445.849609" xlink:href="#DejaVuSans-105"/>
     <use x="473.632812" xlink:href="#DejaVuSans-102"/>
     <use x="507.087891" xlink:href="#DejaVuSans-116"/>
     <use x="546.296875" xlink:href="#DejaVuSans-32"/>
     <use x="578.083984" xlink:href="#DejaVuSans-111"/>
     <use x="639.265625" xlink:href="#DejaVuSans-102"/>
     <use x="674.470703" xlink:href="#DejaVuSans-32"/>
     <use x="706.257812" xlink:href="#DejaVuSans-100"/>
     <use x="769.734375" xlink:href="#DejaVuSans-105"/>
     <use x="797.517578" xlink:href="#DejaVuSans-102"/>
     <use x="832.722656" xlink:href="#DejaVuSans-102"/>
     <use x="867.927734" xlink:href="#DejaVuSans-101"/>
     <use x="929.451172" xlink:href="#DejaVuSans-114"/>
     <use x="968.314453" xlink:href="#DejaVuSans-101"/>
     <use x="1029.837891" xlink:href="#DejaVuSans-110"/>
     <use x="1093.216797" xlink:href="#DejaVuSans-116"/>
     <use x="1132.425781" xlink:href="#DejaVuSans-32"/>
     <use x="1164.212891" xlink:href="#DejaVuSans-114"/>
     <use x="1205.326172" xlink:href="#DejaVuSans-97"/>
     <use x="1266.605469" xlink:href="#DejaVuSans-100"/>
     <use x="1330.082031" xlink:href="#DejaVuSans-105"/>
     <use x="1357.865234" xlink:href="#DejaVuSans-117"/>
     <use x="1421.244141" xlink:href="#DejaVuSans-115"/>
    </g>
   </g>
   <g id="legend_1">
    <g id="patch_7">
     <path d="M 64.6 196.25325 
L 109.325 196.25325 
Q 111.325 196.25325 111.325 194.25325 
L 111.325 48.472 
Q 111.325 46.472 109.325 46.472 
L 64.6 46.472 
Q 62.6 46.472 62.6 48.472 
L 62.6 194.25325 
Q 62.6 196.25325 64.6 196.25325 
z
" style="fill:#ffffff;opacity:0.8;stroke:#cccccc;stroke-linejoin:miter;"/>
    </g>
    <g id="line2d_25">
     <path d="M 66.6 54.570437 
L 86.6 54.570437 
" style="fill:none;stroke:#1f77b4;stroke-linecap:square;stroke-width:2;"/>
    </g>
    <g id="line2d_26"/>
    <g id="text_17">
     <!-- 0 -->
     <g transform="translate(94.6 58.070437)scale(0.1 -0.1)">
      <use xlink:href="#DejaVuSans-48"/>
     </g>
    </g>
    <g id="line2d_27">
     <path d="M 66.6 69.248562 
L 86.6 69.248562 
" style="fill:none;stroke:#ff7f0e;stroke-linecap:square;stroke-width:2;"/>
    </g>
    <g id="line2d_28"/>
    <g id="text_18">
     <!-- 10 -->
     <g transform="translate(94.6 72.748562)scale(0.1 -0.1)">
      <use xlink:href="#DejaVuSans-49"/>
      <use x="63.623047" xlink:href="#DejaVuSans-48"/>
     </g>
    </g>
    <g id="line2d_29">
     <path d="M 66.6 83.926688 
L 86.6 83.926688 
" style="fill:none;stroke:#2ca02c;stroke-linecap:square;stroke-width:2;"/>
    </g>
    <g id="line2d_30"/>
    <g id="text_19">
     <!-- 20 -->
     <g transform="translate(94.6 87.426688)scale(0.1 -0.1)">
      <use xlink:href="#DejaVuSans-50"/>
      <use x="63.623047" xlink:href="#DejaVuSans-48"/>
     </g>
    </g>
    <g id="line2d_31">
     <path d="M 66.6 98.604812 
L 86.6 98.604812 
" style="fill:none;stroke:#d62728;stroke-linecap:square;stroke-width:2;"/>
    </g>
    <g id="line2d_32"/>
    <g id="text_20">
     <!-- 30 -->
     <defs>
      <path d="M 40.578125 39.3125 
Q 47.65625 37.796875 51.625 33 
Q 55.609375 28.21875 55.609375 21.1875 
Q 55.609375 10.40625 48.1875 4.484375 
Q 40.765625 -1.421875 27.09375 -1.421875 
Q 22.515625 -1.421875 17.65625 -0.515625 
Q 12.796875 0.390625 7.625 2.203125 
L 7.625 11.71875 
Q 11.71875 9.328125 16.59375 8.109375 
Q 21.484375 6.890625 26.8125 6.890625 
Q 36.078125 6.890625 40.9375 10.546875 
Q 45.796875 14.203125 45.796875 21.1875 
Q 45.796875 27.640625 41.28125 31.265625 
Q 36.765625 34.90625 28.71875 34.90625 
L 20.21875 34.90625 
L 20.21875 43.015625 
L 29.109375 43.015625 
Q 36.375 43.015625 40.234375 45.921875 
Q 44.09375 48.828125 44.09375 54.296875 
Q 44.09375 59.90625 40.109375 62.90625 
Q 36.140625 65.921875 28.71875 65.921875 
Q 24.65625 65.921875 20.015625 65.03125 
Q 15.375 64.15625 9.8125 62.3125 
L 9.8125 71.09375 
Q 15.4375 72.65625 20.34375 73.4375 
Q 25.25 74.21875 29.59375 74.21875 
Q 40.828125 74.21875 47.359375 69.109375 
Q 53.90625 64.015625 53.90625 55.328125 
Q 53.90625 49.265625 50.4375 45.09375 
Q 46.96875 40.921875 40.578125 39.3125 
z
" id="DejaVuSans-51"/>
     </defs>
     <g transform="translate(94.6 102.104812)scale(0.1 -0.1)">
      <use xlink:href="#DejaVuSans-51"/>
      <use x="63.623047" xlink:href="#DejaVuSans-48"/>
     </g>
    </g>
    <g id="line2d_33">
     <path d="M 66.6 113.282938 
L 86.6 113.282938 
" style="fill:none;stroke:#9467bd;stroke-linecap:square;stroke-width:2;"/>
    </g>
    <g id="line2d_34"/>
    <g id="text_21">
     <!-- 40 -->
     <defs>
      <path d="M 37.796875 64.3125 
L 12.890625 25.390625 
L 37.796875 25.390625 
z
M 35.203125 72.90625 
L 47.609375 72.90625 
L 47.609375 25.390625 
L 58.015625 25.390625 
L 58.015625 17.1875 
L 47.609375 17.1875 
L 47.609375 0 
L 37.796875 0 
L 37.796875 17.1875 
L 4.890625 17.1875 
L 4.890625 26.703125 
z
" id="DejaVuSans-52"/>
     </defs>
     <g transform="translate(94.6 116.782938)scale(0.1 -0.1)">
      <use xlink:href="#DejaVuSans-52"/>
      <use x="63.623047" xlink:href="#DejaVuSans-48"/>
     </g>
    </g>
    <g id="line2d_35">
     <path d="M 66.6 127.961062 
L 86.6 127.961062 
" style="fill:none;stroke:#8c564b;stroke-linecap:square;stroke-width:2;"/>
    </g>
    <g id="line2d_36"/>
    <g id="text_22">
     <!-- 50 -->
     <g transform="translate(94.6 131.461062)scale(0.1 -0.1)">
      <use xlink:href="#DejaVuSans-53"/>
      <use x="63.623047" xlink:href="#DejaVuSans-48"/>
     </g>
    </g>
    <g id="line2d_37">
     <path d="M 66.6 142.639187 
L 86.6 142.639187 
" style="fill:none;stroke:#e377c2;stroke-linecap:square;stroke-width:2;"/>
    </g>
    <g id="line2d_38"/>
    <g id="text_23">
     <!-- 60 -->
     <defs>
      <path d="M 33.015625 40.375 
Q 26.375 40.375 22.484375 35.828125 
Q 18.609375 31.296875 18.609375 23.390625 
Q 18.609375 15.53125 22.484375 10.953125 
Q 26.375 6.390625 33.015625 6.390625 
Q 39.65625 6.390625 43.53125 10.953125 
Q 47.40625 15.53125 47.40625 23.390625 
Q 47.40625 31.296875 43.53125 35.828125 
Q 39.65625 40.375 33.015625 40.375 
z
M 52.59375 71.296875 
L 52.59375 62.3125 
Q 48.875 64.0625 45.09375 64.984375 
Q 41.3125 65.921875 37.59375 65.921875 
Q 27.828125 65.921875 22.671875 59.328125 
Q 17.53125 52.734375 16.796875 39.40625 
Q 19.671875 43.65625 24.015625 45.921875 
Q 28.375 48.1875 33.59375 48.1875 
Q 44.578125 48.1875 50.953125 41.515625 
Q 57.328125 34.859375 57.328125 23.390625 
Q 57.328125 12.15625 50.6875 5.359375 
Q 44.046875 -1.421875 33.015625 -1.421875 
Q 20.359375 -1.421875 13.671875 8.265625 
Q 6.984375 17.96875 6.984375 36.375 
Q 6.984375 53.65625 15.1875 63.9375 
Q 23.390625 74.21875 37.203125 74.21875 
Q 40.921875 74.21875 44.703125 73.484375 
Q 48.484375 72.75 52.59375 71.296875 
z
" id="DejaVuSans-54"/>
     </defs>
     <g transform="translate(94.6 146.139187)scale(0.1 -0.1)">
      <use xlink:href="#DejaVuSans-54"/>
      <use x="63.623047" xlink:href="#DejaVuSans-48"/>
     </g>
    </g>
    <g id="line2d_39">
     <path d="M 66.6 157.317312 
L 86.6 157.317312 
" style="fill:none;stroke:#7f7f7f;stroke-linecap:square;stroke-width:2;"/>
    </g>
    <g id="line2d_40"/>
    <g id="text_24">
     <!-- 70 -->
     <g transform="translate(94.6 160.817312)scale(0.1 -0.1)">
      <use xlink:href="#DejaVuSans-55"/>
      <use x="63.623047" xlink:href="#DejaVuSans-48"/>
     </g>
    </g>
    <g id="line2d_41">
     <path d="M 66.6 171.995437 
L 86.6 171.995437 
" style="fill:none;stroke:#bcbd22;stroke-linecap:square;stroke-width:2;"/>
    </g>
    <g id="line2d_42"/>
    <g id="text_25">
     <!-- 80 -->
     <defs>
      <path d="M 31.78125 34.625 
Q 24.75 34.625 20.71875 30.859375 
Q 16.703125 27.09375 16.703125 20.515625 
Q 16.703125 13.921875 20.71875 10.15625 
Q 24.75 6.390625 31.78125 6.390625 
Q 38.8125 6.390625 42.859375 10.171875 
Q 46.921875 13.96875 46.921875 20.515625 
Q 46.921875 27.09375 42.890625 30.859375 
Q 38.875 34.625 31.78125 34.625 
z
M 21.921875 38.8125 
Q 15.578125 40.375 12.03125 44.71875 
Q 8.5 49.078125 8.5 55.328125 
Q 8.5 64.0625 14.71875 69.140625 
Q 20.953125 74.21875 31.78125 74.21875 
Q 42.671875 74.21875 48.875 69.140625 
Q 55.078125 64.0625 55.078125 55.328125 
Q 55.078125 49.078125 51.53125 44.71875 
Q 48 40.375 41.703125 38.8125 
Q 48.828125 37.15625 52.796875 32.3125 
Q 56.78125 27.484375 56.78125 20.515625 
Q 56.78125 9.90625 50.3125 4.234375 
Q 43.84375 -1.421875 31.78125 -1.421875 
Q 19.734375 -1.421875 13.25 4.234375 
Q 6.78125 9.90625 6.78125 20.515625 
Q 6.78125 27.484375 10.78125 32.3125 
Q 14.796875 37.15625 21.921875 38.8125 
z
M 18.3125 54.390625 
Q 18.3125 48.734375 21.84375 45.5625 
Q 25.390625 42.390625 31.78125 42.390625 
Q 38.140625 42.390625 41.71875 45.5625 
Q 45.3125 48.734375 45.3125 54.390625 
Q 45.3125 60.0625 41.71875 63.234375 
Q 38.140625 66.40625 31.78125 66.40625 
Q 25.390625 66.40625 21.84375 63.234375 
Q 18.3125 60.0625 18.3125 54.390625 
z
" id="DejaVuSans-56"/>
     </defs>
     <g transform="translate(94.6 175.495437)scale(0.1 -0.1)">
      <use xlink:href="#DejaVuSans-56"/>
      <use x="63.623047" xlink:href="#DejaVuSans-48"/>
     </g>
    </g>
    <g id="line2d_43">
     <path d="M 66.6 186.673562 
L 86.6 186.673562 
" style="fill:none;stroke:#17becf;stroke-linecap:square;stroke-width:2;"/>
    </g>
    <g id="line2d_44"/>
    <g id="text_26">
     <!-- 90 -->
     <defs>
      <path d="M 10.984375 1.515625 
L 10.984375 10.5 
Q 14.703125 8.734375 18.5 7.8125 
Q 22.3125 6.890625 25.984375 6.890625 
Q 35.75 6.890625 40.890625 13.453125 
Q 46.046875 20.015625 46.78125 33.40625 
Q 43.953125 29.203125 39.59375 26.953125 
Q 35.25 24.703125 29.984375 24.703125 
Q 19.046875 24.703125 12.671875 31.3125 
Q 6.296875 37.9375 6.296875 49.421875 
Q 6.296875 60.640625 12.9375 67.421875 
Q 19.578125 74.21875 30.609375 74.21875 
Q 43.265625 74.21875 49.921875 64.515625 
Q 56.59375 54.828125 56.59375 36.375 
Q 56.59375 19.140625 48.40625 8.859375 
Q 40.234375 -1.421875 26.421875 -1.421875 
Q 22.703125 -1.421875 18.890625 -0.6875 
Q 15.09375 0.046875 10.984375 1.515625 
z
M 30.609375 32.421875 
Q 37.25 32.421875 41.125 36.953125 
Q 45.015625 41.5 45.015625 49.421875 
Q 45.015625 57.28125 41.125 61.84375 
Q 37.25 66.40625 30.609375 66.40625 
Q 23.96875 66.40625 20.09375 61.84375 
Q 16.21875 57.28125 16.21875 49.421875 
Q 16.21875 41.5 20.09375 36.953125 
Q 23.96875 32.421875 30.609375 32.421875 
z
" id="DejaVuSans-57"/>
     </defs>
     <g transform="translate(94.6 190.173562)scale(0.1 -0.1)">
      <use xlink:href="#DejaVuSans-57"/>
      <use x="63.623047" xlink:href="#DejaVuSans-48"/>
     </g>
    </g>
   </g>
  </g>
 </g>
 <defs>
  <clipPath id="p627742b62b">
   <rect height="266.112" width="357.12" x="57.6" y="41.472"/>
  </clipPath>
 </defs>
</svg>
