<?xml version="1.0" encoding="utf-8" standalone="no"?>
<!DOCTYPE svg PUBLIC "-//W3C//DTD SVG 1.1//EN"
  "http://www.w3.org/Graphics/SVG/1.1/DTD/svg11.dtd">
<!-- Created with matplotlib (https://matplotlib.org/) -->
<svg height="345.6pt" version="1.1" viewBox="0 0 460.8 345.6" width="460.8pt" xmlns="http://www.w3.org/2000/svg" xmlns:xlink="http://www.w3.org/1999/xlink">
 <defs>
  <style type="text/css">
*{stroke-linecap:butt;stroke-linejoin:round;}
  </style>
 </defs>
 <g id="figure_1">
  <g id="patch_1">
   <path d="M 0 345.6 
L 460.8 345.6 
L 460.8 0 
L 0 0 
z
" style="fill:#ffffff;"/>
  </g>
  <g id="axes_1">
   <g id="patch_2">
    <path d="M 57.6 307.584 
L 414.72 307.584 
L 414.72 41.472 
L 57.6 41.472 
z
" style="fill:#ffffff;"/>
   </g>
   <g id="matplotlib.axis_1">
    <g id="xtick_1">
     <g id="line2d_1">
      <defs>
       <path d="M 0 0 
L 0 3.5 
" id="m2a511968f0" style="stroke:#000000;stroke-width:0.8;"/>
      </defs>
      <g>
       <use style="stroke:#000000;stroke-width:0.8;" x="73.832727" xlink:href="#m2a511968f0" y="307.584"/>
      </g>
     </g>
     <g id="text_1">
      <!-- 50 -->
      <defs>
       <path d="M 10.796875 72.90625 
L 49.515625 72.90625 
L 49.515625 64.59375 
L 19.828125 64.59375 
L 19.828125 46.734375 
Q 21.96875 47.46875 24.109375 47.828125 
Q 26.265625 48.1875 28.421875 48.1875 
Q 40.625 48.1875 47.75 41.5 
Q 54.890625 34.8125 54.890625 23.390625 
Q 54.890625 11.625 47.5625 5.09375 
Q 40.234375 -1.421875 26.90625 -1.421875 
Q 22.3125 -1.421875 17.546875 -0.640625 
Q 12.796875 0.140625 7.71875 1.703125 
L 7.71875 11.625 
Q 12.109375 9.234375 16.796875 8.0625 
Q 21.484375 6.890625 26.703125 6.890625 
Q 35.15625 6.890625 40.078125 11.328125 
Q 45.015625 15.765625 45.015625 23.390625 
Q 45.015625 31 40.078125 35.4375 
Q 35.15625 39.890625 26.703125 39.890625 
Q 22.75 39.890625 18.8125 39.015625 
Q 14.890625 38.140625 10.796875 36.28125 
z
" id="DejaVuSans-53"/>
       <path d="M 31.78125 66.40625 
Q 24.171875 66.40625 20.328125 58.90625 
Q 16.5 51.421875 16.5 36.375 
Q 16.5 21.390625 20.328125 13.890625 
Q 24.171875 6.390625 31.78125 6.390625 
Q 39.453125 6.390625 43.28125 13.890625 
Q 47.125 21.390625 47.125 36.375 
Q 47.125 51.421875 43.28125 58.90625 
Q 39.453125 66.40625 31.78125 66.40625 
z
M 31.78125 74.21875 
Q 44.046875 74.21875 50.515625 64.515625 
Q 56.984375 54.828125 56.984375 36.375 
Q 56.984375 17.96875 50.515625 8.265625 
Q 44.046875 -1.421875 31.78125 -1.421875 
Q 19.53125 -1.421875 13.0625 8.265625 
Q 6.59375 17.96875 6.59375 36.375 
Q 6.59375 54.828125 13.0625 64.515625 
Q 19.53125 74.21875 31.78125 74.21875 
z
" id="DejaVuSans-48"/>
      </defs>
      <g transform="translate(67.470227 322.182437)scale(0.1 -0.1)">
       <use xlink:href="#DejaVuSans-53"/>
       <use x="63.623047" xlink:href="#DejaVuSans-48"/>
      </g>
     </g>
    </g>
    <g id="xtick_2">
     <g id="line2d_2">
      <g>
       <use style="stroke:#000000;stroke-width:0.8;" x="114.414545" xlink:href="#m2a511968f0" y="307.584"/>
      </g>
     </g>
     <g id="text_2">
      <!-- 75 -->
      <defs>
       <path d="M 8.203125 72.90625 
L 55.078125 72.90625 
L 55.078125 68.703125 
L 28.609375 0 
L 18.3125 0 
L 43.21875 64.59375 
L 8.203125 64.59375 
z
" id="DejaVuSans-55"/>
      </defs>
      <g transform="translate(108.052045 322.182437)scale(0.1 -0.1)">
       <use xlink:href="#DejaVuSans-55"/>
       <use x="63.623047" xlink:href="#DejaVuSans-53"/>
      </g>
     </g>
    </g>
    <g id="xtick_3">
     <g id="line2d_3">
      <g>
       <use style="stroke:#000000;stroke-width:0.8;" x="154.996364" xlink:href="#m2a511968f0" y="307.584"/>
      </g>
     </g>
     <g id="text_3">
      <!-- 100 -->
      <defs>
       <path d="M 12.40625 8.296875 
L 28.515625 8.296875 
L 28.515625 63.921875 
L 10.984375 60.40625 
L 10.984375 69.390625 
L 28.421875 72.90625 
L 38.28125 72.90625 
L 38.28125 8.296875 
L 54.390625 8.296875 
L 54.390625 0 
L 12.40625 0 
z
" id="DejaVuSans-49"/>
      </defs>
      <g transform="translate(145.452614 322.182437)scale(0.1 -0.1)">
       <use xlink:href="#DejaVuSans-49"/>
       <use x="63.623047" xlink:href="#DejaVuSans-48"/>
       <use x="127.246094" xlink:href="#DejaVuSans-48"/>
      </g>
     </g>
    </g>
    <g id="xtick_4">
     <g id="line2d_4">
      <g>
       <use style="stroke:#000000;stroke-width:0.8;" x="195.578182" xlink:href="#m2a511968f0" y="307.584"/>
      </g>
     </g>
     <g id="text_4">
      <!-- 125 -->
      <defs>
       <path d="M 19.1875 8.296875 
L 53.609375 8.296875 
L 53.609375 0 
L 7.328125 0 
L 7.328125 8.296875 
Q 12.9375 14.109375 22.625 23.890625 
Q 32.328125 33.6875 34.8125 36.53125 
Q 39.546875 41.84375 41.421875 45.53125 
Q 43.3125 49.21875 43.3125 52.78125 
Q 43.3125 58.59375 39.234375 62.25 
Q 35.15625 65.921875 28.609375 65.921875 
Q 23.96875 65.921875 18.8125 64.3125 
Q 13.671875 62.703125 7.8125 59.421875 
L 7.8125 69.390625 
Q 13.765625 71.78125 18.9375 73 
Q 24.125 74.21875 28.421875 74.21875 
Q 39.75 74.21875 46.484375 68.546875 
Q 53.21875 62.890625 53.21875 53.421875 
Q 53.21875 48.921875 51.53125 44.890625 
Q 49.859375 40.875 45.40625 35.40625 
Q 44.1875 33.984375 37.640625 27.21875 
Q 31.109375 20.453125 19.1875 8.296875 
z
" id="DejaVuSans-50"/>
      </defs>
      <g transform="translate(186.034432 322.182437)scale(0.1 -0.1)">
       <use xlink:href="#DejaVuSans-49"/>
       <use x="63.623047" xlink:href="#DejaVuSans-50"/>
       <use x="127.246094" xlink:href="#DejaVuSans-53"/>
      </g>
     </g>
    </g>
    <g id="xtick_5">
     <g id="line2d_5">
      <g>
       <use style="stroke:#000000;stroke-width:0.8;" x="236.16" xlink:href="#m2a511968f0" y="307.584"/>
      </g>
     </g>
     <g id="text_5">
      <!-- 150 -->
      <g transform="translate(226.61625 322.182437)scale(0.1 -0.1)">
       <use xlink:href="#DejaVuSans-49"/>
       <use x="63.623047" xlink:href="#DejaVuSans-53"/>
       <use x="127.246094" xlink:href="#DejaVuSans-48"/>
      </g>
     </g>
    </g>
    <g id="xtick_6">
     <g id="line2d_6">
      <g>
       <use style="stroke:#000000;stroke-width:0.8;" x="276.741818" xlink:href="#m2a511968f0" y="307.584"/>
      </g>
     </g>
     <g id="text_6">
      <!-- 175 -->
      <g transform="translate(267.198068 322.182437)scale(0.1 -0.1)">
       <use xlink:href="#DejaVuSans-49"/>
       <use x="63.623047" xlink:href="#DejaVuSans-55"/>
       <use x="127.246094" xlink:href="#DejaVuSans-53"/>
      </g>
     </g>
    </g>
    <g id="xtick_7">
     <g id="line2d_7">
      <g>
       <use style="stroke:#000000;stroke-width:0.8;" x="317.323636" xlink:href="#m2a511968f0" y="307.584"/>
      </g>
     </g>
     <g id="text_7">
      <!-- 200 -->
      <g transform="translate(307.779886 322.182437)scale(0.1 -0.1)">
       <use xlink:href="#DejaVuSans-50"/>
       <use x="63.623047" xlink:href="#DejaVuSans-48"/>
       <use x="127.246094" xlink:href="#DejaVuSans-48"/>
      </g>
     </g>
    </g>
    <g id="xtick_8">
     <g id="line2d_8">
      <g>
       <use style="stroke:#000000;stroke-width:0.8;" x="357.905455" xlink:href="#m2a511968f0" y="307.584"/>
      </g>
     </g>
     <g id="text_8">
      <!-- 225 -->
      <g transform="translate(348.361705 322.182437)scale(0.1 -0.1)">
       <use xlink:href="#DejaVuSans-50"/>
       <use x="63.623047" xlink:href="#DejaVuSans-50"/>
       <use x="127.246094" xlink:href="#DejaVuSans-53"/>
      </g>
     </g>
    </g>
    <g id="xtick_9">
     <g id="line2d_9">
      <g>
       <use style="stroke:#000000;stroke-width:0.8;" x="398.487273" xlink:href="#m2a511968f0" y="307.584"/>
      </g>
     </g>
     <g id="text_9">
      <!-- 250 -->
      <g transform="translate(388.943523 322.182437)scale(0.1 -0.1)">
       <use xlink:href="#DejaVuSans-50"/>
       <use x="63.623047" xlink:href="#DejaVuSans-53"/>
       <use x="127.246094" xlink:href="#DejaVuSans-48"/>
      </g>
     </g>
    </g>
    <g id="text_10">
     <!-- radius(nm) -->
     <defs>
      <path d="M 41.109375 46.296875 
Q 39.59375 47.171875 37.8125 47.578125 
Q 36.03125 48 33.890625 48 
Q 26.265625 48 22.1875 43.046875 
Q 18.109375 38.09375 18.109375 28.8125 
L 18.109375 0 
L 9.078125 0 
L 9.078125 54.6875 
L 18.109375 54.6875 
L 18.109375 46.1875 
Q 20.953125 51.171875 25.484375 53.578125 
Q 30.03125 56 36.53125 56 
Q 37.453125 56 38.578125 55.875 
Q 39.703125 55.765625 41.0625 55.515625 
z
" id="DejaVuSans-114"/>
      <path d="M 34.28125 27.484375 
Q 23.390625 27.484375 19.1875 25 
Q 14.984375 22.515625 14.984375 16.5 
Q 14.984375 11.71875 18.140625 8.90625 
Q 21.296875 6.109375 26.703125 6.109375 
Q 34.1875 6.109375 38.703125 11.40625 
Q 43.21875 16.703125 43.21875 25.484375 
L 43.21875 27.484375 
z
M 52.203125 31.203125 
L 52.203125 0 
L 43.21875 0 
L 43.21875 8.296875 
Q 40.140625 3.328125 35.546875 0.953125 
Q 30.953125 -1.421875 24.3125 -1.421875 
Q 15.921875 -1.421875 10.953125 3.296875 
Q 6 8.015625 6 15.921875 
Q 6 25.140625 12.171875 29.828125 
Q 18.359375 34.515625 30.609375 34.515625 
L 43.21875 34.515625 
L 43.21875 35.40625 
Q 43.21875 41.609375 39.140625 45 
Q 35.0625 48.390625 27.6875 48.390625 
Q 23 48.390625 18.546875 47.265625 
Q 14.109375 46.140625 10.015625 43.890625 
L 10.015625 52.203125 
Q 14.9375 54.109375 19.578125 55.046875 
Q 24.21875 56 28.609375 56 
Q 40.484375 56 46.34375 49.84375 
Q 52.203125 43.703125 52.203125 31.203125 
z
" id="DejaVuSans-97"/>
      <path d="M 45.40625 46.390625 
L 45.40625 75.984375 
L 54.390625 75.984375 
L 54.390625 0 
L 45.40625 0 
L 45.40625 8.203125 
Q 42.578125 3.328125 38.25 0.953125 
Q 33.9375 -1.421875 27.875 -1.421875 
Q 17.96875 -1.421875 11.734375 6.484375 
Q 5.515625 14.40625 5.515625 27.296875 
Q 5.515625 40.1875 11.734375 48.09375 
Q 17.96875 56 27.875 56 
Q 33.9375 56 38.25 53.625 
Q 42.578125 51.265625 45.40625 46.390625 
z
M 14.796875 27.296875 
Q 14.796875 17.390625 18.875 11.75 
Q 22.953125 6.109375 30.078125 6.109375 
Q 37.203125 6.109375 41.296875 11.75 
Q 45.40625 17.390625 45.40625 27.296875 
Q 45.40625 37.203125 41.296875 42.84375 
Q 37.203125 48.484375 30.078125 48.484375 
Q 22.953125 48.484375 18.875 42.84375 
Q 14.796875 37.203125 14.796875 27.296875 
z
" id="DejaVuSans-100"/>
      <path d="M 9.421875 54.6875 
L 18.40625 54.6875 
L 18.40625 0 
L 9.421875 0 
z
M 9.421875 75.984375 
L 18.40625 75.984375 
L 18.40625 64.59375 
L 9.421875 64.59375 
z
" id="DejaVuSans-105"/>
      <path d="M 8.5 21.578125 
L 8.5 54.6875 
L 17.484375 54.6875 
L 17.484375 21.921875 
Q 17.484375 14.15625 20.5 10.265625 
Q 23.53125 6.390625 29.59375 6.390625 
Q 36.859375 6.390625 41.078125 11.03125 
Q 45.3125 15.671875 45.3125 23.6875 
L 45.3125 54.6875 
L 54.296875 54.6875 
L 54.296875 0 
L 45.3125 0 
L 45.3125 8.40625 
Q 42.046875 3.421875 37.71875 1 
Q 33.40625 -1.421875 27.6875 -1.421875 
Q 18.265625 -1.421875 13.375 4.4375 
Q 8.5 10.296875 8.5 21.578125 
z
M 31.109375 56 
z
" id="DejaVuSans-117"/>
      <path d="M 44.28125 53.078125 
L 44.28125 44.578125 
Q 40.484375 46.53125 36.375 47.5 
Q 32.28125 48.484375 27.875 48.484375 
Q 21.1875 48.484375 17.84375 46.4375 
Q 14.5 44.390625 14.5 40.28125 
Q 14.5 37.15625 16.890625 35.375 
Q 19.28125 33.59375 26.515625 31.984375 
L 29.59375 31.296875 
Q 39.15625 29.25 43.1875 25.515625 
Q 47.21875 21.78125 47.21875 15.09375 
Q 47.21875 7.46875 41.1875 3.015625 
Q 35.15625 -1.421875 24.609375 -1.421875 
Q 20.21875 -1.421875 15.453125 -0.5625 
Q 10.6875 0.296875 5.421875 2 
L 5.421875 11.28125 
Q 10.40625 8.6875 15.234375 7.390625 
Q 20.0625 6.109375 24.8125 6.109375 
Q 31.15625 6.109375 34.5625 8.28125 
Q 37.984375 10.453125 37.984375 14.40625 
Q 37.984375 18.0625 35.515625 20.015625 
Q 33.0625 21.96875 24.703125 23.78125 
L 21.578125 24.515625 
Q 13.234375 26.265625 9.515625 29.90625 
Q 5.8125 33.546875 5.8125 39.890625 
Q 5.8125 47.609375 11.28125 51.796875 
Q 16.75 56 26.8125 56 
Q 31.78125 56 36.171875 55.265625 
Q 40.578125 54.546875 44.28125 53.078125 
z
" id="DejaVuSans-115"/>
      <path d="M 31 75.875 
Q 24.46875 64.65625 21.28125 53.65625 
Q 18.109375 42.671875 18.109375 31.390625 
Q 18.109375 20.125 21.3125 9.0625 
Q 24.515625 -2 31 -13.1875 
L 23.1875 -13.1875 
Q 15.875 -1.703125 12.234375 9.375 
Q 8.59375 20.453125 8.59375 31.390625 
Q 8.59375 42.28125 12.203125 53.3125 
Q 15.828125 64.359375 23.1875 75.875 
z
" id="DejaVuSans-40"/>
      <path d="M 54.890625 33.015625 
L 54.890625 0 
L 45.90625 0 
L 45.90625 32.71875 
Q 45.90625 40.484375 42.875 44.328125 
Q 39.84375 48.1875 33.796875 48.1875 
Q 26.515625 48.1875 22.3125 43.546875 
Q 18.109375 38.921875 18.109375 30.90625 
L 18.109375 0 
L 9.078125 0 
L 9.078125 54.6875 
L 18.109375 54.6875 
L 18.109375 46.1875 
Q 21.34375 51.125 25.703125 53.5625 
Q 30.078125 56 35.796875 56 
Q 45.21875 56 50.046875 50.171875 
Q 54.890625 44.34375 54.890625 33.015625 
z
" id="DejaVuSans-110"/>
      <path d="M 52 44.1875 
Q 55.375 50.25 60.0625 53.125 
Q 64.75 56 71.09375 56 
Q 79.640625 56 84.28125 50.015625 
Q 88.921875 44.046875 88.921875 33.015625 
L 88.921875 0 
L 79.890625 0 
L 79.890625 32.71875 
Q 79.890625 40.578125 77.09375 44.375 
Q 74.3125 48.1875 68.609375 48.1875 
Q 61.625 48.1875 57.5625 43.546875 
Q 53.515625 38.921875 53.515625 30.90625 
L 53.515625 0 
L 44.484375 0 
L 44.484375 32.71875 
Q 44.484375 40.625 41.703125 44.40625 
Q 38.921875 48.1875 33.109375 48.1875 
Q 26.21875 48.1875 22.15625 43.53125 
Q 18.109375 38.875 18.109375 30.90625 
L 18.109375 0 
L 9.078125 0 
L 9.078125 54.6875 
L 18.109375 54.6875 
L 18.109375 46.1875 
Q 21.1875 51.21875 25.484375 53.609375 
Q 29.78125 56 35.6875 56 
Q 41.65625 56 45.828125 52.96875 
Q 50 49.953125 52 44.1875 
z
" id="DejaVuSans-109"/>
      <path d="M 8.015625 75.875 
L 15.828125 75.875 
Q 23.140625 64.359375 26.78125 53.3125 
Q 30.421875 42.28125 30.421875 31.390625 
Q 30.421875 20.453125 26.78125 9.375 
Q 23.140625 -1.703125 15.828125 -13.1875 
L 8.015625 -13.1875 
Q 14.5 -2 17.703125 9.0625 
Q 20.90625 20.125 20.90625 31.390625 
Q 20.90625 42.671875 17.703125 53.65625 
Q 14.5 64.65625 8.015625 75.875 
z
" id="DejaVuSans-41"/>
     </defs>
     <g transform="translate(208.763125 335.860562)scale(0.1 -0.1)">
      <use xlink:href="#DejaVuSans-114"/>
      <use x="41.113281" xlink:href="#DejaVuSans-97"/>
      <use x="102.392578" xlink:href="#DejaVuSans-100"/>
      <use x="165.869141" xlink:href="#DejaVuSans-105"/>
      <use x="193.652344" xlink:href="#DejaVuSans-117"/>
      <use x="257.03125" xlink:href="#DejaVuSans-115"/>
      <use x="309.130859" xlink:href="#DejaVuSans-40"/>
      <use x="348.144531" xlink:href="#DejaVuSans-110"/>
      <use x="411.523438" xlink:href="#DejaVuSans-109"/>
      <use x="508.935547" xlink:href="#DejaVuSans-41"/>
     </g>
    </g>
   </g>
   <g id="matplotlib.axis_2">
    <g id="ytick_1">
     <g id="line2d_10">
      <defs>
       <path d="M 0 0 
L -3.5 0 
" id="mb39042b473" style="stroke:#000000;stroke-width:0.8;"/>
      </defs>
      <g>
       <use style="stroke:#000000;stroke-width:0.8;" x="57.6" xlink:href="#mb39042b473" y="289.982331"/>
      </g>
     </g>
     <g id="text_11">
      <!-- −20 -->
      <defs>
       <path d="M 10.59375 35.5 
L 73.1875 35.5 
L 73.1875 27.203125 
L 10.59375 27.203125 
z
" id="DejaVuSans-8722"/>
      </defs>
      <g transform="translate(29.495313 293.78155)scale(0.1 -0.1)">
       <use xlink:href="#DejaVuSans-8722"/>
       <use x="83.789062" xlink:href="#DejaVuSans-50"/>
       <use x="147.412109" xlink:href="#DejaVuSans-48"/>
      </g>
     </g>
    </g>
    <g id="ytick_2">
     <g id="line2d_11">
      <g>
       <use style="stroke:#000000;stroke-width:0.8;" x="57.6" xlink:href="#mb39042b473" y="246.99501"/>
      </g>
     </g>
     <g id="text_12">
      <!-- −15 -->
      <g transform="translate(29.495313 250.794228)scale(0.1 -0.1)">
       <use xlink:href="#DejaVuSans-8722"/>
       <use x="83.789062" xlink:href="#DejaVuSans-49"/>
       <use x="147.412109" xlink:href="#DejaVuSans-53"/>
      </g>
     </g>
    </g>
    <g id="ytick_3">
     <g id="line2d_12">
      <g>
       <use style="stroke:#000000;stroke-width:0.8;" x="57.6" xlink:href="#mb39042b473" y="204.007688"/>
      </g>
     </g>
     <g id="text_13">
      <!-- −10 -->
      <g transform="translate(29.495313 207.806907)scale(0.1 -0.1)">
       <use xlink:href="#DejaVuSans-8722"/>
       <use x="83.789062" xlink:href="#DejaVuSans-49"/>
       <use x="147.412109" xlink:href="#DejaVuSans-48"/>
      </g>
     </g>
    </g>
    <g id="ytick_4">
     <g id="line2d_13">
      <g>
       <use style="stroke:#000000;stroke-width:0.8;" x="57.6" xlink:href="#mb39042b473" y="161.020366"/>
      </g>
     </g>
     <g id="text_14">
      <!-- −5 -->
      <g transform="translate(35.857813 164.819585)scale(0.1 -0.1)">
       <use xlink:href="#DejaVuSans-8722"/>
       <use x="83.789062" xlink:href="#DejaVuSans-53"/>
      </g>
     </g>
    </g>
    <g id="ytick_5">
     <g id="line2d_14">
      <g>
       <use style="stroke:#000000;stroke-width:0.8;" x="57.6" xlink:href="#mb39042b473" y="118.033045"/>
      </g>
     </g>
     <g id="text_15">
      <!-- 0 -->
      <g transform="translate(44.2375 121.832263)scale(0.1 -0.1)">
       <use xlink:href="#DejaVuSans-48"/>
      </g>
     </g>
    </g>
    <g id="ytick_6">
     <g id="line2d_15">
      <g>
       <use style="stroke:#000000;stroke-width:0.8;" x="57.6" xlink:href="#mb39042b473" y="75.045723"/>
      </g>
     </g>
     <g id="text_16">
      <!-- 5 -->
      <g transform="translate(44.2375 78.844942)scale(0.1 -0.1)">
       <use xlink:href="#DejaVuSans-53"/>
      </g>
     </g>
    </g>
   </g>
   <g id="line2d_16">
    <path clip-path="url(#p099cfdb220)" d="M 73.832727 119.818321 
L 77.079273 119.810177 
L 80.325818 119.801939 
L 83.572364 119.793628 
L 86.818909 119.785229 
L 90.065455 119.776695 
L 93.312 119.76795 
L 96.558545 119.758889 
L 99.805091 119.749386 
L 103.051636 119.739289 
L 106.298182 119.728426 
L 109.544727 119.716605 
L 112.791273 119.703618 
L 116.037818 119.689239 
L 119.284364 119.67324 
L 122.530909 119.655389 
L 125.777455 119.635466 
L 129.024 119.613274 
L 132.270545 119.588644 
L 135.517091 119.561448 
L 138.763636 119.531596 
L 142.010182 119.499033 
L 145.256727 119.46373 
L 148.503273 119.425665 
L 151.749818 119.384808 
L 154.996364 119.3411 
L 158.242909 119.294441 
L 161.489455 119.244683 
L 164.736 119.191624 
L 167.982545 119.135019 
L 171.229091 119.074596 
L 174.475636 119.010084 
L 177.722182 118.941255 
L 180.968727 118.867988 
L 184.215273 118.790356 
L 187.461818 118.708737 
L 190.708364 118.623976 
L 193.954909 118.537565 
L 197.201455 118.451859 
L 200.448 118.370281 
L 203.694545 118.297467 
L 206.941091 118.239239 
L 210.187636 118.202303 
L 213.434182 118.193558 
L 216.680727 118.218989 
L 219.927273 118.282302 
L 223.173818 118.383636 
L 226.420364 118.518783 
L 229.666909 118.679229 
L 232.913455 118.85303 
L 236.16 119.026226 
L 239.406545 119.1844 
L 242.653091 119.314023 
L 245.899636 119.40349 
L 249.146182 119.443859 
L 252.392727 119.429442 
L 255.639273 119.358398 
L 258.885818 119.233434 
L 262.132364 119.062664 
L 265.378909 118.860479 
L 268.625455 118.64805 
L 271.872 118.45268 
L 275.118545 118.304984 
L 278.365091 118.233372 
L 281.611636 118.256911 
L 284.858182 118.379729 
L 288.104727 118.590216 
L 291.351273 118.865503 
L 294.597818 119.1784 
L 297.844364 119.503383 
L 301.090909 119.820035 
L 304.337455 120.114226 
L 307.584 120.378145 
L 310.830545 120.610222 
L 314.077091 120.81588 
L 317.323636 121.010226 
L 320.570182 121.224854 
L 323.816727 121.523576 
L 327.063273 122.038262 
L 330.309818 123.049224 
L 333.556364 125.167004 
L 336.802909 129.934775 
L 340.049455 141.073259 
L 343.296 129.970609 
L 346.542545 125.921675 
L 349.789091 123.832832 
L 353.035636 122.531152 
L 356.282182 121.636967 
L 359.528727 120.999085 
L 362.775273 120.553045 
L 366.021818 120.269356 
L 369.268364 120.129988 
L 372.514909 120.117279 
L 375.761455 120.210333 
L 379.008 120.386123 
L 382.254545 120.622626 
L 385.501091 120.901976 
L 388.747636 121.212867 
L 391.994182 121.552804 
L 395.240727 121.93211 
L 398.487273 122.384654 
" style="fill:none;stroke:#1f77b4;stroke-linecap:square;stroke-width:2;"/>
   </g>
   <g id="line2d_17">
    <path clip-path="url(#p099cfdb220)" d="M 73.832727 119.034659 
L 77.079273 119.056217 
L 80.325818 119.077982 
L 83.572364 119.099896 
L 86.818909 119.121901 
L 90.065455 119.14394 
L 93.312 119.165947 
L 96.558545 119.187844 
L 99.805091 119.209536 
L 103.051636 119.230909 
L 106.298182 119.25183 
L 109.544727 119.272146 
L 112.791273 119.291687 
L 116.037818 119.31027 
L 119.284364 119.327701 
L 122.530909 119.343781 
L 125.777455 119.358309 
L 129.024 119.371091 
L 132.270545 119.381948 
L 135.517091 119.390715 
L 138.763636 119.397253 
L 142.010182 119.401444 
L 145.256727 119.403191 
L 148.503273 119.402406 
L 151.749818 119.399001 
L 154.996364 119.392877 
L 158.242909 119.383903 
L 161.489455 119.371909 
L 164.736 119.356671 
L 167.982545 119.337905 
L 171.229091 119.315257 
L 174.475636 119.288301 
L 177.722182 119.256541 
L 180.968727 119.219409 
L 184.215273 119.176283 
L 187.461818 119.126504 
L 190.708364 119.069415 
L 193.954909 119.004428 
L 197.201455 118.931116 
L 200.448 118.84936 
L 203.694545 118.759551 
L 206.941091 118.662849 
L 210.187636 118.561509 
L 213.434182 118.459228 
L 216.680727 118.361446 
L 219.927273 118.275459 
L 223.173818 118.210139 
L 226.420364 118.175024 
L 229.666909 118.178655 
L 232.913455 118.226306 
L 236.16 118.317723 
L 239.406545 118.445738 
L 242.653091 118.596518 
L 245.899636 118.75153 
L 249.146182 118.890628 
L 252.392727 118.995338 
L 255.639273 119.051602 
L 258.885818 119.05159 
L 262.132364 118.994489 
L 265.378909 118.886296 
L 268.625455 118.738651 
L 271.872 118.567144 
L 275.118545 118.395687 
L 278.365091 118.527998 
L 281.611636 119.680067 
L 284.858182 118.527332 
L 288.104727 118.356806 
L 291.351273 118.325631 
L 294.597818 118.356574 
L 297.844364 118.42449 
L 301.090909 118.514395 
L 304.337455 118.615138 
L 307.584 118.718029 
L 310.830545 118.816379 
L 314.077091 118.905217 
L 317.323636 118.981028 
L 320.570182 119.04152 
L 323.816727 119.085441 
L 327.063273 119.112495 
L 330.309818 119.123459 
L 333.556364 119.120836 
L 336.802909 119.111203 
L 340.049455 119.11435 
L 343.296 119.207231 
L 346.542545 119.761991 
L 349.789091 120.638882 
L 353.035636 119.653413 
L 356.282182 119.134254 
L 359.528727 118.874935 
L 362.775273 118.70213 
L 366.021818 118.568948 
L 369.268364 118.462347 
L 372.514909 118.380133 
L 375.761455 118.324189 
L 379.008 118.297809 
L 382.254545 118.304232 
L 385.501091 118.345602 
L 388.747636 118.422206 
L 391.994182 118.532101 
L 395.240727 118.671397 
L 398.487273 118.836077 
" style="fill:none;stroke:#ff7f0e;stroke-linecap:square;stroke-width:2;"/>
   </g>
   <g id="line2d_18">
    <path clip-path="url(#p099cfdb220)" d="M 73.832727 268.430632 
L 77.079273 258.573538 
L 80.325818 277.779207 
L 83.572364 263.099259 
L 86.818909 263.226487 
L 90.065455 265.838508 
L 93.312 279.732917 
L 96.558545 261.12868 
L 99.805091 279.453285 
L 103.051636 281.784061 
L 106.298182 268.497536 
L 109.544727 275.706776 
L 112.791273 274.653978 
L 116.037818 258.082588 
L 119.284364 265.931999 
L 122.530909 266.089761 
L 125.777455 266.180144 
L 129.024 258.053959 
L 132.270545 271.742444 
L 135.517091 255.538198 
L 138.763636 259.095387 
L 142.010182 259.09016 
L 145.256727 258.058807 
L 148.503273 255.065653 
L 151.749818 268.279028 
L 154.996364 260.682163 
L 158.242909 263.574214 
L 161.489455 276.218445 
L 164.736 255.412119 
L 167.982545 260.907987 
L 171.229091 260.570931 
L 174.475636 254.672661 
L 177.722182 256.599237 
L 180.968727 263.486894 
L 184.215273 258.152728 
L 187.461818 263.394073 
L 190.708364 265.966058 
L 193.954909 280.915869 
L 197.201455 284.52528 
L 200.448 284.484673 
L 203.694545 295.488 
L 206.941091 268.542545 
L 210.187636 276.733212 
L 213.434182 265.55926 
L 216.680727 263.308462 
L 219.927273 272.970312 
L 223.173818 265.20547 
L 226.420364 260.611499 
L 229.666909 281.741229 
L 232.913455 260.722968 
L 236.16 274.825664 
L 239.406545 284.437351 
L 242.653091 266.320873 
L 245.899636 272.090434 
L 249.146182 271.180739 
L 252.392727 271.293135 
L 255.639273 281.392384 
L 258.885818 272.099501 
L 262.132364 262.454825 
L 265.378909 263.582499 
L 268.625455 268.13704 
L 271.872 279.195045 
L 275.118545 294.302206 
L 278.365091 278.161239 
L 281.611636 263.40068 
L 284.858182 281.662574 
L 288.104727 268.028831 
L 291.351273 268.037887 
L 294.597818 263.939377 
L 297.844364 283.430529 
L 301.090909 279.33138 
L 304.337455 260.454882 
L 307.584 280.510947 
L 310.830545 274.525403 
L 314.077091 260.563384 
L 317.323636 260.018751 
L 320.570182 260.795817 
L 323.816727 276.060959 
L 327.063273 263.079496 
L 330.309818 265.83937 
L 333.556364 280.500349 
L 336.802909 255.470316 
L 340.049455 272.451338 
L 343.296 277.57422 
L 346.542545 277.237089 
L 349.789091 255.546197 
L 353.035636 276.439599 
L 356.282182 255.618556 
L 359.528727 273.794189 
L 362.775273 273.939329 
L 366.021818 256.572623 
L 369.268364 273.334835 
L 372.514909 255.018315 
L 375.761455 271.76023 
L 379.008 260.559409 
L 382.254545 258.101877 
L 385.501091 257.950117 
L 388.747636 260.779688 
L 391.994182 263.269804 
L 395.240727 263.179648 
L 398.487273 280.615853 
" style="fill:none;stroke:#2ca02c;stroke-linecap:square;stroke-width:2;"/>
   </g>
   <g id="line2d_19">
    <path clip-path="url(#p099cfdb220)" d="M 73.832727 273.453309 
L 77.079273 270.723399 
L 80.325818 294.719917 
L 83.572364 270.702576 
L 86.818909 285.939199 
L 90.065455 293.774927 
L 93.312 291.361467 
L 96.558545 268.123247 
L 99.805091 284.969192 
L 103.051636 281.309331 
L 106.298182 285.070689 
L 109.544727 273.321809 
L 112.791273 275.952831 
L 116.037818 270.678254 
L 119.284364 268.229082 
L 122.530909 268.012727 
L 125.777455 268.283723 
L 129.024 282.837547 
L 132.270545 277.970374 
L 135.517091 268.109502 
L 138.763636 280.653435 
L 142.010182 280.390711 
L 145.256727 285.024006 
L 148.503273 270.529352 
L 151.749818 292.34974 
L 154.996364 270.783086 
L 158.242909 284.673805 
L 161.489455 286.4482 
L 164.736 270.691685 
L 167.982545 270.830447 
L 171.229091 290.088558 
L 174.475636 273.549661 
L 177.722182 273.228564 
L 180.968727 270.678808 
L 184.215273 273.283875 
L 187.461818 285.824195 
L 190.708364 294.466808 
L 193.954909 273.317131 
L 197.201455 294.439485 
L 200.448 273.321793 
L 203.694545 273.233907 
L 206.941091 273.341395 
L 210.187636 270.762183 
L 213.434182 291.13019 
L 216.680727 273.398556 
L 219.927273 288.096523 
L 223.173818 282.373887 
L 226.420364 279.774331 
L 229.666909 282.118996 
L 232.913455 273.139873 
L 236.16 262.796602 
L 239.406545 263.354222 
L 242.653091 273.104811 
L 245.899636 262.46986 
L 249.146182 271.40644 
L 252.392727 267.208764 
L 255.639273 261.564998 
L 258.885818 255.184441 
L 262.132364 270.261133 
L 265.378909 269.922581 
L 268.625455 262.966475 
L 271.872 275.58609 
L 275.118545 265.366495 
L 278.365091 276.817026 
L 281.611636 266.215532 
L 284.858182 265.43086 
L 288.104727 270.65038 
L 291.351273 264.43901 
L 294.597818 265.71929 
L 297.844364 274.795317 
L 301.090909 267.615706 
L 304.337455 262.519283 
L 307.584 270.954508 
L 310.830545 260.204749 
L 314.077091 262.981953 
L 317.323636 259.672035 
L 320.570182 268.314289 
L 323.816727 259.949039 
L 327.063273 258.934724 
L 330.309818 271.316561 
L 333.556364 274.498114 
L 336.802909 266.002467 
L 340.049455 265.619462 
L 343.296 271.937605 
L 346.542545 273.686767 
L 349.789091 279.148766 
L 353.035636 265.456896 
L 356.282182 262.84255 
L 359.528727 270.701803 
L 362.775273 279.809517 
L 366.021818 280.754643 
L 369.268364 272.461428 
L 372.514909 263.051409 
L 375.761455 262.672321 
L 379.008 263.317643 
L 382.254545 271.388676 
L 385.501091 274.647526 
L 388.747636 261.54493 
L 391.994182 260.455212 
L 395.240727 262.966446 
L 398.487273 257.854096 
" style="fill:none;stroke:#d62728;stroke-linecap:square;stroke-width:2;"/>
   </g>
   <g id="line2d_20">
    <path clip-path="url(#p099cfdb220)" d="M 73.832727 150.345953 
L 77.079273 149.911441 
L 80.325818 149.495372 
L 83.572364 149.096744 
L 86.818909 148.714446 
L 90.065455 148.347199 
L 93.312 147.993561 
L 96.558545 147.65198 
L 99.805091 147.32084 
L 103.051636 146.99849 
L 106.298182 146.683264 
L 109.544727 146.373478 
L 112.791273 146.067439 
L 116.037818 145.763467 
L 119.284364 145.459936 
L 122.530909 145.155346 
L 125.777455 144.848408 
L 129.024 144.538127 
L 132.270545 144.223873 
L 135.517091 143.905392 
L 138.763636 143.582783 
L 142.010182 143.256407 
L 145.256727 142.926766 
L 148.503273 142.594369 
L 151.749818 142.259627 
L 154.996364 141.922774 
L 158.242909 141.583851 
L 161.489455 141.242737 
L 164.736 140.899211 
L 167.982545 140.55304 
L 171.229091 140.204063 
L 174.475636 139.852266 
L 177.722182 139.497836 
L 180.968727 139.141189 
L 184.215273 138.782982 
L 187.461818 138.424122 
L 190.708364 138.065774 
L 193.954909 137.7094 
L 197.201455 137.356828 
L 200.448 137.010373 
L 203.694545 136.67301 
L 206.941091 136.34861 
L 210.187636 136.042211 
L 213.434182 135.760303 
L 216.680727 135.511029 
L 219.927273 135.304196 
L 223.173818 135.150876 
L 226.420364 135.062417 
L 229.666909 135.048748 
L 232.913455 135.116148 
L 236.16 135.265031 
L 239.406545 135.488536 
L 242.653091 135.772656 
L 245.899636 136.098087 
L 249.146182 136.443544 
L 252.392727 136.79003 
L 255.639273 137.125853 
L 258.885818 137.452674 
L 262.132364 137.793774 
L 265.378909 138.207978 
L 268.625455 138.819865 
L 271.872 139.904258 
L 275.118545 142.187093 
L 278.365091 146.771876 
L 281.611636 138.309851 
L 284.858182 128.748227 
L 288.104727 122.234427 
L 291.351273 124.131063 
L 294.597818 126.107157 
L 297.844364 127.268463 
L 301.090909 128.01189 
L 304.337455 128.53073 
L 307.584 128.917011 
L 310.830545 129.218779 
L 314.077091 129.463687 
L 317.323636 129.669312 
L 320.570182 129.847995 
L 323.816727 130.009166 
L 327.063273 130.160284 
L 330.309818 130.306537 
L 333.556364 130.448512 
L 336.802909 130.574975 
L 340.049455 130.642756 
L 343.296 130.524292 
L 346.542545 129.900477 
L 349.789091 128.207618 
L 353.035636 125.108941 
L 356.282182 121.853548 
L 359.528727 121.523028 
L 362.775273 122.981727 
L 366.021818 124.342344 
L 369.268364 125.425279 
L 372.514909 126.346603 
L 375.761455 127.207585 
L 379.008 128.078053 
L 382.254545 129.006035 
L 385.501091 130.024235 
L 388.747636 131.151112 
L 391.994182 132.383368 
L 395.240727 133.667724 
L 398.487273 134.822006 
" style="fill:none;stroke:#9467bd;stroke-linecap:square;stroke-width:2;"/>
   </g>
   <g id="line2d_21">
    <path clip-path="url(#p099cfdb220)" d="M 73.832727 155.239897 
L 77.079273 154.583131 
L 80.325818 153.969245 
L 83.572364 153.394343 
L 86.818909 152.853497 
L 90.065455 152.34131 
L 93.312 151.852337 
L 96.558545 151.381388 
L 99.805091 150.923732 
L 103.051636 150.475224 
L 106.298182 150.032385 
L 109.544727 149.592434 
L 112.791273 149.153296 
L 116.037818 148.713589 
L 119.284364 148.272591 
L 122.530909 147.830189 
L 125.777455 147.386813 
L 129.024 146.943341 
L 132.270545 146.500968 
L 135.517091 146.061065 
L 138.763636 145.625009 
L 142.010182 145.194022 
L 145.256727 144.769041 
L 148.503273 144.350618 
L 151.749818 143.938892 
L 154.996364 143.533606 
L 158.242909 143.134172 
L 161.489455 142.739785 
L 164.736 142.349541 
L 167.982545 141.962569 
L 171.229091 141.578155 
L 174.475636 141.19585 
L 177.722182 140.815553 
L 180.968727 140.437585 
L 184.215273 140.06274 
L 187.461818 139.692337 
L 190.708364 139.328263 
L 193.954909 138.973034 
L 197.201455 138.629855 
L 200.448 138.302672 
L 203.694545 137.996199 
L 206.941091 137.715862 
L 210.187636 137.467622 
L 213.434182 137.257595 
L 216.680727 137.091455 
L 219.927273 136.973623 
L 223.173818 136.90634 
L 226.420364 136.888817 
L 229.666909 136.916696 
L 232.913455 136.981985 
L 236.16 137.073564 
L 239.406545 137.178151 
L 242.653091 137.281589 
L 245.899636 137.370262 
L 249.146182 137.432535 
L 252.392727 137.460175 
L 255.639273 137.449773 
L 258.885818 137.404171 
L 262.132364 137.333893 
L 265.378909 137.258363 
L 268.625455 137.206437 
L 271.872 137.215462 
L 275.118545 137.327983 
L 278.365091 137.586281 
L 281.611636 138.026959 
L 284.858182 138.679794 
L 288.104727 139.574636 
L 291.351273 140.758201 
L 294.597818 142.323719 
L 297.844364 144.46418 
L 301.090909 147.531499 
L 304.337455 150.918853 
L 307.584 148.356643 
L 310.830545 143.737993 
L 314.077091 140.096447 
L 317.323636 137.084687 
L 320.570182 134.416302 
L 323.816727 131.958772 
L 327.063273 129.706564 
L 330.309818 127.808105 
L 333.556364 126.552992 
L 336.802909 126.136586 
L 340.049455 126.402093 
L 343.296 127.019065 
L 346.542545 127.757746 
L 349.789091 128.523285 
L 353.035636 129.296053 
L 356.282182 130.08683 
L 359.528727 130.912762 
L 362.775273 131.782051 
L 366.021818 132.680591 
L 369.268364 133.559815 
L 372.514909 134.331483 
L 375.761455 134.881812 
L 379.008 135.112611 
L 382.254545 134.985687 
L 385.501091 134.524509 
L 388.747636 133.76892 
L 391.994182 132.722675 
L 395.240727 131.273655 
L 398.487273 129.416721 
" style="fill:none;stroke:#8c564b;stroke-linecap:square;stroke-width:2;"/>
   </g>
   <g id="line2d_22">
    <path clip-path="url(#p099cfdb220)" d="M 73.832727 154.651649 
L 77.079273 154.123873 
L 80.325818 153.62904 
L 83.572364 153.164425 
L 86.818909 152.726552 
L 90.065455 152.311515 
L 93.312 151.915261 
L 96.558545 151.533795 
L 99.805091 151.163343 
L 103.051636 150.800471 
L 106.298182 150.442171 
L 109.544727 150.085924 
L 112.791273 149.729737 
L 116.037818 149.372168 
L 119.284364 149.012324 
L 122.530909 148.649852 
L 125.777455 148.284891 
L 129.024 147.91801 
L 132.270545 147.550108 
L 135.517091 147.182293 
L 138.763636 146.815741 
L 142.010182 146.451548 
L 145.256727 146.090609 
L 148.503273 145.733514 
L 151.749818 145.380506 
L 154.996364 145.031469 
L 158.242909 144.685976 
L 161.489455 144.343357 
L 164.736 144.002799 
L 167.982545 143.663453 
L 171.229091 143.324535 
L 174.475636 142.98543 
L 177.722182 142.645777 
L 180.968727 142.305537 
L 184.215273 141.965068 
L 187.461818 141.62518 
L 190.708364 141.287205 
L 193.954909 140.953075 
L 197.201455 140.625413 
L 200.448 140.307629 
L 203.694545 140.004011 
L 206.941091 139.719755 
L 210.187636 139.460898 
L 213.434182 139.234066 
L 216.680727 139.045968 
L 219.927273 138.902604 
L 223.173818 138.808226 
L 226.420364 138.764229 
L 229.666909 138.768239 
L 232.913455 138.81369 
L 236.16 138.890076 
L 239.406545 138.983878 
L 242.653091 139.079971 
L 245.899636 139.163272 
L 249.146182 139.220395 
L 252.392727 139.241219 
L 255.639273 139.220346 
L 258.885818 139.15847 
L 262.132364 139.063696 
L 265.378909 138.952698 
L 268.625455 138.851409 
L 271.872 138.794634 
L 275.118545 138.823818 
L 278.365091 138.982808 
L 281.611636 139.313172 
L 284.858182 139.852889 
L 288.104727 140.643229 
L 291.351273 141.748597 
L 294.597818 143.298151 
L 297.844364 145.574004 
L 301.090909 149.082507 
L 304.337455 150.948841 
L 307.584 145.486273 
L 310.830545 140.550145 
L 314.077091 136.637679 
L 317.323636 133.510288 
L 320.570182 131.474698 
L 323.816727 130.833966 
L 327.063273 131.168943 
L 330.309818 131.852222 
L 333.556364 132.570869 
L 336.802909 133.234303 
L 340.049455 133.834574 
L 343.296 134.388938 
L 346.542545 134.921949 
L 349.789091 135.460479 
L 353.035636 136.031998 
L 356.282182 136.66228 
L 359.528727 137.369936 
L 362.775273 138.154453 
L 366.021818 138.973144 
L 369.268364 139.705306 
L 372.514909 140.127808 
L 375.761455 139.98261 
L 379.008 139.155259 
L 382.254545 137.730324 
L 385.501091 135.838532 
L 388.747636 133.647756 
L 391.994182 132.064618 
L 395.240727 133.225085 
L 398.487273 136.434897 
" style="fill:none;stroke:#e377c2;stroke-linecap:square;stroke-width:2;"/>
   </g>
   <g id="line2d_23">
    <path clip-path="url(#p099cfdb220)" d="M 73.832727 154.667688 
L 77.079273 154.217215 
L 80.325818 153.796 
L 83.572364 153.401609 
L 86.818909 153.031166 
L 90.065455 152.681542 
L 93.312 152.349517 
L 96.558545 152.031913 
L 99.805091 151.725696 
L 103.051636 151.428063 
L 106.298182 151.136495 
L 109.544727 150.848809 
L 112.791273 150.563188 
L 116.037818 150.278198 
L 119.284364 149.992805 
L 122.530909 149.706368 
L 125.777455 149.418621 
L 129.024 149.129646 
L 132.270545 148.839806 
L 135.517091 148.549675 
L 138.763636 148.259933 
L 142.010182 147.971262 
L 145.256727 147.684242 
L 148.503273 147.399269 
L 151.749818 147.116495 
L 154.996364 146.835805 
L 158.242909 146.556829 
L 161.489455 146.278975 
L 164.736 146.001489 
L 167.982545 145.723522 
L 171.229091 145.444199 
L 174.475636 145.162691 
L 177.722182 144.87827 
L 180.968727 144.590363 
L 184.215273 144.298596 
L 187.461818 144.00284 
L 190.708364 143.703254 
L 193.954909 143.400356 
L 197.201455 143.095104 
L 200.448 142.789024 
L 203.694545 142.484369 
L 206.941091 142.184323 
L 210.187636 141.893228 
L 213.434182 141.616795 
L 216.680727 141.362213 
L 219.927273 141.138029 
L 223.173818 140.953623 
L 226.420364 140.818105 
L 229.666909 140.738635 
L 232.913455 140.718402 
L 236.16 140.754849 
L 239.406545 140.838875 
L 242.653091 140.955475 
L 245.899636 141.085773 
L 249.146182 141.209916 
L 252.392727 141.310116 
L 255.639273 141.373389 
L 258.885818 141.393789 
L 262.132364 141.374262 
L 265.378909 141.32845 
L 268.625455 141.283162 
L 271.872 141.283248 
L 275.118545 141.404007 
L 278.365091 141.788657 
L 281.611636 142.77971 
L 284.858182 145.24279 
L 288.104727 141.679268 
L 291.351273 135.598169 
L 294.597818 135.942978 
L 297.844364 136.658883 
L 301.090909 137.173682 
L 304.337455 137.556516 
L 307.584 137.859777 
L 310.830545 138.11109 
L 314.077091 138.325585 
L 317.323636 138.512469 
L 320.570182 138.678141 
L 323.816727 138.827717 
L 327.063273 138.965846 
L 330.309818 139.097203 
L 333.556364 139.226812 
L 336.802909 139.360124 
L 340.049455 139.502296 
L 343.296 139.654427 
L 346.542545 139.797788 
L 349.789091 139.82942 
L 353.035636 139.338845 
L 356.282182 137.512878 
L 359.528727 135.591719 
L 362.775273 135.785336 
L 366.021818 136.608934 
L 369.268364 137.337488 
L 372.514909 137.967373 
L 375.761455 138.565259 
L 379.008 139.180132 
L 382.254545 139.843027 
L 385.501091 140.572303 
L 388.747636 141.377168 
L 391.994182 142.259942 
L 395.240727 143.2174 
L 398.487273 144.24023 
" style="fill:none;stroke:#7f7f7f;stroke-linecap:square;stroke-width:2;"/>
   </g>
   <g id="line2d_24">
    <path clip-path="url(#p099cfdb220)" d="M 73.832727 156.106935 
L 77.079273 155.689995 
L 80.325818 155.302319 
L 83.572364 154.941483 
L 86.818909 154.604788 
L 90.065455 154.289381 
L 93.312 153.992376 
L 96.558545 153.710941 
L 99.805091 153.442377 
L 103.051636 153.184175 
L 106.298182 152.934061 
L 109.544727 152.690028 
L 112.791273 152.45035 
L 116.037818 152.213603 
L 119.284364 151.978662 
L 122.530909 151.744701 
L 125.777455 151.511182 
L 129.024 151.277833 
L 132.270545 151.044612 
L 135.517091 150.811654 
L 138.763636 150.579207 
L 142.010182 150.347554 
L 145.256727 150.116939 
L 148.503273 149.887497 
L 151.749818 149.659207 
L 154.996364 149.431863 
L 158.242909 149.205073 
L 161.489455 148.978277 
L 164.736 148.750782 
L 167.982545 148.521807 
L 171.229091 148.290533 
L 174.475636 148.05615 
L 177.722182 147.817902 
L 180.968727 147.575116 
L 184.215273 147.327237 
L 187.461818 147.073841 
L 190.708364 146.814667 
L 193.954909 146.54964 
L 197.201455 146.278923 
L 200.448 146.00299 
L 203.694545 145.722738 
L 206.941091 145.439656 
L 210.187636 145.156056 
L 213.434182 144.87538 
L 216.680727 144.602567 
L 219.927273 144.344442 
L 223.173818 144.109981 
L 226.420364 143.910233 
L 229.666909 143.757553 
L 232.913455 143.663796 
L 236.16 143.637448 
L 239.406545 143.680267 
L 242.653091 143.784766 
L 245.899636 143.933896 
L 249.146182 144.103535 
L 252.392727 144.267062 
L 255.639273 144.400606 
L 258.885818 144.487817 
L 262.132364 144.523939 
L 265.378909 144.520966 
L 268.625455 144.524111 
L 271.872 144.71402 
L 275.118545 142.088425 
L 278.365091 143.197101 
L 281.611636 143.265736 
L 284.858182 143.218667 
L 288.104727 143.155473 
L 291.351273 143.098507 
L 294.597818 143.052508 
L 297.844364 143.016505 
L 301.090909 142.987739 
L 304.337455 142.963235 
L 307.584 142.940412 
L 310.830545 142.917207 
L 314.077091 142.891988 
L 317.323636 142.863324 
L 320.570182 142.829641 
L 323.816727 142.788632 
L 327.063273 142.736082 
L 330.309818 142.663022 
L 333.556364 142.547626 
L 336.802909 142.329383 
L 340.049455 141.865073 
L 343.296 141.764192 
L 346.542545 142.598295 
L 349.789091 142.861381 
L 353.035636 142.939129 
L 356.282182 142.989445 
L 359.528727 143.049543 
L 362.775273 143.133048 
L 366.021818 143.248532 
L 369.268364 143.403665 
L 372.514909 143.606301 
L 375.761455 143.864747 
L 379.008 144.18778 
L 382.254545 144.584612 
L 385.501091 145.065041 
L 388.747636 145.64022 
L 391.994182 146.325199 
L 395.240727 147.146717 
L 398.487273 148.16938 
" style="fill:none;stroke:#bcbd22;stroke-linecap:square;stroke-width:2;"/>
   </g>
   <g id="line2d_25">
    <path clip-path="url(#p099cfdb220)" d="M 73.832727 64.966011 
L 77.079273 64.561232 
L 80.325818 64.1864 
L 83.572364 63.839087 
L 86.818909 63.516634 
L 90.065455 63.216267 
L 93.312 62.935193 
L 96.558545 62.670684 
L 99.805091 62.42014 
L 103.051636 62.181144 
L 106.298182 61.951498 
L 109.544727 61.729249 
L 112.791273 61.512705 
L 116.037818 61.300446 
L 119.284364 61.09132 
L 122.530909 60.884438 
L 125.777455 60.679169 
L 129.024 60.475109 
L 132.270545 60.272058 
L 135.517091 60.069973 
L 138.763636 59.868912 
L 142.010182 59.668967 
L 145.256727 59.470207 
L 148.503273 59.272613 
L 151.749818 59.076042 
L 154.996364 58.880197 
L 158.242909 58.684629 
L 161.489455 58.488751 
L 164.736 58.291864 
L 167.982545 58.093202 
L 171.229091 57.89197 
L 174.475636 57.687387 
L 177.722182 57.478723 
L 180.968727 57.265324 
L 184.215273 57.046636 
L 187.461818 56.822218 
L 190.708364 56.591755 
L 193.954909 56.355081 
L 197.201455 56.112202 
L 200.448 55.863361 
L 203.694545 55.609121 
L 206.941091 55.350507 
L 210.187636 55.089216 
L 213.434182 54.827912 
L 216.680727 54.570618 
L 219.927273 54.323206 
L 223.173818 54.093892 
L 226.420364 53.893568 
L 229.666909 53.73561 
L 232.913455 53.634654 
L 236.16 53.603916 
L 239.406545 53.651172 
L 242.653091 53.774554 
L 245.899636 53.960192 
L 249.146182 54.183321 
L 252.392727 54.412892 
L 255.639273 54.61805 
L 258.885818 54.77471 
L 262.132364 54.872974 
L 265.378909 54.949516 
L 268.625455 56.616392 
L 271.872 55.271219 
L 275.118545 54.792992 
L 278.365091 54.607604 
L 281.611636 54.464411 
L 284.858182 54.343577 
L 288.104727 54.241583 
L 291.351273 54.155927 
L 294.597818 54.083594 
L 297.844364 54.021426 
L 301.090909 53.966565 
L 304.337455 53.916675 
L 307.584 53.869962 
L 310.830545 53.825073 
L 314.077091 53.780968 
L 317.323636 53.736776 
L 320.570182 53.69174 
L 323.816727 53.645464 
L 327.063273 53.599656 
L 330.309818 53.568 
L 333.556364 53.641422 
L 336.802909 54.382648 
L 340.049455 55.314145 
L 343.296 54.745009 
L 346.542545 54.408921 
L 349.789091 54.262566 
L 353.035636 54.206152 
L 356.282182 54.203143 
L 359.528727 54.240708 
L 362.775273 54.315581 
L 366.021818 54.429158 
L 369.268364 54.585639 
L 372.514909 54.791277 
L 375.761455 55.054147 
L 379.008 55.38424 
L 382.254545 55.794005 
L 385.501091 56.29983 
L 388.747636 56.925954 
L 391.994182 57.715429 
L 395.240727 58.764585 
L 398.487273 60.352876 
" style="fill:none;stroke:#17becf;stroke-linecap:square;stroke-width:2;"/>
   </g>
   <g id="patch_3">
    <path d="M 57.6 307.584 
L 57.6 41.472 
" style="fill:none;stroke:#000000;stroke-linecap:square;stroke-linejoin:miter;stroke-width:0.8;"/>
   </g>
   <g id="patch_4">
    <path d="M 414.72 307.584 
L 414.72 41.472 
" style="fill:none;stroke:#000000;stroke-linecap:square;stroke-linejoin:miter;stroke-width:0.8;"/>
   </g>
   <g id="patch_5">
    <path d="M 57.6 307.584 
L 414.72 307.584 
" style="fill:none;stroke:#000000;stroke-linecap:square;stroke-linejoin:miter;stroke-width:0.8;"/>
   </g>
   <g id="patch_6">
    <path d="M 57.6 41.472 
L 414.72 41.472 
" style="fill:none;stroke:#000000;stroke-linecap:square;stroke-linejoin:miter;stroke-width:0.8;"/>
   </g>
   <g id="text_17">
    <!-- Transmission of different radius -->
    <defs>
     <path d="M -0.296875 72.90625 
L 61.375 72.90625 
L 61.375 64.59375 
L 35.5 64.59375 
L 35.5 0 
L 25.59375 0 
L 25.59375 64.59375 
L -0.296875 64.59375 
z
" id="DejaVuSans-84"/>
     <path d="M 30.609375 48.390625 
Q 23.390625 48.390625 19.1875 42.75 
Q 14.984375 37.109375 14.984375 27.296875 
Q 14.984375 17.484375 19.15625 11.84375 
Q 23.34375 6.203125 30.609375 6.203125 
Q 37.796875 6.203125 41.984375 11.859375 
Q 46.1875 17.53125 46.1875 27.296875 
Q 46.1875 37.015625 41.984375 42.703125 
Q 37.796875 48.390625 30.609375 48.390625 
z
M 30.609375 56 
Q 42.328125 56 49.015625 48.375 
Q 55.71875 40.765625 55.71875 27.296875 
Q 55.71875 13.875 49.015625 6.21875 
Q 42.328125 -1.421875 30.609375 -1.421875 
Q 18.84375 -1.421875 12.171875 6.21875 
Q 5.515625 13.875 5.515625 27.296875 
Q 5.515625 40.765625 12.171875 48.375 
Q 18.84375 56 30.609375 56 
z
" id="DejaVuSans-111"/>
     <path id="DejaVuSans-32"/>
     <path d="M 37.109375 75.984375 
L 37.109375 68.5 
L 28.515625 68.5 
Q 23.6875 68.5 21.796875 66.546875 
Q 19.921875 64.59375 19.921875 59.515625 
L 19.921875 54.6875 
L 34.71875 54.6875 
L 34.71875 47.703125 
L 19.921875 47.703125 
L 19.921875 0 
L 10.890625 0 
L 10.890625 47.703125 
L 2.296875 47.703125 
L 2.296875 54.6875 
L 10.890625 54.6875 
L 10.890625 58.5 
Q 10.890625 67.625 15.140625 71.796875 
Q 19.390625 75.984375 28.609375 75.984375 
z
" id="DejaVuSans-102"/>
     <path d="M 56.203125 29.59375 
L 56.203125 25.203125 
L 14.890625 25.203125 
Q 15.484375 15.921875 20.484375 11.0625 
Q 25.484375 6.203125 34.421875 6.203125 
Q 39.59375 6.203125 44.453125 7.46875 
Q 49.3125 8.734375 54.109375 11.28125 
L 54.109375 2.78125 
Q 49.265625 0.734375 44.1875 -0.34375 
Q 39.109375 -1.421875 33.890625 -1.421875 
Q 20.796875 -1.421875 13.15625 6.1875 
Q 5.515625 13.8125 5.515625 26.8125 
Q 5.515625 40.234375 12.765625 48.109375 
Q 20.015625 56 32.328125 56 
Q 43.359375 56 49.78125 48.890625 
Q 56.203125 41.796875 56.203125 29.59375 
z
M 47.21875 32.234375 
Q 47.125 39.59375 43.09375 43.984375 
Q 39.0625 48.390625 32.421875 48.390625 
Q 24.90625 48.390625 20.390625 44.140625 
Q 15.875 39.890625 15.1875 32.171875 
z
" id="DejaVuSans-101"/>
     <path d="M 18.3125 70.21875 
L 18.3125 54.6875 
L 36.8125 54.6875 
L 36.8125 47.703125 
L 18.3125 47.703125 
L 18.3125 18.015625 
Q 18.3125 11.328125 20.140625 9.421875 
Q 21.96875 7.515625 27.59375 7.515625 
L 36.8125 7.515625 
L 36.8125 0 
L 27.59375 0 
Q 17.1875 0 13.234375 3.875 
Q 9.28125 7.765625 9.28125 18.015625 
L 9.28125 47.703125 
L 2.6875 47.703125 
L 2.6875 54.6875 
L 9.28125 54.6875 
L 9.28125 70.21875 
z
" id="DejaVuSans-116"/>
    </defs>
    <g transform="translate(141.78375 35.472)scale(0.12 -0.12)">
     <use xlink:href="#DejaVuSans-84"/>
     <use x="46.333984" xlink:href="#DejaVuSans-114"/>
     <use x="87.447266" xlink:href="#DejaVuSans-97"/>
     <use x="148.726562" xlink:href="#DejaVuSans-110"/>
     <use x="212.105469" xlink:href="#DejaVuSans-115"/>
     <use x="264.205078" xlink:href="#DejaVuSans-109"/>
     <use x="361.617188" xlink:href="#DejaVuSans-105"/>
     <use x="389.400391" xlink:href="#DejaVuSans-115"/>
     <use x="441.5" xlink:href="#DejaVuSans-115"/>
     <use x="493.599609" xlink:href="#DejaVuSans-105"/>
     <use x="521.382812" xlink:href="#DejaVuSans-111"/>
     <use x="582.564453" xlink:href="#DejaVuSans-110"/>
     <use x="645.943359" xlink:href="#DejaVuSans-32"/>
     <use x="677.730469" xlink:href="#DejaVuSans-111"/>
     <use x="738.912109" xlink:href="#DejaVuSans-102"/>
     <use x="774.117188" xlink:href="#DejaVuSans-32"/>
     <use x="805.904297" xlink:href="#DejaVuSans-100"/>
     <use x="869.380859" xlink:href="#DejaVuSans-105"/>
     <use x="897.164062" xlink:href="#DejaVuSans-102"/>
     <use x="932.369141" xlink:href="#DejaVuSans-102"/>
     <use x="967.574219" xlink:href="#DejaVuSans-101"/>
     <use x="1029.097656" xlink:href="#DejaVuSans-114"/>
     <use x="1067.960938" xlink:href="#DejaVuSans-101"/>
     <use x="1129.484375" xlink:href="#DejaVuSans-110"/>
     <use x="1192.863281" xlink:href="#DejaVuSans-116"/>
     <use x="1232.072266" xlink:href="#DejaVuSans-32"/>
     <use x="1263.859375" xlink:href="#DejaVuSans-114"/>
     <use x="1304.972656" xlink:href="#DejaVuSans-97"/>
     <use x="1366.251953" xlink:href="#DejaVuSans-100"/>
     <use x="1429.728516" xlink:href="#DejaVuSans-105"/>
     <use x="1457.511719" xlink:href="#DejaVuSans-117"/>
     <use x="1520.890625" xlink:href="#DejaVuSans-115"/>
    </g>
   </g>
   <g id="legend_1">
    <g id="patch_7">
     <path d="M 362.995 302.584 
L 407.72 302.584 
Q 409.72 302.584 409.72 300.584 
L 409.72 154.80275 
Q 409.72 152.80275 407.72 152.80275 
L 362.995 152.80275 
Q 360.995 152.80275 360.995 154.80275 
L 360.995 300.584 
Q 360.995 302.584 362.995 302.584 
z
" style="fill:#ffffff;opacity:0.8;stroke:#cccccc;stroke-linejoin:miter;"/>
    </g>
    <g id="line2d_26">
     <path d="M 364.995 160.901187 
L 384.995 160.901187 
" style="fill:none;stroke:#1f77b4;stroke-linecap:square;stroke-width:2;"/>
    </g>
    <g id="line2d_27"/>
    <g id="text_18">
     <!-- 0 -->
     <g transform="translate(392.995 164.401187)scale(0.1 -0.1)">
      <use xlink:href="#DejaVuSans-48"/>
     </g>
    </g>
    <g id="line2d_28">
     <path d="M 364.995 175.579313 
L 384.995 175.579313 
" style="fill:none;stroke:#ff7f0e;stroke-linecap:square;stroke-width:2;"/>
    </g>
    <g id="line2d_29"/>
    <g id="text_19">
     <!-- 10 -->
     <g transform="translate(392.995 179.079313)scale(0.1 -0.1)">
      <use xlink:href="#DejaVuSans-49"/>
      <use x="63.623047" xlink:href="#DejaVuSans-48"/>
     </g>
    </g>
    <g id="line2d_30">
     <path d="M 364.995 190.257438 
L 384.995 190.257438 
" style="fill:none;stroke:#2ca02c;stroke-linecap:square;stroke-width:2;"/>
    </g>
    <g id="line2d_31"/>
    <g id="text_20">
     <!-- 20 -->
     <g transform="translate(392.995 193.757438)scale(0.1 -0.1)">
      <use xlink:href="#DejaVuSans-50"/>
      <use x="63.623047" xlink:href="#DejaVuSans-48"/>
     </g>
    </g>
    <g id="line2d_32">
     <path d="M 364.995 204.935563 
L 384.995 204.935563 
" style="fill:none;stroke:#d62728;stroke-linecap:square;stroke-width:2;"/>
    </g>
    <g id="line2d_33"/>
    <g id="text_21">
     <!-- 30 -->
     <defs>
      <path d="M 40.578125 39.3125 
Q 47.65625 37.796875 51.625 33 
Q 55.609375 28.21875 55.609375 21.1875 
Q 55.609375 10.40625 48.1875 4.484375 
Q 40.765625 -1.421875 27.09375 -1.421875 
Q 22.515625 -1.421875 17.65625 -0.515625 
Q 12.796875 0.390625 7.625 2.203125 
L 7.625 11.71875 
Q 11.71875 9.328125 16.59375 8.109375 
Q 21.484375 6.890625 26.8125 6.890625 
Q 36.078125 6.890625 40.9375 10.546875 
Q 45.796875 14.203125 45.796875 21.1875 
Q 45.796875 27.640625 41.28125 31.265625 
Q 36.765625 34.90625 28.71875 34.90625 
L 20.21875 34.90625 
L 20.21875 43.015625 
L 29.109375 43.015625 
Q 36.375 43.015625 40.234375 45.921875 
Q 44.09375 48.828125 44.09375 54.296875 
Q 44.09375 59.90625 40.109375 62.90625 
Q 36.140625 65.921875 28.71875 65.921875 
Q 24.65625 65.921875 20.015625 65.03125 
Q 15.375 64.15625 9.8125 62.3125 
L 9.8125 71.09375 
Q 15.4375 72.65625 20.34375 73.4375 
Q 25.25 74.21875 29.59375 74.21875 
Q 40.828125 74.21875 47.359375 69.109375 
Q 53.90625 64.015625 53.90625 55.328125 
Q 53.90625 49.265625 50.4375 45.09375 
Q 46.96875 40.921875 40.578125 39.3125 
z
" id="DejaVuSans-51"/>
     </defs>
     <g transform="translate(392.995 208.435563)scale(0.1 -0.1)">
      <use xlink:href="#DejaVuSans-51"/>
      <use x="63.623047" xlink:href="#DejaVuSans-48"/>
     </g>
    </g>
    <g id="line2d_34">
     <path d="M 364.995 219.613688 
L 384.995 219.613688 
" style="fill:none;stroke:#9467bd;stroke-linecap:square;stroke-width:2;"/>
    </g>
    <g id="line2d_35"/>
    <g id="text_22">
     <!-- 40 -->
     <defs>
      <path d="M 37.796875 64.3125 
L 12.890625 25.390625 
L 37.796875 25.390625 
z
M 35.203125 72.90625 
L 47.609375 72.90625 
L 47.609375 25.390625 
L 58.015625 25.390625 
L 58.015625 17.1875 
L 47.609375 17.1875 
L 47.609375 0 
L 37.796875 0 
L 37.796875 17.1875 
L 4.890625 17.1875 
L 4.890625 26.703125 
z
" id="DejaVuSans-52"/>
     </defs>
     <g transform="translate(392.995 223.113688)scale(0.1 -0.1)">
      <use xlink:href="#DejaVuSans-52"/>
      <use x="63.623047" xlink:href="#DejaVuSans-48"/>
     </g>
    </g>
    <g id="line2d_36">
     <path d="M 364.995 234.291812 
L 384.995 234.291812 
" style="fill:none;stroke:#8c564b;stroke-linecap:square;stroke-width:2;"/>
    </g>
    <g id="line2d_37"/>
    <g id="text_23">
     <!-- 50 -->
     <g transform="translate(392.995 237.791812)scale(0.1 -0.1)">
      <use xlink:href="#DejaVuSans-53"/>
      <use x="63.623047" xlink:href="#DejaVuSans-48"/>
     </g>
    </g>
    <g id="line2d_38">
     <path d="M 364.995 248.969938 
L 384.995 248.969938 
" style="fill:none;stroke:#e377c2;stroke-linecap:square;stroke-width:2;"/>
    </g>
    <g id="line2d_39"/>
    <g id="text_24">
     <!-- 60 -->
     <defs>
      <path d="M 33.015625 40.375 
Q 26.375 40.375 22.484375 35.828125 
Q 18.609375 31.296875 18.609375 23.390625 
Q 18.609375 15.53125 22.484375 10.953125 
Q 26.375 6.390625 33.015625 6.390625 
Q 39.65625 6.390625 43.53125 10.953125 
Q 47.40625 15.53125 47.40625 23.390625 
Q 47.40625 31.296875 43.53125 35.828125 
Q 39.65625 40.375 33.015625 40.375 
z
M 52.59375 71.296875 
L 52.59375 62.3125 
Q 48.875 64.0625 45.09375 64.984375 
Q 41.3125 65.921875 37.59375 65.921875 
Q 27.828125 65.921875 22.671875 59.328125 
Q 17.53125 52.734375 16.796875 39.40625 
Q 19.671875 43.65625 24.015625 45.921875 
Q 28.375 48.1875 33.59375 48.1875 
Q 44.578125 48.1875 50.953125 41.515625 
Q 57.328125 34.859375 57.328125 23.390625 
Q 57.328125 12.15625 50.6875 5.359375 
Q 44.046875 -1.421875 33.015625 -1.421875 
Q 20.359375 -1.421875 13.671875 8.265625 
Q 6.984375 17.96875 6.984375 36.375 
Q 6.984375 53.65625 15.1875 63.9375 
Q 23.390625 74.21875 37.203125 74.21875 
Q 40.921875 74.21875 44.703125 73.484375 
Q 48.484375 72.75 52.59375 71.296875 
z
" id="DejaVuSans-54"/>
     </defs>
     <g transform="translate(392.995 252.469938)scale(0.1 -0.1)">
      <use xlink:href="#DejaVuSans-54"/>
      <use x="63.623047" xlink:href="#DejaVuSans-48"/>
     </g>
    </g>
    <g id="line2d_40">
     <path d="M 364.995 263.648062 
L 384.995 263.648062 
" style="fill:none;stroke:#7f7f7f;stroke-linecap:square;stroke-width:2;"/>
    </g>
    <g id="line2d_41"/>
    <g id="text_25">
     <!-- 70 -->
     <g transform="translate(392.995 267.148062)scale(0.1 -0.1)">
      <use xlink:href="#DejaVuSans-55"/>
      <use x="63.623047" xlink:href="#DejaVuSans-48"/>
     </g>
    </g>
    <g id="line2d_42">
     <path d="M 364.995 278.326188 
L 384.995 278.326188 
" style="fill:none;stroke:#bcbd22;stroke-linecap:square;stroke-width:2;"/>
    </g>
    <g id="line2d_43"/>
    <g id="text_26">
     <!-- 80 -->
     <defs>
      <path d="M 31.78125 34.625 
Q 24.75 34.625 20.71875 30.859375 
Q 16.703125 27.09375 16.703125 20.515625 
Q 16.703125 13.921875 20.71875 10.15625 
Q 24.75 6.390625 31.78125 6.390625 
Q 38.8125 6.390625 42.859375 10.171875 
Q 46.921875 13.96875 46.921875 20.515625 
Q 46.921875 27.09375 42.890625 30.859375 
Q 38.875 34.625 31.78125 34.625 
z
M 21.921875 38.8125 
Q 15.578125 40.375 12.03125 44.71875 
Q 8.5 49.078125 8.5 55.328125 
Q 8.5 64.0625 14.71875 69.140625 
Q 20.953125 74.21875 31.78125 74.21875 
Q 42.671875 74.21875 48.875 69.140625 
Q 55.078125 64.0625 55.078125 55.328125 
Q 55.078125 49.078125 51.53125 44.71875 
Q 48 40.375 41.703125 38.8125 
Q 48.828125 37.15625 52.796875 32.3125 
Q 56.78125 27.484375 56.78125 20.515625 
Q 56.78125 9.90625 50.3125 4.234375 
Q 43.84375 -1.421875 31.78125 -1.421875 
Q 19.734375 -1.421875 13.25 4.234375 
Q 6.78125 9.90625 6.78125 20.515625 
Q 6.78125 27.484375 10.78125 32.3125 
Q 14.796875 37.15625 21.921875 38.8125 
z
M 18.3125 54.390625 
Q 18.3125 48.734375 21.84375 45.5625 
Q 25.390625 42.390625 31.78125 42.390625 
Q 38.140625 42.390625 41.71875 45.5625 
Q 45.3125 48.734375 45.3125 54.390625 
Q 45.3125 60.0625 41.71875 63.234375 
Q 38.140625 66.40625 31.78125 66.40625 
Q 25.390625 66.40625 21.84375 63.234375 
Q 18.3125 60.0625 18.3125 54.390625 
z
" id="DejaVuSans-56"/>
     </defs>
     <g transform="translate(392.995 281.826188)scale(0.1 -0.1)">
      <use xlink:href="#DejaVuSans-56"/>
      <use x="63.623047" xlink:href="#DejaVuSans-48"/>
     </g>
    </g>
    <g id="line2d_44">
     <path d="M 364.995 293.004312 
L 384.995 293.004312 
" style="fill:none;stroke:#17becf;stroke-linecap:square;stroke-width:2;"/>
    </g>
    <g id="line2d_45"/>
    <g id="text_27">
     <!-- 90 -->
     <defs>
      <path d="M 10.984375 1.515625 
L 10.984375 10.5 
Q 14.703125 8.734375 18.5 7.8125 
Q 22.3125 6.890625 25.984375 6.890625 
Q 35.75 6.890625 40.890625 13.453125 
Q 46.046875 20.015625 46.78125 33.40625 
Q 43.953125 29.203125 39.59375 26.953125 
Q 35.25 24.703125 29.984375 24.703125 
Q 19.046875 24.703125 12.671875 31.3125 
Q 6.296875 37.9375 6.296875 49.421875 
Q 6.296875 60.640625 12.9375 67.421875 
Q 19.578125 74.21875 30.609375 74.21875 
Q 43.265625 74.21875 49.921875 64.515625 
Q 56.59375 54.828125 56.59375 36.375 
Q 56.59375 19.140625 48.40625 8.859375 
Q 40.234375 -1.421875 26.421875 -1.421875 
Q 22.703125 -1.421875 18.890625 -0.6875 
Q 15.09375 0.046875 10.984375 1.515625 
z
M 30.609375 32.421875 
Q 37.25 32.421875 41.125 36.953125 
Q 45.015625 41.5 45.015625 49.421875 
Q 45.015625 57.28125 41.125 61.84375 
Q 37.25 66.40625 30.609375 66.40625 
Q 23.96875 66.40625 20.09375 61.84375 
Q 16.21875 57.28125 16.21875 49.421875 
Q 16.21875 41.5 20.09375 36.953125 
Q 23.96875 32.421875 30.609375 32.421875 
z
" id="DejaVuSans-57"/>
     </defs>
     <g transform="translate(392.995 296.504312)scale(0.1 -0.1)">
      <use xlink:href="#DejaVuSans-57"/>
      <use x="63.623047" xlink:href="#DejaVuSans-48"/>
     </g>
    </g>
   </g>
  </g>
 </g>
 <defs>
  <clipPath id="p099cfdb220">
   <rect height="266.112" width="357.12" x="57.6" y="41.472"/>
  </clipPath>
 </defs>
</svg>
