<?xml version="1.0" encoding="utf-8" standalone="no"?>
<!DOCTYPE svg PUBLIC "-//W3C//DTD SVG 1.1//EN"
  "http://www.w3.org/Graphics/SVG/1.1/DTD/svg11.dtd">
<!-- Created with matplotlib (https://matplotlib.org/) -->
<svg height="345.6pt" version="1.1" viewBox="0 0 460.8 345.6" width="460.8pt" xmlns="http://www.w3.org/2000/svg" xmlns:xlink="http://www.w3.org/1999/xlink">
 <metadata>
  <rdf:RDF xmlns:cc="http://creativecommons.org/ns#" xmlns:dc="http://purl.org/dc/elements/1.1/" xmlns:rdf="http://www.w3.org/1999/02/22-rdf-syntax-ns#">
   <cc:Work>
    <dc:type rdf:resource="http://purl.org/dc/dcmitype/StillImage"/>
    <dc:date>2022-01-07T14:57:38.906228</dc:date>
    <dc:format>image/svg+xml</dc:format>
    <dc:creator>
     <cc:Agent>
      <dc:title>Matplotlib v3.3.3, https://matplotlib.org/</dc:title>
     </cc:Agent>
    </dc:creator>
   </cc:Work>
  </rdf:RDF>
 </metadata>
 <defs>
  <style type="text/css">*{stroke-linecap:butt;stroke-linejoin:round;}</style>
 </defs>
 <g id="figure_1">
  <g id="patch_1">
   <path d="M 0 345.6 
L 460.8 345.6 
L 460.8 0 
L 0 0 
z
" style="fill:#ffffff;"/>
  </g>
  <g id="axes_1">
   <g id="patch_2">
    <path d="M 57.6 307.584 
L 414.72 307.584 
L 414.72 41.472 
L 57.6 41.472 
z
" style="fill:#ffffff;"/>
   </g>
   <g id="matplotlib.axis_1">
    <g id="xtick_1">
     <g id="line2d_1">
      <defs>
       <path d="M 0 0 
L 0 3.5 
" id="m584345e422" style="stroke:#000000;stroke-width:0.8;"/>
      </defs>
      <g>
       <use style="stroke:#000000;stroke-width:0.8;" x="73.832727" xlink:href="#m584345e422" y="307.584"/>
      </g>
     </g>
     <g id="text_1">
      <!-- 100 -->
      <g transform="translate(64.288977 322.182437)scale(0.1 -0.1)">
       <defs>
        <path d="M 12.40625 8.296875 
L 28.515625 8.296875 
L 28.515625 63.921875 
L 10.984375 60.40625 
L 10.984375 69.390625 
L 28.421875 72.90625 
L 38.28125 72.90625 
L 38.28125 8.296875 
L 54.390625 8.296875 
L 54.390625 0 
L 12.40625 0 
z
" id="DejaVuSans-49"/>
        <path d="M 31.78125 66.40625 
Q 24.171875 66.40625 20.328125 58.90625 
Q 16.5 51.421875 16.5 36.375 
Q 16.5 21.390625 20.328125 13.890625 
Q 24.171875 6.390625 31.78125 6.390625 
Q 39.453125 6.390625 43.28125 13.890625 
Q 47.125 21.390625 47.125 36.375 
Q 47.125 51.421875 43.28125 58.90625 
Q 39.453125 66.40625 31.78125 66.40625 
z
M 31.78125 74.21875 
Q 44.046875 74.21875 50.515625 64.515625 
Q 56.984375 54.828125 56.984375 36.375 
Q 56.984375 17.96875 50.515625 8.265625 
Q 44.046875 -1.421875 31.78125 -1.421875 
Q 19.53125 -1.421875 13.0625 8.265625 
Q 6.59375 17.96875 6.59375 36.375 
Q 6.59375 54.828125 13.0625 64.515625 
Q 19.53125 74.21875 31.78125 74.21875 
z
" id="DejaVuSans-48"/>
       </defs>
       <use xlink:href="#DejaVuSans-49"/>
       <use x="63.623047" xlink:href="#DejaVuSans-48"/>
       <use x="127.246094" xlink:href="#DejaVuSans-48"/>
      </g>
     </g>
    </g>
    <g id="xtick_2">
     <g id="line2d_2">
      <g>
       <use style="stroke:#000000;stroke-width:0.8;" x="120.478495" xlink:href="#m584345e422" y="307.584"/>
      </g>
     </g>
     <g id="text_2">
      <!-- 125 -->
      <g transform="translate(110.934745 322.182437)scale(0.1 -0.1)">
       <defs>
        <path d="M 19.1875 8.296875 
L 53.609375 8.296875 
L 53.609375 0 
L 7.328125 0 
L 7.328125 8.296875 
Q 12.9375 14.109375 22.625 23.890625 
Q 32.328125 33.6875 34.8125 36.53125 
Q 39.546875 41.84375 41.421875 45.53125 
Q 43.3125 49.21875 43.3125 52.78125 
Q 43.3125 58.59375 39.234375 62.25 
Q 35.15625 65.921875 28.609375 65.921875 
Q 23.96875 65.921875 18.8125 64.3125 
Q 13.671875 62.703125 7.8125 59.421875 
L 7.8125 69.390625 
Q 13.765625 71.78125 18.9375 73 
Q 24.125 74.21875 28.421875 74.21875 
Q 39.75 74.21875 46.484375 68.546875 
Q 53.21875 62.890625 53.21875 53.421875 
Q 53.21875 48.921875 51.53125 44.890625 
Q 49.859375 40.875 45.40625 35.40625 
Q 44.1875 33.984375 37.640625 27.21875 
Q 31.109375 20.453125 19.1875 8.296875 
z
" id="DejaVuSans-50"/>
        <path d="M 10.796875 72.90625 
L 49.515625 72.90625 
L 49.515625 64.59375 
L 19.828125 64.59375 
L 19.828125 46.734375 
Q 21.96875 47.46875 24.109375 47.828125 
Q 26.265625 48.1875 28.421875 48.1875 
Q 40.625 48.1875 47.75 41.5 
Q 54.890625 34.8125 54.890625 23.390625 
Q 54.890625 11.625 47.5625 5.09375 
Q 40.234375 -1.421875 26.90625 -1.421875 
Q 22.3125 -1.421875 17.546875 -0.640625 
Q 12.796875 0.140625 7.71875 1.703125 
L 7.71875 11.625 
Q 12.109375 9.234375 16.796875 8.0625 
Q 21.484375 6.890625 26.703125 6.890625 
Q 35.15625 6.890625 40.078125 11.328125 
Q 45.015625 15.765625 45.015625 23.390625 
Q 45.015625 31 40.078125 35.4375 
Q 35.15625 39.890625 26.703125 39.890625 
Q 22.75 39.890625 18.8125 39.015625 
Q 14.890625 38.140625 10.796875 36.28125 
z
" id="DejaVuSans-53"/>
       </defs>
       <use xlink:href="#DejaVuSans-49"/>
       <use x="63.623047" xlink:href="#DejaVuSans-50"/>
       <use x="127.246094" xlink:href="#DejaVuSans-53"/>
      </g>
     </g>
    </g>
    <g id="xtick_3">
     <g id="line2d_3">
      <g>
       <use style="stroke:#000000;stroke-width:0.8;" x="167.124263" xlink:href="#m584345e422" y="307.584"/>
      </g>
     </g>
     <g id="text_3">
      <!-- 150 -->
      <g transform="translate(157.580513 322.182437)scale(0.1 -0.1)">
       <use xlink:href="#DejaVuSans-49"/>
       <use x="63.623047" xlink:href="#DejaVuSans-53"/>
       <use x="127.246094" xlink:href="#DejaVuSans-48"/>
      </g>
     </g>
    </g>
    <g id="xtick_4">
     <g id="line2d_4">
      <g>
       <use style="stroke:#000000;stroke-width:0.8;" x="213.770031" xlink:href="#m584345e422" y="307.584"/>
      </g>
     </g>
     <g id="text_4">
      <!-- 175 -->
      <g transform="translate(204.226281 322.182437)scale(0.1 -0.1)">
       <defs>
        <path d="M 8.203125 72.90625 
L 55.078125 72.90625 
L 55.078125 68.703125 
L 28.609375 0 
L 18.3125 0 
L 43.21875 64.59375 
L 8.203125 64.59375 
z
" id="DejaVuSans-55"/>
       </defs>
       <use xlink:href="#DejaVuSans-49"/>
       <use x="63.623047" xlink:href="#DejaVuSans-55"/>
       <use x="127.246094" xlink:href="#DejaVuSans-53"/>
      </g>
     </g>
    </g>
    <g id="xtick_5">
     <g id="line2d_5">
      <g>
       <use style="stroke:#000000;stroke-width:0.8;" x="260.415799" xlink:href="#m584345e422" y="307.584"/>
      </g>
     </g>
     <g id="text_5">
      <!-- 200 -->
      <g transform="translate(250.872049 322.182437)scale(0.1 -0.1)">
       <use xlink:href="#DejaVuSans-50"/>
       <use x="63.623047" xlink:href="#DejaVuSans-48"/>
       <use x="127.246094" xlink:href="#DejaVuSans-48"/>
      </g>
     </g>
    </g>
    <g id="xtick_6">
     <g id="line2d_6">
      <g>
       <use style="stroke:#000000;stroke-width:0.8;" x="307.061567" xlink:href="#m584345e422" y="307.584"/>
      </g>
     </g>
     <g id="text_6">
      <!-- 225 -->
      <g transform="translate(297.517817 322.182437)scale(0.1 -0.1)">
       <use xlink:href="#DejaVuSans-50"/>
       <use x="63.623047" xlink:href="#DejaVuSans-50"/>
       <use x="127.246094" xlink:href="#DejaVuSans-53"/>
      </g>
     </g>
    </g>
    <g id="xtick_7">
     <g id="line2d_7">
      <g>
       <use style="stroke:#000000;stroke-width:0.8;" x="353.707335" xlink:href="#m584345e422" y="307.584"/>
      </g>
     </g>
     <g id="text_7">
      <!-- 250 -->
      <g transform="translate(344.163585 322.182437)scale(0.1 -0.1)">
       <use xlink:href="#DejaVuSans-50"/>
       <use x="63.623047" xlink:href="#DejaVuSans-53"/>
       <use x="127.246094" xlink:href="#DejaVuSans-48"/>
      </g>
     </g>
    </g>
    <g id="xtick_8">
     <g id="line2d_8">
      <g>
       <use style="stroke:#000000;stroke-width:0.8;" x="400.353103" xlink:href="#m584345e422" y="307.584"/>
      </g>
     </g>
     <g id="text_8">
      <!-- 275 -->
      <g transform="translate(390.809353 322.182437)scale(0.1 -0.1)">
       <use xlink:href="#DejaVuSans-50"/>
       <use x="63.623047" xlink:href="#DejaVuSans-55"/>
       <use x="127.246094" xlink:href="#DejaVuSans-53"/>
      </g>
     </g>
    </g>
    <g id="text_9">
     <!-- radius(nm) -->
     <g transform="translate(208.763125 335.860562)scale(0.1 -0.1)">
      <defs>
       <path d="M 41.109375 46.296875 
Q 39.59375 47.171875 37.8125 47.578125 
Q 36.03125 48 33.890625 48 
Q 26.265625 48 22.1875 43.046875 
Q 18.109375 38.09375 18.109375 28.8125 
L 18.109375 0 
L 9.078125 0 
L 9.078125 54.6875 
L 18.109375 54.6875 
L 18.109375 46.1875 
Q 20.953125 51.171875 25.484375 53.578125 
Q 30.03125 56 36.53125 56 
Q 37.453125 56 38.578125 55.875 
Q 39.703125 55.765625 41.0625 55.515625 
z
" id="DejaVuSans-114"/>
       <path d="M 34.28125 27.484375 
Q 23.390625 27.484375 19.1875 25 
Q 14.984375 22.515625 14.984375 16.5 
Q 14.984375 11.71875 18.140625 8.90625 
Q 21.296875 6.109375 26.703125 6.109375 
Q 34.1875 6.109375 38.703125 11.40625 
Q 43.21875 16.703125 43.21875 25.484375 
L 43.21875 27.484375 
z
M 52.203125 31.203125 
L 52.203125 0 
L 43.21875 0 
L 43.21875 8.296875 
Q 40.140625 3.328125 35.546875 0.953125 
Q 30.953125 -1.421875 24.3125 -1.421875 
Q 15.921875 -1.421875 10.953125 3.296875 
Q 6 8.015625 6 15.921875 
Q 6 25.140625 12.171875 29.828125 
Q 18.359375 34.515625 30.609375 34.515625 
L 43.21875 34.515625 
L 43.21875 35.40625 
Q 43.21875 41.609375 39.140625 45 
Q 35.0625 48.390625 27.6875 48.390625 
Q 23 48.390625 18.546875 47.265625 
Q 14.109375 46.140625 10.015625 43.890625 
L 10.015625 52.203125 
Q 14.9375 54.109375 19.578125 55.046875 
Q 24.21875 56 28.609375 56 
Q 40.484375 56 46.34375 49.84375 
Q 52.203125 43.703125 52.203125 31.203125 
z
" id="DejaVuSans-97"/>
       <path d="M 45.40625 46.390625 
L 45.40625 75.984375 
L 54.390625 75.984375 
L 54.390625 0 
L 45.40625 0 
L 45.40625 8.203125 
Q 42.578125 3.328125 38.25 0.953125 
Q 33.9375 -1.421875 27.875 -1.421875 
Q 17.96875 -1.421875 11.734375 6.484375 
Q 5.515625 14.40625 5.515625 27.296875 
Q 5.515625 40.1875 11.734375 48.09375 
Q 17.96875 56 27.875 56 
Q 33.9375 56 38.25 53.625 
Q 42.578125 51.265625 45.40625 46.390625 
z
M 14.796875 27.296875 
Q 14.796875 17.390625 18.875 11.75 
Q 22.953125 6.109375 30.078125 6.109375 
Q 37.203125 6.109375 41.296875 11.75 
Q 45.40625 17.390625 45.40625 27.296875 
Q 45.40625 37.203125 41.296875 42.84375 
Q 37.203125 48.484375 30.078125 48.484375 
Q 22.953125 48.484375 18.875 42.84375 
Q 14.796875 37.203125 14.796875 27.296875 
z
" id="DejaVuSans-100"/>
       <path d="M 9.421875 54.6875 
L 18.40625 54.6875 
L 18.40625 0 
L 9.421875 0 
z
M 9.421875 75.984375 
L 18.40625 75.984375 
L 18.40625 64.59375 
L 9.421875 64.59375 
z
" id="DejaVuSans-105"/>
       <path d="M 8.5 21.578125 
L 8.5 54.6875 
L 17.484375 54.6875 
L 17.484375 21.921875 
Q 17.484375 14.15625 20.5 10.265625 
Q 23.53125 6.390625 29.59375 6.390625 
Q 36.859375 6.390625 41.078125 11.03125 
Q 45.3125 15.671875 45.3125 23.6875 
L 45.3125 54.6875 
L 54.296875 54.6875 
L 54.296875 0 
L 45.3125 0 
L 45.3125 8.40625 
Q 42.046875 3.421875 37.71875 1 
Q 33.40625 -1.421875 27.6875 -1.421875 
Q 18.265625 -1.421875 13.375 4.4375 
Q 8.5 10.296875 8.5 21.578125 
z
M 31.109375 56 
z
" id="DejaVuSans-117"/>
       <path d="M 44.28125 53.078125 
L 44.28125 44.578125 
Q 40.484375 46.53125 36.375 47.5 
Q 32.28125 48.484375 27.875 48.484375 
Q 21.1875 48.484375 17.84375 46.4375 
Q 14.5 44.390625 14.5 40.28125 
Q 14.5 37.15625 16.890625 35.375 
Q 19.28125 33.59375 26.515625 31.984375 
L 29.59375 31.296875 
Q 39.15625 29.25 43.1875 25.515625 
Q 47.21875 21.78125 47.21875 15.09375 
Q 47.21875 7.46875 41.1875 3.015625 
Q 35.15625 -1.421875 24.609375 -1.421875 
Q 20.21875 -1.421875 15.453125 -0.5625 
Q 10.6875 0.296875 5.421875 2 
L 5.421875 11.28125 
Q 10.40625 8.6875 15.234375 7.390625 
Q 20.0625 6.109375 24.8125 6.109375 
Q 31.15625 6.109375 34.5625 8.28125 
Q 37.984375 10.453125 37.984375 14.40625 
Q 37.984375 18.0625 35.515625 20.015625 
Q 33.0625 21.96875 24.703125 23.78125 
L 21.578125 24.515625 
Q 13.234375 26.265625 9.515625 29.90625 
Q 5.8125 33.546875 5.8125 39.890625 
Q 5.8125 47.609375 11.28125 51.796875 
Q 16.75 56 26.8125 56 
Q 31.78125 56 36.171875 55.265625 
Q 40.578125 54.546875 44.28125 53.078125 
z
" id="DejaVuSans-115"/>
       <path d="M 31 75.875 
Q 24.46875 64.65625 21.28125 53.65625 
Q 18.109375 42.671875 18.109375 31.390625 
Q 18.109375 20.125 21.3125 9.0625 
Q 24.515625 -2 31 -13.1875 
L 23.1875 -13.1875 
Q 15.875 -1.703125 12.234375 9.375 
Q 8.59375 20.453125 8.59375 31.390625 
Q 8.59375 42.28125 12.203125 53.3125 
Q 15.828125 64.359375 23.1875 75.875 
z
" id="DejaVuSans-40"/>
       <path d="M 54.890625 33.015625 
L 54.890625 0 
L 45.90625 0 
L 45.90625 32.71875 
Q 45.90625 40.484375 42.875 44.328125 
Q 39.84375 48.1875 33.796875 48.1875 
Q 26.515625 48.1875 22.3125 43.546875 
Q 18.109375 38.921875 18.109375 30.90625 
L 18.109375 0 
L 9.078125 0 
L 9.078125 54.6875 
L 18.109375 54.6875 
L 18.109375 46.1875 
Q 21.34375 51.125 25.703125 53.5625 
Q 30.078125 56 35.796875 56 
Q 45.21875 56 50.046875 50.171875 
Q 54.890625 44.34375 54.890625 33.015625 
z
" id="DejaVuSans-110"/>
       <path d="M 52 44.1875 
Q 55.375 50.25 60.0625 53.125 
Q 64.75 56 71.09375 56 
Q 79.640625 56 84.28125 50.015625 
Q 88.921875 44.046875 88.921875 33.015625 
L 88.921875 0 
L 79.890625 0 
L 79.890625 32.71875 
Q 79.890625 40.578125 77.09375 44.375 
Q 74.3125 48.1875 68.609375 48.1875 
Q 61.625 48.1875 57.5625 43.546875 
Q 53.515625 38.921875 53.515625 30.90625 
L 53.515625 0 
L 44.484375 0 
L 44.484375 32.71875 
Q 44.484375 40.625 41.703125 44.40625 
Q 38.921875 48.1875 33.109375 48.1875 
Q 26.21875 48.1875 22.15625 43.53125 
Q 18.109375 38.875 18.109375 30.90625 
L 18.109375 0 
L 9.078125 0 
L 9.078125 54.6875 
L 18.109375 54.6875 
L 18.109375 46.1875 
Q 21.1875 51.21875 25.484375 53.609375 
Q 29.78125 56 35.6875 56 
Q 41.65625 56 45.828125 52.96875 
Q 50 49.953125 52 44.1875 
z
" id="DejaVuSans-109"/>
       <path d="M 8.015625 75.875 
L 15.828125 75.875 
Q 23.140625 64.359375 26.78125 53.3125 
Q 30.421875 42.28125 30.421875 31.390625 
Q 30.421875 20.453125 26.78125 9.375 
Q 23.140625 -1.703125 15.828125 -13.1875 
L 8.015625 -13.1875 
Q 14.5 -2 17.703125 9.0625 
Q 20.90625 20.125 20.90625 31.390625 
Q 20.90625 42.671875 17.703125 53.65625 
Q 14.5 64.65625 8.015625 75.875 
z
" id="DejaVuSans-41"/>
      </defs>
      <use xlink:href="#DejaVuSans-114"/>
      <use x="41.113281" xlink:href="#DejaVuSans-97"/>
      <use x="102.392578" xlink:href="#DejaVuSans-100"/>
      <use x="165.869141" xlink:href="#DejaVuSans-105"/>
      <use x="193.652344" xlink:href="#DejaVuSans-117"/>
      <use x="257.03125" xlink:href="#DejaVuSans-115"/>
      <use x="309.130859" xlink:href="#DejaVuSans-40"/>
      <use x="348.144531" xlink:href="#DejaVuSans-110"/>
      <use x="411.523438" xlink:href="#DejaVuSans-109"/>
      <use x="508.935547" xlink:href="#DejaVuSans-41"/>
     </g>
    </g>
   </g>
   <g id="matplotlib.axis_2">
    <g id="ytick_1">
     <g id="line2d_9">
      <defs>
       <path d="M 0 0 
L -3.5 0 
" id="ma5a19af239" style="stroke:#000000;stroke-width:0.8;"/>
      </defs>
      <g>
       <use style="stroke:#000000;stroke-width:0.8;" x="57.6" xlink:href="#ma5a19af239" y="298.052022"/>
      </g>
     </g>
     <g id="text_10">
      <!-- −30 -->
      <g transform="translate(29.495313 301.851241)scale(0.1 -0.1)">
       <defs>
        <path d="M 10.59375 35.5 
L 73.1875 35.5 
L 73.1875 27.203125 
L 10.59375 27.203125 
z
" id="DejaVuSans-8722"/>
        <path d="M 40.578125 39.3125 
Q 47.65625 37.796875 51.625 33 
Q 55.609375 28.21875 55.609375 21.1875 
Q 55.609375 10.40625 48.1875 4.484375 
Q 40.765625 -1.421875 27.09375 -1.421875 
Q 22.515625 -1.421875 17.65625 -0.515625 
Q 12.796875 0.390625 7.625 2.203125 
L 7.625 11.71875 
Q 11.71875 9.328125 16.59375 8.109375 
Q 21.484375 6.890625 26.8125 6.890625 
Q 36.078125 6.890625 40.9375 10.546875 
Q 45.796875 14.203125 45.796875 21.1875 
Q 45.796875 27.640625 41.28125 31.265625 
Q 36.765625 34.90625 28.71875 34.90625 
L 20.21875 34.90625 
L 20.21875 43.015625 
L 29.109375 43.015625 
Q 36.375 43.015625 40.234375 45.921875 
Q 44.09375 48.828125 44.09375 54.296875 
Q 44.09375 59.90625 40.109375 62.90625 
Q 36.140625 65.921875 28.71875 65.921875 
Q 24.65625 65.921875 20.015625 65.03125 
Q 15.375 64.15625 9.8125 62.3125 
L 9.8125 71.09375 
Q 15.4375 72.65625 20.34375 73.4375 
Q 25.25 74.21875 29.59375 74.21875 
Q 40.828125 74.21875 47.359375 69.109375 
Q 53.90625 64.015625 53.90625 55.328125 
Q 53.90625 49.265625 50.4375 45.09375 
Q 46.96875 40.921875 40.578125 39.3125 
z
" id="DejaVuSans-51"/>
       </defs>
       <use xlink:href="#DejaVuSans-8722"/>
       <use x="83.789062" xlink:href="#DejaVuSans-51"/>
       <use x="147.412109" xlink:href="#DejaVuSans-48"/>
      </g>
     </g>
    </g>
    <g id="ytick_2">
     <g id="line2d_10">
      <g>
       <use style="stroke:#000000;stroke-width:0.8;" x="57.6" xlink:href="#ma5a19af239" y="259.160631"/>
      </g>
     </g>
     <g id="text_11">
      <!-- −25 -->
      <g transform="translate(29.495313 262.95985)scale(0.1 -0.1)">
       <use xlink:href="#DejaVuSans-8722"/>
       <use x="83.789062" xlink:href="#DejaVuSans-50"/>
       <use x="147.412109" xlink:href="#DejaVuSans-53"/>
      </g>
     </g>
    </g>
    <g id="ytick_3">
     <g id="line2d_11">
      <g>
       <use style="stroke:#000000;stroke-width:0.8;" x="57.6" xlink:href="#ma5a19af239" y="220.26924"/>
      </g>
     </g>
     <g id="text_12">
      <!-- −20 -->
      <g transform="translate(29.495313 224.068459)scale(0.1 -0.1)">
       <use xlink:href="#DejaVuSans-8722"/>
       <use x="83.789062" xlink:href="#DejaVuSans-50"/>
       <use x="147.412109" xlink:href="#DejaVuSans-48"/>
      </g>
     </g>
    </g>
    <g id="ytick_4">
     <g id="line2d_12">
      <g>
       <use style="stroke:#000000;stroke-width:0.8;" x="57.6" xlink:href="#ma5a19af239" y="181.377849"/>
      </g>
     </g>
     <g id="text_13">
      <!-- −15 -->
      <g transform="translate(29.495313 185.177068)scale(0.1 -0.1)">
       <use xlink:href="#DejaVuSans-8722"/>
       <use x="83.789062" xlink:href="#DejaVuSans-49"/>
       <use x="147.412109" xlink:href="#DejaVuSans-53"/>
      </g>
     </g>
    </g>
    <g id="ytick_5">
     <g id="line2d_13">
      <g>
       <use style="stroke:#000000;stroke-width:0.8;" x="57.6" xlink:href="#ma5a19af239" y="142.486458"/>
      </g>
     </g>
     <g id="text_14">
      <!-- −10 -->
      <g transform="translate(29.495313 146.285677)scale(0.1 -0.1)">
       <use xlink:href="#DejaVuSans-8722"/>
       <use x="83.789062" xlink:href="#DejaVuSans-49"/>
       <use x="147.412109" xlink:href="#DejaVuSans-48"/>
      </g>
     </g>
    </g>
    <g id="ytick_6">
     <g id="line2d_14">
      <g>
       <use style="stroke:#000000;stroke-width:0.8;" x="57.6" xlink:href="#ma5a19af239" y="103.595067"/>
      </g>
     </g>
     <g id="text_15">
      <!-- −5 -->
      <g transform="translate(35.857813 107.394286)scale(0.1 -0.1)">
       <use xlink:href="#DejaVuSans-8722"/>
       <use x="83.789062" xlink:href="#DejaVuSans-53"/>
      </g>
     </g>
    </g>
    <g id="ytick_7">
     <g id="line2d_15">
      <g>
       <use style="stroke:#000000;stroke-width:0.8;" x="57.6" xlink:href="#ma5a19af239" y="64.703676"/>
      </g>
     </g>
     <g id="text_16">
      <!-- 0 -->
      <g transform="translate(44.2375 68.502895)scale(0.1 -0.1)">
       <use xlink:href="#DejaVuSans-48"/>
      </g>
     </g>
    </g>
   </g>
   <g id="line2d_16">
    <path clip-path="url(#p2e8da76560)" d="M 73.832727 64.703676 
L 114.881003 64.339376 
L 146.600125 63.847913 
L 168.990094 63.294296 
L 185.782571 62.670231 
L 202.575047 61.809336 
L 245.489154 59.412657 
L 267.879122 58.554787 
L 277.208276 58.121494 
L 280.939937 57.711752 
L 282.805768 58.900764 
L 284.671599 58.040026 
L 286.537429 59.179337 
L 288.40326 58.789718 
L 292.134922 58.45592 
L 299.598245 58.163487 
L 316.390721 57.7973 
L 355.573166 57.205117 
L 391.02395 56.649036 
L 394.755611 56.469552 
L 396.621442 56.233566 
L 398.487273 56.478599 
L 398.487273 56.478599 
" style="fill:none;stroke:#1f77b4;stroke-linecap:square;stroke-width:2;"/>
   </g>
   <g id="line2d_17">
    <path clip-path="url(#p2e8da76560)" d="M 73.832727 64.703676 
L 114.881003 64.335081 
L 146.600125 63.847242 
L 168.990094 63.288504 
L 183.91674 62.719058 
L 196.977555 62.026675 
L 211.904201 61.010326 
L 236.16 59.306102 
L 266.013292 57.437231 
L 267.879122 57.233437 
L 269.744953 58.735093 
L 273.476614 66.026358 
L 275.342445 65.751314 
L 277.208276 69.37969 
L 279.074107 67.132257 
L 282.805768 66.696486 
L 288.40326 66.276947 
L 297.732414 65.865008 
L 314.52489 65.420532 
L 348.109843 64.817379 
L 381.694796 64.176575 
L 389.158119 63.839308 
L 391.02395 63.645855 
L 392.889781 63.208821 
L 394.755611 64.449082 
L 396.621442 64.63259 
L 398.487273 62.492365 
L 398.487273 62.492365 
" style="fill:none;stroke:#ff7f0e;stroke-linecap:square;stroke-width:2;"/>
   </g>
   <g id="line2d_18">
    <path clip-path="url(#p2e8da76560)" d="M 73.832727 64.703676 
L 120.478495 64.248496 
L 152.197618 63.732192 
L 170.855925 63.212996 
L 182.050909 62.688468 
L 189.514232 62.126542 
L 195.111724 61.487542 
L 208.172539 59.533982 
L 210.03837 59.690173 
L 211.904201 63.473726 
L 215.635862 63.295773 
L 219.367524 70.925327 
L 223.099185 70.794307 
L 224.965016 74.622426 
L 232.428339 74.396594 
L 239.891661 89.739526 
L 251.086646 89.394167 
L 252.952476 93.218077 
L 254.818307 93.149725 
L 256.684138 96.967155 
L 266.013292 96.560548 
L 267.879122 98.267996 
L 282.805768 97.25876 
L 294.000752 96.717875 
L 308.927398 96.224592 
L 333.183197 95.669616 
L 385.426458 94.525168 
L 396.621442 94.010827 
L 398.487273 93.666544 
L 398.487273 93.666544 
" style="fill:none;stroke:#2ca02c;stroke-linecap:square;stroke-width:2;"/>
   </g>
   <g id="line2d_19">
    <path clip-path="url(#p2e8da76560)" d="M 73.832727 64.703676 
L 129.807649 64.074406 
L 159.66094 63.562014 
L 170.855925 63.194427 
L 174.587586 62.846846 
L 176.453417 62.189265 
L 178.319248 59.380444 
L 180.185078 55.822005 
L 183.91674 55.4482 
L 198.843386 54.675931 
L 217.501693 53.568 
L 219.367524 54.594958 
L 221.233354 58.426388 
L 223.099185 58.369384 
L 230.562508 73.710272 
L 234.294169 73.610435 
L 239.891661 85.134981 
L 243.623323 85.041435 
L 245.489154 88.883465 
L 249.220815 88.787133 
L 251.086646 92.626516 
L 252.952476 92.575392 
L 254.818307 96.411872 
L 262.28163 96.185393 
L 264.147461 100.014782 
L 266.013292 97.557061 
L 284.671599 96.443501 
L 299.598245 95.815299 
L 320.122382 95.209126 
L 359.304828 94.116989 
L 364.90232 93.819819 
L 366.76815 93.658393 
L 368.633981 90.393257 
L 370.499812 89.781421 
L 372.365643 88.513579 
L 374.231473 86.852405 
L 376.097304 86.455589 
L 379.828966 86.06558 
L 394.755611 84.988433 
L 396.621442 81.911259 
L 398.487273 81.568589 
L 398.487273 81.568589 
" style="fill:none;stroke:#d62728;stroke-linecap:square;stroke-width:2;"/>
   </g>
   <g id="line2d_20">
    <path clip-path="url(#p2e8da76560)" d="M 73.832727 64.703676 
L 129.807649 63.927246 
L 155.929279 63.387528 
L 161.526771 63.107408 
L 163.392602 62.662375 
L 165.258433 63.943377 
L 167.124263 63.455804 
L 170.855925 63.218677 
L 200.709216 61.919112 
L 213.770031 60.99351 
L 215.635862 60.847964 
L 217.501693 61.810093 
L 221.233354 69.412443 
L 223.099185 69.329926 
L 226.830846 76.957293 
L 228.696677 76.889498 
L 230.562508 80.716012 
L 234.294169 80.605472 
L 245.489154 103.690514 
L 249.220815 103.616146 
L 251.086646 107.466755 
L 252.952476 107.426788 
L 258.549969 118.964612 
L 260.415799 118.918588 
L 262.28163 122.760752 
L 264.147461 122.713172 
L 266.013292 119.514174 
L 280.939937 118.751471 
L 299.598245 118.063841 
L 325.719875 117.141161 
L 327.585705 117.026485 
L 329.451536 113.317134 
L 331.317367 113.073855 
L 333.183197 112.672864 
L 335.049028 111.945428 
L 338.78069 110.201379 
L 340.64652 109.885208 
L 344.378182 109.54889 
L 353.707335 109.102681 
L 377.963135 108.077244 
L 379.828966 108.631622 
L 381.694796 112.432087 
L 383.560627 112.33108 
L 387.292288 119.810243 
L 389.158119 123.180941 
L 391.02395 121.686138 
L 392.889781 120.404678 
L 394.755611 120.087033 
L 398.487273 119.765014 
L 398.487273 119.765014 
" style="fill:none;stroke:#9467bd;stroke-linecap:square;stroke-width:2;"/>
   </g>
   <g id="line2d_21">
    <path clip-path="url(#p2e8da76560)" d="M 73.832727 64.703676 
L 159.66094 64.245769 
L 161.526771 64.361319 
L 165.258433 64.092401 
L 170.855925 63.787712 
L 182.050909 63.304291 
L 187.648401 62.886588 
L 193.245893 62.252063 
L 200.709216 61.35825 
L 210.03837 60.569199 
L 213.770031 68.185088 
L 217.501693 68.048636 
L 219.367524 71.876073 
L 221.233354 71.817523 
L 223.099185 75.65059 
L 230.562508 75.441953 
L 232.428339 79.208318 
L 262.28163 78.398975 
L 264.147461 78.372625 
L 266.013292 78.538123 
L 269.744953 86.240051 
L 271.610784 86.198018 
L 273.476614 90.041474 
L 277.208276 89.936266 
L 279.074107 93.765136 
L 280.939937 93.700157 
L 284.671599 101.339964 
L 288.40326 101.204559 
L 290.269091 101.745645 
L 325.719875 100.924611 
L 335.049028 100.772218 
L 336.914859 104.167067 
L 338.78069 104.127338 
L 340.64652 107.974972 
L 342.512351 107.931409 
L 344.378182 111.774587 
L 349.975674 111.617576 
L 353.707335 119.268222 
L 363.036489 118.796427 
L 364.90232 122.55386 
L 366.76815 121.165132 
L 379.828966 119.421604 
L 387.292288 118.768005 
L 389.158119 117.759247 
L 398.487273 117.371465 
L 398.487273 117.371465 
" style="fill:none;stroke:#8c564b;stroke-linecap:square;stroke-width:2;"/>
   </g>
   <g id="line2d_22">
    <path clip-path="url(#p2e8da76560)" d="M 73.832727 64.703676 
L 163.392602 64.05838 
L 165.258433 63.954212 
L 167.124263 67.669034 
L 168.990094 64.584803 
L 172.721755 64.332058 
L 178.319248 64.012379 
L 187.648401 63.582526 
L 191.380063 63.261858 
L 198.843386 62.231722 
L 200.709216 64.375788 
L 204.440878 71.888045 
L 206.306708 71.7958 
L 208.172539 75.609626 
L 211.904201 75.490092 
L 213.770031 79.328888 
L 226.830846 79.035095 
L 230.562508 86.733785 
L 234.294169 86.653424 
L 239.891661 98.198313 
L 243.623323 98.115565 
L 245.489154 101.963194 
L 247.354984 101.921708 
L 249.220815 105.769486 
L 256.684138 105.607206 
L 258.549969 109.45681 
L 264.147461 109.337705 
L 266.013292 113.184352 
L 267.879122 113.1379 
L 269.744953 116.974332 
L 271.610784 116.913226 
L 273.476614 120.732096 
L 280.939937 120.426739 
L 282.805768 124.253653 
L 284.671599 124.199105 
L 286.537429 128.039946 
L 288.40326 127.996359 
L 295.866583 143.404028 
L 297.732414 143.369999 
L 301.464075 151.081781 
L 303.329906 151.048975 
L 305.195737 154.905428 
L 308.927398 154.839991 
L 312.65906 162.55207 
L 318.256552 162.449476 
L 320.122382 166.303053 
L 327.585705 166.15002 
L 329.451536 169.997322 
L 336.914859 169.809864 
L 338.78069 173.646303 
L 340.64652 173.591141 
L 342.512351 177.4228 
L 344.378182 177.363347 
L 346.244013 181.191685 
L 348.109843 181.130504 
L 351.841505 188.79113 
L 353.707335 190.561671 
L 381.694796 188.684683 
L 383.560627 187.586385 
L 392.889781 187.207602 
L 398.487273 186.88812 
L 398.487273 186.88812 
" style="fill:none;stroke:#e377c2;stroke-linecap:square;stroke-width:2;"/>
   </g>
   <g id="line2d_23">
    <path clip-path="url(#p2e8da76560)" d="M 73.832727 64.703676 
L 75.698558 64.694949 
L 77.564389 68.575569 
L 81.29605 68.559073 
L 85.027712 76.321452 
L 92.491034 76.290945 
L 94.356865 80.172652 
L 96.222696 80.165276 
L 101.820188 91.810816 
L 111.149342 91.774793 
L 113.015172 95.656751 
L 114.881003 95.649573 
L 116.746834 99.531534 
L 122.344326 99.51 
L 124.210157 103.391965 
L 126.075987 103.384795 
L 127.941818 107.266774 
L 129.807649 107.259626 
L 133.53931 115.023666 
L 135.405141 115.01659 
L 137.270972 118.89869 
L 148.465956 118.857699 
L 150.331787 122.740254 
L 155.929279 122.720482 
L 157.79511 126.602629 
L 159.66094 126.594959 
L 163.392602 134.35263 
L 165.258433 134.336079 
L 167.124263 138.198997 
L 170.855925 138.068024 
L 174.587586 145.402429 
L 176.453417 143.936368 
L 178.319248 143.497384 
L 180.185078 143.225119 
L 182.050909 145.488735 
L 189.514232 145.027835 
L 195.111724 144.513036 
L 196.977555 141.994406 
L 206.306708 161.028815 
L 208.172539 160.980109 
L 210.03837 164.825962 
L 215.635862 164.712976 
L 219.367524 172.4212 
L 221.233354 172.386323 
L 228.696677 187.799748 
L 230.562508 187.762618 
L 234.294169 195.464857 
L 238.025831 195.386596 
L 239.891661 199.235877 
L 247.354984 199.072698 
L 256.684138 218.301866 
L 258.549969 218.252798 
L 262.28163 225.915197 
L 264.147461 225.842219 
L 266.013292 229.643611 
L 273.476614 229.186071 
L 275.342445 232.981339 
L 279.074107 232.8565 
L 280.939937 236.706246 
L 282.805768 236.67546 
L 286.537429 244.404552 
L 299.598245 244.244429 
L 303.329906 251.972479 
L 307.061567 251.919859 
L 308.927398 255.781715 
L 310.793229 255.75372 
L 314.52489 263.473612 
L 318.256552 263.411521 
L 325.719875 278.830316 
L 335.049028 278.632334 
L 342.512351 294.029878 
L 344.378182 295.488 
L 377.963135 293.811123 
L 379.828966 292.790343 
L 387.292288 292.475736 
L 396.621442 291.817949 
L 398.487273 291.674578 
L 398.487273 291.674578 
" style="fill:none;stroke:#7f7f7f;stroke-linecap:square;stroke-width:2;"/>
   </g>
   <g id="line2d_24">
    <path clip-path="url(#p2e8da76560)" d="M 73.832727 64.703676 
L 75.698558 68.584953 
L 79.430219 68.569875 
L 81.29605 72.451759 
L 83.161881 72.444672 
L 88.759373 84.091681 
L 96.222696 84.066015 
L 98.088527 87.948947 
L 99.954357 87.942808 
L 101.820188 91.82587 
L 105.55185 91.813877 
L 111.149342 103.463652 
L 113.015172 103.457853 
L 116.746834 111.224651 
L 118.612665 111.218971 
L 120.478495 115.102472 
L 122.344326 115.096879 
L 126.075987 122.864127 
L 127.941818 122.858701 
L 141.002633 150.047373 
L 142.868464 150.04292 
L 148.465956 161.698485 
L 150.331787 161.695184 
L 152.197618 165.581441 
L 154.063448 165.579047 
L 155.929279 169.46636 
L 159.66094 169.464779 
L 161.526771 165.576067 
L 172.721755 165.565081 
L 174.587586 169.383789 
L 178.319248 167.20108 
L 180.185078 166.433731 
L 182.050909 166.132768 
L 185.782571 165.885611 
L 193.245893 165.582793 
L 195.111724 165.156276 
L 196.977555 168.992498 
L 198.843386 168.937069 
L 200.709216 172.77301 
L 204.440878 172.680836 
L 206.306708 176.530961 
L 208.172539 176.495548 
L 211.904201 184.210027 
L 215.635862 184.150742 
L 219.367524 191.870545 
L 224.965016 191.780369 
L 230.562508 203.352648 
L 234.294169 203.286372 
L 238.025831 210.996358 
L 241.757492 210.926225 
L 245.489154 218.6322 
L 249.220815 218.555898 
L 251.086646 222.403878 
L 254.818307 222.30825 
L 256.684138 226.137023 
L 260.415799 225.961894 
L 264.147461 233.424106 
L 266.013292 233.701848 
L 267.879122 233.370885 
L 269.744953 236.614748 
L 275.342445 247.961627 
L 279.074107 247.933459 
L 280.939937 244.048304 
L 294.000752 244.070181 
L 295.866583 247.953553 
L 299.598245 247.936203 
L 303.329906 255.690492 
L 312.65906 255.606344 
L 314.52489 259.474735 
L 318.256552 259.429216 
L 325.719875 274.87841 
L 327.585705 274.848432 
L 329.451536 278.706632 
L 338.78069 278.550634 
L 340.64652 279.86448 
L 374.231473 278.491741 
L 376.097304 277.502111 
L 383.560627 277.269044 
L 389.158119 276.887911 
L 398.487273 275.858787 
L 398.487273 275.858787 
" style="fill:none;stroke:#bcbd22;stroke-linecap:square;stroke-width:2;"/>
   </g>
   <g id="line2d_25">
    <path clip-path="url(#p2e8da76560)" d="M 73.832727 64.703676 
L 81.29605 64.675659 
L 86.893542 76.325738 
L 88.759373 76.320564 
L 92.491034 84.089321 
L 94.356865 84.084953 
L 101.820188 99.626455 
L 103.686019 99.623265 
L 105.55185 103.509433 
L 109.283511 103.504137 
L 111.149342 107.390948 
L 113.015172 107.388832 
L 114.881003 111.276067 
L 116.746834 111.274377 
L 118.612665 115.162041 
L 122.344326 115.159752 
L 126.075987 122.936658 
L 127.941818 122.936333 
L 129.807649 126.8254 
L 133.53931 126.826066 
L 137.270972 119.049632 
L 139.136803 119.051043 
L 142.868464 111.276692 
L 144.734295 111.279269 
L 161.526771 76.329428 
L 167.124263 76.371348 
L 168.990094 72.503536 
L 170.855925 72.532093 
L 172.721755 68.684198 
L 174.587586 68.096479 
L 176.453417 68.027447 
L 178.319248 67.830398 
L 180.185078 67.373718 
L 183.91674 65.868071 
L 185.782571 65.490418 
L 189.514232 65.106751 
L 193.245893 64.853704 
L 195.111724 64.367758 
L 202.575047 64.130849 
L 206.306708 71.863586 
L 208.172539 71.850561 
L 210.03837 75.730311 
L 211.904201 75.723091 
L 217.501693 87.373151 
L 219.367524 87.367186 
L 223.099185 95.13196 
L 224.965016 95.12429 
L 232.428339 110.644641 
L 234.294169 110.63466 
L 238.025831 118.392917 
L 241.757492 118.374354 
L 245.489154 126.13808 
L 247.354984 126.133392 
L 249.220815 130.020312 
L 256.684138 130.051396 
L 258.549969 126.18466 
L 267.879122 126.422215 
L 269.744953 126.491387 
L 271.610784 122.673228 
L 273.476614 122.742033 
L 279.074107 111.229868 
L 280.939937 111.255073 
L 282.805768 107.374771 
L 288.40326 107.284722 
L 290.269091 111.093701 
L 292.134922 110.977474 
L 294.000752 114.702845 
L 297.732414 114.184078 
L 301.464075 113.486435 
L 303.329906 117.07059 
L 305.195737 116.831233 
L 307.061567 120.540152 
L 308.927398 120.404909 
L 310.793229 124.191176 
L 318.256552 123.957197 
L 320.122382 127.812712 
L 321.988213 127.784865 
L 327.585705 139.392939 
L 333.183197 139.3551 
L 335.049028 143.233875 
L 336.914859 143.223839 
L 338.78069 140.650257 
L 349.975674 140.202501 
L 372.365643 139.099016 
L 374.231473 138.107179 
L 394.755611 137.99611 
L 398.487273 137.982869 
L 398.487273 137.982869 
" style="fill:none;stroke:#17becf;stroke-linecap:square;stroke-width:2;"/>
   </g>
   <g id="patch_3">
    <path d="M 57.6 307.584 
L 57.6 41.472 
" style="fill:none;stroke:#000000;stroke-linecap:square;stroke-linejoin:miter;stroke-width:0.8;"/>
   </g>
   <g id="patch_4">
    <path d="M 414.72 307.584 
L 414.72 41.472 
" style="fill:none;stroke:#000000;stroke-linecap:square;stroke-linejoin:miter;stroke-width:0.8;"/>
   </g>
   <g id="patch_5">
    <path d="M 57.6 307.584 
L 414.72 307.584 
" style="fill:none;stroke:#000000;stroke-linecap:square;stroke-linejoin:miter;stroke-width:0.8;"/>
   </g>
   <g id="patch_6">
    <path d="M 57.6 41.472 
L 414.72 41.472 
" style="fill:none;stroke:#000000;stroke-linecap:square;stroke-linejoin:miter;stroke-width:0.8;"/>
   </g>
   <g id="text_17">
    <!-- Phase shift of different radius -->
    <g transform="translate(147.762187 35.472)scale(0.12 -0.12)">
     <defs>
      <path d="M 19.671875 64.796875 
L 19.671875 37.40625 
L 32.078125 37.40625 
Q 38.96875 37.40625 42.71875 40.96875 
Q 46.484375 44.53125 46.484375 51.125 
Q 46.484375 57.671875 42.71875 61.234375 
Q 38.96875 64.796875 32.078125 64.796875 
z
M 9.8125 72.90625 
L 32.078125 72.90625 
Q 44.34375 72.90625 50.609375 67.359375 
Q 56.890625 61.8125 56.890625 51.125 
Q 56.890625 40.328125 50.609375 34.8125 
Q 44.34375 29.296875 32.078125 29.296875 
L 19.671875 29.296875 
L 19.671875 0 
L 9.8125 0 
z
" id="DejaVuSans-80"/>
      <path d="M 54.890625 33.015625 
L 54.890625 0 
L 45.90625 0 
L 45.90625 32.71875 
Q 45.90625 40.484375 42.875 44.328125 
Q 39.84375 48.1875 33.796875 48.1875 
Q 26.515625 48.1875 22.3125 43.546875 
Q 18.109375 38.921875 18.109375 30.90625 
L 18.109375 0 
L 9.078125 0 
L 9.078125 75.984375 
L 18.109375 75.984375 
L 18.109375 46.1875 
Q 21.34375 51.125 25.703125 53.5625 
Q 30.078125 56 35.796875 56 
Q 45.21875 56 50.046875 50.171875 
Q 54.890625 44.34375 54.890625 33.015625 
z
" id="DejaVuSans-104"/>
      <path d="M 56.203125 29.59375 
L 56.203125 25.203125 
L 14.890625 25.203125 
Q 15.484375 15.921875 20.484375 11.0625 
Q 25.484375 6.203125 34.421875 6.203125 
Q 39.59375 6.203125 44.453125 7.46875 
Q 49.3125 8.734375 54.109375 11.28125 
L 54.109375 2.78125 
Q 49.265625 0.734375 44.1875 -0.34375 
Q 39.109375 -1.421875 33.890625 -1.421875 
Q 20.796875 -1.421875 13.15625 6.1875 
Q 5.515625 13.8125 5.515625 26.8125 
Q 5.515625 40.234375 12.765625 48.109375 
Q 20.015625 56 32.328125 56 
Q 43.359375 56 49.78125 48.890625 
Q 56.203125 41.796875 56.203125 29.59375 
z
M 47.21875 32.234375 
Q 47.125 39.59375 43.09375 43.984375 
Q 39.0625 48.390625 32.421875 48.390625 
Q 24.90625 48.390625 20.390625 44.140625 
Q 15.875 39.890625 15.1875 32.171875 
z
" id="DejaVuSans-101"/>
      <path id="DejaVuSans-32"/>
      <path d="M 37.109375 75.984375 
L 37.109375 68.5 
L 28.515625 68.5 
Q 23.6875 68.5 21.796875 66.546875 
Q 19.921875 64.59375 19.921875 59.515625 
L 19.921875 54.6875 
L 34.71875 54.6875 
L 34.71875 47.703125 
L 19.921875 47.703125 
L 19.921875 0 
L 10.890625 0 
L 10.890625 47.703125 
L 2.296875 47.703125 
L 2.296875 54.6875 
L 10.890625 54.6875 
L 10.890625 58.5 
Q 10.890625 67.625 15.140625 71.796875 
Q 19.390625 75.984375 28.609375 75.984375 
z
" id="DejaVuSans-102"/>
      <path d="M 18.3125 70.21875 
L 18.3125 54.6875 
L 36.8125 54.6875 
L 36.8125 47.703125 
L 18.3125 47.703125 
L 18.3125 18.015625 
Q 18.3125 11.328125 20.140625 9.421875 
Q 21.96875 7.515625 27.59375 7.515625 
L 36.8125 7.515625 
L 36.8125 0 
L 27.59375 0 
Q 17.1875 0 13.234375 3.875 
Q 9.28125 7.765625 9.28125 18.015625 
L 9.28125 47.703125 
L 2.6875 47.703125 
L 2.6875 54.6875 
L 9.28125 54.6875 
L 9.28125 70.21875 
z
" id="DejaVuSans-116"/>
      <path d="M 30.609375 48.390625 
Q 23.390625 48.390625 19.1875 42.75 
Q 14.984375 37.109375 14.984375 27.296875 
Q 14.984375 17.484375 19.15625 11.84375 
Q 23.34375 6.203125 30.609375 6.203125 
Q 37.796875 6.203125 41.984375 11.859375 
Q 46.1875 17.53125 46.1875 27.296875 
Q 46.1875 37.015625 41.984375 42.703125 
Q 37.796875 48.390625 30.609375 48.390625 
z
M 30.609375 56 
Q 42.328125 56 49.015625 48.375 
Q 55.71875 40.765625 55.71875 27.296875 
Q 55.71875 13.875 49.015625 6.21875 
Q 42.328125 -1.421875 30.609375 -1.421875 
Q 18.84375 -1.421875 12.171875 6.21875 
Q 5.515625 13.875 5.515625 27.296875 
Q 5.515625 40.765625 12.171875 48.375 
Q 18.84375 56 30.609375 56 
z
" id="DejaVuSans-111"/>
     </defs>
     <use xlink:href="#DejaVuSans-80"/>
     <use x="60.302734" xlink:href="#DejaVuSans-104"/>
     <use x="123.681641" xlink:href="#DejaVuSans-97"/>
     <use x="184.960938" xlink:href="#DejaVuSans-115"/>
     <use x="237.060547" xlink:href="#DejaVuSans-101"/>
     <use x="298.583984" xlink:href="#DejaVuSans-32"/>
     <use x="330.371094" xlink:href="#DejaVuSans-115"/>
     <use x="382.470703" xlink:href="#DejaVuSans-104"/>
     <use x="445.849609" xlink:href="#DejaVuSans-105"/>
     <use x="473.632812" xlink:href="#DejaVuSans-102"/>
     <use x="507.087891" xlink:href="#DejaVuSans-116"/>
     <use x="546.296875" xlink:href="#DejaVuSans-32"/>
     <use x="578.083984" xlink:href="#DejaVuSans-111"/>
     <use x="639.265625" xlink:href="#DejaVuSans-102"/>
     <use x="674.470703" xlink:href="#DejaVuSans-32"/>
     <use x="706.257812" xlink:href="#DejaVuSans-100"/>
     <use x="769.734375" xlink:href="#DejaVuSans-105"/>
     <use x="797.517578" xlink:href="#DejaVuSans-102"/>
     <use x="832.722656" xlink:href="#DejaVuSans-102"/>
     <use x="867.927734" xlink:href="#DejaVuSans-101"/>
     <use x="929.451172" xlink:href="#DejaVuSans-114"/>
     <use x="968.314453" xlink:href="#DejaVuSans-101"/>
     <use x="1029.837891" xlink:href="#DejaVuSans-110"/>
     <use x="1093.216797" xlink:href="#DejaVuSans-116"/>
     <use x="1132.425781" xlink:href="#DejaVuSans-32"/>
     <use x="1164.212891" xlink:href="#DejaVuSans-114"/>
     <use x="1205.326172" xlink:href="#DejaVuSans-97"/>
     <use x="1266.605469" xlink:href="#DejaVuSans-100"/>
     <use x="1330.082031" xlink:href="#DejaVuSans-105"/>
     <use x="1357.865234" xlink:href="#DejaVuSans-117"/>
     <use x="1421.244141" xlink:href="#DejaVuSans-115"/>
    </g>
   </g>
   <g id="legend_1">
    <g id="patch_7">
     <path d="M 64.6 302.584 
L 109.325 302.584 
Q 111.325 302.584 111.325 300.584 
L 111.325 154.80275 
Q 111.325 152.80275 109.325 152.80275 
L 64.6 152.80275 
Q 62.6 152.80275 62.6 154.80275 
L 62.6 300.584 
Q 62.6 302.584 64.6 302.584 
z
" style="fill:#ffffff;opacity:0.8;stroke:#cccccc;stroke-linejoin:miter;"/>
    </g>
    <g id="line2d_26">
     <path d="M 66.6 160.901187 
L 86.6 160.901187 
" style="fill:none;stroke:#1f77b4;stroke-linecap:square;stroke-width:2;"/>
    </g>
    <g id="line2d_27"/>
    <g id="text_18">
     <!-- 0 -->
     <g transform="translate(94.6 164.401187)scale(0.1 -0.1)">
      <use xlink:href="#DejaVuSans-48"/>
     </g>
    </g>
    <g id="line2d_28">
     <path d="M 66.6 175.579313 
L 86.6 175.579313 
" style="fill:none;stroke:#ff7f0e;stroke-linecap:square;stroke-width:2;"/>
    </g>
    <g id="line2d_29"/>
    <g id="text_19">
     <!-- 10 -->
     <g transform="translate(94.6 179.079313)scale(0.1 -0.1)">
      <use xlink:href="#DejaVuSans-49"/>
      <use x="63.623047" xlink:href="#DejaVuSans-48"/>
     </g>
    </g>
    <g id="line2d_30">
     <path d="M 66.6 190.257438 
L 86.6 190.257438 
" style="fill:none;stroke:#2ca02c;stroke-linecap:square;stroke-width:2;"/>
    </g>
    <g id="line2d_31"/>
    <g id="text_20">
     <!-- 20 -->
     <g transform="translate(94.6 193.757438)scale(0.1 -0.1)">
      <use xlink:href="#DejaVuSans-50"/>
      <use x="63.623047" xlink:href="#DejaVuSans-48"/>
     </g>
    </g>
    <g id="line2d_32">
     <path d="M 66.6 204.935563 
L 86.6 204.935563 
" style="fill:none;stroke:#d62728;stroke-linecap:square;stroke-width:2;"/>
    </g>
    <g id="line2d_33"/>
    <g id="text_21">
     <!-- 30 -->
     <g transform="translate(94.6 208.435563)scale(0.1 -0.1)">
      <use xlink:href="#DejaVuSans-51"/>
      <use x="63.623047" xlink:href="#DejaVuSans-48"/>
     </g>
    </g>
    <g id="line2d_34">
     <path d="M 66.6 219.613688 
L 86.6 219.613688 
" style="fill:none;stroke:#9467bd;stroke-linecap:square;stroke-width:2;"/>
    </g>
    <g id="line2d_35"/>
    <g id="text_22">
     <!-- 40 -->
     <g transform="translate(94.6 223.113688)scale(0.1 -0.1)">
      <defs>
       <path d="M 37.796875 64.3125 
L 12.890625 25.390625 
L 37.796875 25.390625 
z
M 35.203125 72.90625 
L 47.609375 72.90625 
L 47.609375 25.390625 
L 58.015625 25.390625 
L 58.015625 17.1875 
L 47.609375 17.1875 
L 47.609375 0 
L 37.796875 0 
L 37.796875 17.1875 
L 4.890625 17.1875 
L 4.890625 26.703125 
z
" id="DejaVuSans-52"/>
      </defs>
      <use xlink:href="#DejaVuSans-52"/>
      <use x="63.623047" xlink:href="#DejaVuSans-48"/>
     </g>
    </g>
    <g id="line2d_36">
     <path d="M 66.6 234.291812 
L 86.6 234.291812 
" style="fill:none;stroke:#8c564b;stroke-linecap:square;stroke-width:2;"/>
    </g>
    <g id="line2d_37"/>
    <g id="text_23">
     <!-- 50 -->
     <g transform="translate(94.6 237.791812)scale(0.1 -0.1)">
      <use xlink:href="#DejaVuSans-53"/>
      <use x="63.623047" xlink:href="#DejaVuSans-48"/>
     </g>
    </g>
    <g id="line2d_38">
     <path d="M 66.6 248.969938 
L 86.6 248.969938 
" style="fill:none;stroke:#e377c2;stroke-linecap:square;stroke-width:2;"/>
    </g>
    <g id="line2d_39"/>
    <g id="text_24">
     <!-- 60 -->
     <g transform="translate(94.6 252.469938)scale(0.1 -0.1)">
      <defs>
       <path d="M 33.015625 40.375 
Q 26.375 40.375 22.484375 35.828125 
Q 18.609375 31.296875 18.609375 23.390625 
Q 18.609375 15.53125 22.484375 10.953125 
Q 26.375 6.390625 33.015625 6.390625 
Q 39.65625 6.390625 43.53125 10.953125 
Q 47.40625 15.53125 47.40625 23.390625 
Q 47.40625 31.296875 43.53125 35.828125 
Q 39.65625 40.375 33.015625 40.375 
z
M 52.59375 71.296875 
L 52.59375 62.3125 
Q 48.875 64.0625 45.09375 64.984375 
Q 41.3125 65.921875 37.59375 65.921875 
Q 27.828125 65.921875 22.671875 59.328125 
Q 17.53125 52.734375 16.796875 39.40625 
Q 19.671875 43.65625 24.015625 45.921875 
Q 28.375 48.1875 33.59375 48.1875 
Q 44.578125 48.1875 50.953125 41.515625 
Q 57.328125 34.859375 57.328125 23.390625 
Q 57.328125 12.15625 50.6875 5.359375 
Q 44.046875 -1.421875 33.015625 -1.421875 
Q 20.359375 -1.421875 13.671875 8.265625 
Q 6.984375 17.96875 6.984375 36.375 
Q 6.984375 53.65625 15.1875 63.9375 
Q 23.390625 74.21875 37.203125 74.21875 
Q 40.921875 74.21875 44.703125 73.484375 
Q 48.484375 72.75 52.59375 71.296875 
z
" id="DejaVuSans-54"/>
      </defs>
      <use xlink:href="#DejaVuSans-54"/>
      <use x="63.623047" xlink:href="#DejaVuSans-48"/>
     </g>
    </g>
    <g id="line2d_40">
     <path d="M 66.6 263.648062 
L 86.6 263.648062 
" style="fill:none;stroke:#7f7f7f;stroke-linecap:square;stroke-width:2;"/>
    </g>
    <g id="line2d_41"/>
    <g id="text_25">
     <!-- 70 -->
     <g transform="translate(94.6 267.148062)scale(0.1 -0.1)">
      <use xlink:href="#DejaVuSans-55"/>
      <use x="63.623047" xlink:href="#DejaVuSans-48"/>
     </g>
    </g>
    <g id="line2d_42">
     <path d="M 66.6 278.326188 
L 86.6 278.326188 
" style="fill:none;stroke:#bcbd22;stroke-linecap:square;stroke-width:2;"/>
    </g>
    <g id="line2d_43"/>
    <g id="text_26">
     <!-- 80 -->
     <g transform="translate(94.6 281.826188)scale(0.1 -0.1)">
      <defs>
       <path d="M 31.78125 34.625 
Q 24.75 34.625 20.71875 30.859375 
Q 16.703125 27.09375 16.703125 20.515625 
Q 16.703125 13.921875 20.71875 10.15625 
Q 24.75 6.390625 31.78125 6.390625 
Q 38.8125 6.390625 42.859375 10.171875 
Q 46.921875 13.96875 46.921875 20.515625 
Q 46.921875 27.09375 42.890625 30.859375 
Q 38.875 34.625 31.78125 34.625 
z
M 21.921875 38.8125 
Q 15.578125 40.375 12.03125 44.71875 
Q 8.5 49.078125 8.5 55.328125 
Q 8.5 64.0625 14.71875 69.140625 
Q 20.953125 74.21875 31.78125 74.21875 
Q 42.671875 74.21875 48.875 69.140625 
Q 55.078125 64.0625 55.078125 55.328125 
Q 55.078125 49.078125 51.53125 44.71875 
Q 48 40.375 41.703125 38.8125 
Q 48.828125 37.15625 52.796875 32.3125 
Q 56.78125 27.484375 56.78125 20.515625 
Q 56.78125 9.90625 50.3125 4.234375 
Q 43.84375 -1.421875 31.78125 -1.421875 
Q 19.734375 -1.421875 13.25 4.234375 
Q 6.78125 9.90625 6.78125 20.515625 
Q 6.78125 27.484375 10.78125 32.3125 
Q 14.796875 37.15625 21.921875 38.8125 
z
M 18.3125 54.390625 
Q 18.3125 48.734375 21.84375 45.5625 
Q 25.390625 42.390625 31.78125 42.390625 
Q 38.140625 42.390625 41.71875 45.5625 
Q 45.3125 48.734375 45.3125 54.390625 
Q 45.3125 60.0625 41.71875 63.234375 
Q 38.140625 66.40625 31.78125 66.40625 
Q 25.390625 66.40625 21.84375 63.234375 
Q 18.3125 60.0625 18.3125 54.390625 
z
" id="DejaVuSans-56"/>
      </defs>
      <use xlink:href="#DejaVuSans-56"/>
      <use x="63.623047" xlink:href="#DejaVuSans-48"/>
     </g>
    </g>
    <g id="line2d_44">
     <path d="M 66.6 293.004312 
L 86.6 293.004312 
" style="fill:none;stroke:#17becf;stroke-linecap:square;stroke-width:2;"/>
    </g>
    <g id="line2d_45"/>
    <g id="text_27">
     <!-- 90 -->
     <g transform="translate(94.6 296.504312)scale(0.1 -0.1)">
      <defs>
       <path d="M 10.984375 1.515625 
L 10.984375 10.5 
Q 14.703125 8.734375 18.5 7.8125 
Q 22.3125 6.890625 25.984375 6.890625 
Q 35.75 6.890625 40.890625 13.453125 
Q 46.046875 20.015625 46.78125 33.40625 
Q 43.953125 29.203125 39.59375 26.953125 
Q 35.25 24.703125 29.984375 24.703125 
Q 19.046875 24.703125 12.671875 31.3125 
Q 6.296875 37.9375 6.296875 49.421875 
Q 6.296875 60.640625 12.9375 67.421875 
Q 19.578125 74.21875 30.609375 74.21875 
Q 43.265625 74.21875 49.921875 64.515625 
Q 56.59375 54.828125 56.59375 36.375 
Q 56.59375 19.140625 48.40625 8.859375 
Q 40.234375 -1.421875 26.421875 -1.421875 
Q 22.703125 -1.421875 18.890625 -0.6875 
Q 15.09375 0.046875 10.984375 1.515625 
z
M 30.609375 32.421875 
Q 37.25 32.421875 41.125 36.953125 
Q 45.015625 41.5 45.015625 49.421875 
Q 45.015625 57.28125 41.125 61.84375 
Q 37.25 66.40625 30.609375 66.40625 
Q 23.96875 66.40625 20.09375 61.84375 
Q 16.21875 57.28125 16.21875 49.421875 
Q 16.21875 41.5 20.09375 36.953125 
Q 23.96875 32.421875 30.609375 32.421875 
z
" id="DejaVuSans-57"/>
      </defs>
      <use xlink:href="#DejaVuSans-57"/>
      <use x="63.623047" xlink:href="#DejaVuSans-48"/>
     </g>
    </g>
   </g>
  </g>
 </g>
 <defs>
  <clipPath id="p2e8da76560">
   <rect height="266.112" width="357.12" x="57.6" y="41.472"/>
  </clipPath>
 </defs>
</svg>
