<?xml version="1.0" encoding="utf-8" standalone="no"?>
<!DOCTYPE svg PUBLIC "-//W3C//DTD SVG 1.1//EN"
  "http://www.w3.org/Graphics/SVG/1.1/DTD/svg11.dtd">
<!-- Created with matplotlib (https://matplotlib.org/) -->
<svg height="345.6pt" version="1.1" viewBox="0 0 460.8 345.6" width="460.8pt" xmlns="http://www.w3.org/2000/svg" xmlns:xlink="http://www.w3.org/1999/xlink">
 <defs>
  <style type="text/css">
*{stroke-linecap:butt;stroke-linejoin:round;}
  </style>
 </defs>
 <g id="figure_1">
  <g id="patch_1">
   <path d="M 0 345.6 
L 460.8 345.6 
L 460.8 0 
L 0 0 
z
" style="fill:#ffffff;"/>
  </g>
  <g id="axes_1">
   <g id="patch_2">
    <path d="M 57.6 307.584 
L 414.72 307.584 
L 414.72 41.472 
L 57.6 41.472 
z
" style="fill:#ffffff;"/>
   </g>
   <g id="matplotlib.axis_1">
    <g id="xtick_1">
     <g id="line2d_1">
      <defs>
       <path d="M 0 0 
L 0 3.5 
" id="me0a3b4b9ae" style="stroke:#000000;stroke-width:0.8;"/>
      </defs>
      <g>
       <use style="stroke:#000000;stroke-width:0.8;" x="73.832727" xlink:href="#me0a3b4b9ae" y="307.584"/>
      </g>
     </g>
     <g id="text_1">
      <!-- 50 -->
      <defs>
       <path d="M 10.796875 72.90625 
L 49.515625 72.90625 
L 49.515625 64.59375 
L 19.828125 64.59375 
L 19.828125 46.734375 
Q 21.96875 47.46875 24.109375 47.828125 
Q 26.265625 48.1875 28.421875 48.1875 
Q 40.625 48.1875 47.75 41.5 
Q 54.890625 34.8125 54.890625 23.390625 
Q 54.890625 11.625 47.5625 5.09375 
Q 40.234375 -1.421875 26.90625 -1.421875 
Q 22.3125 -1.421875 17.546875 -0.640625 
Q 12.796875 0.140625 7.71875 1.703125 
L 7.71875 11.625 
Q 12.109375 9.234375 16.796875 8.0625 
Q 21.484375 6.890625 26.703125 6.890625 
Q 35.15625 6.890625 40.078125 11.328125 
Q 45.015625 15.765625 45.015625 23.390625 
Q 45.015625 31 40.078125 35.4375 
Q 35.15625 39.890625 26.703125 39.890625 
Q 22.75 39.890625 18.8125 39.015625 
Q 14.890625 38.140625 10.796875 36.28125 
z
" id="DejaVuSans-53"/>
       <path d="M 31.78125 66.40625 
Q 24.171875 66.40625 20.328125 58.90625 
Q 16.5 51.421875 16.5 36.375 
Q 16.5 21.390625 20.328125 13.890625 
Q 24.171875 6.390625 31.78125 6.390625 
Q 39.453125 6.390625 43.28125 13.890625 
Q 47.125 21.390625 47.125 36.375 
Q 47.125 51.421875 43.28125 58.90625 
Q 39.453125 66.40625 31.78125 66.40625 
z
M 31.78125 74.21875 
Q 44.046875 74.21875 50.515625 64.515625 
Q 56.984375 54.828125 56.984375 36.375 
Q 56.984375 17.96875 50.515625 8.265625 
Q 44.046875 -1.421875 31.78125 -1.421875 
Q 19.53125 -1.421875 13.0625 8.265625 
Q 6.59375 17.96875 6.59375 36.375 
Q 6.59375 54.828125 13.0625 64.515625 
Q 19.53125 74.21875 31.78125 74.21875 
z
" id="DejaVuSans-48"/>
      </defs>
      <g transform="translate(67.470227 322.182437)scale(0.1 -0.1)">
       <use xlink:href="#DejaVuSans-53"/>
       <use x="63.623047" xlink:href="#DejaVuSans-48"/>
      </g>
     </g>
    </g>
    <g id="xtick_2">
     <g id="line2d_2">
      <g>
       <use style="stroke:#000000;stroke-width:0.8;" x="114.414545" xlink:href="#me0a3b4b9ae" y="307.584"/>
      </g>
     </g>
     <g id="text_2">
      <!-- 75 -->
      <defs>
       <path d="M 8.203125 72.90625 
L 55.078125 72.90625 
L 55.078125 68.703125 
L 28.609375 0 
L 18.3125 0 
L 43.21875 64.59375 
L 8.203125 64.59375 
z
" id="DejaVuSans-55"/>
      </defs>
      <g transform="translate(108.052045 322.182437)scale(0.1 -0.1)">
       <use xlink:href="#DejaVuSans-55"/>
       <use x="63.623047" xlink:href="#DejaVuSans-53"/>
      </g>
     </g>
    </g>
    <g id="xtick_3">
     <g id="line2d_3">
      <g>
       <use style="stroke:#000000;stroke-width:0.8;" x="154.996364" xlink:href="#me0a3b4b9ae" y="307.584"/>
      </g>
     </g>
     <g id="text_3">
      <!-- 100 -->
      <defs>
       <path d="M 12.40625 8.296875 
L 28.515625 8.296875 
L 28.515625 63.921875 
L 10.984375 60.40625 
L 10.984375 69.390625 
L 28.421875 72.90625 
L 38.28125 72.90625 
L 38.28125 8.296875 
L 54.390625 8.296875 
L 54.390625 0 
L 12.40625 0 
z
" id="DejaVuSans-49"/>
      </defs>
      <g transform="translate(145.452614 322.182437)scale(0.1 -0.1)">
       <use xlink:href="#DejaVuSans-49"/>
       <use x="63.623047" xlink:href="#DejaVuSans-48"/>
       <use x="127.246094" xlink:href="#DejaVuSans-48"/>
      </g>
     </g>
    </g>
    <g id="xtick_4">
     <g id="line2d_4">
      <g>
       <use style="stroke:#000000;stroke-width:0.8;" x="195.578182" xlink:href="#me0a3b4b9ae" y="307.584"/>
      </g>
     </g>
     <g id="text_4">
      <!-- 125 -->
      <defs>
       <path d="M 19.1875 8.296875 
L 53.609375 8.296875 
L 53.609375 0 
L 7.328125 0 
L 7.328125 8.296875 
Q 12.9375 14.109375 22.625 23.890625 
Q 32.328125 33.6875 34.8125 36.53125 
Q 39.546875 41.84375 41.421875 45.53125 
Q 43.3125 49.21875 43.3125 52.78125 
Q 43.3125 58.59375 39.234375 62.25 
Q 35.15625 65.921875 28.609375 65.921875 
Q 23.96875 65.921875 18.8125 64.3125 
Q 13.671875 62.703125 7.8125 59.421875 
L 7.8125 69.390625 
Q 13.765625 71.78125 18.9375 73 
Q 24.125 74.21875 28.421875 74.21875 
Q 39.75 74.21875 46.484375 68.546875 
Q 53.21875 62.890625 53.21875 53.421875 
Q 53.21875 48.921875 51.53125 44.890625 
Q 49.859375 40.875 45.40625 35.40625 
Q 44.1875 33.984375 37.640625 27.21875 
Q 31.109375 20.453125 19.1875 8.296875 
z
" id="DejaVuSans-50"/>
      </defs>
      <g transform="translate(186.034432 322.182437)scale(0.1 -0.1)">
       <use xlink:href="#DejaVuSans-49"/>
       <use x="63.623047" xlink:href="#DejaVuSans-50"/>
       <use x="127.246094" xlink:href="#DejaVuSans-53"/>
      </g>
     </g>
    </g>
    <g id="xtick_5">
     <g id="line2d_5">
      <g>
       <use style="stroke:#000000;stroke-width:0.8;" x="236.16" xlink:href="#me0a3b4b9ae" y="307.584"/>
      </g>
     </g>
     <g id="text_5">
      <!-- 150 -->
      <g transform="translate(226.61625 322.182437)scale(0.1 -0.1)">
       <use xlink:href="#DejaVuSans-49"/>
       <use x="63.623047" xlink:href="#DejaVuSans-53"/>
       <use x="127.246094" xlink:href="#DejaVuSans-48"/>
      </g>
     </g>
    </g>
    <g id="xtick_6">
     <g id="line2d_6">
      <g>
       <use style="stroke:#000000;stroke-width:0.8;" x="276.741818" xlink:href="#me0a3b4b9ae" y="307.584"/>
      </g>
     </g>
     <g id="text_6">
      <!-- 175 -->
      <g transform="translate(267.198068 322.182437)scale(0.1 -0.1)">
       <use xlink:href="#DejaVuSans-49"/>
       <use x="63.623047" xlink:href="#DejaVuSans-55"/>
       <use x="127.246094" xlink:href="#DejaVuSans-53"/>
      </g>
     </g>
    </g>
    <g id="xtick_7">
     <g id="line2d_7">
      <g>
       <use style="stroke:#000000;stroke-width:0.8;" x="317.323636" xlink:href="#me0a3b4b9ae" y="307.584"/>
      </g>
     </g>
     <g id="text_7">
      <!-- 200 -->
      <g transform="translate(307.779886 322.182437)scale(0.1 -0.1)">
       <use xlink:href="#DejaVuSans-50"/>
       <use x="63.623047" xlink:href="#DejaVuSans-48"/>
       <use x="127.246094" xlink:href="#DejaVuSans-48"/>
      </g>
     </g>
    </g>
    <g id="xtick_8">
     <g id="line2d_8">
      <g>
       <use style="stroke:#000000;stroke-width:0.8;" x="357.905455" xlink:href="#me0a3b4b9ae" y="307.584"/>
      </g>
     </g>
     <g id="text_8">
      <!-- 225 -->
      <g transform="translate(348.361705 322.182437)scale(0.1 -0.1)">
       <use xlink:href="#DejaVuSans-50"/>
       <use x="63.623047" xlink:href="#DejaVuSans-50"/>
       <use x="127.246094" xlink:href="#DejaVuSans-53"/>
      </g>
     </g>
    </g>
    <g id="xtick_9">
     <g id="line2d_9">
      <g>
       <use style="stroke:#000000;stroke-width:0.8;" x="398.487273" xlink:href="#me0a3b4b9ae" y="307.584"/>
      </g>
     </g>
     <g id="text_9">
      <!-- 250 -->
      <g transform="translate(388.943523 322.182437)scale(0.1 -0.1)">
       <use xlink:href="#DejaVuSans-50"/>
       <use x="63.623047" xlink:href="#DejaVuSans-53"/>
       <use x="127.246094" xlink:href="#DejaVuSans-48"/>
      </g>
     </g>
    </g>
    <g id="text_10">
     <!-- radius(nm) -->
     <defs>
      <path d="M 41.109375 46.296875 
Q 39.59375 47.171875 37.8125 47.578125 
Q 36.03125 48 33.890625 48 
Q 26.265625 48 22.1875 43.046875 
Q 18.109375 38.09375 18.109375 28.8125 
L 18.109375 0 
L 9.078125 0 
L 9.078125 54.6875 
L 18.109375 54.6875 
L 18.109375 46.1875 
Q 20.953125 51.171875 25.484375 53.578125 
Q 30.03125 56 36.53125 56 
Q 37.453125 56 38.578125 55.875 
Q 39.703125 55.765625 41.0625 55.515625 
z
" id="DejaVuSans-114"/>
      <path d="M 34.28125 27.484375 
Q 23.390625 27.484375 19.1875 25 
Q 14.984375 22.515625 14.984375 16.5 
Q 14.984375 11.71875 18.140625 8.90625 
Q 21.296875 6.109375 26.703125 6.109375 
Q 34.1875 6.109375 38.703125 11.40625 
Q 43.21875 16.703125 43.21875 25.484375 
L 43.21875 27.484375 
z
M 52.203125 31.203125 
L 52.203125 0 
L 43.21875 0 
L 43.21875 8.296875 
Q 40.140625 3.328125 35.546875 0.953125 
Q 30.953125 -1.421875 24.3125 -1.421875 
Q 15.921875 -1.421875 10.953125 3.296875 
Q 6 8.015625 6 15.921875 
Q 6 25.140625 12.171875 29.828125 
Q 18.359375 34.515625 30.609375 34.515625 
L 43.21875 34.515625 
L 43.21875 35.40625 
Q 43.21875 41.609375 39.140625 45 
Q 35.0625 48.390625 27.6875 48.390625 
Q 23 48.390625 18.546875 47.265625 
Q 14.109375 46.140625 10.015625 43.890625 
L 10.015625 52.203125 
Q 14.9375 54.109375 19.578125 55.046875 
Q 24.21875 56 28.609375 56 
Q 40.484375 56 46.34375 49.84375 
Q 52.203125 43.703125 52.203125 31.203125 
z
" id="DejaVuSans-97"/>
      <path d="M 45.40625 46.390625 
L 45.40625 75.984375 
L 54.390625 75.984375 
L 54.390625 0 
L 45.40625 0 
L 45.40625 8.203125 
Q 42.578125 3.328125 38.25 0.953125 
Q 33.9375 -1.421875 27.875 -1.421875 
Q 17.96875 -1.421875 11.734375 6.484375 
Q 5.515625 14.40625 5.515625 27.296875 
Q 5.515625 40.1875 11.734375 48.09375 
Q 17.96875 56 27.875 56 
Q 33.9375 56 38.25 53.625 
Q 42.578125 51.265625 45.40625 46.390625 
z
M 14.796875 27.296875 
Q 14.796875 17.390625 18.875 11.75 
Q 22.953125 6.109375 30.078125 6.109375 
Q 37.203125 6.109375 41.296875 11.75 
Q 45.40625 17.390625 45.40625 27.296875 
Q 45.40625 37.203125 41.296875 42.84375 
Q 37.203125 48.484375 30.078125 48.484375 
Q 22.953125 48.484375 18.875 42.84375 
Q 14.796875 37.203125 14.796875 27.296875 
z
" id="DejaVuSans-100"/>
      <path d="M 9.421875 54.6875 
L 18.40625 54.6875 
L 18.40625 0 
L 9.421875 0 
z
M 9.421875 75.984375 
L 18.40625 75.984375 
L 18.40625 64.59375 
L 9.421875 64.59375 
z
" id="DejaVuSans-105"/>
      <path d="M 8.5 21.578125 
L 8.5 54.6875 
L 17.484375 54.6875 
L 17.484375 21.921875 
Q 17.484375 14.15625 20.5 10.265625 
Q 23.53125 6.390625 29.59375 6.390625 
Q 36.859375 6.390625 41.078125 11.03125 
Q 45.3125 15.671875 45.3125 23.6875 
L 45.3125 54.6875 
L 54.296875 54.6875 
L 54.296875 0 
L 45.3125 0 
L 45.3125 8.40625 
Q 42.046875 3.421875 37.71875 1 
Q 33.40625 -1.421875 27.6875 -1.421875 
Q 18.265625 -1.421875 13.375 4.4375 
Q 8.5 10.296875 8.5 21.578125 
z
M 31.109375 56 
z
" id="DejaVuSans-117"/>
      <path d="M 44.28125 53.078125 
L 44.28125 44.578125 
Q 40.484375 46.53125 36.375 47.5 
Q 32.28125 48.484375 27.875 48.484375 
Q 21.1875 48.484375 17.84375 46.4375 
Q 14.5 44.390625 14.5 40.28125 
Q 14.5 37.15625 16.890625 35.375 
Q 19.28125 33.59375 26.515625 31.984375 
L 29.59375 31.296875 
Q 39.15625 29.25 43.1875 25.515625 
Q 47.21875 21.78125 47.21875 15.09375 
Q 47.21875 7.46875 41.1875 3.015625 
Q 35.15625 -1.421875 24.609375 -1.421875 
Q 20.21875 -1.421875 15.453125 -0.5625 
Q 10.6875 0.296875 5.421875 2 
L 5.421875 11.28125 
Q 10.40625 8.6875 15.234375 7.390625 
Q 20.0625 6.109375 24.8125 6.109375 
Q 31.15625 6.109375 34.5625 8.28125 
Q 37.984375 10.453125 37.984375 14.40625 
Q 37.984375 18.0625 35.515625 20.015625 
Q 33.0625 21.96875 24.703125 23.78125 
L 21.578125 24.515625 
Q 13.234375 26.265625 9.515625 29.90625 
Q 5.8125 33.546875 5.8125 39.890625 
Q 5.8125 47.609375 11.28125 51.796875 
Q 16.75 56 26.8125 56 
Q 31.78125 56 36.171875 55.265625 
Q 40.578125 54.546875 44.28125 53.078125 
z
" id="DejaVuSans-115"/>
      <path d="M 31 75.875 
Q 24.46875 64.65625 21.28125 53.65625 
Q 18.109375 42.671875 18.109375 31.390625 
Q 18.109375 20.125 21.3125 9.0625 
Q 24.515625 -2 31 -13.1875 
L 23.1875 -13.1875 
Q 15.875 -1.703125 12.234375 9.375 
Q 8.59375 20.453125 8.59375 31.390625 
Q 8.59375 42.28125 12.203125 53.3125 
Q 15.828125 64.359375 23.1875 75.875 
z
" id="DejaVuSans-40"/>
      <path d="M 54.890625 33.015625 
L 54.890625 0 
L 45.90625 0 
L 45.90625 32.71875 
Q 45.90625 40.484375 42.875 44.328125 
Q 39.84375 48.1875 33.796875 48.1875 
Q 26.515625 48.1875 22.3125 43.546875 
Q 18.109375 38.921875 18.109375 30.90625 
L 18.109375 0 
L 9.078125 0 
L 9.078125 54.6875 
L 18.109375 54.6875 
L 18.109375 46.1875 
Q 21.34375 51.125 25.703125 53.5625 
Q 30.078125 56 35.796875 56 
Q 45.21875 56 50.046875 50.171875 
Q 54.890625 44.34375 54.890625 33.015625 
z
" id="DejaVuSans-110"/>
      <path d="M 52 44.1875 
Q 55.375 50.25 60.0625 53.125 
Q 64.75 56 71.09375 56 
Q 79.640625 56 84.28125 50.015625 
Q 88.921875 44.046875 88.921875 33.015625 
L 88.921875 0 
L 79.890625 0 
L 79.890625 32.71875 
Q 79.890625 40.578125 77.09375 44.375 
Q 74.3125 48.1875 68.609375 48.1875 
Q 61.625 48.1875 57.5625 43.546875 
Q 53.515625 38.921875 53.515625 30.90625 
L 53.515625 0 
L 44.484375 0 
L 44.484375 32.71875 
Q 44.484375 40.625 41.703125 44.40625 
Q 38.921875 48.1875 33.109375 48.1875 
Q 26.21875 48.1875 22.15625 43.53125 
Q 18.109375 38.875 18.109375 30.90625 
L 18.109375 0 
L 9.078125 0 
L 9.078125 54.6875 
L 18.109375 54.6875 
L 18.109375 46.1875 
Q 21.1875 51.21875 25.484375 53.609375 
Q 29.78125 56 35.6875 56 
Q 41.65625 56 45.828125 52.96875 
Q 50 49.953125 52 44.1875 
z
" id="DejaVuSans-109"/>
      <path d="M 8.015625 75.875 
L 15.828125 75.875 
Q 23.140625 64.359375 26.78125 53.3125 
Q 30.421875 42.28125 30.421875 31.390625 
Q 30.421875 20.453125 26.78125 9.375 
Q 23.140625 -1.703125 15.828125 -13.1875 
L 8.015625 -13.1875 
Q 14.5 -2 17.703125 9.0625 
Q 20.90625 20.125 20.90625 31.390625 
Q 20.90625 42.671875 17.703125 53.65625 
Q 14.5 64.65625 8.015625 75.875 
z
" id="DejaVuSans-41"/>
     </defs>
     <g transform="translate(208.763125 335.860562)scale(0.1 -0.1)">
      <use xlink:href="#DejaVuSans-114"/>
      <use x="41.113281" xlink:href="#DejaVuSans-97"/>
      <use x="102.392578" xlink:href="#DejaVuSans-100"/>
      <use x="165.869141" xlink:href="#DejaVuSans-105"/>
      <use x="193.652344" xlink:href="#DejaVuSans-117"/>
      <use x="257.03125" xlink:href="#DejaVuSans-115"/>
      <use x="309.130859" xlink:href="#DejaVuSans-40"/>
      <use x="348.144531" xlink:href="#DejaVuSans-110"/>
      <use x="411.523438" xlink:href="#DejaVuSans-109"/>
      <use x="508.935547" xlink:href="#DejaVuSans-41"/>
     </g>
    </g>
   </g>
   <g id="matplotlib.axis_2">
    <g id="ytick_1">
     <g id="line2d_10">
      <defs>
       <path d="M 0 0 
L -3.5 0 
" id="m31d9a06c69" style="stroke:#000000;stroke-width:0.8;"/>
      </defs>
      <g>
       <use style="stroke:#000000;stroke-width:0.8;" x="57.6" xlink:href="#m31d9a06c69" y="277.703557"/>
      </g>
     </g>
     <g id="text_11">
      <!-- −20 -->
      <defs>
       <path d="M 10.59375 35.5 
L 73.1875 35.5 
L 73.1875 27.203125 
L 10.59375 27.203125 
z
" id="DejaVuSans-8722"/>
      </defs>
      <g transform="translate(29.495313 281.502776)scale(0.1 -0.1)">
       <use xlink:href="#DejaVuSans-8722"/>
       <use x="83.789062" xlink:href="#DejaVuSans-50"/>
       <use x="147.412109" xlink:href="#DejaVuSans-48"/>
      </g>
     </g>
    </g>
    <g id="ytick_2">
     <g id="line2d_11">
      <g>
       <use style="stroke:#000000;stroke-width:0.8;" x="57.6" xlink:href="#m31d9a06c69" y="236.94889"/>
      </g>
     </g>
     <g id="text_12">
      <!-- −15 -->
      <g transform="translate(29.495313 240.748109)scale(0.1 -0.1)">
       <use xlink:href="#DejaVuSans-8722"/>
       <use x="83.789062" xlink:href="#DejaVuSans-49"/>
       <use x="147.412109" xlink:href="#DejaVuSans-53"/>
      </g>
     </g>
    </g>
    <g id="ytick_3">
     <g id="line2d_12">
      <g>
       <use style="stroke:#000000;stroke-width:0.8;" x="57.6" xlink:href="#m31d9a06c69" y="196.194223"/>
      </g>
     </g>
     <g id="text_13">
      <!-- −10 -->
      <g transform="translate(29.495313 199.993442)scale(0.1 -0.1)">
       <use xlink:href="#DejaVuSans-8722"/>
       <use x="83.789062" xlink:href="#DejaVuSans-49"/>
       <use x="147.412109" xlink:href="#DejaVuSans-48"/>
      </g>
     </g>
    </g>
    <g id="ytick_4">
     <g id="line2d_13">
      <g>
       <use style="stroke:#000000;stroke-width:0.8;" x="57.6" xlink:href="#m31d9a06c69" y="155.439557"/>
      </g>
     </g>
     <g id="text_14">
      <!-- −5 -->
      <g transform="translate(35.857813 159.238775)scale(0.1 -0.1)">
       <use xlink:href="#DejaVuSans-8722"/>
       <use x="83.789062" xlink:href="#DejaVuSans-53"/>
      </g>
     </g>
    </g>
    <g id="ytick_5">
     <g id="line2d_14">
      <g>
       <use style="stroke:#000000;stroke-width:0.8;" x="57.6" xlink:href="#m31d9a06c69" y="114.68489"/>
      </g>
     </g>
     <g id="text_15">
      <!-- 0 -->
      <g transform="translate(44.2375 118.484109)scale(0.1 -0.1)">
       <use xlink:href="#DejaVuSans-48"/>
      </g>
     </g>
    </g>
    <g id="ytick_6">
     <g id="line2d_15">
      <g>
       <use style="stroke:#000000;stroke-width:0.8;" x="57.6" xlink:href="#m31d9a06c69" y="73.930223"/>
      </g>
     </g>
     <g id="text_16">
      <!-- 5 -->
      <g transform="translate(44.2375 77.729442)scale(0.1 -0.1)">
       <use xlink:href="#DejaVuSans-53"/>
      </g>
     </g>
    </g>
   </g>
   <g id="line2d_16">
    <path clip-path="url(#p9d1b664199)" d="M 73.832727 116.377443 
L 77.079273 116.369722 
L 80.325818 116.361912 
L 83.572364 116.354033 
L 86.818909 116.34607 
L 90.065455 116.33798 
L 93.312 116.329689 
L 96.558545 116.321099 
L 99.805091 116.312089 
L 103.051636 116.302516 
L 106.298182 116.292217 
L 109.544727 116.281011 
L 112.791273 116.268698 
L 116.037818 116.255066 
L 119.284364 116.239898 
L 122.530909 116.222974 
L 125.777455 116.204086 
L 129.024 116.183046 
L 132.270545 116.159696 
L 135.517091 116.133912 
L 138.763636 116.10561 
L 142.010182 116.074739 
L 145.256727 116.041269 
L 148.503273 116.005181 
L 151.749818 115.966446 
L 154.996364 115.925008 
L 158.242909 115.880773 
L 161.489455 115.833599 
L 164.736 115.783296 
L 167.982545 115.729631 
L 171.229091 115.672346 
L 174.475636 115.611184 
L 177.722182 115.54593 
L 180.968727 115.476469 
L 184.215273 115.402868 
L 187.461818 115.325489 
L 190.708364 115.24513 
L 193.954909 115.163207 
L 197.201455 115.081952 
L 200.448 115.004611 
L 203.694545 114.935579 
L 206.941091 114.880375 
L 210.187636 114.845358 
L 213.434182 114.837067 
L 216.680727 114.861177 
L 219.927273 114.921201 
L 223.173818 115.017272 
L 226.420364 115.1454 
L 229.666909 115.297513 
L 232.913455 115.462287 
L 236.16 115.626488 
L 239.406545 115.776447 
L 242.653091 115.899337 
L 245.899636 115.984158 
L 249.146182 116.02243 
L 252.392727 116.008762 
L 255.639273 115.941408 
L 258.885818 115.822934 
L 262.132364 115.661033 
L 265.378909 115.469349 
L 268.625455 115.267954 
L 271.872 115.08273 
L 275.118545 114.942706 
L 278.365091 114.874812 
L 281.611636 114.897129 
L 284.858182 115.013568 
L 288.104727 115.213124 
L 291.351273 115.474113 
L 294.597818 115.770758 
L 297.844364 116.078863 
L 301.090909 116.379068 
L 304.337455 116.65798 
L 307.584 116.908191 
L 310.830545 117.128215 
L 314.077091 117.323191 
L 317.323636 117.507444 
L 320.570182 117.710924 
L 323.816727 117.994132 
L 327.063273 118.482086 
L 330.309818 119.440542 
L 333.556364 121.448329 
L 336.802909 125.968474 
L 340.049455 136.528453 
L 343.296 126.002447 
L 346.542545 122.163804 
L 349.789091 120.18345 
L 353.035636 118.949376 
L 356.282182 118.101634 
L 359.528727 117.496881 
L 362.775273 117.074008 
L 366.021818 116.805053 
L 369.268364 116.672924 
L 372.514909 116.660875 
L 375.761455 116.749096 
L 379.008 116.915755 
L 382.254545 117.139975 
L 385.501091 117.404816 
L 388.747636 117.69956 
L 391.994182 118.021841 
L 395.240727 118.381448 
L 398.487273 118.810487 
" style="fill:none;stroke:#1f77b4;stroke-linecap:square;stroke-width:2;"/>
   </g>
   <g id="line2d_17">
    <path clip-path="url(#p9d1b664199)" d="M 73.832727 115.634483 
L 77.079273 115.654921 
L 80.325818 115.675556 
L 83.572364 115.696332 
L 86.818909 115.717194 
L 90.065455 115.738089 
L 93.312 115.758953 
L 96.558545 115.779712 
L 99.805091 115.800277 
L 103.051636 115.82054 
L 106.298182 115.840375 
L 109.544727 115.859636 
L 112.791273 115.878162 
L 116.037818 115.89578 
L 119.284364 115.912305 
L 122.530909 115.92755 
L 125.777455 115.941323 
L 129.024 115.953442 
L 132.270545 115.963734 
L 135.517091 115.972047 
L 138.763636 115.978245 
L 142.010182 115.982218 
L 145.256727 115.983874 
L 148.503273 115.98313 
L 151.749818 115.979902 
L 154.996364 115.974096 
L 158.242909 115.965588 
L 161.489455 115.954217 
L 164.736 115.939771 
L 167.982545 115.921979 
L 171.229091 115.900507 
L 174.475636 115.874952 
L 177.722182 115.844841 
L 180.968727 115.809638 
L 184.215273 115.768752 
L 187.461818 115.721558 
L 190.708364 115.667434 
L 193.954909 115.605822 
L 197.201455 115.536317 
L 200.448 115.458808 
L 203.694545 115.373663 
L 206.941091 115.281984 
L 210.187636 115.185907 
L 213.434182 115.088938 
L 216.680727 114.996235 
L 219.927273 114.914714 
L 223.173818 114.852787 
L 226.420364 114.819496 
L 229.666909 114.822938 
L 232.913455 114.868114 
L 236.16 114.954783 
L 239.406545 115.076149 
L 242.653091 115.219098 
L 245.899636 115.366059 
L 249.146182 115.497933 
L 252.392727 115.597205 
L 255.639273 115.650546 
L 258.885818 115.650534 
L 262.132364 115.5964 
L 265.378909 115.493826 
L 268.625455 115.353849 
L 271.872 115.191249 
L 275.118545 115.028698 
L 278.365091 115.154137 
L 281.611636 116.24637 
L 284.858182 115.153505 
L 288.104727 114.991836 
L 291.351273 114.96228 
L 294.597818 114.991616 
L 297.844364 115.056005 
L 301.090909 115.14124 
L 304.337455 115.236751 
L 307.584 115.334298 
L 310.830545 115.42754 
L 314.077091 115.511764 
L 317.323636 115.583638 
L 320.570182 115.640988 
L 323.816727 115.682628 
L 327.063273 115.708276 
L 330.309818 115.718671 
L 333.556364 115.716184 
L 336.802909 115.707052 
L 340.049455 115.710035 
L 343.296 115.798093 
L 346.542545 116.324039 
L 349.789091 117.155387 
L 353.035636 116.221101 
L 356.282182 115.728905 
L 359.528727 115.483055 
L 362.775273 115.319225 
L 366.021818 115.19296 
L 369.268364 115.091895 
L 372.514909 115.013952 
L 375.761455 114.960913 
L 379.008 114.935903 
L 382.254545 114.941993 
L 385.501091 114.981214 
L 388.747636 115.053839 
L 391.994182 115.158027 
L 395.240727 115.290088 
L 398.487273 115.446215 
" style="fill:none;stroke:#ff7f0e;stroke-linecap:square;stroke-width:2;"/>
   </g>
   <g id="line2d_18">
    <path clip-path="url(#p9d1b664199)" d="M 73.832727 275.02815 
L 77.079273 271.423911 
L 80.325818 252.095479 
L 83.572364 262.482322 
L 86.818909 274.97399 
L 90.065455 282.31189 
L 93.312 259.638939 
L 96.558545 276.761687 
L 99.805091 270.873578 
L 103.051636 249.492114 
L 106.298182 250.335883 
L 109.544727 272.470865 
L 112.791273 249.919281 
L 116.037818 249.895798 
L 119.284364 254.39497 
L 122.530909 247.943814 
L 125.777455 252.079448 
L 129.024 246.724653 
L 132.270545 247.522179 
L 135.517091 252.128476 
L 138.763636 249.843013 
L 142.010182 260.89816 
L 145.256727 252.450072 
L 148.503273 246.754761 
L 151.749818 250.452734 
L 154.996364 263.86284 
L 158.242909 252.054912 
L 161.489455 245.033398 
L 164.736 259.876957 
L 167.982545 258.182726 
L 171.229091 249.409092 
L 174.475636 249.9 
L 177.722182 260.320364 
L 180.968727 247.355502 
L 184.215273 252.139674 
L 187.461818 270.638433 
L 190.708364 249.814654 
L 193.954909 254.887089 
L 197.201455 259.646081 
L 200.448 254.787292 
L 203.694545 261.256041 
L 206.941091 268.803522 
L 210.187636 255.025026 
L 213.434182 254.762406 
L 216.680727 252.253412 
L 219.927273 252.294659 
L 223.173818 252.168049 
L 226.420364 254.691707 
L 229.666909 265.239628 
L 232.913455 249.807606 
L 236.16 249.808499 
L 239.406545 266.752724 
L 242.653091 249.944156 
L 245.899636 263.538549 
L 249.146182 249.94426 
L 252.392727 246.162397 
L 255.639273 247.434323 
L 258.885818 246.808441 
L 262.132364 249.511463 
L 265.378909 258.613418 
L 268.625455 254.620051 
L 271.872 259.352605 
L 275.118545 271.284851 
L 278.365091 254.510705 
L 281.611636 266.997549 
L 284.858182 252.407905 
L 288.104727 266.57526 
L 291.351273 264.326541 
L 294.597818 272.733761 
L 297.844364 266.763087 
L 301.090909 262.843612 
L 304.337455 249.873705 
L 307.584 267.932145 
L 310.830545 252.121423 
L 314.077091 254.900376 
L 317.323636 250.747053 
L 320.570182 248.228189 
L 323.816727 248.493002 
L 327.063273 262.134669 
L 330.309818 265.24369 
L 333.556364 262.6976 
L 336.802909 259.585145 
L 340.049455 244.98083 
L 343.296 245.026209 
L 346.542545 245.018614 
L 349.789091 264.749491 
L 353.035636 265.1172 
L 356.282182 263.315896 
L 359.528727 260.915947 
L 362.775273 265.49832 
L 366.021818 245.011649 
L 369.268364 244.996638 
L 372.514909 252.519252 
L 375.761455 263.86291 
L 379.008 249.94163 
L 382.254545 249.95446 
L 385.501091 247.540528 
L 388.747636 252.360124 
L 391.994182 268.612851 
L 395.240727 250.057214 
L 398.487273 249.931396 
" style="fill:none;stroke:#2ca02c;stroke-linecap:square;stroke-width:2;"/>
   </g>
   <g id="line2d_19">
    <path clip-path="url(#p9d1b664199)" d="M 73.832727 273.670233 
L 77.079273 273.827635 
L 80.325818 279.720648 
L 83.572364 259.4299 
L 86.818909 259.344924 
L 90.065455 257.015146 
L 93.312 256.99295 
L 96.558545 270.454164 
L 99.805091 256.987305 
L 103.051636 269.232825 
L 106.298182 259.547689 
L 109.544727 280.996232 
L 112.791273 264.320007 
L 116.037818 259.386841 
L 119.284364 269.836993 
L 122.530909 268.5992 
L 125.777455 269.073536 
L 129.024 268.281766 
L 132.270545 269.29506 
L 135.517091 272.455206 
L 138.763636 274.400636 
L 142.010182 257.044252 
L 145.256727 259.645516 
L 148.503273 259.414982 
L 151.749818 259.484247 
L 154.996364 295.488 
L 158.242909 276.718882 
L 161.489455 259.603684 
L 164.736 259.343227 
L 167.982545 279.179848 
L 171.229091 281.859561 
L 174.475636 261.958377 
L 177.722182 279.293537 
L 180.968727 280.143829 
L 184.215273 262.003684 
L 187.461818 275.403731 
L 190.708364 272.416883 
L 193.954909 278.307235 
L 197.201455 273.843773 
L 200.448 261.915937 
L 203.694545 275.073538 
L 206.941091 261.823851 
L 210.187636 280.238755 
L 213.434182 276.656098 
L 216.680727 273.951719 
L 219.927273 261.954718 
L 223.173818 262.090752 
L 226.420364 267.441184 
L 229.666909 254.461897 
L 232.913455 249.128632 
L 236.16 257.421143 
L 239.406545 257.125898 
L 242.653091 265.094193 
L 245.899636 251.508074 
L 249.146182 257.995703 
L 252.392727 257.34905 
L 255.639273 249.42279 
L 258.885818 266.201352 
L 262.132364 249.603269 
L 265.378909 258.524811 
L 268.625455 255.216272 
L 271.872 254.716671 
L 275.118545 252.292237 
L 278.365091 267.315801 
L 281.611636 265.251332 
L 284.858182 254.032365 
L 288.104727 254.733793 
L 291.351273 256.325522 
L 294.597818 256.032868 
L 297.844364 254.778281 
L 301.090909 263.221304 
L 304.337455 250.650941 
L 307.584 258.57976 
L 310.830545 256.175353 
L 314.077091 249.783887 
L 317.323636 249.282059 
L 320.570182 256.895162 
L 323.816727 248.408018 
L 327.063273 249.872619 
L 330.309818 251.972892 
L 333.556364 258.471513 
L 336.802909 253.528745 
L 340.049455 253.598148 
L 343.296 259.994565 
L 346.542545 259.715201 
L 349.789091 267.009429 
L 353.035636 254.695394 
L 356.282182 252.190206 
L 359.528727 266.652626 
L 362.775273 256.989087 
L 366.021818 263.761006 
L 369.268364 257.498363 
L 372.514909 252.036984 
L 375.761455 265.464491 
L 379.008 263.016101 
L 382.254545 255.882419 
L 385.501091 252.052322 
L 388.747636 258.022266 
L 391.994182 249.664257 
L 395.240727 251.956995 
L 398.487273 266.948603 
" style="fill:none;stroke:#d62728;stroke-linecap:square;stroke-width:2;"/>
   </g>
   <g id="line2d_20">
    <path clip-path="url(#p9d1b664199)" d="M 73.832727 145.319546 
L 77.079273 144.907601 
L 80.325818 144.513142 
L 83.572364 144.135217 
L 86.818909 143.772776 
L 90.065455 143.424602 
L 93.312 143.089331 
L 96.558545 142.765491 
L 99.805091 142.45155 
L 103.051636 142.145942 
L 106.298182 141.847088 
L 109.544727 141.553391 
L 112.791273 141.263248 
L 116.037818 140.975063 
L 119.284364 140.687297 
L 122.530909 140.398526 
L 125.777455 140.10753 
L 129.024 139.813365 
L 132.270545 139.515431 
L 135.517091 139.213492 
L 138.763636 138.907638 
L 142.010182 138.598214 
L 145.256727 138.285693 
L 148.503273 137.970561 
L 151.749818 137.653204 
L 154.996364 137.333846 
L 158.242909 137.012526 
L 161.489455 136.689129 
L 164.736 136.363445 
L 167.982545 136.035253 
L 171.229091 135.704401 
L 174.475636 135.370876 
L 177.722182 135.034854 
L 180.968727 134.69673 
L 184.215273 134.357127 
L 187.461818 134.016905 
L 190.708364 133.677169 
L 193.954909 133.339304 
L 197.201455 133.005044 
L 200.448 132.676583 
L 203.694545 132.356741 
L 206.941091 132.04919 
L 210.187636 131.758705 
L 213.434182 131.491438 
L 216.680727 131.255111 
L 219.927273 131.059021 
L 223.173818 130.913664 
L 226.420364 130.829799 
L 229.666909 130.81684 
L 232.913455 130.88074 
L 236.16 131.021889 
L 239.406545 131.233787 
L 242.653091 131.503149 
L 245.899636 131.811679 
L 249.146182 132.139194 
L 252.392727 132.467684 
L 255.639273 132.786065 
L 258.885818 133.095912 
L 262.132364 133.419296 
L 265.378909 133.811987 
L 268.625455 134.392094 
L 271.872 135.420167 
L 275.118545 137.584437 
L 278.365091 141.931098 
L 281.611636 133.90857 
L 284.858182 124.843552 
L 288.104727 118.668063 
L 291.351273 120.466192 
L 294.597818 122.339653 
L 297.844364 123.440644 
L 301.090909 124.145459 
L 304.337455 124.637352 
L 307.584 125.003571 
L 310.830545 125.289666 
L 314.077091 125.521853 
L 317.323636 125.716799 
L 320.570182 125.886201 
L 323.816727 126.039002 
L 327.063273 126.182271 
L 330.309818 126.320928 
L 333.556364 126.455529 
L 336.802909 126.575424 
L 340.049455 126.639684 
L 343.296 126.527373 
L 346.542545 125.935958 
L 349.789091 124.331021 
L 353.035636 121.393282 
L 356.282182 118.306966 
L 359.528727 117.993612 
L 362.775273 119.37655 
L 366.021818 120.6665 
L 369.268364 121.69319 
L 372.514909 122.566662 
L 375.761455 123.382927 
L 379.008 124.208186 
L 382.254545 125.08797 
L 385.501091 126.053288 
L 388.747636 127.121637 
L 391.994182 128.289893 
L 395.240727 129.507543 
L 398.487273 130.601874 
" style="fill:none;stroke:#9467bd;stroke-linecap:square;stroke-width:2;"/>
   </g>
   <g id="line2d_21">
    <path clip-path="url(#p9d1b664199)" d="M 73.832727 149.95931 
L 77.079273 149.336655 
L 80.325818 148.754653 
L 83.572364 148.20961 
L 86.818909 147.696854 
L 90.065455 147.211269 
L 93.312 146.747692 
L 96.558545 146.301203 
L 99.805091 145.867316 
L 103.051636 145.442103 
L 106.298182 145.022264 
L 109.544727 144.605163 
L 112.791273 144.188833 
L 116.037818 143.771963 
L 119.284364 143.353869 
L 122.530909 142.934444 
L 125.777455 142.514097 
L 129.024 142.093657 
L 132.270545 141.67426 
L 135.517091 141.257205 
L 138.763636 140.843796 
L 142.010182 140.435194 
L 145.256727 140.032285 
L 148.503273 139.635594 
L 151.749818 139.245252 
L 154.996364 138.861015 
L 158.242909 138.482327 
L 161.489455 138.108424 
L 164.736 137.738448 
L 167.982545 137.371574 
L 171.229091 137.007126 
L 174.475636 136.644676 
L 177.722182 136.284131 
L 180.968727 135.925794 
L 184.215273 135.570418 
L 187.461818 135.219252 
L 190.708364 134.874087 
L 193.954909 134.537308 
L 197.201455 134.211953 
L 200.448 133.901763 
L 203.694545 133.611207 
L 206.941091 133.345431 
L 210.187636 133.110084 
L 213.434182 132.910965 
L 216.680727 132.753454 
L 219.927273 132.641742 
L 223.173818 132.577953 
L 226.420364 132.561341 
L 229.666909 132.587771 
L 232.913455 132.649669 
L 236.16 132.736492 
L 239.406545 132.835647 
L 242.653091 132.933713 
L 245.899636 133.01778 
L 249.146182 133.076819 
L 252.392727 133.103024 
L 255.639273 133.093161 
L 258.885818 133.049928 
L 262.132364 132.983301 
L 265.378909 132.911693 
L 268.625455 132.862464 
L 271.872 132.87102 
L 275.118545 132.977697 
L 278.365091 133.22258 
L 281.611636 133.64037 
L 284.858182 134.259298 
L 288.104727 135.107665 
L 291.351273 136.229758 
L 294.597818 137.713967 
L 297.844364 139.743258 
L 301.090909 142.651267 
L 304.337455 145.862691 
L 307.584 143.433556 
L 310.830545 139.054788 
L 314.077091 135.602374 
L 317.323636 132.747037 
L 320.570182 130.217242 
L 323.816727 127.88735 
L 327.063273 125.752115 
L 330.309818 123.952258 
L 333.556364 122.762332 
L 336.802909 122.367553 
L 340.049455 122.61927 
L 343.296 123.204199 
L 346.542545 123.904514 
L 349.789091 124.630293 
L 353.035636 125.362926 
L 356.282182 126.112632 
L 359.528727 126.895667 
L 362.775273 127.719807 
L 366.021818 128.571679 
L 369.268364 129.405238 
L 372.514909 130.136828 
L 375.761455 130.658574 
L 379.008 130.877386 
L 382.254545 130.757054 
L 385.501091 130.319828 
L 388.747636 129.603483 
L 391.994182 128.611577 
L 395.240727 127.237816 
L 398.487273 125.477327 
" style="fill:none;stroke:#8c564b;stroke-linecap:square;stroke-width:2;"/>
   </g>
   <g id="line2d_22">
    <path clip-path="url(#p9d1b664199)" d="M 73.832727 149.401615 
L 77.079273 148.901251 
L 80.325818 148.432117 
L 83.572364 147.991634 
L 86.818909 147.576502 
L 90.065455 147.183022 
L 93.312 146.807348 
L 96.558545 146.445694 
L 99.805091 146.094483 
L 103.051636 145.750457 
L 106.298182 145.410767 
L 109.544727 145.073023 
L 112.791273 144.735335 
L 116.037818 144.396337 
L 119.284364 144.055183 
L 122.530909 143.711537 
L 125.777455 143.365531 
L 129.024 143.017704 
L 132.270545 142.66891 
L 135.517091 142.320199 
L 138.763636 141.972684 
L 142.010182 141.627407 
L 145.256727 141.285214 
L 148.503273 140.946666 
L 151.749818 140.611992 
L 154.996364 140.281084 
L 158.242909 139.953534 
L 161.489455 139.62871 
L 164.736 139.30584 
L 167.982545 138.984118 
L 171.229091 138.662803 
L 174.475636 138.341311 
L 177.722182 138.019298 
L 180.968727 137.69673 
L 184.215273 137.373944 
L 187.461818 137.051709 
L 190.708364 136.731287 
L 193.954909 136.414511 
L 197.201455 136.103866 
L 200.448 135.802588 
L 203.694545 135.514739 
L 206.941091 135.245247 
L 210.187636 134.999834 
L 213.434182 134.784783 
L 216.680727 134.606454 
L 219.927273 134.470536 
L 223.173818 134.38106 
L 226.420364 134.339348 
L 229.666909 134.34315 
L 232.913455 134.38624 
L 236.16 134.458659 
L 239.406545 134.547589 
L 242.653091 134.638692 
L 245.899636 134.717666 
L 249.146182 134.771822 
L 252.392727 134.791565 
L 255.639273 134.771775 
L 258.885818 134.713113 
L 262.132364 134.623262 
L 265.378909 134.518028 
L 268.625455 134.422 
L 271.872 134.368174 
L 275.118545 134.395843 
L 278.365091 134.546574 
L 281.611636 134.85978 
L 284.858182 135.371466 
L 288.104727 136.120757 
L 291.351273 137.168716 
L 294.597818 138.637789 
L 297.844364 140.79544 
L 301.090909 144.12172 
L 304.337455 145.891122 
L 307.584 140.712266 
L 310.830545 136.032508 
L 314.077091 132.323246 
L 317.323636 129.358284 
L 320.570182 127.428417 
L 323.816727 126.820964 
L 327.063273 127.138543 
L 330.309818 127.786334 
L 333.556364 128.467656 
L 336.802909 129.096632 
L 340.049455 129.665727 
L 343.296 130.191299 
L 346.542545 130.696627 
L 349.789091 131.207187 
L 353.035636 131.749022 
L 356.282182 132.34657 
L 359.528727 133.017471 
L 362.775273 133.761242 
L 366.021818 134.537412 
L 369.268364 135.231548 
L 372.514909 135.632106 
L 375.761455 135.49445 
L 379.008 134.710069 
L 382.254545 133.359141 
L 385.501091 131.565605 
L 388.747636 129.488612 
L 391.994182 127.987698 
L 395.240727 129.087894 
L 398.487273 132.130996 
" style="fill:none;stroke:#e377c2;stroke-linecap:square;stroke-width:2;"/>
   </g>
   <g id="line2d_23">
    <path clip-path="url(#p9d1b664199)" d="M 73.832727 149.416821 
L 77.079273 148.989744 
L 80.325818 148.590406 
L 83.572364 148.216498 
L 86.818909 147.865296 
L 90.065455 147.533831 
L 93.312 147.21905 
L 96.558545 146.917941 
L 99.805091 146.627629 
L 103.051636 146.345454 
L 106.298182 146.069029 
L 109.544727 145.796285 
L 112.791273 145.525498 
L 116.037818 145.25531 
L 119.284364 144.98474 
L 122.530909 144.713179 
L 125.777455 144.440378 
L 129.024 144.166411 
L 132.270545 143.891625 
L 135.517091 143.616563 
L 138.763636 143.341869 
L 142.010182 143.06819 
L 145.256727 142.796078 
L 148.503273 142.525905 
L 151.749818 142.257818 
L 154.996364 141.991707 
L 158.242909 141.72722 
L 161.489455 141.463797 
L 164.736 141.200723 
L 167.982545 140.937192 
L 171.229091 140.672377 
L 174.475636 140.40549 
L 177.722182 140.135841 
L 180.968727 139.862887 
L 184.215273 139.586274 
L 187.461818 139.305878 
L 190.708364 139.021852 
L 193.954909 138.734686 
L 197.201455 138.445288 
L 200.448 138.155105 
L 203.694545 137.866273 
L 206.941091 137.58181 
L 210.187636 137.305835 
L 213.434182 137.043759 
L 216.680727 136.802399 
L 219.927273 136.589859 
L 223.173818 136.41503 
L 226.420364 136.286551 
L 229.666909 136.211209 
L 232.913455 136.192026 
L 236.16 136.22658 
L 239.406545 136.306242 
L 242.653091 136.416786 
L 245.899636 136.540317 
L 249.146182 136.658012 
L 252.392727 136.753008 
L 255.639273 136.812995 
L 258.885818 136.832335 
L 262.132364 136.813822 
L 265.378909 136.77039 
L 268.625455 136.727454 
L 271.872 136.727535 
L 275.118545 136.842022 
L 278.365091 137.206695 
L 281.611636 138.146275 
L 284.858182 140.481429 
L 288.104727 137.102987 
L 291.351273 131.337725 
L 294.597818 131.664626 
L 297.844364 132.343348 
L 301.090909 132.831411 
L 304.337455 133.194361 
L 307.584 133.481871 
L 310.830545 133.720131 
L 314.077091 133.923486 
L 317.323636 134.100664 
L 320.570182 134.257731 
L 323.816727 134.399539 
L 327.063273 134.530494 
L 330.309818 134.655028 
L 333.556364 134.777905 
L 336.802909 134.904294 
L 340.049455 135.039082 
L 343.296 135.183311 
L 346.542545 135.319226 
L 349.789091 135.349216 
L 353.035636 134.88412 
L 356.282182 133.152989 
L 359.528727 131.331611 
L 362.775273 131.515171 
L 366.021818 132.295994 
L 369.268364 132.986708 
L 372.514909 133.583878 
L 375.761455 134.150712 
L 379.008 134.73365 
L 382.254545 135.362116 
L 385.501091 136.053515 
L 388.747636 136.816577 
L 391.994182 137.653502 
L 395.240727 138.561233 
L 398.487273 139.530939 
" style="fill:none;stroke:#7f7f7f;stroke-linecap:square;stroke-width:2;"/>
   </g>
   <g id="line2d_24">
    <path clip-path="url(#p9d1b664199)" d="M 73.832727 150.781317 
L 77.079273 150.386032 
L 80.325818 150.01849 
L 83.572364 149.676396 
L 86.818909 149.357187 
L 90.065455 149.058163 
L 93.312 148.776583 
L 96.558545 148.509765 
L 99.805091 148.255149 
L 103.051636 148.010358 
L 106.298182 147.773235 
L 109.544727 147.541875 
L 112.791273 147.314646 
L 116.037818 147.090195 
L 119.284364 146.867456 
L 122.530909 146.645647 
L 125.777455 146.424256 
L 129.024 146.203027 
L 132.270545 145.981918 
L 135.517091 145.761059 
L 138.763636 145.540685 
L 142.010182 145.321064 
L 145.256727 145.102427 
L 148.503273 144.884901 
L 151.749818 144.668468 
L 154.996364 144.452931 
L 158.242909 144.237921 
L 161.489455 144.022904 
L 164.736 143.807224 
L 167.982545 143.590142 
L 171.229091 143.370879 
L 174.475636 143.14867 
L 177.722182 142.922795 
L 180.968727 142.69262 
L 184.215273 142.457615 
L 187.461818 142.21738 
L 190.708364 141.971666 
L 193.954909 141.720404 
L 197.201455 141.463748 
L 200.448 141.202146 
L 203.694545 140.936449 
L 206.941091 140.66807 
L 210.187636 140.3992 
L 213.434182 140.133101 
L 216.680727 139.874458 
L 219.927273 139.629739 
L 223.173818 139.407455 
L 226.420364 139.218081 
L 229.666909 139.073331 
L 232.913455 138.984444 
L 236.16 138.959464 
L 239.406545 139.00006 
L 242.653091 139.099131 
L 245.899636 139.240515 
L 249.146182 139.401344 
L 252.392727 139.556378 
L 255.639273 139.682985 
L 258.885818 139.765667 
L 262.132364 139.799913 
L 265.378909 139.797094 
L 268.625455 139.800076 
L 271.872 139.980122 
L 275.118545 137.490894 
L 278.365091 138.541988 
L 281.611636 138.607058 
L 284.858182 138.562433 
L 288.104727 138.502522 
L 291.351273 138.448514 
L 294.597818 138.404904 
L 297.844364 138.370772 
L 301.090909 138.343499 
L 304.337455 138.320269 
L 307.584 138.29863 
L 310.830545 138.276631 
L 314.077091 138.252722 
L 317.323636 138.225547 
L 320.570182 138.193613 
L 323.816727 138.154733 
L 327.063273 138.104913 
L 330.309818 138.035647 
L 333.556364 137.926245 
L 336.802909 137.719337 
L 340.049455 137.279142 
L 343.296 137.183501 
L 346.542545 137.974282 
L 349.789091 138.223704 
L 353.035636 138.297414 
L 356.282182 138.345116 
L 359.528727 138.402093 
L 362.775273 138.481262 
L 366.021818 138.590748 
L 369.268364 138.737823 
L 372.514909 138.929935 
L 375.761455 139.174958 
L 379.008 139.481214 
L 382.254545 139.857435 
L 385.501091 140.312911 
L 388.747636 140.858218 
L 391.994182 141.50762 
L 395.240727 142.28647 
L 398.487273 143.256019 
" style="fill:none;stroke:#bcbd22;stroke-linecap:square;stroke-width:2;"/>
   </g>
   <g id="line2d_25">
    <path clip-path="url(#p9d1b664199)" d="M 73.832727 64.374027 
L 77.079273 63.990271 
L 80.325818 63.634907 
L 83.572364 63.305632 
L 86.818909 62.999927 
L 90.065455 62.71516 
L 93.312 62.448685 
L 96.558545 62.197913 
L 99.805091 61.960382 
L 103.051636 61.733799 
L 106.298182 61.51608 
L 109.544727 61.305374 
L 112.791273 61.100077 
L 116.037818 60.898842 
L 119.284364 60.700577 
L 122.530909 60.504441 
L 125.777455 60.309832 
L 129.024 60.116371 
L 132.270545 59.923866 
L 135.517091 59.732277 
L 138.763636 59.541658 
L 142.010182 59.352098 
L 145.256727 59.163661 
L 148.503273 58.97633 
L 151.749818 58.789968 
L 154.996364 58.604294 
L 158.242909 58.418884 
L 161.489455 58.233179 
L 164.736 58.046518 
L 167.982545 57.858174 
L 171.229091 57.667394 
L 174.475636 57.473437 
L 177.722182 57.27561 
L 180.968727 57.073294 
L 184.215273 56.865964 
L 187.461818 56.653202 
L 190.708364 56.434709 
L 193.954909 56.210326 
L 197.201455 55.980063 
L 200.448 55.744146 
L 203.694545 55.50311 
L 206.941091 55.257928 
L 210.187636 55.010208 
L 213.434182 54.762475 
L 216.680727 54.518544 
L 219.927273 54.283982 
L 223.173818 54.066578 
L 226.420364 53.876659 
L 229.666909 53.726905 
L 232.913455 53.631192 
L 236.16 53.602051 
L 239.406545 53.646852 
L 242.653091 53.763826 
L 245.899636 53.939822 
L 249.146182 54.151363 
L 252.392727 54.369011 
L 255.639273 54.563513 
L 258.885818 54.712036 
L 262.132364 54.805197 
L 265.378909 54.877763 
L 268.625455 56.458066 
L 271.872 55.182758 
L 275.118545 54.729369 
L 278.365091 54.553609 
L 281.611636 54.417854 
L 284.858182 54.303295 
L 288.104727 54.206598 
L 291.351273 54.125391 
L 294.597818 54.056816 
L 297.844364 53.997876 
L 301.090909 53.945864 
L 304.337455 53.898566 
L 307.584 53.854278 
L 310.830545 53.811722 
L 314.077091 53.769907 
L 317.323636 53.728011 
L 320.570182 53.685313 
L 323.816727 53.641441 
L 327.063273 53.598012 
L 330.309818 53.568 
L 333.556364 53.637609 
L 336.802909 54.340337 
L 340.049455 55.223455 
L 343.296 54.683878 
L 346.542545 54.365246 
L 349.789091 54.226492 
L 353.035636 54.173008 
L 356.282182 54.170155 
L 359.528727 54.205769 
L 362.775273 54.276753 
L 366.021818 54.384432 
L 369.268364 54.532785 
L 372.514909 54.727743 
L 375.761455 54.97696 
L 379.008 55.289909 
L 382.254545 55.678392 
L 385.501091 56.157945 
L 388.747636 56.75155 
L 391.994182 57.500021 
L 395.240727 58.494687 
L 398.487273 60.000486 
" style="fill:none;stroke:#17becf;stroke-linecap:square;stroke-width:2;"/>
   </g>
   <g id="patch_3">
    <path d="M 57.6 307.584 
L 57.6 41.472 
" style="fill:none;stroke:#000000;stroke-linecap:square;stroke-linejoin:miter;stroke-width:0.8;"/>
   </g>
   <g id="patch_4">
    <path d="M 414.72 307.584 
L 414.72 41.472 
" style="fill:none;stroke:#000000;stroke-linecap:square;stroke-linejoin:miter;stroke-width:0.8;"/>
   </g>
   <g id="patch_5">
    <path d="M 57.6 307.584 
L 414.72 307.584 
" style="fill:none;stroke:#000000;stroke-linecap:square;stroke-linejoin:miter;stroke-width:0.8;"/>
   </g>
   <g id="patch_6">
    <path d="M 57.6 41.472 
L 414.72 41.472 
" style="fill:none;stroke:#000000;stroke-linecap:square;stroke-linejoin:miter;stroke-width:0.8;"/>
   </g>
   <g id="text_17">
    <!-- Transmission of different radius -->
    <defs>
     <path d="M -0.296875 72.90625 
L 61.375 72.90625 
L 61.375 64.59375 
L 35.5 64.59375 
L 35.5 0 
L 25.59375 0 
L 25.59375 64.59375 
L -0.296875 64.59375 
z
" id="DejaVuSans-84"/>
     <path d="M 30.609375 48.390625 
Q 23.390625 48.390625 19.1875 42.75 
Q 14.984375 37.109375 14.984375 27.296875 
Q 14.984375 17.484375 19.15625 11.84375 
Q 23.34375 6.203125 30.609375 6.203125 
Q 37.796875 6.203125 41.984375 11.859375 
Q 46.1875 17.53125 46.1875 27.296875 
Q 46.1875 37.015625 41.984375 42.703125 
Q 37.796875 48.390625 30.609375 48.390625 
z
M 30.609375 56 
Q 42.328125 56 49.015625 48.375 
Q 55.71875 40.765625 55.71875 27.296875 
Q 55.71875 13.875 49.015625 6.21875 
Q 42.328125 -1.421875 30.609375 -1.421875 
Q 18.84375 -1.421875 12.171875 6.21875 
Q 5.515625 13.875 5.515625 27.296875 
Q 5.515625 40.765625 12.171875 48.375 
Q 18.84375 56 30.609375 56 
z
" id="DejaVuSans-111"/>
     <path id="DejaVuSans-32"/>
     <path d="M 37.109375 75.984375 
L 37.109375 68.5 
L 28.515625 68.5 
Q 23.6875 68.5 21.796875 66.546875 
Q 19.921875 64.59375 19.921875 59.515625 
L 19.921875 54.6875 
L 34.71875 54.6875 
L 34.71875 47.703125 
L 19.921875 47.703125 
L 19.921875 0 
L 10.890625 0 
L 10.890625 47.703125 
L 2.296875 47.703125 
L 2.296875 54.6875 
L 10.890625 54.6875 
L 10.890625 58.5 
Q 10.890625 67.625 15.140625 71.796875 
Q 19.390625 75.984375 28.609375 75.984375 
z
" id="DejaVuSans-102"/>
     <path d="M 56.203125 29.59375 
L 56.203125 25.203125 
L 14.890625 25.203125 
Q 15.484375 15.921875 20.484375 11.0625 
Q 25.484375 6.203125 34.421875 6.203125 
Q 39.59375 6.203125 44.453125 7.46875 
Q 49.3125 8.734375 54.109375 11.28125 
L 54.109375 2.78125 
Q 49.265625 0.734375 44.1875 -0.34375 
Q 39.109375 -1.421875 33.890625 -1.421875 
Q 20.796875 -1.421875 13.15625 6.1875 
Q 5.515625 13.8125 5.515625 26.8125 
Q 5.515625 40.234375 12.765625 48.109375 
Q 20.015625 56 32.328125 56 
Q 43.359375 56 49.78125 48.890625 
Q 56.203125 41.796875 56.203125 29.59375 
z
M 47.21875 32.234375 
Q 47.125 39.59375 43.09375 43.984375 
Q 39.0625 48.390625 32.421875 48.390625 
Q 24.90625 48.390625 20.390625 44.140625 
Q 15.875 39.890625 15.1875 32.171875 
z
" id="DejaVuSans-101"/>
     <path d="M 18.3125 70.21875 
L 18.3125 54.6875 
L 36.8125 54.6875 
L 36.8125 47.703125 
L 18.3125 47.703125 
L 18.3125 18.015625 
Q 18.3125 11.328125 20.140625 9.421875 
Q 21.96875 7.515625 27.59375 7.515625 
L 36.8125 7.515625 
L 36.8125 0 
L 27.59375 0 
Q 17.1875 0 13.234375 3.875 
Q 9.28125 7.765625 9.28125 18.015625 
L 9.28125 47.703125 
L 2.6875 47.703125 
L 2.6875 54.6875 
L 9.28125 54.6875 
L 9.28125 70.21875 
z
" id="DejaVuSans-116"/>
    </defs>
    <g transform="translate(141.78375 35.472)scale(0.12 -0.12)">
     <use xlink:href="#DejaVuSans-84"/>
     <use x="46.333984" xlink:href="#DejaVuSans-114"/>
     <use x="87.447266" xlink:href="#DejaVuSans-97"/>
     <use x="148.726562" xlink:href="#DejaVuSans-110"/>
     <use x="212.105469" xlink:href="#DejaVuSans-115"/>
     <use x="264.205078" xlink:href="#DejaVuSans-109"/>
     <use x="361.617188" xlink:href="#DejaVuSans-105"/>
     <use x="389.400391" xlink:href="#DejaVuSans-115"/>
     <use x="441.5" xlink:href="#DejaVuSans-115"/>
     <use x="493.599609" xlink:href="#DejaVuSans-105"/>
     <use x="521.382812" xlink:href="#DejaVuSans-111"/>
     <use x="582.564453" xlink:href="#DejaVuSans-110"/>
     <use x="645.943359" xlink:href="#DejaVuSans-32"/>
     <use x="677.730469" xlink:href="#DejaVuSans-111"/>
     <use x="738.912109" xlink:href="#DejaVuSans-102"/>
     <use x="774.117188" xlink:href="#DejaVuSans-32"/>
     <use x="805.904297" xlink:href="#DejaVuSans-100"/>
     <use x="869.380859" xlink:href="#DejaVuSans-105"/>
     <use x="897.164062" xlink:href="#DejaVuSans-102"/>
     <use x="932.369141" xlink:href="#DejaVuSans-102"/>
     <use x="967.574219" xlink:href="#DejaVuSans-101"/>
     <use x="1029.097656" xlink:href="#DejaVuSans-114"/>
     <use x="1067.960938" xlink:href="#DejaVuSans-101"/>
     <use x="1129.484375" xlink:href="#DejaVuSans-110"/>
     <use x="1192.863281" xlink:href="#DejaVuSans-116"/>
     <use x="1232.072266" xlink:href="#DejaVuSans-32"/>
     <use x="1263.859375" xlink:href="#DejaVuSans-114"/>
     <use x="1304.972656" xlink:href="#DejaVuSans-97"/>
     <use x="1366.251953" xlink:href="#DejaVuSans-100"/>
     <use x="1429.728516" xlink:href="#DejaVuSans-105"/>
     <use x="1457.511719" xlink:href="#DejaVuSans-117"/>
     <use x="1520.890625" xlink:href="#DejaVuSans-115"/>
    </g>
   </g>
   <g id="legend_1">
    <g id="patch_7">
     <path d="M 64.6 302.584 
L 109.325 302.584 
Q 111.325 302.584 111.325 300.584 
L 111.325 154.80275 
Q 111.325 152.80275 109.325 152.80275 
L 64.6 152.80275 
Q 62.6 152.80275 62.6 154.80275 
L 62.6 300.584 
Q 62.6 302.584 64.6 302.584 
z
" style="fill:#ffffff;opacity:0.8;stroke:#cccccc;stroke-linejoin:miter;"/>
    </g>
    <g id="line2d_26">
     <path d="M 66.6 160.901187 
L 86.6 160.901187 
" style="fill:none;stroke:#1f77b4;stroke-linecap:square;stroke-width:2;"/>
    </g>
    <g id="line2d_27"/>
    <g id="text_18">
     <!-- 0 -->
     <g transform="translate(94.6 164.401187)scale(0.1 -0.1)">
      <use xlink:href="#DejaVuSans-48"/>
     </g>
    </g>
    <g id="line2d_28">
     <path d="M 66.6 175.579313 
L 86.6 175.579313 
" style="fill:none;stroke:#ff7f0e;stroke-linecap:square;stroke-width:2;"/>
    </g>
    <g id="line2d_29"/>
    <g id="text_19">
     <!-- 10 -->
     <g transform="translate(94.6 179.079313)scale(0.1 -0.1)">
      <use xlink:href="#DejaVuSans-49"/>
      <use x="63.623047" xlink:href="#DejaVuSans-48"/>
     </g>
    </g>
    <g id="line2d_30">
     <path d="M 66.6 190.257438 
L 86.6 190.257438 
" style="fill:none;stroke:#2ca02c;stroke-linecap:square;stroke-width:2;"/>
    </g>
    <g id="line2d_31"/>
    <g id="text_20">
     <!-- 20 -->
     <g transform="translate(94.6 193.757438)scale(0.1 -0.1)">
      <use xlink:href="#DejaVuSans-50"/>
      <use x="63.623047" xlink:href="#DejaVuSans-48"/>
     </g>
    </g>
    <g id="line2d_32">
     <path d="M 66.6 204.935563 
L 86.6 204.935563 
" style="fill:none;stroke:#d62728;stroke-linecap:square;stroke-width:2;"/>
    </g>
    <g id="line2d_33"/>
    <g id="text_21">
     <!-- 30 -->
     <defs>
      <path d="M 40.578125 39.3125 
Q 47.65625 37.796875 51.625 33 
Q 55.609375 28.21875 55.609375 21.1875 
Q 55.609375 10.40625 48.1875 4.484375 
Q 40.765625 -1.421875 27.09375 -1.421875 
Q 22.515625 -1.421875 17.65625 -0.515625 
Q 12.796875 0.390625 7.625 2.203125 
L 7.625 11.71875 
Q 11.71875 9.328125 16.59375 8.109375 
Q 21.484375 6.890625 26.8125 6.890625 
Q 36.078125 6.890625 40.9375 10.546875 
Q 45.796875 14.203125 45.796875 21.1875 
Q 45.796875 27.640625 41.28125 31.265625 
Q 36.765625 34.90625 28.71875 34.90625 
L 20.21875 34.90625 
L 20.21875 43.015625 
L 29.109375 43.015625 
Q 36.375 43.015625 40.234375 45.921875 
Q 44.09375 48.828125 44.09375 54.296875 
Q 44.09375 59.90625 40.109375 62.90625 
Q 36.140625 65.921875 28.71875 65.921875 
Q 24.65625 65.921875 20.015625 65.03125 
Q 15.375 64.15625 9.8125 62.3125 
L 9.8125 71.09375 
Q 15.4375 72.65625 20.34375 73.4375 
Q 25.25 74.21875 29.59375 74.21875 
Q 40.828125 74.21875 47.359375 69.109375 
Q 53.90625 64.015625 53.90625 55.328125 
Q 53.90625 49.265625 50.4375 45.09375 
Q 46.96875 40.921875 40.578125 39.3125 
z
" id="DejaVuSans-51"/>
     </defs>
     <g transform="translate(94.6 208.435563)scale(0.1 -0.1)">
      <use xlink:href="#DejaVuSans-51"/>
      <use x="63.623047" xlink:href="#DejaVuSans-48"/>
     </g>
    </g>
    <g id="line2d_34">
     <path d="M 66.6 219.613688 
L 86.6 219.613688 
" style="fill:none;stroke:#9467bd;stroke-linecap:square;stroke-width:2;"/>
    </g>
    <g id="line2d_35"/>
    <g id="text_22">
     <!-- 40 -->
     <defs>
      <path d="M 37.796875 64.3125 
L 12.890625 25.390625 
L 37.796875 25.390625 
z
M 35.203125 72.90625 
L 47.609375 72.90625 
L 47.609375 25.390625 
L 58.015625 25.390625 
L 58.015625 17.1875 
L 47.609375 17.1875 
L 47.609375 0 
L 37.796875 0 
L 37.796875 17.1875 
L 4.890625 17.1875 
L 4.890625 26.703125 
z
" id="DejaVuSans-52"/>
     </defs>
     <g transform="translate(94.6 223.113688)scale(0.1 -0.1)">
      <use xlink:href="#DejaVuSans-52"/>
      <use x="63.623047" xlink:href="#DejaVuSans-48"/>
     </g>
    </g>
    <g id="line2d_36">
     <path d="M 66.6 234.291812 
L 86.6 234.291812 
" style="fill:none;stroke:#8c564b;stroke-linecap:square;stroke-width:2;"/>
    </g>
    <g id="line2d_37"/>
    <g id="text_23">
     <!-- 50 -->
     <g transform="translate(94.6 237.791812)scale(0.1 -0.1)">
      <use xlink:href="#DejaVuSans-53"/>
      <use x="63.623047" xlink:href="#DejaVuSans-48"/>
     </g>
    </g>
    <g id="line2d_38">
     <path d="M 66.6 248.969938 
L 86.6 248.969938 
" style="fill:none;stroke:#e377c2;stroke-linecap:square;stroke-width:2;"/>
    </g>
    <g id="line2d_39"/>
    <g id="text_24">
     <!-- 60 -->
     <defs>
      <path d="M 33.015625 40.375 
Q 26.375 40.375 22.484375 35.828125 
Q 18.609375 31.296875 18.609375 23.390625 
Q 18.609375 15.53125 22.484375 10.953125 
Q 26.375 6.390625 33.015625 6.390625 
Q 39.65625 6.390625 43.53125 10.953125 
Q 47.40625 15.53125 47.40625 23.390625 
Q 47.40625 31.296875 43.53125 35.828125 
Q 39.65625 40.375 33.015625 40.375 
z
M 52.59375 71.296875 
L 52.59375 62.3125 
Q 48.875 64.0625 45.09375 64.984375 
Q 41.3125 65.921875 37.59375 65.921875 
Q 27.828125 65.921875 22.671875 59.328125 
Q 17.53125 52.734375 16.796875 39.40625 
Q 19.671875 43.65625 24.015625 45.921875 
Q 28.375 48.1875 33.59375 48.1875 
Q 44.578125 48.1875 50.953125 41.515625 
Q 57.328125 34.859375 57.328125 23.390625 
Q 57.328125 12.15625 50.6875 5.359375 
Q 44.046875 -1.421875 33.015625 -1.421875 
Q 20.359375 -1.421875 13.671875 8.265625 
Q 6.984375 17.96875 6.984375 36.375 
Q 6.984375 53.65625 15.1875 63.9375 
Q 23.390625 74.21875 37.203125 74.21875 
Q 40.921875 74.21875 44.703125 73.484375 
Q 48.484375 72.75 52.59375 71.296875 
z
" id="DejaVuSans-54"/>
     </defs>
     <g transform="translate(94.6 252.469938)scale(0.1 -0.1)">
      <use xlink:href="#DejaVuSans-54"/>
      <use x="63.623047" xlink:href="#DejaVuSans-48"/>
     </g>
    </g>
    <g id="line2d_40">
     <path d="M 66.6 263.648062 
L 86.6 263.648062 
" style="fill:none;stroke:#7f7f7f;stroke-linecap:square;stroke-width:2;"/>
    </g>
    <g id="line2d_41"/>
    <g id="text_25">
     <!-- 70 -->
     <g transform="translate(94.6 267.148062)scale(0.1 -0.1)">
      <use xlink:href="#DejaVuSans-55"/>
      <use x="63.623047" xlink:href="#DejaVuSans-48"/>
     </g>
    </g>
    <g id="line2d_42">
     <path d="M 66.6 278.326188 
L 86.6 278.326188 
" style="fill:none;stroke:#bcbd22;stroke-linecap:square;stroke-width:2;"/>
    </g>
    <g id="line2d_43"/>
    <g id="text_26">
     <!-- 80 -->
     <defs>
      <path d="M 31.78125 34.625 
Q 24.75 34.625 20.71875 30.859375 
Q 16.703125 27.09375 16.703125 20.515625 
Q 16.703125 13.921875 20.71875 10.15625 
Q 24.75 6.390625 31.78125 6.390625 
Q 38.8125 6.390625 42.859375 10.171875 
Q 46.921875 13.96875 46.921875 20.515625 
Q 46.921875 27.09375 42.890625 30.859375 
Q 38.875 34.625 31.78125 34.625 
z
M 21.921875 38.8125 
Q 15.578125 40.375 12.03125 44.71875 
Q 8.5 49.078125 8.5 55.328125 
Q 8.5 64.0625 14.71875 69.140625 
Q 20.953125 74.21875 31.78125 74.21875 
Q 42.671875 74.21875 48.875 69.140625 
Q 55.078125 64.0625 55.078125 55.328125 
Q 55.078125 49.078125 51.53125 44.71875 
Q 48 40.375 41.703125 38.8125 
Q 48.828125 37.15625 52.796875 32.3125 
Q 56.78125 27.484375 56.78125 20.515625 
Q 56.78125 9.90625 50.3125 4.234375 
Q 43.84375 -1.421875 31.78125 -1.421875 
Q 19.734375 -1.421875 13.25 4.234375 
Q 6.78125 9.90625 6.78125 20.515625 
Q 6.78125 27.484375 10.78125 32.3125 
Q 14.796875 37.15625 21.921875 38.8125 
z
M 18.3125 54.390625 
Q 18.3125 48.734375 21.84375 45.5625 
Q 25.390625 42.390625 31.78125 42.390625 
Q 38.140625 42.390625 41.71875 45.5625 
Q 45.3125 48.734375 45.3125 54.390625 
Q 45.3125 60.0625 41.71875 63.234375 
Q 38.140625 66.40625 31.78125 66.40625 
Q 25.390625 66.40625 21.84375 63.234375 
Q 18.3125 60.0625 18.3125 54.390625 
z
" id="DejaVuSans-56"/>
     </defs>
     <g transform="translate(94.6 281.826188)scale(0.1 -0.1)">
      <use xlink:href="#DejaVuSans-56"/>
      <use x="63.623047" xlink:href="#DejaVuSans-48"/>
     </g>
    </g>
    <g id="line2d_44">
     <path d="M 66.6 293.004312 
L 86.6 293.004312 
" style="fill:none;stroke:#17becf;stroke-linecap:square;stroke-width:2;"/>
    </g>
    <g id="line2d_45"/>
    <g id="text_27">
     <!-- 90 -->
     <defs>
      <path d="M 10.984375 1.515625 
L 10.984375 10.5 
Q 14.703125 8.734375 18.5 7.8125 
Q 22.3125 6.890625 25.984375 6.890625 
Q 35.75 6.890625 40.890625 13.453125 
Q 46.046875 20.015625 46.78125 33.40625 
Q 43.953125 29.203125 39.59375 26.953125 
Q 35.25 24.703125 29.984375 24.703125 
Q 19.046875 24.703125 12.671875 31.3125 
Q 6.296875 37.9375 6.296875 49.421875 
Q 6.296875 60.640625 12.9375 67.421875 
Q 19.578125 74.21875 30.609375 74.21875 
Q 43.265625 74.21875 49.921875 64.515625 
Q 56.59375 54.828125 56.59375 36.375 
Q 56.59375 19.140625 48.40625 8.859375 
Q 40.234375 -1.421875 26.421875 -1.421875 
Q 22.703125 -1.421875 18.890625 -0.6875 
Q 15.09375 0.046875 10.984375 1.515625 
z
M 30.609375 32.421875 
Q 37.25 32.421875 41.125 36.953125 
Q 45.015625 41.5 45.015625 49.421875 
Q 45.015625 57.28125 41.125 61.84375 
Q 37.25 66.40625 30.609375 66.40625 
Q 23.96875 66.40625 20.09375 61.84375 
Q 16.21875 57.28125 16.21875 49.421875 
Q 16.21875 41.5 20.09375 36.953125 
Q 23.96875 32.421875 30.609375 32.421875 
z
" id="DejaVuSans-57"/>
     </defs>
     <g transform="translate(94.6 296.504312)scale(0.1 -0.1)">
      <use xlink:href="#DejaVuSans-57"/>
      <use x="63.623047" xlink:href="#DejaVuSans-48"/>
     </g>
    </g>
   </g>
  </g>
 </g>
 <defs>
  <clipPath id="p9d1b664199">
   <rect height="266.112" width="357.12" x="57.6" y="41.472"/>
  </clipPath>
 </defs>
</svg>
