<?xml version="1.0" encoding="utf-8" standalone="no"?>
<!DOCTYPE svg PUBLIC "-//W3C//DTD SVG 1.1//EN"
  "http://www.w3.org/Graphics/SVG/1.1/DTD/svg11.dtd">
<!-- Created with matplotlib (https://matplotlib.org/) -->
<svg height="345.6pt" version="1.1" viewBox="0 0 460.8 345.6" width="460.8pt" xmlns="http://www.w3.org/2000/svg" xmlns:xlink="http://www.w3.org/1999/xlink">
 <metadata>
  <rdf:RDF xmlns:cc="http://creativecommons.org/ns#" xmlns:dc="http://purl.org/dc/elements/1.1/" xmlns:rdf="http://www.w3.org/1999/02/22-rdf-syntax-ns#">
   <cc:Work>
    <dc:type rdf:resource="http://purl.org/dc/dcmitype/StillImage"/>
    <dc:date>2022-01-07T14:58:05.728009</dc:date>
    <dc:format>image/svg+xml</dc:format>
    <dc:creator>
     <cc:Agent>
      <dc:title>Matplotlib v3.3.3, https://matplotlib.org/</dc:title>
     </cc:Agent>
    </dc:creator>
   </cc:Work>
  </rdf:RDF>
 </metadata>
 <defs>
  <style type="text/css">*{stroke-linecap:butt;stroke-linejoin:round;}</style>
 </defs>
 <g id="figure_1">
  <g id="patch_1">
   <path d="M 0 345.6 
L 460.8 345.6 
L 460.8 0 
L 0 0 
z
" style="fill:#ffffff;"/>
  </g>
  <g id="axes_1">
   <g id="patch_2">
    <path d="M 57.6 307.584 
L 414.72 307.584 
L 414.72 41.472 
L 57.6 41.472 
z
" style="fill:#ffffff;"/>
   </g>
   <g id="matplotlib.axis_1">
    <g id="xtick_1">
     <g id="line2d_1">
      <defs>
       <path d="M 0 0 
L 0 3.5 
" id="m97154877b5" style="stroke:#000000;stroke-width:0.8;"/>
      </defs>
      <g>
       <use style="stroke:#000000;stroke-width:0.8;" x="73.832727" xlink:href="#m97154877b5" y="307.584"/>
      </g>
     </g>
     <g id="text_1">
      <!-- 100 -->
      <g transform="translate(64.288977 322.182437)scale(0.1 -0.1)">
       <defs>
        <path d="M 12.40625 8.296875 
L 28.515625 8.296875 
L 28.515625 63.921875 
L 10.984375 60.40625 
L 10.984375 69.390625 
L 28.421875 72.90625 
L 38.28125 72.90625 
L 38.28125 8.296875 
L 54.390625 8.296875 
L 54.390625 0 
L 12.40625 0 
z
" id="DejaVuSans-49"/>
        <path d="M 31.78125 66.40625 
Q 24.171875 66.40625 20.328125 58.90625 
Q 16.5 51.421875 16.5 36.375 
Q 16.5 21.390625 20.328125 13.890625 
Q 24.171875 6.390625 31.78125 6.390625 
Q 39.453125 6.390625 43.28125 13.890625 
Q 47.125 21.390625 47.125 36.375 
Q 47.125 51.421875 43.28125 58.90625 
Q 39.453125 66.40625 31.78125 66.40625 
z
M 31.78125 74.21875 
Q 44.046875 74.21875 50.515625 64.515625 
Q 56.984375 54.828125 56.984375 36.375 
Q 56.984375 17.96875 50.515625 8.265625 
Q 44.046875 -1.421875 31.78125 -1.421875 
Q 19.53125 -1.421875 13.0625 8.265625 
Q 6.59375 17.96875 6.59375 36.375 
Q 6.59375 54.828125 13.0625 64.515625 
Q 19.53125 74.21875 31.78125 74.21875 
z
" id="DejaVuSans-48"/>
       </defs>
       <use xlink:href="#DejaVuSans-49"/>
       <use x="63.623047" xlink:href="#DejaVuSans-48"/>
       <use x="127.246094" xlink:href="#DejaVuSans-48"/>
      </g>
     </g>
    </g>
    <g id="xtick_2">
     <g id="line2d_2">
      <g>
       <use style="stroke:#000000;stroke-width:0.8;" x="120.478495" xlink:href="#m97154877b5" y="307.584"/>
      </g>
     </g>
     <g id="text_2">
      <!-- 125 -->
      <g transform="translate(110.934745 322.182437)scale(0.1 -0.1)">
       <defs>
        <path d="M 19.1875 8.296875 
L 53.609375 8.296875 
L 53.609375 0 
L 7.328125 0 
L 7.328125 8.296875 
Q 12.9375 14.109375 22.625 23.890625 
Q 32.328125 33.6875 34.8125 36.53125 
Q 39.546875 41.84375 41.421875 45.53125 
Q 43.3125 49.21875 43.3125 52.78125 
Q 43.3125 58.59375 39.234375 62.25 
Q 35.15625 65.921875 28.609375 65.921875 
Q 23.96875 65.921875 18.8125 64.3125 
Q 13.671875 62.703125 7.8125 59.421875 
L 7.8125 69.390625 
Q 13.765625 71.78125 18.9375 73 
Q 24.125 74.21875 28.421875 74.21875 
Q 39.75 74.21875 46.484375 68.546875 
Q 53.21875 62.890625 53.21875 53.421875 
Q 53.21875 48.921875 51.53125 44.890625 
Q 49.859375 40.875 45.40625 35.40625 
Q 44.1875 33.984375 37.640625 27.21875 
Q 31.109375 20.453125 19.1875 8.296875 
z
" id="DejaVuSans-50"/>
        <path d="M 10.796875 72.90625 
L 49.515625 72.90625 
L 49.515625 64.59375 
L 19.828125 64.59375 
L 19.828125 46.734375 
Q 21.96875 47.46875 24.109375 47.828125 
Q 26.265625 48.1875 28.421875 48.1875 
Q 40.625 48.1875 47.75 41.5 
Q 54.890625 34.8125 54.890625 23.390625 
Q 54.890625 11.625 47.5625 5.09375 
Q 40.234375 -1.421875 26.90625 -1.421875 
Q 22.3125 -1.421875 17.546875 -0.640625 
Q 12.796875 0.140625 7.71875 1.703125 
L 7.71875 11.625 
Q 12.109375 9.234375 16.796875 8.0625 
Q 21.484375 6.890625 26.703125 6.890625 
Q 35.15625 6.890625 40.078125 11.328125 
Q 45.015625 15.765625 45.015625 23.390625 
Q 45.015625 31 40.078125 35.4375 
Q 35.15625 39.890625 26.703125 39.890625 
Q 22.75 39.890625 18.8125 39.015625 
Q 14.890625 38.140625 10.796875 36.28125 
z
" id="DejaVuSans-53"/>
       </defs>
       <use xlink:href="#DejaVuSans-49"/>
       <use x="63.623047" xlink:href="#DejaVuSans-50"/>
       <use x="127.246094" xlink:href="#DejaVuSans-53"/>
      </g>
     </g>
    </g>
    <g id="xtick_3">
     <g id="line2d_3">
      <g>
       <use style="stroke:#000000;stroke-width:0.8;" x="167.124263" xlink:href="#m97154877b5" y="307.584"/>
      </g>
     </g>
     <g id="text_3">
      <!-- 150 -->
      <g transform="translate(157.580513 322.182437)scale(0.1 -0.1)">
       <use xlink:href="#DejaVuSans-49"/>
       <use x="63.623047" xlink:href="#DejaVuSans-53"/>
       <use x="127.246094" xlink:href="#DejaVuSans-48"/>
      </g>
     </g>
    </g>
    <g id="xtick_4">
     <g id="line2d_4">
      <g>
       <use style="stroke:#000000;stroke-width:0.8;" x="213.770031" xlink:href="#m97154877b5" y="307.584"/>
      </g>
     </g>
     <g id="text_4">
      <!-- 175 -->
      <g transform="translate(204.226281 322.182437)scale(0.1 -0.1)">
       <defs>
        <path d="M 8.203125 72.90625 
L 55.078125 72.90625 
L 55.078125 68.703125 
L 28.609375 0 
L 18.3125 0 
L 43.21875 64.59375 
L 8.203125 64.59375 
z
" id="DejaVuSans-55"/>
       </defs>
       <use xlink:href="#DejaVuSans-49"/>
       <use x="63.623047" xlink:href="#DejaVuSans-55"/>
       <use x="127.246094" xlink:href="#DejaVuSans-53"/>
      </g>
     </g>
    </g>
    <g id="xtick_5">
     <g id="line2d_5">
      <g>
       <use style="stroke:#000000;stroke-width:0.8;" x="260.415799" xlink:href="#m97154877b5" y="307.584"/>
      </g>
     </g>
     <g id="text_5">
      <!-- 200 -->
      <g transform="translate(250.872049 322.182437)scale(0.1 -0.1)">
       <use xlink:href="#DejaVuSans-50"/>
       <use x="63.623047" xlink:href="#DejaVuSans-48"/>
       <use x="127.246094" xlink:href="#DejaVuSans-48"/>
      </g>
     </g>
    </g>
    <g id="xtick_6">
     <g id="line2d_6">
      <g>
       <use style="stroke:#000000;stroke-width:0.8;" x="307.061567" xlink:href="#m97154877b5" y="307.584"/>
      </g>
     </g>
     <g id="text_6">
      <!-- 225 -->
      <g transform="translate(297.517817 322.182437)scale(0.1 -0.1)">
       <use xlink:href="#DejaVuSans-50"/>
       <use x="63.623047" xlink:href="#DejaVuSans-50"/>
       <use x="127.246094" xlink:href="#DejaVuSans-53"/>
      </g>
     </g>
    </g>
    <g id="xtick_7">
     <g id="line2d_7">
      <g>
       <use style="stroke:#000000;stroke-width:0.8;" x="353.707335" xlink:href="#m97154877b5" y="307.584"/>
      </g>
     </g>
     <g id="text_7">
      <!-- 250 -->
      <g transform="translate(344.163585 322.182437)scale(0.1 -0.1)">
       <use xlink:href="#DejaVuSans-50"/>
       <use x="63.623047" xlink:href="#DejaVuSans-53"/>
       <use x="127.246094" xlink:href="#DejaVuSans-48"/>
      </g>
     </g>
    </g>
    <g id="xtick_8">
     <g id="line2d_8">
      <g>
       <use style="stroke:#000000;stroke-width:0.8;" x="400.353103" xlink:href="#m97154877b5" y="307.584"/>
      </g>
     </g>
     <g id="text_8">
      <!-- 275 -->
      <g transform="translate(390.809353 322.182437)scale(0.1 -0.1)">
       <use xlink:href="#DejaVuSans-50"/>
       <use x="63.623047" xlink:href="#DejaVuSans-55"/>
       <use x="127.246094" xlink:href="#DejaVuSans-53"/>
      </g>
     </g>
    </g>
    <g id="text_9">
     <!-- radius(nm) -->
     <g transform="translate(208.763125 335.860562)scale(0.1 -0.1)">
      <defs>
       <path d="M 41.109375 46.296875 
Q 39.59375 47.171875 37.8125 47.578125 
Q 36.03125 48 33.890625 48 
Q 26.265625 48 22.1875 43.046875 
Q 18.109375 38.09375 18.109375 28.8125 
L 18.109375 0 
L 9.078125 0 
L 9.078125 54.6875 
L 18.109375 54.6875 
L 18.109375 46.1875 
Q 20.953125 51.171875 25.484375 53.578125 
Q 30.03125 56 36.53125 56 
Q 37.453125 56 38.578125 55.875 
Q 39.703125 55.765625 41.0625 55.515625 
z
" id="DejaVuSans-114"/>
       <path d="M 34.28125 27.484375 
Q 23.390625 27.484375 19.1875 25 
Q 14.984375 22.515625 14.984375 16.5 
Q 14.984375 11.71875 18.140625 8.90625 
Q 21.296875 6.109375 26.703125 6.109375 
Q 34.1875 6.109375 38.703125 11.40625 
Q 43.21875 16.703125 43.21875 25.484375 
L 43.21875 27.484375 
z
M 52.203125 31.203125 
L 52.203125 0 
L 43.21875 0 
L 43.21875 8.296875 
Q 40.140625 3.328125 35.546875 0.953125 
Q 30.953125 -1.421875 24.3125 -1.421875 
Q 15.921875 -1.421875 10.953125 3.296875 
Q 6 8.015625 6 15.921875 
Q 6 25.140625 12.171875 29.828125 
Q 18.359375 34.515625 30.609375 34.515625 
L 43.21875 34.515625 
L 43.21875 35.40625 
Q 43.21875 41.609375 39.140625 45 
Q 35.0625 48.390625 27.6875 48.390625 
Q 23 48.390625 18.546875 47.265625 
Q 14.109375 46.140625 10.015625 43.890625 
L 10.015625 52.203125 
Q 14.9375 54.109375 19.578125 55.046875 
Q 24.21875 56 28.609375 56 
Q 40.484375 56 46.34375 49.84375 
Q 52.203125 43.703125 52.203125 31.203125 
z
" id="DejaVuSans-97"/>
       <path d="M 45.40625 46.390625 
L 45.40625 75.984375 
L 54.390625 75.984375 
L 54.390625 0 
L 45.40625 0 
L 45.40625 8.203125 
Q 42.578125 3.328125 38.25 0.953125 
Q 33.9375 -1.421875 27.875 -1.421875 
Q 17.96875 -1.421875 11.734375 6.484375 
Q 5.515625 14.40625 5.515625 27.296875 
Q 5.515625 40.1875 11.734375 48.09375 
Q 17.96875 56 27.875 56 
Q 33.9375 56 38.25 53.625 
Q 42.578125 51.265625 45.40625 46.390625 
z
M 14.796875 27.296875 
Q 14.796875 17.390625 18.875 11.75 
Q 22.953125 6.109375 30.078125 6.109375 
Q 37.203125 6.109375 41.296875 11.75 
Q 45.40625 17.390625 45.40625 27.296875 
Q 45.40625 37.203125 41.296875 42.84375 
Q 37.203125 48.484375 30.078125 48.484375 
Q 22.953125 48.484375 18.875 42.84375 
Q 14.796875 37.203125 14.796875 27.296875 
z
" id="DejaVuSans-100"/>
       <path d="M 9.421875 54.6875 
L 18.40625 54.6875 
L 18.40625 0 
L 9.421875 0 
z
M 9.421875 75.984375 
L 18.40625 75.984375 
L 18.40625 64.59375 
L 9.421875 64.59375 
z
" id="DejaVuSans-105"/>
       <path d="M 8.5 21.578125 
L 8.5 54.6875 
L 17.484375 54.6875 
L 17.484375 21.921875 
Q 17.484375 14.15625 20.5 10.265625 
Q 23.53125 6.390625 29.59375 6.390625 
Q 36.859375 6.390625 41.078125 11.03125 
Q 45.3125 15.671875 45.3125 23.6875 
L 45.3125 54.6875 
L 54.296875 54.6875 
L 54.296875 0 
L 45.3125 0 
L 45.3125 8.40625 
Q 42.046875 3.421875 37.71875 1 
Q 33.40625 -1.421875 27.6875 -1.421875 
Q 18.265625 -1.421875 13.375 4.4375 
Q 8.5 10.296875 8.5 21.578125 
z
M 31.109375 56 
z
" id="DejaVuSans-117"/>
       <path d="M 44.28125 53.078125 
L 44.28125 44.578125 
Q 40.484375 46.53125 36.375 47.5 
Q 32.28125 48.484375 27.875 48.484375 
Q 21.1875 48.484375 17.84375 46.4375 
Q 14.5 44.390625 14.5 40.28125 
Q 14.5 37.15625 16.890625 35.375 
Q 19.28125 33.59375 26.515625 31.984375 
L 29.59375 31.296875 
Q 39.15625 29.25 43.1875 25.515625 
Q 47.21875 21.78125 47.21875 15.09375 
Q 47.21875 7.46875 41.1875 3.015625 
Q 35.15625 -1.421875 24.609375 -1.421875 
Q 20.21875 -1.421875 15.453125 -0.5625 
Q 10.6875 0.296875 5.421875 2 
L 5.421875 11.28125 
Q 10.40625 8.6875 15.234375 7.390625 
Q 20.0625 6.109375 24.8125 6.109375 
Q 31.15625 6.109375 34.5625 8.28125 
Q 37.984375 10.453125 37.984375 14.40625 
Q 37.984375 18.0625 35.515625 20.015625 
Q 33.0625 21.96875 24.703125 23.78125 
L 21.578125 24.515625 
Q 13.234375 26.265625 9.515625 29.90625 
Q 5.8125 33.546875 5.8125 39.890625 
Q 5.8125 47.609375 11.28125 51.796875 
Q 16.75 56 26.8125 56 
Q 31.78125 56 36.171875 55.265625 
Q 40.578125 54.546875 44.28125 53.078125 
z
" id="DejaVuSans-115"/>
       <path d="M 31 75.875 
Q 24.46875 64.65625 21.28125 53.65625 
Q 18.109375 42.671875 18.109375 31.390625 
Q 18.109375 20.125 21.3125 9.0625 
Q 24.515625 -2 31 -13.1875 
L 23.1875 -13.1875 
Q 15.875 -1.703125 12.234375 9.375 
Q 8.59375 20.453125 8.59375 31.390625 
Q 8.59375 42.28125 12.203125 53.3125 
Q 15.828125 64.359375 23.1875 75.875 
z
" id="DejaVuSans-40"/>
       <path d="M 54.890625 33.015625 
L 54.890625 0 
L 45.90625 0 
L 45.90625 32.71875 
Q 45.90625 40.484375 42.875 44.328125 
Q 39.84375 48.1875 33.796875 48.1875 
Q 26.515625 48.1875 22.3125 43.546875 
Q 18.109375 38.921875 18.109375 30.90625 
L 18.109375 0 
L 9.078125 0 
L 9.078125 54.6875 
L 18.109375 54.6875 
L 18.109375 46.1875 
Q 21.34375 51.125 25.703125 53.5625 
Q 30.078125 56 35.796875 56 
Q 45.21875 56 50.046875 50.171875 
Q 54.890625 44.34375 54.890625 33.015625 
z
" id="DejaVuSans-110"/>
       <path d="M 52 44.1875 
Q 55.375 50.25 60.0625 53.125 
Q 64.75 56 71.09375 56 
Q 79.640625 56 84.28125 50.015625 
Q 88.921875 44.046875 88.921875 33.015625 
L 88.921875 0 
L 79.890625 0 
L 79.890625 32.71875 
Q 79.890625 40.578125 77.09375 44.375 
Q 74.3125 48.1875 68.609375 48.1875 
Q 61.625 48.1875 57.5625 43.546875 
Q 53.515625 38.921875 53.515625 30.90625 
L 53.515625 0 
L 44.484375 0 
L 44.484375 32.71875 
Q 44.484375 40.625 41.703125 44.40625 
Q 38.921875 48.1875 33.109375 48.1875 
Q 26.21875 48.1875 22.15625 43.53125 
Q 18.109375 38.875 18.109375 30.90625 
L 18.109375 0 
L 9.078125 0 
L 9.078125 54.6875 
L 18.109375 54.6875 
L 18.109375 46.1875 
Q 21.1875 51.21875 25.484375 53.609375 
Q 29.78125 56 35.6875 56 
Q 41.65625 56 45.828125 52.96875 
Q 50 49.953125 52 44.1875 
z
" id="DejaVuSans-109"/>
       <path d="M 8.015625 75.875 
L 15.828125 75.875 
Q 23.140625 64.359375 26.78125 53.3125 
Q 30.421875 42.28125 30.421875 31.390625 
Q 30.421875 20.453125 26.78125 9.375 
Q 23.140625 -1.703125 15.828125 -13.1875 
L 8.015625 -13.1875 
Q 14.5 -2 17.703125 9.0625 
Q 20.90625 20.125 20.90625 31.390625 
Q 20.90625 42.671875 17.703125 53.65625 
Q 14.5 64.65625 8.015625 75.875 
z
" id="DejaVuSans-41"/>
      </defs>
      <use xlink:href="#DejaVuSans-114"/>
      <use x="41.113281" xlink:href="#DejaVuSans-97"/>
      <use x="102.392578" xlink:href="#DejaVuSans-100"/>
      <use x="165.869141" xlink:href="#DejaVuSans-105"/>
      <use x="193.652344" xlink:href="#DejaVuSans-117"/>
      <use x="257.03125" xlink:href="#DejaVuSans-115"/>
      <use x="309.130859" xlink:href="#DejaVuSans-40"/>
      <use x="348.144531" xlink:href="#DejaVuSans-110"/>
      <use x="411.523438" xlink:href="#DejaVuSans-109"/>
      <use x="508.935547" xlink:href="#DejaVuSans-41"/>
     </g>
    </g>
   </g>
   <g id="matplotlib.axis_2">
    <g id="ytick_1">
     <g id="line2d_9">
      <defs>
       <path d="M 0 0 
L -3.5 0 
" id="me2eaf82103" style="stroke:#000000;stroke-width:0.8;"/>
      </defs>
      <g>
       <use style="stroke:#000000;stroke-width:0.8;" x="57.6" xlink:href="#me2eaf82103" y="304.622835"/>
      </g>
     </g>
     <g id="text_10">
      <!-- −20 -->
      <g transform="translate(29.495313 308.422053)scale(0.1 -0.1)">
       <defs>
        <path d="M 10.59375 35.5 
L 73.1875 35.5 
L 73.1875 27.203125 
L 10.59375 27.203125 
z
" id="DejaVuSans-8722"/>
       </defs>
       <use xlink:href="#DejaVuSans-8722"/>
       <use x="83.789062" xlink:href="#DejaVuSans-50"/>
       <use x="147.412109" xlink:href="#DejaVuSans-48"/>
      </g>
     </g>
    </g>
    <g id="ytick_2">
     <g id="line2d_10">
      <g>
       <use style="stroke:#000000;stroke-width:0.8;" x="57.6" xlink:href="#me2eaf82103" y="261.285137"/>
      </g>
     </g>
     <g id="text_11">
      <!-- −15 -->
      <g transform="translate(29.495313 265.084355)scale(0.1 -0.1)">
       <use xlink:href="#DejaVuSans-8722"/>
       <use x="83.789062" xlink:href="#DejaVuSans-49"/>
       <use x="147.412109" xlink:href="#DejaVuSans-53"/>
      </g>
     </g>
    </g>
    <g id="ytick_3">
     <g id="line2d_11">
      <g>
       <use style="stroke:#000000;stroke-width:0.8;" x="57.6" xlink:href="#me2eaf82103" y="217.947439"/>
      </g>
     </g>
     <g id="text_12">
      <!-- −10 -->
      <g transform="translate(29.495313 221.746657)scale(0.1 -0.1)">
       <use xlink:href="#DejaVuSans-8722"/>
       <use x="83.789062" xlink:href="#DejaVuSans-49"/>
       <use x="147.412109" xlink:href="#DejaVuSans-48"/>
      </g>
     </g>
    </g>
    <g id="ytick_4">
     <g id="line2d_12">
      <g>
       <use style="stroke:#000000;stroke-width:0.8;" x="57.6" xlink:href="#me2eaf82103" y="174.609741"/>
      </g>
     </g>
     <g id="text_13">
      <!-- −5 -->
      <g transform="translate(35.857813 178.408959)scale(0.1 -0.1)">
       <use xlink:href="#DejaVuSans-8722"/>
       <use x="83.789062" xlink:href="#DejaVuSans-53"/>
      </g>
     </g>
    </g>
    <g id="ytick_5">
     <g id="line2d_13">
      <g>
       <use style="stroke:#000000;stroke-width:0.8;" x="57.6" xlink:href="#me2eaf82103" y="131.272043"/>
      </g>
     </g>
     <g id="text_14">
      <!-- 0 -->
      <g transform="translate(44.2375 135.071261)scale(0.1 -0.1)">
       <use xlink:href="#DejaVuSans-48"/>
      </g>
     </g>
    </g>
    <g id="ytick_6">
     <g id="line2d_14">
      <g>
       <use style="stroke:#000000;stroke-width:0.8;" x="57.6" xlink:href="#me2eaf82103" y="87.934345"/>
      </g>
     </g>
     <g id="text_15">
      <!-- 5 -->
      <g transform="translate(44.2375 91.733563)scale(0.1 -0.1)">
       <use xlink:href="#DejaVuSans-53"/>
      </g>
     </g>
    </g>
    <g id="ytick_7">
     <g id="line2d_15">
      <g>
       <use style="stroke:#000000;stroke-width:0.8;" x="57.6" xlink:href="#me2eaf82103" y="44.596646"/>
      </g>
     </g>
     <g id="text_16">
      <!-- 10 -->
      <g transform="translate(37.875 48.395865)scale(0.1 -0.1)">
       <use xlink:href="#DejaVuSans-49"/>
       <use x="63.623047" xlink:href="#DejaVuSans-48"/>
      </g>
     </g>
    </g>
   </g>
   <g id="line2d_16">
    <path clip-path="url(#p6bccd737b4)" d="M 73.832727 131.329562 
L 178.319248 131.355209 
L 226.830846 131.52339 
L 269.744953 131.367 
L 275.342445 131.462013 
L 277.208276 131.558336 
L 279.074107 131.770715 
L 280.939937 132.363957 
L 282.805768 134.9077 
L 284.671599 146.135426 
L 286.537429 133.771885 
L 288.40326 132.219889 
L 290.269091 131.77584 
L 294.000752 131.506 
L 301.464075 131.395759 
L 323.854044 131.413702 
L 391.02395 131.57257 
L 396.621442 131.309475 
L 398.487273 133.447189 
L 398.487273 133.447189 
" style="fill:none;stroke:#1f77b4;stroke-linecap:square;stroke-width:2;"/>
   </g>
   <g id="line2d_17">
    <path clip-path="url(#p6bccd737b4)" d="M 73.832727 131.328971 
L 182.050909 131.354777 
L 208.172539 131.385868 
L 232.428339 131.308862 
L 243.623323 131.525855 
L 251.086646 131.831477 
L 256.684138 132.262966 
L 260.415799 132.784186 
L 262.28163 133.187705 
L 264.147461 133.759321 
L 266.013292 134.608377 
L 267.879122 135.947591 
L 269.744953 138.251102 
L 271.610784 142.970407 
L 273.476614 166.903555 
L 275.342445 142.028011 
L 277.208276 137.327571 
L 279.074107 134.981472 
L 280.939937 133.654329 
L 282.805768 132.860028 
L 284.671599 132.364715 
L 288.40326 131.832381 
L 292.134922 131.587345 
L 299.598245 131.407914 
L 314.52489 131.384712 
L 349.975674 131.62231 
L 377.963135 131.985588 
L 385.426458 132.257171 
L 387.292288 132.419969 
L 389.158119 132.794402 
L 391.02395 135.528485 
L 392.889781 131.296628 
L 394.755611 131.588663 
L 396.621442 131.401034 
L 398.487273 147.591749 
L 398.487273 147.591749 
" style="fill:none;stroke:#ff7f0e;stroke-linecap:square;stroke-width:2;"/>
   </g>
   <g id="line2d_18">
    <path clip-path="url(#p6bccd737b4)" d="M 73.832727 131.325879 
L 187.648401 131.384806 
L 191.380063 131.577898 
L 193.245893 131.791156 
L 195.111724 132.146133 
L 196.977555 132.704768 
L 198.843386 133.519761 
L 200.709216 134.605122 
L 204.440878 137.363508 
L 208.172539 140.208659 
L 210.03837 141.408919 
L 211.904201 142.372115 
L 213.770031 143.074932 
L 215.635862 143.529061 
L 217.501693 143.772646 
L 221.233354 143.836201 
L 230.562508 143.493466 
L 234.294169 143.679185 
L 236.16 143.907107 
L 238.025831 144.251126 
L 239.891661 144.739499 
L 241.757492 145.413975 
L 243.623323 146.340845 
L 245.489154 147.635091 
L 247.354984 149.523371 
L 249.220815 152.560053 
L 251.086646 158.927916 
L 252.952476 164.006755 
L 254.818307 152.984236 
L 256.684138 148.345157 
L 258.549969 145.276195 
L 260.415799 142.954882 
L 262.28163 141.08581 
L 264.147461 139.530465 
L 266.013292 138.21353 
L 267.879122 137.089537 
L 269.744953 136.128366 
L 271.610784 135.308081 
L 275.342445 134.022442 
L 279.074107 133.116081 
L 282.805768 132.492121 
L 286.537429 132.07075 
L 292.134922 131.688274 
L 299.598245 131.443698 
L 310.793229 131.328181 
L 336.914859 131.357787 
L 376.097304 131.353682 
L 391.02395 131.283218 
L 392.889781 138.288026 
L 394.755611 131.299268 
L 398.487273 131.36312 
L 398.487273 131.36312 
" style="fill:none;stroke:#2ca02c;stroke-linecap:square;stroke-width:2;"/>
   </g>
   <g id="line2d_19">
    <path clip-path="url(#p6bccd737b4)" d="M 73.832727 131.395266 
L 168.990094 131.284942 
L 170.855925 132.010224 
L 172.721755 132.319933 
L 174.587586 131.701623 
L 178.319248 131.629654 
L 185.782571 131.861751 
L 191.380063 132.243268 
L 196.977555 132.896062 
L 200.709216 133.551082 
L 204.440878 134.440535 
L 208.172539 135.615659 
L 211.904201 137.122278 
L 215.635862 138.99921 
L 219.367524 141.283223 
L 223.099185 144.016127 
L 226.830846 147.235936 
L 230.562508 150.890564 
L 232.428339 152.762161 
L 234.294169 154.476339 
L 236.16 155.768385 
L 238.025831 156.328866 
L 239.891661 155.987938 
L 241.757492 154.85867 
L 243.623323 153.238772 
L 249.220815 147.785163 
L 252.952476 144.573745 
L 256.684138 141.852836 
L 260.415799 139.583768 
L 264.147461 137.718279 
L 267.879122 136.213007 
L 271.610784 135.025293 
L 275.342445 134.109359 
L 279.074107 133.417057 
L 284.671599 132.697015 
L 290.269091 132.242699 
L 297.732414 131.888607 
L 308.927398 131.641286 
L 323.854044 131.55419 
L 338.78069 131.652215 
L 348.109843 131.886993 
L 353.707335 132.186133 
L 357.438997 132.520527 
L 361.170658 133.050762 
L 363.036489 133.43342 
L 364.90232 133.934464 
L 366.76815 134.603356 
L 368.633981 135.519065 
L 370.499812 136.817735 
L 372.365643 138.765602 
L 374.231473 142.018266 
L 376.097304 149.369637 
L 377.963135 151.203237 
L 379.828966 141.135761 
L 381.694796 137.319789 
L 383.560627 134.856835 
L 385.426458 133.19546 
L 387.292288 132.10288 
L 389.158119 131.482519 
L 391.02395 131.30167 
L 392.889781 131.553278 
L 394.755611 132.228818 
L 396.621442 133.306257 
L 398.487273 134.758368 
L 398.487273 134.758368 
" style="fill:none;stroke:#d62728;stroke-linecap:square;stroke-width:2;"/>
   </g>
   <g id="line2d_20">
    <path clip-path="url(#p6bccd737b4)" d="M 73.832727 133.021975 
L 129.807649 133.078503 
L 137.270972 133.355616 
L 146.600125 133.979123 
L 148.465956 133.910003 
L 150.331787 133.569845 
L 155.929279 131.850881 
L 157.79511 131.565334 
L 161.526771 131.38265 
L 167.124263 131.45566 
L 178.319248 131.856247 
L 183.91674 132.215252 
L 187.648401 132.593488 
L 191.380063 133.167759 
L 195.111724 134.056355 
L 196.977555 134.670122 
L 198.843386 135.432206 
L 200.709216 136.375039 
L 202.575047 137.53803 
L 204.440878 138.972759 
L 206.306708 140.75495 
L 208.172539 143.011719 
L 210.03837 145.985915 
L 211.904201 150.167391 
L 213.770031 155.253787 
L 215.635862 153.049817 
L 217.501693 149.191416 
L 219.367524 146.743271 
L 221.233354 145.122078 
L 223.099185 143.992777 
L 224.965016 143.184753 
L 226.830846 142.602649 
L 228.696677 142.188689 
L 232.428339 141.728637 
L 236.16 141.627088 
L 239.891661 141.791151 
L 243.623323 142.155919 
L 252.952476 143.29568 
L 254.818307 143.377517 
L 256.684138 143.341315 
L 258.549969 143.170994 
L 262.28163 142.455316 
L 267.879122 140.859577 
L 273.476614 139.26686 
L 277.208276 138.374099 
L 280.939937 137.64312 
L 286.537429 136.831539 
L 292.134922 136.307946 
L 297.732414 136.007279 
L 305.195737 135.856138 
L 314.52489 135.923771 
L 344.378182 136.398156 
L 351.841505 136.240915 
L 359.304828 135.893667 
L 366.76815 135.353148 
L 372.365643 134.838628 
L 374.231473 135.517225 
L 376.097304 134.286456 
L 379.828966 133.787747 
L 389.158119 132.312546 
L 391.02395 132.434743 
L 392.889781 133.16644 
L 394.755611 134.661139 
L 398.487273 138.488381 
L 398.487273 138.488381 
" style="fill:none;stroke:#9467bd;stroke-linecap:square;stroke-width:2;"/>
   </g>
   <g id="line2d_21">
    <path clip-path="url(#p6bccd737b4)" d="M 73.832727 277.350845 
L 75.698558 281.989198 
L 77.564389 283.690589 
L 79.430219 276.448285 
L 81.29605 286.24534 
L 83.161881 274.999811 
L 85.027712 278.243603 
L 86.893542 284.005834 
L 88.759373 277.681053 
L 90.625204 275.160202 
L 92.491034 276.324149 
L 94.356865 278.255246 
L 96.222696 274.470294 
L 98.088527 277.720695 
L 99.954357 282.332336 
L 101.820188 278.263289 
L 103.686019 280.011736 
L 105.55185 281.577155 
L 107.41768 278.726991 
L 109.283511 285.253153 
L 111.149342 284.697011 
L 113.015172 278.256872 
L 114.881003 273.123453 
L 116.746834 282.290445 
L 118.612665 287.422005 
L 120.478495 278.078844 
L 122.344326 289.794754 
L 124.210157 286.897154 
L 126.075987 274.756383 
L 127.941818 271.788502 
L 129.807649 274.087911 
L 131.67348 279.368031 
L 133.53931 282.985592 
L 135.405141 285.468995 
L 137.270972 279.662786 
L 139.136803 274.623392 
L 141.002633 274.956785 
L 142.868464 275.969268 
L 144.734295 287.213552 
L 146.600125 274.782262 
L 148.465956 271.875112 
L 150.331787 285.035459 
L 152.197618 269.251031 
L 154.063448 282.189734 
L 155.929279 293.806792 
L 159.66094 270.941725 
L 161.526771 271.975633 
L 163.392602 278.755022 
L 165.258433 271.985654 
L 167.124263 272.167312 
L 168.990094 272.748699 
L 170.855925 277.045927 
L 172.721755 282.087596 
L 174.587586 295.488 
L 176.453417 291.58074 
L 178.319248 286.160607 
L 180.185078 272.469028 
L 182.050909 282.315691 
L 183.91674 273.854437 
L 185.782571 281.793499 
L 187.648401 286.702136 
L 189.514232 273.474063 
L 191.380063 276.260018 
L 193.245893 273.442073 
L 195.111724 278.532693 
L 196.977555 270.861681 
L 198.843386 291.000476 
L 200.709216 269.38083 
L 202.575047 284.289579 
L 204.440878 286.487658 
L 206.306708 271.492121 
L 208.172539 282.471826 
L 210.03837 284.134558 
L 211.904201 271.115293 
L 213.770031 272.129911 
L 215.635862 271.097436 
L 217.501693 271.604899 
L 219.367524 286.751504 
L 221.233354 269.810305 
L 223.099185 274.610286 
L 224.965016 285.464579 
L 226.830846 274.121689 
L 228.696677 272.837197 
L 230.562508 277.468328 
L 232.428339 274.270276 
L 234.294169 279.114036 
L 236.16 276.574808 
L 238.025831 288.647052 
L 239.891661 281.447531 
L 241.757492 280.480618 
L 243.623323 276.398361 
L 245.489154 280.439747 
L 247.354984 273.417988 
L 249.220815 274.367253 
L 251.086646 276.486719 
L 252.952476 272.579509 
L 254.818307 271.445883 
L 256.684138 272.021393 
L 258.549969 268.898598 
L 260.415799 266.67636 
L 262.28163 278.825839 
L 264.147461 280.231886 
L 266.013292 276.415469 
L 267.879122 269.749961 
L 269.744953 290.317371 
L 271.610784 269.437854 
L 273.476614 268.700523 
L 275.342445 287.445272 
L 277.208276 268.785182 
L 279.074107 282.985592 
L 280.939937 276.560172 
L 282.805768 268.736543 
L 284.671599 269.482093 
L 286.537429 284.129912 
L 288.40326 280.056872 
L 290.269091 279.884621 
L 292.134922 272.465256 
L 294.000752 289.822742 
L 295.866583 271.769188 
L 297.732414 278.061669 
L 299.598245 271.718927 
L 301.464075 281.796828 
L 303.329906 288.315238 
L 305.195737 279.318126 
L 307.061567 281.266385 
L 308.927398 277.577902 
L 310.793229 276.63213 
L 312.65906 280.763376 
L 316.390721 279.270151 
L 318.256552 276.271514 
L 320.122382 276.627486 
L 321.988213 276.580532 
L 323.854044 288.459113 
L 325.719875 276.43566 
L 327.585705 276.062841 
L 329.451536 277.715182 
L 331.317367 277.409064 
L 333.183197 282.789771 
L 335.049028 277.131882 
L 336.914859 278.108269 
L 338.78069 283.068733 
L 340.64652 277.474531 
L 342.512351 274.187409 
L 344.378182 274.411248 
L 346.244013 274.075683 
L 348.109843 271.723281 
L 349.975674 273.976554 
L 351.841505 274.188071 
L 353.707335 281.810177 
L 355.573166 293.073557 
L 357.438997 286.487658 
L 359.304828 274.591817 
L 361.170658 273.909156 
L 363.036489 287.636782 
L 364.90232 274.142015 
L 366.76815 274.465014 
L 368.633981 283.054748 
L 370.499812 274.359855 
L 372.365643 282.363791 
L 374.231473 274.122448 
L 376.097304 274.049326 
L 377.963135 279.97489 
L 379.828966 268.865989 
L 381.694796 276.884543 
L 383.560627 270.892262 
L 385.426458 270.154066 
L 387.292288 283.280048 
L 389.158119 273.879969 
L 391.02395 285.035459 
L 392.889781 272.109908 
L 394.755611 274.450908 
L 396.621442 274.811314 
L 398.487273 285.379495 
L 398.487273 285.379495 
" style="fill:none;stroke:#8c564b;stroke-linecap:square;stroke-width:2;"/>
   </g>
   <g id="line2d_22">
    <path clip-path="url(#p6bccd737b4)" d="M 73.832727 137.597316 
L 99.954357 136.209727 
L 118.612665 135.007224 
L 131.67348 133.946738 
L 139.136803 133.406 
L 141.002633 133.38096 
L 142.868464 133.47609 
L 144.734295 133.765047 
L 146.600125 134.342639 
L 148.465956 135.309086 
L 150.331787 136.74652 
L 152.197618 138.714306 
L 154.063448 141.289987 
L 155.929279 144.662851 
L 159.66094 153.798382 
L 161.526771 151.248321 
L 163.392602 147.957666 
L 165.258433 145.835636 
L 167.124263 144.403931 
L 168.990094 143.378637 
L 170.855925 142.608959 
L 174.587586 141.516087 
L 180.185078 140.345504 
L 185.782571 139.10507 
L 189.514232 138.049805 
L 200.709216 134.527764 
L 204.440878 133.679847 
L 208.172539 133.08931 
L 211.904201 132.717292 
L 217.501693 132.440161 
L 224.965016 132.347527 
L 239.891661 132.467173 
L 252.952476 132.74037 
L 262.28163 133.138853 
L 271.610784 133.794427 
L 295.866583 135.744605 
L 305.195737 136.125171 
L 316.390721 136.30468 
L 329.451536 136.27265 
L 348.109843 135.974218 
L 372.365643 135.386902 
L 374.231473 135.924371 
L 376.097304 135.687424 
L 379.828966 135.879775 
L 381.694796 136.132845 
L 383.560627 136.566697 
L 385.426458 137.31824 
L 387.292288 138.676332 
L 389.158119 141.337665 
L 391.02395 147.621781 
L 392.889781 148.540952 
L 394.755611 141.156687 
L 396.621442 137.976577 
L 398.487273 136.294566 
L 398.487273 136.294566 
" style="fill:none;stroke:#e377c2;stroke-linecap:square;stroke-width:2;"/>
   </g>
   <g id="line2d_23">
    <path clip-path="url(#p6bccd737b4)" d="M 73.832727 139.371027 
L 127.941818 136.939073 
L 137.270972 136.213425 
L 142.868464 135.588016 
L 150.331787 134.677175 
L 152.197618 134.800427 
L 154.063448 135.557813 
L 155.929279 137.411847 
L 157.79511 140.690117 
L 159.66094 145.852112 
L 161.526771 155.767092 
L 163.392602 153.187537 
L 165.258433 147.743046 
L 167.124263 145.20773 
L 168.990094 143.683265 
L 170.855925 142.642106 
L 172.721755 141.869072 
L 176.453417 140.743261 
L 182.050909 139.466421 
L 189.514232 137.750093 
L 196.977555 135.701752 
L 202.575047 134.18705 
L 206.306708 133.364842 
L 210.03837 132.757995 
L 213.770031 132.35823 
L 219.367524 132.042462 
L 226.830846 131.893626 
L 243.623323 131.856331 
L 254.818307 132.023962 
L 262.28163 132.321782 
L 269.744953 132.805849 
L 295.866583 134.801303 
L 303.329906 134.994141 
L 310.793229 134.975979 
L 321.988213 134.707425 
L 346.244013 134.060125 
L 357.438997 133.994004 
L 368.633981 134.160089 
L 374.231473 134.243685 
L 376.097304 134.767891 
L 377.963135 134.802008 
L 381.694796 135.296006 
L 383.560627 135.737541 
L 385.426458 136.42481 
L 387.292288 137.579393 
L 389.158119 139.751439 
L 391.02395 144.781834 
L 392.889781 150.493051 
L 394.755611 140.650044 
L 396.621442 137.031169 
L 398.487273 135.367189 
L 398.487273 135.367189 
" style="fill:none;stroke:#7f7f7f;stroke-linecap:square;stroke-width:2;"/>
   </g>
   <g id="line2d_24">
    <path clip-path="url(#p6bccd737b4)" d="M 73.832727 143.156198 
L 101.820188 141.880521 
L 127.941818 140.640513 
L 137.270972 140.010441 
L 142.868464 139.4698 
L 146.600125 138.963657 
L 150.331787 138.229789 
L 152.197618 137.717598 
L 154.063448 137.061439 
L 155.929279 136.264843 
L 157.79511 135.700964 
L 159.66094 137.214447 
L 161.526771 142.500469 
L 163.392602 149.633495 
L 165.258433 149.874698 
L 167.124263 147.042432 
L 168.990094 145.318999 
L 170.855925 144.222961 
L 172.721755 143.451909 
L 176.453417 142.379839 
L 182.050909 141.216268 
L 191.380063 139.332676 
L 200.709216 137.105276 
L 206.306708 135.846878 
L 210.03837 135.17019 
L 213.770031 134.654633 
L 219.367524 134.14773 
L 226.830846 133.786421 
L 238.025831 133.522574 
L 247.354984 133.470445 
L 254.818307 133.613349 
L 262.28163 133.994629 
L 269.744953 134.62361 
L 292.134922 136.813332 
L 297.732414 137.062498 
L 303.329906 137.104844 
L 308.927398 136.949593 
L 316.390721 136.497099 
L 327.585705 135.531222 
L 338.78069 134.595407 
L 346.244013 134.189391 
L 351.841505 134.065173 
L 357.438997 134.112752 
L 364.90232 134.433287 
L 372.365643 135.023264 
L 374.231473 135.195733 
L 376.097304 135.017308 
L 377.963135 135.937507 
L 379.828966 136.211698 
L 381.694796 136.624971 
L 383.560627 137.187686 
L 385.426458 137.987645 
L 387.292288 139.216543 
L 389.158119 141.33275 
L 391.02395 145.794892 
L 392.889781 155.871584 
L 394.755611 143.501686 
L 396.621442 139.065721 
L 398.487273 137.000328 
L 398.487273 137.000328 
" style="fill:none;stroke:#bcbd22;stroke-linecap:square;stroke-width:2;"/>
   </g>
   <g id="line2d_25">
    <path clip-path="url(#p6bccd737b4)" d="M 73.832727 68.235513 
L 90.625204 67.955533 
L 107.41768 67.8982 
L 122.344326 68.069109 
L 133.53931 68.41213 
L 141.002633 68.835155 
L 146.600125 69.355393 
L 150.331787 69.885436 
L 154.063448 70.695913 
L 155.929279 71.286684 
L 157.79511 72.090518 
L 159.66094 73.245096 
L 161.526771 75.009161 
L 163.392602 77.567377 
L 165.258433 76.929774 
L 167.124263 70.472331 
L 168.990094 63.580072 
L 170.855925 55.50661 
L 172.721755 53.568 
L 174.587586 57.656451 
L 176.453417 59.882438 
L 178.319248 61.18812 
L 180.185078 62.027383 
L 182.050909 62.593525 
L 183.91674 62.980963 
L 187.648401 63.403259 
L 191.380063 63.50501 
L 195.111724 63.381019 
L 200.709216 62.912943 
L 215.635862 61.402869 
L 223.099185 60.982237 
L 252.952476 59.701826 
L 271.610784 58.33125 
L 275.342445 58.381287 
L 279.074107 58.720123 
L 282.805768 59.352033 
L 288.40326 60.666716 
L 297.732414 62.954969 
L 303.329906 64.042006 
L 308.927398 64.84498 
L 314.52489 65.38795 
L 320.122382 65.718115 
L 327.585705 65.909486 
L 336.914859 65.868255 
L 346.244013 65.608237 
L 357.438997 65.068025 
L 368.633981 64.282652 
L 374.231473 63.756173 
L 376.097304 63.464506 
L 377.963135 63.58077 
L 387.292288 61.957055 
L 389.158119 61.202161 
L 391.02395 58.897294 
L 392.889781 67.892849 
L 394.755611 64.428547 
L 396.621442 63.310064 
L 398.487273 62.771536 
L 398.487273 62.771536 
" style="fill:none;stroke:#17becf;stroke-linecap:square;stroke-width:2;"/>
   </g>
   <g id="patch_3">
    <path d="M 57.6 307.584 
L 57.6 41.472 
" style="fill:none;stroke:#000000;stroke-linecap:square;stroke-linejoin:miter;stroke-width:0.8;"/>
   </g>
   <g id="patch_4">
    <path d="M 414.72 307.584 
L 414.72 41.472 
" style="fill:none;stroke:#000000;stroke-linecap:square;stroke-linejoin:miter;stroke-width:0.8;"/>
   </g>
   <g id="patch_5">
    <path d="M 57.6 307.584 
L 414.72 307.584 
" style="fill:none;stroke:#000000;stroke-linecap:square;stroke-linejoin:miter;stroke-width:0.8;"/>
   </g>
   <g id="patch_6">
    <path d="M 57.6 41.472 
L 414.72 41.472 
" style="fill:none;stroke:#000000;stroke-linecap:square;stroke-linejoin:miter;stroke-width:0.8;"/>
   </g>
   <g id="text_17">
    <!-- Transmission of different radius -->
    <g transform="translate(141.78375 35.472)scale(0.12 -0.12)">
     <defs>
      <path d="M -0.296875 72.90625 
L 61.375 72.90625 
L 61.375 64.59375 
L 35.5 64.59375 
L 35.5 0 
L 25.59375 0 
L 25.59375 64.59375 
L -0.296875 64.59375 
z
" id="DejaVuSans-84"/>
      <path d="M 30.609375 48.390625 
Q 23.390625 48.390625 19.1875 42.75 
Q 14.984375 37.109375 14.984375 27.296875 
Q 14.984375 17.484375 19.15625 11.84375 
Q 23.34375 6.203125 30.609375 6.203125 
Q 37.796875 6.203125 41.984375 11.859375 
Q 46.1875 17.53125 46.1875 27.296875 
Q 46.1875 37.015625 41.984375 42.703125 
Q 37.796875 48.390625 30.609375 48.390625 
z
M 30.609375 56 
Q 42.328125 56 49.015625 48.375 
Q 55.71875 40.765625 55.71875 27.296875 
Q 55.71875 13.875 49.015625 6.21875 
Q 42.328125 -1.421875 30.609375 -1.421875 
Q 18.84375 -1.421875 12.171875 6.21875 
Q 5.515625 13.875 5.515625 27.296875 
Q 5.515625 40.765625 12.171875 48.375 
Q 18.84375 56 30.609375 56 
z
" id="DejaVuSans-111"/>
      <path id="DejaVuSans-32"/>
      <path d="M 37.109375 75.984375 
L 37.109375 68.5 
L 28.515625 68.5 
Q 23.6875 68.5 21.796875 66.546875 
Q 19.921875 64.59375 19.921875 59.515625 
L 19.921875 54.6875 
L 34.71875 54.6875 
L 34.71875 47.703125 
L 19.921875 47.703125 
L 19.921875 0 
L 10.890625 0 
L 10.890625 47.703125 
L 2.296875 47.703125 
L 2.296875 54.6875 
L 10.890625 54.6875 
L 10.890625 58.5 
Q 10.890625 67.625 15.140625 71.796875 
Q 19.390625 75.984375 28.609375 75.984375 
z
" id="DejaVuSans-102"/>
      <path d="M 56.203125 29.59375 
L 56.203125 25.203125 
L 14.890625 25.203125 
Q 15.484375 15.921875 20.484375 11.0625 
Q 25.484375 6.203125 34.421875 6.203125 
Q 39.59375 6.203125 44.453125 7.46875 
Q 49.3125 8.734375 54.109375 11.28125 
L 54.109375 2.78125 
Q 49.265625 0.734375 44.1875 -0.34375 
Q 39.109375 -1.421875 33.890625 -1.421875 
Q 20.796875 -1.421875 13.15625 6.1875 
Q 5.515625 13.8125 5.515625 26.8125 
Q 5.515625 40.234375 12.765625 48.109375 
Q 20.015625 56 32.328125 56 
Q 43.359375 56 49.78125 48.890625 
Q 56.203125 41.796875 56.203125 29.59375 
z
M 47.21875 32.234375 
Q 47.125 39.59375 43.09375 43.984375 
Q 39.0625 48.390625 32.421875 48.390625 
Q 24.90625 48.390625 20.390625 44.140625 
Q 15.875 39.890625 15.1875 32.171875 
z
" id="DejaVuSans-101"/>
      <path d="M 18.3125 70.21875 
L 18.3125 54.6875 
L 36.8125 54.6875 
L 36.8125 47.703125 
L 18.3125 47.703125 
L 18.3125 18.015625 
Q 18.3125 11.328125 20.140625 9.421875 
Q 21.96875 7.515625 27.59375 7.515625 
L 36.8125 7.515625 
L 36.8125 0 
L 27.59375 0 
Q 17.1875 0 13.234375 3.875 
Q 9.28125 7.765625 9.28125 18.015625 
L 9.28125 47.703125 
L 2.6875 47.703125 
L 2.6875 54.6875 
L 9.28125 54.6875 
L 9.28125 70.21875 
z
" id="DejaVuSans-116"/>
     </defs>
     <use xlink:href="#DejaVuSans-84"/>
     <use x="46.333984" xlink:href="#DejaVuSans-114"/>
     <use x="87.447266" xlink:href="#DejaVuSans-97"/>
     <use x="148.726562" xlink:href="#DejaVuSans-110"/>
     <use x="212.105469" xlink:href="#DejaVuSans-115"/>
     <use x="264.205078" xlink:href="#DejaVuSans-109"/>
     <use x="361.617188" xlink:href="#DejaVuSans-105"/>
     <use x="389.400391" xlink:href="#DejaVuSans-115"/>
     <use x="441.5" xlink:href="#DejaVuSans-115"/>
     <use x="493.599609" xlink:href="#DejaVuSans-105"/>
     <use x="521.382812" xlink:href="#DejaVuSans-111"/>
     <use x="582.564453" xlink:href="#DejaVuSans-110"/>
     <use x="645.943359" xlink:href="#DejaVuSans-32"/>
     <use x="677.730469" xlink:href="#DejaVuSans-111"/>
     <use x="738.912109" xlink:href="#DejaVuSans-102"/>
     <use x="774.117188" xlink:href="#DejaVuSans-32"/>
     <use x="805.904297" xlink:href="#DejaVuSans-100"/>
     <use x="869.380859" xlink:href="#DejaVuSans-105"/>
     <use x="897.164062" xlink:href="#DejaVuSans-102"/>
     <use x="932.369141" xlink:href="#DejaVuSans-102"/>
     <use x="967.574219" xlink:href="#DejaVuSans-101"/>
     <use x="1029.097656" xlink:href="#DejaVuSans-114"/>
     <use x="1067.960938" xlink:href="#DejaVuSans-101"/>
     <use x="1129.484375" xlink:href="#DejaVuSans-110"/>
     <use x="1192.863281" xlink:href="#DejaVuSans-116"/>
     <use x="1232.072266" xlink:href="#DejaVuSans-32"/>
     <use x="1263.859375" xlink:href="#DejaVuSans-114"/>
     <use x="1304.972656" xlink:href="#DejaVuSans-97"/>
     <use x="1366.251953" xlink:href="#DejaVuSans-100"/>
     <use x="1429.728516" xlink:href="#DejaVuSans-105"/>
     <use x="1457.511719" xlink:href="#DejaVuSans-117"/>
     <use x="1520.890625" xlink:href="#DejaVuSans-115"/>
    </g>
   </g>
   <g id="legend_1">
    <g id="patch_7">
     <path d="M 64.6 302.584 
L 109.325 302.584 
Q 111.325 302.584 111.325 300.584 
L 111.325 154.80275 
Q 111.325 152.80275 109.325 152.80275 
L 64.6 152.80275 
Q 62.6 152.80275 62.6 154.80275 
L 62.6 300.584 
Q 62.6 302.584 64.6 302.584 
z
" style="fill:#ffffff;opacity:0.8;stroke:#cccccc;stroke-linejoin:miter;"/>
    </g>
    <g id="line2d_26">
     <path d="M 66.6 160.901187 
L 86.6 160.901187 
" style="fill:none;stroke:#1f77b4;stroke-linecap:square;stroke-width:2;"/>
    </g>
    <g id="line2d_27"/>
    <g id="text_18">
     <!-- 0 -->
     <g transform="translate(94.6 164.401187)scale(0.1 -0.1)">
      <use xlink:href="#DejaVuSans-48"/>
     </g>
    </g>
    <g id="line2d_28">
     <path d="M 66.6 175.579313 
L 86.6 175.579313 
" style="fill:none;stroke:#ff7f0e;stroke-linecap:square;stroke-width:2;"/>
    </g>
    <g id="line2d_29"/>
    <g id="text_19">
     <!-- 10 -->
     <g transform="translate(94.6 179.079313)scale(0.1 -0.1)">
      <use xlink:href="#DejaVuSans-49"/>
      <use x="63.623047" xlink:href="#DejaVuSans-48"/>
     </g>
    </g>
    <g id="line2d_30">
     <path d="M 66.6 190.257438 
L 86.6 190.257438 
" style="fill:none;stroke:#2ca02c;stroke-linecap:square;stroke-width:2;"/>
    </g>
    <g id="line2d_31"/>
    <g id="text_20">
     <!-- 20 -->
     <g transform="translate(94.6 193.757438)scale(0.1 -0.1)">
      <use xlink:href="#DejaVuSans-50"/>
      <use x="63.623047" xlink:href="#DejaVuSans-48"/>
     </g>
    </g>
    <g id="line2d_32">
     <path d="M 66.6 204.935563 
L 86.6 204.935563 
" style="fill:none;stroke:#d62728;stroke-linecap:square;stroke-width:2;"/>
    </g>
    <g id="line2d_33"/>
    <g id="text_21">
     <!-- 30 -->
     <g transform="translate(94.6 208.435563)scale(0.1 -0.1)">
      <defs>
       <path d="M 40.578125 39.3125 
Q 47.65625 37.796875 51.625 33 
Q 55.609375 28.21875 55.609375 21.1875 
Q 55.609375 10.40625 48.1875 4.484375 
Q 40.765625 -1.421875 27.09375 -1.421875 
Q 22.515625 -1.421875 17.65625 -0.515625 
Q 12.796875 0.390625 7.625 2.203125 
L 7.625 11.71875 
Q 11.71875 9.328125 16.59375 8.109375 
Q 21.484375 6.890625 26.8125 6.890625 
Q 36.078125 6.890625 40.9375 10.546875 
Q 45.796875 14.203125 45.796875 21.1875 
Q 45.796875 27.640625 41.28125 31.265625 
Q 36.765625 34.90625 28.71875 34.90625 
L 20.21875 34.90625 
L 20.21875 43.015625 
L 29.109375 43.015625 
Q 36.375 43.015625 40.234375 45.921875 
Q 44.09375 48.828125 44.09375 54.296875 
Q 44.09375 59.90625 40.109375 62.90625 
Q 36.140625 65.921875 28.71875 65.921875 
Q 24.65625 65.921875 20.015625 65.03125 
Q 15.375 64.15625 9.8125 62.3125 
L 9.8125 71.09375 
Q 15.4375 72.65625 20.34375 73.4375 
Q 25.25 74.21875 29.59375 74.21875 
Q 40.828125 74.21875 47.359375 69.109375 
Q 53.90625 64.015625 53.90625 55.328125 
Q 53.90625 49.265625 50.4375 45.09375 
Q 46.96875 40.921875 40.578125 39.3125 
z
" id="DejaVuSans-51"/>
      </defs>
      <use xlink:href="#DejaVuSans-51"/>
      <use x="63.623047" xlink:href="#DejaVuSans-48"/>
     </g>
    </g>
    <g id="line2d_34">
     <path d="M 66.6 219.613688 
L 86.6 219.613688 
" style="fill:none;stroke:#9467bd;stroke-linecap:square;stroke-width:2;"/>
    </g>
    <g id="line2d_35"/>
    <g id="text_22">
     <!-- 40 -->
     <g transform="translate(94.6 223.113688)scale(0.1 -0.1)">
      <defs>
       <path d="M 37.796875 64.3125 
L 12.890625 25.390625 
L 37.796875 25.390625 
z
M 35.203125 72.90625 
L 47.609375 72.90625 
L 47.609375 25.390625 
L 58.015625 25.390625 
L 58.015625 17.1875 
L 47.609375 17.1875 
L 47.609375 0 
L 37.796875 0 
L 37.796875 17.1875 
L 4.890625 17.1875 
L 4.890625 26.703125 
z
" id="DejaVuSans-52"/>
      </defs>
      <use xlink:href="#DejaVuSans-52"/>
      <use x="63.623047" xlink:href="#DejaVuSans-48"/>
     </g>
    </g>
    <g id="line2d_36">
     <path d="M 66.6 234.291812 
L 86.6 234.291812 
" style="fill:none;stroke:#8c564b;stroke-linecap:square;stroke-width:2;"/>
    </g>
    <g id="line2d_37"/>
    <g id="text_23">
     <!-- 50 -->
     <g transform="translate(94.6 237.791812)scale(0.1 -0.1)">
      <use xlink:href="#DejaVuSans-53"/>
      <use x="63.623047" xlink:href="#DejaVuSans-48"/>
     </g>
    </g>
    <g id="line2d_38">
     <path d="M 66.6 248.969938 
L 86.6 248.969938 
" style="fill:none;stroke:#e377c2;stroke-linecap:square;stroke-width:2;"/>
    </g>
    <g id="line2d_39"/>
    <g id="text_24">
     <!-- 60 -->
     <g transform="translate(94.6 252.469938)scale(0.1 -0.1)">
      <defs>
       <path d="M 33.015625 40.375 
Q 26.375 40.375 22.484375 35.828125 
Q 18.609375 31.296875 18.609375 23.390625 
Q 18.609375 15.53125 22.484375 10.953125 
Q 26.375 6.390625 33.015625 6.390625 
Q 39.65625 6.390625 43.53125 10.953125 
Q 47.40625 15.53125 47.40625 23.390625 
Q 47.40625 31.296875 43.53125 35.828125 
Q 39.65625 40.375 33.015625 40.375 
z
M 52.59375 71.296875 
L 52.59375 62.3125 
Q 48.875 64.0625 45.09375 64.984375 
Q 41.3125 65.921875 37.59375 65.921875 
Q 27.828125 65.921875 22.671875 59.328125 
Q 17.53125 52.734375 16.796875 39.40625 
Q 19.671875 43.65625 24.015625 45.921875 
Q 28.375 48.1875 33.59375 48.1875 
Q 44.578125 48.1875 50.953125 41.515625 
Q 57.328125 34.859375 57.328125 23.390625 
Q 57.328125 12.15625 50.6875 5.359375 
Q 44.046875 -1.421875 33.015625 -1.421875 
Q 20.359375 -1.421875 13.671875 8.265625 
Q 6.984375 17.96875 6.984375 36.375 
Q 6.984375 53.65625 15.1875 63.9375 
Q 23.390625 74.21875 37.203125 74.21875 
Q 40.921875 74.21875 44.703125 73.484375 
Q 48.484375 72.75 52.59375 71.296875 
z
" id="DejaVuSans-54"/>
      </defs>
      <use xlink:href="#DejaVuSans-54"/>
      <use x="63.623047" xlink:href="#DejaVuSans-48"/>
     </g>
    </g>
    <g id="line2d_40">
     <path d="M 66.6 263.648062 
L 86.6 263.648062 
" style="fill:none;stroke:#7f7f7f;stroke-linecap:square;stroke-width:2;"/>
    </g>
    <g id="line2d_41"/>
    <g id="text_25">
     <!-- 70 -->
     <g transform="translate(94.6 267.148062)scale(0.1 -0.1)">
      <use xlink:href="#DejaVuSans-55"/>
      <use x="63.623047" xlink:href="#DejaVuSans-48"/>
     </g>
    </g>
    <g id="line2d_42">
     <path d="M 66.6 278.326188 
L 86.6 278.326188 
" style="fill:none;stroke:#bcbd22;stroke-linecap:square;stroke-width:2;"/>
    </g>
    <g id="line2d_43"/>
    <g id="text_26">
     <!-- 80 -->
     <g transform="translate(94.6 281.826188)scale(0.1 -0.1)">
      <defs>
       <path d="M 31.78125 34.625 
Q 24.75 34.625 20.71875 30.859375 
Q 16.703125 27.09375 16.703125 20.515625 
Q 16.703125 13.921875 20.71875 10.15625 
Q 24.75 6.390625 31.78125 6.390625 
Q 38.8125 6.390625 42.859375 10.171875 
Q 46.921875 13.96875 46.921875 20.515625 
Q 46.921875 27.09375 42.890625 30.859375 
Q 38.875 34.625 31.78125 34.625 
z
M 21.921875 38.8125 
Q 15.578125 40.375 12.03125 44.71875 
Q 8.5 49.078125 8.5 55.328125 
Q 8.5 64.0625 14.71875 69.140625 
Q 20.953125 74.21875 31.78125 74.21875 
Q 42.671875 74.21875 48.875 69.140625 
Q 55.078125 64.0625 55.078125 55.328125 
Q 55.078125 49.078125 51.53125 44.71875 
Q 48 40.375 41.703125 38.8125 
Q 48.828125 37.15625 52.796875 32.3125 
Q 56.78125 27.484375 56.78125 20.515625 
Q 56.78125 9.90625 50.3125 4.234375 
Q 43.84375 -1.421875 31.78125 -1.421875 
Q 19.734375 -1.421875 13.25 4.234375 
Q 6.78125 9.90625 6.78125 20.515625 
Q 6.78125 27.484375 10.78125 32.3125 
Q 14.796875 37.15625 21.921875 38.8125 
z
M 18.3125 54.390625 
Q 18.3125 48.734375 21.84375 45.5625 
Q 25.390625 42.390625 31.78125 42.390625 
Q 38.140625 42.390625 41.71875 45.5625 
Q 45.3125 48.734375 45.3125 54.390625 
Q 45.3125 60.0625 41.71875 63.234375 
Q 38.140625 66.40625 31.78125 66.40625 
Q 25.390625 66.40625 21.84375 63.234375 
Q 18.3125 60.0625 18.3125 54.390625 
z
" id="DejaVuSans-56"/>
      </defs>
      <use xlink:href="#DejaVuSans-56"/>
      <use x="63.623047" xlink:href="#DejaVuSans-48"/>
     </g>
    </g>
    <g id="line2d_44">
     <path d="M 66.6 293.004312 
L 86.6 293.004312 
" style="fill:none;stroke:#17becf;stroke-linecap:square;stroke-width:2;"/>
    </g>
    <g id="line2d_45"/>
    <g id="text_27">
     <!-- 90 -->
     <g transform="translate(94.6 296.504312)scale(0.1 -0.1)">
      <defs>
       <path d="M 10.984375 1.515625 
L 10.984375 10.5 
Q 14.703125 8.734375 18.5 7.8125 
Q 22.3125 6.890625 25.984375 6.890625 
Q 35.75 6.890625 40.890625 13.453125 
Q 46.046875 20.015625 46.78125 33.40625 
Q 43.953125 29.203125 39.59375 26.953125 
Q 35.25 24.703125 29.984375 24.703125 
Q 19.046875 24.703125 12.671875 31.3125 
Q 6.296875 37.9375 6.296875 49.421875 
Q 6.296875 60.640625 12.9375 67.421875 
Q 19.578125 74.21875 30.609375 74.21875 
Q 43.265625 74.21875 49.921875 64.515625 
Q 56.59375 54.828125 56.59375 36.375 
Q 56.59375 19.140625 48.40625 8.859375 
Q 40.234375 -1.421875 26.421875 -1.421875 
Q 22.703125 -1.421875 18.890625 -0.6875 
Q 15.09375 0.046875 10.984375 1.515625 
z
M 30.609375 32.421875 
Q 37.25 32.421875 41.125 36.953125 
Q 45.015625 41.5 45.015625 49.421875 
Q 45.015625 57.28125 41.125 61.84375 
Q 37.25 66.40625 30.609375 66.40625 
Q 23.96875 66.40625 20.09375 61.84375 
Q 16.21875 57.28125 16.21875 49.421875 
Q 16.21875 41.5 20.09375 36.953125 
Q 23.96875 32.421875 30.609375 32.421875 
z
" id="DejaVuSans-57"/>
      </defs>
      <use xlink:href="#DejaVuSans-57"/>
      <use x="63.623047" xlink:href="#DejaVuSans-48"/>
     </g>
    </g>
   </g>
  </g>
 </g>
 <defs>
  <clipPath id="p6bccd737b4">
   <rect height="266.112" width="357.12" x="57.6" y="41.472"/>
  </clipPath>
 </defs>
</svg>
