<?xml version="1.0" encoding="utf-8" standalone="no"?>
<!DOCTYPE svg PUBLIC "-//W3C//DTD SVG 1.1//EN"
  "http://www.w3.org/Graphics/SVG/1.1/DTD/svg11.dtd">
<!-- Created with matplotlib (https://matplotlib.org/) -->
<svg height="345.6pt" version="1.1" viewBox="0 0 460.8 345.6" width="460.8pt" xmlns="http://www.w3.org/2000/svg" xmlns:xlink="http://www.w3.org/1999/xlink">
 <metadata>
  <rdf:RDF xmlns:cc="http://creativecommons.org/ns#" xmlns:dc="http://purl.org/dc/elements/1.1/" xmlns:rdf="http://www.w3.org/1999/02/22-rdf-syntax-ns#">
   <cc:Work>
    <dc:type rdf:resource="http://purl.org/dc/dcmitype/StillImage"/>
    <dc:date>2022-01-07T14:59:08.257277</dc:date>
    <dc:format>image/svg+xml</dc:format>
    <dc:creator>
     <cc:Agent>
      <dc:title>Matplotlib v3.3.3, https://matplotlib.org/</dc:title>
     </cc:Agent>
    </dc:creator>
   </cc:Work>
  </rdf:RDF>
 </metadata>
 <defs>
  <style type="text/css">*{stroke-linecap:butt;stroke-linejoin:round;}</style>
 </defs>
 <g id="figure_1">
  <g id="patch_1">
   <path d="M 0 345.6 
L 460.8 345.6 
L 460.8 0 
L 0 0 
z
" style="fill:#ffffff;"/>
  </g>
  <g id="axes_1">
   <g id="patch_2">
    <path d="M 57.6 307.584 
L 414.72 307.584 
L 414.72 41.472 
L 57.6 41.472 
z
" style="fill:#ffffff;"/>
   </g>
   <g id="matplotlib.axis_1">
    <g id="xtick_1">
     <g id="line2d_1">
      <defs>
       <path d="M 0 0 
L 0 3.5 
" id="m029932866a" style="stroke:#000000;stroke-width:0.8;"/>
      </defs>
      <g>
       <use style="stroke:#000000;stroke-width:0.8;" x="73.832727" xlink:href="#m029932866a" y="307.584"/>
      </g>
     </g>
     <g id="text_1">
      <!-- 100 -->
      <g transform="translate(64.288977 322.182437)scale(0.1 -0.1)">
       <defs>
        <path d="M 12.40625 8.296875 
L 28.515625 8.296875 
L 28.515625 63.921875 
L 10.984375 60.40625 
L 10.984375 69.390625 
L 28.421875 72.90625 
L 38.28125 72.90625 
L 38.28125 8.296875 
L 54.390625 8.296875 
L 54.390625 0 
L 12.40625 0 
z
" id="DejaVuSans-49"/>
        <path d="M 31.78125 66.40625 
Q 24.171875 66.40625 20.328125 58.90625 
Q 16.5 51.421875 16.5 36.375 
Q 16.5 21.390625 20.328125 13.890625 
Q 24.171875 6.390625 31.78125 6.390625 
Q 39.453125 6.390625 43.28125 13.890625 
Q 47.125 21.390625 47.125 36.375 
Q 47.125 51.421875 43.28125 58.90625 
Q 39.453125 66.40625 31.78125 66.40625 
z
M 31.78125 74.21875 
Q 44.046875 74.21875 50.515625 64.515625 
Q 56.984375 54.828125 56.984375 36.375 
Q 56.984375 17.96875 50.515625 8.265625 
Q 44.046875 -1.421875 31.78125 -1.421875 
Q 19.53125 -1.421875 13.0625 8.265625 
Q 6.59375 17.96875 6.59375 36.375 
Q 6.59375 54.828125 13.0625 64.515625 
Q 19.53125 74.21875 31.78125 74.21875 
z
" id="DejaVuSans-48"/>
       </defs>
       <use xlink:href="#DejaVuSans-49"/>
       <use x="63.623047" xlink:href="#DejaVuSans-48"/>
       <use x="127.246094" xlink:href="#DejaVuSans-48"/>
      </g>
     </g>
    </g>
    <g id="xtick_2">
     <g id="line2d_2">
      <g>
       <use style="stroke:#000000;stroke-width:0.8;" x="120.478495" xlink:href="#m029932866a" y="307.584"/>
      </g>
     </g>
     <g id="text_2">
      <!-- 125 -->
      <g transform="translate(110.934745 322.182437)scale(0.1 -0.1)">
       <defs>
        <path d="M 19.1875 8.296875 
L 53.609375 8.296875 
L 53.609375 0 
L 7.328125 0 
L 7.328125 8.296875 
Q 12.9375 14.109375 22.625 23.890625 
Q 32.328125 33.6875 34.8125 36.53125 
Q 39.546875 41.84375 41.421875 45.53125 
Q 43.3125 49.21875 43.3125 52.78125 
Q 43.3125 58.59375 39.234375 62.25 
Q 35.15625 65.921875 28.609375 65.921875 
Q 23.96875 65.921875 18.8125 64.3125 
Q 13.671875 62.703125 7.8125 59.421875 
L 7.8125 69.390625 
Q 13.765625 71.78125 18.9375 73 
Q 24.125 74.21875 28.421875 74.21875 
Q 39.75 74.21875 46.484375 68.546875 
Q 53.21875 62.890625 53.21875 53.421875 
Q 53.21875 48.921875 51.53125 44.890625 
Q 49.859375 40.875 45.40625 35.40625 
Q 44.1875 33.984375 37.640625 27.21875 
Q 31.109375 20.453125 19.1875 8.296875 
z
" id="DejaVuSans-50"/>
        <path d="M 10.796875 72.90625 
L 49.515625 72.90625 
L 49.515625 64.59375 
L 19.828125 64.59375 
L 19.828125 46.734375 
Q 21.96875 47.46875 24.109375 47.828125 
Q 26.265625 48.1875 28.421875 48.1875 
Q 40.625 48.1875 47.75 41.5 
Q 54.890625 34.8125 54.890625 23.390625 
Q 54.890625 11.625 47.5625 5.09375 
Q 40.234375 -1.421875 26.90625 -1.421875 
Q 22.3125 -1.421875 17.546875 -0.640625 
Q 12.796875 0.140625 7.71875 1.703125 
L 7.71875 11.625 
Q 12.109375 9.234375 16.796875 8.0625 
Q 21.484375 6.890625 26.703125 6.890625 
Q 35.15625 6.890625 40.078125 11.328125 
Q 45.015625 15.765625 45.015625 23.390625 
Q 45.015625 31 40.078125 35.4375 
Q 35.15625 39.890625 26.703125 39.890625 
Q 22.75 39.890625 18.8125 39.015625 
Q 14.890625 38.140625 10.796875 36.28125 
z
" id="DejaVuSans-53"/>
       </defs>
       <use xlink:href="#DejaVuSans-49"/>
       <use x="63.623047" xlink:href="#DejaVuSans-50"/>
       <use x="127.246094" xlink:href="#DejaVuSans-53"/>
      </g>
     </g>
    </g>
    <g id="xtick_3">
     <g id="line2d_3">
      <g>
       <use style="stroke:#000000;stroke-width:0.8;" x="167.124263" xlink:href="#m029932866a" y="307.584"/>
      </g>
     </g>
     <g id="text_3">
      <!-- 150 -->
      <g transform="translate(157.580513 322.182437)scale(0.1 -0.1)">
       <use xlink:href="#DejaVuSans-49"/>
       <use x="63.623047" xlink:href="#DejaVuSans-53"/>
       <use x="127.246094" xlink:href="#DejaVuSans-48"/>
      </g>
     </g>
    </g>
    <g id="xtick_4">
     <g id="line2d_4">
      <g>
       <use style="stroke:#000000;stroke-width:0.8;" x="213.770031" xlink:href="#m029932866a" y="307.584"/>
      </g>
     </g>
     <g id="text_4">
      <!-- 175 -->
      <g transform="translate(204.226281 322.182437)scale(0.1 -0.1)">
       <defs>
        <path d="M 8.203125 72.90625 
L 55.078125 72.90625 
L 55.078125 68.703125 
L 28.609375 0 
L 18.3125 0 
L 43.21875 64.59375 
L 8.203125 64.59375 
z
" id="DejaVuSans-55"/>
       </defs>
       <use xlink:href="#DejaVuSans-49"/>
       <use x="63.623047" xlink:href="#DejaVuSans-55"/>
       <use x="127.246094" xlink:href="#DejaVuSans-53"/>
      </g>
     </g>
    </g>
    <g id="xtick_5">
     <g id="line2d_5">
      <g>
       <use style="stroke:#000000;stroke-width:0.8;" x="260.415799" xlink:href="#m029932866a" y="307.584"/>
      </g>
     </g>
     <g id="text_5">
      <!-- 200 -->
      <g transform="translate(250.872049 322.182437)scale(0.1 -0.1)">
       <use xlink:href="#DejaVuSans-50"/>
       <use x="63.623047" xlink:href="#DejaVuSans-48"/>
       <use x="127.246094" xlink:href="#DejaVuSans-48"/>
      </g>
     </g>
    </g>
    <g id="xtick_6">
     <g id="line2d_6">
      <g>
       <use style="stroke:#000000;stroke-width:0.8;" x="307.061567" xlink:href="#m029932866a" y="307.584"/>
      </g>
     </g>
     <g id="text_6">
      <!-- 225 -->
      <g transform="translate(297.517817 322.182437)scale(0.1 -0.1)">
       <use xlink:href="#DejaVuSans-50"/>
       <use x="63.623047" xlink:href="#DejaVuSans-50"/>
       <use x="127.246094" xlink:href="#DejaVuSans-53"/>
      </g>
     </g>
    </g>
    <g id="xtick_7">
     <g id="line2d_7">
      <g>
       <use style="stroke:#000000;stroke-width:0.8;" x="353.707335" xlink:href="#m029932866a" y="307.584"/>
      </g>
     </g>
     <g id="text_7">
      <!-- 250 -->
      <g transform="translate(344.163585 322.182437)scale(0.1 -0.1)">
       <use xlink:href="#DejaVuSans-50"/>
       <use x="63.623047" xlink:href="#DejaVuSans-53"/>
       <use x="127.246094" xlink:href="#DejaVuSans-48"/>
      </g>
     </g>
    </g>
    <g id="xtick_8">
     <g id="line2d_8">
      <g>
       <use style="stroke:#000000;stroke-width:0.8;" x="400.353103" xlink:href="#m029932866a" y="307.584"/>
      </g>
     </g>
     <g id="text_8">
      <!-- 275 -->
      <g transform="translate(390.809353 322.182437)scale(0.1 -0.1)">
       <use xlink:href="#DejaVuSans-50"/>
       <use x="63.623047" xlink:href="#DejaVuSans-55"/>
       <use x="127.246094" xlink:href="#DejaVuSans-53"/>
      </g>
     </g>
    </g>
    <g id="text_9">
     <!-- radius(nm) -->
     <g transform="translate(208.763125 335.860562)scale(0.1 -0.1)">
      <defs>
       <path d="M 41.109375 46.296875 
Q 39.59375 47.171875 37.8125 47.578125 
Q 36.03125 48 33.890625 48 
Q 26.265625 48 22.1875 43.046875 
Q 18.109375 38.09375 18.109375 28.8125 
L 18.109375 0 
L 9.078125 0 
L 9.078125 54.6875 
L 18.109375 54.6875 
L 18.109375 46.1875 
Q 20.953125 51.171875 25.484375 53.578125 
Q 30.03125 56 36.53125 56 
Q 37.453125 56 38.578125 55.875 
Q 39.703125 55.765625 41.0625 55.515625 
z
" id="DejaVuSans-114"/>
       <path d="M 34.28125 27.484375 
Q 23.390625 27.484375 19.1875 25 
Q 14.984375 22.515625 14.984375 16.5 
Q 14.984375 11.71875 18.140625 8.90625 
Q 21.296875 6.109375 26.703125 6.109375 
Q 34.1875 6.109375 38.703125 11.40625 
Q 43.21875 16.703125 43.21875 25.484375 
L 43.21875 27.484375 
z
M 52.203125 31.203125 
L 52.203125 0 
L 43.21875 0 
L 43.21875 8.296875 
Q 40.140625 3.328125 35.546875 0.953125 
Q 30.953125 -1.421875 24.3125 -1.421875 
Q 15.921875 -1.421875 10.953125 3.296875 
Q 6 8.015625 6 15.921875 
Q 6 25.140625 12.171875 29.828125 
Q 18.359375 34.515625 30.609375 34.515625 
L 43.21875 34.515625 
L 43.21875 35.40625 
Q 43.21875 41.609375 39.140625 45 
Q 35.0625 48.390625 27.6875 48.390625 
Q 23 48.390625 18.546875 47.265625 
Q 14.109375 46.140625 10.015625 43.890625 
L 10.015625 52.203125 
Q 14.9375 54.109375 19.578125 55.046875 
Q 24.21875 56 28.609375 56 
Q 40.484375 56 46.34375 49.84375 
Q 52.203125 43.703125 52.203125 31.203125 
z
" id="DejaVuSans-97"/>
       <path d="M 45.40625 46.390625 
L 45.40625 75.984375 
L 54.390625 75.984375 
L 54.390625 0 
L 45.40625 0 
L 45.40625 8.203125 
Q 42.578125 3.328125 38.25 0.953125 
Q 33.9375 -1.421875 27.875 -1.421875 
Q 17.96875 -1.421875 11.734375 6.484375 
Q 5.515625 14.40625 5.515625 27.296875 
Q 5.515625 40.1875 11.734375 48.09375 
Q 17.96875 56 27.875 56 
Q 33.9375 56 38.25 53.625 
Q 42.578125 51.265625 45.40625 46.390625 
z
M 14.796875 27.296875 
Q 14.796875 17.390625 18.875 11.75 
Q 22.953125 6.109375 30.078125 6.109375 
Q 37.203125 6.109375 41.296875 11.75 
Q 45.40625 17.390625 45.40625 27.296875 
Q 45.40625 37.203125 41.296875 42.84375 
Q 37.203125 48.484375 30.078125 48.484375 
Q 22.953125 48.484375 18.875 42.84375 
Q 14.796875 37.203125 14.796875 27.296875 
z
" id="DejaVuSans-100"/>
       <path d="M 9.421875 54.6875 
L 18.40625 54.6875 
L 18.40625 0 
L 9.421875 0 
z
M 9.421875 75.984375 
L 18.40625 75.984375 
L 18.40625 64.59375 
L 9.421875 64.59375 
z
" id="DejaVuSans-105"/>
       <path d="M 8.5 21.578125 
L 8.5 54.6875 
L 17.484375 54.6875 
L 17.484375 21.921875 
Q 17.484375 14.15625 20.5 10.265625 
Q 23.53125 6.390625 29.59375 6.390625 
Q 36.859375 6.390625 41.078125 11.03125 
Q 45.3125 15.671875 45.3125 23.6875 
L 45.3125 54.6875 
L 54.296875 54.6875 
L 54.296875 0 
L 45.3125 0 
L 45.3125 8.40625 
Q 42.046875 3.421875 37.71875 1 
Q 33.40625 -1.421875 27.6875 -1.421875 
Q 18.265625 -1.421875 13.375 4.4375 
Q 8.5 10.296875 8.5 21.578125 
z
M 31.109375 56 
z
" id="DejaVuSans-117"/>
       <path d="M 44.28125 53.078125 
L 44.28125 44.578125 
Q 40.484375 46.53125 36.375 47.5 
Q 32.28125 48.484375 27.875 48.484375 
Q 21.1875 48.484375 17.84375 46.4375 
Q 14.5 44.390625 14.5 40.28125 
Q 14.5 37.15625 16.890625 35.375 
Q 19.28125 33.59375 26.515625 31.984375 
L 29.59375 31.296875 
Q 39.15625 29.25 43.1875 25.515625 
Q 47.21875 21.78125 47.21875 15.09375 
Q 47.21875 7.46875 41.1875 3.015625 
Q 35.15625 -1.421875 24.609375 -1.421875 
Q 20.21875 -1.421875 15.453125 -0.5625 
Q 10.6875 0.296875 5.421875 2 
L 5.421875 11.28125 
Q 10.40625 8.6875 15.234375 7.390625 
Q 20.0625 6.109375 24.8125 6.109375 
Q 31.15625 6.109375 34.5625 8.28125 
Q 37.984375 10.453125 37.984375 14.40625 
Q 37.984375 18.0625 35.515625 20.015625 
Q 33.0625 21.96875 24.703125 23.78125 
L 21.578125 24.515625 
Q 13.234375 26.265625 9.515625 29.90625 
Q 5.8125 33.546875 5.8125 39.890625 
Q 5.8125 47.609375 11.28125 51.796875 
Q 16.75 56 26.8125 56 
Q 31.78125 56 36.171875 55.265625 
Q 40.578125 54.546875 44.28125 53.078125 
z
" id="DejaVuSans-115"/>
       <path d="M 31 75.875 
Q 24.46875 64.65625 21.28125 53.65625 
Q 18.109375 42.671875 18.109375 31.390625 
Q 18.109375 20.125 21.3125 9.0625 
Q 24.515625 -2 31 -13.1875 
L 23.1875 -13.1875 
Q 15.875 -1.703125 12.234375 9.375 
Q 8.59375 20.453125 8.59375 31.390625 
Q 8.59375 42.28125 12.203125 53.3125 
Q 15.828125 64.359375 23.1875 75.875 
z
" id="DejaVuSans-40"/>
       <path d="M 54.890625 33.015625 
L 54.890625 0 
L 45.90625 0 
L 45.90625 32.71875 
Q 45.90625 40.484375 42.875 44.328125 
Q 39.84375 48.1875 33.796875 48.1875 
Q 26.515625 48.1875 22.3125 43.546875 
Q 18.109375 38.921875 18.109375 30.90625 
L 18.109375 0 
L 9.078125 0 
L 9.078125 54.6875 
L 18.109375 54.6875 
L 18.109375 46.1875 
Q 21.34375 51.125 25.703125 53.5625 
Q 30.078125 56 35.796875 56 
Q 45.21875 56 50.046875 50.171875 
Q 54.890625 44.34375 54.890625 33.015625 
z
" id="DejaVuSans-110"/>
       <path d="M 52 44.1875 
Q 55.375 50.25 60.0625 53.125 
Q 64.75 56 71.09375 56 
Q 79.640625 56 84.28125 50.015625 
Q 88.921875 44.046875 88.921875 33.015625 
L 88.921875 0 
L 79.890625 0 
L 79.890625 32.71875 
Q 79.890625 40.578125 77.09375 44.375 
Q 74.3125 48.1875 68.609375 48.1875 
Q 61.625 48.1875 57.5625 43.546875 
Q 53.515625 38.921875 53.515625 30.90625 
L 53.515625 0 
L 44.484375 0 
L 44.484375 32.71875 
Q 44.484375 40.625 41.703125 44.40625 
Q 38.921875 48.1875 33.109375 48.1875 
Q 26.21875 48.1875 22.15625 43.53125 
Q 18.109375 38.875 18.109375 30.90625 
L 18.109375 0 
L 9.078125 0 
L 9.078125 54.6875 
L 18.109375 54.6875 
L 18.109375 46.1875 
Q 21.1875 51.21875 25.484375 53.609375 
Q 29.78125 56 35.6875 56 
Q 41.65625 56 45.828125 52.96875 
Q 50 49.953125 52 44.1875 
z
" id="DejaVuSans-109"/>
       <path d="M 8.015625 75.875 
L 15.828125 75.875 
Q 23.140625 64.359375 26.78125 53.3125 
Q 30.421875 42.28125 30.421875 31.390625 
Q 30.421875 20.453125 26.78125 9.375 
Q 23.140625 -1.703125 15.828125 -13.1875 
L 8.015625 -13.1875 
Q 14.5 -2 17.703125 9.0625 
Q 20.90625 20.125 20.90625 31.390625 
Q 20.90625 42.671875 17.703125 53.65625 
Q 14.5 64.65625 8.015625 75.875 
z
" id="DejaVuSans-41"/>
      </defs>
      <use xlink:href="#DejaVuSans-114"/>
      <use x="41.113281" xlink:href="#DejaVuSans-97"/>
      <use x="102.392578" xlink:href="#DejaVuSans-100"/>
      <use x="165.869141" xlink:href="#DejaVuSans-105"/>
      <use x="193.652344" xlink:href="#DejaVuSans-117"/>
      <use x="257.03125" xlink:href="#DejaVuSans-115"/>
      <use x="309.130859" xlink:href="#DejaVuSans-40"/>
      <use x="348.144531" xlink:href="#DejaVuSans-110"/>
      <use x="411.523438" xlink:href="#DejaVuSans-109"/>
      <use x="508.935547" xlink:href="#DejaVuSans-41"/>
     </g>
    </g>
   </g>
   <g id="matplotlib.axis_2">
    <g id="ytick_1">
     <g id="line2d_9">
      <defs>
       <path d="M 0 0 
L -3.5 0 
" id="m992dcb1241" style="stroke:#000000;stroke-width:0.8;"/>
      </defs>
      <g>
       <use style="stroke:#000000;stroke-width:0.8;" x="57.6" xlink:href="#m992dcb1241" y="278.350782"/>
      </g>
     </g>
     <g id="text_10">
      <!-- −12 -->
      <g transform="translate(29.495313 282.150001)scale(0.1 -0.1)">
       <defs>
        <path d="M 10.59375 35.5 
L 73.1875 35.5 
L 73.1875 27.203125 
L 10.59375 27.203125 
z
" id="DejaVuSans-8722"/>
       </defs>
       <use xlink:href="#DejaVuSans-8722"/>
       <use x="83.789062" xlink:href="#DejaVuSans-49"/>
       <use x="147.412109" xlink:href="#DejaVuSans-50"/>
      </g>
     </g>
    </g>
    <g id="ytick_2">
     <g id="line2d_10">
      <g>
       <use style="stroke:#000000;stroke-width:0.8;" x="57.6" xlink:href="#m992dcb1241" y="246.441679"/>
      </g>
     </g>
     <g id="text_11">
      <!-- −10 -->
      <g transform="translate(29.495313 250.240898)scale(0.1 -0.1)">
       <use xlink:href="#DejaVuSans-8722"/>
       <use x="83.789062" xlink:href="#DejaVuSans-49"/>
       <use x="147.412109" xlink:href="#DejaVuSans-48"/>
      </g>
     </g>
    </g>
    <g id="ytick_3">
     <g id="line2d_11">
      <g>
       <use style="stroke:#000000;stroke-width:0.8;" x="57.6" xlink:href="#m992dcb1241" y="214.532577"/>
      </g>
     </g>
     <g id="text_12">
      <!-- −8 -->
      <g transform="translate(35.857813 218.331795)scale(0.1 -0.1)">
       <defs>
        <path d="M 31.78125 34.625 
Q 24.75 34.625 20.71875 30.859375 
Q 16.703125 27.09375 16.703125 20.515625 
Q 16.703125 13.921875 20.71875 10.15625 
Q 24.75 6.390625 31.78125 6.390625 
Q 38.8125 6.390625 42.859375 10.171875 
Q 46.921875 13.96875 46.921875 20.515625 
Q 46.921875 27.09375 42.890625 30.859375 
Q 38.875 34.625 31.78125 34.625 
z
M 21.921875 38.8125 
Q 15.578125 40.375 12.03125 44.71875 
Q 8.5 49.078125 8.5 55.328125 
Q 8.5 64.0625 14.71875 69.140625 
Q 20.953125 74.21875 31.78125 74.21875 
Q 42.671875 74.21875 48.875 69.140625 
Q 55.078125 64.0625 55.078125 55.328125 
Q 55.078125 49.078125 51.53125 44.71875 
Q 48 40.375 41.703125 38.8125 
Q 48.828125 37.15625 52.796875 32.3125 
Q 56.78125 27.484375 56.78125 20.515625 
Q 56.78125 9.90625 50.3125 4.234375 
Q 43.84375 -1.421875 31.78125 -1.421875 
Q 19.734375 -1.421875 13.25 4.234375 
Q 6.78125 9.90625 6.78125 20.515625 
Q 6.78125 27.484375 10.78125 32.3125 
Q 14.796875 37.15625 21.921875 38.8125 
z
M 18.3125 54.390625 
Q 18.3125 48.734375 21.84375 45.5625 
Q 25.390625 42.390625 31.78125 42.390625 
Q 38.140625 42.390625 41.71875 45.5625 
Q 45.3125 48.734375 45.3125 54.390625 
Q 45.3125 60.0625 41.71875 63.234375 
Q 38.140625 66.40625 31.78125 66.40625 
Q 25.390625 66.40625 21.84375 63.234375 
Q 18.3125 60.0625 18.3125 54.390625 
z
" id="DejaVuSans-56"/>
       </defs>
       <use xlink:href="#DejaVuSans-8722"/>
       <use x="83.789062" xlink:href="#DejaVuSans-56"/>
      </g>
     </g>
    </g>
    <g id="ytick_4">
     <g id="line2d_12">
      <g>
       <use style="stroke:#000000;stroke-width:0.8;" x="57.6" xlink:href="#m992dcb1241" y="182.623474"/>
      </g>
     </g>
     <g id="text_13">
      <!-- −6 -->
      <g transform="translate(35.857813 186.422693)scale(0.1 -0.1)">
       <defs>
        <path d="M 33.015625 40.375 
Q 26.375 40.375 22.484375 35.828125 
Q 18.609375 31.296875 18.609375 23.390625 
Q 18.609375 15.53125 22.484375 10.953125 
Q 26.375 6.390625 33.015625 6.390625 
Q 39.65625 6.390625 43.53125 10.953125 
Q 47.40625 15.53125 47.40625 23.390625 
Q 47.40625 31.296875 43.53125 35.828125 
Q 39.65625 40.375 33.015625 40.375 
z
M 52.59375 71.296875 
L 52.59375 62.3125 
Q 48.875 64.0625 45.09375 64.984375 
Q 41.3125 65.921875 37.59375 65.921875 
Q 27.828125 65.921875 22.671875 59.328125 
Q 17.53125 52.734375 16.796875 39.40625 
Q 19.671875 43.65625 24.015625 45.921875 
Q 28.375 48.1875 33.59375 48.1875 
Q 44.578125 48.1875 50.953125 41.515625 
Q 57.328125 34.859375 57.328125 23.390625 
Q 57.328125 12.15625 50.6875 5.359375 
Q 44.046875 -1.421875 33.015625 -1.421875 
Q 20.359375 -1.421875 13.671875 8.265625 
Q 6.984375 17.96875 6.984375 36.375 
Q 6.984375 53.65625 15.1875 63.9375 
Q 23.390625 74.21875 37.203125 74.21875 
Q 40.921875 74.21875 44.703125 73.484375 
Q 48.484375 72.75 52.59375 71.296875 
z
" id="DejaVuSans-54"/>
       </defs>
       <use xlink:href="#DejaVuSans-8722"/>
       <use x="83.789062" xlink:href="#DejaVuSans-54"/>
      </g>
     </g>
    </g>
    <g id="ytick_5">
     <g id="line2d_13">
      <g>
       <use style="stroke:#000000;stroke-width:0.8;" x="57.6" xlink:href="#m992dcb1241" y="150.714371"/>
      </g>
     </g>
     <g id="text_14">
      <!-- −4 -->
      <g transform="translate(35.857813 154.51359)scale(0.1 -0.1)">
       <defs>
        <path d="M 37.796875 64.3125 
L 12.890625 25.390625 
L 37.796875 25.390625 
z
M 35.203125 72.90625 
L 47.609375 72.90625 
L 47.609375 25.390625 
L 58.015625 25.390625 
L 58.015625 17.1875 
L 47.609375 17.1875 
L 47.609375 0 
L 37.796875 0 
L 37.796875 17.1875 
L 4.890625 17.1875 
L 4.890625 26.703125 
z
" id="DejaVuSans-52"/>
       </defs>
       <use xlink:href="#DejaVuSans-8722"/>
       <use x="83.789062" xlink:href="#DejaVuSans-52"/>
      </g>
     </g>
    </g>
    <g id="ytick_6">
     <g id="line2d_14">
      <g>
       <use style="stroke:#000000;stroke-width:0.8;" x="57.6" xlink:href="#m992dcb1241" y="118.805268"/>
      </g>
     </g>
     <g id="text_15">
      <!-- −2 -->
      <g transform="translate(35.857813 122.604487)scale(0.1 -0.1)">
       <use xlink:href="#DejaVuSans-8722"/>
       <use x="83.789062" xlink:href="#DejaVuSans-50"/>
      </g>
     </g>
    </g>
    <g id="ytick_7">
     <g id="line2d_15">
      <g>
       <use style="stroke:#000000;stroke-width:0.8;" x="57.6" xlink:href="#m992dcb1241" y="86.896166"/>
      </g>
     </g>
     <g id="text_16">
      <!-- 0 -->
      <g transform="translate(44.2375 90.695384)scale(0.1 -0.1)">
       <use xlink:href="#DejaVuSans-48"/>
      </g>
     </g>
    </g>
    <g id="ytick_8">
     <g id="line2d_16">
      <g>
       <use style="stroke:#000000;stroke-width:0.8;" x="57.6" xlink:href="#m992dcb1241" y="54.987063"/>
      </g>
     </g>
     <g id="text_17">
      <!-- 2 -->
      <g transform="translate(44.2375 58.786282)scale(0.1 -0.1)">
       <use xlink:href="#DejaVuSans-50"/>
      </g>
     </g>
    </g>
   </g>
   <g id="line2d_17">
    <path clip-path="url(#pc058586080)" d="M 73.832727 86.896166 
L 103.686019 86.404379 
L 127.941818 85.791887 
L 148.465956 85.063874 
L 163.392602 84.339161 
L 176.453417 83.492726 
L 187.648401 82.553267 
L 198.843386 81.391461 
L 213.770031 79.580645 
L 232.428339 77.341341 
L 243.623323 76.213011 
L 256.684138 75.118974 
L 275.342445 73.629022 
L 279.074107 73.074379 
L 280.939937 72.554559 
L 282.805768 67.350745 
L 284.671599 65.19329 
L 286.537429 59.610269 
L 288.40326 58.811097 
L 290.269091 58.393565 
L 294.000752 57.930835 
L 299.598245 57.526592 
L 310.793229 56.991988 
L 331.317367 56.270648 
L 374.231473 55.042034 
L 389.158119 54.525529 
L 392.889781 54.277962 
L 394.755611 54.052047 
L 396.621442 53.568 
L 398.487273 54.050535 
L 398.487273 54.050535 
" style="fill:none;stroke:#1f77b4;stroke-linecap:square;stroke-width:2;"/>
   </g>
   <g id="line2d_18">
    <path clip-path="url(#pc058586080)" d="M 73.832727 86.896166 
L 103.686019 86.396856 
L 127.941818 85.774602 
L 148.465956 85.032635 
L 163.392602 84.289698 
L 176.453417 83.415268 
L 187.648401 82.436443 
L 198.843386 81.216188 
L 211.904201 79.548575 
L 230.562508 76.962659 
L 232.428339 76.309707 
L 234.294169 77.572941 
L 236.16 76.831001 
L 239.891661 76.286248 
L 249.220815 75.307165 
L 264.147461 73.800202 
L 267.879122 73.233916 
L 269.744953 72.82479 
L 271.610784 75.600989 
L 273.476614 74.887368 
L 277.208276 72.509225 
L 279.074107 71.689289 
L 280.939937 71.183444 
L 282.805768 74.519713 
L 284.671599 74.09924 
L 286.537429 76.778876 
L 288.40326 74.685401 
L 290.269091 74.114042 
L 294.000752 73.700141 
L 301.464075 73.215971 
L 316.390721 72.538308 
L 346.244013 71.472242 
L 363.036489 70.811595 
L 368.633981 70.422614 
L 370.499812 70.185309 
L 372.365643 71.430755 
L 374.231473 70.504616 
L 376.097304 67.602023 
L 377.963135 74.075186 
L 379.828966 81.609448 
L 381.694796 86.973645 
L 387.292288 86.499794 
L 392.889781 86.024885 
L 394.755611 85.694382 
L 396.621442 88.944712 
L 398.487273 86.778252 
L 398.487273 86.778252 
" style="fill:none;stroke:#ff7f0e;stroke-linecap:square;stroke-width:2;"/>
   </g>
   <g id="line2d_19">
    <path clip-path="url(#pc058586080)" d="M 73.832727 86.896166 
L 101.820188 86.414023 
L 126.075987 85.780863 
L 146.600125 85.021693 
L 161.526771 84.25268 
L 172.721755 83.479004 
L 182.050909 82.650498 
L 191.380063 81.614542 
L 200.709216 80.360061 
L 211.904201 78.622503 
L 221.233354 76.989172 
L 223.099185 76.579302 
L 224.965016 76.02687 
L 226.830846 80.128685 
L 228.696677 76.839363 
L 230.562508 77.075819 
L 232.428339 76.397199 
L 236.16 75.634549 
L 243.623323 74.536043 
L 252.952476 73.194945 
L 258.549969 72.143337 
L 260.415799 74.901895 
L 264.147461 74.052129 
L 267.879122 88.944149 
L 271.610784 88.014635 
L 275.342445 87.33282 
L 277.208276 87.073761 
L 279.074107 90.513396 
L 286.537429 89.576268 
L 288.40326 89.811153 
L 290.269091 89.39893 
L 297.732414 88.831828 
L 312.65906 88.00131 
L 346.244013 86.269337 
L 351.841505 85.791218 
L 355.573166 85.28701 
L 357.438997 86.086948 
L 359.304828 85.770694 
L 361.170658 85.168126 
L 364.90232 83.25143 
L 366.76815 82.538502 
L 368.633981 82.108227 
L 372.365643 81.693692 
L 374.231473 81.5871 
L 376.097304 86.477712 
L 389.158119 85.187481 
L 391.02395 88.523537 
L 392.889781 88.318252 
L 394.755611 87.741042 
L 396.621442 86.414879 
L 398.487273 87.490007 
L 398.487273 87.490007 
" style="fill:none;stroke:#2ca02c;stroke-linecap:square;stroke-width:2;"/>
   </g>
   <g id="line2d_20">
    <path clip-path="url(#pc058586080)" d="M 73.832727 86.896166 
L 101.820188 86.366175 
L 126.075987 85.683783 
L 144.734295 84.950116 
L 157.79511 84.246557 
L 168.990094 83.428174 
L 178.319248 82.512253 
L 185.782571 81.572179 
L 193.245893 80.414867 
L 200.709216 79.030802 
L 208.172539 77.407759 
L 211.904201 76.454746 
L 213.770031 75.892686 
L 215.635862 75.193645 
L 217.501693 79.093321 
L 219.367524 77.615169 
L 221.233354 75.605485 
L 223.099185 74.534712 
L 224.965016 75.661846 
L 228.696677 74.611503 
L 234.294169 73.460541 
L 245.489154 71.40657 
L 247.354984 65.886012 
L 251.086646 65.380948 
L 267.879122 134.544054 
L 277.208276 133.513493 
L 279.074107 137.003667 
L 284.671599 136.371232 
L 286.537429 136.50275 
L 292.134922 135.960625 
L 305.195737 135.044811 
L 329.451536 133.385951 
L 336.914859 132.621866 
L 340.64652 132.047171 
L 342.512351 132.333779 
L 344.378182 132.139593 
L 346.244013 131.800495 
L 349.975674 130.714033 
L 353.707335 129.676616 
L 357.438997 129.076547 
L 363.036489 128.619777 
L 376.097304 127.980116 
L 377.963135 132.276166 
L 385.426458 131.591603 
L 387.292288 126.947619 
L 391.02395 126.692679 
L 392.889781 134.486519 
L 394.755611 134.231767 
L 396.621442 141.841586 
L 398.487273 141.326436 
L 398.487273 141.326436 
" style="fill:none;stroke:#d62728;stroke-linecap:square;stroke-width:2;"/>
   </g>
   <g id="line2d_21">
    <path clip-path="url(#pc058586080)" d="M 73.832727 86.896166 
L 101.820188 86.171567 
L 127.941818 85.271638 
L 146.600125 84.4114 
L 157.79511 83.70292 
L 167.124263 82.897839 
L 174.587586 82.027302 
L 180.185078 81.195392 
L 185.782571 80.1905 
L 191.380063 79.010921 
L 196.977555 77.606784 
L 200.709216 76.407344 
L 202.575047 75.625475 
L 204.440878 74.594913 
L 206.306708 77.828958 
L 210.03837 74.592635 
L 211.904201 73.484557 
L 213.770031 72.690345 
L 215.635862 64.926116 
L 217.501693 57.708553 
L 221.233354 56.526482 
L 224.965016 55.562112 
L 228.696677 54.734483 
L 230.562508 56.729293 
L 234.294169 72.359435 
L 236.16 72.164169 
L 238.025831 79.929673 
L 245.489154 78.980322 
L 247.354984 86.709679 
L 251.086646 86.221605 
L 252.952476 93.963757 
L 254.818307 93.737256 
L 262.28163 124.84947 
L 267.879122 124.385521 
L 269.744953 131.8662 
L 271.610784 131.557844 
L 273.476614 131.061216 
L 275.342445 129.513536 
L 277.208276 123.193807 
L 279.074107 123.253872 
L 280.939937 116.166576 
L 284.671599 115.648379 
L 292.134922 115.063864 
L 303.329906 114.447251 
L 305.195737 117.201021 
L 316.390721 116.196213 
L 321.988213 115.531803 
L 325.719875 114.937183 
L 327.585705 114.556616 
L 329.451536 115.242719 
L 331.317367 114.991252 
L 333.183197 114.568655 
L 340.64652 112.357283 
L 342.512351 111.99558 
L 353.707335 110.998528 
L 370.499812 109.967397 
L 387.292288 108.891484 
L 392.889781 108.373173 
L 396.621442 107.810943 
L 398.487273 115.410583 
L 398.487273 115.410583 
" style="fill:none;stroke:#9467bd;stroke-linecap:square;stroke-width:2;"/>
   </g>
   <g id="line2d_22">
    <path clip-path="url(#pc058586080)" d="M 73.832727 86.896166 
L 99.954357 86.520622 
L 120.478495 86.009033 
L 135.405141 85.426545 
L 144.734295 84.889709 
L 152.197618 84.248506 
L 155.929279 83.777031 
L 159.66094 83.096723 
L 161.526771 82.625142 
L 163.392602 82.02696 
L 167.124263 80.441148 
L 170.855925 78.842387 
L 174.587586 77.717679 
L 178.319248 76.925992 
L 180.185078 76.014283 
L 182.050909 83.651276 
L 187.648401 82.674471 
L 189.514232 90.342439 
L 191.380063 90.046721 
L 195.111724 105.428657 
L 196.977555 105.10847 
L 202.575047 128.04752 
L 204.440878 127.766796 
L 206.306708 135.492575 
L 208.172539 135.269356 
L 210.03837 143.051753 
L 213.770031 142.75213 
L 215.635862 147.867415 
L 223.099185 146.602646 
L 228.696677 145.396303 
L 230.562508 150.324277 
L 232.428339 158.104032 
L 236.16 157.577005 
L 247.354984 203.871169 
L 249.220815 203.669158 
L 251.086646 211.45856 
L 254.818307 211.114501 
L 256.684138 218.930225 
L 258.549969 218.772139 
L 260.415799 226.592494 
L 262.28163 228.37635 
L 266.013292 227.949328 
L 275.342445 226.204816 
L 280.939937 225.725814 
L 292.134922 225.170375 
L 314.52489 224.081243 
L 325.719875 223.339654 
L 336.914859 222.288401 
L 348.109843 221.312 
L 349.975674 220.596933 
L 353.707335 220.283284 
L 355.573166 228.111541 
L 359.304828 227.829409 
L 361.170658 235.673441 
L 363.036489 235.545207 
L 364.90232 243.399035 
L 366.76815 243.28012 
L 370.499812 259.009375 
L 376.097304 258.700035 
L 377.963135 266.582186 
L 379.828966 266.492335 
L 381.694796 266.935857 
L 385.426458 266.46744 
L 389.158119 265.770393 
L 392.889781 264.803912 
L 396.621442 263.680487 
L 398.487273 266.501817 
L 398.487273 266.501817 
" style="fill:none;stroke:#8c564b;stroke-linecap:square;stroke-width:2;"/>
   </g>
   <g id="line2d_23">
    <path clip-path="url(#pc058586080)" d="M 73.832727 86.896166 
L 111.149342 86.568062 
L 137.270972 86.136826 
L 152.197618 85.721235 
L 155.929279 85.572308 
L 157.79511 78.125383 
L 163.392602 77.786512 
L 167.124263 77.410001 
L 168.990094 85.084479 
L 170.855925 84.627422 
L 172.721755 90.017872 
L 176.453417 87.67628 
L 178.319248 86.853531 
L 182.050909 85.730764 
L 187.648401 84.350756 
L 189.514232 81.891532 
L 196.977555 80.136726 
L 204.440878 110.898396 
L 206.306708 118.708481 
L 210.03837 118.441001 
L 213.770031 134.180909 
L 215.635862 134.084927 
L 217.501693 141.970452 
L 219.367524 141.88056 
L 221.233354 149.767215 
L 223.099185 149.672837 
L 228.696677 173.258055 
L 230.562508 173.103754 
L 234.294169 188.657525 
L 239.891661 187.8202 
L 247.354984 186.693303 
L 256.684138 225.645095 
L 258.549969 229.225267 
L 266.013292 228.549721 
L 269.744953 227.972116 
L 279.074107 226.135467 
L 282.805768 225.664494 
L 288.40326 225.197414 
L 297.732414 224.691983 
L 316.390721 223.751555 
L 323.854044 223.190864 
L 325.719875 222.292594 
L 327.585705 222.026417 
L 329.451536 224.560385 
L 333.183197 224.215598 
L 338.78069 223.419932 
L 351.841505 221.497199 
L 361.170658 220.380111 
L 372.365643 219.328065 
L 385.426458 218.106128 
L 391.02395 217.379014 
L 392.889781 216.445736 
L 398.487273 215.160123 
L 398.487273 215.160123 
" style="fill:none;stroke:#e377c2;stroke-linecap:square;stroke-width:2;"/>
   </g>
   <g id="line2d_24">
    <path clip-path="url(#pc058586080)" d="M 73.832727 86.896166 
L 114.881003 86.614406 
L 137.270972 86.290989 
L 139.136803 87.090331 
L 141.002633 87.039607 
L 142.868464 94.963747 
L 144.734295 94.907563 
L 146.600125 102.824747 
L 150.331787 102.687559 
L 152.197618 110.583561 
L 157.79511 110.234271 
L 159.66094 118.024752 
L 161.526771 117.763485 
L 163.392602 117.37426 
L 165.258433 116.768727 
L 167.124263 123.848241 
L 168.990094 121.643098 
L 170.855925 120.652519 
L 172.721755 119.963802 
L 176.453417 119.121029 
L 185.782571 117.519943 
L 189.514232 116.785267 
L 191.380063 121.215594 
L 195.111724 136.368368 
L 196.977555 135.883544 
L 200.709216 150.998591 
L 204.440878 150.523494 
L 208.172539 166.20226 
L 210.03837 166.09562 
L 211.904201 173.975656 
L 213.770031 173.88291 
L 219.367524 197.53059 
L 221.233354 197.42448 
L 223.099185 205.284861 
L 226.830846 205.003102 
L 228.696677 212.806067 
L 230.562508 212.602343 
L 234.294169 228.042553 
L 236.16 227.729235 
L 238.025831 235.362828 
L 245.489154 233.996919 
L 249.220815 249.443388 
L 251.086646 249.237101 
L 256.684138 272.665574 
L 258.549969 277.744218 
L 266.013292 277.277702 
L 267.879122 276.90371 
L 271.610784 276.395748 
L 277.208276 275.2695 
L 282.805768 274.151041 
L 286.537429 273.597789 
L 292.134922 273.020259 
L 299.598245 272.51089 
L 316.390721 271.614055 
L 318.256552 273.44342 
L 325.719875 273.242699 
L 329.451536 272.976483 
L 335.049028 272.300323 
L 357.438997 269.048555 
L 366.76815 267.657397 
L 374.231473 266.74508 
L 394.755611 264.456598 
L 398.487273 263.899178 
L 398.487273 263.899178 
" style="fill:none;stroke:#7f7f7f;stroke-linecap:square;stroke-width:2;"/>
   </g>
   <g id="line2d_25">
    <path clip-path="url(#pc058586080)" d="M 73.832727 86.896166 
L 116.746834 86.65598 
L 120.478495 86.618068 
L 122.344326 86.725909 
L 137.270972 86.574633 
L 139.136803 79.274901 
L 142.868464 79.178675 
L 146.600125 95.020451 
L 148.465956 94.953629 
L 150.331787 102.853042 
L 152.197618 102.758777 
L 154.063448 110.616402 
L 157.79511 110.223204 
L 159.66094 117.836957 
L 161.526771 117.223237 
L 163.392602 124.176806 
L 165.258433 121.94599 
L 167.124263 120.855195 
L 168.990094 120.179097 
L 170.855925 119.750103 
L 174.587586 119.199359 
L 182.050909 118.213363 
L 187.648401 117.15993 
L 189.514232 121.180995 
L 191.380063 120.860828 
L 193.245893 128.492943 
L 195.111724 128.104756 
L 196.977555 135.6548 
L 198.843386 135.242356 
L 202.575047 150.614226 
L 204.440878 150.439752 
L 210.03837 174.055358 
L 215.635862 173.821389 
L 217.501693 181.716496 
L 219.367524 181.627307 
L 221.233354 189.505248 
L 223.099185 189.392059 
L 232.428339 228.29811 
L 234.294169 227.96298 
L 239.891661 250.591146 
L 243.623323 249.725884 
L 251.086646 280.542882 
L 252.952476 288.350361 
L 258.549969 287.945424 
L 260.415799 293.740522 
L 266.013292 293.522708 
L 267.879122 293.063605 
L 271.610784 292.680019 
L 275.342445 292.093149 
L 280.939937 290.918137 
L 286.537429 289.791912 
L 290.269091 289.228313 
L 295.866583 288.628826 
L 303.329906 288.093928 
L 310.793229 287.680467 
L 312.65906 289.734805 
L 323.854044 289.408024 
L 327.585705 289.110224 
L 333.183197 288.364224 
L 340.64652 287.345323 
L 357.438997 285.387109 
L 363.036489 284.410816 
L 372.365643 282.67688 
L 377.963135 281.862325 
L 385.426458 281.016693 
L 398.487273 279.581475 
L 398.487273 279.581475 
" style="fill:none;stroke:#bcbd22;stroke-linecap:square;stroke-width:2;"/>
   </g>
   <g id="line2d_26">
    <path clip-path="url(#pc058586080)" d="M 73.832727 86.896166 
L 113.015172 86.752424 
L 114.881003 86.929493 
L 137.270972 86.814012 
L 139.136803 87.418559 
L 141.002633 95.360015 
L 144.734295 95.281281 
L 146.600125 103.213432 
L 152.197618 103.024708 
L 154.063448 110.900711 
L 155.929279 110.755289 
L 159.66094 126.069905 
L 161.526771 133.222684 
L 163.392602 139.669356 
L 165.258433 137.203316 
L 167.124263 136.322882 
L 168.990094 135.853957 
L 172.721755 135.346155 
L 180.185078 134.552559 
L 183.91674 133.944026 
L 185.782571 133.568439 
L 187.648401 129.457889 
L 193.245893 152.36259 
L 196.977555 151.60153 
L 204.440878 182.488054 
L 206.306708 182.382623 
L 217.501693 229.887345 
L 219.367524 229.828582 
L 221.233354 237.739949 
L 223.099185 237.663579 
L 224.965016 245.549573 
L 228.696677 245.294305 
L 232.428339 260.810894 
L 234.294169 260.46586 
L 236.16 259.990579 
L 238.025831 267.338548 
L 241.757492 265.851099 
L 243.623323 273.20917 
L 245.489154 272.744813 
L 247.354984 272.409422 
L 251.086646 287.939882 
L 256.684138 287.594733 
L 258.549969 295.488 
L 260.415799 293.537737 
L 266.013292 293.464421 
L 267.879122 293.0076 
L 271.610784 292.745209 
L 275.342445 292.28223 
L 279.074107 291.56656 
L 290.269091 288.877899 
L 294.000752 288.332002 
L 299.598245 287.794684 
L 307.061567 287.337137 
L 310.793229 287.152608 
L 312.65906 289.360301 
L 321.988213 289.119871 
L 325.719875 288.826804 
L 329.451536 288.294919 
L 336.914859 287.024114 
L 342.512351 286.474263 
L 355.573166 285.477331 
L 359.304828 285.00093 
L 363.036489 284.333148 
L 368.633981 282.978227 
L 372.365643 282.064667 
L 376.097304 281.332427 
L 381.694796 280.565267 
L 389.158119 279.856358 
L 398.487273 278.99348 
L 398.487273 278.99348 
" style="fill:none;stroke:#17becf;stroke-linecap:square;stroke-width:2;"/>
   </g>
   <g id="patch_3">
    <path d="M 57.6 307.584 
L 57.6 41.472 
" style="fill:none;stroke:#000000;stroke-linecap:square;stroke-linejoin:miter;stroke-width:0.8;"/>
   </g>
   <g id="patch_4">
    <path d="M 414.72 307.584 
L 414.72 41.472 
" style="fill:none;stroke:#000000;stroke-linecap:square;stroke-linejoin:miter;stroke-width:0.8;"/>
   </g>
   <g id="patch_5">
    <path d="M 57.6 307.584 
L 414.72 307.584 
" style="fill:none;stroke:#000000;stroke-linecap:square;stroke-linejoin:miter;stroke-width:0.8;"/>
   </g>
   <g id="patch_6">
    <path d="M 57.6 41.472 
L 414.72 41.472 
" style="fill:none;stroke:#000000;stroke-linecap:square;stroke-linejoin:miter;stroke-width:0.8;"/>
   </g>
   <g id="text_18">
    <!-- Phase shift of different radius -->
    <g transform="translate(147.762187 35.472)scale(0.12 -0.12)">
     <defs>
      <path d="M 19.671875 64.796875 
L 19.671875 37.40625 
L 32.078125 37.40625 
Q 38.96875 37.40625 42.71875 40.96875 
Q 46.484375 44.53125 46.484375 51.125 
Q 46.484375 57.671875 42.71875 61.234375 
Q 38.96875 64.796875 32.078125 64.796875 
z
M 9.8125 72.90625 
L 32.078125 72.90625 
Q 44.34375 72.90625 50.609375 67.359375 
Q 56.890625 61.8125 56.890625 51.125 
Q 56.890625 40.328125 50.609375 34.8125 
Q 44.34375 29.296875 32.078125 29.296875 
L 19.671875 29.296875 
L 19.671875 0 
L 9.8125 0 
z
" id="DejaVuSans-80"/>
      <path d="M 54.890625 33.015625 
L 54.890625 0 
L 45.90625 0 
L 45.90625 32.71875 
Q 45.90625 40.484375 42.875 44.328125 
Q 39.84375 48.1875 33.796875 48.1875 
Q 26.515625 48.1875 22.3125 43.546875 
Q 18.109375 38.921875 18.109375 30.90625 
L 18.109375 0 
L 9.078125 0 
L 9.078125 75.984375 
L 18.109375 75.984375 
L 18.109375 46.1875 
Q 21.34375 51.125 25.703125 53.5625 
Q 30.078125 56 35.796875 56 
Q 45.21875 56 50.046875 50.171875 
Q 54.890625 44.34375 54.890625 33.015625 
z
" id="DejaVuSans-104"/>
      <path d="M 56.203125 29.59375 
L 56.203125 25.203125 
L 14.890625 25.203125 
Q 15.484375 15.921875 20.484375 11.0625 
Q 25.484375 6.203125 34.421875 6.203125 
Q 39.59375 6.203125 44.453125 7.46875 
Q 49.3125 8.734375 54.109375 11.28125 
L 54.109375 2.78125 
Q 49.265625 0.734375 44.1875 -0.34375 
Q 39.109375 -1.421875 33.890625 -1.421875 
Q 20.796875 -1.421875 13.15625 6.1875 
Q 5.515625 13.8125 5.515625 26.8125 
Q 5.515625 40.234375 12.765625 48.109375 
Q 20.015625 56 32.328125 56 
Q 43.359375 56 49.78125 48.890625 
Q 56.203125 41.796875 56.203125 29.59375 
z
M 47.21875 32.234375 
Q 47.125 39.59375 43.09375 43.984375 
Q 39.0625 48.390625 32.421875 48.390625 
Q 24.90625 48.390625 20.390625 44.140625 
Q 15.875 39.890625 15.1875 32.171875 
z
" id="DejaVuSans-101"/>
      <path id="DejaVuSans-32"/>
      <path d="M 37.109375 75.984375 
L 37.109375 68.5 
L 28.515625 68.5 
Q 23.6875 68.5 21.796875 66.546875 
Q 19.921875 64.59375 19.921875 59.515625 
L 19.921875 54.6875 
L 34.71875 54.6875 
L 34.71875 47.703125 
L 19.921875 47.703125 
L 19.921875 0 
L 10.890625 0 
L 10.890625 47.703125 
L 2.296875 47.703125 
L 2.296875 54.6875 
L 10.890625 54.6875 
L 10.890625 58.5 
Q 10.890625 67.625 15.140625 71.796875 
Q 19.390625 75.984375 28.609375 75.984375 
z
" id="DejaVuSans-102"/>
      <path d="M 18.3125 70.21875 
L 18.3125 54.6875 
L 36.8125 54.6875 
L 36.8125 47.703125 
L 18.3125 47.703125 
L 18.3125 18.015625 
Q 18.3125 11.328125 20.140625 9.421875 
Q 21.96875 7.515625 27.59375 7.515625 
L 36.8125 7.515625 
L 36.8125 0 
L 27.59375 0 
Q 17.1875 0 13.234375 3.875 
Q 9.28125 7.765625 9.28125 18.015625 
L 9.28125 47.703125 
L 2.6875 47.703125 
L 2.6875 54.6875 
L 9.28125 54.6875 
L 9.28125 70.21875 
z
" id="DejaVuSans-116"/>
      <path d="M 30.609375 48.390625 
Q 23.390625 48.390625 19.1875 42.75 
Q 14.984375 37.109375 14.984375 27.296875 
Q 14.984375 17.484375 19.15625 11.84375 
Q 23.34375 6.203125 30.609375 6.203125 
Q 37.796875 6.203125 41.984375 11.859375 
Q 46.1875 17.53125 46.1875 27.296875 
Q 46.1875 37.015625 41.984375 42.703125 
Q 37.796875 48.390625 30.609375 48.390625 
z
M 30.609375 56 
Q 42.328125 56 49.015625 48.375 
Q 55.71875 40.765625 55.71875 27.296875 
Q 55.71875 13.875 49.015625 6.21875 
Q 42.328125 -1.421875 30.609375 -1.421875 
Q 18.84375 -1.421875 12.171875 6.21875 
Q 5.515625 13.875 5.515625 27.296875 
Q 5.515625 40.765625 12.171875 48.375 
Q 18.84375 56 30.609375 56 
z
" id="DejaVuSans-111"/>
     </defs>
     <use xlink:href="#DejaVuSans-80"/>
     <use x="60.302734" xlink:href="#DejaVuSans-104"/>
     <use x="123.681641" xlink:href="#DejaVuSans-97"/>
     <use x="184.960938" xlink:href="#DejaVuSans-115"/>
     <use x="237.060547" xlink:href="#DejaVuSans-101"/>
     <use x="298.583984" xlink:href="#DejaVuSans-32"/>
     <use x="330.371094" xlink:href="#DejaVuSans-115"/>
     <use x="382.470703" xlink:href="#DejaVuSans-104"/>
     <use x="445.849609" xlink:href="#DejaVuSans-105"/>
     <use x="473.632812" xlink:href="#DejaVuSans-102"/>
     <use x="507.087891" xlink:href="#DejaVuSans-116"/>
     <use x="546.296875" xlink:href="#DejaVuSans-32"/>
     <use x="578.083984" xlink:href="#DejaVuSans-111"/>
     <use x="639.265625" xlink:href="#DejaVuSans-102"/>
     <use x="674.470703" xlink:href="#DejaVuSans-32"/>
     <use x="706.257812" xlink:href="#DejaVuSans-100"/>
     <use x="769.734375" xlink:href="#DejaVuSans-105"/>
     <use x="797.517578" xlink:href="#DejaVuSans-102"/>
     <use x="832.722656" xlink:href="#DejaVuSans-102"/>
     <use x="867.927734" xlink:href="#DejaVuSans-101"/>
     <use x="929.451172" xlink:href="#DejaVuSans-114"/>
     <use x="968.314453" xlink:href="#DejaVuSans-101"/>
     <use x="1029.837891" xlink:href="#DejaVuSans-110"/>
     <use x="1093.216797" xlink:href="#DejaVuSans-116"/>
     <use x="1132.425781" xlink:href="#DejaVuSans-32"/>
     <use x="1164.212891" xlink:href="#DejaVuSans-114"/>
     <use x="1205.326172" xlink:href="#DejaVuSans-97"/>
     <use x="1266.605469" xlink:href="#DejaVuSans-100"/>
     <use x="1330.082031" xlink:href="#DejaVuSans-105"/>
     <use x="1357.865234" xlink:href="#DejaVuSans-117"/>
     <use x="1421.244141" xlink:href="#DejaVuSans-115"/>
    </g>
   </g>
   <g id="legend_1">
    <g id="patch_7">
     <path d="M 64.6 302.584 
L 109.325 302.584 
Q 111.325 302.584 111.325 300.584 
L 111.325 154.80275 
Q 111.325 152.80275 109.325 152.80275 
L 64.6 152.80275 
Q 62.6 152.80275 62.6 154.80275 
L 62.6 300.584 
Q 62.6 302.584 64.6 302.584 
z
" style="fill:#ffffff;opacity:0.8;stroke:#cccccc;stroke-linejoin:miter;"/>
    </g>
    <g id="line2d_27">
     <path d="M 66.6 160.901187 
L 86.6 160.901187 
" style="fill:none;stroke:#1f77b4;stroke-linecap:square;stroke-width:2;"/>
    </g>
    <g id="line2d_28"/>
    <g id="text_19">
     <!-- 0 -->
     <g transform="translate(94.6 164.401187)scale(0.1 -0.1)">
      <use xlink:href="#DejaVuSans-48"/>
     </g>
    </g>
    <g id="line2d_29">
     <path d="M 66.6 175.579313 
L 86.6 175.579313 
" style="fill:none;stroke:#ff7f0e;stroke-linecap:square;stroke-width:2;"/>
    </g>
    <g id="line2d_30"/>
    <g id="text_20">
     <!-- 10 -->
     <g transform="translate(94.6 179.079313)scale(0.1 -0.1)">
      <use xlink:href="#DejaVuSans-49"/>
      <use x="63.623047" xlink:href="#DejaVuSans-48"/>
     </g>
    </g>
    <g id="line2d_31">
     <path d="M 66.6 190.257438 
L 86.6 190.257438 
" style="fill:none;stroke:#2ca02c;stroke-linecap:square;stroke-width:2;"/>
    </g>
    <g id="line2d_32"/>
    <g id="text_21">
     <!-- 20 -->
     <g transform="translate(94.6 193.757438)scale(0.1 -0.1)">
      <use xlink:href="#DejaVuSans-50"/>
      <use x="63.623047" xlink:href="#DejaVuSans-48"/>
     </g>
    </g>
    <g id="line2d_33">
     <path d="M 66.6 204.935563 
L 86.6 204.935563 
" style="fill:none;stroke:#d62728;stroke-linecap:square;stroke-width:2;"/>
    </g>
    <g id="line2d_34"/>
    <g id="text_22">
     <!-- 30 -->
     <g transform="translate(94.6 208.435563)scale(0.1 -0.1)">
      <defs>
       <path d="M 40.578125 39.3125 
Q 47.65625 37.796875 51.625 33 
Q 55.609375 28.21875 55.609375 21.1875 
Q 55.609375 10.40625 48.1875 4.484375 
Q 40.765625 -1.421875 27.09375 -1.421875 
Q 22.515625 -1.421875 17.65625 -0.515625 
Q 12.796875 0.390625 7.625 2.203125 
L 7.625 11.71875 
Q 11.71875 9.328125 16.59375 8.109375 
Q 21.484375 6.890625 26.8125 6.890625 
Q 36.078125 6.890625 40.9375 10.546875 
Q 45.796875 14.203125 45.796875 21.1875 
Q 45.796875 27.640625 41.28125 31.265625 
Q 36.765625 34.90625 28.71875 34.90625 
L 20.21875 34.90625 
L 20.21875 43.015625 
L 29.109375 43.015625 
Q 36.375 43.015625 40.234375 45.921875 
Q 44.09375 48.828125 44.09375 54.296875 
Q 44.09375 59.90625 40.109375 62.90625 
Q 36.140625 65.921875 28.71875 65.921875 
Q 24.65625 65.921875 20.015625 65.03125 
Q 15.375 64.15625 9.8125 62.3125 
L 9.8125 71.09375 
Q 15.4375 72.65625 20.34375 73.4375 
Q 25.25 74.21875 29.59375 74.21875 
Q 40.828125 74.21875 47.359375 69.109375 
Q 53.90625 64.015625 53.90625 55.328125 
Q 53.90625 49.265625 50.4375 45.09375 
Q 46.96875 40.921875 40.578125 39.3125 
z
" id="DejaVuSans-51"/>
      </defs>
      <use xlink:href="#DejaVuSans-51"/>
      <use x="63.623047" xlink:href="#DejaVuSans-48"/>
     </g>
    </g>
    <g id="line2d_35">
     <path d="M 66.6 219.613688 
L 86.6 219.613688 
" style="fill:none;stroke:#9467bd;stroke-linecap:square;stroke-width:2;"/>
    </g>
    <g id="line2d_36"/>
    <g id="text_23">
     <!-- 40 -->
     <g transform="translate(94.6 223.113688)scale(0.1 -0.1)">
      <use xlink:href="#DejaVuSans-52"/>
      <use x="63.623047" xlink:href="#DejaVuSans-48"/>
     </g>
    </g>
    <g id="line2d_37">
     <path d="M 66.6 234.291812 
L 86.6 234.291812 
" style="fill:none;stroke:#8c564b;stroke-linecap:square;stroke-width:2;"/>
    </g>
    <g id="line2d_38"/>
    <g id="text_24">
     <!-- 50 -->
     <g transform="translate(94.6 237.791812)scale(0.1 -0.1)">
      <use xlink:href="#DejaVuSans-53"/>
      <use x="63.623047" xlink:href="#DejaVuSans-48"/>
     </g>
    </g>
    <g id="line2d_39">
     <path d="M 66.6 248.969938 
L 86.6 248.969938 
" style="fill:none;stroke:#e377c2;stroke-linecap:square;stroke-width:2;"/>
    </g>
    <g id="line2d_40"/>
    <g id="text_25">
     <!-- 60 -->
     <g transform="translate(94.6 252.469938)scale(0.1 -0.1)">
      <use xlink:href="#DejaVuSans-54"/>
      <use x="63.623047" xlink:href="#DejaVuSans-48"/>
     </g>
    </g>
    <g id="line2d_41">
     <path d="M 66.6 263.648062 
L 86.6 263.648062 
" style="fill:none;stroke:#7f7f7f;stroke-linecap:square;stroke-width:2;"/>
    </g>
    <g id="line2d_42"/>
    <g id="text_26">
     <!-- 70 -->
     <g transform="translate(94.6 267.148062)scale(0.1 -0.1)">
      <use xlink:href="#DejaVuSans-55"/>
      <use x="63.623047" xlink:href="#DejaVuSans-48"/>
     </g>
    </g>
    <g id="line2d_43">
     <path d="M 66.6 278.326188 
L 86.6 278.326188 
" style="fill:none;stroke:#bcbd22;stroke-linecap:square;stroke-width:2;"/>
    </g>
    <g id="line2d_44"/>
    <g id="text_27">
     <!-- 80 -->
     <g transform="translate(94.6 281.826188)scale(0.1 -0.1)">
      <use xlink:href="#DejaVuSans-56"/>
      <use x="63.623047" xlink:href="#DejaVuSans-48"/>
     </g>
    </g>
    <g id="line2d_45">
     <path d="M 66.6 293.004312 
L 86.6 293.004312 
" style="fill:none;stroke:#17becf;stroke-linecap:square;stroke-width:2;"/>
    </g>
    <g id="line2d_46"/>
    <g id="text_28">
     <!-- 90 -->
     <g transform="translate(94.6 296.504312)scale(0.1 -0.1)">
      <defs>
       <path d="M 10.984375 1.515625 
L 10.984375 10.5 
Q 14.703125 8.734375 18.5 7.8125 
Q 22.3125 6.890625 25.984375 6.890625 
Q 35.75 6.890625 40.890625 13.453125 
Q 46.046875 20.015625 46.78125 33.40625 
Q 43.953125 29.203125 39.59375 26.953125 
Q 35.25 24.703125 29.984375 24.703125 
Q 19.046875 24.703125 12.671875 31.3125 
Q 6.296875 37.9375 6.296875 49.421875 
Q 6.296875 60.640625 12.9375 67.421875 
Q 19.578125 74.21875 30.609375 74.21875 
Q 43.265625 74.21875 49.921875 64.515625 
Q 56.59375 54.828125 56.59375 36.375 
Q 56.59375 19.140625 48.40625 8.859375 
Q 40.234375 -1.421875 26.421875 -1.421875 
Q 22.703125 -1.421875 18.890625 -0.6875 
Q 15.09375 0.046875 10.984375 1.515625 
z
M 30.609375 32.421875 
Q 37.25 32.421875 41.125 36.953125 
Q 45.015625 41.5 45.015625 49.421875 
Q 45.015625 57.28125 41.125 61.84375 
Q 37.25 66.40625 30.609375 66.40625 
Q 23.96875 66.40625 20.09375 61.84375 
Q 16.21875 57.28125 16.21875 49.421875 
Q 16.21875 41.5 20.09375 36.953125 
Q 23.96875 32.421875 30.609375 32.421875 
z
" id="DejaVuSans-57"/>
      </defs>
      <use xlink:href="#DejaVuSans-57"/>
      <use x="63.623047" xlink:href="#DejaVuSans-48"/>
     </g>
    </g>
   </g>
  </g>
 </g>
 <defs>
  <clipPath id="pc058586080">
   <rect height="266.112" width="357.12" x="57.6" y="41.472"/>
  </clipPath>
 </defs>
</svg>
