<?xml version="1.0" encoding="utf-8" standalone="no"?>
<!DOCTYPE svg PUBLIC "-//W3C//DTD SVG 1.1//EN"
  "http://www.w3.org/Graphics/SVG/1.1/DTD/svg11.dtd">
<!-- Created with matplotlib (https://matplotlib.org/) -->
<svg height="345.6pt" version="1.1" viewBox="0 0 460.8 345.6" width="460.8pt" xmlns="http://www.w3.org/2000/svg" xmlns:xlink="http://www.w3.org/1999/xlink">
 <metadata>
  <rdf:RDF xmlns:cc="http://creativecommons.org/ns#" xmlns:dc="http://purl.org/dc/elements/1.1/" xmlns:rdf="http://www.w3.org/1999/02/22-rdf-syntax-ns#">
   <cc:Work>
    <dc:type rdf:resource="http://purl.org/dc/dcmitype/StillImage"/>
    <dc:date>2022-01-07T14:57:39.053138</dc:date>
    <dc:format>image/svg+xml</dc:format>
    <dc:creator>
     <cc:Agent>
      <dc:title>Matplotlib v3.3.3, https://matplotlib.org/</dc:title>
     </cc:Agent>
    </dc:creator>
   </cc:Work>
  </rdf:RDF>
 </metadata>
 <defs>
  <style type="text/css">*{stroke-linecap:butt;stroke-linejoin:round;}</style>
 </defs>
 <g id="figure_1">
  <g id="patch_1">
   <path d="M 0 345.6 
L 460.8 345.6 
L 460.8 0 
L 0 0 
z
" style="fill:#ffffff;"/>
  </g>
  <g id="axes_1">
   <g id="patch_2">
    <path d="M 57.6 307.584 
L 414.72 307.584 
L 414.72 41.472 
L 57.6 41.472 
z
" style="fill:#ffffff;"/>
   </g>
   <g id="matplotlib.axis_1">
    <g id="xtick_1">
     <g id="line2d_1">
      <defs>
       <path d="M 0 0 
L 0 3.5 
" id="m21c6b093a6" style="stroke:#000000;stroke-width:0.8;"/>
      </defs>
      <g>
       <use style="stroke:#000000;stroke-width:0.8;" x="73.832727" xlink:href="#m21c6b093a6" y="307.584"/>
      </g>
     </g>
     <g id="text_1">
      <!-- 100 -->
      <g transform="translate(64.288977 322.182437)scale(0.1 -0.1)">
       <defs>
        <path d="M 12.40625 8.296875 
L 28.515625 8.296875 
L 28.515625 63.921875 
L 10.984375 60.40625 
L 10.984375 69.390625 
L 28.421875 72.90625 
L 38.28125 72.90625 
L 38.28125 8.296875 
L 54.390625 8.296875 
L 54.390625 0 
L 12.40625 0 
z
" id="DejaVuSans-49"/>
        <path d="M 31.78125 66.40625 
Q 24.171875 66.40625 20.328125 58.90625 
Q 16.5 51.421875 16.5 36.375 
Q 16.5 21.390625 20.328125 13.890625 
Q 24.171875 6.390625 31.78125 6.390625 
Q 39.453125 6.390625 43.28125 13.890625 
Q 47.125 21.390625 47.125 36.375 
Q 47.125 51.421875 43.28125 58.90625 
Q 39.453125 66.40625 31.78125 66.40625 
z
M 31.78125 74.21875 
Q 44.046875 74.21875 50.515625 64.515625 
Q 56.984375 54.828125 56.984375 36.375 
Q 56.984375 17.96875 50.515625 8.265625 
Q 44.046875 -1.421875 31.78125 -1.421875 
Q 19.53125 -1.421875 13.0625 8.265625 
Q 6.59375 17.96875 6.59375 36.375 
Q 6.59375 54.828125 13.0625 64.515625 
Q 19.53125 74.21875 31.78125 74.21875 
z
" id="DejaVuSans-48"/>
       </defs>
       <use xlink:href="#DejaVuSans-49"/>
       <use x="63.623047" xlink:href="#DejaVuSans-48"/>
       <use x="127.246094" xlink:href="#DejaVuSans-48"/>
      </g>
     </g>
    </g>
    <g id="xtick_2">
     <g id="line2d_2">
      <g>
       <use style="stroke:#000000;stroke-width:0.8;" x="120.478495" xlink:href="#m21c6b093a6" y="307.584"/>
      </g>
     </g>
     <g id="text_2">
      <!-- 125 -->
      <g transform="translate(110.934745 322.182437)scale(0.1 -0.1)">
       <defs>
        <path d="M 19.1875 8.296875 
L 53.609375 8.296875 
L 53.609375 0 
L 7.328125 0 
L 7.328125 8.296875 
Q 12.9375 14.109375 22.625 23.890625 
Q 32.328125 33.6875 34.8125 36.53125 
Q 39.546875 41.84375 41.421875 45.53125 
Q 43.3125 49.21875 43.3125 52.78125 
Q 43.3125 58.59375 39.234375 62.25 
Q 35.15625 65.921875 28.609375 65.921875 
Q 23.96875 65.921875 18.8125 64.3125 
Q 13.671875 62.703125 7.8125 59.421875 
L 7.8125 69.390625 
Q 13.765625 71.78125 18.9375 73 
Q 24.125 74.21875 28.421875 74.21875 
Q 39.75 74.21875 46.484375 68.546875 
Q 53.21875 62.890625 53.21875 53.421875 
Q 53.21875 48.921875 51.53125 44.890625 
Q 49.859375 40.875 45.40625 35.40625 
Q 44.1875 33.984375 37.640625 27.21875 
Q 31.109375 20.453125 19.1875 8.296875 
z
" id="DejaVuSans-50"/>
        <path d="M 10.796875 72.90625 
L 49.515625 72.90625 
L 49.515625 64.59375 
L 19.828125 64.59375 
L 19.828125 46.734375 
Q 21.96875 47.46875 24.109375 47.828125 
Q 26.265625 48.1875 28.421875 48.1875 
Q 40.625 48.1875 47.75 41.5 
Q 54.890625 34.8125 54.890625 23.390625 
Q 54.890625 11.625 47.5625 5.09375 
Q 40.234375 -1.421875 26.90625 -1.421875 
Q 22.3125 -1.421875 17.546875 -0.640625 
Q 12.796875 0.140625 7.71875 1.703125 
L 7.71875 11.625 
Q 12.109375 9.234375 16.796875 8.0625 
Q 21.484375 6.890625 26.703125 6.890625 
Q 35.15625 6.890625 40.078125 11.328125 
Q 45.015625 15.765625 45.015625 23.390625 
Q 45.015625 31 40.078125 35.4375 
Q 35.15625 39.890625 26.703125 39.890625 
Q 22.75 39.890625 18.8125 39.015625 
Q 14.890625 38.140625 10.796875 36.28125 
z
" id="DejaVuSans-53"/>
       </defs>
       <use xlink:href="#DejaVuSans-49"/>
       <use x="63.623047" xlink:href="#DejaVuSans-50"/>
       <use x="127.246094" xlink:href="#DejaVuSans-53"/>
      </g>
     </g>
    </g>
    <g id="xtick_3">
     <g id="line2d_3">
      <g>
       <use style="stroke:#000000;stroke-width:0.8;" x="167.124263" xlink:href="#m21c6b093a6" y="307.584"/>
      </g>
     </g>
     <g id="text_3">
      <!-- 150 -->
      <g transform="translate(157.580513 322.182437)scale(0.1 -0.1)">
       <use xlink:href="#DejaVuSans-49"/>
       <use x="63.623047" xlink:href="#DejaVuSans-53"/>
       <use x="127.246094" xlink:href="#DejaVuSans-48"/>
      </g>
     </g>
    </g>
    <g id="xtick_4">
     <g id="line2d_4">
      <g>
       <use style="stroke:#000000;stroke-width:0.8;" x="213.770031" xlink:href="#m21c6b093a6" y="307.584"/>
      </g>
     </g>
     <g id="text_4">
      <!-- 175 -->
      <g transform="translate(204.226281 322.182437)scale(0.1 -0.1)">
       <defs>
        <path d="M 8.203125 72.90625 
L 55.078125 72.90625 
L 55.078125 68.703125 
L 28.609375 0 
L 18.3125 0 
L 43.21875 64.59375 
L 8.203125 64.59375 
z
" id="DejaVuSans-55"/>
       </defs>
       <use xlink:href="#DejaVuSans-49"/>
       <use x="63.623047" xlink:href="#DejaVuSans-55"/>
       <use x="127.246094" xlink:href="#DejaVuSans-53"/>
      </g>
     </g>
    </g>
    <g id="xtick_5">
     <g id="line2d_5">
      <g>
       <use style="stroke:#000000;stroke-width:0.8;" x="260.415799" xlink:href="#m21c6b093a6" y="307.584"/>
      </g>
     </g>
     <g id="text_5">
      <!-- 200 -->
      <g transform="translate(250.872049 322.182437)scale(0.1 -0.1)">
       <use xlink:href="#DejaVuSans-50"/>
       <use x="63.623047" xlink:href="#DejaVuSans-48"/>
       <use x="127.246094" xlink:href="#DejaVuSans-48"/>
      </g>
     </g>
    </g>
    <g id="xtick_6">
     <g id="line2d_6">
      <g>
       <use style="stroke:#000000;stroke-width:0.8;" x="307.061567" xlink:href="#m21c6b093a6" y="307.584"/>
      </g>
     </g>
     <g id="text_6">
      <!-- 225 -->
      <g transform="translate(297.517817 322.182437)scale(0.1 -0.1)">
       <use xlink:href="#DejaVuSans-50"/>
       <use x="63.623047" xlink:href="#DejaVuSans-50"/>
       <use x="127.246094" xlink:href="#DejaVuSans-53"/>
      </g>
     </g>
    </g>
    <g id="xtick_7">
     <g id="line2d_7">
      <g>
       <use style="stroke:#000000;stroke-width:0.8;" x="353.707335" xlink:href="#m21c6b093a6" y="307.584"/>
      </g>
     </g>
     <g id="text_7">
      <!-- 250 -->
      <g transform="translate(344.163585 322.182437)scale(0.1 -0.1)">
       <use xlink:href="#DejaVuSans-50"/>
       <use x="63.623047" xlink:href="#DejaVuSans-53"/>
       <use x="127.246094" xlink:href="#DejaVuSans-48"/>
      </g>
     </g>
    </g>
    <g id="xtick_8">
     <g id="line2d_8">
      <g>
       <use style="stroke:#000000;stroke-width:0.8;" x="400.353103" xlink:href="#m21c6b093a6" y="307.584"/>
      </g>
     </g>
     <g id="text_8">
      <!-- 275 -->
      <g transform="translate(390.809353 322.182437)scale(0.1 -0.1)">
       <use xlink:href="#DejaVuSans-50"/>
       <use x="63.623047" xlink:href="#DejaVuSans-55"/>
       <use x="127.246094" xlink:href="#DejaVuSans-53"/>
      </g>
     </g>
    </g>
    <g id="text_9">
     <!-- radius(nm) -->
     <g transform="translate(208.763125 335.860562)scale(0.1 -0.1)">
      <defs>
       <path d="M 41.109375 46.296875 
Q 39.59375 47.171875 37.8125 47.578125 
Q 36.03125 48 33.890625 48 
Q 26.265625 48 22.1875 43.046875 
Q 18.109375 38.09375 18.109375 28.8125 
L 18.109375 0 
L 9.078125 0 
L 9.078125 54.6875 
L 18.109375 54.6875 
L 18.109375 46.1875 
Q 20.953125 51.171875 25.484375 53.578125 
Q 30.03125 56 36.53125 56 
Q 37.453125 56 38.578125 55.875 
Q 39.703125 55.765625 41.0625 55.515625 
z
" id="DejaVuSans-114"/>
       <path d="M 34.28125 27.484375 
Q 23.390625 27.484375 19.1875 25 
Q 14.984375 22.515625 14.984375 16.5 
Q 14.984375 11.71875 18.140625 8.90625 
Q 21.296875 6.109375 26.703125 6.109375 
Q 34.1875 6.109375 38.703125 11.40625 
Q 43.21875 16.703125 43.21875 25.484375 
L 43.21875 27.484375 
z
M 52.203125 31.203125 
L 52.203125 0 
L 43.21875 0 
L 43.21875 8.296875 
Q 40.140625 3.328125 35.546875 0.953125 
Q 30.953125 -1.421875 24.3125 -1.421875 
Q 15.921875 -1.421875 10.953125 3.296875 
Q 6 8.015625 6 15.921875 
Q 6 25.140625 12.171875 29.828125 
Q 18.359375 34.515625 30.609375 34.515625 
L 43.21875 34.515625 
L 43.21875 35.40625 
Q 43.21875 41.609375 39.140625 45 
Q 35.0625 48.390625 27.6875 48.390625 
Q 23 48.390625 18.546875 47.265625 
Q 14.109375 46.140625 10.015625 43.890625 
L 10.015625 52.203125 
Q 14.9375 54.109375 19.578125 55.046875 
Q 24.21875 56 28.609375 56 
Q 40.484375 56 46.34375 49.84375 
Q 52.203125 43.703125 52.203125 31.203125 
z
" id="DejaVuSans-97"/>
       <path d="M 45.40625 46.390625 
L 45.40625 75.984375 
L 54.390625 75.984375 
L 54.390625 0 
L 45.40625 0 
L 45.40625 8.203125 
Q 42.578125 3.328125 38.25 0.953125 
Q 33.9375 -1.421875 27.875 -1.421875 
Q 17.96875 -1.421875 11.734375 6.484375 
Q 5.515625 14.40625 5.515625 27.296875 
Q 5.515625 40.1875 11.734375 48.09375 
Q 17.96875 56 27.875 56 
Q 33.9375 56 38.25 53.625 
Q 42.578125 51.265625 45.40625 46.390625 
z
M 14.796875 27.296875 
Q 14.796875 17.390625 18.875 11.75 
Q 22.953125 6.109375 30.078125 6.109375 
Q 37.203125 6.109375 41.296875 11.75 
Q 45.40625 17.390625 45.40625 27.296875 
Q 45.40625 37.203125 41.296875 42.84375 
Q 37.203125 48.484375 30.078125 48.484375 
Q 22.953125 48.484375 18.875 42.84375 
Q 14.796875 37.203125 14.796875 27.296875 
z
" id="DejaVuSans-100"/>
       <path d="M 9.421875 54.6875 
L 18.40625 54.6875 
L 18.40625 0 
L 9.421875 0 
z
M 9.421875 75.984375 
L 18.40625 75.984375 
L 18.40625 64.59375 
L 9.421875 64.59375 
z
" id="DejaVuSans-105"/>
       <path d="M 8.5 21.578125 
L 8.5 54.6875 
L 17.484375 54.6875 
L 17.484375 21.921875 
Q 17.484375 14.15625 20.5 10.265625 
Q 23.53125 6.390625 29.59375 6.390625 
Q 36.859375 6.390625 41.078125 11.03125 
Q 45.3125 15.671875 45.3125 23.6875 
L 45.3125 54.6875 
L 54.296875 54.6875 
L 54.296875 0 
L 45.3125 0 
L 45.3125 8.40625 
Q 42.046875 3.421875 37.71875 1 
Q 33.40625 -1.421875 27.6875 -1.421875 
Q 18.265625 -1.421875 13.375 4.4375 
Q 8.5 10.296875 8.5 21.578125 
z
M 31.109375 56 
z
" id="DejaVuSans-117"/>
       <path d="M 44.28125 53.078125 
L 44.28125 44.578125 
Q 40.484375 46.53125 36.375 47.5 
Q 32.28125 48.484375 27.875 48.484375 
Q 21.1875 48.484375 17.84375 46.4375 
Q 14.5 44.390625 14.5 40.28125 
Q 14.5 37.15625 16.890625 35.375 
Q 19.28125 33.59375 26.515625 31.984375 
L 29.59375 31.296875 
Q 39.15625 29.25 43.1875 25.515625 
Q 47.21875 21.78125 47.21875 15.09375 
Q 47.21875 7.46875 41.1875 3.015625 
Q 35.15625 -1.421875 24.609375 -1.421875 
Q 20.21875 -1.421875 15.453125 -0.5625 
Q 10.6875 0.296875 5.421875 2 
L 5.421875 11.28125 
Q 10.40625 8.6875 15.234375 7.390625 
Q 20.0625 6.109375 24.8125 6.109375 
Q 31.15625 6.109375 34.5625 8.28125 
Q 37.984375 10.453125 37.984375 14.40625 
Q 37.984375 18.0625 35.515625 20.015625 
Q 33.0625 21.96875 24.703125 23.78125 
L 21.578125 24.515625 
Q 13.234375 26.265625 9.515625 29.90625 
Q 5.8125 33.546875 5.8125 39.890625 
Q 5.8125 47.609375 11.28125 51.796875 
Q 16.75 56 26.8125 56 
Q 31.78125 56 36.171875 55.265625 
Q 40.578125 54.546875 44.28125 53.078125 
z
" id="DejaVuSans-115"/>
       <path d="M 31 75.875 
Q 24.46875 64.65625 21.28125 53.65625 
Q 18.109375 42.671875 18.109375 31.390625 
Q 18.109375 20.125 21.3125 9.0625 
Q 24.515625 -2 31 -13.1875 
L 23.1875 -13.1875 
Q 15.875 -1.703125 12.234375 9.375 
Q 8.59375 20.453125 8.59375 31.390625 
Q 8.59375 42.28125 12.203125 53.3125 
Q 15.828125 64.359375 23.1875 75.875 
z
" id="DejaVuSans-40"/>
       <path d="M 54.890625 33.015625 
L 54.890625 0 
L 45.90625 0 
L 45.90625 32.71875 
Q 45.90625 40.484375 42.875 44.328125 
Q 39.84375 48.1875 33.796875 48.1875 
Q 26.515625 48.1875 22.3125 43.546875 
Q 18.109375 38.921875 18.109375 30.90625 
L 18.109375 0 
L 9.078125 0 
L 9.078125 54.6875 
L 18.109375 54.6875 
L 18.109375 46.1875 
Q 21.34375 51.125 25.703125 53.5625 
Q 30.078125 56 35.796875 56 
Q 45.21875 56 50.046875 50.171875 
Q 54.890625 44.34375 54.890625 33.015625 
z
" id="DejaVuSans-110"/>
       <path d="M 52 44.1875 
Q 55.375 50.25 60.0625 53.125 
Q 64.75 56 71.09375 56 
Q 79.640625 56 84.28125 50.015625 
Q 88.921875 44.046875 88.921875 33.015625 
L 88.921875 0 
L 79.890625 0 
L 79.890625 32.71875 
Q 79.890625 40.578125 77.09375 44.375 
Q 74.3125 48.1875 68.609375 48.1875 
Q 61.625 48.1875 57.5625 43.546875 
Q 53.515625 38.921875 53.515625 30.90625 
L 53.515625 0 
L 44.484375 0 
L 44.484375 32.71875 
Q 44.484375 40.625 41.703125 44.40625 
Q 38.921875 48.1875 33.109375 48.1875 
Q 26.21875 48.1875 22.15625 43.53125 
Q 18.109375 38.875 18.109375 30.90625 
L 18.109375 0 
L 9.078125 0 
L 9.078125 54.6875 
L 18.109375 54.6875 
L 18.109375 46.1875 
Q 21.1875 51.21875 25.484375 53.609375 
Q 29.78125 56 35.6875 56 
Q 41.65625 56 45.828125 52.96875 
Q 50 49.953125 52 44.1875 
z
" id="DejaVuSans-109"/>
       <path d="M 8.015625 75.875 
L 15.828125 75.875 
Q 23.140625 64.359375 26.78125 53.3125 
Q 30.421875 42.28125 30.421875 31.390625 
Q 30.421875 20.453125 26.78125 9.375 
Q 23.140625 -1.703125 15.828125 -13.1875 
L 8.015625 -13.1875 
Q 14.5 -2 17.703125 9.0625 
Q 20.90625 20.125 20.90625 31.390625 
Q 20.90625 42.671875 17.703125 53.65625 
Q 14.5 64.65625 8.015625 75.875 
z
" id="DejaVuSans-41"/>
      </defs>
      <use xlink:href="#DejaVuSans-114"/>
      <use x="41.113281" xlink:href="#DejaVuSans-97"/>
      <use x="102.392578" xlink:href="#DejaVuSans-100"/>
      <use x="165.869141" xlink:href="#DejaVuSans-105"/>
      <use x="193.652344" xlink:href="#DejaVuSans-117"/>
      <use x="257.03125" xlink:href="#DejaVuSans-115"/>
      <use x="309.130859" xlink:href="#DejaVuSans-40"/>
      <use x="348.144531" xlink:href="#DejaVuSans-110"/>
      <use x="411.523438" xlink:href="#DejaVuSans-109"/>
      <use x="508.935547" xlink:href="#DejaVuSans-41"/>
     </g>
    </g>
   </g>
   <g id="matplotlib.axis_2">
    <g id="ytick_1">
     <g id="line2d_9">
      <defs>
       <path d="M 0 0 
L -3.5 0 
" id="m302578c6f5" style="stroke:#000000;stroke-width:0.8;"/>
      </defs>
      <g>
       <use style="stroke:#000000;stroke-width:0.8;" x="57.6" xlink:href="#m302578c6f5" y="299.355573"/>
      </g>
     </g>
     <g id="text_10">
      <!-- −20.0 -->
      <g transform="translate(19.954687 303.154792)scale(0.1 -0.1)">
       <defs>
        <path d="M 10.59375 35.5 
L 73.1875 35.5 
L 73.1875 27.203125 
L 10.59375 27.203125 
z
" id="DejaVuSans-8722"/>
        <path d="M 10.6875 12.40625 
L 21 12.40625 
L 21 0 
L 10.6875 0 
z
" id="DejaVuSans-46"/>
       </defs>
       <use xlink:href="#DejaVuSans-8722"/>
       <use x="83.789062" xlink:href="#DejaVuSans-50"/>
       <use x="147.412109" xlink:href="#DejaVuSans-48"/>
       <use x="211.035156" xlink:href="#DejaVuSans-46"/>
       <use x="242.822266" xlink:href="#DejaVuSans-48"/>
      </g>
     </g>
    </g>
    <g id="ytick_2">
     <g id="line2d_10">
      <g>
       <use style="stroke:#000000;stroke-width:0.8;" x="57.6" xlink:href="#m302578c6f5" y="268.632024"/>
      </g>
     </g>
     <g id="text_11">
      <!-- −17.5 -->
      <g transform="translate(19.954687 272.431243)scale(0.1 -0.1)">
       <use xlink:href="#DejaVuSans-8722"/>
       <use x="83.789062" xlink:href="#DejaVuSans-49"/>
       <use x="147.412109" xlink:href="#DejaVuSans-55"/>
       <use x="211.035156" xlink:href="#DejaVuSans-46"/>
       <use x="242.822266" xlink:href="#DejaVuSans-53"/>
      </g>
     </g>
    </g>
    <g id="ytick_3">
     <g id="line2d_11">
      <g>
       <use style="stroke:#000000;stroke-width:0.8;" x="57.6" xlink:href="#m302578c6f5" y="237.908475"/>
      </g>
     </g>
     <g id="text_12">
      <!-- −15.0 -->
      <g transform="translate(19.954687 241.707694)scale(0.1 -0.1)">
       <use xlink:href="#DejaVuSans-8722"/>
       <use x="83.789062" xlink:href="#DejaVuSans-49"/>
       <use x="147.412109" xlink:href="#DejaVuSans-53"/>
       <use x="211.035156" xlink:href="#DejaVuSans-46"/>
       <use x="242.822266" xlink:href="#DejaVuSans-48"/>
      </g>
     </g>
    </g>
    <g id="ytick_4">
     <g id="line2d_12">
      <g>
       <use style="stroke:#000000;stroke-width:0.8;" x="57.6" xlink:href="#m302578c6f5" y="207.184926"/>
      </g>
     </g>
     <g id="text_13">
      <!-- −12.5 -->
      <g transform="translate(19.954687 210.984145)scale(0.1 -0.1)">
       <use xlink:href="#DejaVuSans-8722"/>
       <use x="83.789062" xlink:href="#DejaVuSans-49"/>
       <use x="147.412109" xlink:href="#DejaVuSans-50"/>
       <use x="211.035156" xlink:href="#DejaVuSans-46"/>
       <use x="242.822266" xlink:href="#DejaVuSans-53"/>
      </g>
     </g>
    </g>
    <g id="ytick_5">
     <g id="line2d_13">
      <g>
       <use style="stroke:#000000;stroke-width:0.8;" x="57.6" xlink:href="#m302578c6f5" y="176.461377"/>
      </g>
     </g>
     <g id="text_14">
      <!-- −10.0 -->
      <g transform="translate(19.954687 180.260596)scale(0.1 -0.1)">
       <use xlink:href="#DejaVuSans-8722"/>
       <use x="83.789062" xlink:href="#DejaVuSans-49"/>
       <use x="147.412109" xlink:href="#DejaVuSans-48"/>
       <use x="211.035156" xlink:href="#DejaVuSans-46"/>
       <use x="242.822266" xlink:href="#DejaVuSans-48"/>
      </g>
     </g>
    </g>
    <g id="ytick_6">
     <g id="line2d_14">
      <g>
       <use style="stroke:#000000;stroke-width:0.8;" x="57.6" xlink:href="#m302578c6f5" y="145.737828"/>
      </g>
     </g>
     <g id="text_15">
      <!-- −7.5 -->
      <g transform="translate(26.317187 149.537047)scale(0.1 -0.1)">
       <use xlink:href="#DejaVuSans-8722"/>
       <use x="83.789062" xlink:href="#DejaVuSans-55"/>
       <use x="147.412109" xlink:href="#DejaVuSans-46"/>
       <use x="179.199219" xlink:href="#DejaVuSans-53"/>
      </g>
     </g>
    </g>
    <g id="ytick_7">
     <g id="line2d_15">
      <g>
       <use style="stroke:#000000;stroke-width:0.8;" x="57.6" xlink:href="#m302578c6f5" y="115.014279"/>
      </g>
     </g>
     <g id="text_16">
      <!-- −5.0 -->
      <g transform="translate(26.317187 118.813498)scale(0.1 -0.1)">
       <use xlink:href="#DejaVuSans-8722"/>
       <use x="83.789062" xlink:href="#DejaVuSans-53"/>
       <use x="147.412109" xlink:href="#DejaVuSans-46"/>
       <use x="179.199219" xlink:href="#DejaVuSans-48"/>
      </g>
     </g>
    </g>
    <g id="ytick_8">
     <g id="line2d_16">
      <g>
       <use style="stroke:#000000;stroke-width:0.8;" x="57.6" xlink:href="#m302578c6f5" y="84.29073"/>
      </g>
     </g>
     <g id="text_17">
      <!-- −2.5 -->
      <g transform="translate(26.317187 88.089949)scale(0.1 -0.1)">
       <use xlink:href="#DejaVuSans-8722"/>
       <use x="83.789062" xlink:href="#DejaVuSans-50"/>
       <use x="147.412109" xlink:href="#DejaVuSans-46"/>
       <use x="179.199219" xlink:href="#DejaVuSans-53"/>
      </g>
     </g>
    </g>
    <g id="ytick_9">
     <g id="line2d_17">
      <g>
       <use style="stroke:#000000;stroke-width:0.8;" x="57.6" xlink:href="#m302578c6f5" y="53.567181"/>
      </g>
     </g>
     <g id="text_18">
      <!-- 0.0 -->
      <g transform="translate(34.696875 57.3664)scale(0.1 -0.1)">
       <use xlink:href="#DejaVuSans-48"/>
       <use x="63.623047" xlink:href="#DejaVuSans-46"/>
       <use x="95.410156" xlink:href="#DejaVuSans-48"/>
      </g>
     </g>
    </g>
   </g>
   <g id="line2d_18">
    <path clip-path="url(#p020e433623)" d="M 73.832727 53.648736 
L 170.855925 53.638772 
L 200.709216 53.904691 
L 219.367524 53.969308 
L 273.476614 53.765401 
L 277.208276 53.973108 
L 279.074107 54.274233 
L 280.939937 55.115371 
L 282.805768 58.722061 
L 284.671599 74.641484 
L 286.537429 57.111625 
L 288.40326 54.911101 
L 290.269091 54.281499 
L 292.134922 54.025626 
L 295.866583 53.828202 
L 305.195737 53.726339 
L 329.451536 53.797388 
L 389.158119 54.049845 
L 392.889781 53.903107 
L 396.621442 53.620256 
L 398.487273 56.65125 
L 398.487273 56.65125 
" style="fill:none;stroke:#1f77b4;stroke-linecap:square;stroke-width:2;"/>
   </g>
   <g id="line2d_19">
    <path clip-path="url(#p020e433623)" d="M 73.832727 53.647894 
L 176.453417 53.650044 
L 208.172539 53.729803 
L 230.562508 53.593835 
L 239.891661 53.783217 
L 247.354984 54.095309 
L 252.952476 54.49941 
L 256.684138 54.936775 
L 260.415799 55.655621 
L 262.28163 56.21106 
L 264.147461 56.996619 
L 266.013292 58.161204 
L 267.879122 59.993233 
L 269.744953 63.128913 
L 271.610784 69.455735 
L 273.476614 108.824594 
L 275.342445 69.388031 
L 277.208276 62.373775 
L 279.074107 58.930805 
L 280.939937 56.997294 
L 282.805768 55.845997 
L 284.671599 55.131026 
L 286.537429 54.67102 
L 290.269091 54.15893 
L 294.000752 53.915173 
L 301.464075 53.736485 
L 314.52489 53.726869 
L 342.512351 53.972617 
L 372.365643 54.430218 
L 381.694796 54.725079 
L 385.426458 54.956009 
L 387.292288 55.148889 
L 389.158119 55.474146 
L 391.02395 56.185324 
L 392.889781 59.011169 
L 394.755611 61.251783 
L 396.621442 55.033448 
L 398.487273 60.145993 
L 398.487273 60.145993 
" style="fill:none;stroke:#ff7f0e;stroke-linecap:square;stroke-width:2;"/>
   </g>
   <g id="line2d_20">
    <path clip-path="url(#p020e433623)" d="M 73.832727 53.643428 
L 185.782571 53.653982 
L 191.380063 53.877397 
L 193.245893 54.080312 
L 195.111724 54.418783 
L 196.977555 54.957994 
L 198.843386 55.764555 
L 200.709216 56.879132 
L 202.575047 58.286899 
L 210.03837 64.820219 
L 211.904201 66.112275 
L 213.770031 67.134498 
L 215.635862 67.885157 
L 217.501693 68.39191 
L 219.367524 68.700354 
L 223.099185 68.929987 
L 230.562508 69.029963 
L 234.294169 69.360711 
L 236.16 69.671852 
L 238.025831 70.111932 
L 239.891661 70.712647 
L 241.757492 71.517927 
L 243.623323 72.593054 
L 245.489154 74.042533 
L 247.354984 76.050401 
L 249.220815 78.989798 
L 251.086646 83.826701 
L 252.952476 95.082926 
L 254.818307 94.031209 
L 256.684138 81.886354 
L 258.549969 75.934177 
L 260.415799 71.870392 
L 262.28163 68.761936 
L 264.147461 66.251261 
L 266.013292 64.165026 
L 267.879122 62.406583 
L 269.744953 60.915958 
L 271.610784 59.652012 
L 273.476614 58.5836 
L 275.342445 57.685016 
L 277.208276 56.93373 
L 280.939937 55.793497 
L 284.671599 55.022246 
L 288.40326 54.509109 
L 294.000752 54.050576 
L 301.464075 53.76441 
L 312.65906 53.639258 
L 335.049028 53.689054 
L 374.231473 53.749557 
L 396.621442 53.631385 
L 398.487273 53.963586 
L 398.487273 53.963586 
" style="fill:none;stroke:#2ca02c;stroke-linecap:square;stroke-width:2;"/>
   </g>
   <g id="line2d_21">
    <path clip-path="url(#p020e433623)" d="M 73.832727 53.727648 
L 174.587586 53.687385 
L 176.453417 55.718858 
L 178.319248 62.645047 
L 180.185078 56.130096 
L 182.050909 55.287893 
L 183.91674 55.073581 
L 187.648401 55.11796 
L 191.380063 55.433709 
L 195.111724 55.958557 
L 198.843386 56.718091 
L 202.575047 57.765927 
L 206.306708 59.168698 
L 210.03837 60.998042 
L 211.904201 62.095519 
L 213.770031 63.327603 
L 215.635862 64.704931 
L 217.501693 66.239943 
L 219.367524 67.94804 
L 221.233354 69.84915 
L 223.099185 71.969838 
L 224.965016 74.346217 
L 226.830846 77.02805 
L 228.696677 80.08459 
L 230.562508 83.612489 
L 232.428339 87.743825 
L 234.294169 92.638773 
L 238.025831 104.326361 
L 239.891661 107.387179 
L 241.757492 104.328726 
L 245.489154 92.584598 
L 247.354984 87.656931 
L 249.220815 83.494348 
L 251.086646 79.936895 
L 252.952476 76.852602 
L 254.818307 74.145022 
L 256.684138 71.745226 
L 258.549969 69.603857 
L 260.415799 67.685249 
L 262.28163 65.963265 
L 264.147461 64.418319 
L 266.013292 63.0352 
L 267.879122 61.80144 
L 271.610784 59.739037 
L 275.342445 58.149468 
L 279.074107 56.951953 
L 282.805768 56.066845 
L 286.537429 55.421227 
L 292.134922 54.770996 
L 297.732414 54.371082 
L 305.195737 54.063864 
L 316.390721 53.849662 
L 333.183197 53.766915 
L 349.975674 53.88192 
L 357.438997 54.095806 
L 361.170658 54.335861 
L 363.036489 54.541577 
L 364.90232 54.872877 
L 366.76815 55.489993 
L 368.633981 56.983965 
L 370.499812 63.43365 
L 372.365643 61.167177 
L 374.231473 54.311365 
L 376.097304 53.713508 
L 377.963135 53.770057 
L 381.694796 54.183134 
L 385.426458 54.770192 
L 389.158119 55.573466 
L 392.889781 56.647777 
L 394.755611 57.250338 
L 396.621442 57.72034 
L 398.487273 57.030369 
L 398.487273 57.030369 
" style="fill:none;stroke:#d62728;stroke-linecap:square;stroke-width:2;"/>
   </g>
   <g id="line2d_22">
    <path clip-path="url(#p020e433623)" d="M 73.832727 55.028689 
L 96.222696 54.682565 
L 155.929279 53.612307 
L 159.66094 53.638359 
L 161.526771 53.751179 
L 163.392602 55.002848 
L 165.258433 55.385707 
L 167.124263 53.826054 
L 170.855925 53.681183 
L 178.319248 53.828723 
L 185.782571 54.229098 
L 191.380063 54.792833 
L 195.111724 55.372873 
L 198.843386 56.197279 
L 202.575047 57.369336 
L 204.440878 58.129105 
L 206.306708 59.034384 
L 208.172539 60.112908 
L 210.03837 61.398661 
L 211.904201 62.935021 
L 213.770031 64.780878 
L 215.635862 67.023078 
L 217.501693 69.803731 
L 219.367524 73.388679 
L 221.233354 78.383323 
L 223.099185 86.79455 
L 224.965016 115.511903 
L 226.830846 86.878318 
L 228.696677 80.72763 
L 230.562508 77.522204 
L 232.428339 75.628969 
L 234.294169 74.532305 
L 236.16 74.01759 
L 238.025831 73.994602 
L 239.891661 74.445541 
L 241.757492 75.415626 
L 243.623323 77.034992 
L 245.489154 79.600498 
L 247.354984 83.873601 
L 249.220815 92.877273 
L 251.086646 100.737702 
L 252.952476 85.04552 
L 254.818307 78.684171 
L 256.684138 74.610243 
L 258.549969 71.630459 
L 260.415799 69.309622 
L 262.28163 67.437103 
L 264.147461 65.893037 
L 266.013292 64.601414 
L 267.879122 63.510147 
L 269.744953 62.581454 
L 273.476614 61.103776 
L 277.208276 60.00533 
L 280.939937 59.180286 
L 284.671599 58.556976 
L 290.269091 57.896101 
L 295.866583 57.472505 
L 303.329906 57.17514 
L 310.793229 57.135847 
L 316.390721 57.303834 
L 320.122382 57.567138 
L 323.854044 58.0692 
L 325.719875 58.497688 
L 327.585705 59.168199 
L 329.451536 60.340958 
L 331.317367 62.83564 
L 333.183197 71.201617 
L 335.049028 67.128882 
L 336.914859 56.480631 
L 338.78069 54.824713 
L 340.64652 54.834417 
L 351.841505 56.286182 
L 361.170658 57.450182 
L 366.76815 58.362353 
L 370.499812 59.136186 
L 374.231473 60.101062 
L 377.963135 61.318925 
L 381.694796 62.831365 
L 385.426458 64.4118 
L 387.292288 64.688951 
L 389.158119 63.129537 
L 391.02395 60.120853 
L 392.889781 70.240188 
L 394.755611 72.793521 
L 396.621442 71.145427 
L 398.487273 68.669394 
L 398.487273 68.669394 
" style="fill:none;stroke:#9467bd;stroke-linecap:square;stroke-width:2;"/>
   </g>
   <g id="line2d_23">
    <path clip-path="url(#p020e433623)" d="M 73.832727 261.455926 
L 75.698558 267.622409 
L 77.564389 264.151984 
L 79.430219 262.085791 
L 81.29605 272.116718 
L 83.161881 267.616079 
L 85.027712 260.027051 
L 86.893542 261.745481 
L 88.759373 292.649851 
L 90.625204 268.086619 
L 92.491034 268.289829 
L 94.356865 261.429069 
L 96.222696 269.172431 
L 98.088527 264.06339 
L 99.954357 266.371615 
L 101.820188 262.333827 
L 103.686019 261.713794 
L 105.55185 259.081195 
L 107.41768 259.383922 
L 109.283511 262.081973 
L 111.149342 258.717726 
L 113.015172 269.569522 
L 114.881003 259.913033 
L 116.746834 262.868875 
L 118.612665 264.202681 
L 120.478495 256.520802 
L 122.344326 269.37082 
L 124.210157 256.546947 
L 126.075987 260.769906 
L 127.941818 258.056603 
L 129.807649 258.567325 
L 131.67348 264.050911 
L 133.53931 260.562734 
L 135.405141 261.653305 
L 137.270972 274.114592 
L 139.136803 268.19791 
L 141.002633 265.941244 
L 142.868464 265.447866 
L 144.734295 261.23257 
L 146.600125 265.092236 
L 148.465956 259.790168 
L 150.331787 256.843492 
L 152.197618 260.143472 
L 154.063448 255.114371 
L 155.929279 260.173587 
L 157.79511 268.09156 
L 159.66094 253.565632 
L 161.526771 259.497563 
L 163.392602 256.922473 
L 165.258433 258.002456 
L 167.124263 264.633251 
L 168.990094 253.63547 
L 170.855925 265.938153 
L 172.721755 252.203883 
L 174.587586 250.955635 
L 176.453417 252.35835 
L 178.319248 255.529313 
L 180.185078 268.624869 
L 182.050909 274.012549 
L 183.91674 279.969872 
L 185.782571 253.509666 
L 187.648401 249.046882 
L 189.514232 245.615487 
L 191.380063 261.799025 
L 193.245893 275.336064 
L 195.111724 261.420642 
L 196.977555 260.400358 
L 198.843386 264.777125 
L 200.709216 257.104757 
L 202.575047 256.738075 
L 204.440878 265.613331 
L 206.306708 260.021 
L 208.172539 261.906555 
L 210.03837 257.905275 
L 211.904201 271.094161 
L 213.770031 256.717127 
L 215.635862 266.578493 
L 217.501693 252.496056 
L 219.367524 250.905902 
L 221.233354 260.294263 
L 223.099185 254.719325 
L 224.965016 253.818021 
L 226.830846 263.123317 
L 228.696677 251.431656 
L 230.562508 250.462453 
L 232.428339 263.978953 
L 234.294169 253.96604 
L 236.16 251.457922 
L 238.025831 262.306467 
L 239.891661 257.100106 
L 241.757492 253.849633 
L 243.623323 253.265041 
L 245.489154 264.830419 
L 247.354984 268.347178 
L 249.220815 250.85568 
L 251.086646 257.504812 
L 252.952476 253.333497 
L 254.818307 248.066817 
L 256.684138 244.883428 
L 258.549969 251.72281 
L 260.415799 250.90044 
L 262.28163 253.92362 
L 264.147461 247.894349 
L 266.013292 259.789 
L 267.879122 249.24766 
L 269.744953 251.086688 
L 271.610784 260.971858 
L 273.476614 264.051294 
L 275.342445 253.62195 
L 277.208276 257.553749 
L 279.074107 247.488138 
L 280.939937 248.668542 
L 282.805768 257.176151 
L 284.671599 249.863858 
L 286.537429 256.020742 
L 288.40326 252.47929 
L 290.269091 252.008872 
L 292.134922 250.873862 
L 294.000752 253.541066 
L 295.866583 247.006504 
L 297.732414 248.662445 
L 299.598245 266.119561 
L 301.464075 252.627873 
L 303.329906 250.467925 
L 305.195737 256.676716 
L 307.061567 253.941612 
L 308.927398 249.107802 
L 310.793229 255.494953 
L 312.65906 261.043631 
L 314.52489 259.240115 
L 316.390721 252.301001 
L 318.256552 255.091077 
L 320.122382 254.514993 
L 321.988213 255.597375 
L 323.854044 252.489733 
L 325.719875 252.891677 
L 329.451536 257.012279 
L 331.317367 255.331843 
L 333.183197 264.153691 
L 335.049028 264.820975 
L 336.914859 272.637019 
L 338.78069 270.73524 
L 340.64652 286.494055 
L 342.512351 265.107148 
L 344.378182 261.980966 
L 346.244013 261.183971 
L 348.109843 264.253848 
L 349.975674 264.251816 
L 351.841505 259.154057 
L 353.707335 255.749692 
L 355.573166 262.462428 
L 357.438997 250.757253 
L 359.304828 254.068448 
L 361.170658 264.688572 
L 363.036489 251.658065 
L 364.90232 244.636061 
L 366.76815 247.221122 
L 368.633981 245.614661 
L 370.499812 266.213652 
L 372.365643 250.848161 
L 374.231473 246.744592 
L 376.097304 253.176827 
L 377.963135 257.24226 
L 379.828966 259.246059 
L 381.694796 247.623395 
L 383.560627 257.982768 
L 385.426458 255.392242 
L 387.292288 260.496003 
L 389.158119 262.261984 
L 391.02395 265.280517 
L 392.889781 253.756243 
L 394.755611 252.913677 
L 396.621442 259.534813 
L 398.487273 249.267074 
L 398.487273 249.267074 
" style="fill:none;stroke:#8c564b;stroke-linecap:square;stroke-width:2;"/>
   </g>
   <g id="line2d_24">
    <path clip-path="url(#p020e433623)" d="M 73.832727 267.197041 
L 75.698558 268.162178 
L 77.564389 268.66369 
L 79.430219 284.977338 
L 81.29605 268.158834 
L 83.161881 269.09865 
L 85.027712 295.488 
L 86.893542 271.758684 
L 88.759373 275.212984 
L 90.625204 280.507739 
L 92.491034 265.72401 
L 94.356865 261.598722 
L 96.222696 261.581856 
L 98.088527 265.576516 
L 99.954357 266.668311 
L 101.820188 267.548549 
L 103.686019 265.908408 
L 105.55185 261.045219 
L 107.41768 266.391326 
L 109.283511 264.15248 
L 111.149342 277.684328 
L 113.015172 262.609586 
L 116.746834 268.154143 
L 118.612665 262.878067 
L 120.478495 262.856846 
L 122.344326 262.420163 
L 124.210157 273.476352 
L 126.075987 263.962274 
L 127.941818 259.475004 
L 129.807649 264.042179 
L 131.67348 266.860219 
L 133.53931 266.851801 
L 135.405141 262.447261 
L 139.136803 267.634865 
L 141.002633 259.868894 
L 142.868464 270.848622 
L 144.734295 268.496382 
L 146.600125 265.15089 
L 148.465956 262.638964 
L 150.331787 261.672313 
L 152.197618 258.631773 
L 154.063448 260.908112 
L 155.929279 257.233192 
L 157.79511 257.172709 
L 159.66094 274.056997 
L 161.526771 268.86181 
L 163.392602 255.42179 
L 165.258433 253.356089 
L 167.124263 249.409492 
L 168.990094 248.030298 
L 170.855925 252.681137 
L 172.721755 250.054723 
L 174.587586 254.970784 
L 176.453417 250.789117 
L 178.319248 256.982115 
L 180.185078 252.670181 
L 182.050909 260.140111 
L 183.91674 263.419251 
L 185.782571 259.539397 
L 187.648401 263.086272 
L 189.514232 256.559046 
L 191.380063 264.330822 
L 193.245893 276.270485 
L 195.111724 257.276557 
L 196.977555 267.290944 
L 198.843386 260.286766 
L 200.709216 253.799777 
L 202.575047 260.301482 
L 204.440878 247.978448 
L 206.306708 261.704208 
L 208.172539 254.852374 
L 210.03837 250.752777 
L 211.904201 258.835641 
L 213.770031 249.013166 
L 215.635862 268.82851 
L 217.501693 257.575567 
L 219.367524 249.319364 
L 221.233354 248.622676 
L 223.099185 250.968527 
L 224.965016 252.370782 
L 226.830846 275.544859 
L 228.696677 254.086484 
L 230.562508 251.905116 
L 232.428339 247.466969 
L 234.294169 257.621932 
L 236.16 272.666856 
L 238.025831 249.647647 
L 239.891661 247.333825 
L 241.757492 249.85073 
L 243.623323 246.522496 
L 245.489154 247.622262 
L 247.354984 250.323599 
L 249.220815 249.933456 
L 251.086646 245.617555 
L 252.952476 250.194444 
L 254.818307 245.470707 
L 256.684138 243.10026 
L 258.549969 244.638563 
L 260.415799 258.865364 
L 262.28163 249.687247 
L 264.147461 247.737848 
L 266.013292 241.097026 
L 267.879122 249.456212 
L 269.744953 249.276567 
L 271.610784 244.940057 
L 273.476614 247.977242 
L 275.342445 246.078947 
L 277.208276 263.777718 
L 279.074107 257.873319 
L 280.939937 260.446465 
L 282.805768 255.663985 
L 284.671599 254.907306 
L 286.537429 248.860376 
L 288.40326 250.324936 
L 290.269091 248.701988 
L 292.134922 253.110666 
L 294.000752 259.899206 
L 295.866583 259.397755 
L 297.732414 254.180714 
L 299.598245 253.411705 
L 301.464075 256.847233 
L 303.329906 262.533808 
L 305.195737 258.390377 
L 307.061567 264.267572 
L 308.927398 258.921294 
L 310.793229 257.639176 
L 312.65906 254.636784 
L 314.52489 257.065314 
L 316.390721 264.909265 
L 318.256552 275.180651 
L 320.122382 258.27877 
L 321.988213 254.864333 
L 323.854044 258.291989 
L 325.719875 251.723392 
L 327.585705 260.480364 
L 329.451536 258.941159 
L 331.317367 252.836181 
L 333.183197 253.866241 
L 335.049028 252.500038 
L 336.914859 254.169952 
L 338.78069 253.903657 
L 340.64652 254.33754 
L 342.512351 251.475967 
L 346.244013 244.656932 
L 348.109843 247.102155 
L 349.975674 245.210175 
L 351.841505 242.156898 
L 353.707335 257.289976 
L 355.573166 244.464893 
L 357.438997 244.005732 
L 359.304828 248.824876 
L 361.170658 243.397059 
L 363.036489 248.806762 
L 364.90232 247.170702 
L 366.76815 253.103122 
L 368.633981 253.999609 
L 370.499812 247.896471 
L 372.365643 251.407606 
L 374.231473 286.67355 
L 376.097304 260.073249 
L 377.963135 264.537644 
L 379.828966 257.331927 
L 381.694796 257.453056 
L 383.560627 254.053379 
L 387.292288 253.519351 
L 389.158119 256.478185 
L 391.02395 264.463396 
L 392.889781 249.03609 
L 394.755611 248.870445 
L 396.621442 259.325791 
L 398.487273 251.087248 
L 398.487273 251.087248 
" style="fill:none;stroke:#e377c2;stroke-linecap:square;stroke-width:2;"/>
   </g>
   <g id="line2d_25">
    <path clip-path="url(#p020e433623)" d="M 73.832727 282.575264 
L 75.698558 272.179086 
L 77.564389 270.764699 
L 79.430219 272.986199 
L 81.29605 276.802251 
L 83.161881 267.915768 
L 85.027712 269.348862 
L 86.893542 271.626448 
L 90.625204 272.421698 
L 92.491034 269.812128 
L 94.356865 274.824728 
L 96.222696 267.523756 
L 98.088527 271.65626 
L 99.954357 270.950107 
L 101.820188 266.318131 
L 103.686019 269.893337 
L 105.55185 270.724228 
L 107.41768 274.724758 
L 109.283511 269.269657 
L 111.149342 272.781373 
L 113.015172 266.964098 
L 114.881003 275.115654 
L 116.746834 272.959982 
L 118.612665 273.046941 
L 120.478495 266.526664 
L 122.344326 265.405257 
L 124.210157 267.83566 
L 126.075987 269.538245 
L 127.941818 268.247498 
L 129.807649 262.612686 
L 131.67348 264.678054 
L 133.53931 264.974024 
L 135.405141 269.293809 
L 137.270972 276.417519 
L 139.136803 263.164818 
L 141.002633 267.463215 
L 142.868464 264.485767 
L 144.734295 264.928267 
L 146.600125 258.779156 
L 148.465956 262.382741 
L 150.331787 260.221314 
L 152.197618 268.34683 
L 154.063448 269.880229 
L 155.929279 267.367782 
L 157.79511 260.01673 
L 159.66094 276.760894 
L 161.526771 264.33062 
L 163.392602 267.41202 
L 165.258433 266.430032 
L 167.124263 255.423129 
L 168.990094 252.399319 
L 170.855925 255.874969 
L 172.721755 251.897928 
L 174.587586 249.490223 
L 176.453417 248.704919 
L 178.319248 245.915983 
L 180.185078 254.550384 
L 182.050909 251.836215 
L 183.91674 256.368174 
L 185.782571 247.508211 
L 187.648401 267.735588 
L 189.514232 252.470463 
L 191.380063 253.568599 
L 193.245893 256.581301 
L 195.111724 269.684629 
L 196.977555 248.563104 
L 198.843386 252.637246 
L 200.709216 247.936734 
L 202.575047 254.369695 
L 204.440878 252.56033 
L 206.306708 251.444289 
L 208.172539 256.66816 
L 210.03837 250.723415 
L 211.904201 248.261742 
L 213.770031 250.714603 
L 215.635862 254.236202 
L 217.501693 248.221508 
L 219.367524 251.296996 
L 221.233354 247.780262 
L 223.099185 259.064755 
L 224.965016 259.98163 
L 226.830846 247.287439 
L 228.696677 245.678834 
L 230.562508 255.647646 
L 232.428339 248.991768 
L 234.294169 249.234024 
L 236.16 241.638022 
L 238.025831 246.139477 
L 239.891661 251.578925 
L 241.757492 250.359355 
L 243.623323 246.123441 
L 245.489154 253.462697 
L 247.354984 241.644937 
L 249.220815 249.193074 
L 251.086646 245.883311 
L 252.952476 243.603994 
L 254.818307 252.883711 
L 256.684138 268.215782 
L 258.549969 243.162671 
L 260.415799 246.462699 
L 262.28163 245.277915 
L 264.147461 241.605606 
L 266.013292 244.230257 
L 267.879122 246.621841 
L 269.744953 242.41609 
L 271.610784 242.632204 
L 273.476614 254.765627 
L 275.342445 256.572472 
L 277.208276 252.186832 
L 279.074107 258.662068 
L 280.939937 249.813059 
L 282.805768 264.844403 
L 284.671599 269.260817 
L 286.537429 260.031694 
L 288.40326 256.426408 
L 290.269091 257.549598 
L 294.000752 258.316504 
L 295.866583 257.523178 
L 297.732414 255.253989 
L 299.598245 256.894543 
L 301.464075 255.242434 
L 303.329906 253.19255 
L 305.195737 257.4894 
L 307.061567 257.071815 
L 308.927398 262.19726 
L 310.793229 260.835514 
L 312.65906 258.519059 
L 314.52489 268.197668 
L 316.390721 264.398108 
L 318.256552 249.25046 
L 320.122382 252.782295 
L 321.988213 253.314844 
L 323.854044 256.005667 
L 325.719875 253.183526 
L 327.585705 271.854205 
L 329.451536 261.122702 
L 331.317367 247.672255 
L 333.183197 244.63035 
L 335.049028 243.241818 
L 336.914859 262.216274 
L 338.78069 257.074237 
L 340.64652 243.78329 
L 342.512351 261.2631 
L 344.378182 247.059485 
L 346.244013 247.902297 
L 348.109843 248.569185 
L 349.975674 245.564959 
L 351.841505 260.268806 
L 353.707335 247.012649 
L 355.573166 253.625749 
L 357.438997 254.480629 
L 359.304828 252.110941 
L 361.170658 252.59248 
L 363.036489 252.735361 
L 364.90232 253.931513 
L 366.76815 260.428453 
L 368.633981 256.099127 
L 370.499812 273.7887 
L 372.365643 254.446355 
L 374.231473 267.130818 
L 376.097304 269.038054 
L 377.963135 261.945686 
L 379.828966 268.97332 
L 381.694796 254.13592 
L 383.560627 260.851821 
L 385.426458 260.966849 
L 387.292288 249.618634 
L 389.158119 256.412325 
L 391.02395 254.909716 
L 392.889781 259.172251 
L 394.755611 252.708562 
L 396.621442 262.632079 
L 398.487273 253.900485 
L 398.487273 253.900485 
" style="fill:none;stroke:#7f7f7f;stroke-linecap:square;stroke-width:2;"/>
   </g>
   <g id="line2d_26">
    <path clip-path="url(#p020e433623)" d="M 73.832727 280.258509 
L 75.698558 270.017441 
L 77.564389 281.287683 
L 79.430219 276.926791 
L 81.29605 289.726468 
L 83.161881 273.361779 
L 85.027712 274.982277 
L 86.893542 282.332186 
L 88.759373 280.978474 
L 92.491034 272.537051 
L 94.356865 277.098908 
L 96.222696 285.461608 
L 98.088527 272.055787 
L 99.954357 283.605202 
L 101.820188 268.824107 
L 103.686019 282.770625 
L 105.55185 272.707311 
L 107.41768 271.650078 
L 109.283511 275.751037 
L 111.149342 268.887125 
L 113.015172 267.812334 
L 114.881003 268.069141 
L 116.746834 282.642246 
L 118.612665 280.713154 
L 120.478495 272.419436 
L 122.344326 275.666619 
L 124.210157 272.413184 
L 126.075987 268.740527 
L 127.941818 274.100122 
L 129.807649 267.586944 
L 131.67348 275.685302 
L 133.53931 266.134767 
L 135.405141 263.410422 
L 137.270972 267.094078 
L 139.136803 273.307491 
L 141.002633 265.84655 
L 142.868464 275.334929 
L 144.734295 275.088954 
L 146.600125 268.367204 
L 148.465956 274.320856 
L 150.331787 273.477319 
L 152.197618 269.900332 
L 154.063448 264.564265 
L 155.929279 264.114503 
L 157.79511 257.032772 
L 159.66094 265.056824 
L 161.526771 264.833323 
L 165.258433 267.272658 
L 167.124263 258.431926 
L 168.990094 268.782801 
L 170.855925 258.733356 
L 172.721755 261.128827 
L 174.587586 253.108273 
L 176.453417 255.708463 
L 178.319248 235.169535 
L 180.185078 246.131116 
L 182.050909 248.335023 
L 183.91674 251.379054 
L 185.782571 256.400681 
L 187.648401 255.794929 
L 189.514232 259.119767 
L 191.380063 268.055993 
L 193.245893 253.720941 
L 195.111724 255.976064 
L 196.977555 260.870679 
L 198.843386 252.382156 
L 200.709216 260.566094 
L 202.575047 253.536053 
L 204.440878 257.84367 
L 206.306708 255.821683 
L 208.172539 256.81855 
L 210.03837 262.71869 
L 211.904201 250.200049 
L 213.770031 257.381469 
L 215.635862 270.376051 
L 217.501693 251.006196 
L 219.367524 252.463162 
L 221.233354 253.501494 
L 223.099185 250.356091 
L 224.965016 249.270119 
L 226.830846 275.200977 
L 228.696677 251.125383 
L 230.562508 248.844839 
L 232.428339 243.658596 
L 234.294169 255.513988 
L 236.16 245.759722 
L 238.025831 253.84401 
L 239.891661 255.203227 
L 241.757492 246.917771 
L 243.623323 247.822897 
L 245.489154 259.130279 
L 247.354984 248.802955 
L 249.220815 248.75684 
L 251.086646 248.258019 
L 252.952476 245.47102 
L 254.818307 240.588885 
L 256.684138 242.593743 
L 258.549969 245.885501 
L 260.415799 256.175934 
L 262.28163 245.49246 
L 264.147461 243.197385 
L 266.013292 237.417329 
L 267.879122 242.309255 
L 269.744953 246.728413 
L 271.610784 249.944007 
L 275.342445 252.932999 
L 277.208276 259.529665 
L 279.074107 268.643434 
L 280.939937 257.065341 
L 282.805768 261.116455 
L 284.671599 267.941181 
L 286.537429 258.792465 
L 288.40326 264.695189 
L 290.269091 260.637718 
L 292.134922 269.061465 
L 294.000752 265.85074 
L 295.866583 263.453014 
L 297.732414 264.066396 
L 299.598245 258.752637 
L 301.464075 265.887045 
L 303.329906 260.924054 
L 305.195737 257.547217 
L 307.061567 257.011927 
L 308.927398 262.137375 
L 310.793229 258.565491 
L 312.65906 256.61713 
L 314.52489 254.191345 
L 316.390721 259.640769 
L 318.256552 268.504893 
L 320.122382 260.400299 
L 321.988213 253.262895 
L 323.854044 253.331047 
L 325.719875 253.089983 
L 327.585705 249.428728 
L 329.451536 264.082529 
L 331.317367 246.446531 
L 335.049028 255.250731 
L 336.914859 251.030568 
L 338.78069 253.295624 
L 340.64652 257.114226 
L 342.512351 251.772872 
L 344.378182 248.860909 
L 346.244013 251.803129 
L 348.109843 264.769616 
L 351.841505 251.319786 
L 353.707335 259.834383 
L 355.573166 255.7895 
L 357.438997 253.827612 
L 359.304828 260.522666 
L 361.170658 279.454885 
L 363.036489 260.751824 
L 364.90232 260.414262 
L 366.76815 260.782208 
L 368.633981 259.149101 
L 370.499812 265.784525 
L 372.365643 267.396765 
L 374.231473 262.552968 
L 376.097304 259.754938 
L 377.963135 262.674706 
L 379.828966 259.762547 
L 381.694796 262.449787 
L 383.560627 259.910098 
L 385.426458 251.873354 
L 387.292288 246.911015 
L 389.158119 261.042817 
L 391.02395 249.047426 
L 392.889781 255.391358 
L 394.755611 251.824438 
L 396.621442 256.247564 
L 398.487273 255.069751 
L 398.487273 255.069751 
" style="fill:none;stroke:#bcbd22;stroke-linecap:square;stroke-width:2;"/>
   </g>
   <g id="line2d_27">
    <path clip-path="url(#p020e433623)" d="M 73.832727 163.673421 
L 75.698558 163.607603 
L 77.564389 169.122657 
L 79.430219 166.176933 
L 81.29605 159.613871 
L 83.161881 157.359985 
L 85.027712 161.948319 
L 86.893542 163.007606 
L 88.759373 169.601392 
L 90.625204 159.296451 
L 92.491034 157.607079 
L 94.356865 162.856886 
L 96.222696 167.196414 
L 98.088527 168.697426 
L 99.954357 166.949635 
L 101.820188 161.111862 
L 103.686019 165.962298 
L 105.55185 162.843064 
L 107.41768 163.331844 
L 109.283511 164.524941 
L 111.149342 167.037473 
L 113.015172 158.101124 
L 114.881003 163.348754 
L 116.746834 171.043618 
L 118.612665 172.50843 
L 120.478495 168.043802 
L 122.344326 160.79839 
L 124.210157 162.857478 
L 126.075987 166.15983 
L 127.941818 164.442395 
L 129.807649 157.695925 
L 131.67348 159.068502 
L 133.53931 158.276884 
L 135.405141 163.355988 
L 137.270972 156.478051 
L 139.136803 159.968314 
L 141.002633 165.264013 
L 142.868464 165.476105 
L 144.734295 154.41222 
L 146.600125 167.071387 
L 148.465956 158.755571 
L 150.331787 171.043872 
L 154.063448 158.591348 
L 155.929279 160.838164 
L 157.79511 155.533742 
L 159.66094 158.339234 
L 161.526771 160.490469 
L 163.392602 156.380718 
L 165.258433 161.168304 
L 167.124263 166.579627 
L 168.990094 157.931512 
L 170.855925 157.73362 
L 172.721755 156.147093 
L 174.587586 152.991247 
L 176.453417 143.994269 
L 178.319248 162.377922 
L 180.185078 155.404423 
L 182.050909 138.920266 
L 183.91674 146.188826 
L 185.782571 148.363244 
L 187.648401 147.640468 
L 189.514232 144.098387 
L 191.380063 148.75999 
L 193.245893 164.582226 
L 195.111724 154.941001 
L 196.977555 159.410405 
L 198.843386 150.290166 
L 200.709216 151.14379 
L 202.575047 171.870848 
L 204.440878 149.750992 
L 206.306708 149.439379 
L 208.172539 147.596626 
L 210.03837 147.017885 
L 211.904201 166.708698 
L 213.770031 149.013001 
L 215.635862 157.417448 
L 217.501693 148.208043 
L 219.367524 156.621255 
L 221.233354 146.639794 
L 223.099185 149.994534 
L 224.965016 162.943285 
L 228.696677 145.894524 
L 230.562508 148.576594 
L 232.428339 150.450737 
L 234.294169 150.631448 
L 236.16 147.847961 
L 238.025831 151.90783 
L 239.891661 151.871757 
L 241.757492 146.820396 
L 243.623323 149.242813 
L 245.489154 147.788066 
L 247.354984 153.887702 
L 249.220815 156.596803 
L 251.086646 156.628384 
L 252.952476 153.044277 
L 254.818307 151.613673 
L 256.684138 168.979874 
L 258.549969 145.533483 
L 260.415799 143.276023 
L 262.28163 148.133662 
L 264.147461 150.083694 
L 266.013292 150.068973 
L 267.879122 155.16623 
L 269.744953 153.76606 
L 271.610784 153.752661 
L 273.476614 156.276206 
L 275.342445 159.254063 
L 277.208276 159.548292 
L 279.074107 174.248037 
L 280.939937 154.918358 
L 282.805768 147.655899 
L 284.671599 157.920239 
L 286.537429 157.987445 
L 288.40326 149.651436 
L 290.269091 158.47701 
L 292.134922 158.834661 
L 294.000752 157.139807 
L 295.866583 149.232147 
L 297.732414 137.828932 
L 299.598245 138.425088 
L 301.464075 137.288992 
L 303.329906 136.833481 
L 305.195737 138.487194 
L 307.061567 137.64319 
L 308.927398 136.158864 
L 312.65906 137.788573 
L 314.52489 140.800112 
L 316.390721 141.87086 
L 318.256552 145.129516 
L 320.122382 147.477597 
L 321.988213 143.710681 
L 323.854044 146.117705 
L 325.719875 147.705643 
L 327.585705 147.40604 
L 329.451536 138.0617 
L 331.317367 146.456236 
L 333.183197 144.8409 
L 335.049028 148.28226 
L 336.914859 140.757509 
L 338.78069 145.666067 
L 340.64652 151.206599 
L 342.512351 145.960826 
L 344.378182 145.7443 
L 346.244013 143.784496 
L 348.109843 154.702385 
L 349.975674 148.146018 
L 351.841505 143.540546 
L 353.707335 149.397651 
L 355.573166 153.036749 
L 357.438997 147.726413 
L 359.304828 146.170725 
L 361.170658 165.369532 
L 363.036489 153.904723 
L 364.90232 151.759685 
L 366.76815 173.619402 
L 368.633981 151.02646 
L 370.499812 160.924718 
L 372.365643 161.656722 
L 374.231473 159.749285 
L 376.097304 163.34108 
L 377.963135 170.377134 
L 379.828966 154.395594 
L 381.694796 159.954579 
L 383.560627 158.395781 
L 385.426458 157.591109 
L 387.292288 156.29522 
L 389.158119 161.261241 
L 391.02395 164.157258 
L 392.889781 154.790282 
L 394.755611 152.416448 
L 396.621442 156.48001 
L 398.487273 158.798864 
L 398.487273 158.798864 
" style="fill:none;stroke:#17becf;stroke-linecap:square;stroke-width:2;"/>
   </g>
   <g id="patch_3">
    <path d="M 57.6 307.584 
L 57.6 41.472 
" style="fill:none;stroke:#000000;stroke-linecap:square;stroke-linejoin:miter;stroke-width:0.8;"/>
   </g>
   <g id="patch_4">
    <path d="M 414.72 307.584 
L 414.72 41.472 
" style="fill:none;stroke:#000000;stroke-linecap:square;stroke-linejoin:miter;stroke-width:0.8;"/>
   </g>
   <g id="patch_5">
    <path d="M 57.6 307.584 
L 414.72 307.584 
" style="fill:none;stroke:#000000;stroke-linecap:square;stroke-linejoin:miter;stroke-width:0.8;"/>
   </g>
   <g id="patch_6">
    <path d="M 57.6 41.472 
L 414.72 41.472 
" style="fill:none;stroke:#000000;stroke-linecap:square;stroke-linejoin:miter;stroke-width:0.8;"/>
   </g>
   <g id="text_19">
    <!-- Transmission of different radius -->
    <g transform="translate(141.78375 35.472)scale(0.12 -0.12)">
     <defs>
      <path d="M -0.296875 72.90625 
L 61.375 72.90625 
L 61.375 64.59375 
L 35.5 64.59375 
L 35.5 0 
L 25.59375 0 
L 25.59375 64.59375 
L -0.296875 64.59375 
z
" id="DejaVuSans-84"/>
      <path d="M 30.609375 48.390625 
Q 23.390625 48.390625 19.1875 42.75 
Q 14.984375 37.109375 14.984375 27.296875 
Q 14.984375 17.484375 19.15625 11.84375 
Q 23.34375 6.203125 30.609375 6.203125 
Q 37.796875 6.203125 41.984375 11.859375 
Q 46.1875 17.53125 46.1875 27.296875 
Q 46.1875 37.015625 41.984375 42.703125 
Q 37.796875 48.390625 30.609375 48.390625 
z
M 30.609375 56 
Q 42.328125 56 49.015625 48.375 
Q 55.71875 40.765625 55.71875 27.296875 
Q 55.71875 13.875 49.015625 6.21875 
Q 42.328125 -1.421875 30.609375 -1.421875 
Q 18.84375 -1.421875 12.171875 6.21875 
Q 5.515625 13.875 5.515625 27.296875 
Q 5.515625 40.765625 12.171875 48.375 
Q 18.84375 56 30.609375 56 
z
" id="DejaVuSans-111"/>
      <path id="DejaVuSans-32"/>
      <path d="M 37.109375 75.984375 
L 37.109375 68.5 
L 28.515625 68.5 
Q 23.6875 68.5 21.796875 66.546875 
Q 19.921875 64.59375 19.921875 59.515625 
L 19.921875 54.6875 
L 34.71875 54.6875 
L 34.71875 47.703125 
L 19.921875 47.703125 
L 19.921875 0 
L 10.890625 0 
L 10.890625 47.703125 
L 2.296875 47.703125 
L 2.296875 54.6875 
L 10.890625 54.6875 
L 10.890625 58.5 
Q 10.890625 67.625 15.140625 71.796875 
Q 19.390625 75.984375 28.609375 75.984375 
z
" id="DejaVuSans-102"/>
      <path d="M 56.203125 29.59375 
L 56.203125 25.203125 
L 14.890625 25.203125 
Q 15.484375 15.921875 20.484375 11.0625 
Q 25.484375 6.203125 34.421875 6.203125 
Q 39.59375 6.203125 44.453125 7.46875 
Q 49.3125 8.734375 54.109375 11.28125 
L 54.109375 2.78125 
Q 49.265625 0.734375 44.1875 -0.34375 
Q 39.109375 -1.421875 33.890625 -1.421875 
Q 20.796875 -1.421875 13.15625 6.1875 
Q 5.515625 13.8125 5.515625 26.8125 
Q 5.515625 40.234375 12.765625 48.109375 
Q 20.015625 56 32.328125 56 
Q 43.359375 56 49.78125 48.890625 
Q 56.203125 41.796875 56.203125 29.59375 
z
M 47.21875 32.234375 
Q 47.125 39.59375 43.09375 43.984375 
Q 39.0625 48.390625 32.421875 48.390625 
Q 24.90625 48.390625 20.390625 44.140625 
Q 15.875 39.890625 15.1875 32.171875 
z
" id="DejaVuSans-101"/>
      <path d="M 18.3125 70.21875 
L 18.3125 54.6875 
L 36.8125 54.6875 
L 36.8125 47.703125 
L 18.3125 47.703125 
L 18.3125 18.015625 
Q 18.3125 11.328125 20.140625 9.421875 
Q 21.96875 7.515625 27.59375 7.515625 
L 36.8125 7.515625 
L 36.8125 0 
L 27.59375 0 
Q 17.1875 0 13.234375 3.875 
Q 9.28125 7.765625 9.28125 18.015625 
L 9.28125 47.703125 
L 2.6875 47.703125 
L 2.6875 54.6875 
L 9.28125 54.6875 
L 9.28125 70.21875 
z
" id="DejaVuSans-116"/>
     </defs>
     <use xlink:href="#DejaVuSans-84"/>
     <use x="46.333984" xlink:href="#DejaVuSans-114"/>
     <use x="87.447266" xlink:href="#DejaVuSans-97"/>
     <use x="148.726562" xlink:href="#DejaVuSans-110"/>
     <use x="212.105469" xlink:href="#DejaVuSans-115"/>
     <use x="264.205078" xlink:href="#DejaVuSans-109"/>
     <use x="361.617188" xlink:href="#DejaVuSans-105"/>
     <use x="389.400391" xlink:href="#DejaVuSans-115"/>
     <use x="441.5" xlink:href="#DejaVuSans-115"/>
     <use x="493.599609" xlink:href="#DejaVuSans-105"/>
     <use x="521.382812" xlink:href="#DejaVuSans-111"/>
     <use x="582.564453" xlink:href="#DejaVuSans-110"/>
     <use x="645.943359" xlink:href="#DejaVuSans-32"/>
     <use x="677.730469" xlink:href="#DejaVuSans-111"/>
     <use x="738.912109" xlink:href="#DejaVuSans-102"/>
     <use x="774.117188" xlink:href="#DejaVuSans-32"/>
     <use x="805.904297" xlink:href="#DejaVuSans-100"/>
     <use x="869.380859" xlink:href="#DejaVuSans-105"/>
     <use x="897.164062" xlink:href="#DejaVuSans-102"/>
     <use x="932.369141" xlink:href="#DejaVuSans-102"/>
     <use x="967.574219" xlink:href="#DejaVuSans-101"/>
     <use x="1029.097656" xlink:href="#DejaVuSans-114"/>
     <use x="1067.960938" xlink:href="#DejaVuSans-101"/>
     <use x="1129.484375" xlink:href="#DejaVuSans-110"/>
     <use x="1192.863281" xlink:href="#DejaVuSans-116"/>
     <use x="1232.072266" xlink:href="#DejaVuSans-32"/>
     <use x="1263.859375" xlink:href="#DejaVuSans-114"/>
     <use x="1304.972656" xlink:href="#DejaVuSans-97"/>
     <use x="1366.251953" xlink:href="#DejaVuSans-100"/>
     <use x="1429.728516" xlink:href="#DejaVuSans-105"/>
     <use x="1457.511719" xlink:href="#DejaVuSans-117"/>
     <use x="1520.890625" xlink:href="#DejaVuSans-115"/>
    </g>
   </g>
   <g id="legend_1">
    <g id="patch_7">
     <path d="M 64.6 249.418625 
L 109.325 249.418625 
Q 111.325 249.418625 111.325 247.418625 
L 111.325 101.637375 
Q 111.325 99.637375 109.325 99.637375 
L 64.6 99.637375 
Q 62.6 99.637375 62.6 101.637375 
L 62.6 247.418625 
Q 62.6 249.418625 64.6 249.418625 
z
" style="fill:#ffffff;opacity:0.8;stroke:#cccccc;stroke-linejoin:miter;"/>
    </g>
    <g id="line2d_28">
     <path d="M 66.6 107.735813 
L 86.6 107.735813 
" style="fill:none;stroke:#1f77b4;stroke-linecap:square;stroke-width:2;"/>
    </g>
    <g id="line2d_29"/>
    <g id="text_20">
     <!-- 0 -->
     <g transform="translate(94.6 111.235813)scale(0.1 -0.1)">
      <use xlink:href="#DejaVuSans-48"/>
     </g>
    </g>
    <g id="line2d_30">
     <path d="M 66.6 122.413938 
L 86.6 122.413938 
" style="fill:none;stroke:#ff7f0e;stroke-linecap:square;stroke-width:2;"/>
    </g>
    <g id="line2d_31"/>
    <g id="text_21">
     <!-- 10 -->
     <g transform="translate(94.6 125.913938)scale(0.1 -0.1)">
      <use xlink:href="#DejaVuSans-49"/>
      <use x="63.623047" xlink:href="#DejaVuSans-48"/>
     </g>
    </g>
    <g id="line2d_32">
     <path d="M 66.6 137.092063 
L 86.6 137.092063 
" style="fill:none;stroke:#2ca02c;stroke-linecap:square;stroke-width:2;"/>
    </g>
    <g id="line2d_33"/>
    <g id="text_22">
     <!-- 20 -->
     <g transform="translate(94.6 140.592063)scale(0.1 -0.1)">
      <use xlink:href="#DejaVuSans-50"/>
      <use x="63.623047" xlink:href="#DejaVuSans-48"/>
     </g>
    </g>
    <g id="line2d_34">
     <path d="M 66.6 151.770188 
L 86.6 151.770188 
" style="fill:none;stroke:#d62728;stroke-linecap:square;stroke-width:2;"/>
    </g>
    <g id="line2d_35"/>
    <g id="text_23">
     <!-- 30 -->
     <g transform="translate(94.6 155.270188)scale(0.1 -0.1)">
      <defs>
       <path d="M 40.578125 39.3125 
Q 47.65625 37.796875 51.625 33 
Q 55.609375 28.21875 55.609375 21.1875 
Q 55.609375 10.40625 48.1875 4.484375 
Q 40.765625 -1.421875 27.09375 -1.421875 
Q 22.515625 -1.421875 17.65625 -0.515625 
Q 12.796875 0.390625 7.625 2.203125 
L 7.625 11.71875 
Q 11.71875 9.328125 16.59375 8.109375 
Q 21.484375 6.890625 26.8125 6.890625 
Q 36.078125 6.890625 40.9375 10.546875 
Q 45.796875 14.203125 45.796875 21.1875 
Q 45.796875 27.640625 41.28125 31.265625 
Q 36.765625 34.90625 28.71875 34.90625 
L 20.21875 34.90625 
L 20.21875 43.015625 
L 29.109375 43.015625 
Q 36.375 43.015625 40.234375 45.921875 
Q 44.09375 48.828125 44.09375 54.296875 
Q 44.09375 59.90625 40.109375 62.90625 
Q 36.140625 65.921875 28.71875 65.921875 
Q 24.65625 65.921875 20.015625 65.03125 
Q 15.375 64.15625 9.8125 62.3125 
L 9.8125 71.09375 
Q 15.4375 72.65625 20.34375 73.4375 
Q 25.25 74.21875 29.59375 74.21875 
Q 40.828125 74.21875 47.359375 69.109375 
Q 53.90625 64.015625 53.90625 55.328125 
Q 53.90625 49.265625 50.4375 45.09375 
Q 46.96875 40.921875 40.578125 39.3125 
z
" id="DejaVuSans-51"/>
      </defs>
      <use xlink:href="#DejaVuSans-51"/>
      <use x="63.623047" xlink:href="#DejaVuSans-48"/>
     </g>
    </g>
    <g id="line2d_36">
     <path d="M 66.6 166.448313 
L 86.6 166.448313 
" style="fill:none;stroke:#9467bd;stroke-linecap:square;stroke-width:2;"/>
    </g>
    <g id="line2d_37"/>
    <g id="text_24">
     <!-- 40 -->
     <g transform="translate(94.6 169.948313)scale(0.1 -0.1)">
      <defs>
       <path d="M 37.796875 64.3125 
L 12.890625 25.390625 
L 37.796875 25.390625 
z
M 35.203125 72.90625 
L 47.609375 72.90625 
L 47.609375 25.390625 
L 58.015625 25.390625 
L 58.015625 17.1875 
L 47.609375 17.1875 
L 47.609375 0 
L 37.796875 0 
L 37.796875 17.1875 
L 4.890625 17.1875 
L 4.890625 26.703125 
z
" id="DejaVuSans-52"/>
      </defs>
      <use xlink:href="#DejaVuSans-52"/>
      <use x="63.623047" xlink:href="#DejaVuSans-48"/>
     </g>
    </g>
    <g id="line2d_38">
     <path d="M 66.6 181.126438 
L 86.6 181.126438 
" style="fill:none;stroke:#8c564b;stroke-linecap:square;stroke-width:2;"/>
    </g>
    <g id="line2d_39"/>
    <g id="text_25">
     <!-- 50 -->
     <g transform="translate(94.6 184.626438)scale(0.1 -0.1)">
      <use xlink:href="#DejaVuSans-53"/>
      <use x="63.623047" xlink:href="#DejaVuSans-48"/>
     </g>
    </g>
    <g id="line2d_40">
     <path d="M 66.6 195.804563 
L 86.6 195.804563 
" style="fill:none;stroke:#e377c2;stroke-linecap:square;stroke-width:2;"/>
    </g>
    <g id="line2d_41"/>
    <g id="text_26">
     <!-- 60 -->
     <g transform="translate(94.6 199.304563)scale(0.1 -0.1)">
      <defs>
       <path d="M 33.015625 40.375 
Q 26.375 40.375 22.484375 35.828125 
Q 18.609375 31.296875 18.609375 23.390625 
Q 18.609375 15.53125 22.484375 10.953125 
Q 26.375 6.390625 33.015625 6.390625 
Q 39.65625 6.390625 43.53125 10.953125 
Q 47.40625 15.53125 47.40625 23.390625 
Q 47.40625 31.296875 43.53125 35.828125 
Q 39.65625 40.375 33.015625 40.375 
z
M 52.59375 71.296875 
L 52.59375 62.3125 
Q 48.875 64.0625 45.09375 64.984375 
Q 41.3125 65.921875 37.59375 65.921875 
Q 27.828125 65.921875 22.671875 59.328125 
Q 17.53125 52.734375 16.796875 39.40625 
Q 19.671875 43.65625 24.015625 45.921875 
Q 28.375 48.1875 33.59375 48.1875 
Q 44.578125 48.1875 50.953125 41.515625 
Q 57.328125 34.859375 57.328125 23.390625 
Q 57.328125 12.15625 50.6875 5.359375 
Q 44.046875 -1.421875 33.015625 -1.421875 
Q 20.359375 -1.421875 13.671875 8.265625 
Q 6.984375 17.96875 6.984375 36.375 
Q 6.984375 53.65625 15.1875 63.9375 
Q 23.390625 74.21875 37.203125 74.21875 
Q 40.921875 74.21875 44.703125 73.484375 
Q 48.484375 72.75 52.59375 71.296875 
z
" id="DejaVuSans-54"/>
      </defs>
      <use xlink:href="#DejaVuSans-54"/>
      <use x="63.623047" xlink:href="#DejaVuSans-48"/>
     </g>
    </g>
    <g id="line2d_42">
     <path d="M 66.6 210.482687 
L 86.6 210.482687 
" style="fill:none;stroke:#7f7f7f;stroke-linecap:square;stroke-width:2;"/>
    </g>
    <g id="line2d_43"/>
    <g id="text_27">
     <!-- 70 -->
     <g transform="translate(94.6 213.982687)scale(0.1 -0.1)">
      <use xlink:href="#DejaVuSans-55"/>
      <use x="63.623047" xlink:href="#DejaVuSans-48"/>
     </g>
    </g>
    <g id="line2d_44">
     <path d="M 66.6 225.160813 
L 86.6 225.160813 
" style="fill:none;stroke:#bcbd22;stroke-linecap:square;stroke-width:2;"/>
    </g>
    <g id="line2d_45"/>
    <g id="text_28">
     <!-- 80 -->
     <g transform="translate(94.6 228.660813)scale(0.1 -0.1)">
      <defs>
       <path d="M 31.78125 34.625 
Q 24.75 34.625 20.71875 30.859375 
Q 16.703125 27.09375 16.703125 20.515625 
Q 16.703125 13.921875 20.71875 10.15625 
Q 24.75 6.390625 31.78125 6.390625 
Q 38.8125 6.390625 42.859375 10.171875 
Q 46.921875 13.96875 46.921875 20.515625 
Q 46.921875 27.09375 42.890625 30.859375 
Q 38.875 34.625 31.78125 34.625 
z
M 21.921875 38.8125 
Q 15.578125 40.375 12.03125 44.71875 
Q 8.5 49.078125 8.5 55.328125 
Q 8.5 64.0625 14.71875 69.140625 
Q 20.953125 74.21875 31.78125 74.21875 
Q 42.671875 74.21875 48.875 69.140625 
Q 55.078125 64.0625 55.078125 55.328125 
Q 55.078125 49.078125 51.53125 44.71875 
Q 48 40.375 41.703125 38.8125 
Q 48.828125 37.15625 52.796875 32.3125 
Q 56.78125 27.484375 56.78125 20.515625 
Q 56.78125 9.90625 50.3125 4.234375 
Q 43.84375 -1.421875 31.78125 -1.421875 
Q 19.734375 -1.421875 13.25 4.234375 
Q 6.78125 9.90625 6.78125 20.515625 
Q 6.78125 27.484375 10.78125 32.3125 
Q 14.796875 37.15625 21.921875 38.8125 
z
M 18.3125 54.390625 
Q 18.3125 48.734375 21.84375 45.5625 
Q 25.390625 42.390625 31.78125 42.390625 
Q 38.140625 42.390625 41.71875 45.5625 
Q 45.3125 48.734375 45.3125 54.390625 
Q 45.3125 60.0625 41.71875 63.234375 
Q 38.140625 66.40625 31.78125 66.40625 
Q 25.390625 66.40625 21.84375 63.234375 
Q 18.3125 60.0625 18.3125 54.390625 
z
" id="DejaVuSans-56"/>
      </defs>
      <use xlink:href="#DejaVuSans-56"/>
      <use x="63.623047" xlink:href="#DejaVuSans-48"/>
     </g>
    </g>
    <g id="line2d_46">
     <path d="M 66.6 239.838937 
L 86.6 239.838937 
" style="fill:none;stroke:#17becf;stroke-linecap:square;stroke-width:2;"/>
    </g>
    <g id="line2d_47"/>
    <g id="text_29">
     <!-- 90 -->
     <g transform="translate(94.6 243.338937)scale(0.1 -0.1)">
      <defs>
       <path d="M 10.984375 1.515625 
L 10.984375 10.5 
Q 14.703125 8.734375 18.5 7.8125 
Q 22.3125 6.890625 25.984375 6.890625 
Q 35.75 6.890625 40.890625 13.453125 
Q 46.046875 20.015625 46.78125 33.40625 
Q 43.953125 29.203125 39.59375 26.953125 
Q 35.25 24.703125 29.984375 24.703125 
Q 19.046875 24.703125 12.671875 31.3125 
Q 6.296875 37.9375 6.296875 49.421875 
Q 6.296875 60.640625 12.9375 67.421875 
Q 19.578125 74.21875 30.609375 74.21875 
Q 43.265625 74.21875 49.921875 64.515625 
Q 56.59375 54.828125 56.59375 36.375 
Q 56.59375 19.140625 48.40625 8.859375 
Q 40.234375 -1.421875 26.421875 -1.421875 
Q 22.703125 -1.421875 18.890625 -0.6875 
Q 15.09375 0.046875 10.984375 1.515625 
z
M 30.609375 32.421875 
Q 37.25 32.421875 41.125 36.953125 
Q 45.015625 41.5 45.015625 49.421875 
Q 45.015625 57.28125 41.125 61.84375 
Q 37.25 66.40625 30.609375 66.40625 
Q 23.96875 66.40625 20.09375 61.84375 
Q 16.21875 57.28125 16.21875 49.421875 
Q 16.21875 41.5 20.09375 36.953125 
Q 23.96875 32.421875 30.609375 32.421875 
z
" id="DejaVuSans-57"/>
      </defs>
      <use xlink:href="#DejaVuSans-57"/>
      <use x="63.623047" xlink:href="#DejaVuSans-48"/>
     </g>
    </g>
   </g>
  </g>
 </g>
 <defs>
  <clipPath id="p020e433623">
   <rect height="266.112" width="357.12" x="57.6" y="41.472"/>
  </clipPath>
 </defs>
</svg>
