<?xml version="1.0" encoding="utf-8" standalone="no"?>
<!DOCTYPE svg PUBLIC "-//W3C//DTD SVG 1.1//EN"
  "http://www.w3.org/Graphics/SVG/1.1/DTD/svg11.dtd">
<!-- Created with matplotlib (https://matplotlib.org/) -->
<svg height="345.6pt" version="1.1" viewBox="0 0 460.8 345.6" width="460.8pt" xmlns="http://www.w3.org/2000/svg" xmlns:xlink="http://www.w3.org/1999/xlink">
 <metadata>
  <rdf:RDF xmlns:cc="http://creativecommons.org/ns#" xmlns:dc="http://purl.org/dc/elements/1.1/" xmlns:rdf="http://www.w3.org/1999/02/22-rdf-syntax-ns#">
   <cc:Work>
    <dc:type rdf:resource="http://purl.org/dc/dcmitype/StillImage"/>
    <dc:date>2022-01-07T14:59:08.380720</dc:date>
    <dc:format>image/svg+xml</dc:format>
    <dc:creator>
     <cc:Agent>
      <dc:title>Matplotlib v3.3.3, https://matplotlib.org/</dc:title>
     </cc:Agent>
    </dc:creator>
   </cc:Work>
  </rdf:RDF>
 </metadata>
 <defs>
  <style type="text/css">*{stroke-linecap:butt;stroke-linejoin:round;}</style>
 </defs>
 <g id="figure_1">
  <g id="patch_1">
   <path d="M 0 345.6 
L 460.8 345.6 
L 460.8 0 
L 0 0 
z
" style="fill:#ffffff;"/>
  </g>
  <g id="axes_1">
   <g id="patch_2">
    <path d="M 57.6 307.584 
L 414.72 307.584 
L 414.72 41.472 
L 57.6 41.472 
z
" style="fill:#ffffff;"/>
   </g>
   <g id="matplotlib.axis_1">
    <g id="xtick_1">
     <g id="line2d_1">
      <defs>
       <path d="M 0 0 
L 0 3.5 
" id="mc1df65534e" style="stroke:#000000;stroke-width:0.8;"/>
      </defs>
      <g>
       <use style="stroke:#000000;stroke-width:0.8;" x="73.832727" xlink:href="#mc1df65534e" y="307.584"/>
      </g>
     </g>
     <g id="text_1">
      <!-- 100 -->
      <g transform="translate(64.288977 322.182437)scale(0.1 -0.1)">
       <defs>
        <path d="M 12.40625 8.296875 
L 28.515625 8.296875 
L 28.515625 63.921875 
L 10.984375 60.40625 
L 10.984375 69.390625 
L 28.421875 72.90625 
L 38.28125 72.90625 
L 38.28125 8.296875 
L 54.390625 8.296875 
L 54.390625 0 
L 12.40625 0 
z
" id="DejaVuSans-49"/>
        <path d="M 31.78125 66.40625 
Q 24.171875 66.40625 20.328125 58.90625 
Q 16.5 51.421875 16.5 36.375 
Q 16.5 21.390625 20.328125 13.890625 
Q 24.171875 6.390625 31.78125 6.390625 
Q 39.453125 6.390625 43.28125 13.890625 
Q 47.125 21.390625 47.125 36.375 
Q 47.125 51.421875 43.28125 58.90625 
Q 39.453125 66.40625 31.78125 66.40625 
z
M 31.78125 74.21875 
Q 44.046875 74.21875 50.515625 64.515625 
Q 56.984375 54.828125 56.984375 36.375 
Q 56.984375 17.96875 50.515625 8.265625 
Q 44.046875 -1.421875 31.78125 -1.421875 
Q 19.53125 -1.421875 13.0625 8.265625 
Q 6.59375 17.96875 6.59375 36.375 
Q 6.59375 54.828125 13.0625 64.515625 
Q 19.53125 74.21875 31.78125 74.21875 
z
" id="DejaVuSans-48"/>
       </defs>
       <use xlink:href="#DejaVuSans-49"/>
       <use x="63.623047" xlink:href="#DejaVuSans-48"/>
       <use x="127.246094" xlink:href="#DejaVuSans-48"/>
      </g>
     </g>
    </g>
    <g id="xtick_2">
     <g id="line2d_2">
      <g>
       <use style="stroke:#000000;stroke-width:0.8;" x="120.478495" xlink:href="#mc1df65534e" y="307.584"/>
      </g>
     </g>
     <g id="text_2">
      <!-- 125 -->
      <g transform="translate(110.934745 322.182437)scale(0.1 -0.1)">
       <defs>
        <path d="M 19.1875 8.296875 
L 53.609375 8.296875 
L 53.609375 0 
L 7.328125 0 
L 7.328125 8.296875 
Q 12.9375 14.109375 22.625 23.890625 
Q 32.328125 33.6875 34.8125 36.53125 
Q 39.546875 41.84375 41.421875 45.53125 
Q 43.3125 49.21875 43.3125 52.78125 
Q 43.3125 58.59375 39.234375 62.25 
Q 35.15625 65.921875 28.609375 65.921875 
Q 23.96875 65.921875 18.8125 64.3125 
Q 13.671875 62.703125 7.8125 59.421875 
L 7.8125 69.390625 
Q 13.765625 71.78125 18.9375 73 
Q 24.125 74.21875 28.421875 74.21875 
Q 39.75 74.21875 46.484375 68.546875 
Q 53.21875 62.890625 53.21875 53.421875 
Q 53.21875 48.921875 51.53125 44.890625 
Q 49.859375 40.875 45.40625 35.40625 
Q 44.1875 33.984375 37.640625 27.21875 
Q 31.109375 20.453125 19.1875 8.296875 
z
" id="DejaVuSans-50"/>
        <path d="M 10.796875 72.90625 
L 49.515625 72.90625 
L 49.515625 64.59375 
L 19.828125 64.59375 
L 19.828125 46.734375 
Q 21.96875 47.46875 24.109375 47.828125 
Q 26.265625 48.1875 28.421875 48.1875 
Q 40.625 48.1875 47.75 41.5 
Q 54.890625 34.8125 54.890625 23.390625 
Q 54.890625 11.625 47.5625 5.09375 
Q 40.234375 -1.421875 26.90625 -1.421875 
Q 22.3125 -1.421875 17.546875 -0.640625 
Q 12.796875 0.140625 7.71875 1.703125 
L 7.71875 11.625 
Q 12.109375 9.234375 16.796875 8.0625 
Q 21.484375 6.890625 26.703125 6.890625 
Q 35.15625 6.890625 40.078125 11.328125 
Q 45.015625 15.765625 45.015625 23.390625 
Q 45.015625 31 40.078125 35.4375 
Q 35.15625 39.890625 26.703125 39.890625 
Q 22.75 39.890625 18.8125 39.015625 
Q 14.890625 38.140625 10.796875 36.28125 
z
" id="DejaVuSans-53"/>
       </defs>
       <use xlink:href="#DejaVuSans-49"/>
       <use x="63.623047" xlink:href="#DejaVuSans-50"/>
       <use x="127.246094" xlink:href="#DejaVuSans-53"/>
      </g>
     </g>
    </g>
    <g id="xtick_3">
     <g id="line2d_3">
      <g>
       <use style="stroke:#000000;stroke-width:0.8;" x="167.124263" xlink:href="#mc1df65534e" y="307.584"/>
      </g>
     </g>
     <g id="text_3">
      <!-- 150 -->
      <g transform="translate(157.580513 322.182437)scale(0.1 -0.1)">
       <use xlink:href="#DejaVuSans-49"/>
       <use x="63.623047" xlink:href="#DejaVuSans-53"/>
       <use x="127.246094" xlink:href="#DejaVuSans-48"/>
      </g>
     </g>
    </g>
    <g id="xtick_4">
     <g id="line2d_4">
      <g>
       <use style="stroke:#000000;stroke-width:0.8;" x="213.770031" xlink:href="#mc1df65534e" y="307.584"/>
      </g>
     </g>
     <g id="text_4">
      <!-- 175 -->
      <g transform="translate(204.226281 322.182437)scale(0.1 -0.1)">
       <defs>
        <path d="M 8.203125 72.90625 
L 55.078125 72.90625 
L 55.078125 68.703125 
L 28.609375 0 
L 18.3125 0 
L 43.21875 64.59375 
L 8.203125 64.59375 
z
" id="DejaVuSans-55"/>
       </defs>
       <use xlink:href="#DejaVuSans-49"/>
       <use x="63.623047" xlink:href="#DejaVuSans-55"/>
       <use x="127.246094" xlink:href="#DejaVuSans-53"/>
      </g>
     </g>
    </g>
    <g id="xtick_5">
     <g id="line2d_5">
      <g>
       <use style="stroke:#000000;stroke-width:0.8;" x="260.415799" xlink:href="#mc1df65534e" y="307.584"/>
      </g>
     </g>
     <g id="text_5">
      <!-- 200 -->
      <g transform="translate(250.872049 322.182437)scale(0.1 -0.1)">
       <use xlink:href="#DejaVuSans-50"/>
       <use x="63.623047" xlink:href="#DejaVuSans-48"/>
       <use x="127.246094" xlink:href="#DejaVuSans-48"/>
      </g>
     </g>
    </g>
    <g id="xtick_6">
     <g id="line2d_6">
      <g>
       <use style="stroke:#000000;stroke-width:0.8;" x="307.061567" xlink:href="#mc1df65534e" y="307.584"/>
      </g>
     </g>
     <g id="text_6">
      <!-- 225 -->
      <g transform="translate(297.517817 322.182437)scale(0.1 -0.1)">
       <use xlink:href="#DejaVuSans-50"/>
       <use x="63.623047" xlink:href="#DejaVuSans-50"/>
       <use x="127.246094" xlink:href="#DejaVuSans-53"/>
      </g>
     </g>
    </g>
    <g id="xtick_7">
     <g id="line2d_7">
      <g>
       <use style="stroke:#000000;stroke-width:0.8;" x="353.707335" xlink:href="#mc1df65534e" y="307.584"/>
      </g>
     </g>
     <g id="text_7">
      <!-- 250 -->
      <g transform="translate(344.163585 322.182437)scale(0.1 -0.1)">
       <use xlink:href="#DejaVuSans-50"/>
       <use x="63.623047" xlink:href="#DejaVuSans-53"/>
       <use x="127.246094" xlink:href="#DejaVuSans-48"/>
      </g>
     </g>
    </g>
    <g id="xtick_8">
     <g id="line2d_8">
      <g>
       <use style="stroke:#000000;stroke-width:0.8;" x="400.353103" xlink:href="#mc1df65534e" y="307.584"/>
      </g>
     </g>
     <g id="text_8">
      <!-- 275 -->
      <g transform="translate(390.809353 322.182437)scale(0.1 -0.1)">
       <use xlink:href="#DejaVuSans-50"/>
       <use x="63.623047" xlink:href="#DejaVuSans-55"/>
       <use x="127.246094" xlink:href="#DejaVuSans-53"/>
      </g>
     </g>
    </g>
    <g id="text_9">
     <!-- radius(nm) -->
     <g transform="translate(208.763125 335.860562)scale(0.1 -0.1)">
      <defs>
       <path d="M 41.109375 46.296875 
Q 39.59375 47.171875 37.8125 47.578125 
Q 36.03125 48 33.890625 48 
Q 26.265625 48 22.1875 43.046875 
Q 18.109375 38.09375 18.109375 28.8125 
L 18.109375 0 
L 9.078125 0 
L 9.078125 54.6875 
L 18.109375 54.6875 
L 18.109375 46.1875 
Q 20.953125 51.171875 25.484375 53.578125 
Q 30.03125 56 36.53125 56 
Q 37.453125 56 38.578125 55.875 
Q 39.703125 55.765625 41.0625 55.515625 
z
" id="DejaVuSans-114"/>
       <path d="M 34.28125 27.484375 
Q 23.390625 27.484375 19.1875 25 
Q 14.984375 22.515625 14.984375 16.5 
Q 14.984375 11.71875 18.140625 8.90625 
Q 21.296875 6.109375 26.703125 6.109375 
Q 34.1875 6.109375 38.703125 11.40625 
Q 43.21875 16.703125 43.21875 25.484375 
L 43.21875 27.484375 
z
M 52.203125 31.203125 
L 52.203125 0 
L 43.21875 0 
L 43.21875 8.296875 
Q 40.140625 3.328125 35.546875 0.953125 
Q 30.953125 -1.421875 24.3125 -1.421875 
Q 15.921875 -1.421875 10.953125 3.296875 
Q 6 8.015625 6 15.921875 
Q 6 25.140625 12.171875 29.828125 
Q 18.359375 34.515625 30.609375 34.515625 
L 43.21875 34.515625 
L 43.21875 35.40625 
Q 43.21875 41.609375 39.140625 45 
Q 35.0625 48.390625 27.6875 48.390625 
Q 23 48.390625 18.546875 47.265625 
Q 14.109375 46.140625 10.015625 43.890625 
L 10.015625 52.203125 
Q 14.9375 54.109375 19.578125 55.046875 
Q 24.21875 56 28.609375 56 
Q 40.484375 56 46.34375 49.84375 
Q 52.203125 43.703125 52.203125 31.203125 
z
" id="DejaVuSans-97"/>
       <path d="M 45.40625 46.390625 
L 45.40625 75.984375 
L 54.390625 75.984375 
L 54.390625 0 
L 45.40625 0 
L 45.40625 8.203125 
Q 42.578125 3.328125 38.25 0.953125 
Q 33.9375 -1.421875 27.875 -1.421875 
Q 17.96875 -1.421875 11.734375 6.484375 
Q 5.515625 14.40625 5.515625 27.296875 
Q 5.515625 40.1875 11.734375 48.09375 
Q 17.96875 56 27.875 56 
Q 33.9375 56 38.25 53.625 
Q 42.578125 51.265625 45.40625 46.390625 
z
M 14.796875 27.296875 
Q 14.796875 17.390625 18.875 11.75 
Q 22.953125 6.109375 30.078125 6.109375 
Q 37.203125 6.109375 41.296875 11.75 
Q 45.40625 17.390625 45.40625 27.296875 
Q 45.40625 37.203125 41.296875 42.84375 
Q 37.203125 48.484375 30.078125 48.484375 
Q 22.953125 48.484375 18.875 42.84375 
Q 14.796875 37.203125 14.796875 27.296875 
z
" id="DejaVuSans-100"/>
       <path d="M 9.421875 54.6875 
L 18.40625 54.6875 
L 18.40625 0 
L 9.421875 0 
z
M 9.421875 75.984375 
L 18.40625 75.984375 
L 18.40625 64.59375 
L 9.421875 64.59375 
z
" id="DejaVuSans-105"/>
       <path d="M 8.5 21.578125 
L 8.5 54.6875 
L 17.484375 54.6875 
L 17.484375 21.921875 
Q 17.484375 14.15625 20.5 10.265625 
Q 23.53125 6.390625 29.59375 6.390625 
Q 36.859375 6.390625 41.078125 11.03125 
Q 45.3125 15.671875 45.3125 23.6875 
L 45.3125 54.6875 
L 54.296875 54.6875 
L 54.296875 0 
L 45.3125 0 
L 45.3125 8.40625 
Q 42.046875 3.421875 37.71875 1 
Q 33.40625 -1.421875 27.6875 -1.421875 
Q 18.265625 -1.421875 13.375 4.4375 
Q 8.5 10.296875 8.5 21.578125 
z
M 31.109375 56 
z
" id="DejaVuSans-117"/>
       <path d="M 44.28125 53.078125 
L 44.28125 44.578125 
Q 40.484375 46.53125 36.375 47.5 
Q 32.28125 48.484375 27.875 48.484375 
Q 21.1875 48.484375 17.84375 46.4375 
Q 14.5 44.390625 14.5 40.28125 
Q 14.5 37.15625 16.890625 35.375 
Q 19.28125 33.59375 26.515625 31.984375 
L 29.59375 31.296875 
Q 39.15625 29.25 43.1875 25.515625 
Q 47.21875 21.78125 47.21875 15.09375 
Q 47.21875 7.46875 41.1875 3.015625 
Q 35.15625 -1.421875 24.609375 -1.421875 
Q 20.21875 -1.421875 15.453125 -0.5625 
Q 10.6875 0.296875 5.421875 2 
L 5.421875 11.28125 
Q 10.40625 8.6875 15.234375 7.390625 
Q 20.0625 6.109375 24.8125 6.109375 
Q 31.15625 6.109375 34.5625 8.28125 
Q 37.984375 10.453125 37.984375 14.40625 
Q 37.984375 18.0625 35.515625 20.015625 
Q 33.0625 21.96875 24.703125 23.78125 
L 21.578125 24.515625 
Q 13.234375 26.265625 9.515625 29.90625 
Q 5.8125 33.546875 5.8125 39.890625 
Q 5.8125 47.609375 11.28125 51.796875 
Q 16.75 56 26.8125 56 
Q 31.78125 56 36.171875 55.265625 
Q 40.578125 54.546875 44.28125 53.078125 
z
" id="DejaVuSans-115"/>
       <path d="M 31 75.875 
Q 24.46875 64.65625 21.28125 53.65625 
Q 18.109375 42.671875 18.109375 31.390625 
Q 18.109375 20.125 21.3125 9.0625 
Q 24.515625 -2 31 -13.1875 
L 23.1875 -13.1875 
Q 15.875 -1.703125 12.234375 9.375 
Q 8.59375 20.453125 8.59375 31.390625 
Q 8.59375 42.28125 12.203125 53.3125 
Q 15.828125 64.359375 23.1875 75.875 
z
" id="DejaVuSans-40"/>
       <path d="M 54.890625 33.015625 
L 54.890625 0 
L 45.90625 0 
L 45.90625 32.71875 
Q 45.90625 40.484375 42.875 44.328125 
Q 39.84375 48.1875 33.796875 48.1875 
Q 26.515625 48.1875 22.3125 43.546875 
Q 18.109375 38.921875 18.109375 30.90625 
L 18.109375 0 
L 9.078125 0 
L 9.078125 54.6875 
L 18.109375 54.6875 
L 18.109375 46.1875 
Q 21.34375 51.125 25.703125 53.5625 
Q 30.078125 56 35.796875 56 
Q 45.21875 56 50.046875 50.171875 
Q 54.890625 44.34375 54.890625 33.015625 
z
" id="DejaVuSans-110"/>
       <path d="M 52 44.1875 
Q 55.375 50.25 60.0625 53.125 
Q 64.75 56 71.09375 56 
Q 79.640625 56 84.28125 50.015625 
Q 88.921875 44.046875 88.921875 33.015625 
L 88.921875 0 
L 79.890625 0 
L 79.890625 32.71875 
Q 79.890625 40.578125 77.09375 44.375 
Q 74.3125 48.1875 68.609375 48.1875 
Q 61.625 48.1875 57.5625 43.546875 
Q 53.515625 38.921875 53.515625 30.90625 
L 53.515625 0 
L 44.484375 0 
L 44.484375 32.71875 
Q 44.484375 40.625 41.703125 44.40625 
Q 38.921875 48.1875 33.109375 48.1875 
Q 26.21875 48.1875 22.15625 43.53125 
Q 18.109375 38.875 18.109375 30.90625 
L 18.109375 0 
L 9.078125 0 
L 9.078125 54.6875 
L 18.109375 54.6875 
L 18.109375 46.1875 
Q 21.1875 51.21875 25.484375 53.609375 
Q 29.78125 56 35.6875 56 
Q 41.65625 56 45.828125 52.96875 
Q 50 49.953125 52 44.1875 
z
" id="DejaVuSans-109"/>
       <path d="M 8.015625 75.875 
L 15.828125 75.875 
Q 23.140625 64.359375 26.78125 53.3125 
Q 30.421875 42.28125 30.421875 31.390625 
Q 30.421875 20.453125 26.78125 9.375 
Q 23.140625 -1.703125 15.828125 -13.1875 
L 8.015625 -13.1875 
Q 14.5 -2 17.703125 9.0625 
Q 20.90625 20.125 20.90625 31.390625 
Q 20.90625 42.671875 17.703125 53.65625 
Q 14.5 64.65625 8.015625 75.875 
z
" id="DejaVuSans-41"/>
      </defs>
      <use xlink:href="#DejaVuSans-114"/>
      <use x="41.113281" xlink:href="#DejaVuSans-97"/>
      <use x="102.392578" xlink:href="#DejaVuSans-100"/>
      <use x="165.869141" xlink:href="#DejaVuSans-105"/>
      <use x="193.652344" xlink:href="#DejaVuSans-117"/>
      <use x="257.03125" xlink:href="#DejaVuSans-115"/>
      <use x="309.130859" xlink:href="#DejaVuSans-40"/>
      <use x="348.144531" xlink:href="#DejaVuSans-110"/>
      <use x="411.523438" xlink:href="#DejaVuSans-109"/>
      <use x="508.935547" xlink:href="#DejaVuSans-41"/>
     </g>
    </g>
   </g>
   <g id="matplotlib.axis_2">
    <g id="ytick_1">
     <g id="line2d_9">
      <defs>
       <path d="M 0 0 
L -3.5 0 
" id="m6e5d909e87" style="stroke:#000000;stroke-width:0.8;"/>
      </defs>
      <g>
       <use style="stroke:#000000;stroke-width:0.8;" x="57.6" xlink:href="#m6e5d909e87" y="267.93944"/>
      </g>
     </g>
     <g id="text_10">
      <!-- −25 -->
      <g transform="translate(29.495313 271.738658)scale(0.1 -0.1)">
       <defs>
        <path d="M 10.59375 35.5 
L 73.1875 35.5 
L 73.1875 27.203125 
L 10.59375 27.203125 
z
" id="DejaVuSans-8722"/>
       </defs>
       <use xlink:href="#DejaVuSans-8722"/>
       <use x="83.789062" xlink:href="#DejaVuSans-50"/>
       <use x="147.412109" xlink:href="#DejaVuSans-53"/>
      </g>
     </g>
    </g>
    <g id="ytick_2">
     <g id="line2d_10">
      <g>
       <use style="stroke:#000000;stroke-width:0.8;" x="57.6" xlink:href="#m6e5d909e87" y="225.064722"/>
      </g>
     </g>
     <g id="text_11">
      <!-- −20 -->
      <g transform="translate(29.495313 228.863941)scale(0.1 -0.1)">
       <use xlink:href="#DejaVuSans-8722"/>
       <use x="83.789062" xlink:href="#DejaVuSans-50"/>
       <use x="147.412109" xlink:href="#DejaVuSans-48"/>
      </g>
     </g>
    </g>
    <g id="ytick_3">
     <g id="line2d_11">
      <g>
       <use style="stroke:#000000;stroke-width:0.8;" x="57.6" xlink:href="#m6e5d909e87" y="182.190004"/>
      </g>
     </g>
     <g id="text_12">
      <!-- −15 -->
      <g transform="translate(29.495313 185.989223)scale(0.1 -0.1)">
       <use xlink:href="#DejaVuSans-8722"/>
       <use x="83.789062" xlink:href="#DejaVuSans-49"/>
       <use x="147.412109" xlink:href="#DejaVuSans-53"/>
      </g>
     </g>
    </g>
    <g id="ytick_4">
     <g id="line2d_12">
      <g>
       <use style="stroke:#000000;stroke-width:0.8;" x="57.6" xlink:href="#m6e5d909e87" y="139.315286"/>
      </g>
     </g>
     <g id="text_13">
      <!-- −10 -->
      <g transform="translate(29.495313 143.114505)scale(0.1 -0.1)">
       <use xlink:href="#DejaVuSans-8722"/>
       <use x="83.789062" xlink:href="#DejaVuSans-49"/>
       <use x="147.412109" xlink:href="#DejaVuSans-48"/>
      </g>
     </g>
    </g>
    <g id="ytick_5">
     <g id="line2d_13">
      <g>
       <use style="stroke:#000000;stroke-width:0.8;" x="57.6" xlink:href="#m6e5d909e87" y="96.440569"/>
      </g>
     </g>
     <g id="text_14">
      <!-- −5 -->
      <g transform="translate(35.857813 100.239787)scale(0.1 -0.1)">
       <use xlink:href="#DejaVuSans-8722"/>
       <use x="83.789062" xlink:href="#DejaVuSans-53"/>
      </g>
     </g>
    </g>
    <g id="ytick_6">
     <g id="line2d_14">
      <g>
       <use style="stroke:#000000;stroke-width:0.8;" x="57.6" xlink:href="#m6e5d909e87" y="53.565851"/>
      </g>
     </g>
     <g id="text_15">
      <!-- 0 -->
      <g transform="translate(44.2375 57.36507)scale(0.1 -0.1)">
       <use xlink:href="#DejaVuSans-48"/>
      </g>
     </g>
    </g>
   </g>
   <g id="line2d_15">
    <path clip-path="url(#pfa8bc87f87)" d="M 73.832727 53.622755 
L 178.319248 53.648129 
L 226.830846 53.814513 
L 269.744953 53.659794 
L 275.342445 53.753791 
L 277.208276 53.849086 
L 279.074107 54.059196 
L 280.939937 54.646101 
L 282.805768 57.162669 
L 284.671599 68.270448 
L 286.537429 56.038987 
L 288.40326 54.503571 
L 290.269091 54.064266 
L 294.000752 53.797309 
L 301.464075 53.688245 
L 323.854044 53.705997 
L 391.02395 53.863168 
L 396.621442 53.602884 
L 398.487273 55.71776 
L 398.487273 55.71776 
" style="fill:none;stroke:#1f77b4;stroke-linecap:square;stroke-width:2;"/>
   </g>
   <g id="line2d_16">
    <path clip-path="url(#pfa8bc87f87)" d="M 73.832727 53.635447 
L 180.185078 53.643691 
L 230.562508 53.937932 
L 232.428339 54.450589 
L 234.294169 53.611827 
L 245.489154 53.633509 
L 260.415799 53.688951 
L 266.013292 53.914981 
L 267.879122 54.125633 
L 269.744953 54.549318 
L 271.610784 55.539223 
L 273.476614 58.430402 
L 275.342445 75.834581 
L 277.208276 59.660413 
L 279.074107 56.031789 
L 280.939937 54.794502 
L 282.805768 54.224813 
L 286.537429 53.606306 
L 288.40326 54.847705 
L 290.269091 54.105042 
L 294.000752 53.845999 
L 301.464075 53.713708 
L 320.122382 53.671352 
L 368.633981 53.630152 
L 372.365643 53.588398 
L 374.231473 54.587967 
L 376.097304 68.067446 
L 377.963135 56.482522 
L 379.828966 55.255012 
L 381.694796 54.851349 
L 385.426458 54.565094 
L 391.02395 54.493821 
L 392.889781 54.560888 
L 394.755611 54.844425 
L 396.621442 58.933477 
L 398.487273 53.585809 
L 398.487273 53.585809 
" style="fill:none;stroke:#ff7f0e;stroke-linecap:square;stroke-width:2;"/>
   </g>
   <g id="line2d_17">
    <path clip-path="url(#pfa8bc87f87)" d="M 73.832727 53.69708 
L 189.514232 53.674977 
L 223.099185 54.032739 
L 224.965016 54.359201 
L 226.830846 56.202836 
L 228.696677 57.809971 
L 230.562508 53.885919 
L 232.428339 53.635115 
L 238.025831 53.608244 
L 247.354984 53.808738 
L 251.086646 54.025026 
L 254.818307 54.454051 
L 256.684138 54.826306 
L 258.549969 55.390807 
L 260.415799 56.276427 
L 262.28163 57.723432 
L 264.147461 60.23297 
L 266.013292 65.256536 
L 267.879122 88.352125 
L 269.744953 64.983684 
L 271.610784 60.566755 
L 273.476614 58.330406 
L 275.342445 57.002892 
L 277.208276 56.150108 
L 279.074107 55.571821 
L 282.805768 54.862413 
L 286.537429 54.452485 
L 288.40326 54.468259 
L 290.269091 54.238457 
L 297.732414 53.949748 
L 310.793229 53.742489 
L 336.914859 53.625023 
L 355.573166 53.670239 
L 357.438997 53.855856 
L 359.304828 54.368985 
L 361.170658 55.855021 
L 363.036489 60.357665 
L 364.90232 84.303885 
L 366.76815 61.919979 
L 368.633981 58.649528 
L 370.499812 57.283073 
L 372.365643 56.57934 
L 374.231473 56.177314 
L 377.963135 55.796222 
L 381.694796 55.708546 
L 385.426458 55.849433 
L 387.292288 56.044795 
L 389.158119 56.403944 
L 391.02395 57.12315 
L 392.889781 58.929017 
L 394.755611 67.848238 
L 396.621442 57.932524 
L 398.487273 54.089636 
L 398.487273 54.089636 
" style="fill:none;stroke:#2ca02c;stroke-linecap:square;stroke-width:2;"/>
   </g>
   <g id="line2d_18">
    <path clip-path="url(#pfa8bc87f87)" d="M 73.832727 53.8781 
L 148.465956 53.746946 
L 182.050909 53.733531 
L 204.440878 53.824102 
L 211.904201 53.81994 
L 213.770031 53.933044 
L 215.635862 54.274813 
L 217.501693 55.511377 
L 219.367524 63.212796 
L 221.233354 58.745599 
L 223.099185 55.131559 
L 224.965016 54.323217 
L 226.830846 54.061657 
L 230.562508 53.975873 
L 234.294169 54.112023 
L 238.025831 54.404217 
L 241.757492 54.897095 
L 245.489154 55.715256 
L 247.354984 56.317687 
L 249.220815 57.112292 
L 251.086646 58.174643 
L 252.952476 59.623505 
L 254.818307 61.669389 
L 256.684138 64.775007 
L 258.549969 70.494072 
L 260.415799 84.699964 
L 262.28163 68.851334 
L 264.147461 64.414526 
L 266.013292 61.889021 
L 267.879122 60.206856 
L 269.744953 59.001635 
L 271.610784 58.100049 
L 273.476614 57.405454 
L 277.208276 56.421062 
L 280.939937 55.786986 
L 282.805768 55.607785 
L 286.537429 55.036316 
L 295.866583 54.464859 
L 307.061567 54.075639 
L 321.988213 53.80142 
L 335.049028 53.730093 
L 338.78069 53.830803 
L 340.64652 53.969104 
L 342.512351 54.242326 
L 344.378182 54.787151 
L 346.244013 55.8889 
L 348.109843 58.128013 
L 349.975674 62.812803 
L 351.841505 79.809613 
L 353.707335 66.220336 
L 355.573166 61.70082 
L 357.438997 59.682301 
L 359.304828 58.568412 
L 361.170658 57.892301 
L 363.036489 57.46069 
L 366.76815 56.998135 
L 370.499812 56.831157 
L 374.231473 56.84332 
L 377.963135 57.001615 
L 381.694796 57.324857 
L 385.426458 57.902621 
L 387.292288 58.356859 
L 389.158119 59.006876 
L 391.02395 59.998754 
L 392.889781 61.674593 
L 394.755611 65.099366 
L 396.621442 79.812986 
L 398.487273 64.696592 
L 398.487273 64.696592 
" style="fill:none;stroke:#d62728;stroke-linecap:square;stroke-width:2;"/>
   </g>
   <g id="line2d_19">
    <path clip-path="url(#pfa8bc87f87)" d="M 73.832727 53.988094 
L 109.283511 54.254141 
L 167.124263 54.9191 
L 176.453417 55.246202 
L 193.245893 56.047006 
L 196.977555 55.697388 
L 200.709216 54.913186 
L 202.575047 54.442998 
L 204.440878 54.19174 
L 206.306708 55.073335 
L 208.172539 60.200174 
L 210.03837 69.982574 
L 211.904201 59.200095 
L 213.770031 56.401984 
L 215.635862 55.139023 
L 217.501693 54.51553 
L 219.367524 54.238027 
L 221.233354 54.172247 
L 224.965016 54.415548 
L 228.696677 54.967264 
L 232.428339 55.769536 
L 236.16 56.877117 
L 238.025831 57.586359 
L 239.891661 58.43381 
L 241.757492 59.457577 
L 243.623323 60.712826 
L 245.489154 62.286384 
L 247.354984 64.332338 
L 249.220815 67.176849 
L 251.086646 71.757222 
L 252.952476 84.784276 
L 254.818307 75.342727 
L 256.684138 69.424574 
L 258.549969 66.335439 
L 260.415799 64.290873 
L 262.28163 62.796444 
L 264.147461 61.641113 
L 266.013292 60.713824 
L 269.744953 59.298404 
L 273.476614 58.217145 
L 275.342445 57.929007 
L 277.208276 59.442048 
L 279.074107 57.742297 
L 280.939937 57.275262 
L 284.671599 56.683249 
L 290.269091 56.044036 
L 299.598245 55.257781 
L 312.65906 54.432686 
L 323.854044 53.899416 
L 327.585705 53.91299 
L 329.451536 54.098028 
L 331.317367 54.574939 
L 333.183197 55.624806 
L 335.049028 57.710913 
L 336.914859 61.573432 
L 338.78069 69.626304 
L 340.64652 73.705524 
L 342.512351 65.496517 
L 344.378182 62.601502 
L 346.244013 61.074526 
L 348.109843 60.156344 
L 349.975674 59.568867 
L 351.841505 59.182736 
L 355.573166 58.768285 
L 359.304828 58.634167 
L 364.90232 58.728393 
L 370.499812 59.046147 
L 377.963135 59.722087 
L 385.426458 60.67727 
L 391.02395 61.621061 
L 398.487273 63.11957 
L 398.487273 63.11957 
" style="fill:none;stroke:#9467bd;stroke-linecap:square;stroke-width:2;"/>
   </g>
   <g id="line2d_20">
    <path clip-path="url(#pfa8bc87f87)" d="M 73.832727 200.256778 
L 75.698558 200.353867 
L 77.564389 202.788828 
L 79.430219 213.393722 
L 81.29605 203.037626 
L 83.161881 215.561994 
L 85.027712 220.775896 
L 86.893542 202.618958 
L 88.759373 202.882926 
L 90.625204 214.643484 
L 92.491034 211.661953 
L 94.356865 221.018108 
L 96.222696 211.780724 
L 98.088527 210.303305 
L 99.954357 203.018385 
L 101.820188 207.312255 
L 103.686019 213.549282 
L 105.55185 207.390451 
L 107.41768 213.061545 
L 109.283511 214.595574 
L 111.149342 216.778534 
L 113.015172 209.133939 
L 114.881003 202.356481 
L 116.746834 213.158548 
L 118.612665 206.57419 
L 120.478495 230.459704 
L 122.344326 197.579156 
L 124.210157 197.878045 
L 126.075987 197.881891 
L 127.941818 198.346374 
L 129.807649 211.884392 
L 131.67348 211.212604 
L 133.53931 194.970271 
L 135.405141 194.71415 
L 137.270972 202.691299 
L 139.136803 206.490626 
L 141.002633 200.828432 
L 142.868464 202.711724 
L 144.734295 201.802563 
L 146.600125 211.434349 
L 148.465956 198.94724 
L 150.331787 189.65465 
L 152.197618 188.950775 
L 154.063448 199.595319 
L 155.929279 203.096045 
L 157.79511 198.390868 
L 159.66094 202.435899 
L 161.526771 195.758959 
L 163.392602 190.803716 
L 165.258433 203.110157 
L 167.124263 199.450923 
L 168.990094 186.999185 
L 170.855925 190.458925 
L 172.721755 192.157925 
L 174.587586 202.609103 
L 176.453417 198.300127 
L 178.319248 196.600673 
L 180.185078 201.669409 
L 182.050909 197.95778 
L 183.91674 193.058938 
L 185.782571 200.680601 
L 187.648401 195.483848 
L 189.514232 199.377192 
L 191.380063 192.00278 
L 193.245893 201.109088 
L 195.111724 188.311641 
L 196.977555 191.29971 
L 198.843386 196.132202 
L 200.709216 192.374435 
L 202.575047 191.208879 
L 204.440878 188.797432 
L 206.306708 192.96674 
L 208.172539 191.783316 
L 210.03837 191.896421 
L 211.904201 192.542815 
L 213.770031 192.371816 
L 215.635862 198.186117 
L 217.501693 198.448847 
L 219.367524 202.246345 
L 221.233354 208.346651 
L 223.099185 198.866339 
L 224.965016 203.640598 
L 226.830846 197.838935 
L 228.696677 195.960157 
L 230.562508 195.114548 
L 232.428339 194.71235 
L 234.294169 196.188322 
L 236.16 197.831839 
L 238.025831 200.162086 
L 239.891661 194.965124 
L 241.757492 194.621232 
L 243.623323 201.212208 
L 245.489154 193.225252 
L 247.354984 197.968919 
L 249.220815 191.814934 
L 251.086646 203.176072 
L 252.952476 189.69481 
L 254.818307 192.078889 
L 256.684138 190.328584 
L 258.549969 186.708265 
L 260.415799 195.261647 
L 262.28163 188.365121 
L 264.147461 193.567243 
L 266.013292 197.946796 
L 267.879122 195.063518 
L 269.744953 199.736267 
L 271.610784 188.72726 
L 273.476614 194.580059 
L 275.342445 194.95384 
L 277.208276 202.117343 
L 279.074107 199.924705 
L 280.939937 201.628572 
L 282.805768 197.412216 
L 284.671599 204.478067 
L 286.537429 203.64735 
L 288.40326 200.908879 
L 290.269091 201.629554 
L 292.134922 197.629022 
L 294.000752 194.942945 
L 295.866583 205.156478 
L 297.732414 193.135755 
L 299.598245 195.644585 
L 301.464075 198.498403 
L 303.329906 192.994715 
L 305.195737 196.697344 
L 307.061567 199.583952 
L 308.927398 193.360303 
L 310.793229 190.417819 
L 312.65906 192.027762 
L 314.52489 196.82606 
L 316.390721 197.357199 
L 318.256552 196.780876 
L 320.122382 194.682608 
L 321.988213 190.538002 
L 323.854044 198.032347 
L 325.719875 196.597278 
L 327.585705 192.112774 
L 329.451536 192.067562 
L 331.317367 197.160276 
L 333.183197 193.491472 
L 335.049028 192.423225 
L 336.914859 194.466998 
L 338.78069 200.50842 
L 340.64652 193.848771 
L 342.512351 191.253532 
L 344.378182 193.396038 
L 346.244013 191.693496 
L 348.109843 190.911041 
L 349.975674 191.931344 
L 351.841505 196.374065 
L 353.707335 193.3321 
L 355.573166 191.799185 
L 357.438997 193.656122 
L 359.304828 192.855653 
L 361.170658 191.299914 
L 363.036489 191.669026 
L 364.90232 198.664728 
L 366.76815 199.144146 
L 368.633981 206.191677 
L 370.499812 198.070577 
L 372.365643 190.78796 
L 374.231473 192.656652 
L 376.097304 198.552928 
L 377.963135 199.556767 
L 379.828966 190.721573 
L 381.694796 192.368994 
L 383.560627 220.992053 
L 385.426458 206.440806 
L 387.292288 203.409277 
L 389.158119 223.233294 
L 391.02395 195.840332 
L 392.889781 198.481623 
L 394.755611 199.681886 
L 396.621442 189.519584 
L 398.487273 190.030409 
L 398.487273 190.030409 
" style="fill:none;stroke:#8c564b;stroke-linecap:square;stroke-width:2;"/>
   </g>
   <g id="line2d_21">
    <path clip-path="url(#pfa8bc87f87)" d="M 73.832727 216.254223 
L 75.698558 217.08921 
L 77.564389 222.625827 
L 79.430219 207.263646 
L 81.29605 206.630009 
L 83.161881 222.239843 
L 85.027712 204.732464 
L 86.893542 220.746574 
L 88.759373 232.152956 
L 90.625204 213.752246 
L 92.491034 221.00985 
L 94.356865 204.467235 
L 96.222696 215.529378 
L 98.088527 207.338456 
L 99.954357 207.049989 
L 101.820188 205.095159 
L 103.686019 206.859194 
L 105.55185 211.595007 
L 107.41768 210.875198 
L 109.283511 205.727055 
L 111.149342 210.339728 
L 113.015172 212.10159 
L 114.881003 208.448227 
L 116.746834 211.879695 
L 118.612665 212.090653 
L 120.478495 207.68115 
L 122.344326 212.044635 
L 124.210157 220.764754 
L 126.075987 213.052203 
L 127.941818 209.671209 
L 129.807649 213.63122 
L 131.67348 208.497231 
L 133.53931 210.651274 
L 135.405141 210.090791 
L 137.270972 213.649432 
L 139.136803 203.663931 
L 141.002633 211.888425 
L 142.868464 207.529829 
L 144.734295 202.298309 
L 146.600125 205.110998 
L 148.465956 207.070782 
L 150.331787 203.966646 
L 152.197618 209.710711 
L 154.063448 203.678825 
L 155.929279 210.658032 
L 157.79511 202.775503 
L 159.66094 201.3857 
L 161.526771 201.835281 
L 163.392602 203.828616 
L 165.258433 209.126614 
L 167.124263 208.108068 
L 168.990094 199.448928 
L 170.855925 199.013843 
L 172.721755 201.583492 
L 174.587586 203.79447 
L 176.453417 190.860501 
L 178.319248 210.222211 
L 180.185078 194.181779 
L 182.050909 194.578913 
L 183.91674 199.391219 
L 185.782571 196.681005 
L 187.648401 197.225743 
L 189.514232 191.934711 
L 191.380063 194.70324 
L 193.245893 200.240271 
L 195.111724 195.273547 
L 196.977555 196.23663 
L 198.843386 190.272576 
L 200.709216 194.264318 
L 202.575047 191.116406 
L 204.440878 191.075782 
L 206.306708 193.548767 
L 208.172539 189.774001 
L 211.904201 193.229641 
L 213.770031 196.201166 
L 215.635862 190.723417 
L 217.501693 193.568441 
L 219.367524 195.406741 
L 221.233354 196.762182 
L 223.099185 211.138823 
L 224.965016 198.659814 
L 226.830846 194.650113 
L 228.696677 195.180562 
L 230.562508 191.219949 
L 232.428339 193.447335 
L 234.294169 196.785507 
L 236.16 197.119733 
L 238.025831 195.003589 
L 239.891661 194.651632 
L 241.757492 190.064624 
L 243.623323 197.94005 
L 245.489154 200.585406 
L 247.354984 195.552693 
L 249.220815 189.417614 
L 251.086646 192.393067 
L 252.952476 197.98394 
L 254.818307 187.64821 
L 256.684138 189.18759 
L 258.549969 187.9471 
L 260.415799 187.186129 
L 262.28163 187.021532 
L 264.147461 186.641405 
L 266.013292 193.341125 
L 267.879122 186.38716 
L 269.744953 199.589926 
L 271.610784 192.606073 
L 273.476614 189.247056 
L 275.342445 190.831013 
L 277.208276 190.108548 
L 279.074107 191.986832 
L 280.939937 203.237229 
L 282.805768 194.665141 
L 284.671599 193.268335 
L 286.537429 193.407208 
L 288.40326 199.06426 
L 290.269091 193.332584 
L 292.134922 196.970326 
L 294.000752 207.674906 
L 295.866583 195.174603 
L 297.732414 193.659276 
L 299.598245 205.119303 
L 301.464075 199.391219 
L 303.329906 197.414263 
L 305.195737 193.349869 
L 307.061567 206.933815 
L 308.927398 193.864591 
L 310.793229 198.104553 
L 312.65906 195.65906 
L 314.52489 196.695308 
L 316.390721 193.34841 
L 320.122382 192.066213 
L 321.988213 191.864048 
L 323.854044 192.576062 
L 325.719875 195.645523 
L 327.585705 193.085891 
L 329.451536 198.232247 
L 331.317367 195.873996 
L 333.183197 198.39828 
L 335.049028 194.885462 
L 336.914859 196.014543 
L 338.78069 191.983418 
L 340.64652 196.008579 
L 342.512351 188.118932 
L 344.378182 202.77776 
L 346.244013 189.073354 
L 348.109843 195.990747 
L 349.975674 199.956673 
L 351.841505 193.958747 
L 353.707335 191.896989 
L 355.573166 191.544339 
L 357.438997 190.753447 
L 359.304828 195.470008 
L 361.170658 194.123633 
L 363.036489 193.548574 
L 364.90232 194.294985 
L 366.76815 194.142087 
L 370.499812 194.305165 
L 372.365643 191.977547 
L 374.231473 190.786286 
L 376.097304 194.004395 
L 377.963135 194.528628 
L 379.828966 200.901451 
L 381.694796 191.665617 
L 383.560627 198.620722 
L 385.426458 200.548834 
L 387.292288 195.165451 
L 389.158119 199.847457 
L 391.02395 205.585077 
L 392.889781 197.582044 
L 394.755611 191.436338 
L 396.621442 193.124615 
L 398.487273 195.001581 
L 398.487273 195.001581 
" style="fill:none;stroke:#e377c2;stroke-linecap:square;stroke-width:2;"/>
   </g>
   <g id="line2d_22">
    <path clip-path="url(#pfa8bc87f87)" d="M 73.832727 212.56742 
L 75.698558 231.044964 
L 77.564389 210.661319 
L 79.430219 213.436035 
L 81.29605 218.275743 
L 83.161881 212.245737 
L 85.027712 211.289237 
L 86.893542 213.442772 
L 88.759373 217.053277 
L 90.625204 215.635261 
L 92.491034 220.348682 
L 94.356865 219.704887 
L 96.222696 212.670954 
L 98.088527 212.109954 
L 99.954357 213.279276 
L 101.820188 210.482744 
L 103.686019 212.886373 
L 105.55185 211.974864 
L 107.41768 216.978088 
L 109.283511 215.421893 
L 111.149342 226.170172 
L 113.015172 211.608624 
L 114.881003 211.2884 
L 116.746834 216.224503 
L 118.612665 210.832163 
L 120.478495 219.971585 
L 124.210157 212.391265 
L 126.075987 219.771038 
L 127.941818 214.000285 
L 131.67348 210.379211 
L 133.53931 207.954936 
L 135.405141 209.972046 
L 137.270972 206.170197 
L 139.136803 207.559992 
L 141.002633 208.603747 
L 142.868464 212.242078 
L 144.734295 205.832475 
L 146.600125 206.661102 
L 148.465956 207.789512 
L 150.331787 203.7335 
L 152.197618 207.908076 
L 154.063448 206.087213 
L 155.929279 201.941381 
L 157.79511 206.116755 
L 159.66094 202.326091 
L 161.526771 199.128451 
L 163.392602 200.906411 
L 165.258433 198.427652 
L 167.124263 200.732315 
L 168.990094 199.921502 
L 170.855925 197.067097 
L 172.721755 210.040828 
L 174.587586 204.87231 
L 176.453417 197.204891 
L 178.319248 197.962305 
L 180.185078 203.206786 
L 182.050909 202.984115 
L 183.91674 195.128905 
L 185.782571 197.563135 
L 187.648401 193.491735 
L 189.514232 197.376168 
L 191.380063 195.350753 
L 193.245893 199.004324 
L 195.111724 200.45274 
L 196.977555 191.536922 
L 198.843386 191.093488 
L 200.709216 190.51556 
L 202.575047 194.562524 
L 204.440878 209.276418 
L 206.306708 192.894478 
L 208.172539 192.851086 
L 210.03837 194.302294 
L 211.904201 200.804629 
L 213.770031 200.662328 
L 215.635862 192.090996 
L 217.501693 192.426318 
L 219.367524 195.867244 
L 221.233354 191.663664 
L 223.099185 205.197949 
L 224.965016 190.119968 
L 226.830846 190.060223 
L 228.696677 194.70871 
L 230.562508 198.449083 
L 232.428339 196.450033 
L 234.294169 192.83805 
L 236.16 202.218171 
L 238.025831 197.249825 
L 239.891661 193.878537 
L 241.757492 194.231231 
L 243.623323 194.242183 
L 245.489154 191.976861 
L 247.354984 191.100113 
L 249.220815 200.289816 
L 251.086646 193.912221 
L 252.952476 192.989458 
L 254.818307 205.780585 
L 256.684138 194.32353 
L 258.549969 194.764617 
L 260.415799 194.288204 
L 262.28163 193.298989 
L 264.147461 195.788157 
L 266.013292 189.532424 
L 267.879122 196.9827 
L 269.744953 187.372915 
L 271.610784 188.134716 
L 273.476614 187.627913 
L 275.342445 187.266848 
L 277.208276 187.356081 
L 279.074107 197.988501 
L 280.939937 190.343335 
L 282.805768 194.545762 
L 284.671599 192.946268 
L 286.537429 190.463306 
L 288.40326 197.912954 
L 290.269091 194.952185 
L 292.134922 200.468936 
L 294.000752 202.546667 
L 295.866583 199.783955 
L 297.732414 196.721903 
L 299.598245 197.65348 
L 301.464075 194.913036 
L 303.329906 196.430318 
L 305.195737 197.454003 
L 307.061567 196.710053 
L 308.927398 201.149714 
L 310.793229 194.927669 
L 312.65906 197.618085 
L 314.52489 195.780724 
L 316.390721 202.924361 
L 318.256552 194.645409 
L 320.122382 200.573176 
L 321.988213 193.238534 
L 323.854044 195.1079 
L 325.719875 193.41227 
L 327.585705 191.330402 
L 329.451536 201.400466 
L 331.317367 191.741695 
L 333.183197 198.559749 
L 335.049028 194.225957 
L 336.914859 191.488734 
L 338.78069 191.292156 
L 340.64652 194.755759 
L 342.512351 198.912961 
L 344.378182 200.54362 
L 346.244013 190.378133 
L 348.109843 193.882073 
L 349.975674 189.36425 
L 351.841505 194.598886 
L 353.707335 192.186129 
L 355.573166 188.843594 
L 357.438997 203.407717 
L 359.304828 190.870749 
L 361.170658 196.282101 
L 363.036489 194.927669 
L 364.90232 192.44185 
L 366.76815 202.353286 
L 368.633981 191.348116 
L 370.499812 198.326871 
L 374.231473 190.040492 
L 376.097304 192.286861 
L 377.963135 202.989434 
L 379.828966 196.121276 
L 381.694796 195.104589 
L 383.560627 192.367643 
L 385.426458 199.042205 
L 387.292288 196.094839 
L 389.158119 199.873981 
L 391.02395 201.58853 
L 392.889781 197.197907 
L 394.755611 199.335709 
L 396.621442 196.542597 
L 398.487273 199.153306 
L 398.487273 199.153306 
" style="fill:none;stroke:#7f7f7f;stroke-linecap:square;stroke-width:2;"/>
   </g>
   <g id="line2d_23">
    <path clip-path="url(#pfa8bc87f87)" d="M 73.832727 226.981107 
L 75.698558 224.126059 
L 77.564389 222.411719 
L 79.430219 219.977234 
L 81.29605 219.537773 
L 83.161881 221.508494 
L 85.027712 219.77062 
L 86.893542 220.121675 
L 88.759373 229.029061 
L 90.625204 220.513637 
L 92.491034 216.250082 
L 94.356865 222.772758 
L 96.222696 220.340469 
L 98.088527 220.402807 
L 99.954357 218.889769 
L 101.820188 219.153341 
L 103.686019 215.247556 
L 105.55185 216.916316 
L 107.41768 224.212411 
L 109.283511 219.036909 
L 111.149342 223.020839 
L 113.015172 215.228726 
L 114.881003 220.891762 
L 116.746834 216.398293 
L 118.612665 213.528426 
L 120.478495 212.237037 
L 122.344326 214.195496 
L 124.210157 218.602713 
L 126.075987 219.909446 
L 127.941818 218.838746 
L 129.807649 213.789275 
L 131.67348 210.034054 
L 133.53931 212.147498 
L 135.405141 211.319199 
L 137.270972 216.049911 
L 139.136803 224.891564 
L 141.002633 209.772588 
L 142.868464 209.4778 
L 144.734295 217.614629 
L 146.600125 209.10773 
L 148.465956 208.198501 
L 150.331787 208.684556 
L 152.197618 206.76827 
L 154.063448 204.45402 
L 155.929279 203.155818 
L 157.79511 204.703897 
L 159.66094 201.983817 
L 161.526771 197.626143 
L 163.392602 200.440374 
L 165.258433 198.005083 
L 167.124263 205.948087 
L 168.990094 198.433417 
L 170.855925 198.475813 
L 172.721755 196.605798 
L 174.587586 207.516523 
L 176.453417 203.862393 
L 178.319248 205.51763 
L 180.185078 196.20843 
L 182.050909 196.874078 
L 183.91674 198.622164 
L 185.782571 203.156275 
L 187.648401 193.97245 
L 189.514232 201.548913 
L 191.380063 196.122867 
L 193.245893 204.378017 
L 195.111724 200.014494 
L 196.977555 201.025028 
L 198.843386 193.95882 
L 200.709216 194.258089 
L 202.575047 191.144903 
L 204.440878 193.929868 
L 206.306708 193.228995 
L 208.172539 194.322474 
L 210.03837 199.909868 
L 211.904201 203.61047 
L 213.770031 191.719573 
L 215.635862 198.01357 
L 217.501693 194.32273 
L 219.367524 197.17491 
L 221.233354 192.016315 
L 223.099185 194.425875 
L 224.965016 195.581067 
L 226.830846 198.819421 
L 230.562508 194.560286 
L 232.428339 191.835719 
L 234.294169 197.796361 
L 236.16 190.448161 
L 238.025831 190.08467 
L 239.891661 191.990071 
L 241.757492 193.421198 
L 243.623323 194.025427 
L 245.489154 198.796894 
L 247.354984 197.379917 
L 249.220815 197.233438 
L 251.086646 200.238839 
L 252.952476 193.204927 
L 254.818307 192.558036 
L 256.684138 197.269792 
L 258.549969 194.206304 
L 260.415799 194.870331 
L 262.28163 199.045547 
L 264.147461 193.743105 
L 266.013292 192.058305 
L 267.879122 194.366629 
L 269.744953 190.124487 
L 271.610784 192.020814 
L 273.476614 190.181069 
L 275.342445 188.585274 
L 277.208276 193.305456 
L 279.074107 194.162244 
L 280.939937 195.45737 
L 282.805768 197.809518 
L 284.671599 192.254275 
L 286.537429 191.515902 
L 288.40326 197.625108 
L 290.269091 193.071725 
L 292.134922 197.640034 
L 294.000752 197.540829 
L 295.866583 192.737632 
L 297.732414 195.757187 
L 299.598245 196.186995 
L 301.464075 197.959087 
L 303.329906 198.802779 
L 305.195737 200.947484 
L 307.061567 199.147515 
L 308.927398 195.663654 
L 310.793229 197.243182 
L 312.65906 202.628968 
L 314.52489 194.3538 
L 316.390721 193.299687 
L 318.256552 193.955112 
L 320.122382 193.527206 
L 321.988213 206.752113 
L 323.854044 195.691124 
L 325.719875 197.268664 
L 327.585705 191.834889 
L 329.451536 194.844012 
L 331.317367 190.075667 
L 333.183197 192.115069 
L 335.049028 192.895526 
L 336.914859 198.989021 
L 338.78069 192.484889 
L 340.64652 194.655896 
L 342.512351 194.120596 
L 344.378182 200.73552 
L 346.244013 200.30368 
L 348.109843 197.653352 
L 349.975674 200.488266 
L 351.841505 193.311103 
L 353.707335 192.603741 
L 355.573166 196.840074 
L 357.438997 206.601626 
L 359.304828 192.030842 
L 361.170658 193.634476 
L 363.036489 193.073065 
L 364.90232 191.912609 
L 366.76815 190.321888 
L 368.633981 207.94706 
L 370.499812 198.424175 
L 372.365643 197.048207 
L 374.231473 193.872479 
L 376.097304 193.920905 
L 377.963135 195.925106 
L 379.828966 198.948731 
L 381.694796 208.150109 
L 383.560627 198.864167 
L 385.426458 206.119719 
L 387.292288 199.531891 
L 389.158119 197.574838 
L 391.02395 204.201216 
L 392.889781 206.756615 
L 394.755611 203.963707 
L 396.621442 199.424952 
L 398.487273 199.244275 
L 398.487273 199.244275 
" style="fill:none;stroke:#bcbd22;stroke-linecap:square;stroke-width:2;"/>
   </g>
   <g id="line2d_24">
    <path clip-path="url(#pfa8bc87f87)" d="M 73.832727 286.807407 
L 75.698558 284.442279 
L 77.564389 281.1403 
L 79.430219 287.907609 
L 81.29605 284.887895 
L 83.161881 295.488 
L 85.027712 286.99748 
L 86.893542 284.594673 
L 88.759373 283.252118 
L 90.625204 288.625448 
L 92.491034 293.069071 
L 94.356865 287.238478 
L 96.222696 280.514122 
L 98.088527 287.463005 
L 99.954357 282.917523 
L 101.820188 283.274936 
L 103.686019 277.192401 
L 105.55185 282.836683 
L 107.41768 283.05643 
L 109.283511 279.436032 
L 111.149342 282.149802 
L 113.015172 280.566794 
L 114.881003 278.610236 
L 116.746834 277.400085 
L 118.612665 281.705 
L 120.478495 277.405277 
L 122.344326 284.371944 
L 124.210157 282.678962 
L 126.075987 275.846398 
L 127.941818 284.180359 
L 129.807649 272.987131 
L 131.67348 274.4294 
L 133.53931 279.004903 
L 135.405141 281.375244 
L 137.270972 273.281063 
L 139.136803 275.142115 
L 141.002633 272.75308 
L 142.868464 275.312926 
L 144.734295 278.253659 
L 146.600125 271.189844 
L 148.465956 283.382976 
L 150.331787 287.771383 
L 152.197618 269.839622 
L 154.063448 270.024715 
L 155.929279 267.325951 
L 157.79511 271.647474 
L 159.66094 259.978988 
L 161.526771 256.938691 
L 163.392602 267.773597 
L 165.258433 257.285496 
L 167.124263 260.913431 
L 168.990094 259.81114 
L 170.855925 262.732455 
L 172.721755 260.012183 
L 174.587586 259.554882 
L 176.453417 275.521279 
L 178.319248 265.194149 
L 180.185078 266.488148 
L 182.050909 266.130324 
L 183.91674 267.037171 
L 185.782571 259.591851 
L 187.648401 258.602456 
L 189.514232 256.115581 
L 191.380063 258.711287 
L 193.245893 258.67866 
L 195.111724 266.056578 
L 196.977555 258.517811 
L 198.843386 257.522848 
L 200.709216 259.6135 
L 202.575047 257.851302 
L 204.440878 256.528389 
L 206.306708 254.689573 
L 208.172539 262.621721 
L 210.03837 261.456058 
L 211.904201 256.398298 
L 213.770031 262.491055 
L 215.635862 264.789097 
L 217.501693 261.037111 
L 219.367524 255.78298 
L 221.233354 268.57599 
L 223.099185 255.2656 
L 224.965016 259.519599 
L 226.830846 257.274618 
L 228.696677 255.757911 
L 230.562508 256.372108 
L 232.428339 258.725076 
L 234.294169 252.122363 
L 238.025831 251.12024 
L 239.891661 248.391806 
L 241.757492 253.605702 
L 243.623323 250.983146 
L 245.489154 251.575569 
L 247.354984 259.513598 
L 249.220815 259.372118 
L 251.086646 261.289245 
L 252.952476 255.185674 
L 254.818307 255.98269 
L 256.684138 253.236345 
L 258.549969 253.373562 
L 260.415799 258.427524 
L 262.28163 256.343888 
L 264.147461 259.816647 
L 266.013292 257.553999 
L 267.879122 261.826765 
L 269.744953 264.503282 
L 271.610784 254.832744 
L 273.476614 249.944206 
L 275.342445 263.816683 
L 277.208276 260.466589 
L 279.074107 256.367783 
L 280.939937 258.359447 
L 282.805768 254.075734 
L 284.671599 250.387518 
L 286.537429 252.027749 
L 288.40326 251.327118 
L 290.269091 254.900319 
L 292.134922 273.645958 
L 294.000752 256.633059 
L 295.866583 259.493127 
L 297.732414 259.588946 
L 299.598245 254.233929 
L 301.464075 255.064533 
L 303.329906 264.641233 
L 305.195737 260.278721 
L 307.061567 262.082536 
L 308.927398 262.092272 
L 310.793229 257.268774 
L 312.65906 257.24129 
L 314.52489 259.937421 
L 316.390721 255.783502 
L 318.256552 257.928046 
L 320.122382 262.667421 
L 321.988213 255.025352 
L 323.854044 256.609129 
L 325.719875 256.742687 
L 327.585705 256.561726 
L 329.451536 253.713482 
L 331.317367 259.247531 
L 333.183197 256.705785 
L 335.049028 257.266105 
L 336.914859 260.201649 
L 338.78069 270.686765 
L 340.64652 260.398437 
L 342.512351 259.03282 
L 344.378182 258.835234 
L 346.244013 262.518736 
L 348.109843 254.980317 
L 349.975674 257.100023 
L 351.841505 255.225511 
L 353.707335 260.57797 
L 355.573166 259.599747 
L 357.438997 255.692944 
L 359.304828 254.634666 
L 361.170658 259.770851 
L 363.036489 251.862255 
L 364.90232 257.229384 
L 366.76815 256.413827 
L 368.633981 253.407976 
L 370.499812 260.537081 
L 372.365643 259.398135 
L 374.231473 258.717847 
L 376.097304 257.344623 
L 377.963135 259.742754 
L 379.828966 256.430531 
L 381.694796 254.734134 
L 383.560627 266.358515 
L 385.426458 256.963587 
L 387.292288 261.741138 
L 389.158119 278.072802 
L 391.02395 267.834083 
L 392.889781 274.816533 
L 394.755611 267.351813 
L 396.621442 268.349063 
L 398.487273 277.289587 
L 398.487273 277.289587 
" style="fill:none;stroke:#17becf;stroke-linecap:square;stroke-width:2;"/>
   </g>
   <g id="patch_3">
    <path d="M 57.6 307.584 
L 57.6 41.472 
" style="fill:none;stroke:#000000;stroke-linecap:square;stroke-linejoin:miter;stroke-width:0.8;"/>
   </g>
   <g id="patch_4">
    <path d="M 414.72 307.584 
L 414.72 41.472 
" style="fill:none;stroke:#000000;stroke-linecap:square;stroke-linejoin:miter;stroke-width:0.8;"/>
   </g>
   <g id="patch_5">
    <path d="M 57.6 307.584 
L 414.72 307.584 
" style="fill:none;stroke:#000000;stroke-linecap:square;stroke-linejoin:miter;stroke-width:0.8;"/>
   </g>
   <g id="patch_6">
    <path d="M 57.6 41.472 
L 414.72 41.472 
" style="fill:none;stroke:#000000;stroke-linecap:square;stroke-linejoin:miter;stroke-width:0.8;"/>
   </g>
   <g id="text_16">
    <!-- Transmission of different radius -->
    <g transform="translate(141.78375 35.472)scale(0.12 -0.12)">
     <defs>
      <path d="M -0.296875 72.90625 
L 61.375 72.90625 
L 61.375 64.59375 
L 35.5 64.59375 
L 35.5 0 
L 25.59375 0 
L 25.59375 64.59375 
L -0.296875 64.59375 
z
" id="DejaVuSans-84"/>
      <path d="M 30.609375 48.390625 
Q 23.390625 48.390625 19.1875 42.75 
Q 14.984375 37.109375 14.984375 27.296875 
Q 14.984375 17.484375 19.15625 11.84375 
Q 23.34375 6.203125 30.609375 6.203125 
Q 37.796875 6.203125 41.984375 11.859375 
Q 46.1875 17.53125 46.1875 27.296875 
Q 46.1875 37.015625 41.984375 42.703125 
Q 37.796875 48.390625 30.609375 48.390625 
z
M 30.609375 56 
Q 42.328125 56 49.015625 48.375 
Q 55.71875 40.765625 55.71875 27.296875 
Q 55.71875 13.875 49.015625 6.21875 
Q 42.328125 -1.421875 30.609375 -1.421875 
Q 18.84375 -1.421875 12.171875 6.21875 
Q 5.515625 13.875 5.515625 27.296875 
Q 5.515625 40.765625 12.171875 48.375 
Q 18.84375 56 30.609375 56 
z
" id="DejaVuSans-111"/>
      <path id="DejaVuSans-32"/>
      <path d="M 37.109375 75.984375 
L 37.109375 68.5 
L 28.515625 68.5 
Q 23.6875 68.5 21.796875 66.546875 
Q 19.921875 64.59375 19.921875 59.515625 
L 19.921875 54.6875 
L 34.71875 54.6875 
L 34.71875 47.703125 
L 19.921875 47.703125 
L 19.921875 0 
L 10.890625 0 
L 10.890625 47.703125 
L 2.296875 47.703125 
L 2.296875 54.6875 
L 10.890625 54.6875 
L 10.890625 58.5 
Q 10.890625 67.625 15.140625 71.796875 
Q 19.390625 75.984375 28.609375 75.984375 
z
" id="DejaVuSans-102"/>
      <path d="M 56.203125 29.59375 
L 56.203125 25.203125 
L 14.890625 25.203125 
Q 15.484375 15.921875 20.484375 11.0625 
Q 25.484375 6.203125 34.421875 6.203125 
Q 39.59375 6.203125 44.453125 7.46875 
Q 49.3125 8.734375 54.109375 11.28125 
L 54.109375 2.78125 
Q 49.265625 0.734375 44.1875 -0.34375 
Q 39.109375 -1.421875 33.890625 -1.421875 
Q 20.796875 -1.421875 13.15625 6.1875 
Q 5.515625 13.8125 5.515625 26.8125 
Q 5.515625 40.234375 12.765625 48.109375 
Q 20.015625 56 32.328125 56 
Q 43.359375 56 49.78125 48.890625 
Q 56.203125 41.796875 56.203125 29.59375 
z
M 47.21875 32.234375 
Q 47.125 39.59375 43.09375 43.984375 
Q 39.0625 48.390625 32.421875 48.390625 
Q 24.90625 48.390625 20.390625 44.140625 
Q 15.875 39.890625 15.1875 32.171875 
z
" id="DejaVuSans-101"/>
      <path d="M 18.3125 70.21875 
L 18.3125 54.6875 
L 36.8125 54.6875 
L 36.8125 47.703125 
L 18.3125 47.703125 
L 18.3125 18.015625 
Q 18.3125 11.328125 20.140625 9.421875 
Q 21.96875 7.515625 27.59375 7.515625 
L 36.8125 7.515625 
L 36.8125 0 
L 27.59375 0 
Q 17.1875 0 13.234375 3.875 
Q 9.28125 7.765625 9.28125 18.015625 
L 9.28125 47.703125 
L 2.6875 47.703125 
L 2.6875 54.6875 
L 9.28125 54.6875 
L 9.28125 70.21875 
z
" id="DejaVuSans-116"/>
     </defs>
     <use xlink:href="#DejaVuSans-84"/>
     <use x="46.333984" xlink:href="#DejaVuSans-114"/>
     <use x="87.447266" xlink:href="#DejaVuSans-97"/>
     <use x="148.726562" xlink:href="#DejaVuSans-110"/>
     <use x="212.105469" xlink:href="#DejaVuSans-115"/>
     <use x="264.205078" xlink:href="#DejaVuSans-109"/>
     <use x="361.617188" xlink:href="#DejaVuSans-105"/>
     <use x="389.400391" xlink:href="#DejaVuSans-115"/>
     <use x="441.5" xlink:href="#DejaVuSans-115"/>
     <use x="493.599609" xlink:href="#DejaVuSans-105"/>
     <use x="521.382812" xlink:href="#DejaVuSans-111"/>
     <use x="582.564453" xlink:href="#DejaVuSans-110"/>
     <use x="645.943359" xlink:href="#DejaVuSans-32"/>
     <use x="677.730469" xlink:href="#DejaVuSans-111"/>
     <use x="738.912109" xlink:href="#DejaVuSans-102"/>
     <use x="774.117188" xlink:href="#DejaVuSans-32"/>
     <use x="805.904297" xlink:href="#DejaVuSans-100"/>
     <use x="869.380859" xlink:href="#DejaVuSans-105"/>
     <use x="897.164062" xlink:href="#DejaVuSans-102"/>
     <use x="932.369141" xlink:href="#DejaVuSans-102"/>
     <use x="967.574219" xlink:href="#DejaVuSans-101"/>
     <use x="1029.097656" xlink:href="#DejaVuSans-114"/>
     <use x="1067.960938" xlink:href="#DejaVuSans-101"/>
     <use x="1129.484375" xlink:href="#DejaVuSans-110"/>
     <use x="1192.863281" xlink:href="#DejaVuSans-116"/>
     <use x="1232.072266" xlink:href="#DejaVuSans-32"/>
     <use x="1263.859375" xlink:href="#DejaVuSans-114"/>
     <use x="1304.972656" xlink:href="#DejaVuSans-97"/>
     <use x="1366.251953" xlink:href="#DejaVuSans-100"/>
     <use x="1429.728516" xlink:href="#DejaVuSans-105"/>
     <use x="1457.511719" xlink:href="#DejaVuSans-117"/>
     <use x="1520.890625" xlink:href="#DejaVuSans-115"/>
    </g>
   </g>
   <g id="legend_1">
    <g id="patch_7">
     <path d="M 362.995 249.418625 
L 407.72 249.418625 
Q 409.72 249.418625 409.72 247.418625 
L 409.72 101.637375 
Q 409.72 99.637375 407.72 99.637375 
L 362.995 99.637375 
Q 360.995 99.637375 360.995 101.637375 
L 360.995 247.418625 
Q 360.995 249.418625 362.995 249.418625 
z
" style="fill:#ffffff;opacity:0.8;stroke:#cccccc;stroke-linejoin:miter;"/>
    </g>
    <g id="line2d_25">
     <path d="M 364.995 107.735813 
L 384.995 107.735813 
" style="fill:none;stroke:#1f77b4;stroke-linecap:square;stroke-width:2;"/>
    </g>
    <g id="line2d_26"/>
    <g id="text_17">
     <!-- 0 -->
     <g transform="translate(392.995 111.235813)scale(0.1 -0.1)">
      <use xlink:href="#DejaVuSans-48"/>
     </g>
    </g>
    <g id="line2d_27">
     <path d="M 364.995 122.413938 
L 384.995 122.413938 
" style="fill:none;stroke:#ff7f0e;stroke-linecap:square;stroke-width:2;"/>
    </g>
    <g id="line2d_28"/>
    <g id="text_18">
     <!-- 10 -->
     <g transform="translate(392.995 125.913938)scale(0.1 -0.1)">
      <use xlink:href="#DejaVuSans-49"/>
      <use x="63.623047" xlink:href="#DejaVuSans-48"/>
     </g>
    </g>
    <g id="line2d_29">
     <path d="M 364.995 137.092063 
L 384.995 137.092063 
" style="fill:none;stroke:#2ca02c;stroke-linecap:square;stroke-width:2;"/>
    </g>
    <g id="line2d_30"/>
    <g id="text_19">
     <!-- 20 -->
     <g transform="translate(392.995 140.592063)scale(0.1 -0.1)">
      <use xlink:href="#DejaVuSans-50"/>
      <use x="63.623047" xlink:href="#DejaVuSans-48"/>
     </g>
    </g>
    <g id="line2d_31">
     <path d="M 364.995 151.770188 
L 384.995 151.770188 
" style="fill:none;stroke:#d62728;stroke-linecap:square;stroke-width:2;"/>
    </g>
    <g id="line2d_32"/>
    <g id="text_20">
     <!-- 30 -->
     <g transform="translate(392.995 155.270188)scale(0.1 -0.1)">
      <defs>
       <path d="M 40.578125 39.3125 
Q 47.65625 37.796875 51.625 33 
Q 55.609375 28.21875 55.609375 21.1875 
Q 55.609375 10.40625 48.1875 4.484375 
Q 40.765625 -1.421875 27.09375 -1.421875 
Q 22.515625 -1.421875 17.65625 -0.515625 
Q 12.796875 0.390625 7.625 2.203125 
L 7.625 11.71875 
Q 11.71875 9.328125 16.59375 8.109375 
Q 21.484375 6.890625 26.8125 6.890625 
Q 36.078125 6.890625 40.9375 10.546875 
Q 45.796875 14.203125 45.796875 21.1875 
Q 45.796875 27.640625 41.28125 31.265625 
Q 36.765625 34.90625 28.71875 34.90625 
L 20.21875 34.90625 
L 20.21875 43.015625 
L 29.109375 43.015625 
Q 36.375 43.015625 40.234375 45.921875 
Q 44.09375 48.828125 44.09375 54.296875 
Q 44.09375 59.90625 40.109375 62.90625 
Q 36.140625 65.921875 28.71875 65.921875 
Q 24.65625 65.921875 20.015625 65.03125 
Q 15.375 64.15625 9.8125 62.3125 
L 9.8125 71.09375 
Q 15.4375 72.65625 20.34375 73.4375 
Q 25.25 74.21875 29.59375 74.21875 
Q 40.828125 74.21875 47.359375 69.109375 
Q 53.90625 64.015625 53.90625 55.328125 
Q 53.90625 49.265625 50.4375 45.09375 
Q 46.96875 40.921875 40.578125 39.3125 
z
" id="DejaVuSans-51"/>
      </defs>
      <use xlink:href="#DejaVuSans-51"/>
      <use x="63.623047" xlink:href="#DejaVuSans-48"/>
     </g>
    </g>
    <g id="line2d_33">
     <path d="M 364.995 166.448313 
L 384.995 166.448313 
" style="fill:none;stroke:#9467bd;stroke-linecap:square;stroke-width:2;"/>
    </g>
    <g id="line2d_34"/>
    <g id="text_21">
     <!-- 40 -->
     <g transform="translate(392.995 169.948313)scale(0.1 -0.1)">
      <defs>
       <path d="M 37.796875 64.3125 
L 12.890625 25.390625 
L 37.796875 25.390625 
z
M 35.203125 72.90625 
L 47.609375 72.90625 
L 47.609375 25.390625 
L 58.015625 25.390625 
L 58.015625 17.1875 
L 47.609375 17.1875 
L 47.609375 0 
L 37.796875 0 
L 37.796875 17.1875 
L 4.890625 17.1875 
L 4.890625 26.703125 
z
" id="DejaVuSans-52"/>
      </defs>
      <use xlink:href="#DejaVuSans-52"/>
      <use x="63.623047" xlink:href="#DejaVuSans-48"/>
     </g>
    </g>
    <g id="line2d_35">
     <path d="M 364.995 181.126438 
L 384.995 181.126438 
" style="fill:none;stroke:#8c564b;stroke-linecap:square;stroke-width:2;"/>
    </g>
    <g id="line2d_36"/>
    <g id="text_22">
     <!-- 50 -->
     <g transform="translate(392.995 184.626438)scale(0.1 -0.1)">
      <use xlink:href="#DejaVuSans-53"/>
      <use x="63.623047" xlink:href="#DejaVuSans-48"/>
     </g>
    </g>
    <g id="line2d_37">
     <path d="M 364.995 195.804563 
L 384.995 195.804563 
" style="fill:none;stroke:#e377c2;stroke-linecap:square;stroke-width:2;"/>
    </g>
    <g id="line2d_38"/>
    <g id="text_23">
     <!-- 60 -->
     <g transform="translate(392.995 199.304563)scale(0.1 -0.1)">
      <defs>
       <path d="M 33.015625 40.375 
Q 26.375 40.375 22.484375 35.828125 
Q 18.609375 31.296875 18.609375 23.390625 
Q 18.609375 15.53125 22.484375 10.953125 
Q 26.375 6.390625 33.015625 6.390625 
Q 39.65625 6.390625 43.53125 10.953125 
Q 47.40625 15.53125 47.40625 23.390625 
Q 47.40625 31.296875 43.53125 35.828125 
Q 39.65625 40.375 33.015625 40.375 
z
M 52.59375 71.296875 
L 52.59375 62.3125 
Q 48.875 64.0625 45.09375 64.984375 
Q 41.3125 65.921875 37.59375 65.921875 
Q 27.828125 65.921875 22.671875 59.328125 
Q 17.53125 52.734375 16.796875 39.40625 
Q 19.671875 43.65625 24.015625 45.921875 
Q 28.375 48.1875 33.59375 48.1875 
Q 44.578125 48.1875 50.953125 41.515625 
Q 57.328125 34.859375 57.328125 23.390625 
Q 57.328125 12.15625 50.6875 5.359375 
Q 44.046875 -1.421875 33.015625 -1.421875 
Q 20.359375 -1.421875 13.671875 8.265625 
Q 6.984375 17.96875 6.984375 36.375 
Q 6.984375 53.65625 15.1875 63.9375 
Q 23.390625 74.21875 37.203125 74.21875 
Q 40.921875 74.21875 44.703125 73.484375 
Q 48.484375 72.75 52.59375 71.296875 
z
" id="DejaVuSans-54"/>
      </defs>
      <use xlink:href="#DejaVuSans-54"/>
      <use x="63.623047" xlink:href="#DejaVuSans-48"/>
     </g>
    </g>
    <g id="line2d_39">
     <path d="M 364.995 210.482687 
L 384.995 210.482687 
" style="fill:none;stroke:#7f7f7f;stroke-linecap:square;stroke-width:2;"/>
    </g>
    <g id="line2d_40"/>
    <g id="text_24">
     <!-- 70 -->
     <g transform="translate(392.995 213.982687)scale(0.1 -0.1)">
      <use xlink:href="#DejaVuSans-55"/>
      <use x="63.623047" xlink:href="#DejaVuSans-48"/>
     </g>
    </g>
    <g id="line2d_41">
     <path d="M 364.995 225.160813 
L 384.995 225.160813 
" style="fill:none;stroke:#bcbd22;stroke-linecap:square;stroke-width:2;"/>
    </g>
    <g id="line2d_42"/>
    <g id="text_25">
     <!-- 80 -->
     <g transform="translate(392.995 228.660813)scale(0.1 -0.1)">
      <defs>
       <path d="M 31.78125 34.625 
Q 24.75 34.625 20.71875 30.859375 
Q 16.703125 27.09375 16.703125 20.515625 
Q 16.703125 13.921875 20.71875 10.15625 
Q 24.75 6.390625 31.78125 6.390625 
Q 38.8125 6.390625 42.859375 10.171875 
Q 46.921875 13.96875 46.921875 20.515625 
Q 46.921875 27.09375 42.890625 30.859375 
Q 38.875 34.625 31.78125 34.625 
z
M 21.921875 38.8125 
Q 15.578125 40.375 12.03125 44.71875 
Q 8.5 49.078125 8.5 55.328125 
Q 8.5 64.0625 14.71875 69.140625 
Q 20.953125 74.21875 31.78125 74.21875 
Q 42.671875 74.21875 48.875 69.140625 
Q 55.078125 64.0625 55.078125 55.328125 
Q 55.078125 49.078125 51.53125 44.71875 
Q 48 40.375 41.703125 38.8125 
Q 48.828125 37.15625 52.796875 32.3125 
Q 56.78125 27.484375 56.78125 20.515625 
Q 56.78125 9.90625 50.3125 4.234375 
Q 43.84375 -1.421875 31.78125 -1.421875 
Q 19.734375 -1.421875 13.25 4.234375 
Q 6.78125 9.90625 6.78125 20.515625 
Q 6.78125 27.484375 10.78125 32.3125 
Q 14.796875 37.15625 21.921875 38.8125 
z
M 18.3125 54.390625 
Q 18.3125 48.734375 21.84375 45.5625 
Q 25.390625 42.390625 31.78125 42.390625 
Q 38.140625 42.390625 41.71875 45.5625 
Q 45.3125 48.734375 45.3125 54.390625 
Q 45.3125 60.0625 41.71875 63.234375 
Q 38.140625 66.40625 31.78125 66.40625 
Q 25.390625 66.40625 21.84375 63.234375 
Q 18.3125 60.0625 18.3125 54.390625 
z
" id="DejaVuSans-56"/>
      </defs>
      <use xlink:href="#DejaVuSans-56"/>
      <use x="63.623047" xlink:href="#DejaVuSans-48"/>
     </g>
    </g>
    <g id="line2d_43">
     <path d="M 364.995 239.838937 
L 384.995 239.838937 
" style="fill:none;stroke:#17becf;stroke-linecap:square;stroke-width:2;"/>
    </g>
    <g id="line2d_44"/>
    <g id="text_26">
     <!-- 90 -->
     <g transform="translate(392.995 243.338937)scale(0.1 -0.1)">
      <defs>
       <path d="M 10.984375 1.515625 
L 10.984375 10.5 
Q 14.703125 8.734375 18.5 7.8125 
Q 22.3125 6.890625 25.984375 6.890625 
Q 35.75 6.890625 40.890625 13.453125 
Q 46.046875 20.015625 46.78125 33.40625 
Q 43.953125 29.203125 39.59375 26.953125 
Q 35.25 24.703125 29.984375 24.703125 
Q 19.046875 24.703125 12.671875 31.3125 
Q 6.296875 37.9375 6.296875 49.421875 
Q 6.296875 60.640625 12.9375 67.421875 
Q 19.578125 74.21875 30.609375 74.21875 
Q 43.265625 74.21875 49.921875 64.515625 
Q 56.59375 54.828125 56.59375 36.375 
Q 56.59375 19.140625 48.40625 8.859375 
Q 40.234375 -1.421875 26.421875 -1.421875 
Q 22.703125 -1.421875 18.890625 -0.6875 
Q 15.09375 0.046875 10.984375 1.515625 
z
M 30.609375 32.421875 
Q 37.25 32.421875 41.125 36.953125 
Q 45.015625 41.5 45.015625 49.421875 
Q 45.015625 57.28125 41.125 61.84375 
Q 37.25 66.40625 30.609375 66.40625 
Q 23.96875 66.40625 20.09375 61.84375 
Q 16.21875 57.28125 16.21875 49.421875 
Q 16.21875 41.5 20.09375 36.953125 
Q 23.96875 32.421875 30.609375 32.421875 
z
" id="DejaVuSans-57"/>
      </defs>
      <use xlink:href="#DejaVuSans-57"/>
      <use x="63.623047" xlink:href="#DejaVuSans-48"/>
     </g>
    </g>
   </g>
  </g>
 </g>
 <defs>
  <clipPath id="pfa8bc87f87">
   <rect height="266.112" width="357.12" x="57.6" y="41.472"/>
  </clipPath>
 </defs>
</svg>
