<?xml version="1.0" encoding="utf-8" standalone="no"?>
<!DOCTYPE svg PUBLIC "-//W3C//DTD SVG 1.1//EN"
  "http://www.w3.org/Graphics/SVG/1.1/DTD/svg11.dtd">
<!-- Created with matplotlib (https://matplotlib.org/) -->
<svg height="345.6pt" version="1.1" viewBox="0 0 460.8 345.6" width="460.8pt" xmlns="http://www.w3.org/2000/svg" xmlns:xlink="http://www.w3.org/1999/xlink">
 <metadata>
  <rdf:RDF xmlns:cc="http://creativecommons.org/ns#" xmlns:dc="http://purl.org/dc/elements/1.1/" xmlns:rdf="http://www.w3.org/1999/02/22-rdf-syntax-ns#">
   <cc:Work>
    <dc:type rdf:resource="http://purl.org/dc/dcmitype/StillImage"/>
    <dc:date>2022-01-07T13:07:38.497543</dc:date>
    <dc:format>image/svg+xml</dc:format>
    <dc:creator>
     <cc:Agent>
      <dc:title>Matplotlib v3.3.3, https://matplotlib.org/</dc:title>
     </cc:Agent>
    </dc:creator>
   </cc:Work>
  </rdf:RDF>
 </metadata>
 <defs>
  <style type="text/css">*{stroke-linecap:butt;stroke-linejoin:round;}</style>
 </defs>
 <g id="figure_1">
  <g id="patch_1">
   <path d="M 0 345.6 
L 460.8 345.6 
L 460.8 0 
L 0 0 
z
" style="fill:#ffffff;"/>
  </g>
  <g id="axes_1">
   <g id="patch_2">
    <path d="M 57.6 307.584 
L 414.72 307.584 
L 414.72 41.472 
L 57.6 41.472 
z
" style="fill:#ffffff;"/>
   </g>
   <g id="matplotlib.axis_1">
    <g id="xtick_1">
     <g id="line2d_1">
      <defs>
       <path d="M 0 0 
L 0 3.5 
" id="m59ae2fe997" style="stroke:#000000;stroke-width:0.8;"/>
      </defs>
      <g>
       <use style="stroke:#000000;stroke-width:0.8;" x="73.832727" xlink:href="#m59ae2fe997" y="307.584"/>
      </g>
     </g>
     <g id="text_1">
      <!-- 100 -->
      <g transform="translate(64.288977 322.182437)scale(0.1 -0.1)">
       <defs>
        <path d="M 12.40625 8.296875 
L 28.515625 8.296875 
L 28.515625 63.921875 
L 10.984375 60.40625 
L 10.984375 69.390625 
L 28.421875 72.90625 
L 38.28125 72.90625 
L 38.28125 8.296875 
L 54.390625 8.296875 
L 54.390625 0 
L 12.40625 0 
z
" id="DejaVuSans-49"/>
        <path d="M 31.78125 66.40625 
Q 24.171875 66.40625 20.328125 58.90625 
Q 16.5 51.421875 16.5 36.375 
Q 16.5 21.390625 20.328125 13.890625 
Q 24.171875 6.390625 31.78125 6.390625 
Q 39.453125 6.390625 43.28125 13.890625 
Q 47.125 21.390625 47.125 36.375 
Q 47.125 51.421875 43.28125 58.90625 
Q 39.453125 66.40625 31.78125 66.40625 
z
M 31.78125 74.21875 
Q 44.046875 74.21875 50.515625 64.515625 
Q 56.984375 54.828125 56.984375 36.375 
Q 56.984375 17.96875 50.515625 8.265625 
Q 44.046875 -1.421875 31.78125 -1.421875 
Q 19.53125 -1.421875 13.0625 8.265625 
Q 6.59375 17.96875 6.59375 36.375 
Q 6.59375 54.828125 13.0625 64.515625 
Q 19.53125 74.21875 31.78125 74.21875 
z
" id="DejaVuSans-48"/>
       </defs>
       <use xlink:href="#DejaVuSans-49"/>
       <use x="63.623047" xlink:href="#DejaVuSans-48"/>
       <use x="127.246094" xlink:href="#DejaVuSans-48"/>
      </g>
     </g>
    </g>
    <g id="xtick_2">
     <g id="line2d_2">
      <g>
       <use style="stroke:#000000;stroke-width:0.8;" x="120.478495" xlink:href="#m59ae2fe997" y="307.584"/>
      </g>
     </g>
     <g id="text_2">
      <!-- 125 -->
      <g transform="translate(110.934745 322.182437)scale(0.1 -0.1)">
       <defs>
        <path d="M 19.1875 8.296875 
L 53.609375 8.296875 
L 53.609375 0 
L 7.328125 0 
L 7.328125 8.296875 
Q 12.9375 14.109375 22.625 23.890625 
Q 32.328125 33.6875 34.8125 36.53125 
Q 39.546875 41.84375 41.421875 45.53125 
Q 43.3125 49.21875 43.3125 52.78125 
Q 43.3125 58.59375 39.234375 62.25 
Q 35.15625 65.921875 28.609375 65.921875 
Q 23.96875 65.921875 18.8125 64.3125 
Q 13.671875 62.703125 7.8125 59.421875 
L 7.8125 69.390625 
Q 13.765625 71.78125 18.9375 73 
Q 24.125 74.21875 28.421875 74.21875 
Q 39.75 74.21875 46.484375 68.546875 
Q 53.21875 62.890625 53.21875 53.421875 
Q 53.21875 48.921875 51.53125 44.890625 
Q 49.859375 40.875 45.40625 35.40625 
Q 44.1875 33.984375 37.640625 27.21875 
Q 31.109375 20.453125 19.1875 8.296875 
z
" id="DejaVuSans-50"/>
        <path d="M 10.796875 72.90625 
L 49.515625 72.90625 
L 49.515625 64.59375 
L 19.828125 64.59375 
L 19.828125 46.734375 
Q 21.96875 47.46875 24.109375 47.828125 
Q 26.265625 48.1875 28.421875 48.1875 
Q 40.625 48.1875 47.75 41.5 
Q 54.890625 34.8125 54.890625 23.390625 
Q 54.890625 11.625 47.5625 5.09375 
Q 40.234375 -1.421875 26.90625 -1.421875 
Q 22.3125 -1.421875 17.546875 -0.640625 
Q 12.796875 0.140625 7.71875 1.703125 
L 7.71875 11.625 
Q 12.109375 9.234375 16.796875 8.0625 
Q 21.484375 6.890625 26.703125 6.890625 
Q 35.15625 6.890625 40.078125 11.328125 
Q 45.015625 15.765625 45.015625 23.390625 
Q 45.015625 31 40.078125 35.4375 
Q 35.15625 39.890625 26.703125 39.890625 
Q 22.75 39.890625 18.8125 39.015625 
Q 14.890625 38.140625 10.796875 36.28125 
z
" id="DejaVuSans-53"/>
       </defs>
       <use xlink:href="#DejaVuSans-49"/>
       <use x="63.623047" xlink:href="#DejaVuSans-50"/>
       <use x="127.246094" xlink:href="#DejaVuSans-53"/>
      </g>
     </g>
    </g>
    <g id="xtick_3">
     <g id="line2d_3">
      <g>
       <use style="stroke:#000000;stroke-width:0.8;" x="167.124263" xlink:href="#m59ae2fe997" y="307.584"/>
      </g>
     </g>
     <g id="text_3">
      <!-- 150 -->
      <g transform="translate(157.580513 322.182437)scale(0.1 -0.1)">
       <use xlink:href="#DejaVuSans-49"/>
       <use x="63.623047" xlink:href="#DejaVuSans-53"/>
       <use x="127.246094" xlink:href="#DejaVuSans-48"/>
      </g>
     </g>
    </g>
    <g id="xtick_4">
     <g id="line2d_4">
      <g>
       <use style="stroke:#000000;stroke-width:0.8;" x="213.770031" xlink:href="#m59ae2fe997" y="307.584"/>
      </g>
     </g>
     <g id="text_4">
      <!-- 175 -->
      <g transform="translate(204.226281 322.182437)scale(0.1 -0.1)">
       <defs>
        <path d="M 8.203125 72.90625 
L 55.078125 72.90625 
L 55.078125 68.703125 
L 28.609375 0 
L 18.3125 0 
L 43.21875 64.59375 
L 8.203125 64.59375 
z
" id="DejaVuSans-55"/>
       </defs>
       <use xlink:href="#DejaVuSans-49"/>
       <use x="63.623047" xlink:href="#DejaVuSans-55"/>
       <use x="127.246094" xlink:href="#DejaVuSans-53"/>
      </g>
     </g>
    </g>
    <g id="xtick_5">
     <g id="line2d_5">
      <g>
       <use style="stroke:#000000;stroke-width:0.8;" x="260.415799" xlink:href="#m59ae2fe997" y="307.584"/>
      </g>
     </g>
     <g id="text_5">
      <!-- 200 -->
      <g transform="translate(250.872049 322.182437)scale(0.1 -0.1)">
       <use xlink:href="#DejaVuSans-50"/>
       <use x="63.623047" xlink:href="#DejaVuSans-48"/>
       <use x="127.246094" xlink:href="#DejaVuSans-48"/>
      </g>
     </g>
    </g>
    <g id="xtick_6">
     <g id="line2d_6">
      <g>
       <use style="stroke:#000000;stroke-width:0.8;" x="307.061567" xlink:href="#m59ae2fe997" y="307.584"/>
      </g>
     </g>
     <g id="text_6">
      <!-- 225 -->
      <g transform="translate(297.517817 322.182437)scale(0.1 -0.1)">
       <use xlink:href="#DejaVuSans-50"/>
       <use x="63.623047" xlink:href="#DejaVuSans-50"/>
       <use x="127.246094" xlink:href="#DejaVuSans-53"/>
      </g>
     </g>
    </g>
    <g id="xtick_7">
     <g id="line2d_7">
      <g>
       <use style="stroke:#000000;stroke-width:0.8;" x="353.707335" xlink:href="#m59ae2fe997" y="307.584"/>
      </g>
     </g>
     <g id="text_7">
      <!-- 250 -->
      <g transform="translate(344.163585 322.182437)scale(0.1 -0.1)">
       <use xlink:href="#DejaVuSans-50"/>
       <use x="63.623047" xlink:href="#DejaVuSans-53"/>
       <use x="127.246094" xlink:href="#DejaVuSans-48"/>
      </g>
     </g>
    </g>
    <g id="xtick_8">
     <g id="line2d_8">
      <g>
       <use style="stroke:#000000;stroke-width:0.8;" x="400.353103" xlink:href="#m59ae2fe997" y="307.584"/>
      </g>
     </g>
     <g id="text_8">
      <!-- 275 -->
      <g transform="translate(390.809353 322.182437)scale(0.1 -0.1)">
       <use xlink:href="#DejaVuSans-50"/>
       <use x="63.623047" xlink:href="#DejaVuSans-55"/>
       <use x="127.246094" xlink:href="#DejaVuSans-53"/>
      </g>
     </g>
    </g>
    <g id="text_9">
     <!-- radius(nm) -->
     <g transform="translate(208.763125 335.860562)scale(0.1 -0.1)">
      <defs>
       <path d="M 41.109375 46.296875 
Q 39.59375 47.171875 37.8125 47.578125 
Q 36.03125 48 33.890625 48 
Q 26.265625 48 22.1875 43.046875 
Q 18.109375 38.09375 18.109375 28.8125 
L 18.109375 0 
L 9.078125 0 
L 9.078125 54.6875 
L 18.109375 54.6875 
L 18.109375 46.1875 
Q 20.953125 51.171875 25.484375 53.578125 
Q 30.03125 56 36.53125 56 
Q 37.453125 56 38.578125 55.875 
Q 39.703125 55.765625 41.0625 55.515625 
z
" id="DejaVuSans-114"/>
       <path d="M 34.28125 27.484375 
Q 23.390625 27.484375 19.1875 25 
Q 14.984375 22.515625 14.984375 16.5 
Q 14.984375 11.71875 18.140625 8.90625 
Q 21.296875 6.109375 26.703125 6.109375 
Q 34.1875 6.109375 38.703125 11.40625 
Q 43.21875 16.703125 43.21875 25.484375 
L 43.21875 27.484375 
z
M 52.203125 31.203125 
L 52.203125 0 
L 43.21875 0 
L 43.21875 8.296875 
Q 40.140625 3.328125 35.546875 0.953125 
Q 30.953125 -1.421875 24.3125 -1.421875 
Q 15.921875 -1.421875 10.953125 3.296875 
Q 6 8.015625 6 15.921875 
Q 6 25.140625 12.171875 29.828125 
Q 18.359375 34.515625 30.609375 34.515625 
L 43.21875 34.515625 
L 43.21875 35.40625 
Q 43.21875 41.609375 39.140625 45 
Q 35.0625 48.390625 27.6875 48.390625 
Q 23 48.390625 18.546875 47.265625 
Q 14.109375 46.140625 10.015625 43.890625 
L 10.015625 52.203125 
Q 14.9375 54.109375 19.578125 55.046875 
Q 24.21875 56 28.609375 56 
Q 40.484375 56 46.34375 49.84375 
Q 52.203125 43.703125 52.203125 31.203125 
z
" id="DejaVuSans-97"/>
       <path d="M 45.40625 46.390625 
L 45.40625 75.984375 
L 54.390625 75.984375 
L 54.390625 0 
L 45.40625 0 
L 45.40625 8.203125 
Q 42.578125 3.328125 38.25 0.953125 
Q 33.9375 -1.421875 27.875 -1.421875 
Q 17.96875 -1.421875 11.734375 6.484375 
Q 5.515625 14.40625 5.515625 27.296875 
Q 5.515625 40.1875 11.734375 48.09375 
Q 17.96875 56 27.875 56 
Q 33.9375 56 38.25 53.625 
Q 42.578125 51.265625 45.40625 46.390625 
z
M 14.796875 27.296875 
Q 14.796875 17.390625 18.875 11.75 
Q 22.953125 6.109375 30.078125 6.109375 
Q 37.203125 6.109375 41.296875 11.75 
Q 45.40625 17.390625 45.40625 27.296875 
Q 45.40625 37.203125 41.296875 42.84375 
Q 37.203125 48.484375 30.078125 48.484375 
Q 22.953125 48.484375 18.875 42.84375 
Q 14.796875 37.203125 14.796875 27.296875 
z
" id="DejaVuSans-100"/>
       <path d="M 9.421875 54.6875 
L 18.40625 54.6875 
L 18.40625 0 
L 9.421875 0 
z
M 9.421875 75.984375 
L 18.40625 75.984375 
L 18.40625 64.59375 
L 9.421875 64.59375 
z
" id="DejaVuSans-105"/>
       <path d="M 8.5 21.578125 
L 8.5 54.6875 
L 17.484375 54.6875 
L 17.484375 21.921875 
Q 17.484375 14.15625 20.5 10.265625 
Q 23.53125 6.390625 29.59375 6.390625 
Q 36.859375 6.390625 41.078125 11.03125 
Q 45.3125 15.671875 45.3125 23.6875 
L 45.3125 54.6875 
L 54.296875 54.6875 
L 54.296875 0 
L 45.3125 0 
L 45.3125 8.40625 
Q 42.046875 3.421875 37.71875 1 
Q 33.40625 -1.421875 27.6875 -1.421875 
Q 18.265625 -1.421875 13.375 4.4375 
Q 8.5 10.296875 8.5 21.578125 
z
M 31.109375 56 
z
" id="DejaVuSans-117"/>
       <path d="M 44.28125 53.078125 
L 44.28125 44.578125 
Q 40.484375 46.53125 36.375 47.5 
Q 32.28125 48.484375 27.875 48.484375 
Q 21.1875 48.484375 17.84375 46.4375 
Q 14.5 44.390625 14.5 40.28125 
Q 14.5 37.15625 16.890625 35.375 
Q 19.28125 33.59375 26.515625 31.984375 
L 29.59375 31.296875 
Q 39.15625 29.25 43.1875 25.515625 
Q 47.21875 21.78125 47.21875 15.09375 
Q 47.21875 7.46875 41.1875 3.015625 
Q 35.15625 -1.421875 24.609375 -1.421875 
Q 20.21875 -1.421875 15.453125 -0.5625 
Q 10.6875 0.296875 5.421875 2 
L 5.421875 11.28125 
Q 10.40625 8.6875 15.234375 7.390625 
Q 20.0625 6.109375 24.8125 6.109375 
Q 31.15625 6.109375 34.5625 8.28125 
Q 37.984375 10.453125 37.984375 14.40625 
Q 37.984375 18.0625 35.515625 20.015625 
Q 33.0625 21.96875 24.703125 23.78125 
L 21.578125 24.515625 
Q 13.234375 26.265625 9.515625 29.90625 
Q 5.8125 33.546875 5.8125 39.890625 
Q 5.8125 47.609375 11.28125 51.796875 
Q 16.75 56 26.8125 56 
Q 31.78125 56 36.171875 55.265625 
Q 40.578125 54.546875 44.28125 53.078125 
z
" id="DejaVuSans-115"/>
       <path d="M 31 75.875 
Q 24.46875 64.65625 21.28125 53.65625 
Q 18.109375 42.671875 18.109375 31.390625 
Q 18.109375 20.125 21.3125 9.0625 
Q 24.515625 -2 31 -13.1875 
L 23.1875 -13.1875 
Q 15.875 -1.703125 12.234375 9.375 
Q 8.59375 20.453125 8.59375 31.390625 
Q 8.59375 42.28125 12.203125 53.3125 
Q 15.828125 64.359375 23.1875 75.875 
z
" id="DejaVuSans-40"/>
       <path d="M 54.890625 33.015625 
L 54.890625 0 
L 45.90625 0 
L 45.90625 32.71875 
Q 45.90625 40.484375 42.875 44.328125 
Q 39.84375 48.1875 33.796875 48.1875 
Q 26.515625 48.1875 22.3125 43.546875 
Q 18.109375 38.921875 18.109375 30.90625 
L 18.109375 0 
L 9.078125 0 
L 9.078125 54.6875 
L 18.109375 54.6875 
L 18.109375 46.1875 
Q 21.34375 51.125 25.703125 53.5625 
Q 30.078125 56 35.796875 56 
Q 45.21875 56 50.046875 50.171875 
Q 54.890625 44.34375 54.890625 33.015625 
z
" id="DejaVuSans-110"/>
       <path d="M 52 44.1875 
Q 55.375 50.25 60.0625 53.125 
Q 64.75 56 71.09375 56 
Q 79.640625 56 84.28125 50.015625 
Q 88.921875 44.046875 88.921875 33.015625 
L 88.921875 0 
L 79.890625 0 
L 79.890625 32.71875 
Q 79.890625 40.578125 77.09375 44.375 
Q 74.3125 48.1875 68.609375 48.1875 
Q 61.625 48.1875 57.5625 43.546875 
Q 53.515625 38.921875 53.515625 30.90625 
L 53.515625 0 
L 44.484375 0 
L 44.484375 32.71875 
Q 44.484375 40.625 41.703125 44.40625 
Q 38.921875 48.1875 33.109375 48.1875 
Q 26.21875 48.1875 22.15625 43.53125 
Q 18.109375 38.875 18.109375 30.90625 
L 18.109375 0 
L 9.078125 0 
L 9.078125 54.6875 
L 18.109375 54.6875 
L 18.109375 46.1875 
Q 21.1875 51.21875 25.484375 53.609375 
Q 29.78125 56 35.6875 56 
Q 41.65625 56 45.828125 52.96875 
Q 50 49.953125 52 44.1875 
z
" id="DejaVuSans-109"/>
       <path d="M 8.015625 75.875 
L 15.828125 75.875 
Q 23.140625 64.359375 26.78125 53.3125 
Q 30.421875 42.28125 30.421875 31.390625 
Q 30.421875 20.453125 26.78125 9.375 
Q 23.140625 -1.703125 15.828125 -13.1875 
L 8.015625 -13.1875 
Q 14.5 -2 17.703125 9.0625 
Q 20.90625 20.125 20.90625 31.390625 
Q 20.90625 42.671875 17.703125 53.65625 
Q 14.5 64.65625 8.015625 75.875 
z
" id="DejaVuSans-41"/>
      </defs>
      <use xlink:href="#DejaVuSans-114"/>
      <use x="41.113281" xlink:href="#DejaVuSans-97"/>
      <use x="102.392578" xlink:href="#DejaVuSans-100"/>
      <use x="165.869141" xlink:href="#DejaVuSans-105"/>
      <use x="193.652344" xlink:href="#DejaVuSans-117"/>
      <use x="257.03125" xlink:href="#DejaVuSans-115"/>
      <use x="309.130859" xlink:href="#DejaVuSans-40"/>
      <use x="348.144531" xlink:href="#DejaVuSans-110"/>
      <use x="411.523438" xlink:href="#DejaVuSans-109"/>
      <use x="508.935547" xlink:href="#DejaVuSans-41"/>
     </g>
    </g>
   </g>
   <g id="matplotlib.axis_2">
    <g id="ytick_1">
     <g id="line2d_9">
      <defs>
       <path d="M 0 0 
L -3.5 0 
" id="maa02b52862" style="stroke:#000000;stroke-width:0.8;"/>
      </defs>
      <g>
       <use style="stroke:#000000;stroke-width:0.8;" x="57.6" xlink:href="#maa02b52862" y="295.488"/>
      </g>
     </g>
     <g id="text_10">
      <!-- 0.0 -->
      <g transform="translate(34.696875 299.287219)scale(0.1 -0.1)">
       <defs>
        <path d="M 10.6875 12.40625 
L 21 12.40625 
L 21 0 
L 10.6875 0 
z
" id="DejaVuSans-46"/>
       </defs>
       <use xlink:href="#DejaVuSans-48"/>
       <use x="63.623047" xlink:href="#DejaVuSans-46"/>
       <use x="95.410156" xlink:href="#DejaVuSans-48"/>
      </g>
     </g>
    </g>
    <g id="ytick_2">
     <g id="line2d_10">
      <g>
       <use style="stroke:#000000;stroke-width:0.8;" x="57.6" xlink:href="#maa02b52862" y="237.583147"/>
      </g>
     </g>
     <g id="text_11">
      <!-- 0.5 -->
      <g transform="translate(34.696875 241.382366)scale(0.1 -0.1)">
       <use xlink:href="#DejaVuSans-48"/>
       <use x="63.623047" xlink:href="#DejaVuSans-46"/>
       <use x="95.410156" xlink:href="#DejaVuSans-53"/>
      </g>
     </g>
    </g>
    <g id="ytick_3">
     <g id="line2d_11">
      <g>
       <use style="stroke:#000000;stroke-width:0.8;" x="57.6" xlink:href="#maa02b52862" y="179.678294"/>
      </g>
     </g>
     <g id="text_12">
      <!-- 1.0 -->
      <g transform="translate(34.696875 183.477513)scale(0.1 -0.1)">
       <use xlink:href="#DejaVuSans-49"/>
       <use x="63.623047" xlink:href="#DejaVuSans-46"/>
       <use x="95.410156" xlink:href="#DejaVuSans-48"/>
      </g>
     </g>
    </g>
    <g id="ytick_4">
     <g id="line2d_12">
      <g>
       <use style="stroke:#000000;stroke-width:0.8;" x="57.6" xlink:href="#maa02b52862" y="121.773442"/>
      </g>
     </g>
     <g id="text_13">
      <!-- 1.5 -->
      <g transform="translate(34.696875 125.57266)scale(0.1 -0.1)">
       <use xlink:href="#DejaVuSans-49"/>
       <use x="63.623047" xlink:href="#DejaVuSans-46"/>
       <use x="95.410156" xlink:href="#DejaVuSans-53"/>
      </g>
     </g>
    </g>
    <g id="ytick_5">
     <g id="line2d_13">
      <g>
       <use style="stroke:#000000;stroke-width:0.8;" x="57.6" xlink:href="#maa02b52862" y="63.868589"/>
      </g>
     </g>
     <g id="text_14">
      <!-- 2.0 -->
      <g transform="translate(34.696875 67.667808)scale(0.1 -0.1)">
       <use xlink:href="#DejaVuSans-50"/>
       <use x="63.623047" xlink:href="#DejaVuSans-46"/>
       <use x="95.410156" xlink:href="#DejaVuSans-48"/>
      </g>
     </g>
    </g>
   </g>
   <g id="line2d_14">
    <path clip-path="url(#p76bd1037d9)" d="M 73.832727 295.488 
L 85.027712 294.357237 
L 96.222696 292.98567 
L 105.55185 291.630896 
L 114.881003 290.063983 
L 124.210157 288.264197 
L 133.53931 286.198505 
L 141.002633 284.317732 
L 148.465956 282.187894 
L 154.063448 280.392075 
L 159.66094 278.392013 
L 165.258433 276.151344 
L 170.855925 273.629405 
L 176.453417 270.783366 
L 180.185078 268.685488 
L 183.91674 266.414877 
L 187.648401 263.964092 
L 191.380063 261.330041 
L 196.977555 257.043528 
L 202.575047 252.39457 
L 210.03837 245.784313 
L 224.965016 232.339979 
L 230.562508 227.632211 
L 236.16 223.246081 
L 241.757492 219.210094 
L 247.354984 215.515203 
L 252.952476 212.123469 
L 258.549969 208.971381 
L 271.610784 201.778003 
L 273.476614 200.568495 
L 275.342445 199.185446 
L 277.208276 197.486807 
L 279.074107 195.159446 
L 280.939937 191.386219 
L 282.805768 153.613164 
L 284.671599 137.952786 
L 286.537429 97.427171 
L 288.40326 91.626199 
L 290.269091 88.595452 
L 292.134922 86.656325 
L 294.000752 85.236618 
L 295.866583 84.103013 
L 299.598245 82.302333 
L 303.329906 80.841703 
L 308.927398 78.983978 
L 316.390721 76.850215 
L 325.719875 74.493607 
L 336.914859 71.934798 
L 351.841505 68.790283 
L 381.694796 62.628514 
L 385.426458 61.684013 
L 389.158119 60.518443 
L 391.02395 59.753878 
L 392.889781 58.721422 
L 394.755611 57.081568 
L 396.621442 53.568 
L 398.487273 57.070589 
L 398.487273 57.070589 
" style="fill:none;stroke:#1f77b4;stroke-linecap:square;stroke-width:2;"/>
   </g>
   <g id="line2d_15">
    <path clip-path="url(#p76bd1037d9)" d="M 73.832727 295.488 
L 85.027712 294.339764 
L 96.222696 292.947313 
L 105.55185 291.571897 
L 114.881003 289.980709 
L 124.210157 288.151979 
L 131.67348 286.495278 
L 139.136803 284.636025 
L 146.600125 282.531921 
L 152.197618 280.758495 
L 157.79511 278.783143 
L 163.392602 276.568363 
L 168.990094 274.071172 
L 174.587586 271.244704 
L 178.319248 269.153981 
L 182.050909 266.882922 
L 185.782571 264.420963 
L 189.514232 261.761382 
L 193.245893 258.903027 
L 198.843386 254.258599 
L 204.440878 249.240976 
L 211.904201 242.153859 
L 226.830846 227.630023 
L 228.696677 225.684808 
L 230.562508 223.3834 
L 232.428339 218.643807 
L 234.294169 227.813273 
L 236.16 222.427732 
L 238.025831 220.214192 
L 239.891661 218.473523 
L 243.623323 215.445646 
L 249.220815 211.366626 
L 260.415799 203.509147 
L 262.28163 202.04197 
L 264.147461 200.427999 
L 266.013292 198.574391 
L 267.879122 196.317482 
L 269.744953 193.347746 
L 271.610784 213.499411 
L 273.476614 208.319438 
L 277.208276 191.057148 
L 279.074107 185.105461 
L 280.939937 181.433667 
L 282.805768 205.650728 
L 284.671599 202.598633 
L 286.537429 222.049375 
L 288.40326 206.853411 
L 290.269091 202.706072 
L 292.134922 200.951759 
L 294.000752 199.701681 
L 297.732414 197.765958 
L 301.464075 196.187227 
L 307.061567 194.159636 
L 312.65906 192.372408 
L 320.122382 190.215104 
L 331.317367 187.260831 
L 357.438997 180.558008 
L 361.170658 179.395651 
L 364.90232 177.982097 
L 366.76815 177.080453 
L 368.633981 175.911012 
L 370.499812 174.18848 
L 372.365643 183.228829 
L 374.231473 176.506242 
L 376.097304 155.437118 
L 377.963135 202.424031 
L 379.828966 257.113169 
L 381.694796 180.240698 
L 383.560627 294.6869 
L 387.292288 292.610846 
L 391.02395 290.55219 
L 392.889781 289.163614 
L 394.755611 286.764581 
L 396.621442 194.548132 
L 398.487273 294.632099 
L 398.487273 294.632099 
" style="fill:none;stroke:#ff7f0e;stroke-linecap:square;stroke-width:2;"/>
   </g>
   <g id="line2d_16">
    <path clip-path="url(#p76bd1037d9)" d="M 73.832727 295.488 
L 85.027712 294.28337 
L 94.356865 293.0879 
L 103.686019 291.69203 
L 113.015172 290.074879 
L 122.344326 288.213049 
L 129.807649 286.523505 
L 137.270972 284.623826 
L 144.734295 282.467951 
L 150.331787 280.644092 
L 155.929279 278.602975 
L 161.526771 276.299661 
L 167.124263 273.680471 
L 170.855925 271.728677 
L 174.587586 269.589496 
L 178.319248 267.242926 
L 182.050909 264.669866 
L 185.782571 261.853794 
L 189.514232 258.782922 
L 193.245893 255.452631 
L 196.977555 251.867781 
L 200.709216 248.044214 
L 206.306708 241.921415 
L 211.904201 235.431759 
L 217.501693 228.594147 
L 221.233354 223.575851 
L 223.099185 220.600723 
L 224.965016 216.590769 
L 226.830846 246.364713 
L 228.696677 222.488431 
L 230.562508 224.204801 
L 232.428339 219.278882 
L 234.294169 216.198807 
L 236.16 213.74302 
L 239.891661 209.564297 
L 245.489154 203.91222 
L 249.220815 200.130906 
L 252.952476 196.034603 
L 254.818307 193.755543 
L 256.684138 191.238365 
L 258.549969 188.401267 
L 260.415799 208.424885 
L 262.28163 205.615872 
L 264.147461 202.256662 
L 266.013292 256.374404 
L 267.879122 194.544044 
L 269.744953 190.978049 
L 271.610784 187.796958 
L 273.476614 185.096308 
L 275.342445 182.847846 
L 277.208276 180.967412 
L 279.074107 205.934773 
L 280.939937 204.047268 
L 286.537429 199.13242 
L 288.40326 200.837388 
L 290.269091 197.845175 
L 292.134922 196.62468 
L 295.866583 194.625597 
L 299.598245 192.877889 
L 305.195737 190.527023 
L 312.65906 187.700236 
L 323.854044 183.777316 
L 335.049028 179.841436 
L 336.914859 294.954122 
L 342.512351 292.692495 
L 346.244013 290.93802 
L 348.109843 289.931743 
L 349.975674 288.794072 
L 351.841505 287.467491 
L 353.707335 285.85854 
L 355.573166 283.80758 
L 357.438997 289.614109 
L 359.304828 287.318509 
L 361.170658 282.944635 
L 364.90232 269.031867 
L 366.76815 263.856914 
L 368.633981 260.733666 
L 370.499812 258.879199 
L 372.365643 257.724672 
L 374.231473 256.950952 
L 376.097304 292.450558 
L 379.828966 289.910483 
L 385.426458 286.263606 
L 387.292288 284.832356 
L 389.158119 283.08513 
L 391.02395 191.490937 
L 392.889781 190.000826 
L 394.755611 185.811018 
L 396.621442 291.99447 
L 398.487273 183.988826 
L 398.487273 183.988826 
" style="fill:none;stroke:#2ca02c;stroke-linecap:square;stroke-width:2;"/>
   </g>
   <g id="line2d_17">
    <path clip-path="url(#p76bd1037d9)" d="M 73.832727 295.488 
L 85.027712 294.151274 
L 94.356865 292.838717 
L 103.686019 291.319554 
L 113.015172 289.572213 
L 122.344326 287.569566 
L 129.807649 285.753488 
L 137.270972 283.704996 
L 142.868464 281.979894 
L 148.465956 280.053059 
L 154.063448 277.875985 
L 159.66094 275.385827 
L 163.392602 273.513153 
L 167.124263 271.438064 
L 170.855925 269.128744 
L 174.587586 266.550352 
L 178.319248 263.666382 
L 182.050909 260.441047 
L 185.782571 256.842645 
L 189.514232 252.847355 
L 193.245893 248.442033 
L 196.977555 243.624007 
L 200.709216 238.395487 
L 204.440878 232.747691 
L 208.172539 226.614265 
L 210.03837 223.293652 
L 211.904201 219.696605 
L 213.770031 215.616762 
L 215.635862 210.542618 
L 217.501693 238.849297 
L 219.367524 228.119797 
L 221.233354 213.532052 
L 223.099185 205.759604 
L 224.965016 213.941162 
L 226.830846 209.738908 
L 228.696677 206.31701 
L 230.562508 203.314136 
L 234.294169 197.962494 
L 245.489154 183.053281 
L 247.354984 142.981062 
L 249.220815 141.241652 
L 251.086646 139.314947 
L 254.818307 250.807672 
L 256.684138 190.597091 
L 258.549969 246.173999 
L 260.415799 185.980691 
L 262.28163 241.691615 
L 264.147461 181.729087 
L 267.879122 293.921816 
L 273.476614 289.334407 
L 277.208276 286.441259 
L 279.074107 195.965768 
L 280.939937 194.354655 
L 282.805768 192.264132 
L 284.671599 191.37509 
L 286.537429 192.329743 
L 288.40326 190.7514 
L 292.134922 188.394607 
L 295.866583 186.346004 
L 301.464075 183.528839 
L 308.927398 180.00438 
L 310.793229 294.948993 
L 320.122382 290.543255 
L 325.719875 287.664107 
L 329.451536 285.515463 
L 333.183197 283.034921 
L 335.049028 281.598767 
L 336.914859 279.969179 
L 338.78069 278.071908 
L 340.64652 275.797624 
L 342.512351 277.878039 
L 344.378182 276.468495 
L 346.244013 274.007075 
L 348.109843 270.415794 
L 351.841505 261.971111 
L 353.707335 258.590422 
L 355.573166 256.072617 
L 357.438997 254.234683 
L 359.304828 252.863271 
L 361.170658 251.795018 
L 364.90232 250.162864 
L 370.499812 248.206079 
L 376.097304 246.275992 
L 377.963135 277.45984 
L 381.694796 275.120204 
L 385.426458 272.490787 
L 387.292288 238.781379 
L 389.158119 237.950058 
L 391.02395 236.930839 
L 392.889781 293.504186 
L 394.755611 291.65501 
L 396.621442 231.08289 
L 398.487273 227.34356 
L 398.487273 227.34356 
" style="fill:none;stroke:#d62728;stroke-linecap:square;stroke-width:2;"/>
   </g>
   <g id="line2d_18">
    <path clip-path="url(#p76bd1037d9)" d="M 73.832727 295.488 
L 85.027712 293.582929 
L 96.222696 291.415126 
L 105.55185 289.398461 
L 114.881003 287.183674 
L 124.210157 284.746046 
L 131.67348 282.593952 
L 139.136803 280.196516 
L 144.734295 278.178058 
L 150.331787 275.902015 
L 154.063448 274.199181 
L 157.79511 272.309108 
L 161.526771 270.189602 
L 165.258433 267.789312 
L 168.990094 265.04758 
L 172.721755 261.896689 
L 176.453417 258.26861 
L 180.185078 254.107648 
L 183.91674 249.385338 
L 187.648401 244.102457 
L 191.380063 238.251174 
L 195.111724 231.709153 
L 196.977555 228.058933 
L 198.843386 224.011802 
L 200.709216 219.352528 
L 202.575047 213.677151 
L 204.440878 206.196582 
L 206.306708 229.671629 
L 208.172539 217.447861 
L 210.03837 206.180047 
L 211.904201 198.136818 
L 213.770031 192.371846 
L 215.635862 136.013443 
L 217.501693 83.62314 
L 219.367524 79.090414 
L 221.233354 75.042809 
L 223.099185 71.38638 
L 224.965016 68.04271 
L 228.696677 62.035181 
L 230.562508 76.514959 
L 234.294169 189.969868 
L 236.16 188.552479 
L 238.025831 244.920146 
L 241.757492 241.579626 
L 245.489154 238.029068 
L 247.354984 294.134342 
L 251.086646 290.591549 
L 252.952476 230.979997 
L 254.818307 229.335886 
L 256.684138 285.66965 
L 258.549969 226.274046 
L 260.415799 282.773332 
L 262.28163 223.551495 
L 266.013292 221.199546 
L 267.879122 220.183814 
L 269.744953 274.484012 
L 271.610784 272.24574 
L 273.476614 268.640847 
L 275.342445 257.406665 
L 277.208276 211.533492 
L 279.074107 211.969484 
L 280.939937 276.33446 
L 282.805768 274.133236 
L 284.671599 272.573004 
L 286.537429 271.311949 
L 290.269091 269.236794 
L 294.000752 267.481773 
L 299.598245 265.195789 
L 303.329906 263.854347 
L 305.195737 283.843211 
L 310.793229 280.423043 
L 314.52489 277.91309 
L 318.256552 275.086151 
L 320.122382 273.492626 
L 321.988213 271.726812 
L 323.854044 269.728485 
L 325.719875 267.410629 
L 327.585705 264.648198 
L 329.451536 269.628432 
L 331.317367 267.803104 
L 333.183197 264.735589 
L 335.049028 260.627345 
L 336.914859 256.141094 
L 338.78069 252.037183 
L 340.64652 248.683848 
L 342.512351 246.058343 
L 344.378182 244.768365 
L 346.244013 243.26417 
L 348.109843 241.975229 
L 351.841505 239.791251 
L 355.573166 237.902044 
L 361.170658 235.335474 
L 372.365643 230.544282 
L 379.828966 227.276866 
L 385.426458 224.54718 
L 389.158119 222.41633 
L 391.02395 221.180932 
L 392.889781 219.764284 
L 394.755611 218.072039 
L 396.621442 215.683214 
L 398.487273 270.846913 
L 398.487273 270.846913 
" style="fill:none;stroke:#9467bd;stroke-linecap:square;stroke-width:2;"/>
   </g>
   <g id="line2d_19">
    <path clip-path="url(#p76bd1037d9)" d="M 73.832727 295.488 
L 85.027712 294.5184 
L 94.356865 293.494721 
L 103.686019 292.21603 
L 111.149342 290.965722 
L 118.612665 289.468014 
L 124.210157 288.147648 
L 129.807649 286.617914 
L 135.405141 284.820428 
L 139.136803 283.427134 
L 142.868464 281.825001 
L 146.600125 279.938613 
L 150.331787 277.63993 
L 152.197618 276.269368 
L 154.063448 274.693931 
L 155.929279 272.847057 
L 157.79511 270.632 
L 159.66094 267.908889 
L 161.526771 264.485811 
L 163.392602 260.143774 
L 165.258433 254.769807 
L 168.990094 242.476167 
L 170.855925 237.027832 
L 172.721755 232.532319 
L 174.587586 228.863889 
L 176.453417 225.795551 
L 178.319248 223.117245 
L 180.185078 216.499403 
L 182.050909 271.934238 
L 187.648401 264.843874 
L 189.514232 204.693844 
L 191.380063 202.54731 
L 193.245893 258.394119 
L 195.111724 198.390855 
L 196.977555 196.066704 
L 198.843386 251.469754 
L 200.709216 191.116984 
L 202.575047 246.76526 
L 204.440878 244.727564 
L 206.306708 184.997161 
L 208.172539 183.376879 
L 210.03837 239.867159 
L 211.904201 238.666147 
L 213.770031 237.692277 
L 215.635862 274.822729 
L 219.367524 270.508426 
L 223.099185 265.642118 
L 224.965016 262.937099 
L 226.830846 260.02079 
L 228.696677 256.885606 
L 230.562508 292.656413 
L 232.428339 233.31781 
L 234.294169 231.520151 
L 236.16 229.492265 
L 238.025831 285.278273 
L 239.891661 225.277093 
L 241.757492 281.182149 
L 243.623323 221.410795 
L 245.489154 277.592058 
L 247.354984 218.09977 
L 249.220815 216.633429 
L 251.086646 273.17456 
L 254.818307 270.677127 
L 256.684138 211.599618 
L 258.549969 210.452113 
L 260.415799 267.217923 
L 262.28163 280.166446 
L 264.147461 279.018728 
L 266.013292 277.06681 
L 267.879122 274.376495 
L 271.610784 268.549967 
L 273.476614 266.223162 
L 275.342445 264.40387 
L 277.208276 262.988765 
L 279.074107 261.860752 
L 280.939937 260.926928 
L 284.671599 259.401222 
L 290.269091 257.494191 
L 303.329906 253.229877 
L 308.927398 251.209291 
L 314.52489 248.989439 
L 320.122382 246.517817 
L 323.854044 244.652765 
L 327.585705 242.457275 
L 331.317367 239.894294 
L 336.914859 235.975691 
L 342.512351 232.308327 
L 348.109843 228.888269 
L 349.975674 223.69779 
L 353.707335 221.4211 
L 355.573166 278.244268 
L 359.304828 276.19635 
L 361.170658 217.324318 
L 363.036489 216.393498 
L 364.90232 273.40228 
L 366.76815 272.539106 
L 368.633981 213.802027 
L 370.499812 270.903747 
L 376.097304 268.658333 
L 377.963135 210.062992 
L 379.828966 209.410788 
L 381.694796 212.630193 
L 383.560627 211.097642 
L 385.426458 209.230082 
L 387.292288 206.944146 
L 389.158119 204.170409 
L 391.02395 200.886661 
L 392.889781 197.154995 
L 396.621442 189.00036 
L 398.487273 209.479618 
L 398.487273 209.479618 
" style="fill:none;stroke:#8c564b;stroke-linecap:square;stroke-width:2;"/>
   </g>
   <g id="line2d_20">
    <path clip-path="url(#p76bd1037d9)" d="M 73.832727 295.488 
L 88.759373 294.744955 
L 101.820188 293.880082 
L 113.015172 292.933756 
L 124.210157 291.753523 
L 133.53931 290.539538 
L 141.002633 289.354744 
L 146.600125 288.28012 
L 152.197618 286.959499 
L 155.929279 285.878482 
L 157.79511 231.823296 
L 161.526771 230.315963 
L 163.392602 229.363524 
L 165.258433 228.183413 
L 167.124263 226.630535 
L 168.990094 282.337463 
L 170.855925 279.01981 
L 172.721755 202.337902 
L 174.587586 193.441448 
L 176.453417 185.340928 
L 178.319248 295.17853 
L 180.185078 290.726635 
L 182.050909 287.028669 
L 187.648401 277.011573 
L 189.514232 259.160739 
L 196.977555 246.423087 
L 198.843386 185.747962 
L 200.709216 241.377029 
L 202.575047 181.654839 
L 206.306708 294.785446 
L 208.172539 293.750499 
L 210.03837 292.843881 
L 211.904201 234.125919 
L 213.770031 291.285849 
L 215.635862 290.589141 
L 217.501693 232.018293 
L 219.367524 231.365788 
L 221.233354 288.612854 
L 223.099185 287.927791 
L 224.965016 229.283866 
L 226.830846 286.36301 
L 228.696677 227.506999 
L 230.562508 226.386965 
L 232.428339 282.959775 
L 234.294169 223.477812 
L 236.16 221.647376 
L 239.891661 217.399903 
L 243.623323 213.017762 
L 245.489154 211.022084 
L 247.354984 209.22007 
L 249.220815 265.514802 
L 251.086646 206.165455 
L 252.952476 262.753668 
L 254.818307 203.61909 
L 256.684138 260.341012 
L 258.549969 286.328501 
L 262.28163 284.096111 
L 266.013292 281.424892 
L 267.879122 279.593192 
L 269.744953 277.232217 
L 273.476614 271.538766 
L 275.342445 268.690734 
L 277.208276 266.117104 
L 279.074107 263.900487 
L 280.939937 262.037675 
L 282.805768 260.481826 
L 284.671599 259.174078 
L 286.537429 258.059301 
L 290.269091 256.233824 
L 294.000752 254.741808 
L 299.598245 252.794714 
L 308.927398 249.621139 
L 314.52489 247.42519 
L 318.256552 245.702455 
L 321.988213 243.67642 
L 323.854044 242.526423 
L 325.719875 236.006126 
L 327.585705 234.074021 
L 329.451536 252.467401 
L 331.317367 251.406944 
L 333.183197 249.964685 
L 335.049028 248.212167 
L 338.78069 244.189166 
L 346.244013 235.929852 
L 349.975674 232.069759 
L 353.707335 228.463797 
L 357.438997 225.145107 
L 361.170658 222.123941 
L 364.90232 219.379162 
L 370.499812 215.660759 
L 379.828966 209.749948 
L 383.560627 207.094135 
L 387.292288 204.012011 
L 389.158119 202.257428 
L 391.02395 200.339805 
L 392.889781 193.565392 
L 396.621442 187.476066 
L 398.487273 184.23348 
L 398.487273 184.23348 
" style="fill:none;stroke:#e377c2;stroke-linecap:square;stroke-width:2;"/>
   </g>
   <g id="line2d_21">
    <path clip-path="url(#p76bd1037d9)" d="M 73.832727 295.488 
L 90.625204 294.85966 
L 105.55185 294.077948 
L 116.746834 293.298771 
L 126.075987 292.469033 
L 133.53931 291.619796 
L 137.270972 291.095186 
L 139.136803 181.087686 
L 141.002633 180.719497 
L 142.868464 238.238651 
L 144.734295 237.83083 
L 146.600125 295.299487 
L 150.331787 294.303678 
L 152.197618 235.808888 
L 154.063448 235.124361 
L 155.929279 234.302526 
L 157.79511 233.273485 
L 159.66094 289.822445 
L 161.526771 287.925984 
L 163.392602 285.100705 
L 165.258433 280.705302 
L 167.124263 216.283846 
L 168.990094 200.277317 
L 170.855925 193.086976 
L 172.721755 188.087772 
L 174.587586 184.612981 
L 176.453417 181.970315 
L 178.319248 179.717342 
L 180.185078 293.385403 
L 182.050909 291.170019 
L 183.91674 288.76834 
L 189.514232 280.825361 
L 191.380063 197.174189 
L 193.245893 252.399035 
L 195.111724 191.354307 
L 196.977555 187.835097 
L 198.843386 242.367188 
L 200.709216 181.741367 
L 202.575047 179.745395 
L 204.440878 294.102477 
L 206.306708 235.092182 
L 208.172539 292.100623 
L 210.03837 291.326553 
L 211.904201 232.715869 
L 213.770031 232.042647 
L 215.635862 289.281052 
L 217.501693 230.695303 
L 219.367524 287.884954 
L 221.233354 287.114734 
L 223.099185 228.361376 
L 224.965016 227.40744 
L 226.830846 226.31616 
L 228.696677 282.95574 
L 230.562508 281.476966 
L 232.428339 221.842759 
L 234.294169 277.743501 
L 236.16 275.469212 
L 238.025831 215.069665 
L 243.623323 207.38952 
L 245.489154 205.154906 
L 247.354984 261.088419 
L 249.220815 201.466877 
L 251.086646 199.969492 
L 252.952476 256.549253 
L 254.818307 197.442268 
L 256.684138 254.22064 
L 258.549969 291.085122 
L 262.28163 289.354902 
L 266.013292 287.698808 
L 267.879122 284.9841 
L 269.744953 283.359001 
L 271.610784 281.296946 
L 273.476614 278.832819 
L 277.208276 273.121824 
L 280.939937 267.466899 
L 282.805768 265.003231 
L 284.671599 262.84763 
L 286.537429 260.987328 
L 288.40326 259.386565 
L 290.269091 258.002782 
L 292.134922 256.795195 
L 295.866583 254.771902 
L 299.598245 253.097829 
L 305.195737 250.926131 
L 314.52489 247.388057 
L 316.390721 246.587947 
L 318.256552 259.866805 
L 321.988213 259.37118 
L 323.854044 258.980837 
L 325.719875 258.409827 
L 327.585705 257.590864 
L 329.451536 256.477437 
L 331.317367 255.065482 
L 333.183197 253.401799 
L 336.914859 249.65649 
L 353.707335 232.198708 
L 363.036489 221.710928 
L 366.76815 217.867654 
L 370.499812 214.387684 
L 374.231473 211.245398 
L 379.828966 206.951662 
L 387.292288 201.295638 
L 391.02395 198.162085 
L 394.755611 194.633932 
L 398.487273 190.587778 
L 398.487273 190.587778 
" style="fill:none;stroke:#7f7f7f;stroke-linecap:square;stroke-width:2;"/>
   </g>
   <g id="line2d_22">
    <path clip-path="url(#p76bd1037d9)" d="M 73.832727 295.488 
L 92.491034 294.9474 
L 107.41768 294.302716 
L 118.612665 293.611615 
L 120.478495 293.469362 
L 122.344326 294.252154 
L 137.270972 293.154085 
L 139.136803 240.167331 
L 142.868464 239.468854 
L 144.734295 181.174656 
L 146.600125 238.650251 
L 148.465956 238.16521 
L 150.331787 179.695173 
L 152.197618 294.820631 
L 154.063448 236.047265 
L 155.929279 234.878997 
L 157.79511 233.193153 
L 159.66094 288.459293 
L 161.526771 284.004467 
L 163.392602 218.668813 
L 165.258433 202.47593 
L 167.124263 194.558146 
L 168.990094 189.650538 
L 170.855925 186.53659 
L 172.721755 184.324455 
L 174.587586 182.538888 
L 176.453417 180.90955 
L 178.319248 295.067148 
L 180.185078 293.257615 
L 182.050909 291.191521 
L 183.91674 288.826284 
L 187.648401 283.544942 
L 189.514232 196.923038 
L 191.380063 194.599036 
L 193.245893 249.998461 
L 195.111724 247.180722 
L 196.977555 186.17471 
L 198.843386 183.180894 
L 202.575047 294.761075 
L 204.440878 293.494612 
L 206.306708 234.657655 
L 208.172539 291.826851 
L 210.03837 233.294401 
L 215.635862 231.596084 
L 217.501693 288.904496 
L 219.367524 288.257096 
L 221.233354 229.631203 
L 223.099185 228.809596 
L 224.965016 285.758832 
L 226.830846 226.722131 
L 228.696677 283.266086 
L 230.562508 223.707939 
L 232.428339 279.598517 
L 234.294169 277.165905 
L 236.16 216.397586 
L 238.025831 271.085283 
L 239.891661 209.798137 
L 241.757492 206.50424 
L 243.623323 203.517437 
L 245.489154 258.855336 
L 247.354984 198.81226 
L 249.220815 254.95513 
L 251.086646 195.590144 
L 252.952476 252.262489 
L 256.684138 250.227898 
L 258.549969 249.323162 
L 260.415799 291.388187 
L 264.147461 290.305879 
L 266.013292 289.807134 
L 267.879122 286.474636 
L 269.744953 285.262731 
L 271.610784 283.69029 
L 273.476614 281.745229 
L 275.342445 279.43036 
L 277.208276 276.783636 
L 284.671599 265.209526 
L 286.537429 262.726315 
L 288.40326 260.538864 
L 290.269091 258.635303 
L 292.134922 256.983715 
L 294.000752 255.545691 
L 295.866583 254.283789 
L 299.598245 252.159892 
L 303.329906 250.401116 
L 308.927398 248.123079 
L 310.793229 247.399916 
L 312.65906 262.31179 
L 318.256552 261.477028 
L 320.122382 261.106014 
L 321.988213 260.614602 
L 323.854044 259.939774 
L 325.719875 259.013187 
L 327.585705 257.778131 
L 329.451536 256.216374 
L 331.317367 254.373935 
L 336.914859 248.383523 
L 338.78069 246.595334 
L 342.512351 243.468208 
L 351.841505 236.271879 
L 353.707335 234.596229 
L 355.573166 232.763515 
L 357.438997 230.753059 
L 359.304828 228.556603 
L 363.036489 223.666417 
L 370.499812 213.390072 
L 374.231473 208.942616 
L 377.963135 205.167623 
L 381.694796 201.931348 
L 385.426458 199.02941 
L 392.889781 193.411105 
L 396.621442 190.3131 
L 398.487273 188.611557 
L 398.487273 188.611557 
" style="fill:none;stroke:#bcbd22;stroke-linecap:square;stroke-width:2;"/>
   </g>
   <g id="line2d_23">
    <path clip-path="url(#p76bd1037d9)" d="M 73.832727 295.488 
L 96.222696 295.03481 
L 111.149342 294.527756 
L 113.015172 294.444618 
L 114.881003 179.920205 
L 120.478495 179.704156 
L 122.344326 295.442463 
L 137.270972 294.89167 
L 139.136803 183.4702 
L 141.002633 241.115053 
L 144.734295 240.543539 
L 146.600125 182.311143 
L 150.331787 181.494465 
L 152.197618 180.94125 
L 154.063448 238.110987 
L 155.929279 237.055407 
L 157.79511 293.290811 
L 159.66094 232.410296 
L 161.526771 284.330357 
L 163.392602 215.31527 
L 165.258433 197.414961 
L 167.124263 191.024135 
L 168.990094 187.620336 
L 170.855925 185.496994 
L 172.721755 183.934341 
L 178.319248 179.847301 
L 180.185078 293.983553 
L 182.050909 291.969023 
L 183.91674 289.566379 
L 185.782571 286.840094 
L 187.648401 257.002743 
L 189.514232 196.68962 
L 191.380063 252.098221 
L 193.245893 191.642266 
L 196.977555 186.11794 
L 198.843386 241.372636 
L 200.709216 181.325045 
L 204.440878 294.505027 
L 206.306708 293.739729 
L 208.172539 235.259304 
L 210.03837 292.697562 
L 211.904201 234.384578 
L 213.770031 291.907285 
L 215.635862 233.62351 
L 217.501693 291.134344 
L 219.367524 290.707798 
L 221.233354 232.324532 
L 223.099185 231.770182 
L 224.965016 289.012448 
L 226.830846 288.196085 
L 228.696677 287.159525 
L 230.562508 227.898888 
L 232.428339 283.98048 
L 234.294169 281.47597 
L 236.16 278.026036 
L 238.025831 215.553217 
L 241.757492 204.756231 
L 243.623323 258.166448 
L 245.489154 254.795812 
L 247.354984 252.361299 
L 249.220815 192.690557 
L 251.086646 249.28294 
L 252.952476 248.272882 
L 254.818307 247.461821 
L 256.684138 246.777594 
L 258.549969 188.262947 
L 260.415799 289.916231 
L 264.147461 289.504114 
L 266.013292 289.38405 
L 267.879122 286.068108 
L 269.744953 285.277289 
L 271.610784 284.163483 
L 273.476614 282.689206 
L 275.342445 280.802845 
L 277.208276 278.451357 
L 279.074107 275.607996 
L 280.939937 272.316821 
L 286.537429 261.693925 
L 288.40326 258.670732 
L 290.269091 256.091742 
L 292.134922 253.931699 
L 294.000752 252.129226 
L 295.866583 250.616659 
L 297.732414 249.333295 
L 299.598245 248.228985 
L 303.329906 246.404927 
L 307.061567 244.907778 
L 310.793229 243.568329 
L 312.65906 259.59337 
L 318.256552 258.851554 
L 320.122382 258.443334 
L 321.988213 257.848152 
L 323.854044 256.973949 
L 325.719875 255.720864 
L 327.585705 254.013794 
L 329.451536 251.860054 
L 335.049028 244.592897 
L 336.914859 242.635632 
L 338.78069 241.036896 
L 340.64652 239.734926 
L 342.512351 238.644412 
L 346.244013 236.784543 
L 349.975674 234.948901 
L 351.841505 233.918984 
L 353.707335 232.754642 
L 355.573166 231.407954 
L 357.438997 229.825735 
L 359.304828 227.949892 
L 361.170658 225.722913 
L 363.036489 223.102647 
L 364.90232 220.089233 
L 368.633981 213.267649 
L 370.499812 209.831445 
L 372.365643 206.636362 
L 374.231473 203.791278 
L 376.097304 201.321234 
L 377.963135 199.195694 
L 379.828966 197.359487 
L 381.694796 195.752629 
L 385.426458 193.011137 
L 391.02395 189.441783 
L 394.755611 187.035486 
L 398.487273 184.343465 
L 398.487273 184.343465 
" style="fill:none;stroke:#17becf;stroke-linecap:square;stroke-width:2;"/>
   </g>
   <g id="patch_3">
    <path d="M 57.6 307.584 
L 57.6 41.472 
" style="fill:none;stroke:#000000;stroke-linecap:square;stroke-linejoin:miter;stroke-width:0.8;"/>
   </g>
   <g id="patch_4">
    <path d="M 414.72 307.584 
L 414.72 41.472 
" style="fill:none;stroke:#000000;stroke-linecap:square;stroke-linejoin:miter;stroke-width:0.8;"/>
   </g>
   <g id="patch_5">
    <path d="M 57.6 307.584 
L 414.72 307.584 
" style="fill:none;stroke:#000000;stroke-linecap:square;stroke-linejoin:miter;stroke-width:0.8;"/>
   </g>
   <g id="patch_6">
    <path d="M 57.6 41.472 
L 414.72 41.472 
" style="fill:none;stroke:#000000;stroke-linecap:square;stroke-linejoin:miter;stroke-width:0.8;"/>
   </g>
   <g id="text_15">
    <!-- Phase shift of different radius -->
    <g transform="translate(147.762187 35.472)scale(0.12 -0.12)">
     <defs>
      <path d="M 19.671875 64.796875 
L 19.671875 37.40625 
L 32.078125 37.40625 
Q 38.96875 37.40625 42.71875 40.96875 
Q 46.484375 44.53125 46.484375 51.125 
Q 46.484375 57.671875 42.71875 61.234375 
Q 38.96875 64.796875 32.078125 64.796875 
z
M 9.8125 72.90625 
L 32.078125 72.90625 
Q 44.34375 72.90625 50.609375 67.359375 
Q 56.890625 61.8125 56.890625 51.125 
Q 56.890625 40.328125 50.609375 34.8125 
Q 44.34375 29.296875 32.078125 29.296875 
L 19.671875 29.296875 
L 19.671875 0 
L 9.8125 0 
z
" id="DejaVuSans-80"/>
      <path d="M 54.890625 33.015625 
L 54.890625 0 
L 45.90625 0 
L 45.90625 32.71875 
Q 45.90625 40.484375 42.875 44.328125 
Q 39.84375 48.1875 33.796875 48.1875 
Q 26.515625 48.1875 22.3125 43.546875 
Q 18.109375 38.921875 18.109375 30.90625 
L 18.109375 0 
L 9.078125 0 
L 9.078125 75.984375 
L 18.109375 75.984375 
L 18.109375 46.1875 
Q 21.34375 51.125 25.703125 53.5625 
Q 30.078125 56 35.796875 56 
Q 45.21875 56 50.046875 50.171875 
Q 54.890625 44.34375 54.890625 33.015625 
z
" id="DejaVuSans-104"/>
      <path d="M 56.203125 29.59375 
L 56.203125 25.203125 
L 14.890625 25.203125 
Q 15.484375 15.921875 20.484375 11.0625 
Q 25.484375 6.203125 34.421875 6.203125 
Q 39.59375 6.203125 44.453125 7.46875 
Q 49.3125 8.734375 54.109375 11.28125 
L 54.109375 2.78125 
Q 49.265625 0.734375 44.1875 -0.34375 
Q 39.109375 -1.421875 33.890625 -1.421875 
Q 20.796875 -1.421875 13.15625 6.1875 
Q 5.515625 13.8125 5.515625 26.8125 
Q 5.515625 40.234375 12.765625 48.109375 
Q 20.015625 56 32.328125 56 
Q 43.359375 56 49.78125 48.890625 
Q 56.203125 41.796875 56.203125 29.59375 
z
M 47.21875 32.234375 
Q 47.125 39.59375 43.09375 43.984375 
Q 39.0625 48.390625 32.421875 48.390625 
Q 24.90625 48.390625 20.390625 44.140625 
Q 15.875 39.890625 15.1875 32.171875 
z
" id="DejaVuSans-101"/>
      <path id="DejaVuSans-32"/>
      <path d="M 37.109375 75.984375 
L 37.109375 68.5 
L 28.515625 68.5 
Q 23.6875 68.5 21.796875 66.546875 
Q 19.921875 64.59375 19.921875 59.515625 
L 19.921875 54.6875 
L 34.71875 54.6875 
L 34.71875 47.703125 
L 19.921875 47.703125 
L 19.921875 0 
L 10.890625 0 
L 10.890625 47.703125 
L 2.296875 47.703125 
L 2.296875 54.6875 
L 10.890625 54.6875 
L 10.890625 58.5 
Q 10.890625 67.625 15.140625 71.796875 
Q 19.390625 75.984375 28.609375 75.984375 
z
" id="DejaVuSans-102"/>
      <path d="M 18.3125 70.21875 
L 18.3125 54.6875 
L 36.8125 54.6875 
L 36.8125 47.703125 
L 18.3125 47.703125 
L 18.3125 18.015625 
Q 18.3125 11.328125 20.140625 9.421875 
Q 21.96875 7.515625 27.59375 7.515625 
L 36.8125 7.515625 
L 36.8125 0 
L 27.59375 0 
Q 17.1875 0 13.234375 3.875 
Q 9.28125 7.765625 9.28125 18.015625 
L 9.28125 47.703125 
L 2.6875 47.703125 
L 2.6875 54.6875 
L 9.28125 54.6875 
L 9.28125 70.21875 
z
" id="DejaVuSans-116"/>
      <path d="M 30.609375 48.390625 
Q 23.390625 48.390625 19.1875 42.75 
Q 14.984375 37.109375 14.984375 27.296875 
Q 14.984375 17.484375 19.15625 11.84375 
Q 23.34375 6.203125 30.609375 6.203125 
Q 37.796875 6.203125 41.984375 11.859375 
Q 46.1875 17.53125 46.1875 27.296875 
Q 46.1875 37.015625 41.984375 42.703125 
Q 37.796875 48.390625 30.609375 48.390625 
z
M 30.609375 56 
Q 42.328125 56 49.015625 48.375 
Q 55.71875 40.765625 55.71875 27.296875 
Q 55.71875 13.875 49.015625 6.21875 
Q 42.328125 -1.421875 30.609375 -1.421875 
Q 18.84375 -1.421875 12.171875 6.21875 
Q 5.515625 13.875 5.515625 27.296875 
Q 5.515625 40.765625 12.171875 48.375 
Q 18.84375 56 30.609375 56 
z
" id="DejaVuSans-111"/>
     </defs>
     <use xlink:href="#DejaVuSans-80"/>
     <use x="60.302734" xlink:href="#DejaVuSans-104"/>
     <use x="123.681641" xlink:href="#DejaVuSans-97"/>
     <use x="184.960938" xlink:href="#DejaVuSans-115"/>
     <use x="237.060547" xlink:href="#DejaVuSans-101"/>
     <use x="298.583984" xlink:href="#DejaVuSans-32"/>
     <use x="330.371094" xlink:href="#DejaVuSans-115"/>
     <use x="382.470703" xlink:href="#DejaVuSans-104"/>
     <use x="445.849609" xlink:href="#DejaVuSans-105"/>
     <use x="473.632812" xlink:href="#DejaVuSans-102"/>
     <use x="507.087891" xlink:href="#DejaVuSans-116"/>
     <use x="546.296875" xlink:href="#DejaVuSans-32"/>
     <use x="578.083984" xlink:href="#DejaVuSans-111"/>
     <use x="639.265625" xlink:href="#DejaVuSans-102"/>
     <use x="674.470703" xlink:href="#DejaVuSans-32"/>
     <use x="706.257812" xlink:href="#DejaVuSans-100"/>
     <use x="769.734375" xlink:href="#DejaVuSans-105"/>
     <use x="797.517578" xlink:href="#DejaVuSans-102"/>
     <use x="832.722656" xlink:href="#DejaVuSans-102"/>
     <use x="867.927734" xlink:href="#DejaVuSans-101"/>
     <use x="929.451172" xlink:href="#DejaVuSans-114"/>
     <use x="968.314453" xlink:href="#DejaVuSans-101"/>
     <use x="1029.837891" xlink:href="#DejaVuSans-110"/>
     <use x="1093.216797" xlink:href="#DejaVuSans-116"/>
     <use x="1132.425781" xlink:href="#DejaVuSans-32"/>
     <use x="1164.212891" xlink:href="#DejaVuSans-114"/>
     <use x="1205.326172" xlink:href="#DejaVuSans-97"/>
     <use x="1266.605469" xlink:href="#DejaVuSans-100"/>
     <use x="1330.082031" xlink:href="#DejaVuSans-105"/>
     <use x="1357.865234" xlink:href="#DejaVuSans-117"/>
     <use x="1421.244141" xlink:href="#DejaVuSans-115"/>
    </g>
   </g>
   <g id="legend_1">
    <g id="patch_7">
     <path d="M 64.6 196.25325 
L 109.325 196.25325 
Q 111.325 196.25325 111.325 194.25325 
L 111.325 48.472 
Q 111.325 46.472 109.325 46.472 
L 64.6 46.472 
Q 62.6 46.472 62.6 48.472 
L 62.6 194.25325 
Q 62.6 196.25325 64.6 196.25325 
z
" style="fill:#ffffff;opacity:0.8;stroke:#cccccc;stroke-linejoin:miter;"/>
    </g>
    <g id="line2d_24">
     <path d="M 66.6 54.570437 
L 86.6 54.570437 
" style="fill:none;stroke:#1f77b4;stroke-linecap:square;stroke-width:2;"/>
    </g>
    <g id="line2d_25"/>
    <g id="text_16">
     <!-- 0 -->
     <g transform="translate(94.6 58.070437)scale(0.1 -0.1)">
      <use xlink:href="#DejaVuSans-48"/>
     </g>
    </g>
    <g id="line2d_26">
     <path d="M 66.6 69.248562 
L 86.6 69.248562 
" style="fill:none;stroke:#ff7f0e;stroke-linecap:square;stroke-width:2;"/>
    </g>
    <g id="line2d_27"/>
    <g id="text_17">
     <!-- 10 -->
     <g transform="translate(94.6 72.748562)scale(0.1 -0.1)">
      <use xlink:href="#DejaVuSans-49"/>
      <use x="63.623047" xlink:href="#DejaVuSans-48"/>
     </g>
    </g>
    <g id="line2d_28">
     <path d="M 66.6 83.926688 
L 86.6 83.926688 
" style="fill:none;stroke:#2ca02c;stroke-linecap:square;stroke-width:2;"/>
    </g>
    <g id="line2d_29"/>
    <g id="text_18">
     <!-- 20 -->
     <g transform="translate(94.6 87.426688)scale(0.1 -0.1)">
      <use xlink:href="#DejaVuSans-50"/>
      <use x="63.623047" xlink:href="#DejaVuSans-48"/>
     </g>
    </g>
    <g id="line2d_30">
     <path d="M 66.6 98.604812 
L 86.6 98.604812 
" style="fill:none;stroke:#d62728;stroke-linecap:square;stroke-width:2;"/>
    </g>
    <g id="line2d_31"/>
    <g id="text_19">
     <!-- 30 -->
     <g transform="translate(94.6 102.104812)scale(0.1 -0.1)">
      <defs>
       <path d="M 40.578125 39.3125 
Q 47.65625 37.796875 51.625 33 
Q 55.609375 28.21875 55.609375 21.1875 
Q 55.609375 10.40625 48.1875 4.484375 
Q 40.765625 -1.421875 27.09375 -1.421875 
Q 22.515625 -1.421875 17.65625 -0.515625 
Q 12.796875 0.390625 7.625 2.203125 
L 7.625 11.71875 
Q 11.71875 9.328125 16.59375 8.109375 
Q 21.484375 6.890625 26.8125 6.890625 
Q 36.078125 6.890625 40.9375 10.546875 
Q 45.796875 14.203125 45.796875 21.1875 
Q 45.796875 27.640625 41.28125 31.265625 
Q 36.765625 34.90625 28.71875 34.90625 
L 20.21875 34.90625 
L 20.21875 43.015625 
L 29.109375 43.015625 
Q 36.375 43.015625 40.234375 45.921875 
Q 44.09375 48.828125 44.09375 54.296875 
Q 44.09375 59.90625 40.109375 62.90625 
Q 36.140625 65.921875 28.71875 65.921875 
Q 24.65625 65.921875 20.015625 65.03125 
Q 15.375 64.15625 9.8125 62.3125 
L 9.8125 71.09375 
Q 15.4375 72.65625 20.34375 73.4375 
Q 25.25 74.21875 29.59375 74.21875 
Q 40.828125 74.21875 47.359375 69.109375 
Q 53.90625 64.015625 53.90625 55.328125 
Q 53.90625 49.265625 50.4375 45.09375 
Q 46.96875 40.921875 40.578125 39.3125 
z
" id="DejaVuSans-51"/>
      </defs>
      <use xlink:href="#DejaVuSans-51"/>
      <use x="63.623047" xlink:href="#DejaVuSans-48"/>
     </g>
    </g>
    <g id="line2d_32">
     <path d="M 66.6 113.282938 
L 86.6 113.282938 
" style="fill:none;stroke:#9467bd;stroke-linecap:square;stroke-width:2;"/>
    </g>
    <g id="line2d_33"/>
    <g id="text_20">
     <!-- 40 -->
     <g transform="translate(94.6 116.782938)scale(0.1 -0.1)">
      <defs>
       <path d="M 37.796875 64.3125 
L 12.890625 25.390625 
L 37.796875 25.390625 
z
M 35.203125 72.90625 
L 47.609375 72.90625 
L 47.609375 25.390625 
L 58.015625 25.390625 
L 58.015625 17.1875 
L 47.609375 17.1875 
L 47.609375 0 
L 37.796875 0 
L 37.796875 17.1875 
L 4.890625 17.1875 
L 4.890625 26.703125 
z
" id="DejaVuSans-52"/>
      </defs>
      <use xlink:href="#DejaVuSans-52"/>
      <use x="63.623047" xlink:href="#DejaVuSans-48"/>
     </g>
    </g>
    <g id="line2d_34">
     <path d="M 66.6 127.961062 
L 86.6 127.961062 
" style="fill:none;stroke:#8c564b;stroke-linecap:square;stroke-width:2;"/>
    </g>
    <g id="line2d_35"/>
    <g id="text_21">
     <!-- 50 -->
     <g transform="translate(94.6 131.461062)scale(0.1 -0.1)">
      <use xlink:href="#DejaVuSans-53"/>
      <use x="63.623047" xlink:href="#DejaVuSans-48"/>
     </g>
    </g>
    <g id="line2d_36">
     <path d="M 66.6 142.639187 
L 86.6 142.639187 
" style="fill:none;stroke:#e377c2;stroke-linecap:square;stroke-width:2;"/>
    </g>
    <g id="line2d_37"/>
    <g id="text_22">
     <!-- 60 -->
     <g transform="translate(94.6 146.139187)scale(0.1 -0.1)">
      <defs>
       <path d="M 33.015625 40.375 
Q 26.375 40.375 22.484375 35.828125 
Q 18.609375 31.296875 18.609375 23.390625 
Q 18.609375 15.53125 22.484375 10.953125 
Q 26.375 6.390625 33.015625 6.390625 
Q 39.65625 6.390625 43.53125 10.953125 
Q 47.40625 15.53125 47.40625 23.390625 
Q 47.40625 31.296875 43.53125 35.828125 
Q 39.65625 40.375 33.015625 40.375 
z
M 52.59375 71.296875 
L 52.59375 62.3125 
Q 48.875 64.0625 45.09375 64.984375 
Q 41.3125 65.921875 37.59375 65.921875 
Q 27.828125 65.921875 22.671875 59.328125 
Q 17.53125 52.734375 16.796875 39.40625 
Q 19.671875 43.65625 24.015625 45.921875 
Q 28.375 48.1875 33.59375 48.1875 
Q 44.578125 48.1875 50.953125 41.515625 
Q 57.328125 34.859375 57.328125 23.390625 
Q 57.328125 12.15625 50.6875 5.359375 
Q 44.046875 -1.421875 33.015625 -1.421875 
Q 20.359375 -1.421875 13.671875 8.265625 
Q 6.984375 17.96875 6.984375 36.375 
Q 6.984375 53.65625 15.1875 63.9375 
Q 23.390625 74.21875 37.203125 74.21875 
Q 40.921875 74.21875 44.703125 73.484375 
Q 48.484375 72.75 52.59375 71.296875 
z
" id="DejaVuSans-54"/>
      </defs>
      <use xlink:href="#DejaVuSans-54"/>
      <use x="63.623047" xlink:href="#DejaVuSans-48"/>
     </g>
    </g>
    <g id="line2d_38">
     <path d="M 66.6 157.317312 
L 86.6 157.317312 
" style="fill:none;stroke:#7f7f7f;stroke-linecap:square;stroke-width:2;"/>
    </g>
    <g id="line2d_39"/>
    <g id="text_23">
     <!-- 70 -->
     <g transform="translate(94.6 160.817312)scale(0.1 -0.1)">
      <use xlink:href="#DejaVuSans-55"/>
      <use x="63.623047" xlink:href="#DejaVuSans-48"/>
     </g>
    </g>
    <g id="line2d_40">
     <path d="M 66.6 171.995437 
L 86.6 171.995437 
" style="fill:none;stroke:#bcbd22;stroke-linecap:square;stroke-width:2;"/>
    </g>
    <g id="line2d_41"/>
    <g id="text_24">
     <!-- 80 -->
     <g transform="translate(94.6 175.495437)scale(0.1 -0.1)">
      <defs>
       <path d="M 31.78125 34.625 
Q 24.75 34.625 20.71875 30.859375 
Q 16.703125 27.09375 16.703125 20.515625 
Q 16.703125 13.921875 20.71875 10.15625 
Q 24.75 6.390625 31.78125 6.390625 
Q 38.8125 6.390625 42.859375 10.171875 
Q 46.921875 13.96875 46.921875 20.515625 
Q 46.921875 27.09375 42.890625 30.859375 
Q 38.875 34.625 31.78125 34.625 
z
M 21.921875 38.8125 
Q 15.578125 40.375 12.03125 44.71875 
Q 8.5 49.078125 8.5 55.328125 
Q 8.5 64.0625 14.71875 69.140625 
Q 20.953125 74.21875 31.78125 74.21875 
Q 42.671875 74.21875 48.875 69.140625 
Q 55.078125 64.0625 55.078125 55.328125 
Q 55.078125 49.078125 51.53125 44.71875 
Q 48 40.375 41.703125 38.8125 
Q 48.828125 37.15625 52.796875 32.3125 
Q 56.78125 27.484375 56.78125 20.515625 
Q 56.78125 9.90625 50.3125 4.234375 
Q 43.84375 -1.421875 31.78125 -1.421875 
Q 19.734375 -1.421875 13.25 4.234375 
Q 6.78125 9.90625 6.78125 20.515625 
Q 6.78125 27.484375 10.78125 32.3125 
Q 14.796875 37.15625 21.921875 38.8125 
z
M 18.3125 54.390625 
Q 18.3125 48.734375 21.84375 45.5625 
Q 25.390625 42.390625 31.78125 42.390625 
Q 38.140625 42.390625 41.71875 45.5625 
Q 45.3125 48.734375 45.3125 54.390625 
Q 45.3125 60.0625 41.71875 63.234375 
Q 38.140625 66.40625 31.78125 66.40625 
Q 25.390625 66.40625 21.84375 63.234375 
Q 18.3125 60.0625 18.3125 54.390625 
z
" id="DejaVuSans-56"/>
      </defs>
      <use xlink:href="#DejaVuSans-56"/>
      <use x="63.623047" xlink:href="#DejaVuSans-48"/>
     </g>
    </g>
    <g id="line2d_42">
     <path d="M 66.6 186.673562 
L 86.6 186.673562 
" style="fill:none;stroke:#17becf;stroke-linecap:square;stroke-width:2;"/>
    </g>
    <g id="line2d_43"/>
    <g id="text_25">
     <!-- 90 -->
     <g transform="translate(94.6 190.173562)scale(0.1 -0.1)">
      <defs>
       <path d="M 10.984375 1.515625 
L 10.984375 10.5 
Q 14.703125 8.734375 18.5 7.8125 
Q 22.3125 6.890625 25.984375 6.890625 
Q 35.75 6.890625 40.890625 13.453125 
Q 46.046875 20.015625 46.78125 33.40625 
Q 43.953125 29.203125 39.59375 26.953125 
Q 35.25 24.703125 29.984375 24.703125 
Q 19.046875 24.703125 12.671875 31.3125 
Q 6.296875 37.9375 6.296875 49.421875 
Q 6.296875 60.640625 12.9375 67.421875 
Q 19.578125 74.21875 30.609375 74.21875 
Q 43.265625 74.21875 49.921875 64.515625 
Q 56.59375 54.828125 56.59375 36.375 
Q 56.59375 19.140625 48.40625 8.859375 
Q 40.234375 -1.421875 26.421875 -1.421875 
Q 22.703125 -1.421875 18.890625 -0.6875 
Q 15.09375 0.046875 10.984375 1.515625 
z
M 30.609375 32.421875 
Q 37.25 32.421875 41.125 36.953125 
Q 45.015625 41.5 45.015625 49.421875 
Q 45.015625 57.28125 41.125 61.84375 
Q 37.25 66.40625 30.609375 66.40625 
Q 23.96875 66.40625 20.09375 61.84375 
Q 16.21875 57.28125 16.21875 49.421875 
Q 16.21875 41.5 20.09375 36.953125 
Q 23.96875 32.421875 30.609375 32.421875 
z
" id="DejaVuSans-57"/>
      </defs>
      <use xlink:href="#DejaVuSans-57"/>
      <use x="63.623047" xlink:href="#DejaVuSans-48"/>
     </g>
    </g>
   </g>
  </g>
 </g>
 <defs>
  <clipPath id="p76bd1037d9">
   <rect height="266.112" width="357.12" x="57.6" y="41.472"/>
  </clipPath>
 </defs>
</svg>
