<?xml version="1.0" encoding="utf-8" standalone="no"?>
<!DOCTYPE svg PUBLIC "-//W3C//DTD SVG 1.1//EN"
  "http://www.w3.org/Graphics/SVG/1.1/DTD/svg11.dtd">
<svg height="345.6pt" version="1.1" viewBox="0 0 460.8 345.6" width="460.8pt" xmlns="http://www.w3.org/2000/svg" xmlns:xlink="http://www.w3.org/1999/xlink">
 <metadata>
  <rdf:RDF xmlns:cc="http://creativecommons.org/ns#" xmlns:dc="http://purl.org/dc/elements/1.1/" xmlns:rdf="http://www.w3.org/1999/02/22-rdf-syntax-ns#">
   <cc:Work>
    <dc:type rdf:resource="http://purl.org/dc/dcmitype/StillImage"/>
    <dc:date>2022-01-07T01:48:15.312773</dc:date>
    <dc:format>image/svg+xml</dc:format>
    <dc:creator>
     <cc:Agent>
      <dc:title>Matplotlib v3.4.2, https://matplotlib.org/</dc:title>
     </cc:Agent>
    </dc:creator>
   </cc:Work>
  </rdf:RDF>
 </metadata>
 <defs>
  <style type="text/css">*{stroke-linecap:butt;stroke-linejoin:round;}</style>
 </defs>
 <g id="figure_1">
  <g id="patch_1">
   <path d="M 0 345.6 
L 460.8 345.6 
L 460.8 0 
L 0 0 
z
" style="fill:#ffffff;"/>
  </g>
  <g id="axes_1">
   <g id="patch_2">
    <path d="M 57.6 307.584 
L 414.72 307.584 
L 414.72 41.472 
L 57.6 41.472 
z
" style="fill:#ffffff;"/>
   </g>
   <g id="matplotlib.axis_1">
    <g id="xtick_1">
     <g id="line2d_1">
      <defs>
       <path d="M 0 0 
L 0 3.5 
" id="m75a2e6e4c0" style="stroke:#000000;stroke-width:0.8;"/>
      </defs>
      <g>
       <use style="stroke:#000000;stroke-width:0.8;" x="73.832727" xlink:href="#m75a2e6e4c0" y="307.584"/>
      </g>
     </g>
     <g id="text_1">
      <!-- 50 -->
      <g transform="translate(67.470227 322.182437)scale(0.1 -0.1)">
       <defs>
        <path d="M 691 4666 
L 3169 4666 
L 3169 4134 
L 1269 4134 
L 1269 2991 
Q 1406 3038 1543 3061 
Q 1681 3084 1819 3084 
Q 2600 3084 3056 2656 
Q 3513 2228 3513 1497 
Q 3513 744 3044 326 
Q 2575 -91 1722 -91 
Q 1428 -91 1123 -41 
Q 819 9 494 109 
L 494 744 
Q 775 591 1075 516 
Q 1375 441 1709 441 
Q 2250 441 2565 725 
Q 2881 1009 2881 1497 
Q 2881 1984 2565 2268 
Q 2250 2553 1709 2553 
Q 1456 2553 1204 2497 
Q 953 2441 691 2322 
L 691 4666 
z
" id="DejaVuSans-35" transform="scale(0.015625)"/>
        <path d="M 2034 4250 
Q 1547 4250 1301 3770 
Q 1056 3291 1056 2328 
Q 1056 1369 1301 889 
Q 1547 409 2034 409 
Q 2525 409 2770 889 
Q 3016 1369 3016 2328 
Q 3016 3291 2770 3770 
Q 2525 4250 2034 4250 
z
M 2034 4750 
Q 2819 4750 3233 4129 
Q 3647 3509 3647 2328 
Q 3647 1150 3233 529 
Q 2819 -91 2034 -91 
Q 1250 -91 836 529 
Q 422 1150 422 2328 
Q 422 3509 836 4129 
Q 1250 4750 2034 4750 
z
" id="DejaVuSans-30" transform="scale(0.015625)"/>
       </defs>
       <use xlink:href="#DejaVuSans-35"/>
       <use x="63.623047" xlink:href="#DejaVuSans-30"/>
      </g>
     </g>
    </g>
    <g id="xtick_2">
     <g id="line2d_2">
      <g>
       <use style="stroke:#000000;stroke-width:0.8;" x="114.414545" xlink:href="#m75a2e6e4c0" y="307.584"/>
      </g>
     </g>
     <g id="text_2">
      <!-- 75 -->
      <g transform="translate(108.052045 322.182437)scale(0.1 -0.1)">
       <defs>
        <path d="M 525 4666 
L 3525 4666 
L 3525 4397 
L 1831 0 
L 1172 0 
L 2766 4134 
L 525 4134 
L 525 4666 
z
" id="DejaVuSans-37" transform="scale(0.015625)"/>
       </defs>
       <use xlink:href="#DejaVuSans-37"/>
       <use x="63.623047" xlink:href="#DejaVuSans-35"/>
      </g>
     </g>
    </g>
    <g id="xtick_3">
     <g id="line2d_3">
      <g>
       <use style="stroke:#000000;stroke-width:0.8;" x="154.996364" xlink:href="#m75a2e6e4c0" y="307.584"/>
      </g>
     </g>
     <g id="text_3">
      <!-- 100 -->
      <g transform="translate(145.452614 322.182437)scale(0.1 -0.1)">
       <defs>
        <path d="M 794 531 
L 1825 531 
L 1825 4091 
L 703 3866 
L 703 4441 
L 1819 4666 
L 2450 4666 
L 2450 531 
L 3481 531 
L 3481 0 
L 794 0 
L 794 531 
z
" id="DejaVuSans-31" transform="scale(0.015625)"/>
       </defs>
       <use xlink:href="#DejaVuSans-31"/>
       <use x="63.623047" xlink:href="#DejaVuSans-30"/>
       <use x="127.246094" xlink:href="#DejaVuSans-30"/>
      </g>
     </g>
    </g>
    <g id="xtick_4">
     <g id="line2d_4">
      <g>
       <use style="stroke:#000000;stroke-width:0.8;" x="195.578182" xlink:href="#m75a2e6e4c0" y="307.584"/>
      </g>
     </g>
     <g id="text_4">
      <!-- 125 -->
      <g transform="translate(186.034432 322.182437)scale(0.1 -0.1)">
       <defs>
        <path d="M 1228 531 
L 3431 531 
L 3431 0 
L 469 0 
L 469 531 
Q 828 903 1448 1529 
Q 2069 2156 2228 2338 
Q 2531 2678 2651 2914 
Q 2772 3150 2772 3378 
Q 2772 3750 2511 3984 
Q 2250 4219 1831 4219 
Q 1534 4219 1204 4116 
Q 875 4013 500 3803 
L 500 4441 
Q 881 4594 1212 4672 
Q 1544 4750 1819 4750 
Q 2544 4750 2975 4387 
Q 3406 4025 3406 3419 
Q 3406 3131 3298 2873 
Q 3191 2616 2906 2266 
Q 2828 2175 2409 1742 
Q 1991 1309 1228 531 
z
" id="DejaVuSans-32" transform="scale(0.015625)"/>
       </defs>
       <use xlink:href="#DejaVuSans-31"/>
       <use x="63.623047" xlink:href="#DejaVuSans-32"/>
       <use x="127.246094" xlink:href="#DejaVuSans-35"/>
      </g>
     </g>
    </g>
    <g id="xtick_5">
     <g id="line2d_5">
      <g>
       <use style="stroke:#000000;stroke-width:0.8;" x="236.16" xlink:href="#m75a2e6e4c0" y="307.584"/>
      </g>
     </g>
     <g id="text_5">
      <!-- 150 -->
      <g transform="translate(226.61625 322.182437)scale(0.1 -0.1)">
       <use xlink:href="#DejaVuSans-31"/>
       <use x="63.623047" xlink:href="#DejaVuSans-35"/>
       <use x="127.246094" xlink:href="#DejaVuSans-30"/>
      </g>
     </g>
    </g>
    <g id="xtick_6">
     <g id="line2d_6">
      <g>
       <use style="stroke:#000000;stroke-width:0.8;" x="276.741818" xlink:href="#m75a2e6e4c0" y="307.584"/>
      </g>
     </g>
     <g id="text_6">
      <!-- 175 -->
      <g transform="translate(267.198068 322.182437)scale(0.1 -0.1)">
       <use xlink:href="#DejaVuSans-31"/>
       <use x="63.623047" xlink:href="#DejaVuSans-37"/>
       <use x="127.246094" xlink:href="#DejaVuSans-35"/>
      </g>
     </g>
    </g>
    <g id="xtick_7">
     <g id="line2d_7">
      <g>
       <use style="stroke:#000000;stroke-width:0.8;" x="317.323636" xlink:href="#m75a2e6e4c0" y="307.584"/>
      </g>
     </g>
     <g id="text_7">
      <!-- 200 -->
      <g transform="translate(307.779886 322.182437)scale(0.1 -0.1)">
       <use xlink:href="#DejaVuSans-32"/>
       <use x="63.623047" xlink:href="#DejaVuSans-30"/>
       <use x="127.246094" xlink:href="#DejaVuSans-30"/>
      </g>
     </g>
    </g>
    <g id="xtick_8">
     <g id="line2d_8">
      <g>
       <use style="stroke:#000000;stroke-width:0.8;" x="357.905455" xlink:href="#m75a2e6e4c0" y="307.584"/>
      </g>
     </g>
     <g id="text_8">
      <!-- 225 -->
      <g transform="translate(348.361705 322.182437)scale(0.1 -0.1)">
       <use xlink:href="#DejaVuSans-32"/>
       <use x="63.623047" xlink:href="#DejaVuSans-32"/>
       <use x="127.246094" xlink:href="#DejaVuSans-35"/>
      </g>
     </g>
    </g>
    <g id="xtick_9">
     <g id="line2d_9">
      <g>
       <use style="stroke:#000000;stroke-width:0.8;" x="398.487273" xlink:href="#m75a2e6e4c0" y="307.584"/>
      </g>
     </g>
     <g id="text_9">
      <!-- 250 -->
      <g transform="translate(388.943523 322.182437)scale(0.1 -0.1)">
       <use xlink:href="#DejaVuSans-32"/>
       <use x="63.623047" xlink:href="#DejaVuSans-35"/>
       <use x="127.246094" xlink:href="#DejaVuSans-30"/>
      </g>
     </g>
    </g>
    <g id="text_10">
     <!-- radius(nm) -->
     <g transform="translate(208.763125 335.860562)scale(0.1 -0.1)">
      <defs>
       <path d="M 2631 2963 
Q 2534 3019 2420 3045 
Q 2306 3072 2169 3072 
Q 1681 3072 1420 2755 
Q 1159 2438 1159 1844 
L 1159 0 
L 581 0 
L 581 3500 
L 1159 3500 
L 1159 2956 
Q 1341 3275 1631 3429 
Q 1922 3584 2338 3584 
Q 2397 3584 2469 3576 
Q 2541 3569 2628 3553 
L 2631 2963 
z
" id="DejaVuSans-72" transform="scale(0.015625)"/>
       <path d="M 2194 1759 
Q 1497 1759 1228 1600 
Q 959 1441 959 1056 
Q 959 750 1161 570 
Q 1363 391 1709 391 
Q 2188 391 2477 730 
Q 2766 1069 2766 1631 
L 2766 1759 
L 2194 1759 
z
M 3341 1997 
L 3341 0 
L 2766 0 
L 2766 531 
Q 2569 213 2275 61 
Q 1981 -91 1556 -91 
Q 1019 -91 701 211 
Q 384 513 384 1019 
Q 384 1609 779 1909 
Q 1175 2209 1959 2209 
L 2766 2209 
L 2766 2266 
Q 2766 2663 2505 2880 
Q 2244 3097 1772 3097 
Q 1472 3097 1187 3025 
Q 903 2953 641 2809 
L 641 3341 
Q 956 3463 1253 3523 
Q 1550 3584 1831 3584 
Q 2591 3584 2966 3190 
Q 3341 2797 3341 1997 
z
" id="DejaVuSans-61" transform="scale(0.015625)"/>
       <path d="M 2906 2969 
L 2906 4863 
L 3481 4863 
L 3481 0 
L 2906 0 
L 2906 525 
Q 2725 213 2448 61 
Q 2172 -91 1784 -91 
Q 1150 -91 751 415 
Q 353 922 353 1747 
Q 353 2572 751 3078 
Q 1150 3584 1784 3584 
Q 2172 3584 2448 3432 
Q 2725 3281 2906 2969 
z
M 947 1747 
Q 947 1113 1208 752 
Q 1469 391 1925 391 
Q 2381 391 2643 752 
Q 2906 1113 2906 1747 
Q 2906 2381 2643 2742 
Q 2381 3103 1925 3103 
Q 1469 3103 1208 2742 
Q 947 2381 947 1747 
z
" id="DejaVuSans-64" transform="scale(0.015625)"/>
       <path d="M 603 3500 
L 1178 3500 
L 1178 0 
L 603 0 
L 603 3500 
z
M 603 4863 
L 1178 4863 
L 1178 4134 
L 603 4134 
L 603 4863 
z
" id="DejaVuSans-69" transform="scale(0.015625)"/>
       <path d="M 544 1381 
L 544 3500 
L 1119 3500 
L 1119 1403 
Q 1119 906 1312 657 
Q 1506 409 1894 409 
Q 2359 409 2629 706 
Q 2900 1003 2900 1516 
L 2900 3500 
L 3475 3500 
L 3475 0 
L 2900 0 
L 2900 538 
Q 2691 219 2414 64 
Q 2138 -91 1772 -91 
Q 1169 -91 856 284 
Q 544 659 544 1381 
z
M 1991 3584 
L 1991 3584 
z
" id="DejaVuSans-75" transform="scale(0.015625)"/>
       <path d="M 2834 3397 
L 2834 2853 
Q 2591 2978 2328 3040 
Q 2066 3103 1784 3103 
Q 1356 3103 1142 2972 
Q 928 2841 928 2578 
Q 928 2378 1081 2264 
Q 1234 2150 1697 2047 
L 1894 2003 
Q 2506 1872 2764 1633 
Q 3022 1394 3022 966 
Q 3022 478 2636 193 
Q 2250 -91 1575 -91 
Q 1294 -91 989 -36 
Q 684 19 347 128 
L 347 722 
Q 666 556 975 473 
Q 1284 391 1588 391 
Q 1994 391 2212 530 
Q 2431 669 2431 922 
Q 2431 1156 2273 1281 
Q 2116 1406 1581 1522 
L 1381 1569 
Q 847 1681 609 1914 
Q 372 2147 372 2553 
Q 372 3047 722 3315 
Q 1072 3584 1716 3584 
Q 2034 3584 2315 3537 
Q 2597 3491 2834 3397 
z
" id="DejaVuSans-73" transform="scale(0.015625)"/>
       <path d="M 1984 4856 
Q 1566 4138 1362 3434 
Q 1159 2731 1159 2009 
Q 1159 1288 1364 580 
Q 1569 -128 1984 -844 
L 1484 -844 
Q 1016 -109 783 600 
Q 550 1309 550 2009 
Q 550 2706 781 3412 
Q 1013 4119 1484 4856 
L 1984 4856 
z
" id="DejaVuSans-28" transform="scale(0.015625)"/>
       <path d="M 3513 2113 
L 3513 0 
L 2938 0 
L 2938 2094 
Q 2938 2591 2744 2837 
Q 2550 3084 2163 3084 
Q 1697 3084 1428 2787 
Q 1159 2491 1159 1978 
L 1159 0 
L 581 0 
L 581 3500 
L 1159 3500 
L 1159 2956 
Q 1366 3272 1645 3428 
Q 1925 3584 2291 3584 
Q 2894 3584 3203 3211 
Q 3513 2838 3513 2113 
z
" id="DejaVuSans-6e" transform="scale(0.015625)"/>
       <path d="M 3328 2828 
Q 3544 3216 3844 3400 
Q 4144 3584 4550 3584 
Q 5097 3584 5394 3201 
Q 5691 2819 5691 2113 
L 5691 0 
L 5113 0 
L 5113 2094 
Q 5113 2597 4934 2840 
Q 4756 3084 4391 3084 
Q 3944 3084 3684 2787 
Q 3425 2491 3425 1978 
L 3425 0 
L 2847 0 
L 2847 2094 
Q 2847 2600 2669 2842 
Q 2491 3084 2119 3084 
Q 1678 3084 1418 2786 
Q 1159 2488 1159 1978 
L 1159 0 
L 581 0 
L 581 3500 
L 1159 3500 
L 1159 2956 
Q 1356 3278 1631 3431 
Q 1906 3584 2284 3584 
Q 2666 3584 2933 3390 
Q 3200 3197 3328 2828 
z
" id="DejaVuSans-6d" transform="scale(0.015625)"/>
       <path d="M 513 4856 
L 1013 4856 
Q 1481 4119 1714 3412 
Q 1947 2706 1947 2009 
Q 1947 1309 1714 600 
Q 1481 -109 1013 -844 
L 513 -844 
Q 928 -128 1133 580 
Q 1338 1288 1338 2009 
Q 1338 2731 1133 3434 
Q 928 4138 513 4856 
z
" id="DejaVuSans-29" transform="scale(0.015625)"/>
      </defs>
      <use xlink:href="#DejaVuSans-72"/>
      <use x="41.113281" xlink:href="#DejaVuSans-61"/>
      <use x="102.392578" xlink:href="#DejaVuSans-64"/>
      <use x="165.869141" xlink:href="#DejaVuSans-69"/>
      <use x="193.652344" xlink:href="#DejaVuSans-75"/>
      <use x="257.03125" xlink:href="#DejaVuSans-73"/>
      <use x="309.130859" xlink:href="#DejaVuSans-28"/>
      <use x="348.144531" xlink:href="#DejaVuSans-6e"/>
      <use x="411.523438" xlink:href="#DejaVuSans-6d"/>
      <use x="508.935547" xlink:href="#DejaVuSans-29"/>
     </g>
    </g>
   </g>
   <g id="matplotlib.axis_2">
    <g id="ytick_1">
     <g id="line2d_10">
      <defs>
       <path d="M 0 0 
L -3.5 0 
" id="m53fbe53342" style="stroke:#000000;stroke-width:0.8;"/>
      </defs>
      <g>
       <use style="stroke:#000000;stroke-width:0.8;" x="57.6" xlink:href="#m53fbe53342" y="260.682809"/>
      </g>
     </g>
     <g id="text_11">
      <!-- −20 -->
      <g transform="translate(29.495313 264.482028)scale(0.1 -0.1)">
       <defs>
        <path d="M 678 2272 
L 4684 2272 
L 4684 1741 
L 678 1741 
L 678 2272 
z
" id="DejaVuSans-2212" transform="scale(0.015625)"/>
       </defs>
       <use xlink:href="#DejaVuSans-2212"/>
       <use x="83.789062" xlink:href="#DejaVuSans-32"/>
       <use x="147.412109" xlink:href="#DejaVuSans-30"/>
      </g>
     </g>
    </g>
    <g id="ytick_2">
     <g id="line2d_11">
      <g>
       <use style="stroke:#000000;stroke-width:0.8;" x="57.6" xlink:href="#m53fbe53342" y="208.86887"/>
      </g>
     </g>
     <g id="text_12">
      <!-- −15 -->
      <g transform="translate(29.495313 212.668089)scale(0.1 -0.1)">
       <use xlink:href="#DejaVuSans-2212"/>
       <use x="83.789062" xlink:href="#DejaVuSans-31"/>
       <use x="147.412109" xlink:href="#DejaVuSans-35"/>
      </g>
     </g>
    </g>
    <g id="ytick_3">
     <g id="line2d_12">
      <g>
       <use style="stroke:#000000;stroke-width:0.8;" x="57.6" xlink:href="#m53fbe53342" y="157.054932"/>
      </g>
     </g>
     <g id="text_13">
      <!-- −10 -->
      <g transform="translate(29.495313 160.854151)scale(0.1 -0.1)">
       <use xlink:href="#DejaVuSans-2212"/>
       <use x="83.789062" xlink:href="#DejaVuSans-31"/>
       <use x="147.412109" xlink:href="#DejaVuSans-30"/>
      </g>
     </g>
    </g>
    <g id="ytick_4">
     <g id="line2d_13">
      <g>
       <use style="stroke:#000000;stroke-width:0.8;" x="57.6" xlink:href="#m53fbe53342" y="105.240994"/>
      </g>
     </g>
     <g id="text_14">
      <!-- −5 -->
      <g transform="translate(35.857813 109.040212)scale(0.1 -0.1)">
       <use xlink:href="#DejaVuSans-2212"/>
       <use x="83.789062" xlink:href="#DejaVuSans-35"/>
      </g>
     </g>
    </g>
    <g id="ytick_5">
     <g id="line2d_14">
      <g>
       <use style="stroke:#000000;stroke-width:0.8;" x="57.6" xlink:href="#m53fbe53342" y="53.427055"/>
      </g>
     </g>
     <g id="text_15">
      <!-- 0 -->
      <g transform="translate(44.2375 57.226274)scale(0.1 -0.1)">
       <use xlink:href="#DejaVuSans-30"/>
      </g>
     </g>
    </g>
   </g>
   <g id="line2d_15">
    <path clip-path="url(#p0af1959cbb)" d="M 73.832727 55.578904 
L 77.079273 55.569087 
L 80.325818 55.559158 
L 83.572364 55.549141 
L 86.818909 55.539017 
L 90.065455 55.528731 
L 93.312 55.51819 
L 96.558545 55.507269 
L 99.805091 55.495814 
L 103.051636 55.483644 
L 106.298182 55.470551 
L 109.544727 55.456303 
L 112.791273 55.440648 
L 116.037818 55.423318 
L 119.284364 55.404033 
L 122.530909 55.382517 
L 125.777455 55.358503 
L 129.024 55.331754 
L 132.270545 55.302068 
L 135.517091 55.269287 
L 138.763636 55.233305 
L 142.010182 55.194056 
L 145.256727 55.151504 
L 148.503273 55.105623 
L 151.749818 55.056377 
L 154.996364 55.003694 
L 158.242909 54.947456 
L 161.489455 54.887481 
L 164.736 54.823527 
L 167.982545 54.755299 
L 171.229091 54.682469 
L 174.475636 54.604711 
L 177.722182 54.521749 
L 180.968727 54.433438 
L 184.215273 54.339865 
L 187.461818 54.241489 
L 190.708364 54.139324 
L 193.954909 54.035169 
L 197.201455 53.931865 
L 200.448 53.833537 
L 203.694545 53.745772 
L 206.941091 53.675588 
L 210.187636 53.631068 
L 213.434182 53.620527 
L 216.680727 53.65118 
L 219.927273 53.727493 
L 223.173818 53.849634 
L 226.420364 54.01253 
L 229.666909 54.205921 
L 232.913455 54.415408 
L 236.16 54.624168 
L 239.406545 54.814819 
L 242.653091 54.971058 
L 245.899636 55.078895 
L 249.146182 55.127553 
L 252.392727 55.110176 
L 255.639273 55.024544 
L 258.885818 54.873922 
L 262.132364 54.668087 
L 265.378909 54.424387 
L 268.625455 54.168341 
L 271.872 53.932855 
L 275.118545 53.754832 
L 278.365091 53.668516 
L 281.611636 53.696888 
L 284.858182 53.844925 
L 288.104727 54.098631 
L 291.351273 54.430443 
L 294.597818 54.807587 
L 297.844364 55.1993 
L 301.090909 55.580969 
L 304.337455 55.935567 
L 307.584 56.253676 
L 310.830545 56.533406 
L 314.077091 56.781292 
L 317.323636 57.015544 
L 320.570182 57.274241 
L 323.816727 57.6343 
L 327.063273 58.254667 
L 330.309818 59.47321 
L 333.556364 62.025835 
L 336.802909 67.772576 
L 340.049455 81.198133 
L 343.296 67.815768 
L 346.542545 62.935463 
L 349.789091 60.417717 
L 353.035636 58.848762 
L 356.282182 57.770974 
L 359.528727 57.002114 
L 362.775273 56.464489 
L 366.021818 56.12255 
L 369.268364 55.954566 
L 372.514909 55.939247 
L 375.761455 56.051408 
L 379.008 56.263293 
L 382.254545 56.548358 
L 385.501091 56.885066 
L 388.747636 57.259793 
L 391.994182 57.669529 
L 395.240727 58.126719 
L 398.487273 58.672184 
" style="fill:none;stroke:#1f77b4;stroke-linecap:square;stroke-width:2;"/>
   </g>
   <g id="line2d_16">
    <path clip-path="url(#p0af1959cbb)" d="M 73.832727 55.069042 
L 77.079273 55.087807 
L 80.325818 55.106666 
L 83.572364 55.125604 
L 86.818909 55.144672 
L 90.065455 55.163977 
L 93.312 55.183674 
L 96.558545 55.203951 
L 99.805091 55.22502 
L 103.051636 55.24711 
L 106.298182 55.270456 
L 109.544727 55.295288 
L 112.791273 55.321819 
L 116.037818 55.35023 
L 119.284364 55.38065 
L 122.530909 55.413136 
L 125.777455 55.447661 
L 129.024 55.484091 
L 132.270545 55.52219 
L 135.517091 55.561615 
L 138.763636 55.601934 
L 142.010182 55.642649 
L 145.256727 55.683221 
L 148.503273 55.723096 
L 151.749818 55.761721 
L 154.996364 55.79855 
L 158.242909 55.833036 
L 161.489455 55.864611 
L 164.736 55.892654 
L 167.982545 55.916448 
L 171.229091 55.935133 
L 174.475636 55.947656 
L 177.722182 55.952709 
L 180.968727 55.94868 
L 184.215273 55.93359 
L 187.461818 55.905056 
L 190.708364 55.860256 
L 193.954909 55.795948 
L 197.201455 55.708538 
L 200.448 55.594263 
L 203.694545 55.449527 
L 206.941091 55.271479 
L 210.187636 55.058919 
L 213.434182 54.813645 
L 216.680727 54.542282 
L 219.927273 54.258485 
L 223.173818 53.984931 
L 226.420364 53.753714 
L 229.666909 53.602975 
L 232.913455 53.568 
L 236.16 53.668447 
L 239.406545 53.898209 
L 242.653091 54.225075 
L 245.899636 54.600541 
L 249.146182 54.972979 
L 252.392727 55.297359 
L 255.639273 55.539578 
L 258.885818 55.677007 
L 262.132364 55.697586 
L 265.378909 55.599042 
L 268.625455 55.389092 
L 271.872 55.086962 
L 275.118545 54.726011 
L 278.365091 54.356083 
L 281.611636 54.042115 
L 284.858182 53.853816 
L 288.104727 53.844687 
L 291.351273 54.029756 
L 294.597818 54.379422 
L 297.844364 54.839594 
L 301.090909 55.554552 
L 304.337455 57.596954 
L 307.584 56.869465 
L 310.830545 57.24195 
L 314.077091 57.827684 
L 317.323636 59.056364 
L 320.570182 57.384067 
L 323.816727 57.033213 
L 327.063273 57.074706 
L 330.309818 57.040751 
L 333.556364 56.940487 
L 336.802909 56.811709 
L 340.049455 56.718566 
L 343.296 56.780273 
L 346.542545 57.224022 
L 349.789091 58.465434 
L 353.035636 61.225365 
L 356.282182 67.011735 
L 359.528727 76.210063 
L 362.775273 66.473189 
L 366.021818 61.452807 
L 369.268364 58.709914 
L 372.514909 57.430696 
L 375.761455 56.902911 
L 379.008 56.512864 
L 382.254545 56.340212 
L 385.501091 56.38655 
L 388.747636 56.594167 
L 391.994182 56.908284 
L 395.240727 57.291391 
L 398.487273 57.72564 
" style="fill:none;stroke:#ff7f0e;stroke-linecap:square;stroke-width:2;"/>
   </g>
   <g id="line2d_17">
    <path clip-path="url(#p0af1959cbb)" d="M 73.832727 291.65643 
L 77.079273 256.570294 
L 80.325818 288.10161 
L 83.572364 284.35862 
L 86.818909 281.972807 
L 90.065455 290.482081 
L 93.312 253.430204 
L 96.558545 289.614994 
L 99.805091 253.456218 
L 103.051636 253.429507 
L 106.298182 253.429387 
L 109.544727 253.431666 
L 112.791273 295.488 
L 116.037818 253.384013 
L 119.284364 276.305588 
L 122.530909 289.231021 
L 125.777455 253.462612 
L 129.024 287.914808 
L 132.270545 283.25094 
L 135.517091 253.424699 
L 138.763636 253.330037 
L 142.010182 272.953177 
L 145.256727 253.424243 
L 148.503273 273.530114 
L 151.749818 256.563058 
L 154.996364 271.953661 
L 158.242909 279.022788 
L 161.489455 250.304494 
L 164.736 270.558621 
L 167.982545 244.133823 
L 171.229091 241.091684 
L 174.475636 269.963681 
L 177.722182 257.37284 
L 180.968727 249.337614 
L 184.215273 245.08548 
L 187.461818 222.151316 
L 190.708364 219.160633 
L 193.954909 232.496058 
L 197.201455 209.835417 
L 200.448 248.402493 
L 203.694545 236.000666 
L 206.941091 244.065401 
L 210.187636 265.166793 
L 213.434182 247.399527 
L 216.680727 256.013448 
L 219.927273 251.450624 
L 223.173818 235.766738 
L 226.420364 234.653854 
L 229.666909 216.002674 
L 232.913455 228.278686 
L 236.16 213.064451 
L 239.406545 225.356731 
L 242.653091 222.274023 
L 245.899636 245.559735 
L 249.146182 238.627455 
L 252.392727 239.093191 
L 255.639273 222.425704 
L 258.885818 219.144098 
L 262.132364 240.625933 
L 265.378909 242.944063 
L 268.625455 228.144095 
L 271.872 219.628581 
L 275.118545 218.898563 
L 278.365091 222.354513 
L 281.611636 233.855635 
L 284.858182 222.340214 
L 288.104727 221.198555 
L 291.351273 221.527163 
L 294.597818 228.38912 
L 297.844364 225.345731 
L 301.090909 222.346447 
L 304.337455 235.501129 
L 307.584 223.546566 
L 310.830545 225.328998 
L 314.077091 245.151183 
L 317.323636 226.53386 
L 320.570182 242.161943 
L 323.816727 240.744677 
L 327.063273 243.363675 
L 330.309818 223.112535 
L 333.556364 224.812359 
L 336.802909 232.323384 
L 340.049455 239.477922 
L 343.296 225.082627 
L 346.542545 235.024806 
L 349.789091 228.598275 
L 353.035636 231.692824 
L 356.282182 231.194421 
L 359.528727 248.75054 
L 362.775273 243.621244 
L 366.021818 234.802464 
L 369.268364 220.724403 
L 372.514909 229.449414 
L 375.761455 243.05043 
L 379.008 248.883691 
L 382.254545 223.584208 
L 385.501091 225.52937 
L 388.747636 225.030695 
L 391.994182 227.335971 
L 395.240727 236.888595 
L 398.487273 231.422445 
" style="fill:none;stroke:#2ca02c;stroke-linecap:square;stroke-width:2;"/>
   </g>
   <g id="line2d_18">
    <path clip-path="url(#p0af1959cbb)" d="M 73.832727 273.872863 
L 77.079273 271.697334 
L 80.325818 273.923048 
L 83.572364 243.696706 
L 86.818909 283.852894 
L 90.065455 246.819293 
L 93.312 291.890353 
L 96.558545 249.97043 
L 99.805091 283.015468 
L 103.051636 253.060001 
L 106.298182 253.077386 
L 109.544727 280.138844 
L 112.791273 256.177203 
L 116.037818 253.067668 
L 119.284364 281.558222 
L 122.530909 285.022794 
L 125.777455 287.117152 
L 129.024 284.415432 
L 132.270545 295.174628 
L 135.517091 268.648021 
L 138.763636 281.326238 
L 142.010182 288.695165 
L 145.256727 259.314542 
L 148.503273 277.201749 
L 151.749818 279.834323 
L 154.996364 256.150353 
L 158.242909 281.193781 
L 161.489455 295.418378 
L 164.736 272.423794 
L 167.982545 275.012299 
L 171.229091 267.501946 
L 174.475636 276.238578 
L 177.722182 272.619349 
L 180.968727 271.515836 
L 184.215273 246.861161 
L 187.461818 246.909035 
L 190.708364 243.997686 
L 193.954909 256.192664 
L 197.201455 240.385118 
L 200.448 237.425577 
L 203.694545 256.055179 
L 206.941091 240.708374 
L 210.187636 233.861817 
L 213.434182 257.398895 
L 216.680727 240.569831 
L 219.927273 246.75861 
L 223.173818 269.848116 
L 226.420364 249.951399 
L 229.666909 274.567875 
L 232.913455 246.939568 
L 236.16 254.471877 
L 239.406545 255.791811 
L 242.653091 257.172262 
L 245.899636 258.449011 
L 249.146182 256.78853 
L 252.392727 234.194578 
L 255.639273 244.202799 
L 258.885818 234.38818 
L 262.132364 237.310203 
L 265.378909 253.388266 
L 268.625455 253.652077 
L 271.872 260.528063 
L 275.118545 246.391832 
L 278.365091 222.660327 
L 281.611636 248.961329 
L 284.858182 245.661483 
L 288.104727 244.201063 
L 291.351273 243.68073 
L 294.597818 238.022902 
L 297.844364 221.820709 
L 301.090909 239.509857 
L 304.337455 237.26248 
L 307.584 225.275394 
L 310.830545 238.420551 
L 314.077091 234.6043 
L 317.323636 228.013975 
L 320.570182 228.211929 
L 323.816727 231.535388 
L 327.063273 245.15701 
L 330.309818 249.289282 
L 333.556364 227.652137 
L 336.802909 240.691359 
L 340.049455 238.742322 
L 343.296 238.425044 
L 346.542545 228.215359 
L 349.789091 242.677443 
L 353.035636 228.465772 
L 356.282182 228.728028 
L 359.528727 236.677477 
L 362.775273 230.540597 
L 366.021818 228.197518 
L 369.268364 243.288822 
L 372.514909 227.639083 
L 375.761455 229.878855 
L 379.008 230.021997 
L 382.254545 232.334347 
L 385.501091 229.573255 
L 388.747636 227.206972 
L 391.994182 234.653863 
L 395.240727 232.405076 
L 398.487273 231.966389 
" style="fill:none;stroke:#d62728;stroke-linecap:square;stroke-width:2;"/>
   </g>
   <g id="line2d_19">
    <path clip-path="url(#p0af1959cbb)" d="M 73.832727 94.955227 
L 77.079273 94.315215 
L 80.325818 93.726154 
L 83.572364 93.184232 
L 86.818909 92.684412 
L 90.065455 92.221003 
L 93.312 91.788093 
L 96.558545 91.379851 
L 99.805091 90.990724 
L 103.051636 90.615558 
L 106.298182 90.249678 
L 109.544727 89.888945 
L 112.791273 89.529827 
L 116.037818 89.169474 
L 119.284364 88.805811 
L 122.530909 88.437618 
L 125.777455 88.064589 
L 129.024 87.687328 
L 132.270545 87.307268 
L 135.517091 86.926501 
L 138.763636 86.547519 
L 142.010182 86.172912 
L 145.256727 85.805051 
L 148.503273 85.445801 
L 151.749818 85.096309 
L 154.996364 84.756874 
L 158.242909 84.426897 
L 161.489455 84.104921 
L 164.736 83.788705 
L 167.982545 83.475336 
L 171.229091 83.161353 
L 174.475636 82.842863 
L 177.722182 82.515652 
L 180.968727 82.175278 
L 184.215273 81.817177 
L 187.461818 81.436765 
L 190.708364 81.029577 
L 193.954909 80.591454 
L 197.201455 80.118817 
L 200.448 79.609042 
L 203.694545 79.060998 
L 206.941091 78.475765 
L 210.187636 77.857575 
L 213.434182 77.214924 
L 216.680727 76.561721 
L 219.927273 75.918037 
L 223.173818 75.309679 
L 226.420364 74.765571 
L 229.666909 74.312313 
L 232.913455 73.966862 
L 236.16 73.730339 
L 239.406545 73.586449 
L 242.653091 73.505559 
L 245.899636 73.452013 
L 249.146182 73.391075 
L 252.392727 73.293382 
L 255.639273 73.136851 
L 258.885818 72.907045 
L 262.132364 72.597107 
L 265.378909 72.208042 
L 268.625455 71.749754 
L 271.872 71.242792 
L 275.118545 70.719984 
L 278.365091 70.225781 
L 281.611636 69.80993 
L 284.858182 69.513339 
L 288.104727 69.350024 
L 291.351273 69.295751 
L 294.597818 69.29051 
L 297.844364 69.247235 
L 301.090909 69.036858 
L 304.337455 68.191189 
L 307.584 68.963014 
L 310.830545 67.807087 
L 314.077091 66.068502 
L 317.323636 63.22084 
L 320.570182 58.44164 
L 323.816727 57.558449 
L 327.063273 64.078803 
L 330.309818 68.524991 
L 333.556364 71.172085 
L 336.802909 72.474839 
L 340.049455 72.685478 
L 343.296 72.056996 
L 346.542545 70.922238 
L 349.789091 69.701693 
L 353.035636 68.797269 
L 356.282182 68.390337 
L 359.528727 68.4091 
L 362.775273 68.727737 
L 366.021818 69.326481 
L 369.268364 70.363788 
L 372.514909 72.409057 
L 375.761455 77.891115 
L 379.008 82.799472 
L 382.254545 74.886547 
L 385.501091 73.793631 
L 388.747636 74.307711 
L 391.994182 75.347451 
L 395.240727 76.657861 
L 398.487273 78.175186 
" style="fill:none;stroke:#9467bd;stroke-linecap:square;stroke-width:2;"/>
   </g>
   <g id="line2d_20">
    <path clip-path="url(#p0af1959cbb)" d="M 73.832727 99.617282 
L 77.079273 98.93322 
L 80.325818 98.297636 
L 83.572364 97.706932 
L 86.818909 97.156231 
L 90.065455 96.639951 
L 93.312 96.152252 
L 96.558545 95.687363 
L 99.805091 95.239788 
L 103.051636 94.804439 
L 106.298182 94.376707 
L 109.544727 93.952526 
L 112.791273 93.528417 
L 116.037818 93.101557 
L 119.284364 92.669854 
L 122.530909 92.232023 
L 125.777455 91.78763 
L 129.024 91.337101 
L 132.270545 90.881648 
L 135.517091 90.423112 
L 138.763636 89.963741 
L 142.010182 89.505905 
L 145.256727 89.051807 
L 148.503273 88.603222 
L 151.749818 88.1613 
L 154.996364 87.72646 
L 158.242909 87.298367 
L 161.489455 86.87599 
L 164.736 86.457717 
L 167.982545 86.041505 
L 171.229091 85.62505 
L 174.475636 85.205955 
L 177.722182 84.78189 
L 180.968727 84.350764 
L 184.215273 83.910886 
L 187.461818 83.461149 
L 190.708364 83.001238 
L 193.954909 82.531867 
L 197.201455 82.055034 
L 200.448 81.574261 
L 203.694545 81.094762 
L 206.941091 80.623425 
L 210.187636 80.168511 
L 213.434182 79.73894 
L 216.680727 79.343155 
L 219.927273 78.987661 
L 223.173818 78.675553 
L 226.420364 78.405428 
L 229.666909 78.171046 
L 232.913455 77.961853 
L 236.16 77.764206 
L 239.406545 77.562941 
L 242.653091 77.34294 
L 245.899636 77.090477 
L 249.146182 76.794315 
L 252.392727 76.446631 
L 255.639273 76.043908 
L 258.885818 75.587934 
L 262.132364 75.086939 
L 265.378909 74.55672 
L 268.625455 74.021231 
L 271.872 73.511615 
L 275.118545 73.062412 
L 278.365091 72.704398 
L 281.611636 72.455747 
L 284.858182 72.315686 
L 288.104727 72.264461 
L 291.351273 72.269515 
L 294.597818 72.293923 
L 297.844364 72.302939 
L 301.090909 72.266944 
L 304.337455 72.161193 
L 307.584 71.96288 
L 310.830545 71.642835 
L 314.077091 71.132658 
L 317.323636 71.73721 
L 320.570182 70.380378 
L 323.816727 69.46677 
L 327.063273 68.453375 
L 330.309818 67.356614 
L 333.556364 66.312263 
L 336.802909 65.466141 
L 340.049455 64.540554 
L 343.296 62.759042 
L 346.542545 64.296477 
L 349.789091 70.508987 
L 353.035636 73.607071 
L 356.282182 74.316767 
L 359.528727 74.14112 
L 362.775273 73.752134 
L 366.021818 73.387703 
L 369.268364 73.127628 
L 372.514909 72.989097 
L 375.761455 72.960096 
L 379.008 73.014827 
L 382.254545 73.122759 
L 385.501091 73.253918 
L 388.747636 73.381371 
L 391.994182 73.481932 
L 395.240727 73.536303 
L 398.487273 73.530414 
" style="fill:none;stroke:#8c564b;stroke-linecap:square;stroke-width:2;"/>
   </g>
   <g id="line2d_21">
    <path clip-path="url(#p0af1959cbb)" d="M 73.832727 103.104579 
L 77.079273 102.412595 
L 80.325818 101.767765 
L 83.572364 101.166659 
L 86.818909 100.604592 
L 90.065455 100.076179 
L 93.312 99.575784 
L 96.558545 99.097843 
L 99.805091 98.637073 
L 103.051636 98.188601 
L 106.298182 97.748035 
L 109.544727 97.311511 
L 112.791273 96.875737 
L 116.037818 96.438042 
L 119.284364 95.996436 
L 122.530909 95.549675 
L 125.777455 95.097296 
L 129.024 94.639619 
L 132.270545 94.177679 
L 135.517091 93.713084 
L 138.763636 93.24781 
L 142.010182 92.78394 
L 145.256727 92.323404 
L 148.503273 91.867735 
L 151.749818 91.417891 
L 154.996364 90.974149 
L 158.242909 90.536086 
L 161.489455 90.10263 
L 164.736 89.67216 
L 167.982545 89.242648 
L 171.229091 88.8118 
L 174.475636 88.377214 
L 177.722182 87.936522 
L 180.968727 87.487535 
L 184.215273 87.028387 
L 187.461818 86.557708 
L 190.708364 86.074821 
L 193.954909 85.579988 
L 197.201455 85.074711 
L 200.448 84.562051 
L 203.694545 84.046941 
L 206.941091 83.536384 
L 210.187636 83.039399 
L 213.434182 82.566546 
L 216.680727 82.128873 
L 219.927273 81.736281 
L 223.173818 81.395523 
L 226.420364 81.10835 
L 229.666909 80.870405 
L 232.913455 80.671296 
L 236.16 80.495834 
L 239.406545 80.326015 
L 242.653091 80.143168 
L 245.899636 79.92984 
L 249.146182 79.671266 
L 252.392727 79.356466 
L 255.639273 78.979188 
L 258.885818 78.538879 
L 262.132364 78.041824 
L 265.378909 77.502444 
L 268.625455 76.944346 
L 271.872 76.400244 
L 275.118545 75.909277 
L 278.365091 75.510459 
L 281.611636 75.233007 
L 284.858182 75.087513 
L 288.104727 75.063274 
L 291.351273 75.133647 
L 294.597818 75.265964 
L 297.844364 75.43082 
L 301.090909 75.608218 
L 304.337455 75.791638 
L 307.584 75.993415 
L 310.830545 76.231538 
L 314.077091 69.958909 
L 317.323636 75.685131 
L 320.570182 76.700744 
L 323.816727 78.242978 
L 327.063273 82.405172 
L 330.309818 86.379882 
L 333.556364 72.064006 
L 336.802909 66.635363 
L 340.049455 64.811053 
L 343.296 64.302813 
L 346.542545 65.127594 
L 349.789091 67.604612 
L 353.035636 71.181955 
L 356.282182 75.089184 
L 359.528727 78.428109 
L 362.775273 79.911337 
L 366.021818 79.599325 
L 369.268364 78.809226 
L 372.514909 78.217957 
L 375.761455 77.961236 
L 379.008 78.023494 
L 382.254545 78.366921 
L 385.501091 78.956823 
L 388.747636 79.730172 
L 391.994182 80.426498 
L 395.240727 80.125121 
L 398.487273 77.581719 
" style="fill:none;stroke:#e377c2;stroke-linecap:square;stroke-width:2;"/>
   </g>
   <g id="line2d_22">
    <path clip-path="url(#p0af1959cbb)" d="M 73.832727 106.072517 
L 77.079273 105.39174 
L 80.325818 104.757549 
L 83.572364 104.166639 
L 86.818909 103.614499 
L 90.065455 103.09596 
L 93.312 102.605628 
L 96.558545 102.138194 
L 99.805091 101.68864 
L 103.051636 101.252363 
L 106.298182 100.82524 
L 109.544727 100.403668 
L 112.791273 99.984599 
L 116.037818 99.565579 
L 119.284364 99.144794 
L 122.530909 98.721116 
L 125.777455 98.294136 
L 129.024 97.864147 
L 132.270545 97.432082 
L 135.517091 96.999381 
L 138.763636 96.567795 
L 142.010182 96.139156 
L 145.256727 95.715132 
L 148.503273 95.29701 
L 151.749818 94.885527 
L 154.996364 94.480769 
L 158.242909 94.082146 
L 161.489455 93.688415 
L 164.736 93.29776 
L 167.982545 92.90789 
L 171.229091 92.51614 
L 174.475636 92.119574 
L 177.722182 91.715074 
L 180.968727 91.299415 
L 184.215273 90.86934 
L 187.461818 90.421634 
L 190.708364 89.953241 
L 193.954909 89.461408 
L 197.201455 88.943932 
L 200.448 88.399498 
L 203.694545 87.828183 
L 206.941091 87.232124 
L 210.187636 86.616382 
L 213.434182 85.989924 
L 216.680727 85.366526 
L 219.927273 84.765142 
L 223.173818 84.209004 
L 226.420364 83.722644 
L 229.666909 83.326618 
L 232.913455 83.031163 
L 236.16 82.831549 
L 239.406545 82.707742 
L 242.653091 82.628668 
L 245.899636 82.558804 
L 249.146182 82.464195 
L 252.392727 82.316376 
L 255.639273 82.094238 
L 258.885818 81.784691 
L 262.132364 81.382993 
L 265.378909 80.89341 
L 268.625455 80.330512 
L 271.872 79.720987 
L 275.118545 79.105004 
L 278.365091 78.534888 
L 281.611636 78.068001 
L 284.858182 77.752594 
L 288.104727 77.611705 
L 291.351273 77.635449 
L 294.597818 77.787149 
L 297.844364 78.014559 
L 301.090909 78.232541 
L 304.337455 77.908481 
L 307.584 75.316093 
L 310.830545 79.447293 
L 314.077091 80.804384 
L 317.323636 83.411858 
L 320.570182 86.582493 
L 323.816727 72.212641 
L 327.063273 71.526204 
L 330.309818 72.360441 
L 333.556364 72.595303 
L 336.802909 72.493797 
L 340.049455 72.243208 
L 343.296 72.017593 
L 346.542545 72.062053 
L 349.789091 72.729737 
L 353.035636 74.388837 
L 356.282182 77.239016 
L 359.528727 81.256108 
L 362.775273 85.445627 
L 366.021818 85.623948 
L 369.268364 82.886801 
L 372.514909 80.48553 
L 375.761455 78.492026 
L 379.008 76.706175 
L 382.254545 76.149841 
L 385.501091 76.784086 
L 388.747636 77.50478 
L 391.994182 78.124084 
L 395.240727 78.706322 
L 398.487273 79.318334 
" style="fill:none;stroke:#7f7f7f;stroke-linecap:square;stroke-width:2;"/>
   </g>
   <g id="line2d_23">
    <path clip-path="url(#p0af1959cbb)" d="M 73.832727 109.097559 
L 77.079273 108.419463 
L 80.325818 107.788259 
L 83.572364 107.200733 
L 86.818909 106.652495 
L 90.065455 106.138524 
L 93.312 105.653597 
L 96.558545 105.192603 
L 99.805091 104.750745 
L 103.051636 104.323665 
L 106.298182 103.907503 
L 109.544727 103.498941 
L 112.791273 103.095226 
L 116.037818 102.694204 
L 119.284364 102.294356 
L 122.530909 101.894831 
L 125.777455 101.495462 
L 129.024 101.096737 
L 132.270545 100.699725 
L 135.517091 100.305938 
L 138.763636 99.917142 
L 142.010182 99.535138 
L 145.256727 99.161538 
L 148.503273 98.797568 
L 151.749818 98.443922 
L 154.996364 98.100673 
L 158.242909 97.767252 
L 161.489455 97.442469 
L 164.736 97.124566 
L 167.982545 96.811295 
L 171.229091 96.49999 
L 174.475636 96.187626 
L 177.722182 95.870872 
L 180.968727 95.546118 
L 184.215273 95.209497 
L 187.461818 94.856887 
L 190.708364 94.483923 
L 193.954909 94.086013 
L 197.201455 93.658391 
L 200.448 93.196216 
L 203.694545 92.694766 
L 206.941091 92.149765 
L 210.187636 91.557935 
L 213.434182 90.91789 
L 216.680727 90.231532 
L 219.927273 89.506141 
L 223.173818 88.757194 
L 226.420364 88.011483 
L 229.666909 87.308891 
L 232.913455 86.699475 
L 236.16 86.232137 
L 239.406545 85.935863 
L 242.653091 85.803723 
L 245.899636 85.79241 
L 249.146182 85.837978 
L 252.392727 85.875504 
L 255.639273 85.851774 
L 258.885818 85.729394 
L 262.132364 85.485996 
L 265.378909 85.112231 
L 268.625455 84.610611 
L 271.872 83.996084 
L 275.118545 83.298418 
L 278.365091 82.565373 
L 281.611636 81.863174 
L 284.858182 81.267415 
L 288.104727 80.837241 
L 291.351273 80.572175 
L 294.597818 80.333102 
L 297.844364 79.369092 
L 301.090909 79.906967 
L 304.337455 83.128343 
L 307.584 83.753262 
L 310.830545 84.912109 
L 314.077091 85.609676 
L 317.323636 77.925274 
L 320.570182 78.901138 
L 323.816727 79.509826 
L 327.063273 79.629041 
L 330.309818 79.481857 
L 333.556364 79.1603 
L 336.802909 78.714489 
L 340.049455 78.191361 
L 343.296 77.664274 
L 346.542545 77.272268 
L 349.789091 77.266935 
L 353.035636 78.015547 
L 356.282182 79.905452 
L 359.528727 83.409491 
L 362.775273 90.322136 
L 366.021818 93.483855 
L 369.268364 87.15849 
L 372.514909 86.051282 
L 375.761455 85.385582 
L 379.008 84.710988 
L 382.254545 84.238392 
L 385.501091 84.025891 
L 388.747636 84.037939 
L 391.994182 84.221331 
L 395.240727 84.536063 
L 398.487273 84.96736 
" style="fill:none;stroke:#bcbd22;stroke-linecap:square;stroke-width:2;"/>
   </g>
   <g id="line2d_24">
    <path clip-path="url(#p0af1959cbb)" d="M 73.832727 183.219641 
L 77.079273 182.525911 
L 80.325818 181.879516 
L 83.572364 181.277303 
L 86.818909 180.714913 
L 90.065455 180.187335 
L 93.312 179.689357 
L 96.558545 179.215886 
L 99.805091 178.762163 
L 103.051636 178.323888 
L 106.298182 177.897287 
L 109.544727 177.479155 
L 112.791273 177.06688 
L 116.037818 176.658481 
L 119.284364 176.252638 
L 122.530909 175.848725 
L 125.777455 175.446813 
L 129.024 175.047638 
L 132.270545 174.652509 
L 135.517091 174.26316 
L 138.763636 173.881546 
L 142.010182 173.509622 
L 145.256727 173.149115 
L 148.503273 172.801332 
L 151.749818 172.467027 
L 154.996364 172.146319 
L 158.242909 171.83868 
L 161.489455 171.542959 
L 164.736 171.257439 
L 167.982545 170.979902 
L 171.229091 170.707695 
L 174.475636 170.437776 
L 177.722182 170.166756 
L 180.968727 169.890916 
L 184.215273 169.606214 
L 187.461818 169.308275 
L 190.708364 168.992384 
L 193.954909 168.653468 
L 197.201455 168.286104 
L 200.448 167.884545 
L 203.694545 167.442802 
L 206.941091 166.954819 
L 210.187636 166.414795 
L 213.434182 165.817777 
L 216.680727 165.160678 
L 219.927273 164.444009 
L 223.173818 163.674665 
L 226.420364 162.870044 
L 229.666909 162.063078 
L 232.913455 161.305782 
L 236.16 160.665497 
L 239.406545 160.206841 
L 242.653091 159.96175 
L 245.899636 159.908002 
L 249.146182 159.97673 
L 252.392727 160.081808 
L 255.639273 160.146535 
L 258.885818 160.1152 
L 262.132364 159.953211 
L 265.378909 159.643188 
L 268.625455 159.181556 
L 271.872 158.577347 
L 275.118545 157.853656 
L 278.365091 157.051167 
L 281.611636 156.230885 
L 284.858182 155.467876 
L 288.104727 154.819923 
L 291.351273 154.240973 
L 294.597818 153.269288 
L 297.844364 152.447296 
L 301.090909 157.464861 
L 304.337455 157.652635 
L 307.584 158.190636 
L 310.830545 158.890945 
L 314.077091 153.899051 
L 317.323636 154.233795 
L 320.570182 154.885707 
L 323.816727 155.046765 
L 327.063273 154.944169 
L 330.309818 154.663087 
L 333.556364 154.240101 
L 336.802909 153.698327 
L 340.049455 153.066012 
L 343.296 152.39794 
L 346.542545 151.810391 
L 349.789091 151.526336 
L 353.035636 151.877823 
L 356.282182 153.209088 
L 359.528727 156.087189 
L 362.775273 164.173473 
L 366.021818 172.807171 
L 369.268364 164.870486 
L 372.514909 162.596234 
L 375.761455 161.065868 
L 379.008 159.970642 
L 382.254545 159.288923 
L 385.501091 158.962483 
L 388.747636 158.910104 
L 391.994182 159.055758 
L 395.240727 159.343936 
L 398.487273 159.746709 
" style="fill:none;stroke:#17becf;stroke-linecap:square;stroke-width:2;"/>
   </g>
   <g id="patch_3">
    <path d="M 57.6 307.584 
L 57.6 41.472 
" style="fill:none;stroke:#000000;stroke-linecap:square;stroke-linejoin:miter;stroke-width:0.8;"/>
   </g>
   <g id="patch_4">
    <path d="M 414.72 307.584 
L 414.72 41.472 
" style="fill:none;stroke:#000000;stroke-linecap:square;stroke-linejoin:miter;stroke-width:0.8;"/>
   </g>
   <g id="patch_5">
    <path d="M 57.6 307.584 
L 414.72 307.584 
" style="fill:none;stroke:#000000;stroke-linecap:square;stroke-linejoin:miter;stroke-width:0.8;"/>
   </g>
   <g id="patch_6">
    <path d="M 57.6 41.472 
L 414.72 41.472 
" style="fill:none;stroke:#000000;stroke-linecap:square;stroke-linejoin:miter;stroke-width:0.8;"/>
   </g>
   <g id="text_16">
    <!-- Transmission of different radius -->
    <g transform="translate(141.78375 35.472)scale(0.12 -0.12)">
     <defs>
      <path d="M -19 4666 
L 3928 4666 
L 3928 4134 
L 2272 4134 
L 2272 0 
L 1638 0 
L 1638 4134 
L -19 4134 
L -19 4666 
z
" id="DejaVuSans-54" transform="scale(0.015625)"/>
      <path d="M 1959 3097 
Q 1497 3097 1228 2736 
Q 959 2375 959 1747 
Q 959 1119 1226 758 
Q 1494 397 1959 397 
Q 2419 397 2687 759 
Q 2956 1122 2956 1747 
Q 2956 2369 2687 2733 
Q 2419 3097 1959 3097 
z
M 1959 3584 
Q 2709 3584 3137 3096 
Q 3566 2609 3566 1747 
Q 3566 888 3137 398 
Q 2709 -91 1959 -91 
Q 1206 -91 779 398 
Q 353 888 353 1747 
Q 353 2609 779 3096 
Q 1206 3584 1959 3584 
z
" id="DejaVuSans-6f" transform="scale(0.015625)"/>
      <path id="DejaVuSans-20" transform="scale(0.015625)"/>
      <path d="M 2375 4863 
L 2375 4384 
L 1825 4384 
Q 1516 4384 1395 4259 
Q 1275 4134 1275 3809 
L 1275 3500 
L 2222 3500 
L 2222 3053 
L 1275 3053 
L 1275 0 
L 697 0 
L 697 3053 
L 147 3053 
L 147 3500 
L 697 3500 
L 697 3744 
Q 697 4328 969 4595 
Q 1241 4863 1831 4863 
L 2375 4863 
z
" id="DejaVuSans-66" transform="scale(0.015625)"/>
      <path d="M 3597 1894 
L 3597 1613 
L 953 1613 
Q 991 1019 1311 708 
Q 1631 397 2203 397 
Q 2534 397 2845 478 
Q 3156 559 3463 722 
L 3463 178 
Q 3153 47 2828 -22 
Q 2503 -91 2169 -91 
Q 1331 -91 842 396 
Q 353 884 353 1716 
Q 353 2575 817 3079 
Q 1281 3584 2069 3584 
Q 2775 3584 3186 3129 
Q 3597 2675 3597 1894 
z
M 3022 2063 
Q 3016 2534 2758 2815 
Q 2500 3097 2075 3097 
Q 1594 3097 1305 2825 
Q 1016 2553 972 2059 
L 3022 2063 
z
" id="DejaVuSans-65" transform="scale(0.015625)"/>
      <path d="M 1172 4494 
L 1172 3500 
L 2356 3500 
L 2356 3053 
L 1172 3053 
L 1172 1153 
Q 1172 725 1289 603 
Q 1406 481 1766 481 
L 2356 481 
L 2356 0 
L 1766 0 
Q 1100 0 847 248 
Q 594 497 594 1153 
L 594 3053 
L 172 3053 
L 172 3500 
L 594 3500 
L 594 4494 
L 1172 4494 
z
" id="DejaVuSans-74" transform="scale(0.015625)"/>
     </defs>
     <use xlink:href="#DejaVuSans-54"/>
     <use x="46.333984" xlink:href="#DejaVuSans-72"/>
     <use x="87.447266" xlink:href="#DejaVuSans-61"/>
     <use x="148.726562" xlink:href="#DejaVuSans-6e"/>
     <use x="212.105469" xlink:href="#DejaVuSans-73"/>
     <use x="264.205078" xlink:href="#DejaVuSans-6d"/>
     <use x="361.617188" xlink:href="#DejaVuSans-69"/>
     <use x="389.400391" xlink:href="#DejaVuSans-73"/>
     <use x="441.5" xlink:href="#DejaVuSans-73"/>
     <use x="493.599609" xlink:href="#DejaVuSans-69"/>
     <use x="521.382812" xlink:href="#DejaVuSans-6f"/>
     <use x="582.564453" xlink:href="#DejaVuSans-6e"/>
     <use x="645.943359" xlink:href="#DejaVuSans-20"/>
     <use x="677.730469" xlink:href="#DejaVuSans-6f"/>
     <use x="738.912109" xlink:href="#DejaVuSans-66"/>
     <use x="774.117188" xlink:href="#DejaVuSans-20"/>
     <use x="805.904297" xlink:href="#DejaVuSans-64"/>
     <use x="869.380859" xlink:href="#DejaVuSans-69"/>
     <use x="897.164062" xlink:href="#DejaVuSans-66"/>
     <use x="932.369141" xlink:href="#DejaVuSans-66"/>
     <use x="967.574219" xlink:href="#DejaVuSans-65"/>
     <use x="1029.097656" xlink:href="#DejaVuSans-72"/>
     <use x="1067.960938" xlink:href="#DejaVuSans-65"/>
     <use x="1129.484375" xlink:href="#DejaVuSans-6e"/>
     <use x="1192.863281" xlink:href="#DejaVuSans-74"/>
     <use x="1232.072266" xlink:href="#DejaVuSans-20"/>
     <use x="1263.859375" xlink:href="#DejaVuSans-72"/>
     <use x="1304.972656" xlink:href="#DejaVuSans-61"/>
     <use x="1366.251953" xlink:href="#DejaVuSans-64"/>
     <use x="1429.728516" xlink:href="#DejaVuSans-69"/>
     <use x="1457.511719" xlink:href="#DejaVuSans-75"/>
     <use x="1520.890625" xlink:href="#DejaVuSans-73"/>
    </g>
   </g>
   <g id="legend_1">
    <g id="patch_7">
     <path d="M 213.7975 249.418625 
L 258.5225 249.418625 
Q 260.5225 249.418625 260.5225 247.418625 
L 260.5225 101.637375 
Q 260.5225 99.637375 258.5225 99.637375 
L 213.7975 99.637375 
Q 211.7975 99.637375 211.7975 101.637375 
L 211.7975 247.418625 
Q 211.7975 249.418625 213.7975 249.418625 
z
" style="fill:#ffffff;opacity:0.8;stroke:#cccccc;stroke-linejoin:miter;"/>
    </g>
    <g id="line2d_25">
     <path d="M 215.7975 107.735813 
L 235.7975 107.735813 
" style="fill:none;stroke:#1f77b4;stroke-linecap:square;stroke-width:2;"/>
    </g>
    <g id="line2d_26"/>
    <g id="text_17">
     <!-- 0 -->
     <g transform="translate(243.7975 111.235813)scale(0.1 -0.1)">
      <use xlink:href="#DejaVuSans-30"/>
     </g>
    </g>
    <g id="line2d_27">
     <path d="M 215.7975 122.413938 
L 235.7975 122.413938 
" style="fill:none;stroke:#ff7f0e;stroke-linecap:square;stroke-width:2;"/>
    </g>
    <g id="line2d_28"/>
    <g id="text_18">
     <!-- 10 -->
     <g transform="translate(243.7975 125.913938)scale(0.1 -0.1)">
      <use xlink:href="#DejaVuSans-31"/>
      <use x="63.623047" xlink:href="#DejaVuSans-30"/>
     </g>
    </g>
    <g id="line2d_29">
     <path d="M 215.7975 137.092063 
L 235.7975 137.092063 
" style="fill:none;stroke:#2ca02c;stroke-linecap:square;stroke-width:2;"/>
    </g>
    <g id="line2d_30"/>
    <g id="text_19">
     <!-- 20 -->
     <g transform="translate(243.7975 140.592063)scale(0.1 -0.1)">
      <use xlink:href="#DejaVuSans-32"/>
      <use x="63.623047" xlink:href="#DejaVuSans-30"/>
     </g>
    </g>
    <g id="line2d_31">
     <path d="M 215.7975 151.770188 
L 235.7975 151.770188 
" style="fill:none;stroke:#d62728;stroke-linecap:square;stroke-width:2;"/>
    </g>
    <g id="line2d_32"/>
    <g id="text_20">
     <!-- 30 -->
     <g transform="translate(243.7975 155.270188)scale(0.1 -0.1)">
      <defs>
       <path d="M 2597 2516 
Q 3050 2419 3304 2112 
Q 3559 1806 3559 1356 
Q 3559 666 3084 287 
Q 2609 -91 1734 -91 
Q 1441 -91 1130 -33 
Q 819 25 488 141 
L 488 750 
Q 750 597 1062 519 
Q 1375 441 1716 441 
Q 2309 441 2620 675 
Q 2931 909 2931 1356 
Q 2931 1769 2642 2001 
Q 2353 2234 1838 2234 
L 1294 2234 
L 1294 2753 
L 1863 2753 
Q 2328 2753 2575 2939 
Q 2822 3125 2822 3475 
Q 2822 3834 2567 4026 
Q 2313 4219 1838 4219 
Q 1578 4219 1281 4162 
Q 984 4106 628 3988 
L 628 4550 
Q 988 4650 1302 4700 
Q 1616 4750 1894 4750 
Q 2613 4750 3031 4423 
Q 3450 4097 3450 3541 
Q 3450 3153 3228 2886 
Q 3006 2619 2597 2516 
z
" id="DejaVuSans-33" transform="scale(0.015625)"/>
      </defs>
      <use xlink:href="#DejaVuSans-33"/>
      <use x="63.623047" xlink:href="#DejaVuSans-30"/>
     </g>
    </g>
    <g id="line2d_33">
     <path d="M 215.7975 166.448313 
L 235.7975 166.448313 
" style="fill:none;stroke:#9467bd;stroke-linecap:square;stroke-width:2;"/>
    </g>
    <g id="line2d_34"/>
    <g id="text_21">
     <!-- 40 -->
     <g transform="translate(243.7975 169.948313)scale(0.1 -0.1)">
      <defs>
       <path d="M 2419 4116 
L 825 1625 
L 2419 1625 
L 2419 4116 
z
M 2253 4666 
L 3047 4666 
L 3047 1625 
L 3713 1625 
L 3713 1100 
L 3047 1100 
L 3047 0 
L 2419 0 
L 2419 1100 
L 313 1100 
L 313 1709 
L 2253 4666 
z
" id="DejaVuSans-34" transform="scale(0.015625)"/>
      </defs>
      <use xlink:href="#DejaVuSans-34"/>
      <use x="63.623047" xlink:href="#DejaVuSans-30"/>
     </g>
    </g>
    <g id="line2d_35">
     <path d="M 215.7975 181.126438 
L 235.7975 181.126438 
" style="fill:none;stroke:#8c564b;stroke-linecap:square;stroke-width:2;"/>
    </g>
    <g id="line2d_36"/>
    <g id="text_22">
     <!-- 50 -->
     <g transform="translate(243.7975 184.626438)scale(0.1 -0.1)">
      <use xlink:href="#DejaVuSans-35"/>
      <use x="63.623047" xlink:href="#DejaVuSans-30"/>
     </g>
    </g>
    <g id="line2d_37">
     <path d="M 215.7975 195.804563 
L 235.7975 195.804563 
" style="fill:none;stroke:#e377c2;stroke-linecap:square;stroke-width:2;"/>
    </g>
    <g id="line2d_38"/>
    <g id="text_23">
     <!-- 60 -->
     <g transform="translate(243.7975 199.304563)scale(0.1 -0.1)">
      <defs>
       <path d="M 2113 2584 
Q 1688 2584 1439 2293 
Q 1191 2003 1191 1497 
Q 1191 994 1439 701 
Q 1688 409 2113 409 
Q 2538 409 2786 701 
Q 3034 994 3034 1497 
Q 3034 2003 2786 2293 
Q 2538 2584 2113 2584 
z
M 3366 4563 
L 3366 3988 
Q 3128 4100 2886 4159 
Q 2644 4219 2406 4219 
Q 1781 4219 1451 3797 
Q 1122 3375 1075 2522 
Q 1259 2794 1537 2939 
Q 1816 3084 2150 3084 
Q 2853 3084 3261 2657 
Q 3669 2231 3669 1497 
Q 3669 778 3244 343 
Q 2819 -91 2113 -91 
Q 1303 -91 875 529 
Q 447 1150 447 2328 
Q 447 3434 972 4092 
Q 1497 4750 2381 4750 
Q 2619 4750 2861 4703 
Q 3103 4656 3366 4563 
z
" id="DejaVuSans-36" transform="scale(0.015625)"/>
      </defs>
      <use xlink:href="#DejaVuSans-36"/>
      <use x="63.623047" xlink:href="#DejaVuSans-30"/>
     </g>
    </g>
    <g id="line2d_39">
     <path d="M 215.7975 210.482687 
L 235.7975 210.482687 
" style="fill:none;stroke:#7f7f7f;stroke-linecap:square;stroke-width:2;"/>
    </g>
    <g id="line2d_40"/>
    <g id="text_24">
     <!-- 70 -->
     <g transform="translate(243.7975 213.982687)scale(0.1 -0.1)">
      <use xlink:href="#DejaVuSans-37"/>
      <use x="63.623047" xlink:href="#DejaVuSans-30"/>
     </g>
    </g>
    <g id="line2d_41">
     <path d="M 215.7975 225.160813 
L 235.7975 225.160813 
" style="fill:none;stroke:#bcbd22;stroke-linecap:square;stroke-width:2;"/>
    </g>
    <g id="line2d_42"/>
    <g id="text_25">
     <!-- 80 -->
     <g transform="translate(243.7975 228.660813)scale(0.1 -0.1)">
      <defs>
       <path d="M 2034 2216 
Q 1584 2216 1326 1975 
Q 1069 1734 1069 1313 
Q 1069 891 1326 650 
Q 1584 409 2034 409 
Q 2484 409 2743 651 
Q 3003 894 3003 1313 
Q 3003 1734 2745 1975 
Q 2488 2216 2034 2216 
z
M 1403 2484 
Q 997 2584 770 2862 
Q 544 3141 544 3541 
Q 544 4100 942 4425 
Q 1341 4750 2034 4750 
Q 2731 4750 3128 4425 
Q 3525 4100 3525 3541 
Q 3525 3141 3298 2862 
Q 3072 2584 2669 2484 
Q 3125 2378 3379 2068 
Q 3634 1759 3634 1313 
Q 3634 634 3220 271 
Q 2806 -91 2034 -91 
Q 1263 -91 848 271 
Q 434 634 434 1313 
Q 434 1759 690 2068 
Q 947 2378 1403 2484 
z
M 1172 3481 
Q 1172 3119 1398 2916 
Q 1625 2713 2034 2713 
Q 2441 2713 2670 2916 
Q 2900 3119 2900 3481 
Q 2900 3844 2670 4047 
Q 2441 4250 2034 4250 
Q 1625 4250 1398 4047 
Q 1172 3844 1172 3481 
z
" id="DejaVuSans-38" transform="scale(0.015625)"/>
      </defs>
      <use xlink:href="#DejaVuSans-38"/>
      <use x="63.623047" xlink:href="#DejaVuSans-30"/>
     </g>
    </g>
    <g id="line2d_43">
     <path d="M 215.7975 239.838937 
L 235.7975 239.838937 
" style="fill:none;stroke:#17becf;stroke-linecap:square;stroke-width:2;"/>
    </g>
    <g id="line2d_44"/>
    <g id="text_26">
     <!-- 90 -->
     <g transform="translate(243.7975 243.338937)scale(0.1 -0.1)">
      <defs>
       <path d="M 703 97 
L 703 672 
Q 941 559 1184 500 
Q 1428 441 1663 441 
Q 2288 441 2617 861 
Q 2947 1281 2994 2138 
Q 2813 1869 2534 1725 
Q 2256 1581 1919 1581 
Q 1219 1581 811 2004 
Q 403 2428 403 3163 
Q 403 3881 828 4315 
Q 1253 4750 1959 4750 
Q 2769 4750 3195 4129 
Q 3622 3509 3622 2328 
Q 3622 1225 3098 567 
Q 2575 -91 1691 -91 
Q 1453 -91 1209 -44 
Q 966 3 703 97 
z
M 1959 2075 
Q 2384 2075 2632 2365 
Q 2881 2656 2881 3163 
Q 2881 3666 2632 3958 
Q 2384 4250 1959 4250 
Q 1534 4250 1286 3958 
Q 1038 3666 1038 3163 
Q 1038 2656 1286 2365 
Q 1534 2075 1959 2075 
z
" id="DejaVuSans-39" transform="scale(0.015625)"/>
      </defs>
      <use xlink:href="#DejaVuSans-39"/>
      <use x="63.623047" xlink:href="#DejaVuSans-30"/>
     </g>
    </g>
   </g>
  </g>
 </g>
 <defs>
  <clipPath id="p0af1959cbb">
   <rect height="266.112" width="357.12" x="57.6" y="41.472"/>
  </clipPath>
 </defs>
</svg>
