<?xml version="1.0" encoding="utf-8" standalone="no"?>
<!DOCTYPE svg PUBLIC "-//W3C//DTD SVG 1.1//EN"
  "http://www.w3.org/Graphics/SVG/1.1/DTD/svg11.dtd">
<!-- Created with matplotlib (https://matplotlib.org/) -->
<svg height="345.6pt" version="1.1" viewBox="0 0 460.8 345.6" width="460.8pt" xmlns="http://www.w3.org/2000/svg" xmlns:xlink="http://www.w3.org/1999/xlink">
 <metadata>
  <rdf:RDF xmlns:cc="http://creativecommons.org/ns#" xmlns:dc="http://purl.org/dc/elements/1.1/" xmlns:rdf="http://www.w3.org/1999/02/22-rdf-syntax-ns#">
   <cc:Work>
    <dc:type rdf:resource="http://purl.org/dc/dcmitype/StillImage"/>
    <dc:date>2022-01-07T14:58:05.612670</dc:date>
    <dc:format>image/svg+xml</dc:format>
    <dc:creator>
     <cc:Agent>
      <dc:title>Matplotlib v3.3.3, https://matplotlib.org/</dc:title>
     </cc:Agent>
    </dc:creator>
   </cc:Work>
  </rdf:RDF>
 </metadata>
 <defs>
  <style type="text/css">*{stroke-linecap:butt;stroke-linejoin:round;}</style>
 </defs>
 <g id="figure_1">
  <g id="patch_1">
   <path d="M 0 345.6 
L 460.8 345.6 
L 460.8 0 
L 0 0 
z
" style="fill:#ffffff;"/>
  </g>
  <g id="axes_1">
   <g id="patch_2">
    <path d="M 57.6 307.584 
L 414.72 307.584 
L 414.72 41.472 
L 57.6 41.472 
z
" style="fill:#ffffff;"/>
   </g>
   <g id="matplotlib.axis_1">
    <g id="xtick_1">
     <g id="line2d_1">
      <defs>
       <path d="M 0 0 
L 0 3.5 
" id="m7ba12dbfbf" style="stroke:#000000;stroke-width:0.8;"/>
      </defs>
      <g>
       <use style="stroke:#000000;stroke-width:0.8;" x="73.832727" xlink:href="#m7ba12dbfbf" y="307.584"/>
      </g>
     </g>
     <g id="text_1">
      <!-- 100 -->
      <g transform="translate(64.288977 322.182437)scale(0.1 -0.1)">
       <defs>
        <path d="M 12.40625 8.296875 
L 28.515625 8.296875 
L 28.515625 63.921875 
L 10.984375 60.40625 
L 10.984375 69.390625 
L 28.421875 72.90625 
L 38.28125 72.90625 
L 38.28125 8.296875 
L 54.390625 8.296875 
L 54.390625 0 
L 12.40625 0 
z
" id="DejaVuSans-49"/>
        <path d="M 31.78125 66.40625 
Q 24.171875 66.40625 20.328125 58.90625 
Q 16.5 51.421875 16.5 36.375 
Q 16.5 21.390625 20.328125 13.890625 
Q 24.171875 6.390625 31.78125 6.390625 
Q 39.453125 6.390625 43.28125 13.890625 
Q 47.125 21.390625 47.125 36.375 
Q 47.125 51.421875 43.28125 58.90625 
Q 39.453125 66.40625 31.78125 66.40625 
z
M 31.78125 74.21875 
Q 44.046875 74.21875 50.515625 64.515625 
Q 56.984375 54.828125 56.984375 36.375 
Q 56.984375 17.96875 50.515625 8.265625 
Q 44.046875 -1.421875 31.78125 -1.421875 
Q 19.53125 -1.421875 13.0625 8.265625 
Q 6.59375 17.96875 6.59375 36.375 
Q 6.59375 54.828125 13.0625 64.515625 
Q 19.53125 74.21875 31.78125 74.21875 
z
" id="DejaVuSans-48"/>
       </defs>
       <use xlink:href="#DejaVuSans-49"/>
       <use x="63.623047" xlink:href="#DejaVuSans-48"/>
       <use x="127.246094" xlink:href="#DejaVuSans-48"/>
      </g>
     </g>
    </g>
    <g id="xtick_2">
     <g id="line2d_2">
      <g>
       <use style="stroke:#000000;stroke-width:0.8;" x="120.478495" xlink:href="#m7ba12dbfbf" y="307.584"/>
      </g>
     </g>
     <g id="text_2">
      <!-- 125 -->
      <g transform="translate(110.934745 322.182437)scale(0.1 -0.1)">
       <defs>
        <path d="M 19.1875 8.296875 
L 53.609375 8.296875 
L 53.609375 0 
L 7.328125 0 
L 7.328125 8.296875 
Q 12.9375 14.109375 22.625 23.890625 
Q 32.328125 33.6875 34.8125 36.53125 
Q 39.546875 41.84375 41.421875 45.53125 
Q 43.3125 49.21875 43.3125 52.78125 
Q 43.3125 58.59375 39.234375 62.25 
Q 35.15625 65.921875 28.609375 65.921875 
Q 23.96875 65.921875 18.8125 64.3125 
Q 13.671875 62.703125 7.8125 59.421875 
L 7.8125 69.390625 
Q 13.765625 71.78125 18.9375 73 
Q 24.125 74.21875 28.421875 74.21875 
Q 39.75 74.21875 46.484375 68.546875 
Q 53.21875 62.890625 53.21875 53.421875 
Q 53.21875 48.921875 51.53125 44.890625 
Q 49.859375 40.875 45.40625 35.40625 
Q 44.1875 33.984375 37.640625 27.21875 
Q 31.109375 20.453125 19.1875 8.296875 
z
" id="DejaVuSans-50"/>
        <path d="M 10.796875 72.90625 
L 49.515625 72.90625 
L 49.515625 64.59375 
L 19.828125 64.59375 
L 19.828125 46.734375 
Q 21.96875 47.46875 24.109375 47.828125 
Q 26.265625 48.1875 28.421875 48.1875 
Q 40.625 48.1875 47.75 41.5 
Q 54.890625 34.8125 54.890625 23.390625 
Q 54.890625 11.625 47.5625 5.09375 
Q 40.234375 -1.421875 26.90625 -1.421875 
Q 22.3125 -1.421875 17.546875 -0.640625 
Q 12.796875 0.140625 7.71875 1.703125 
L 7.71875 11.625 
Q 12.109375 9.234375 16.796875 8.0625 
Q 21.484375 6.890625 26.703125 6.890625 
Q 35.15625 6.890625 40.078125 11.328125 
Q 45.015625 15.765625 45.015625 23.390625 
Q 45.015625 31 40.078125 35.4375 
Q 35.15625 39.890625 26.703125 39.890625 
Q 22.75 39.890625 18.8125 39.015625 
Q 14.890625 38.140625 10.796875 36.28125 
z
" id="DejaVuSans-53"/>
       </defs>
       <use xlink:href="#DejaVuSans-49"/>
       <use x="63.623047" xlink:href="#DejaVuSans-50"/>
       <use x="127.246094" xlink:href="#DejaVuSans-53"/>
      </g>
     </g>
    </g>
    <g id="xtick_3">
     <g id="line2d_3">
      <g>
       <use style="stroke:#000000;stroke-width:0.8;" x="167.124263" xlink:href="#m7ba12dbfbf" y="307.584"/>
      </g>
     </g>
     <g id="text_3">
      <!-- 150 -->
      <g transform="translate(157.580513 322.182437)scale(0.1 -0.1)">
       <use xlink:href="#DejaVuSans-49"/>
       <use x="63.623047" xlink:href="#DejaVuSans-53"/>
       <use x="127.246094" xlink:href="#DejaVuSans-48"/>
      </g>
     </g>
    </g>
    <g id="xtick_4">
     <g id="line2d_4">
      <g>
       <use style="stroke:#000000;stroke-width:0.8;" x="213.770031" xlink:href="#m7ba12dbfbf" y="307.584"/>
      </g>
     </g>
     <g id="text_4">
      <!-- 175 -->
      <g transform="translate(204.226281 322.182437)scale(0.1 -0.1)">
       <defs>
        <path d="M 8.203125 72.90625 
L 55.078125 72.90625 
L 55.078125 68.703125 
L 28.609375 0 
L 18.3125 0 
L 43.21875 64.59375 
L 8.203125 64.59375 
z
" id="DejaVuSans-55"/>
       </defs>
       <use xlink:href="#DejaVuSans-49"/>
       <use x="63.623047" xlink:href="#DejaVuSans-55"/>
       <use x="127.246094" xlink:href="#DejaVuSans-53"/>
      </g>
     </g>
    </g>
    <g id="xtick_5">
     <g id="line2d_5">
      <g>
       <use style="stroke:#000000;stroke-width:0.8;" x="260.415799" xlink:href="#m7ba12dbfbf" y="307.584"/>
      </g>
     </g>
     <g id="text_5">
      <!-- 200 -->
      <g transform="translate(250.872049 322.182437)scale(0.1 -0.1)">
       <use xlink:href="#DejaVuSans-50"/>
       <use x="63.623047" xlink:href="#DejaVuSans-48"/>
       <use x="127.246094" xlink:href="#DejaVuSans-48"/>
      </g>
     </g>
    </g>
    <g id="xtick_6">
     <g id="line2d_6">
      <g>
       <use style="stroke:#000000;stroke-width:0.8;" x="307.061567" xlink:href="#m7ba12dbfbf" y="307.584"/>
      </g>
     </g>
     <g id="text_6">
      <!-- 225 -->
      <g transform="translate(297.517817 322.182437)scale(0.1 -0.1)">
       <use xlink:href="#DejaVuSans-50"/>
       <use x="63.623047" xlink:href="#DejaVuSans-50"/>
       <use x="127.246094" xlink:href="#DejaVuSans-53"/>
      </g>
     </g>
    </g>
    <g id="xtick_7">
     <g id="line2d_7">
      <g>
       <use style="stroke:#000000;stroke-width:0.8;" x="353.707335" xlink:href="#m7ba12dbfbf" y="307.584"/>
      </g>
     </g>
     <g id="text_7">
      <!-- 250 -->
      <g transform="translate(344.163585 322.182437)scale(0.1 -0.1)">
       <use xlink:href="#DejaVuSans-50"/>
       <use x="63.623047" xlink:href="#DejaVuSans-53"/>
       <use x="127.246094" xlink:href="#DejaVuSans-48"/>
      </g>
     </g>
    </g>
    <g id="xtick_8">
     <g id="line2d_8">
      <g>
       <use style="stroke:#000000;stroke-width:0.8;" x="400.353103" xlink:href="#m7ba12dbfbf" y="307.584"/>
      </g>
     </g>
     <g id="text_8">
      <!-- 275 -->
      <g transform="translate(390.809353 322.182437)scale(0.1 -0.1)">
       <use xlink:href="#DejaVuSans-50"/>
       <use x="63.623047" xlink:href="#DejaVuSans-55"/>
       <use x="127.246094" xlink:href="#DejaVuSans-53"/>
      </g>
     </g>
    </g>
    <g id="text_9">
     <!-- radius(nm) -->
     <g transform="translate(208.763125 335.860562)scale(0.1 -0.1)">
      <defs>
       <path d="M 41.109375 46.296875 
Q 39.59375 47.171875 37.8125 47.578125 
Q 36.03125 48 33.890625 48 
Q 26.265625 48 22.1875 43.046875 
Q 18.109375 38.09375 18.109375 28.8125 
L 18.109375 0 
L 9.078125 0 
L 9.078125 54.6875 
L 18.109375 54.6875 
L 18.109375 46.1875 
Q 20.953125 51.171875 25.484375 53.578125 
Q 30.03125 56 36.53125 56 
Q 37.453125 56 38.578125 55.875 
Q 39.703125 55.765625 41.0625 55.515625 
z
" id="DejaVuSans-114"/>
       <path d="M 34.28125 27.484375 
Q 23.390625 27.484375 19.1875 25 
Q 14.984375 22.515625 14.984375 16.5 
Q 14.984375 11.71875 18.140625 8.90625 
Q 21.296875 6.109375 26.703125 6.109375 
Q 34.1875 6.109375 38.703125 11.40625 
Q 43.21875 16.703125 43.21875 25.484375 
L 43.21875 27.484375 
z
M 52.203125 31.203125 
L 52.203125 0 
L 43.21875 0 
L 43.21875 8.296875 
Q 40.140625 3.328125 35.546875 0.953125 
Q 30.953125 -1.421875 24.3125 -1.421875 
Q 15.921875 -1.421875 10.953125 3.296875 
Q 6 8.015625 6 15.921875 
Q 6 25.140625 12.171875 29.828125 
Q 18.359375 34.515625 30.609375 34.515625 
L 43.21875 34.515625 
L 43.21875 35.40625 
Q 43.21875 41.609375 39.140625 45 
Q 35.0625 48.390625 27.6875 48.390625 
Q 23 48.390625 18.546875 47.265625 
Q 14.109375 46.140625 10.015625 43.890625 
L 10.015625 52.203125 
Q 14.9375 54.109375 19.578125 55.046875 
Q 24.21875 56 28.609375 56 
Q 40.484375 56 46.34375 49.84375 
Q 52.203125 43.703125 52.203125 31.203125 
z
" id="DejaVuSans-97"/>
       <path d="M 45.40625 46.390625 
L 45.40625 75.984375 
L 54.390625 75.984375 
L 54.390625 0 
L 45.40625 0 
L 45.40625 8.203125 
Q 42.578125 3.328125 38.25 0.953125 
Q 33.9375 -1.421875 27.875 -1.421875 
Q 17.96875 -1.421875 11.734375 6.484375 
Q 5.515625 14.40625 5.515625 27.296875 
Q 5.515625 40.1875 11.734375 48.09375 
Q 17.96875 56 27.875 56 
Q 33.9375 56 38.25 53.625 
Q 42.578125 51.265625 45.40625 46.390625 
z
M 14.796875 27.296875 
Q 14.796875 17.390625 18.875 11.75 
Q 22.953125 6.109375 30.078125 6.109375 
Q 37.203125 6.109375 41.296875 11.75 
Q 45.40625 17.390625 45.40625 27.296875 
Q 45.40625 37.203125 41.296875 42.84375 
Q 37.203125 48.484375 30.078125 48.484375 
Q 22.953125 48.484375 18.875 42.84375 
Q 14.796875 37.203125 14.796875 27.296875 
z
" id="DejaVuSans-100"/>
       <path d="M 9.421875 54.6875 
L 18.40625 54.6875 
L 18.40625 0 
L 9.421875 0 
z
M 9.421875 75.984375 
L 18.40625 75.984375 
L 18.40625 64.59375 
L 9.421875 64.59375 
z
" id="DejaVuSans-105"/>
       <path d="M 8.5 21.578125 
L 8.5 54.6875 
L 17.484375 54.6875 
L 17.484375 21.921875 
Q 17.484375 14.15625 20.5 10.265625 
Q 23.53125 6.390625 29.59375 6.390625 
Q 36.859375 6.390625 41.078125 11.03125 
Q 45.3125 15.671875 45.3125 23.6875 
L 45.3125 54.6875 
L 54.296875 54.6875 
L 54.296875 0 
L 45.3125 0 
L 45.3125 8.40625 
Q 42.046875 3.421875 37.71875 1 
Q 33.40625 -1.421875 27.6875 -1.421875 
Q 18.265625 -1.421875 13.375 4.4375 
Q 8.5 10.296875 8.5 21.578125 
z
M 31.109375 56 
z
" id="DejaVuSans-117"/>
       <path d="M 44.28125 53.078125 
L 44.28125 44.578125 
Q 40.484375 46.53125 36.375 47.5 
Q 32.28125 48.484375 27.875 48.484375 
Q 21.1875 48.484375 17.84375 46.4375 
Q 14.5 44.390625 14.5 40.28125 
Q 14.5 37.15625 16.890625 35.375 
Q 19.28125 33.59375 26.515625 31.984375 
L 29.59375 31.296875 
Q 39.15625 29.25 43.1875 25.515625 
Q 47.21875 21.78125 47.21875 15.09375 
Q 47.21875 7.46875 41.1875 3.015625 
Q 35.15625 -1.421875 24.609375 -1.421875 
Q 20.21875 -1.421875 15.453125 -0.5625 
Q 10.6875 0.296875 5.421875 2 
L 5.421875 11.28125 
Q 10.40625 8.6875 15.234375 7.390625 
Q 20.0625 6.109375 24.8125 6.109375 
Q 31.15625 6.109375 34.5625 8.28125 
Q 37.984375 10.453125 37.984375 14.40625 
Q 37.984375 18.0625 35.515625 20.015625 
Q 33.0625 21.96875 24.703125 23.78125 
L 21.578125 24.515625 
Q 13.234375 26.265625 9.515625 29.90625 
Q 5.8125 33.546875 5.8125 39.890625 
Q 5.8125 47.609375 11.28125 51.796875 
Q 16.75 56 26.8125 56 
Q 31.78125 56 36.171875 55.265625 
Q 40.578125 54.546875 44.28125 53.078125 
z
" id="DejaVuSans-115"/>
       <path d="M 31 75.875 
Q 24.46875 64.65625 21.28125 53.65625 
Q 18.109375 42.671875 18.109375 31.390625 
Q 18.109375 20.125 21.3125 9.0625 
Q 24.515625 -2 31 -13.1875 
L 23.1875 -13.1875 
Q 15.875 -1.703125 12.234375 9.375 
Q 8.59375 20.453125 8.59375 31.390625 
Q 8.59375 42.28125 12.203125 53.3125 
Q 15.828125 64.359375 23.1875 75.875 
z
" id="DejaVuSans-40"/>
       <path d="M 54.890625 33.015625 
L 54.890625 0 
L 45.90625 0 
L 45.90625 32.71875 
Q 45.90625 40.484375 42.875 44.328125 
Q 39.84375 48.1875 33.796875 48.1875 
Q 26.515625 48.1875 22.3125 43.546875 
Q 18.109375 38.921875 18.109375 30.90625 
L 18.109375 0 
L 9.078125 0 
L 9.078125 54.6875 
L 18.109375 54.6875 
L 18.109375 46.1875 
Q 21.34375 51.125 25.703125 53.5625 
Q 30.078125 56 35.796875 56 
Q 45.21875 56 50.046875 50.171875 
Q 54.890625 44.34375 54.890625 33.015625 
z
" id="DejaVuSans-110"/>
       <path d="M 52 44.1875 
Q 55.375 50.25 60.0625 53.125 
Q 64.75 56 71.09375 56 
Q 79.640625 56 84.28125 50.015625 
Q 88.921875 44.046875 88.921875 33.015625 
L 88.921875 0 
L 79.890625 0 
L 79.890625 32.71875 
Q 79.890625 40.578125 77.09375 44.375 
Q 74.3125 48.1875 68.609375 48.1875 
Q 61.625 48.1875 57.5625 43.546875 
Q 53.515625 38.921875 53.515625 30.90625 
L 53.515625 0 
L 44.484375 0 
L 44.484375 32.71875 
Q 44.484375 40.625 41.703125 44.40625 
Q 38.921875 48.1875 33.109375 48.1875 
Q 26.21875 48.1875 22.15625 43.53125 
Q 18.109375 38.875 18.109375 30.90625 
L 18.109375 0 
L 9.078125 0 
L 9.078125 54.6875 
L 18.109375 54.6875 
L 18.109375 46.1875 
Q 21.1875 51.21875 25.484375 53.609375 
Q 29.78125 56 35.6875 56 
Q 41.65625 56 45.828125 52.96875 
Q 50 49.953125 52 44.1875 
z
" id="DejaVuSans-109"/>
       <path d="M 8.015625 75.875 
L 15.828125 75.875 
Q 23.140625 64.359375 26.78125 53.3125 
Q 30.421875 42.28125 30.421875 31.390625 
Q 30.421875 20.453125 26.78125 9.375 
Q 23.140625 -1.703125 15.828125 -13.1875 
L 8.015625 -13.1875 
Q 14.5 -2 17.703125 9.0625 
Q 20.90625 20.125 20.90625 31.390625 
Q 20.90625 42.671875 17.703125 53.65625 
Q 14.5 64.65625 8.015625 75.875 
z
" id="DejaVuSans-41"/>
      </defs>
      <use xlink:href="#DejaVuSans-114"/>
      <use x="41.113281" xlink:href="#DejaVuSans-97"/>
      <use x="102.392578" xlink:href="#DejaVuSans-100"/>
      <use x="165.869141" xlink:href="#DejaVuSans-105"/>
      <use x="193.652344" xlink:href="#DejaVuSans-117"/>
      <use x="257.03125" xlink:href="#DejaVuSans-115"/>
      <use x="309.130859" xlink:href="#DejaVuSans-40"/>
      <use x="348.144531" xlink:href="#DejaVuSans-110"/>
      <use x="411.523438" xlink:href="#DejaVuSans-109"/>
      <use x="508.935547" xlink:href="#DejaVuSans-41"/>
     </g>
    </g>
   </g>
   <g id="matplotlib.axis_2">
    <g id="ytick_1">
     <g id="line2d_9">
      <defs>
       <path d="M 0 0 
L -3.5 0 
" id="mebbf9114c4" style="stroke:#000000;stroke-width:0.8;"/>
      </defs>
      <g>
       <use style="stroke:#000000;stroke-width:0.8;" x="57.6" xlink:href="#mebbf9114c4" y="287.038317"/>
      </g>
     </g>
     <g id="text_10">
      <!-- 0.0 -->
      <g transform="translate(34.696875 290.837536)scale(0.1 -0.1)">
       <defs>
        <path d="M 10.6875 12.40625 
L 21 12.40625 
L 21 0 
L 10.6875 0 
z
" id="DejaVuSans-46"/>
       </defs>
       <use xlink:href="#DejaVuSans-48"/>
       <use x="63.623047" xlink:href="#DejaVuSans-46"/>
       <use x="95.410156" xlink:href="#DejaVuSans-48"/>
      </g>
     </g>
    </g>
    <g id="ytick_2">
     <g id="line2d_10">
      <g>
       <use style="stroke:#000000;stroke-width:0.8;" x="57.6" xlink:href="#mebbf9114c4" y="240.363268"/>
      </g>
     </g>
     <g id="text_11">
      <!-- 0.5 -->
      <g transform="translate(34.696875 244.162487)scale(0.1 -0.1)">
       <use xlink:href="#DejaVuSans-48"/>
       <use x="63.623047" xlink:href="#DejaVuSans-46"/>
       <use x="95.410156" xlink:href="#DejaVuSans-53"/>
      </g>
     </g>
    </g>
    <g id="ytick_3">
     <g id="line2d_11">
      <g>
       <use style="stroke:#000000;stroke-width:0.8;" x="57.6" xlink:href="#mebbf9114c4" y="193.688219"/>
      </g>
     </g>
     <g id="text_12">
      <!-- 1.0 -->
      <g transform="translate(34.696875 197.487438)scale(0.1 -0.1)">
       <use xlink:href="#DejaVuSans-49"/>
       <use x="63.623047" xlink:href="#DejaVuSans-46"/>
       <use x="95.410156" xlink:href="#DejaVuSans-48"/>
      </g>
     </g>
    </g>
    <g id="ytick_4">
     <g id="line2d_12">
      <g>
       <use style="stroke:#000000;stroke-width:0.8;" x="57.6" xlink:href="#mebbf9114c4" y="147.01317"/>
      </g>
     </g>
     <g id="text_13">
      <!-- 1.5 -->
      <g transform="translate(34.696875 150.812389)scale(0.1 -0.1)">
       <use xlink:href="#DejaVuSans-49"/>
       <use x="63.623047" xlink:href="#DejaVuSans-46"/>
       <use x="95.410156" xlink:href="#DejaVuSans-53"/>
      </g>
     </g>
    </g>
    <g id="ytick_5">
     <g id="line2d_13">
      <g>
       <use style="stroke:#000000;stroke-width:0.8;" x="57.6" xlink:href="#mebbf9114c4" y="100.338122"/>
      </g>
     </g>
     <g id="text_14">
      <!-- 2.0 -->
      <g transform="translate(34.696875 104.13734)scale(0.1 -0.1)">
       <use xlink:href="#DejaVuSans-50"/>
       <use x="63.623047" xlink:href="#DejaVuSans-46"/>
       <use x="95.410156" xlink:href="#DejaVuSans-48"/>
      </g>
     </g>
    </g>
    <g id="ytick_6">
     <g id="line2d_14">
      <g>
       <use style="stroke:#000000;stroke-width:0.8;" x="57.6" xlink:href="#mebbf9114c4" y="53.663073"/>
      </g>
     </g>
     <g id="text_15">
      <!-- 2.5 -->
      <g transform="translate(34.696875 57.462291)scale(0.1 -0.1)">
       <use xlink:href="#DejaVuSans-50"/>
       <use x="63.623047" xlink:href="#DejaVuSans-46"/>
       <use x="95.410156" xlink:href="#DejaVuSans-53"/>
      </g>
     </g>
    </g>
   </g>
   <g id="line2d_15">
    <path clip-path="url(#p8e98128623)" d="M 73.832727 287.038317 
L 86.893542 285.956999 
L 98.088527 284.815866 
L 109.283511 283.445365 
L 120.478495 281.819666 
L 129.807649 280.244523 
L 139.136803 278.430613 
L 146.600125 276.767973 
L 154.063448 274.870027 
L 159.66094 273.257848 
L 165.258433 271.451724 
L 170.855925 269.418878 
L 176.453417 267.124787 
L 182.050909 264.53648 
L 187.648401 261.628012 
L 193.245893 258.388288 
L 198.843386 254.830284 
L 204.440878 250.998998 
L 211.904201 245.607207 
L 224.965016 236.136936 
L 230.562508 232.342171 
L 236.16 228.806667 
L 241.757492 225.553401 
L 247.354984 222.575081 
L 252.952476 219.841124 
L 260.415799 216.483669 
L 269.744953 212.396155 
L 273.476614 210.527069 
L 275.342445 209.412243 
L 277.208276 208.04303 
L 279.074107 206.167027 
L 280.939937 203.125562 
L 282.805768 172.678041 
L 284.671599 160.054767 
L 286.537429 127.388505 
L 288.40326 122.712547 
L 290.269091 120.269569 
L 292.134922 118.706507 
L 294.000752 117.562132 
L 295.866583 116.648374 
L 299.598245 115.196909 
L 303.329906 114.019547 
L 308.927398 112.522101 
L 316.390721 110.80215 
L 325.719875 108.902572 
L 338.78069 106.512266 
L 355.573166 103.695138 
L 379.828966 99.685925 
L 385.426458 98.577212 
L 389.158119 97.637688 
L 391.02395 97.021399 
L 392.889781 96.189173 
L 394.755611 94.867344 
L 396.621442 92.035182 
L 398.487273 94.858495 
L 398.487273 94.858495 
" style="fill:none;stroke:#1f77b4;stroke-linecap:square;stroke-width:2;"/>
   </g>
   <g id="line2d_16">
    <path clip-path="url(#p8e98128623)" d="M 73.832727 287.038317 
L 86.893542 285.924053 
L 98.088527 284.766721 
L 109.283511 283.392086 
L 120.478495 281.773648 
L 129.807649 280.211368 
L 139.136803 278.413057 
L 146.600125 276.760743 
L 154.063448 274.865098 
L 159.66094 273.243703 
L 165.258433 271.412114 
L 170.855925 269.328435 
L 176.453417 266.945427 
L 180.185078 265.165749 
L 183.91674 263.21627 
L 187.648401 261.083996 
L 191.380063 258.758875 
L 195.111724 256.235538 
L 198.843386 253.51528 
L 204.440878 249.090387 
L 210.03837 244.326952 
L 228.696677 228.012357 
L 234.294169 223.597059 
L 239.891661 219.516552 
L 247.354984 214.467954 
L 254.818307 209.481334 
L 258.549969 206.759083 
L 260.415799 205.259349 
L 262.28163 203.615579 
L 264.147461 201.773051 
L 266.013292 199.660844 
L 267.879122 171.993926 
L 269.744953 169.344072 
L 271.610784 166.214017 
L 277.208276 155.506777 
L 279.074107 129.365583 
L 280.939937 126.54095 
L 282.805768 124.19486 
L 284.671599 122.243308 
L 286.537429 120.600982 
L 288.40326 119.197138 
L 290.269091 117.977431 
L 294.000752 115.938373 
L 297.732414 114.267742 
L 301.464075 112.842378 
L 307.061567 111.010531 
L 312.65906 109.423987 
L 320.122382 107.554242 
L 329.451536 105.464963 
L 342.512351 102.792721 
L 366.76815 97.920872 
L 374.231473 96.190724 
L 379.828966 94.626669 
L 383.560627 93.289102 
L 385.426458 92.429541 
L 387.292288 91.296435 
L 389.158119 89.460664 
L 391.02395 83.304986 
L 392.889781 95.136674 
L 394.755611 89.347808 
L 396.621442 101.292766 
L 398.487273 72.238412 
L 398.487273 72.238412 
" style="fill:none;stroke:#ff7f0e;stroke-linecap:square;stroke-width:2;"/>
   </g>
   <g id="line2d_17">
    <path clip-path="url(#p8e98128623)" d="M 73.832727 287.038317 
L 88.759373 285.611467 
L 101.820188 284.138195 
L 113.015172 282.67799 
L 124.210157 281.00586 
L 133.53931 279.413488 
L 142.868464 277.579216 
L 150.331787 275.870225 
L 155.929279 274.394071 
L 161.526771 272.692975 
L 167.124263 270.688317 
L 170.855925 269.126362 
L 174.587586 267.325211 
L 178.319248 265.20981 
L 182.050909 262.667996 
L 183.91674 261.186339 
L 185.782571 259.526637 
L 187.648401 257.652393 
L 189.514232 255.520236 
L 191.380063 253.082648 
L 193.245893 250.296731 
L 195.111724 247.142956 
L 198.843386 239.936485 
L 202.575047 232.5201 
L 204.440878 229.13395 
L 206.306708 183.381107 
L 208.172539 181.659498 
L 210.03837 180.197221 
L 211.904201 178.942356 
L 215.635862 176.873796 
L 219.367524 175.1745 
L 224.965016 172.975263 
L 245.489154 165.414913 
L 251.086646 162.977385 
L 254.818307 161.161893 
L 258.549969 159.174461 
L 264.147461 155.904822 
L 267.879122 153.623949 
L 269.744953 127.594104 
L 275.342445 122.897837 
L 279.074107 119.994542 
L 282.805768 117.346597 
L 286.537429 114.970631 
L 290.269091 112.85371 
L 294.000752 110.967502 
L 297.732414 109.278786 
L 303.329906 107.04648 
L 308.927398 105.093897 
L 316.390721 102.803159 
L 323.854044 100.758102 
L 335.049028 97.965737 
L 366.76815 90.269259 
L 374.231473 88.121943 
L 379.828966 86.248212 
L 383.560627 84.718441 
L 385.426458 82.800422 
L 387.292288 83.472645 
L 389.158119 82.301778 
L 391.02395 80.771235 
L 392.889781 109.408983 
L 394.755611 80.844802 
L 396.621442 79.11436 
L 398.487273 77.602164 
L 398.487273 77.602164 
" style="fill:none;stroke:#2ca02c;stroke-linecap:square;stroke-width:2;"/>
   </g>
   <g id="line2d_18">
    <path clip-path="url(#p8e98128623)" d="M 73.832727 287.038317 
L 92.491034 284.836291 
L 109.283511 282.628172 
L 124.210157 280.440934 
L 137.270972 278.293406 
L 146.600125 276.551849 
L 154.063448 274.951263 
L 159.66094 273.537212 
L 163.392602 272.387048 
L 165.258433 271.674549 
L 167.124263 270.743407 
L 168.990094 269.159428 
L 170.855925 292.651643 
L 172.721755 260.527607 
L 174.587586 272.056484 
L 176.453417 270.654507 
L 180.185078 268.747897 
L 187.648401 265.219705 
L 191.380063 263.261517 
L 195.111724 261.10767 
L 198.843386 258.742966 
L 202.575047 256.177533 
L 208.172539 252.045564 
L 213.770031 247.782885 
L 215.635862 258.986875 
L 223.099185 256.778783 
L 249.220815 248.698472 
L 256.684138 246.025813 
L 266.013292 242.530747 
L 267.879122 210.941532 
L 273.476614 206.847286 
L 279.074107 203.058933 
L 282.805768 200.756637 
L 286.537429 198.640542 
L 292.134922 195.791181 
L 297.732414 193.273354 
L 303.329906 191.013931 
L 310.793229 188.286118 
L 320.122382 185.142157 
L 336.914859 179.529338 
L 342.512351 177.465724 
L 348.109843 175.176025 
L 351.841505 173.462372 
L 355.573166 171.537259 
L 359.304828 169.325616 
L 361.170658 168.081355 
L 363.036489 130.80529 
L 364.90232 129.516783 
L 366.76815 128.075435 
L 368.633981 126.459108 
L 370.499812 124.645124 
L 372.365643 122.6126 
L 374.231473 120.345923 
L 376.097304 117.838911 
L 377.963135 115.098171 
L 381.694796 108.991447 
L 383.560627 105.680824 
L 385.426458 89.030942 
L 389.158119 81.294364 
L 394.755611 69.469628 
L 396.621442 65.874779 
L 398.487273 62.611032 
L 398.487273 62.611032 
" style="fill:none;stroke:#d62728;stroke-linecap:square;stroke-width:2;"/>
   </g>
   <g id="line2d_19">
    <path clip-path="url(#p8e98128623)" d="M 73.832727 287.038317 
L 94.356865 284.08506 
L 111.149342 281.441676 
L 139.136803 276.856258 
L 141.002633 276.706471 
L 142.868464 276.670203 
L 144.734295 276.808124 
L 146.600125 277.183641 
L 150.331787 278.408157 
L 152.197618 278.613303 
L 154.063448 278.16174 
L 155.929279 277.229383 
L 159.66094 275.054507 
L 163.392602 273.156775 
L 168.990094 270.734046 
L 176.453417 267.594548 
L 180.185078 265.870324 
L 183.91674 263.953946 
L 187.648401 261.782135 
L 191.380063 259.300603 
L 195.111724 256.488476 
L 200.709216 251.818493 
L 202.575047 258.026971 
L 210.03837 253.183852 
L 213.770031 251.088179 
L 217.501693 249.312127 
L 221.233354 247.832415 
L 224.965016 246.593063 
L 230.562508 245.048153 
L 239.891661 242.85923 
L 247.354984 241.078058 
L 252.952476 239.568761 
L 258.549969 237.849359 
L 264.147461 235.911868 
L 271.610784 233.060062 
L 292.134922 224.999263 
L 301.464075 221.694983 
L 312.65906 218.029111 
L 316.390721 216.855282 
L 318.256552 177.20234 
L 323.854044 176.360665 
L 331.317367 175.504325 
L 338.78069 174.903452 
L 361.170658 173.407678 
L 366.76815 172.710911 
L 370.499812 172.044321 
L 372.365643 171.558562 
L 374.231473 167.834657 
L 376.097304 171.222686 
L 381.694796 168.993351 
L 383.560627 167.997273 
L 385.426458 166.73454 
L 387.292288 165.084381 
L 389.158119 162.90266 
L 391.02395 160.124591 
L 392.889781 157.047282 
L 394.755611 154.555266 
L 396.621442 153.675001 
L 398.487273 155.369065 
L 398.487273 155.369065 
" style="fill:none;stroke:#9467bd;stroke-linecap:square;stroke-width:2;"/>
   </g>
   <g id="line2d_20">
    <path clip-path="url(#p8e98128623)" d="M 73.832727 287.038317 
L 99.954357 285.082937 
L 111.149342 284.024767 
L 118.612665 283.11833 
L 124.210157 282.225297 
L 127.941818 281.444607 
L 131.67348 280.403516 
L 133.53931 279.729393 
L 135.405141 278.903521 
L 137.270972 277.869138 
L 139.136803 276.547982 
L 141.002633 274.841877 
L 142.868464 272.659454 
L 144.734295 248.435767 
L 146.600125 246.358572 
L 150.331787 241.593461 
L 152.197618 239.681625 
L 154.063448 238.196857 
L 155.929279 237.055107 
L 157.79511 236.159535 
L 161.526771 234.815869 
L 167.124263 233.288001 
L 172.721755 231.807014 
L 176.453417 230.62898 
L 180.185078 229.101226 
L 182.050909 228.126217 
L 183.91674 226.955446 
L 185.782571 225.55009 
L 187.648401 223.898883 
L 191.380063 220.202828 
L 193.245893 218.590164 
L 195.111724 194.239496 
L 196.977555 192.358924 
L 198.843386 190.719911 
L 200.709216 189.328711 
L 202.575047 188.152382 
L 204.440878 187.148882 
L 208.172539 185.514056 
L 211.904201 184.201848 
L 217.501693 182.569107 
L 224.965016 180.705847 
L 238.025831 177.759328 
L 249.220815 175.163105 
L 254.818307 173.655291 
L 260.415799 171.862947 
L 264.147461 170.466989 
L 269.744953 168.091896 
L 280.939937 163.114511 
L 286.537429 160.962989 
L 292.134922 159.12673 
L 297.732414 157.547938 
L 305.195737 155.714079 
L 314.52489 153.666777 
L 357.438997 144.581108 
L 364.90232 142.668319 
L 370.499812 140.993251 
L 372.365643 140.395732 
L 374.231473 120.146459 
L 376.097304 119.429963 
L 379.828966 118.185412 
L 381.694796 117.335643 
L 383.560627 116.18685 
L 385.426458 114.566979 
L 387.292288 112.252603 
L 389.158119 109.124503 
L 391.02395 105.613526 
L 392.889781 102.829589 
L 394.755611 98.739696 
L 396.621442 95.725914 
L 398.487273 53.568 
L 398.487273 53.568 
" style="fill:none;stroke:#8c564b;stroke-linecap:square;stroke-width:2;"/>
   </g>
   <g id="line2d_21">
    <path clip-path="url(#p8e98128623)" d="M 73.832727 287.038317 
L 88.759373 285.111526 
L 99.954357 283.445813 
L 107.41768 282.158664 
L 114.881003 280.642842 
L 120.478495 279.269748 
L 124.210157 278.181582 
L 127.941818 276.88945 
L 131.67348 275.29889 
L 133.53931 274.346689 
L 135.405141 273.25544 
L 137.270972 271.990875 
L 139.136803 270.511733 
L 141.002633 268.772688 
L 142.868464 266.733948 
L 144.734295 264.3823 
L 150.331787 256.356954 
L 152.197618 256.199717 
L 154.063448 253.959988 
L 155.929279 252.062288 
L 157.79511 250.493754 
L 159.66094 249.212078 
L 161.526771 248.16788 
L 163.392602 247.315383 
L 165.258433 246.615736 
L 168.990094 245.552602 
L 172.721755 244.780602 
L 178.319248 243.840243 
L 180.185078 282.818827 
L 189.514232 283.797968 
L 191.380063 283.782913 
L 193.245893 283.616316 
L 195.111724 283.283171 
L 196.977555 282.783393 
L 198.843386 282.130455 
L 202.575047 280.466584 
L 208.172539 277.533281 
L 213.770031 274.642135 
L 219.367524 272.059868 
L 224.965016 269.79035 
L 230.562508 267.752486 
L 239.891661 264.642979 
L 267.879122 255.702545 
L 273.476614 254.131582 
L 279.074107 252.789807 
L 284.671599 251.697776 
L 290.269091 250.815227 
L 301.464075 249.360081 
L 312.65906 247.854863 
L 321.988213 246.35367 
L 329.451536 244.952135 
L 336.914859 243.362074 
L 344.378182 241.572627 
L 351.841505 239.560125 
L 357.438997 237.874397 
L 363.036489 235.990065 
L 366.76815 234.582036 
L 370.499812 232.986216 
L 372.365643 232.026948 
L 374.231473 231.554948 
L 379.828966 227.860781 
L 381.694796 226.38965 
L 383.560627 224.674982 
L 385.426458 222.65024 
L 387.292288 210.810869 
L 389.158119 208.245267 
L 391.02395 207.22132 
L 394.755611 198.47722 
L 396.621442 242.933437 
L 398.487273 240.220508 
L 398.487273 240.220508 
" style="fill:none;stroke:#e377c2;stroke-linecap:square;stroke-width:2;"/>
   </g>
   <g id="line2d_22">
    <path clip-path="url(#p8e98128623)" d="M 73.832727 287.038317 
L 114.881003 282.463466 
L 124.210157 281.145471 
L 129.807649 280.159212 
L 133.53931 279.349797 
L 137.270972 278.335357 
L 141.002633 276.973011 
L 142.868464 276.079521 
L 144.734295 274.967525 
L 146.600125 273.540923 
L 148.465956 271.652976 
L 150.331787 269.090903 
L 152.197618 273.876568 
L 154.063448 270.011083 
L 155.929279 265.598223 
L 157.79511 261.53321 
L 159.66094 258.393077 
L 161.526771 256.17772 
L 163.392602 254.656102 
L 165.258433 253.607958 
L 167.124263 252.876433 
L 168.990094 252.357524 
L 172.721755 251.704398 
L 178.319248 251.164441 
L 180.185078 251.018044 
L 182.050909 286.961802 
L 191.380063 286.810875 
L 195.111724 286.412853 
L 196.977555 286.060895 
L 198.843386 285.592396 
L 202.575047 284.308903 
L 206.306708 282.6486 
L 219.367524 276.280639 
L 224.965016 273.980727 
L 230.562508 271.935679 
L 239.891661 268.81002 
L 269.744953 259.09071 
L 275.342445 257.590388 
L 280.939937 256.359633 
L 286.537429 255.406217 
L 292.134922 254.675739 
L 310.793229 252.501411 
L 316.390721 251.578559 
L 321.988213 250.452512 
L 327.585705 249.119721 
L 333.183197 247.590237 
L 340.64652 245.275478 
L 348.109843 242.689488 
L 355.573166 239.870845 
L 363.036489 236.823428 
L 368.633981 234.340541 
L 372.365643 232.523403 
L 374.231473 231.470275 
L 376.097304 230.70221 
L 379.828966 228.317297 
L 381.694796 226.972826 
L 383.560627 215.034225 
L 385.426458 213.746045 
L 387.292288 212.178919 
L 389.158119 210.247208 
L 391.02395 210.255283 
L 396.621442 196.954665 
L 398.487273 239.873483 
L 398.487273 239.873483 
" style="fill:none;stroke:#7f7f7f;stroke-linecap:square;stroke-width:2;"/>
   </g>
   <g id="line2d_23">
    <path clip-path="url(#p8e98128623)" d="M 73.832727 287.038317 
L 99.954357 284.848458 
L 124.210157 282.792897 
L 133.53931 281.77299 
L 139.136803 280.950565 
L 142.868464 280.212456 
L 146.600125 279.17204 
L 148.465956 278.44833 
L 150.331787 277.489149 
L 152.197618 276.140009 
L 154.063448 274.087457 
L 155.929279 282.792418 
L 157.79511 277.625217 
L 159.66094 268.887194 
L 161.526771 261.144565 
L 163.392602 257.035939 
L 165.258433 254.999804 
L 167.124263 253.92853 
L 168.990094 253.338893 
L 170.855925 253.010929 
L 174.587586 252.745887 
L 178.319248 252.702708 
L 180.185078 287.261487 
L 183.91674 286.984565 
L 193.245893 286.502781 
L 196.977555 286.043262 
L 200.709216 285.267923 
L 204.440878 284.14291 
L 208.172539 282.717036 
L 213.770031 280.265867 
L 221.233354 276.995429 
L 226.830846 274.75358 
L 236.16 271.324807 
L 252.952476 265.214906 
L 262.28163 261.816532 
L 267.879122 259.970699 
L 273.476614 258.406336 
L 277.208276 257.561169 
L 280.939937 256.887545 
L 284.671599 256.382255 
L 290.269091 255.899888 
L 297.732414 255.591114 
L 307.061567 255.234472 
L 308.927398 241.584025 
L 316.390721 239.731838 
L 321.988213 238.16422 
L 327.585705 236.406041 
L 333.183197 234.434111 
L 338.78069 232.245434 
L 340.64652 231.471418 
L 342.512351 246.2849 
L 348.109843 243.591896 
L 355.573166 239.721807 
L 370.499812 231.648299 
L 374.231473 229.510975 
L 376.097304 228.174149 
L 377.963135 215.291889 
L 383.560627 212.255062 
L 385.426458 211.095223 
L 387.292288 209.771036 
L 389.158119 208.251237 
L 391.02395 209.171012 
L 392.889781 205.483746 
L 396.621442 197.117352 
L 398.487273 240.16459 
L 398.487273 240.16459 
" style="fill:none;stroke:#bcbd22;stroke-linecap:square;stroke-width:2;"/>
   </g>
   <g id="line2d_24">
    <path clip-path="url(#p8e98128623)" d="M 73.832727 287.038317 
L 94.356865 285.923915 
L 120.478495 284.756064 
L 139.136803 283.856921 
L 146.600125 283.291853 
L 150.331787 282.852014 
L 154.063448 282.152692 
L 155.929279 294.322802 
L 159.66094 295.06986 
L 161.526771 295.338473 
L 163.392602 295.488 
L 165.258433 295.431679 
L 167.124263 294.95225 
L 168.990094 293.322167 
L 170.855925 286.521443 
L 172.721755 265.617821 
L 174.587586 258.706855 
L 176.453417 256.990792 
L 178.319248 256.397471 
L 180.185078 290.337047 
L 182.050909 290.051348 
L 185.782571 289.858669 
L 191.380063 289.953359 
L 196.977555 290.029004 
L 200.709216 289.890737 
L 204.440878 289.532751 
L 208.172539 288.952051 
L 213.770031 287.764623 
L 230.562508 283.837843 
L 239.891661 282.004045 
L 249.220815 280.176367 
L 254.818307 278.878849 
L 258.549969 277.833546 
L 262.28163 276.571593 
L 266.013292 275.025056 
L 269.744953 273.143365 
L 273.476614 270.939047 
L 280.939937 266.199411 
L 284.671599 264.178476 
L 286.537429 263.345319 
L 288.40326 262.64236 
L 290.269091 262.068412 
L 294.000752 261.275891 
L 297.732414 260.876454 
L 301.464075 260.762243 
L 303.329906 260.780066 
L 305.195737 248.022234 
L 310.793229 247.327254 
L 318.256552 246.677278 
L 329.451536 245.986052 
L 351.841505 244.741398 
L 353.707335 259.879911 
L 361.170658 258.755598 
L 368.633981 257.368983 
L 374.231473 256.091062 
L 376.097304 255.366885 
L 377.963135 243.555733 
L 379.828966 243.028605 
L 383.560627 242.834338 
L 385.426458 242.896836 
L 387.292288 243.104591 
L 389.158119 243.515421 
L 391.02395 246.563418 
L 392.889781 202.716812 
L 394.755611 201.365997 
L 396.621442 201.094596 
L 398.487273 247.759546 
L 398.487273 247.759546 
" style="fill:none;stroke:#17becf;stroke-linecap:square;stroke-width:2;"/>
   </g>
   <g id="patch_3">
    <path d="M 57.6 307.584 
L 57.6 41.472 
" style="fill:none;stroke:#000000;stroke-linecap:square;stroke-linejoin:miter;stroke-width:0.8;"/>
   </g>
   <g id="patch_4">
    <path d="M 414.72 307.584 
L 414.72 41.472 
" style="fill:none;stroke:#000000;stroke-linecap:square;stroke-linejoin:miter;stroke-width:0.8;"/>
   </g>
   <g id="patch_5">
    <path d="M 57.6 307.584 
L 414.72 307.584 
" style="fill:none;stroke:#000000;stroke-linecap:square;stroke-linejoin:miter;stroke-width:0.8;"/>
   </g>
   <g id="patch_6">
    <path d="M 57.6 41.472 
L 414.72 41.472 
" style="fill:none;stroke:#000000;stroke-linecap:square;stroke-linejoin:miter;stroke-width:0.8;"/>
   </g>
   <g id="text_16">
    <!-- Phase shift of different radius -->
    <g transform="translate(147.762187 35.472)scale(0.12 -0.12)">
     <defs>
      <path d="M 19.671875 64.796875 
L 19.671875 37.40625 
L 32.078125 37.40625 
Q 38.96875 37.40625 42.71875 40.96875 
Q 46.484375 44.53125 46.484375 51.125 
Q 46.484375 57.671875 42.71875 61.234375 
Q 38.96875 64.796875 32.078125 64.796875 
z
M 9.8125 72.90625 
L 32.078125 72.90625 
Q 44.34375 72.90625 50.609375 67.359375 
Q 56.890625 61.8125 56.890625 51.125 
Q 56.890625 40.328125 50.609375 34.8125 
Q 44.34375 29.296875 32.078125 29.296875 
L 19.671875 29.296875 
L 19.671875 0 
L 9.8125 0 
z
" id="DejaVuSans-80"/>
      <path d="M 54.890625 33.015625 
L 54.890625 0 
L 45.90625 0 
L 45.90625 32.71875 
Q 45.90625 40.484375 42.875 44.328125 
Q 39.84375 48.1875 33.796875 48.1875 
Q 26.515625 48.1875 22.3125 43.546875 
Q 18.109375 38.921875 18.109375 30.90625 
L 18.109375 0 
L 9.078125 0 
L 9.078125 75.984375 
L 18.109375 75.984375 
L 18.109375 46.1875 
Q 21.34375 51.125 25.703125 53.5625 
Q 30.078125 56 35.796875 56 
Q 45.21875 56 50.046875 50.171875 
Q 54.890625 44.34375 54.890625 33.015625 
z
" id="DejaVuSans-104"/>
      <path d="M 56.203125 29.59375 
L 56.203125 25.203125 
L 14.890625 25.203125 
Q 15.484375 15.921875 20.484375 11.0625 
Q 25.484375 6.203125 34.421875 6.203125 
Q 39.59375 6.203125 44.453125 7.46875 
Q 49.3125 8.734375 54.109375 11.28125 
L 54.109375 2.78125 
Q 49.265625 0.734375 44.1875 -0.34375 
Q 39.109375 -1.421875 33.890625 -1.421875 
Q 20.796875 -1.421875 13.15625 6.1875 
Q 5.515625 13.8125 5.515625 26.8125 
Q 5.515625 40.234375 12.765625 48.109375 
Q 20.015625 56 32.328125 56 
Q 43.359375 56 49.78125 48.890625 
Q 56.203125 41.796875 56.203125 29.59375 
z
M 47.21875 32.234375 
Q 47.125 39.59375 43.09375 43.984375 
Q 39.0625 48.390625 32.421875 48.390625 
Q 24.90625 48.390625 20.390625 44.140625 
Q 15.875 39.890625 15.1875 32.171875 
z
" id="DejaVuSans-101"/>
      <path id="DejaVuSans-32"/>
      <path d="M 37.109375 75.984375 
L 37.109375 68.5 
L 28.515625 68.5 
Q 23.6875 68.5 21.796875 66.546875 
Q 19.921875 64.59375 19.921875 59.515625 
L 19.921875 54.6875 
L 34.71875 54.6875 
L 34.71875 47.703125 
L 19.921875 47.703125 
L 19.921875 0 
L 10.890625 0 
L 10.890625 47.703125 
L 2.296875 47.703125 
L 2.296875 54.6875 
L 10.890625 54.6875 
L 10.890625 58.5 
Q 10.890625 67.625 15.140625 71.796875 
Q 19.390625 75.984375 28.609375 75.984375 
z
" id="DejaVuSans-102"/>
      <path d="M 18.3125 70.21875 
L 18.3125 54.6875 
L 36.8125 54.6875 
L 36.8125 47.703125 
L 18.3125 47.703125 
L 18.3125 18.015625 
Q 18.3125 11.328125 20.140625 9.421875 
Q 21.96875 7.515625 27.59375 7.515625 
L 36.8125 7.515625 
L 36.8125 0 
L 27.59375 0 
Q 17.1875 0 13.234375 3.875 
Q 9.28125 7.765625 9.28125 18.015625 
L 9.28125 47.703125 
L 2.6875 47.703125 
L 2.6875 54.6875 
L 9.28125 54.6875 
L 9.28125 70.21875 
z
" id="DejaVuSans-116"/>
      <path d="M 30.609375 48.390625 
Q 23.390625 48.390625 19.1875 42.75 
Q 14.984375 37.109375 14.984375 27.296875 
Q 14.984375 17.484375 19.15625 11.84375 
Q 23.34375 6.203125 30.609375 6.203125 
Q 37.796875 6.203125 41.984375 11.859375 
Q 46.1875 17.53125 46.1875 27.296875 
Q 46.1875 37.015625 41.984375 42.703125 
Q 37.796875 48.390625 30.609375 48.390625 
z
M 30.609375 56 
Q 42.328125 56 49.015625 48.375 
Q 55.71875 40.765625 55.71875 27.296875 
Q 55.71875 13.875 49.015625 6.21875 
Q 42.328125 -1.421875 30.609375 -1.421875 
Q 18.84375 -1.421875 12.171875 6.21875 
Q 5.515625 13.875 5.515625 27.296875 
Q 5.515625 40.765625 12.171875 48.375 
Q 18.84375 56 30.609375 56 
z
" id="DejaVuSans-111"/>
     </defs>
     <use xlink:href="#DejaVuSans-80"/>
     <use x="60.302734" xlink:href="#DejaVuSans-104"/>
     <use x="123.681641" xlink:href="#DejaVuSans-97"/>
     <use x="184.960938" xlink:href="#DejaVuSans-115"/>
     <use x="237.060547" xlink:href="#DejaVuSans-101"/>
     <use x="298.583984" xlink:href="#DejaVuSans-32"/>
     <use x="330.371094" xlink:href="#DejaVuSans-115"/>
     <use x="382.470703" xlink:href="#DejaVuSans-104"/>
     <use x="445.849609" xlink:href="#DejaVuSans-105"/>
     <use x="473.632812" xlink:href="#DejaVuSans-102"/>
     <use x="507.087891" xlink:href="#DejaVuSans-116"/>
     <use x="546.296875" xlink:href="#DejaVuSans-32"/>
     <use x="578.083984" xlink:href="#DejaVuSans-111"/>
     <use x="639.265625" xlink:href="#DejaVuSans-102"/>
     <use x="674.470703" xlink:href="#DejaVuSans-32"/>
     <use x="706.257812" xlink:href="#DejaVuSans-100"/>
     <use x="769.734375" xlink:href="#DejaVuSans-105"/>
     <use x="797.517578" xlink:href="#DejaVuSans-102"/>
     <use x="832.722656" xlink:href="#DejaVuSans-102"/>
     <use x="867.927734" xlink:href="#DejaVuSans-101"/>
     <use x="929.451172" xlink:href="#DejaVuSans-114"/>
     <use x="968.314453" xlink:href="#DejaVuSans-101"/>
     <use x="1029.837891" xlink:href="#DejaVuSans-110"/>
     <use x="1093.216797" xlink:href="#DejaVuSans-116"/>
     <use x="1132.425781" xlink:href="#DejaVuSans-32"/>
     <use x="1164.212891" xlink:href="#DejaVuSans-114"/>
     <use x="1205.326172" xlink:href="#DejaVuSans-97"/>
     <use x="1266.605469" xlink:href="#DejaVuSans-100"/>
     <use x="1330.082031" xlink:href="#DejaVuSans-105"/>
     <use x="1357.865234" xlink:href="#DejaVuSans-117"/>
     <use x="1421.244141" xlink:href="#DejaVuSans-115"/>
    </g>
   </g>
   <g id="legend_1">
    <g id="patch_7">
     <path d="M 64.6 196.25325 
L 109.325 196.25325 
Q 111.325 196.25325 111.325 194.25325 
L 111.325 48.472 
Q 111.325 46.472 109.325 46.472 
L 64.6 46.472 
Q 62.6 46.472 62.6 48.472 
L 62.6 194.25325 
Q 62.6 196.25325 64.6 196.25325 
z
" style="fill:#ffffff;opacity:0.8;stroke:#cccccc;stroke-linejoin:miter;"/>
    </g>
    <g id="line2d_25">
     <path d="M 66.6 54.570437 
L 86.6 54.570437 
" style="fill:none;stroke:#1f77b4;stroke-linecap:square;stroke-width:2;"/>
    </g>
    <g id="line2d_26"/>
    <g id="text_17">
     <!-- 0 -->
     <g transform="translate(94.6 58.070437)scale(0.1 -0.1)">
      <use xlink:href="#DejaVuSans-48"/>
     </g>
    </g>
    <g id="line2d_27">
     <path d="M 66.6 69.248562 
L 86.6 69.248562 
" style="fill:none;stroke:#ff7f0e;stroke-linecap:square;stroke-width:2;"/>
    </g>
    <g id="line2d_28"/>
    <g id="text_18">
     <!-- 10 -->
     <g transform="translate(94.6 72.748562)scale(0.1 -0.1)">
      <use xlink:href="#DejaVuSans-49"/>
      <use x="63.623047" xlink:href="#DejaVuSans-48"/>
     </g>
    </g>
    <g id="line2d_29">
     <path d="M 66.6 83.926688 
L 86.6 83.926688 
" style="fill:none;stroke:#2ca02c;stroke-linecap:square;stroke-width:2;"/>
    </g>
    <g id="line2d_30"/>
    <g id="text_19">
     <!-- 20 -->
     <g transform="translate(94.6 87.426688)scale(0.1 -0.1)">
      <use xlink:href="#DejaVuSans-50"/>
      <use x="63.623047" xlink:href="#DejaVuSans-48"/>
     </g>
    </g>
    <g id="line2d_31">
     <path d="M 66.6 98.604812 
L 86.6 98.604812 
" style="fill:none;stroke:#d62728;stroke-linecap:square;stroke-width:2;"/>
    </g>
    <g id="line2d_32"/>
    <g id="text_20">
     <!-- 30 -->
     <g transform="translate(94.6 102.104812)scale(0.1 -0.1)">
      <defs>
       <path d="M 40.578125 39.3125 
Q 47.65625 37.796875 51.625 33 
Q 55.609375 28.21875 55.609375 21.1875 
Q 55.609375 10.40625 48.1875 4.484375 
Q 40.765625 -1.421875 27.09375 -1.421875 
Q 22.515625 -1.421875 17.65625 -0.515625 
Q 12.796875 0.390625 7.625 2.203125 
L 7.625 11.71875 
Q 11.71875 9.328125 16.59375 8.109375 
Q 21.484375 6.890625 26.8125 6.890625 
Q 36.078125 6.890625 40.9375 10.546875 
Q 45.796875 14.203125 45.796875 21.1875 
Q 45.796875 27.640625 41.28125 31.265625 
Q 36.765625 34.90625 28.71875 34.90625 
L 20.21875 34.90625 
L 20.21875 43.015625 
L 29.109375 43.015625 
Q 36.375 43.015625 40.234375 45.921875 
Q 44.09375 48.828125 44.09375 54.296875 
Q 44.09375 59.90625 40.109375 62.90625 
Q 36.140625 65.921875 28.71875 65.921875 
Q 24.65625 65.921875 20.015625 65.03125 
Q 15.375 64.15625 9.8125 62.3125 
L 9.8125 71.09375 
Q 15.4375 72.65625 20.34375 73.4375 
Q 25.25 74.21875 29.59375 74.21875 
Q 40.828125 74.21875 47.359375 69.109375 
Q 53.90625 64.015625 53.90625 55.328125 
Q 53.90625 49.265625 50.4375 45.09375 
Q 46.96875 40.921875 40.578125 39.3125 
z
" id="DejaVuSans-51"/>
      </defs>
      <use xlink:href="#DejaVuSans-51"/>
      <use x="63.623047" xlink:href="#DejaVuSans-48"/>
     </g>
    </g>
    <g id="line2d_33">
     <path d="M 66.6 113.282938 
L 86.6 113.282938 
" style="fill:none;stroke:#9467bd;stroke-linecap:square;stroke-width:2;"/>
    </g>
    <g id="line2d_34"/>
    <g id="text_21">
     <!-- 40 -->
     <g transform="translate(94.6 116.782938)scale(0.1 -0.1)">
      <defs>
       <path d="M 37.796875 64.3125 
L 12.890625 25.390625 
L 37.796875 25.390625 
z
M 35.203125 72.90625 
L 47.609375 72.90625 
L 47.609375 25.390625 
L 58.015625 25.390625 
L 58.015625 17.1875 
L 47.609375 17.1875 
L 47.609375 0 
L 37.796875 0 
L 37.796875 17.1875 
L 4.890625 17.1875 
L 4.890625 26.703125 
z
" id="DejaVuSans-52"/>
      </defs>
      <use xlink:href="#DejaVuSans-52"/>
      <use x="63.623047" xlink:href="#DejaVuSans-48"/>
     </g>
    </g>
    <g id="line2d_35">
     <path d="M 66.6 127.961062 
L 86.6 127.961062 
" style="fill:none;stroke:#8c564b;stroke-linecap:square;stroke-width:2;"/>
    </g>
    <g id="line2d_36"/>
    <g id="text_22">
     <!-- 50 -->
     <g transform="translate(94.6 131.461062)scale(0.1 -0.1)">
      <use xlink:href="#DejaVuSans-53"/>
      <use x="63.623047" xlink:href="#DejaVuSans-48"/>
     </g>
    </g>
    <g id="line2d_37">
     <path d="M 66.6 142.639187 
L 86.6 142.639187 
" style="fill:none;stroke:#e377c2;stroke-linecap:square;stroke-width:2;"/>
    </g>
    <g id="line2d_38"/>
    <g id="text_23">
     <!-- 60 -->
     <g transform="translate(94.6 146.139187)scale(0.1 -0.1)">
      <defs>
       <path d="M 33.015625 40.375 
Q 26.375 40.375 22.484375 35.828125 
Q 18.609375 31.296875 18.609375 23.390625 
Q 18.609375 15.53125 22.484375 10.953125 
Q 26.375 6.390625 33.015625 6.390625 
Q 39.65625 6.390625 43.53125 10.953125 
Q 47.40625 15.53125 47.40625 23.390625 
Q 47.40625 31.296875 43.53125 35.828125 
Q 39.65625 40.375 33.015625 40.375 
z
M 52.59375 71.296875 
L 52.59375 62.3125 
Q 48.875 64.0625 45.09375 64.984375 
Q 41.3125 65.921875 37.59375 65.921875 
Q 27.828125 65.921875 22.671875 59.328125 
Q 17.53125 52.734375 16.796875 39.40625 
Q 19.671875 43.65625 24.015625 45.921875 
Q 28.375 48.1875 33.59375 48.1875 
Q 44.578125 48.1875 50.953125 41.515625 
Q 57.328125 34.859375 57.328125 23.390625 
Q 57.328125 12.15625 50.6875 5.359375 
Q 44.046875 -1.421875 33.015625 -1.421875 
Q 20.359375 -1.421875 13.671875 8.265625 
Q 6.984375 17.96875 6.984375 36.375 
Q 6.984375 53.65625 15.1875 63.9375 
Q 23.390625 74.21875 37.203125 74.21875 
Q 40.921875 74.21875 44.703125 73.484375 
Q 48.484375 72.75 52.59375 71.296875 
z
" id="DejaVuSans-54"/>
      </defs>
      <use xlink:href="#DejaVuSans-54"/>
      <use x="63.623047" xlink:href="#DejaVuSans-48"/>
     </g>
    </g>
    <g id="line2d_39">
     <path d="M 66.6 157.317312 
L 86.6 157.317312 
" style="fill:none;stroke:#7f7f7f;stroke-linecap:square;stroke-width:2;"/>
    </g>
    <g id="line2d_40"/>
    <g id="text_24">
     <!-- 70 -->
     <g transform="translate(94.6 160.817312)scale(0.1 -0.1)">
      <use xlink:href="#DejaVuSans-55"/>
      <use x="63.623047" xlink:href="#DejaVuSans-48"/>
     </g>
    </g>
    <g id="line2d_41">
     <path d="M 66.6 171.995437 
L 86.6 171.995437 
" style="fill:none;stroke:#bcbd22;stroke-linecap:square;stroke-width:2;"/>
    </g>
    <g id="line2d_42"/>
    <g id="text_25">
     <!-- 80 -->
     <g transform="translate(94.6 175.495437)scale(0.1 -0.1)">
      <defs>
       <path d="M 31.78125 34.625 
Q 24.75 34.625 20.71875 30.859375 
Q 16.703125 27.09375 16.703125 20.515625 
Q 16.703125 13.921875 20.71875 10.15625 
Q 24.75 6.390625 31.78125 6.390625 
Q 38.8125 6.390625 42.859375 10.171875 
Q 46.921875 13.96875 46.921875 20.515625 
Q 46.921875 27.09375 42.890625 30.859375 
Q 38.875 34.625 31.78125 34.625 
z
M 21.921875 38.8125 
Q 15.578125 40.375 12.03125 44.71875 
Q 8.5 49.078125 8.5 55.328125 
Q 8.5 64.0625 14.71875 69.140625 
Q 20.953125 74.21875 31.78125 74.21875 
Q 42.671875 74.21875 48.875 69.140625 
Q 55.078125 64.0625 55.078125 55.328125 
Q 55.078125 49.078125 51.53125 44.71875 
Q 48 40.375 41.703125 38.8125 
Q 48.828125 37.15625 52.796875 32.3125 
Q 56.78125 27.484375 56.78125 20.515625 
Q 56.78125 9.90625 50.3125 4.234375 
Q 43.84375 -1.421875 31.78125 -1.421875 
Q 19.734375 -1.421875 13.25 4.234375 
Q 6.78125 9.90625 6.78125 20.515625 
Q 6.78125 27.484375 10.78125 32.3125 
Q 14.796875 37.15625 21.921875 38.8125 
z
M 18.3125 54.390625 
Q 18.3125 48.734375 21.84375 45.5625 
Q 25.390625 42.390625 31.78125 42.390625 
Q 38.140625 42.390625 41.71875 45.5625 
Q 45.3125 48.734375 45.3125 54.390625 
Q 45.3125 60.0625 41.71875 63.234375 
Q 38.140625 66.40625 31.78125 66.40625 
Q 25.390625 66.40625 21.84375 63.234375 
Q 18.3125 60.0625 18.3125 54.390625 
z
" id="DejaVuSans-56"/>
      </defs>
      <use xlink:href="#DejaVuSans-56"/>
      <use x="63.623047" xlink:href="#DejaVuSans-48"/>
     </g>
    </g>
    <g id="line2d_43">
     <path d="M 66.6 186.673562 
L 86.6 186.673562 
" style="fill:none;stroke:#17becf;stroke-linecap:square;stroke-width:2;"/>
    </g>
    <g id="line2d_44"/>
    <g id="text_26">
     <!-- 90 -->
     <g transform="translate(94.6 190.173562)scale(0.1 -0.1)">
      <defs>
       <path d="M 10.984375 1.515625 
L 10.984375 10.5 
Q 14.703125 8.734375 18.5 7.8125 
Q 22.3125 6.890625 25.984375 6.890625 
Q 35.75 6.890625 40.890625 13.453125 
Q 46.046875 20.015625 46.78125 33.40625 
Q 43.953125 29.203125 39.59375 26.953125 
Q 35.25 24.703125 29.984375 24.703125 
Q 19.046875 24.703125 12.671875 31.3125 
Q 6.296875 37.9375 6.296875 49.421875 
Q 6.296875 60.640625 12.9375 67.421875 
Q 19.578125 74.21875 30.609375 74.21875 
Q 43.265625 74.21875 49.921875 64.515625 
Q 56.59375 54.828125 56.59375 36.375 
Q 56.59375 19.140625 48.40625 8.859375 
Q 40.234375 -1.421875 26.421875 -1.421875 
Q 22.703125 -1.421875 18.890625 -0.6875 
Q 15.09375 0.046875 10.984375 1.515625 
z
M 30.609375 32.421875 
Q 37.25 32.421875 41.125 36.953125 
Q 45.015625 41.5 45.015625 49.421875 
Q 45.015625 57.28125 41.125 61.84375 
Q 37.25 66.40625 30.609375 66.40625 
Q 23.96875 66.40625 20.09375 61.84375 
Q 16.21875 57.28125 16.21875 49.421875 
Q 16.21875 41.5 20.09375 36.953125 
Q 23.96875 32.421875 30.609375 32.421875 
z
" id="DejaVuSans-57"/>
      </defs>
      <use xlink:href="#DejaVuSans-57"/>
      <use x="63.623047" xlink:href="#DejaVuSans-48"/>
     </g>
    </g>
   </g>
  </g>
 </g>
 <defs>
  <clipPath id="p8e98128623">
   <rect height="266.112" width="357.12" x="57.6" y="41.472"/>
  </clipPath>
 </defs>
</svg>
