<?xml version="1.0" encoding="utf-8" standalone="no"?>
<!DOCTYPE svg PUBLIC "-//W3C//DTD SVG 1.1//EN"
  "http://www.w3.org/Graphics/SVG/1.1/DTD/svg11.dtd">
<!-- Created with matplotlib (https://matplotlib.org/) -->
<svg height="345.6pt" version="1.1" viewBox="0 0 460.8 345.6" width="460.8pt" xmlns="http://www.w3.org/2000/svg" xmlns:xlink="http://www.w3.org/1999/xlink">
 <metadata>
  <rdf:RDF xmlns:cc="http://creativecommons.org/ns#" xmlns:dc="http://purl.org/dc/elements/1.1/" xmlns:rdf="http://www.w3.org/1999/02/22-rdf-syntax-ns#">
   <cc:Work>
    <dc:type rdf:resource="http://purl.org/dc/dcmitype/StillImage"/>
    <dc:date>2022-01-07T13:07:28.279832</dc:date>
    <dc:format>image/svg+xml</dc:format>
    <dc:creator>
     <cc:Agent>
      <dc:title>Matplotlib v3.3.3, https://matplotlib.org/</dc:title>
     </cc:Agent>
    </dc:creator>
   </cc:Work>
  </rdf:RDF>
 </metadata>
 <defs>
  <style type="text/css">*{stroke-linecap:butt;stroke-linejoin:round;}</style>
 </defs>
 <g id="figure_1">
  <g id="patch_1">
   <path d="M 0 345.6 
L 460.8 345.6 
L 460.8 0 
L 0 0 
z
" style="fill:#ffffff;"/>
  </g>
  <g id="axes_1">
   <g id="patch_2">
    <path d="M 57.6 307.584 
L 414.72 307.584 
L 414.72 41.472 
L 57.6 41.472 
z
" style="fill:#ffffff;"/>
   </g>
   <g id="matplotlib.axis_1">
    <g id="xtick_1">
     <g id="line2d_1">
      <defs>
       <path d="M 0 0 
L 0 3.5 
" id="md6c9c373e3" style="stroke:#000000;stroke-width:0.8;"/>
      </defs>
      <g>
       <use style="stroke:#000000;stroke-width:0.8;" x="73.832727" xlink:href="#md6c9c373e3" y="307.584"/>
      </g>
     </g>
     <g id="text_1">
      <!-- 100 -->
      <g transform="translate(64.288977 322.182437)scale(0.1 -0.1)">
       <defs>
        <path d="M 12.40625 8.296875 
L 28.515625 8.296875 
L 28.515625 63.921875 
L 10.984375 60.40625 
L 10.984375 69.390625 
L 28.421875 72.90625 
L 38.28125 72.90625 
L 38.28125 8.296875 
L 54.390625 8.296875 
L 54.390625 0 
L 12.40625 0 
z
" id="DejaVuSans-49"/>
        <path d="M 31.78125 66.40625 
Q 24.171875 66.40625 20.328125 58.90625 
Q 16.5 51.421875 16.5 36.375 
Q 16.5 21.390625 20.328125 13.890625 
Q 24.171875 6.390625 31.78125 6.390625 
Q 39.453125 6.390625 43.28125 13.890625 
Q 47.125 21.390625 47.125 36.375 
Q 47.125 51.421875 43.28125 58.90625 
Q 39.453125 66.40625 31.78125 66.40625 
z
M 31.78125 74.21875 
Q 44.046875 74.21875 50.515625 64.515625 
Q 56.984375 54.828125 56.984375 36.375 
Q 56.984375 17.96875 50.515625 8.265625 
Q 44.046875 -1.421875 31.78125 -1.421875 
Q 19.53125 -1.421875 13.0625 8.265625 
Q 6.59375 17.96875 6.59375 36.375 
Q 6.59375 54.828125 13.0625 64.515625 
Q 19.53125 74.21875 31.78125 74.21875 
z
" id="DejaVuSans-48"/>
       </defs>
       <use xlink:href="#DejaVuSans-49"/>
       <use x="63.623047" xlink:href="#DejaVuSans-48"/>
       <use x="127.246094" xlink:href="#DejaVuSans-48"/>
      </g>
     </g>
    </g>
    <g id="xtick_2">
     <g id="line2d_2">
      <g>
       <use style="stroke:#000000;stroke-width:0.8;" x="120.478495" xlink:href="#md6c9c373e3" y="307.584"/>
      </g>
     </g>
     <g id="text_2">
      <!-- 125 -->
      <g transform="translate(110.934745 322.182437)scale(0.1 -0.1)">
       <defs>
        <path d="M 19.1875 8.296875 
L 53.609375 8.296875 
L 53.609375 0 
L 7.328125 0 
L 7.328125 8.296875 
Q 12.9375 14.109375 22.625 23.890625 
Q 32.328125 33.6875 34.8125 36.53125 
Q 39.546875 41.84375 41.421875 45.53125 
Q 43.3125 49.21875 43.3125 52.78125 
Q 43.3125 58.59375 39.234375 62.25 
Q 35.15625 65.921875 28.609375 65.921875 
Q 23.96875 65.921875 18.8125 64.3125 
Q 13.671875 62.703125 7.8125 59.421875 
L 7.8125 69.390625 
Q 13.765625 71.78125 18.9375 73 
Q 24.125 74.21875 28.421875 74.21875 
Q 39.75 74.21875 46.484375 68.546875 
Q 53.21875 62.890625 53.21875 53.421875 
Q 53.21875 48.921875 51.53125 44.890625 
Q 49.859375 40.875 45.40625 35.40625 
Q 44.1875 33.984375 37.640625 27.21875 
Q 31.109375 20.453125 19.1875 8.296875 
z
" id="DejaVuSans-50"/>
        <path d="M 10.796875 72.90625 
L 49.515625 72.90625 
L 49.515625 64.59375 
L 19.828125 64.59375 
L 19.828125 46.734375 
Q 21.96875 47.46875 24.109375 47.828125 
Q 26.265625 48.1875 28.421875 48.1875 
Q 40.625 48.1875 47.75 41.5 
Q 54.890625 34.8125 54.890625 23.390625 
Q 54.890625 11.625 47.5625 5.09375 
Q 40.234375 -1.421875 26.90625 -1.421875 
Q 22.3125 -1.421875 17.546875 -0.640625 
Q 12.796875 0.140625 7.71875 1.703125 
L 7.71875 11.625 
Q 12.109375 9.234375 16.796875 8.0625 
Q 21.484375 6.890625 26.703125 6.890625 
Q 35.15625 6.890625 40.078125 11.328125 
Q 45.015625 15.765625 45.015625 23.390625 
Q 45.015625 31 40.078125 35.4375 
Q 35.15625 39.890625 26.703125 39.890625 
Q 22.75 39.890625 18.8125 39.015625 
Q 14.890625 38.140625 10.796875 36.28125 
z
" id="DejaVuSans-53"/>
       </defs>
       <use xlink:href="#DejaVuSans-49"/>
       <use x="63.623047" xlink:href="#DejaVuSans-50"/>
       <use x="127.246094" xlink:href="#DejaVuSans-53"/>
      </g>
     </g>
    </g>
    <g id="xtick_3">
     <g id="line2d_3">
      <g>
       <use style="stroke:#000000;stroke-width:0.8;" x="167.124263" xlink:href="#md6c9c373e3" y="307.584"/>
      </g>
     </g>
     <g id="text_3">
      <!-- 150 -->
      <g transform="translate(157.580513 322.182437)scale(0.1 -0.1)">
       <use xlink:href="#DejaVuSans-49"/>
       <use x="63.623047" xlink:href="#DejaVuSans-53"/>
       <use x="127.246094" xlink:href="#DejaVuSans-48"/>
      </g>
     </g>
    </g>
    <g id="xtick_4">
     <g id="line2d_4">
      <g>
       <use style="stroke:#000000;stroke-width:0.8;" x="213.770031" xlink:href="#md6c9c373e3" y="307.584"/>
      </g>
     </g>
     <g id="text_4">
      <!-- 175 -->
      <g transform="translate(204.226281 322.182437)scale(0.1 -0.1)">
       <defs>
        <path d="M 8.203125 72.90625 
L 55.078125 72.90625 
L 55.078125 68.703125 
L 28.609375 0 
L 18.3125 0 
L 43.21875 64.59375 
L 8.203125 64.59375 
z
" id="DejaVuSans-55"/>
       </defs>
       <use xlink:href="#DejaVuSans-49"/>
       <use x="63.623047" xlink:href="#DejaVuSans-55"/>
       <use x="127.246094" xlink:href="#DejaVuSans-53"/>
      </g>
     </g>
    </g>
    <g id="xtick_5">
     <g id="line2d_5">
      <g>
       <use style="stroke:#000000;stroke-width:0.8;" x="260.415799" xlink:href="#md6c9c373e3" y="307.584"/>
      </g>
     </g>
     <g id="text_5">
      <!-- 200 -->
      <g transform="translate(250.872049 322.182437)scale(0.1 -0.1)">
       <use xlink:href="#DejaVuSans-50"/>
       <use x="63.623047" xlink:href="#DejaVuSans-48"/>
       <use x="127.246094" xlink:href="#DejaVuSans-48"/>
      </g>
     </g>
    </g>
    <g id="xtick_6">
     <g id="line2d_6">
      <g>
       <use style="stroke:#000000;stroke-width:0.8;" x="307.061567" xlink:href="#md6c9c373e3" y="307.584"/>
      </g>
     </g>
     <g id="text_6">
      <!-- 225 -->
      <g transform="translate(297.517817 322.182437)scale(0.1 -0.1)">
       <use xlink:href="#DejaVuSans-50"/>
       <use x="63.623047" xlink:href="#DejaVuSans-50"/>
       <use x="127.246094" xlink:href="#DejaVuSans-53"/>
      </g>
     </g>
    </g>
    <g id="xtick_7">
     <g id="line2d_7">
      <g>
       <use style="stroke:#000000;stroke-width:0.8;" x="353.707335" xlink:href="#md6c9c373e3" y="307.584"/>
      </g>
     </g>
     <g id="text_7">
      <!-- 250 -->
      <g transform="translate(344.163585 322.182437)scale(0.1 -0.1)">
       <use xlink:href="#DejaVuSans-50"/>
       <use x="63.623047" xlink:href="#DejaVuSans-53"/>
       <use x="127.246094" xlink:href="#DejaVuSans-48"/>
      </g>
     </g>
    </g>
    <g id="xtick_8">
     <g id="line2d_8">
      <g>
       <use style="stroke:#000000;stroke-width:0.8;" x="400.353103" xlink:href="#md6c9c373e3" y="307.584"/>
      </g>
     </g>
     <g id="text_8">
      <!-- 275 -->
      <g transform="translate(390.809353 322.182437)scale(0.1 -0.1)">
       <use xlink:href="#DejaVuSans-50"/>
       <use x="63.623047" xlink:href="#DejaVuSans-55"/>
       <use x="127.246094" xlink:href="#DejaVuSans-53"/>
      </g>
     </g>
    </g>
    <g id="text_9">
     <!-- radius(nm) -->
     <g transform="translate(208.763125 335.860562)scale(0.1 -0.1)">
      <defs>
       <path d="M 41.109375 46.296875 
Q 39.59375 47.171875 37.8125 47.578125 
Q 36.03125 48 33.890625 48 
Q 26.265625 48 22.1875 43.046875 
Q 18.109375 38.09375 18.109375 28.8125 
L 18.109375 0 
L 9.078125 0 
L 9.078125 54.6875 
L 18.109375 54.6875 
L 18.109375 46.1875 
Q 20.953125 51.171875 25.484375 53.578125 
Q 30.03125 56 36.53125 56 
Q 37.453125 56 38.578125 55.875 
Q 39.703125 55.765625 41.0625 55.515625 
z
" id="DejaVuSans-114"/>
       <path d="M 34.28125 27.484375 
Q 23.390625 27.484375 19.1875 25 
Q 14.984375 22.515625 14.984375 16.5 
Q 14.984375 11.71875 18.140625 8.90625 
Q 21.296875 6.109375 26.703125 6.109375 
Q 34.1875 6.109375 38.703125 11.40625 
Q 43.21875 16.703125 43.21875 25.484375 
L 43.21875 27.484375 
z
M 52.203125 31.203125 
L 52.203125 0 
L 43.21875 0 
L 43.21875 8.296875 
Q 40.140625 3.328125 35.546875 0.953125 
Q 30.953125 -1.421875 24.3125 -1.421875 
Q 15.921875 -1.421875 10.953125 3.296875 
Q 6 8.015625 6 15.921875 
Q 6 25.140625 12.171875 29.828125 
Q 18.359375 34.515625 30.609375 34.515625 
L 43.21875 34.515625 
L 43.21875 35.40625 
Q 43.21875 41.609375 39.140625 45 
Q 35.0625 48.390625 27.6875 48.390625 
Q 23 48.390625 18.546875 47.265625 
Q 14.109375 46.140625 10.015625 43.890625 
L 10.015625 52.203125 
Q 14.9375 54.109375 19.578125 55.046875 
Q 24.21875 56 28.609375 56 
Q 40.484375 56 46.34375 49.84375 
Q 52.203125 43.703125 52.203125 31.203125 
z
" id="DejaVuSans-97"/>
       <path d="M 45.40625 46.390625 
L 45.40625 75.984375 
L 54.390625 75.984375 
L 54.390625 0 
L 45.40625 0 
L 45.40625 8.203125 
Q 42.578125 3.328125 38.25 0.953125 
Q 33.9375 -1.421875 27.875 -1.421875 
Q 17.96875 -1.421875 11.734375 6.484375 
Q 5.515625 14.40625 5.515625 27.296875 
Q 5.515625 40.1875 11.734375 48.09375 
Q 17.96875 56 27.875 56 
Q 33.9375 56 38.25 53.625 
Q 42.578125 51.265625 45.40625 46.390625 
z
M 14.796875 27.296875 
Q 14.796875 17.390625 18.875 11.75 
Q 22.953125 6.109375 30.078125 6.109375 
Q 37.203125 6.109375 41.296875 11.75 
Q 45.40625 17.390625 45.40625 27.296875 
Q 45.40625 37.203125 41.296875 42.84375 
Q 37.203125 48.484375 30.078125 48.484375 
Q 22.953125 48.484375 18.875 42.84375 
Q 14.796875 37.203125 14.796875 27.296875 
z
" id="DejaVuSans-100"/>
       <path d="M 9.421875 54.6875 
L 18.40625 54.6875 
L 18.40625 0 
L 9.421875 0 
z
M 9.421875 75.984375 
L 18.40625 75.984375 
L 18.40625 64.59375 
L 9.421875 64.59375 
z
" id="DejaVuSans-105"/>
       <path d="M 8.5 21.578125 
L 8.5 54.6875 
L 17.484375 54.6875 
L 17.484375 21.921875 
Q 17.484375 14.15625 20.5 10.265625 
Q 23.53125 6.390625 29.59375 6.390625 
Q 36.859375 6.390625 41.078125 11.03125 
Q 45.3125 15.671875 45.3125 23.6875 
L 45.3125 54.6875 
L 54.296875 54.6875 
L 54.296875 0 
L 45.3125 0 
L 45.3125 8.40625 
Q 42.046875 3.421875 37.71875 1 
Q 33.40625 -1.421875 27.6875 -1.421875 
Q 18.265625 -1.421875 13.375 4.4375 
Q 8.5 10.296875 8.5 21.578125 
z
M 31.109375 56 
z
" id="DejaVuSans-117"/>
       <path d="M 44.28125 53.078125 
L 44.28125 44.578125 
Q 40.484375 46.53125 36.375 47.5 
Q 32.28125 48.484375 27.875 48.484375 
Q 21.1875 48.484375 17.84375 46.4375 
Q 14.5 44.390625 14.5 40.28125 
Q 14.5 37.15625 16.890625 35.375 
Q 19.28125 33.59375 26.515625 31.984375 
L 29.59375 31.296875 
Q 39.15625 29.25 43.1875 25.515625 
Q 47.21875 21.78125 47.21875 15.09375 
Q 47.21875 7.46875 41.1875 3.015625 
Q 35.15625 -1.421875 24.609375 -1.421875 
Q 20.21875 -1.421875 15.453125 -0.5625 
Q 10.6875 0.296875 5.421875 2 
L 5.421875 11.28125 
Q 10.40625 8.6875 15.234375 7.390625 
Q 20.0625 6.109375 24.8125 6.109375 
Q 31.15625 6.109375 34.5625 8.28125 
Q 37.984375 10.453125 37.984375 14.40625 
Q 37.984375 18.0625 35.515625 20.015625 
Q 33.0625 21.96875 24.703125 23.78125 
L 21.578125 24.515625 
Q 13.234375 26.265625 9.515625 29.90625 
Q 5.8125 33.546875 5.8125 39.890625 
Q 5.8125 47.609375 11.28125 51.796875 
Q 16.75 56 26.8125 56 
Q 31.78125 56 36.171875 55.265625 
Q 40.578125 54.546875 44.28125 53.078125 
z
" id="DejaVuSans-115"/>
       <path d="M 31 75.875 
Q 24.46875 64.65625 21.28125 53.65625 
Q 18.109375 42.671875 18.109375 31.390625 
Q 18.109375 20.125 21.3125 9.0625 
Q 24.515625 -2 31 -13.1875 
L 23.1875 -13.1875 
Q 15.875 -1.703125 12.234375 9.375 
Q 8.59375 20.453125 8.59375 31.390625 
Q 8.59375 42.28125 12.203125 53.3125 
Q 15.828125 64.359375 23.1875 75.875 
z
" id="DejaVuSans-40"/>
       <path d="M 54.890625 33.015625 
L 54.890625 0 
L 45.90625 0 
L 45.90625 32.71875 
Q 45.90625 40.484375 42.875 44.328125 
Q 39.84375 48.1875 33.796875 48.1875 
Q 26.515625 48.1875 22.3125 43.546875 
Q 18.109375 38.921875 18.109375 30.90625 
L 18.109375 0 
L 9.078125 0 
L 9.078125 54.6875 
L 18.109375 54.6875 
L 18.109375 46.1875 
Q 21.34375 51.125 25.703125 53.5625 
Q 30.078125 56 35.796875 56 
Q 45.21875 56 50.046875 50.171875 
Q 54.890625 44.34375 54.890625 33.015625 
z
" id="DejaVuSans-110"/>
       <path d="M 52 44.1875 
Q 55.375 50.25 60.0625 53.125 
Q 64.75 56 71.09375 56 
Q 79.640625 56 84.28125 50.015625 
Q 88.921875 44.046875 88.921875 33.015625 
L 88.921875 0 
L 79.890625 0 
L 79.890625 32.71875 
Q 79.890625 40.578125 77.09375 44.375 
Q 74.3125 48.1875 68.609375 48.1875 
Q 61.625 48.1875 57.5625 43.546875 
Q 53.515625 38.921875 53.515625 30.90625 
L 53.515625 0 
L 44.484375 0 
L 44.484375 32.71875 
Q 44.484375 40.625 41.703125 44.40625 
Q 38.921875 48.1875 33.109375 48.1875 
Q 26.21875 48.1875 22.15625 43.53125 
Q 18.109375 38.875 18.109375 30.90625 
L 18.109375 0 
L 9.078125 0 
L 9.078125 54.6875 
L 18.109375 54.6875 
L 18.109375 46.1875 
Q 21.1875 51.21875 25.484375 53.609375 
Q 29.78125 56 35.6875 56 
Q 41.65625 56 45.828125 52.96875 
Q 50 49.953125 52 44.1875 
z
" id="DejaVuSans-109"/>
       <path d="M 8.015625 75.875 
L 15.828125 75.875 
Q 23.140625 64.359375 26.78125 53.3125 
Q 30.421875 42.28125 30.421875 31.390625 
Q 30.421875 20.453125 26.78125 9.375 
Q 23.140625 -1.703125 15.828125 -13.1875 
L 8.015625 -13.1875 
Q 14.5 -2 17.703125 9.0625 
Q 20.90625 20.125 20.90625 31.390625 
Q 20.90625 42.671875 17.703125 53.65625 
Q 14.5 64.65625 8.015625 75.875 
z
" id="DejaVuSans-41"/>
      </defs>
      <use xlink:href="#DejaVuSans-114"/>
      <use x="41.113281" xlink:href="#DejaVuSans-97"/>
      <use x="102.392578" xlink:href="#DejaVuSans-100"/>
      <use x="165.869141" xlink:href="#DejaVuSans-105"/>
      <use x="193.652344" xlink:href="#DejaVuSans-117"/>
      <use x="257.03125" xlink:href="#DejaVuSans-115"/>
      <use x="309.130859" xlink:href="#DejaVuSans-40"/>
      <use x="348.144531" xlink:href="#DejaVuSans-110"/>
      <use x="411.523438" xlink:href="#DejaVuSans-109"/>
      <use x="508.935547" xlink:href="#DejaVuSans-41"/>
     </g>
    </g>
   </g>
   <g id="matplotlib.axis_2">
    <g id="ytick_1">
     <g id="line2d_9">
      <defs>
       <path d="M 0 0 
L -3.5 0 
" id="mae8bc1e969" style="stroke:#000000;stroke-width:0.8;"/>
      </defs>
      <g>
       <use style="stroke:#000000;stroke-width:0.8;" x="57.6" xlink:href="#mae8bc1e969" y="289.663912"/>
      </g>
     </g>
     <g id="text_10">
      <!-- −20 -->
      <g transform="translate(29.495313 293.463131)scale(0.1 -0.1)">
       <defs>
        <path d="M 10.59375 35.5 
L 73.1875 35.5 
L 73.1875 27.203125 
L 10.59375 27.203125 
z
" id="DejaVuSans-8722"/>
       </defs>
       <use xlink:href="#DejaVuSans-8722"/>
       <use x="83.789062" xlink:href="#DejaVuSans-50"/>
       <use x="147.412109" xlink:href="#DejaVuSans-48"/>
      </g>
     </g>
    </g>
    <g id="ytick_2">
     <g id="line2d_10">
      <g>
       <use style="stroke:#000000;stroke-width:0.8;" x="57.6" xlink:href="#mae8bc1e969" y="230.639181"/>
      </g>
     </g>
     <g id="text_11">
      <!-- −15 -->
      <g transform="translate(29.495313 234.438399)scale(0.1 -0.1)">
       <use xlink:href="#DejaVuSans-8722"/>
       <use x="83.789062" xlink:href="#DejaVuSans-49"/>
       <use x="147.412109" xlink:href="#DejaVuSans-53"/>
      </g>
     </g>
    </g>
    <g id="ytick_3">
     <g id="line2d_11">
      <g>
       <use style="stroke:#000000;stroke-width:0.8;" x="57.6" xlink:href="#mae8bc1e969" y="171.614449"/>
      </g>
     </g>
     <g id="text_12">
      <!-- −10 -->
      <g transform="translate(29.495313 175.413668)scale(0.1 -0.1)">
       <use xlink:href="#DejaVuSans-8722"/>
       <use x="83.789062" xlink:href="#DejaVuSans-49"/>
       <use x="147.412109" xlink:href="#DejaVuSans-48"/>
      </g>
     </g>
    </g>
    <g id="ytick_4">
     <g id="line2d_12">
      <g>
       <use style="stroke:#000000;stroke-width:0.8;" x="57.6" xlink:href="#mae8bc1e969" y="112.589718"/>
      </g>
     </g>
     <g id="text_13">
      <!-- −5 -->
      <g transform="translate(35.857813 116.388936)scale(0.1 -0.1)">
       <use xlink:href="#DejaVuSans-8722"/>
       <use x="83.789062" xlink:href="#DejaVuSans-53"/>
      </g>
     </g>
    </g>
    <g id="ytick_5">
     <g id="line2d_13">
      <g>
       <use style="stroke:#000000;stroke-width:0.8;" x="57.6" xlink:href="#mae8bc1e969" y="53.564986"/>
      </g>
     </g>
     <g id="text_14">
      <!-- 0 -->
      <g transform="translate(44.2375 57.364205)scale(0.1 -0.1)">
       <use xlink:href="#DejaVuSans-48"/>
      </g>
     </g>
    </g>
   </g>
   <g id="line2d_14">
    <path clip-path="url(#pd35b3558f0)" d="M 73.832727 53.643325 
L 172.721755 53.643359 
L 230.562508 53.876901 
L 266.013292 53.674331 
L 273.476614 53.755392 
L 277.208276 53.95491 
L 279.074107 54.244164 
L 280.939937 55.052144 
L 282.805768 58.51665 
L 284.671599 73.808499 
L 286.537429 56.969701 
L 288.40326 54.855926 
L 290.269091 54.251144 
L 292.134922 54.005358 
L 295.866583 53.815717 
L 305.195737 53.71787 
L 329.451536 53.786118 
L 389.158119 54.028623 
L 392.889781 53.887669 
L 396.621442 53.615969 
L 398.487273 56.527475 
L 398.487273 56.527475 
" style="fill:none;stroke:#1f77b4;stroke-linecap:square;stroke-width:2;"/>
   </g>
   <g id="line2d_15">
    <path clip-path="url(#pd35b3558f0)" d="M 73.832727 53.660794 
L 174.587586 53.634635 
L 230.562508 54.081588 
L 232.428339 54.793644 
L 234.294169 53.624289 
L 243.623323 53.663285 
L 260.415799 53.730755 
L 264.147461 53.877038 
L 266.013292 54.031572 
L 267.879122 54.312754 
L 269.744953 54.878835 
L 271.610784 56.202806 
L 273.476614 60.075288 
L 275.342445 82.470248 
L 277.208276 62.032701 
L 279.074107 56.965505 
L 280.939937 55.256466 
L 282.805768 54.475934 
L 286.537429 53.586398 
L 288.40326 55.496611 
L 290.269091 54.319208 
L 292.134922 54.070906 
L 295.866583 53.878521 
L 305.195737 53.735036 
L 325.719875 53.720839 
L 364.90232 53.741496 
L 372.365643 53.600019 
L 374.231473 55.011585 
L 376.097304 72.995546 
L 377.963135 57.502575 
L 379.828966 55.829571 
L 381.694796 55.273466 
L 383.560627 55.009695 
L 387.292288 54.762497 
L 398.487273 54.458463 
L 398.487273 54.458463 
" style="fill:none;stroke:#ff7f0e;stroke-linecap:square;stroke-width:2;"/>
   </g>
   <g id="line2d_16">
    <path clip-path="url(#pd35b3558f0)" d="M 73.832727 53.745562 
L 187.648401 53.69149 
L 221.233354 54.114369 
L 223.099185 54.295951 
L 224.965016 54.834959 
L 226.830846 58.444243 
L 228.696677 56.725082 
L 230.562508 53.804175 
L 232.428339 53.605158 
L 238.025831 53.605644 
L 247.354984 53.82341 
L 251.086646 54.065014 
L 254.818307 54.559222 
L 256.684138 54.997025 
L 258.549969 55.670891 
L 260.415799 56.744428 
L 262.28163 58.52463 
L 264.147461 61.640883 
L 266.013292 67.771927 
L 267.879122 92.546277 
L 269.744953 70.262116 
L 271.610784 63.47427 
L 273.476614 60.213426 
L 275.342445 58.327272 
L 277.208276 57.136066 
L 279.074107 56.338045 
L 280.939937 55.778683 
L 284.671599 55.068545 
L 290.269091 54.439057 
L 301.464075 53.990694 
L 314.52489 53.773408 
L 340.64652 53.622615 
L 353.707335 53.665778 
L 355.573166 53.801016 
L 357.438997 54.140067 
L 359.304828 55.028092 
L 361.170658 57.520151 
L 363.036489 65.111814 
L 364.90232 78.529206 
L 366.76815 63.464822 
L 368.633981 59.689285 
L 370.499812 58.018868 
L 372.365643 57.124901 
L 374.231473 56.590024 
L 377.963135 56.013145 
L 381.694796 55.735285 
L 387.292288 55.553416 
L 394.755611 55.517291 
L 398.487273 55.570598 
L 398.487273 55.570598 
" style="fill:none;stroke:#2ca02c;stroke-linecap:square;stroke-width:2;"/>
   </g>
   <g id="line2d_17">
    <path clip-path="url(#pd35b3558f0)" d="M 73.832727 53.992309 
L 137.270972 53.860341 
L 180.185078 53.775428 
L 210.03837 54.041263 
L 211.904201 54.256178 
L 213.770031 54.908448 
L 217.501693 62.121492 
L 219.367524 54.624463 
L 221.233354 53.866734 
L 223.099185 53.708604 
L 226.830846 53.701967 
L 232.428339 53.903807 
L 238.025831 54.336824 
L 241.757492 54.873549 
L 243.623323 55.27516 
L 245.489154 55.811667 
L 247.354984 56.535711 
L 249.220815 57.522216 
L 251.086646 58.8798 
L 252.952476 60.773409 
L 254.818307 63.481255 
L 256.684138 67.581062 
L 258.549969 74.866499 
L 260.415799 116.769288 
L 262.28163 75.174589 
L 264.147461 68.660418 
L 266.013292 65.114695 
L 267.879122 62.808783 
L 269.744953 61.182244 
L 271.610784 59.977889 
L 273.476614 59.055655 
L 275.342445 58.331308 
L 279.074107 57.278687 
L 282.805768 56.570136 
L 286.537429 56.117785 
L 288.40326 56.066694 
L 290.269091 64.350027 
L 292.134922 55.032326 
L 295.866583 54.976327 
L 308.927398 54.404848 
L 320.122382 54.123408 
L 329.451536 54.103451 
L 333.183197 54.250502 
L 336.914859 54.678001 
L 338.78069 55.128646 
L 340.64652 55.902165 
L 342.512351 57.261665 
L 344.378182 59.711922 
L 346.244013 64.326871 
L 348.109843 75.021011 
L 349.975674 78.013372 
L 351.841505 67.024138 
L 353.707335 62.902736 
L 355.573166 60.697392 
L 357.438997 59.359543 
L 359.304828 58.487569 
L 361.170658 57.891191 
L 363.036489 57.469213 
L 366.76815 56.938555 
L 370.499812 56.648163 
L 376.097304 56.446631 
L 385.426458 56.411365 
L 398.487273 56.6233 
L 398.487273 56.6233 
" style="fill:none;stroke:#d62728;stroke-linecap:square;stroke-width:2;"/>
   </g>
   <g id="line2d_18">
    <path clip-path="url(#pd35b3558f0)" d="M 73.832727 54.254408 
L 99.954357 54.587798 
L 133.53931 55.267716 
L 155.929279 55.898042 
L 172.721755 56.5995 
L 182.050909 56.958859 
L 187.648401 56.974118 
L 193.245893 56.677542 
L 195.111724 56.574759 
L 196.977555 56.623853 
L 198.843386 57.003657 
L 200.709216 57.762772 
L 202.575047 58.660918 
L 204.440878 59.400315 
L 206.306708 59.881418 
L 208.172539 60.151617 
L 211.904201 60.338231 
L 219.367524 60.263893 
L 226.830846 60.266073 
L 230.562508 60.456347 
L 234.294169 60.890279 
L 236.16 61.240587 
L 238.025831 61.710009 
L 239.891661 62.327439 
L 241.757492 63.127813 
L 243.623323 64.153343 
L 245.489154 65.45551 
L 247.354984 67.098338 
L 249.220815 69.162043 
L 251.086646 71.736172 
L 254.818307 77.895712 
L 256.684138 78.821432 
L 258.549969 76.80919 
L 260.415799 74.10426 
L 262.28163 71.775882 
L 264.147461 69.911576 
L 266.013292 68.42007 
L 267.879122 67.21088 
L 269.744953 66.216001 
L 271.610784 65.386522 
L 275.342445 64.092733 
L 279.074107 63.149011 
L 282.805768 62.467379 
L 286.537429 62.06486 
L 288.40326 62.117555 
L 290.269091 64.329195 
L 292.134922 59.97767 
L 294.000752 60.459867 
L 297.732414 60.48424 
L 305.195737 60.439223 
L 310.793229 60.64371 
L 314.52489 60.945857 
L 318.256552 61.414381 
L 321.988213 62.075714 
L 327.585705 63.403897 
L 331.317367 64.304767 
L 333.183197 64.624235 
L 335.049028 64.772611 
L 336.914859 64.706757 
L 338.78069 64.425899 
L 342.512351 63.419708 
L 348.109843 61.740173 
L 351.841505 60.903165 
L 355.573166 60.340179 
L 359.304828 60.005287 
L 364.90232 59.811271 
L 370.499812 59.857996 
L 379.828966 60.216972 
L 396.621442 60.986809 
L 398.487273 61.011238 
L 398.487273 61.011238 
" style="fill:none;stroke:#9467bd;stroke-linecap:square;stroke-width:2;"/>
   </g>
   <g id="line2d_19">
    <path clip-path="url(#pd35b3558f0)" d="M 73.832727 259.15539 
L 75.698558 266.269825 
L 77.564389 284.898776 
L 79.430219 295.488 
L 81.29605 259.07568 
L 83.161881 262.660838 
L 85.027712 259.420092 
L 86.893542 274.810206 
L 88.759373 258.899758 
L 90.625204 259.252351 
L 92.491034 261.526833 
L 94.356865 280.75467 
L 96.222696 270.188459 
L 98.088527 278.654516 
L 99.954357 252.096996 
L 101.820188 255.229787 
L 103.686019 256.686455 
L 105.55185 249.792565 
L 107.41768 269.776624 
L 109.283511 261.965092 
L 111.149342 267.517911 
L 113.015172 260.794996 
L 114.881003 244.362519 
L 116.746834 247.768653 
L 118.612665 249.633141 
L 120.478495 246.678019 
L 122.344326 244.10581 
L 124.210157 248.061189 
L 126.075987 253.280676 
L 127.941818 249.027522 
L 129.807649 255.396507 
L 131.67348 243.704508 
L 133.53931 241.170926 
L 135.405141 243.1859 
L 137.270972 239.828206 
L 139.136803 249.785515 
L 141.002633 247.20115 
L 142.868464 268.455238 
L 144.734295 248.166243 
L 146.600125 258.058101 
L 148.465956 241.106983 
L 152.197618 249.258846 
L 154.063448 243.157736 
L 155.929279 253.093533 
L 157.79511 259.873544 
L 159.66094 242.26982 
L 161.526771 244.269445 
L 163.392602 250.13221 
L 165.258433 251.798366 
L 167.124263 251.640243 
L 168.990094 255.557486 
L 170.855925 268.445508 
L 172.721755 241.097201 
L 176.453417 241.702233 
L 178.319248 264.551518 
L 180.185078 237.96332 
L 182.050909 251.80881 
L 183.91674 241.057915 
L 185.782571 260.397663 
L 187.648401 245.326292 
L 189.514232 254.423079 
L 191.380063 260.738908 
L 193.245893 245.087854 
L 195.111724 258.366606 
L 196.977555 273.022125 
L 198.843386 240.783199 
L 200.709216 241.369425 
L 202.575047 260.58891 
L 204.440878 263.273191 
L 206.306708 240.715141 
L 208.172539 254.847929 
L 210.03837 253.635083 
L 211.904201 250.671464 
L 213.770031 248.111144 
L 215.635862 276.24489 
L 217.501693 251.177221 
L 219.367524 255.889906 
L 221.233354 259.347718 
L 223.099185 258.388432 
L 224.965016 263.552905 
L 226.830846 252.652116 
L 228.696677 260.582195 
L 230.562508 276.537931 
L 232.428339 244.609028 
L 234.294169 259.368859 
L 236.16 253.89423 
L 238.025831 262.248514 
L 239.891661 240.633906 
L 241.757492 241.435186 
L 243.623323 240.820376 
L 245.489154 256.505865 
L 247.354984 247.416692 
L 249.220815 245.414333 
L 251.086646 244.074893 
L 252.952476 249.829818 
L 254.818307 246.38969 
L 256.684138 268.770556 
L 258.549969 260.516664 
L 260.415799 265.997387 
L 262.28163 270.594729 
L 264.147461 257.155944 
L 266.013292 259.753689 
L 267.879122 248.870017 
L 269.744953 258.27594 
L 271.610784 248.246387 
L 273.476614 261.667415 
L 275.342445 261.765789 
L 277.208276 256.378679 
L 279.074107 262.31865 
L 280.939937 252.031778 
L 282.805768 251.34331 
L 284.671599 257.286582 
L 286.537429 274.560708 
L 288.40326 257.523066 
L 290.269091 249.734711 
L 292.134922 246.158068 
L 294.000752 248.19896 
L 295.866583 242.505143 
L 297.732414 244.457638 
L 299.598245 253.194583 
L 301.464075 243.987415 
L 303.329906 243.262771 
L 305.195737 243.760794 
L 307.061567 254.451415 
L 308.927398 243.276092 
L 310.793229 249.587611 
L 312.65906 249.933864 
L 314.52489 249.306242 
L 316.390721 249.776129 
L 318.256552 241.921557 
L 320.122382 245.312447 
L 321.988213 241.636853 
L 325.719875 246.12436 
L 327.585705 246.015923 
L 329.451536 241.684748 
L 331.317367 245.912034 
L 333.183197 255.638232 
L 335.049028 249.58997 
L 336.914859 257.233927 
L 338.78069 242.854403 
L 340.64652 249.407677 
L 342.512351 252.761877 
L 344.378182 244.571664 
L 346.244013 241.215602 
L 348.109843 248.223146 
L 349.975674 241.394324 
L 351.841505 252.4394 
L 353.707335 248.71323 
L 355.573166 249.733498 
L 357.438997 242.27541 
L 359.304828 240.452392 
L 361.170658 245.406678 
L 363.036489 240.924335 
L 364.90232 241.572256 
L 366.76815 248.397119 
L 368.633981 254.346946 
L 370.499812 255.836446 
L 372.365643 258.648642 
L 374.231473 257.226947 
L 376.097304 255.035517 
L 377.963135 250.797282 
L 379.828966 249.585254 
L 381.694796 253.057839 
L 383.560627 248.648691 
L 385.426458 248.613148 
L 387.292288 260.068606 
L 389.158119 258.281292 
L 391.02395 249.139088 
L 392.889781 267.583222 
L 394.755611 260.740205 
L 396.621442 255.232741 
L 398.487273 258.146528 
L 398.487273 258.146528 
" style="fill:none;stroke:#8c564b;stroke-linecap:square;stroke-width:2;"/>
   </g>
   <g id="line2d_20">
    <path clip-path="url(#pd35b3558f0)" d="M 73.832727 70.619722 
L 90.625204 69.778051 
L 111.149342 68.999325 
L 163.392602 67.187906 
L 172.721755 66.569816 
L 180.185078 65.898729 
L 183.91674 65.378452 
L 185.782571 64.960688 
L 187.648401 64.319306 
L 189.514232 63.33831 
L 191.380063 61.991575 
L 193.245893 60.482317 
L 195.111724 59.176698 
L 196.977555 58.314437 
L 198.843386 57.882346 
L 200.709216 57.748961 
L 204.440878 57.947988 
L 219.367524 59.585292 
L 224.965016 59.745384 
L 230.562508 59.618405 
L 243.623323 59.058812 
L 247.354984 59.132166 
L 252.952476 59.479142 
L 262.28163 60.100923 
L 267.879122 60.253619 
L 273.476614 60.218238 
L 280.939937 59.936404 
L 290.269091 59.343853 
L 318.256552 56.927058 
L 323.854044 56.669289 
L 327.585705 56.652811 
L 331.317367 56.819228 
L 335.049028 57.214967 
L 338.78069 57.859111 
L 342.512351 58.72138 
L 357.438997 62.52697 
L 363.036489 63.482208 
L 368.633981 64.146997 
L 376.097304 64.728987 
L 385.426458 65.167849 
L 398.487273 65.517936 
L 398.487273 65.517936 
" style="fill:none;stroke:#e377c2;stroke-linecap:square;stroke-width:2;"/>
   </g>
   <g id="line2d_21">
    <path clip-path="url(#pd35b3558f0)" d="M 73.832727 76.143028 
L 98.088527 73.909314 
L 122.344326 71.448118 
L 139.136803 69.556866 
L 150.331787 68.085778 
L 159.66094 66.638473 
L 168.990094 64.940488 
L 180.185078 62.626883 
L 187.648401 61.10906 
L 191.380063 60.485414 
L 195.111724 60.065172 
L 198.843386 59.830597 
L 200.709216 59.549652 
L 202.575047 58.892254 
L 204.440878 58.019785 
L 206.306708 57.364845 
L 208.172539 57.042489 
L 210.03837 56.940586 
L 213.770031 57.019011 
L 224.965016 57.459516 
L 230.562508 57.443174 
L 238.025831 57.151272 
L 245.489154 56.811012 
L 251.086646 56.799458 
L 256.684138 57.061473 
L 267.879122 57.724141 
L 275.342445 57.873062 
L 282.805768 57.741979 
L 286.537429 57.558104 
L 288.40326 57.385628 
L 290.269091 56.578417 
L 292.134922 57.754934 
L 294.000752 57.443278 
L 303.329906 56.676621 
L 325.719875 54.875947 
L 329.451536 54.773021 
L 333.183197 54.86164 
L 336.914859 55.211796 
L 340.64652 55.860771 
L 344.378182 56.78201 
L 351.841505 59.039789 
L 357.438997 60.632386 
L 361.170658 61.49853 
L 364.90232 62.182559 
L 368.633981 62.697299 
L 374.231473 63.213956 
L 379.828966 63.513138 
L 387.292288 63.701256 
L 398.487273 63.719605 
L 398.487273 63.719605 
" style="fill:none;stroke:#7f7f7f;stroke-linecap:square;stroke-width:2;"/>
   </g>
   <g id="line2d_22">
    <path clip-path="url(#pd35b3558f0)" d="M 73.832727 80.856031 
L 94.356865 78.738872 
L 113.015172 76.581257 
L 129.807649 74.425782 
L 141.002633 72.806302 
L 150.331787 71.269111 
L 159.66094 69.492658 
L 167.124263 67.866424 
L 176.453417 65.578809 
L 202.575047 58.739066 
L 206.306708 57.423022 
L 208.172539 57.23246 
L 213.770031 58.51171 
L 217.501693 58.94775 
L 223.099185 59.309495 
L 228.696677 59.437948 
L 234.294169 59.329159 
L 241.757492 58.897273 
L 247.354984 58.589482 
L 251.086646 58.545426 
L 254.818307 58.684254 
L 260.415799 59.144636 
L 267.879122 59.797924 
L 273.476614 60.089592 
L 279.074107 60.165638 
L 284.671599 60.014153 
L 286.537429 59.884139 
L 288.40326 59.621614 
L 290.269091 57.63805 
L 292.134922 60.409133 
L 294.000752 59.974947 
L 299.598245 59.375296 
L 308.927398 58.34852 
L 318.256552 57.077437 
L 327.585705 55.820983 
L 331.317367 55.560979 
L 335.049028 55.644601 
L 336.914859 55.858472 
L 338.78069 56.198303 
L 342.512351 57.231742 
L 346.244013 58.612846 
L 355.573166 62.3469 
L 359.304828 63.59804 
L 363.036489 64.619921 
L 366.76815 65.41059 
L 370.499812 65.993467 
L 376.097304 66.556723 
L 381.694796 66.853591 
L 389.158119 66.987354 
L 396.621442 66.913307 
L 398.487273 66.862725 
L 398.487273 66.862725 
" style="fill:none;stroke:#bcbd22;stroke-linecap:square;stroke-width:2;"/>
   </g>
   <g id="line2d_23">
    <path clip-path="url(#pd35b3558f0)" d="M 73.832727 168.821698 
L 92.491034 166.833822 
L 109.283511 164.831963 
L 126.075987 162.605506 
L 139.136803 160.643214 
L 148.465956 159.035599 
L 157.79511 157.178536 
L 165.258433 155.469833 
L 172.721755 153.542279 
L 180.185078 151.398518 
L 187.648401 149.052159 
L 193.245893 147.141596 
L 196.977555 145.727817 
L 198.843386 144.918138 
L 200.709216 143.952592 
L 202.575047 142.655928 
L 204.440878 140.585318 
L 206.306708 136.509927 
L 208.172539 129.331387 
L 210.03837 135.966784 
L 211.904201 140.948915 
L 213.770031 142.999585 
L 215.635862 143.941336 
L 217.501693 144.448002 
L 221.233354 144.98724 
L 224.965016 145.272584 
L 230.562508 145.419569 
L 236.16 145.264382 
L 249.220815 144.499313 
L 252.952476 144.594717 
L 256.684138 144.92367 
L 269.744953 146.462434 
L 275.342445 146.768623 
L 280.939937 146.790874 
L 284.671599 146.631245 
L 286.537429 146.461686 
L 288.40326 146.10319 
L 290.269091 142.798248 
L 292.134922 147.159997 
L 294.000752 146.610888 
L 299.598245 145.817581 
L 307.061567 144.691366 
L 312.65906 143.617889 
L 318.256552 142.295741 
L 329.451536 139.281566 
L 331.317367 138.977583 
L 333.183197 138.863322 
L 335.049028 138.994566 
L 336.914859 139.398442 
L 338.78069 140.060433 
L 340.64652 140.93001 
L 344.378182 143.026027 
L 349.975674 146.289408 
L 353.707335 148.226505 
L 357.438997 149.876399 
L 361.170658 151.219173 
L 364.90232 152.264937 
L 368.633981 153.044199 
L 372.365643 153.599311 
L 376.097304 153.975751 
L 381.694796 154.294507 
L 389.158119 154.414623 
L 396.621442 154.287972 
L 398.487273 154.213774 
L 398.487273 154.213774 
" style="fill:none;stroke:#17becf;stroke-linecap:square;stroke-width:2;"/>
   </g>
   <g id="patch_3">
    <path d="M 57.6 307.584 
L 57.6 41.472 
" style="fill:none;stroke:#000000;stroke-linecap:square;stroke-linejoin:miter;stroke-width:0.8;"/>
   </g>
   <g id="patch_4">
    <path d="M 414.72 307.584 
L 414.72 41.472 
" style="fill:none;stroke:#000000;stroke-linecap:square;stroke-linejoin:miter;stroke-width:0.8;"/>
   </g>
   <g id="patch_5">
    <path d="M 57.6 307.584 
L 414.72 307.584 
" style="fill:none;stroke:#000000;stroke-linecap:square;stroke-linejoin:miter;stroke-width:0.8;"/>
   </g>
   <g id="patch_6">
    <path d="M 57.6 41.472 
L 414.72 41.472 
" style="fill:none;stroke:#000000;stroke-linecap:square;stroke-linejoin:miter;stroke-width:0.8;"/>
   </g>
   <g id="text_15">
    <!-- Transmission of different radius -->
    <g transform="translate(141.78375 35.472)scale(0.12 -0.12)">
     <defs>
      <path d="M -0.296875 72.90625 
L 61.375 72.90625 
L 61.375 64.59375 
L 35.5 64.59375 
L 35.5 0 
L 25.59375 0 
L 25.59375 64.59375 
L -0.296875 64.59375 
z
" id="DejaVuSans-84"/>
      <path d="M 30.609375 48.390625 
Q 23.390625 48.390625 19.1875 42.75 
Q 14.984375 37.109375 14.984375 27.296875 
Q 14.984375 17.484375 19.15625 11.84375 
Q 23.34375 6.203125 30.609375 6.203125 
Q 37.796875 6.203125 41.984375 11.859375 
Q 46.1875 17.53125 46.1875 27.296875 
Q 46.1875 37.015625 41.984375 42.703125 
Q 37.796875 48.390625 30.609375 48.390625 
z
M 30.609375 56 
Q 42.328125 56 49.015625 48.375 
Q 55.71875 40.765625 55.71875 27.296875 
Q 55.71875 13.875 49.015625 6.21875 
Q 42.328125 -1.421875 30.609375 -1.421875 
Q 18.84375 -1.421875 12.171875 6.21875 
Q 5.515625 13.875 5.515625 27.296875 
Q 5.515625 40.765625 12.171875 48.375 
Q 18.84375 56 30.609375 56 
z
" id="DejaVuSans-111"/>
      <path id="DejaVuSans-32"/>
      <path d="M 37.109375 75.984375 
L 37.109375 68.5 
L 28.515625 68.5 
Q 23.6875 68.5 21.796875 66.546875 
Q 19.921875 64.59375 19.921875 59.515625 
L 19.921875 54.6875 
L 34.71875 54.6875 
L 34.71875 47.703125 
L 19.921875 47.703125 
L 19.921875 0 
L 10.890625 0 
L 10.890625 47.703125 
L 2.296875 47.703125 
L 2.296875 54.6875 
L 10.890625 54.6875 
L 10.890625 58.5 
Q 10.890625 67.625 15.140625 71.796875 
Q 19.390625 75.984375 28.609375 75.984375 
z
" id="DejaVuSans-102"/>
      <path d="M 56.203125 29.59375 
L 56.203125 25.203125 
L 14.890625 25.203125 
Q 15.484375 15.921875 20.484375 11.0625 
Q 25.484375 6.203125 34.421875 6.203125 
Q 39.59375 6.203125 44.453125 7.46875 
Q 49.3125 8.734375 54.109375 11.28125 
L 54.109375 2.78125 
Q 49.265625 0.734375 44.1875 -0.34375 
Q 39.109375 -1.421875 33.890625 -1.421875 
Q 20.796875 -1.421875 13.15625 6.1875 
Q 5.515625 13.8125 5.515625 26.8125 
Q 5.515625 40.234375 12.765625 48.109375 
Q 20.015625 56 32.328125 56 
Q 43.359375 56 49.78125 48.890625 
Q 56.203125 41.796875 56.203125 29.59375 
z
M 47.21875 32.234375 
Q 47.125 39.59375 43.09375 43.984375 
Q 39.0625 48.390625 32.421875 48.390625 
Q 24.90625 48.390625 20.390625 44.140625 
Q 15.875 39.890625 15.1875 32.171875 
z
" id="DejaVuSans-101"/>
      <path d="M 18.3125 70.21875 
L 18.3125 54.6875 
L 36.8125 54.6875 
L 36.8125 47.703125 
L 18.3125 47.703125 
L 18.3125 18.015625 
Q 18.3125 11.328125 20.140625 9.421875 
Q 21.96875 7.515625 27.59375 7.515625 
L 36.8125 7.515625 
L 36.8125 0 
L 27.59375 0 
Q 17.1875 0 13.234375 3.875 
Q 9.28125 7.765625 9.28125 18.015625 
L 9.28125 47.703125 
L 2.6875 47.703125 
L 2.6875 54.6875 
L 9.28125 54.6875 
L 9.28125 70.21875 
z
" id="DejaVuSans-116"/>
     </defs>
     <use xlink:href="#DejaVuSans-84"/>
     <use x="46.333984" xlink:href="#DejaVuSans-114"/>
     <use x="87.447266" xlink:href="#DejaVuSans-97"/>
     <use x="148.726562" xlink:href="#DejaVuSans-110"/>
     <use x="212.105469" xlink:href="#DejaVuSans-115"/>
     <use x="264.205078" xlink:href="#DejaVuSans-109"/>
     <use x="361.617188" xlink:href="#DejaVuSans-105"/>
     <use x="389.400391" xlink:href="#DejaVuSans-115"/>
     <use x="441.5" xlink:href="#DejaVuSans-115"/>
     <use x="493.599609" xlink:href="#DejaVuSans-105"/>
     <use x="521.382812" xlink:href="#DejaVuSans-111"/>
     <use x="582.564453" xlink:href="#DejaVuSans-110"/>
     <use x="645.943359" xlink:href="#DejaVuSans-32"/>
     <use x="677.730469" xlink:href="#DejaVuSans-111"/>
     <use x="738.912109" xlink:href="#DejaVuSans-102"/>
     <use x="774.117188" xlink:href="#DejaVuSans-32"/>
     <use x="805.904297" xlink:href="#DejaVuSans-100"/>
     <use x="869.380859" xlink:href="#DejaVuSans-105"/>
     <use x="897.164062" xlink:href="#DejaVuSans-102"/>
     <use x="932.369141" xlink:href="#DejaVuSans-102"/>
     <use x="967.574219" xlink:href="#DejaVuSans-101"/>
     <use x="1029.097656" xlink:href="#DejaVuSans-114"/>
     <use x="1067.960938" xlink:href="#DejaVuSans-101"/>
     <use x="1129.484375" xlink:href="#DejaVuSans-110"/>
     <use x="1192.863281" xlink:href="#DejaVuSans-116"/>
     <use x="1232.072266" xlink:href="#DejaVuSans-32"/>
     <use x="1263.859375" xlink:href="#DejaVuSans-114"/>
     <use x="1304.972656" xlink:href="#DejaVuSans-97"/>
     <use x="1366.251953" xlink:href="#DejaVuSans-100"/>
     <use x="1429.728516" xlink:href="#DejaVuSans-105"/>
     <use x="1457.511719" xlink:href="#DejaVuSans-117"/>
     <use x="1520.890625" xlink:href="#DejaVuSans-115"/>
    </g>
   </g>
   <g id="legend_1">
    <g id="patch_7">
     <path d="M 64.6 249.418625 
L 109.325 249.418625 
Q 111.325 249.418625 111.325 247.418625 
L 111.325 101.637375 
Q 111.325 99.637375 109.325 99.637375 
L 64.6 99.637375 
Q 62.6 99.637375 62.6 101.637375 
L 62.6 247.418625 
Q 62.6 249.418625 64.6 249.418625 
z
" style="fill:#ffffff;opacity:0.8;stroke:#cccccc;stroke-linejoin:miter;"/>
    </g>
    <g id="line2d_24">
     <path d="M 66.6 107.735813 
L 86.6 107.735813 
" style="fill:none;stroke:#1f77b4;stroke-linecap:square;stroke-width:2;"/>
    </g>
    <g id="line2d_25"/>
    <g id="text_16">
     <!-- 0 -->
     <g transform="translate(94.6 111.235813)scale(0.1 -0.1)">
      <use xlink:href="#DejaVuSans-48"/>
     </g>
    </g>
    <g id="line2d_26">
     <path d="M 66.6 122.413938 
L 86.6 122.413938 
" style="fill:none;stroke:#ff7f0e;stroke-linecap:square;stroke-width:2;"/>
    </g>
    <g id="line2d_27"/>
    <g id="text_17">
     <!-- 10 -->
     <g transform="translate(94.6 125.913938)scale(0.1 -0.1)">
      <use xlink:href="#DejaVuSans-49"/>
      <use x="63.623047" xlink:href="#DejaVuSans-48"/>
     </g>
    </g>
    <g id="line2d_28">
     <path d="M 66.6 137.092063 
L 86.6 137.092063 
" style="fill:none;stroke:#2ca02c;stroke-linecap:square;stroke-width:2;"/>
    </g>
    <g id="line2d_29"/>
    <g id="text_18">
     <!-- 20 -->
     <g transform="translate(94.6 140.592063)scale(0.1 -0.1)">
      <use xlink:href="#DejaVuSans-50"/>
      <use x="63.623047" xlink:href="#DejaVuSans-48"/>
     </g>
    </g>
    <g id="line2d_30">
     <path d="M 66.6 151.770188 
L 86.6 151.770188 
" style="fill:none;stroke:#d62728;stroke-linecap:square;stroke-width:2;"/>
    </g>
    <g id="line2d_31"/>
    <g id="text_19">
     <!-- 30 -->
     <g transform="translate(94.6 155.270188)scale(0.1 -0.1)">
      <defs>
       <path d="M 40.578125 39.3125 
Q 47.65625 37.796875 51.625 33 
Q 55.609375 28.21875 55.609375 21.1875 
Q 55.609375 10.40625 48.1875 4.484375 
Q 40.765625 -1.421875 27.09375 -1.421875 
Q 22.515625 -1.421875 17.65625 -0.515625 
Q 12.796875 0.390625 7.625 2.203125 
L 7.625 11.71875 
Q 11.71875 9.328125 16.59375 8.109375 
Q 21.484375 6.890625 26.8125 6.890625 
Q 36.078125 6.890625 40.9375 10.546875 
Q 45.796875 14.203125 45.796875 21.1875 
Q 45.796875 27.640625 41.28125 31.265625 
Q 36.765625 34.90625 28.71875 34.90625 
L 20.21875 34.90625 
L 20.21875 43.015625 
L 29.109375 43.015625 
Q 36.375 43.015625 40.234375 45.921875 
Q 44.09375 48.828125 44.09375 54.296875 
Q 44.09375 59.90625 40.109375 62.90625 
Q 36.140625 65.921875 28.71875 65.921875 
Q 24.65625 65.921875 20.015625 65.03125 
Q 15.375 64.15625 9.8125 62.3125 
L 9.8125 71.09375 
Q 15.4375 72.65625 20.34375 73.4375 
Q 25.25 74.21875 29.59375 74.21875 
Q 40.828125 74.21875 47.359375 69.109375 
Q 53.90625 64.015625 53.90625 55.328125 
Q 53.90625 49.265625 50.4375 45.09375 
Q 46.96875 40.921875 40.578125 39.3125 
z
" id="DejaVuSans-51"/>
      </defs>
      <use xlink:href="#DejaVuSans-51"/>
      <use x="63.623047" xlink:href="#DejaVuSans-48"/>
     </g>
    </g>
    <g id="line2d_32">
     <path d="M 66.6 166.448313 
L 86.6 166.448313 
" style="fill:none;stroke:#9467bd;stroke-linecap:square;stroke-width:2;"/>
    </g>
    <g id="line2d_33"/>
    <g id="text_20">
     <!-- 40 -->
     <g transform="translate(94.6 169.948313)scale(0.1 -0.1)">
      <defs>
       <path d="M 37.796875 64.3125 
L 12.890625 25.390625 
L 37.796875 25.390625 
z
M 35.203125 72.90625 
L 47.609375 72.90625 
L 47.609375 25.390625 
L 58.015625 25.390625 
L 58.015625 17.1875 
L 47.609375 17.1875 
L 47.609375 0 
L 37.796875 0 
L 37.796875 17.1875 
L 4.890625 17.1875 
L 4.890625 26.703125 
z
" id="DejaVuSans-52"/>
      </defs>
      <use xlink:href="#DejaVuSans-52"/>
      <use x="63.623047" xlink:href="#DejaVuSans-48"/>
     </g>
    </g>
    <g id="line2d_34">
     <path d="M 66.6 181.126438 
L 86.6 181.126438 
" style="fill:none;stroke:#8c564b;stroke-linecap:square;stroke-width:2;"/>
    </g>
    <g id="line2d_35"/>
    <g id="text_21">
     <!-- 50 -->
     <g transform="translate(94.6 184.626438)scale(0.1 -0.1)">
      <use xlink:href="#DejaVuSans-53"/>
      <use x="63.623047" xlink:href="#DejaVuSans-48"/>
     </g>
    </g>
    <g id="line2d_36">
     <path d="M 66.6 195.804563 
L 86.6 195.804563 
" style="fill:none;stroke:#e377c2;stroke-linecap:square;stroke-width:2;"/>
    </g>
    <g id="line2d_37"/>
    <g id="text_22">
     <!-- 60 -->
     <g transform="translate(94.6 199.304563)scale(0.1 -0.1)">
      <defs>
       <path d="M 33.015625 40.375 
Q 26.375 40.375 22.484375 35.828125 
Q 18.609375 31.296875 18.609375 23.390625 
Q 18.609375 15.53125 22.484375 10.953125 
Q 26.375 6.390625 33.015625 6.390625 
Q 39.65625 6.390625 43.53125 10.953125 
Q 47.40625 15.53125 47.40625 23.390625 
Q 47.40625 31.296875 43.53125 35.828125 
Q 39.65625 40.375 33.015625 40.375 
z
M 52.59375 71.296875 
L 52.59375 62.3125 
Q 48.875 64.0625 45.09375 64.984375 
Q 41.3125 65.921875 37.59375 65.921875 
Q 27.828125 65.921875 22.671875 59.328125 
Q 17.53125 52.734375 16.796875 39.40625 
Q 19.671875 43.65625 24.015625 45.921875 
Q 28.375 48.1875 33.59375 48.1875 
Q 44.578125 48.1875 50.953125 41.515625 
Q 57.328125 34.859375 57.328125 23.390625 
Q 57.328125 12.15625 50.6875 5.359375 
Q 44.046875 -1.421875 33.015625 -1.421875 
Q 20.359375 -1.421875 13.671875 8.265625 
Q 6.984375 17.96875 6.984375 36.375 
Q 6.984375 53.65625 15.1875 63.9375 
Q 23.390625 74.21875 37.203125 74.21875 
Q 40.921875 74.21875 44.703125 73.484375 
Q 48.484375 72.75 52.59375 71.296875 
z
" id="DejaVuSans-54"/>
      </defs>
      <use xlink:href="#DejaVuSans-54"/>
      <use x="63.623047" xlink:href="#DejaVuSans-48"/>
     </g>
    </g>
    <g id="line2d_38">
     <path d="M 66.6 210.482687 
L 86.6 210.482687 
" style="fill:none;stroke:#7f7f7f;stroke-linecap:square;stroke-width:2;"/>
    </g>
    <g id="line2d_39"/>
    <g id="text_23">
     <!-- 70 -->
     <g transform="translate(94.6 213.982687)scale(0.1 -0.1)">
      <use xlink:href="#DejaVuSans-55"/>
      <use x="63.623047" xlink:href="#DejaVuSans-48"/>
     </g>
    </g>
    <g id="line2d_40">
     <path d="M 66.6 225.160813 
L 86.6 225.160813 
" style="fill:none;stroke:#bcbd22;stroke-linecap:square;stroke-width:2;"/>
    </g>
    <g id="line2d_41"/>
    <g id="text_24">
     <!-- 80 -->
     <g transform="translate(94.6 228.660813)scale(0.1 -0.1)">
      <defs>
       <path d="M 31.78125 34.625 
Q 24.75 34.625 20.71875 30.859375 
Q 16.703125 27.09375 16.703125 20.515625 
Q 16.703125 13.921875 20.71875 10.15625 
Q 24.75 6.390625 31.78125 6.390625 
Q 38.8125 6.390625 42.859375 10.171875 
Q 46.921875 13.96875 46.921875 20.515625 
Q 46.921875 27.09375 42.890625 30.859375 
Q 38.875 34.625 31.78125 34.625 
z
M 21.921875 38.8125 
Q 15.578125 40.375 12.03125 44.71875 
Q 8.5 49.078125 8.5 55.328125 
Q 8.5 64.0625 14.71875 69.140625 
Q 20.953125 74.21875 31.78125 74.21875 
Q 42.671875 74.21875 48.875 69.140625 
Q 55.078125 64.0625 55.078125 55.328125 
Q 55.078125 49.078125 51.53125 44.71875 
Q 48 40.375 41.703125 38.8125 
Q 48.828125 37.15625 52.796875 32.3125 
Q 56.78125 27.484375 56.78125 20.515625 
Q 56.78125 9.90625 50.3125 4.234375 
Q 43.84375 -1.421875 31.78125 -1.421875 
Q 19.734375 -1.421875 13.25 4.234375 
Q 6.78125 9.90625 6.78125 20.515625 
Q 6.78125 27.484375 10.78125 32.3125 
Q 14.796875 37.15625 21.921875 38.8125 
z
M 18.3125 54.390625 
Q 18.3125 48.734375 21.84375 45.5625 
Q 25.390625 42.390625 31.78125 42.390625 
Q 38.140625 42.390625 41.71875 45.5625 
Q 45.3125 48.734375 45.3125 54.390625 
Q 45.3125 60.0625 41.71875 63.234375 
Q 38.140625 66.40625 31.78125 66.40625 
Q 25.390625 66.40625 21.84375 63.234375 
Q 18.3125 60.0625 18.3125 54.390625 
z
" id="DejaVuSans-56"/>
      </defs>
      <use xlink:href="#DejaVuSans-56"/>
      <use x="63.623047" xlink:href="#DejaVuSans-48"/>
     </g>
    </g>
    <g id="line2d_42">
     <path d="M 66.6 239.838937 
L 86.6 239.838937 
" style="fill:none;stroke:#17becf;stroke-linecap:square;stroke-width:2;"/>
    </g>
    <g id="line2d_43"/>
    <g id="text_25">
     <!-- 90 -->
     <g transform="translate(94.6 243.338937)scale(0.1 -0.1)">
      <defs>
       <path d="M 10.984375 1.515625 
L 10.984375 10.5 
Q 14.703125 8.734375 18.5 7.8125 
Q 22.3125 6.890625 25.984375 6.890625 
Q 35.75 6.890625 40.890625 13.453125 
Q 46.046875 20.015625 46.78125 33.40625 
Q 43.953125 29.203125 39.59375 26.953125 
Q 35.25 24.703125 29.984375 24.703125 
Q 19.046875 24.703125 12.671875 31.3125 
Q 6.296875 37.9375 6.296875 49.421875 
Q 6.296875 60.640625 12.9375 67.421875 
Q 19.578125 74.21875 30.609375 74.21875 
Q 43.265625 74.21875 49.921875 64.515625 
Q 56.59375 54.828125 56.59375 36.375 
Q 56.59375 19.140625 48.40625 8.859375 
Q 40.234375 -1.421875 26.421875 -1.421875 
Q 22.703125 -1.421875 18.890625 -0.6875 
Q 15.09375 0.046875 10.984375 1.515625 
z
M 30.609375 32.421875 
Q 37.25 32.421875 41.125 36.953125 
Q 45.015625 41.5 45.015625 49.421875 
Q 45.015625 57.28125 41.125 61.84375 
Q 37.25 66.40625 30.609375 66.40625 
Q 23.96875 66.40625 20.09375 61.84375 
Q 16.21875 57.28125 16.21875 49.421875 
Q 16.21875 41.5 20.09375 36.953125 
Q 23.96875 32.421875 30.609375 32.421875 
z
" id="DejaVuSans-57"/>
      </defs>
      <use xlink:href="#DejaVuSans-57"/>
      <use x="63.623047" xlink:href="#DejaVuSans-48"/>
     </g>
    </g>
   </g>
  </g>
 </g>
 <defs>
  <clipPath id="pd35b3558f0">
   <rect height="266.112" width="357.12" x="57.6" y="41.472"/>
  </clipPath>
 </defs>
</svg>
